<?xml version="1.0" encoding="iso-8859-1"?>
<!-- Generator: Adobe Illustrator 16.0.0, SVG Export Plug-In . SVG Version: 6.00 Build 0)  -->
<!DOCTYPE svg PUBLIC "-//W3C//DTD SVG 1.1//EN" "http://www.w3.org/Graphics/SVG/1.1/DTD/svg11.dtd">
<svg version="1.1" id="Capa_1" xmlns="http://www.w3.org/2000/svg" xmlns:xlink="http://www.w3.org/1999/xlink" x="0px" y="0px"
	 width="370.507px" height="370.507px" viewBox="0 0 370.507 370.507" style="enable-background:new 0 0 370.507 370.507;"
	 xml:space="preserve">
<g>
	<path d="M284.525,56.673c22.21,32.69,18.193,53.242,16.488,55.145c-1.705,1.886-7.766,5.488-9.097,13.067
		c-1.319,7.584,34.682,49.47,30.699,56.284c-3.982,6.819-22.175,10.807-22.175,10.807s7.205,16.29,4.542,20.47
		c-2.65,4.169-6.235,3.994-6.235,3.994s4.928,1.145,2.838,5.675c-2.091,4.554-11.899,10.906-13.65,12.518
		c13.545,37.985-0.725,40.706-55.548,39.06c-3.62,2.091-6.271,5.617-7.369,11.49c-0.525,2.021-1.155,1.705-2.008,4.251
		c-0.97,2.896,7.158,7.741,3.07,17.376c-4.086,9.645-10.45,5.581-11.501,8.441c-7.8,21.113-14.807,33.304-9.423,39.469
		c7.847,9.004,19.874,15.788,19.874,15.788l-147.09-0.21c0,0,18.392-95.647,24.808-104.978c6.434-9.342-26.875-32.438-39.147-68.393
		C35.225,120.488,37.297,30.329,130.229,6.952S262.327,23.989,284.525,56.673z"/>
</g>
<g>
</g>
<g>
</g>
<g>
</g>
<g>
</g>
<g>
</g>
<g>
</g>
<g>
</g>
<g>
</g>
<g>
</g>
<g>
</g>
<g>
</g>
<g>
</g>
<g>
</g>
<g>
</g>
<g>
</g>
</svg>
