<?xml version="1.0" encoding="iso-8859-1"?>
<!-- Generator: Adobe Illustrator 16.0.0, SVG Export Plug-In . SVG Version: 6.00 Build 0)  -->
<!DOCTYPE svg PUBLIC "-//W3C//DTD SVG 1.1//EN" "http://www.w3.org/Graphics/SVG/1.1/DTD/svg11.dtd">
<svg version="1.1" id="Capa_1" xmlns="http://www.w3.org/2000/svg" xmlns:xlink="http://www.w3.org/1999/xlink" x="0px" y="0px"
	 width="377.216px" height="377.216px" viewBox="0 0 377.216 377.216" style="enable-background:new 0 0 377.216 377.216;"
	 xml:space="preserve">
<g>
	<path d="M173.263,225.566c-7.625,3.398-9.254,62.367-48.723,53.891c-10.176-4.239,16.943,66.08,3.392,43.754
		c-13.557-22.339-49.143-21.731-41.523-48.857c5.079-14.398-27.973-0.829-51.695-25.409c-23.722-24.604,7.631-27.126,3.386-38.979
		c-4.232-11.875-27.12,5.921-35.995-27.132C-6.775,149.77,88.02,96.727,110.13,56.563c-10.177-20.33,57.621-84.741,88.974-38.12
		c33.904-44.075,76.292,3.743,83.895,11.012c7.602,7.269,36.433,77.974,56.739,94.059c20.307,16.079,62.752,43.223,11.898,99.985
		c18.648,32.182-52.523,57.615-52.523,57.615s4.227,44.933-17.808,60.184c-22.022,15.238,6.772,38.978-1.705,35.592
		c-8.478-3.387-27.967-50.002-11.853-77.128c-16.114-10.171-36.443-66.944-36.443-66.944s38.137-25.41,42.364-38.979
		c4.239-13.563,18.648-44.081,12.716-65.246c-5.932-21.177-31.353-60.155-43.217-66.951c-11.875-6.779-48.308,10.176-48.308,10.176
		s-15.975-12.722-30.875-8.478c-14.888,4.233-42.808,52.792-46.248,71.172C125.387,206.567,180.894,222.167,173.263,225.566z"/>
</g>
<g>
</g>
<g>
</g>
<g>
</g>
<g>
</g>
<g>
</g>
<g>
</g>
<g>
</g>
<g>
</g>
<g>
</g>
<g>
</g>
<g>
</g>
<g>
</g>
<g>
</g>
<g>
</g>
<g>
</g>
</svg>
