<?xml version="1.0" encoding="iso-8859-1"?>
<!-- Generator: Adobe Illustrator 16.0.0, SVG Export Plug-In . SVG Version: 6.00 Build 0)  -->
<!DOCTYPE svg PUBLIC "-//W3C//DTD SVG 1.1//EN" "http://www.w3.org/Graphics/SVG/1.1/DTD/svg11.dtd">
<svg version="1.1" id="Capa_1" xmlns="http://www.w3.org/2000/svg" xmlns:xlink="http://www.w3.org/1999/xlink" x="0px" y="0px"
	 width="376.583px" height="376.583px" viewBox="0 0 376.583 376.583" style="enable-background:new 0 0 376.583 376.583;"
	 xml:space="preserve">
<g>
	<path d="M347.275,293.802c0,0,7.368-22.093,7.368-49.091c-13.919-9.003-19.641-55.641-35.195-51.566
		c-117.016,43.392-128.471-22.904-128.471-22.904s-60.149,42.966-63.424,54.83c-3.264,11.863-5.728,44.186,1.232,74.477
		c-33.957,4.496-35.189-75.294-35.189-75.294s-14.73,21.673-15.548,34.378c-0.812,12.681,17.808,20.049,11.876,45.61
		c-5.944,25.585-17.802,34.366-29.87,33.14c8.588-5.115,13.499-27.208,4.093-51.66c-9.412-24.439-31.511-18.508-33.555-60.65
		c-2.043-42.143,13.09-45.009,13.09-45.009s-60.75,17.603-38.966-36.83c5.821,24.966,12.313,32.608,16.873,25.375
		c11.047-70.384,59.74-44.198,59.74-44.198s63.016-133.381,176.756-66.6c93.301,8.501,105.468,68.241,112.065,109.158
		C393.097,266.805,347.275,293.802,347.275,293.802z"/>
</g>
<g>
</g>
<g>
</g>
<g>
</g>
<g>
</g>
<g>
</g>
<g>
</g>
<g>
</g>
<g>
</g>
<g>
</g>
<g>
</g>
<g>
</g>
<g>
</g>
<g>
</g>
<g>
</g>
<g>
</g>
</svg>
