<?xml version="1.0" encoding="iso-8859-1"?>
<!-- Generator: Adobe Illustrator 16.0.0, SVG Export Plug-In . SVG Version: 6.00 Build 0)  -->
<!DOCTYPE svg PUBLIC "-//W3C//DTD SVG 1.1//EN" "http://www.w3.org/Graphics/SVG/1.1/DTD/svg11.dtd">
<svg version="1.1" id="Capa_1" xmlns="http://www.w3.org/2000/svg" xmlns:xlink="http://www.w3.org/1999/xlink" x="0px" y="0px"
	 width="374.728px" height="374.728px" viewBox="0 0 374.728 374.728" style="enable-background:new 0 0 374.728 374.728;"
	 xml:space="preserve">
<g>
	<path d="M211.768,370.421c-2.056-3.095,57.614-62.776-18.52-96.733c-76.135-33.945-61.223-39.095-64.82-38.58
		c-3.597,0.514-1.541,58.209-16.979,63.616c-15.437,5.418,20.575,9.948,20.575,9.948s-4.11,11.49-2.23,16.979
		c1.868,5.488,8.91,3.084,8.91,3.084s-1.366,7.543,2.919,11.15c4.285,3.609,15.612-1.365,15.612-1.365s9.26,23.657-1.027,34.471
		c-10.288,10.812-56.588-32.416-102.887-31.389c16.967-64.831-31.388-76.146-31.388-76.146s25.678-19.535,31.388-18.018
		c-2.055-8.723-34.985,14.924-34.985,14.924v-23.145c0,0,11.315-11.84,15.939-11.326c-2.055-10.276-21.089,3.619-21.089,3.619
		l-4.122-19.547c0,0,20.073-10.801,26.238-12.868c0-10.288-26.238,6.691-26.238,6.691s0.514-29.847,0-42.697
		c-0.514-12.856,66.361,0,66.361,0S69.26,24.691,149.003,0c11.957,9.482,31.388,56.067,83.654,66.361
		c-28.095,34.477-16.266,76.146-16.266,76.146s14.912-81.477,32.404-68.947c17.504,12.535,26.168,18.736,34.471,24.691
		c-5.723-4.087-10.288,33.449-10.288,33.449s10.579-31.581,17.492-26.752c6.913,4.834,18.521,13.371,27.267,19.04
		c55.046,36.012,46.813,109.578,46.813,109.578S388.734,371.426,211.768,370.421z"/>
</g>
<g>
</g>
<g>
</g>
<g>
</g>
<g>
</g>
<g>
</g>
<g>
</g>
<g>
</g>
<g>
</g>
<g>
</g>
<g>
</g>
<g>
</g>
<g>
</g>
<g>
</g>
<g>
</g>
<g>
</g>
</svg>
