<?xml version="1.0" encoding="iso-8859-1"?>
<!-- Generator: Adobe Illustrator 16.0.0, SVG Export Plug-In . SVG Version: 6.00 Build 0)  -->
<!DOCTYPE svg PUBLIC "-//W3C//DTD SVG 1.1//EN" "http://www.w3.org/Graphics/SVG/1.1/DTD/svg11.dtd">
<svg version="1.1" id="Capa_1" xmlns="http://www.w3.org/2000/svg" xmlns:xlink="http://www.w3.org/1999/xlink" x="0px" y="0px"
	 width="31.651px" height="31.651px" viewBox="0 0 31.651 31.651" style="enable-background:new 0 0 31.651 31.651;"
	 xml:space="preserve">
<g>
	<path d="M19.868,18.896v-1.36h1.215v-1.992l-1.996,0.039l5.545-11.089c0,0-1.562-4.373-8.239-4.49
		C9.714-0.116,7.02,4.257,7.02,4.257l5.11,11.286h-2.06v1.992h1.187v1.404c-0.919,1.261-1.493,2.907-1.493,4.73
		c0,1.878,0.604,3.573,1.57,4.848h-0.077v1.142H9.735v1.992H21.39v-1.992h-1.522v-1.142H19.82c0.968-1.274,1.57-2.97,1.57-4.848
		C21.39,21.825,20.804,20.161,19.868,18.896z"/>
</g>
<g>
</g>
<g>
</g>
<g>
</g>
<g>
</g>
<g>
</g>
<g>
</g>
<g>
</g>
<g>
</g>
<g>
</g>
<g>
</g>
<g>
</g>
<g>
</g>
<g>
</g>
<g>
</g>
<g>
</g>
</svg>
