<?xml version="1.0" encoding="iso-8859-1"?>
<!-- Generator: Adobe Illustrator 16.0.0, SVG Export Plug-In . SVG Version: 6.00 Build 0)  -->
<!DOCTYPE svg PUBLIC "-//W3C//DTD SVG 1.1//EN" "http://www.w3.org/Graphics/SVG/1.1/DTD/svg11.dtd">
<svg version="1.1" id="Capa_1" xmlns="http://www.w3.org/2000/svg" xmlns:xlink="http://www.w3.org/1999/xlink" x="0px" y="0px"
	 width="31.613px" height="31.613px" viewBox="0 0 31.613 31.613" style="enable-background:new 0 0 31.613 31.613;"
	 xml:space="preserve">
<g>
	<path d="M20.23,17.014l0.336-0.334l-1.463-2.375l0.93-0.931l1.338,2.312l0.363-0.365l0.336,0.693l0.506-0.247l-0.42-0.868
		l0.334-0.335l-1.392-2.257l1.095-1.095l1.32,2.282l0.364-0.365l0.335,0.693l0.506-0.246l-0.421-0.868l0.335-0.335l-1.374-2.229
		l0.927-0.927l1.252,2.163l0.364-0.365l0.336,0.692l0.507-0.245l-0.422-0.868l0.335-0.335l-1.301-2.111l1.245-1.246l1.285,2.223
		l0.365-0.365l0.336,0.692l0.506-0.246l-0.422-0.868l0.336-0.335l-1.338-2.17l0.929-0.924l1.216,2.103l0.363-0.365l0.336,0.692
		l0.506-0.245l-0.421-0.868l0.815-0.793l-1.963-3.185L25.924,0l-0.82,0.798l-0.928-0.45l-0.245,0.506l0.75,0.364l-0.379,0.379
		l2.582,1.531L25.951,4.06l-2.434-1.491l-0.34,0.341l-0.926-0.45l-0.246,0.506l0.751,0.365l-0.379,0.38l2.463,1.461l-1.179,1.179
		l-2.493-1.524l-0.341,0.34l-0.926-0.449l-0.246,0.506l0.752,0.365l-0.381,0.379l2.523,1.496l-0.932,0.931L19.244,6.94l-0.342,0.341
		l-0.926-0.45l-0.244,0.506l0.75,0.365l-0.379,0.379l2.403,1.426l-1.062,1.061l-2.347-1.436l-0.34,0.34l-0.927-0.449l-0.246,0.506
		l0.751,0.365l-0.38,0.379l2.375,1.408l-0.93,0.93l-2.229-1.365l-0.341,0.34l-0.926-0.449l-0.246,0.506l0.75,0.364l-0.379,0.379
		l2.256,1.338l-1.004,1.005l-1.797-1.797l-2.908,2.908c0,0,0.04,2.465-0.768,3.07l-9.511,9.513l3.191,3.19l9.392-9.393
		c0.989-1.029,3.11-0.97,3.11-0.97l2.909-2.908l-1.918-1.918l1.058-1.058l1.407,2.431l0.363-0.364l0.336,0.691l0.506-0.245
		L20.23,17.014z"/>
</g>
<g>
</g>
<g>
</g>
<g>
</g>
<g>
</g>
<g>
</g>
<g>
</g>
<g>
</g>
<g>
</g>
<g>
</g>
<g>
</g>
<g>
</g>
<g>
</g>
<g>
</g>
<g>
</g>
<g>
</g>
</svg>
