<?xml version="1.0" encoding="iso-8859-1"?>
<!-- Generator: Adobe Illustrator 16.0.0, SVG Export Plug-In . SVG Version: 6.00 Build 0)  -->
<!DOCTYPE svg PUBLIC "-//W3C//DTD SVG 1.1//EN" "http://www.w3.org/Graphics/SVG/1.1/DTD/svg11.dtd">
<svg version="1.1" id="Capa_1" xmlns="http://www.w3.org/2000/svg" xmlns:xlink="http://www.w3.org/1999/xlink" x="0px" y="0px"
	 width="30.617px" height="30.617px" viewBox="0 0 30.617 30.617" style="enable-background:new 0 0 30.617 30.617;"
	 xml:space="preserve">
<g>
	<g>
		<path d="M23.615,7.304l-6.168-5.441c0.033-0.124,0.057-0.251,0.057-0.385C17.502,0.661,16.842,0,16.024,0
			c-0.816,0-1.478,0.661-1.478,1.478c0,0.201,0.041,0.393,0.114,0.568L8.448,7.304H0.184v23.313h30.25V7.304H23.615z M15.121,2.639
			c0.25,0.195,0.562,0.316,0.904,0.316c0.406,0,0.774-0.164,1.041-0.429l5.416,4.777H9.607L15.121,2.639z M29.434,29.616H1.184
			V8.304h28.25V29.616z"/>
		<path d="M21.625,15.017c-1.154,0.223-2.385,0.46-3.412,0.653l7.607,0.304l-0.394-0.244C25.427,15.729,23.647,15.394,21.625,15.017
			z"/>
		<path d="M9.806,14.507c0.003-0.002,0.008-0.002,0.011-0.001c-0.006,0.004-0.012,0.008-0.012,0.008l6.215,0.243l0.602-0.656
			c-0.412-0.072-0.683-0.115-0.742-0.119c-2.399-0.448-3.928-2.48-3.972-2.538c-0.39-0.675-1.175-1.141-2.083-1.145
			c-1.299-0.006-2.36,0.932-2.366,2.092C7.455,13.55,8.507,14.499,9.806,14.507z M9.823,10.98c0.922,0.004,1.67,0.646,1.666,1.431
			c-0.004,0.783-0.757,1.417-1.681,1.412c-0.922-0.004-1.67-0.646-1.667-1.429C8.145,11.609,8.899,10.976,9.823,10.98z"/>
		<path d="M9.587,19.473c0.926,0.004,1.729-0.475,2.117-1.168c0.11-0.143,1.626-2.041,3.974-2.455
			c0.374-0.013,9.569-1.816,9.569-1.816l0.367-0.245l-8.656,0.372l-0.833,0.907l-6.393,0.204C9.69,15.27,9.65,15.266,9.608,15.266
			c-1.299-0.008-2.36,0.931-2.366,2.091S8.288,19.465,9.587,19.473z M17.281,14.536c0.198,0.002,0.357,0.162,0.357,0.36
			c-0.001,0.199-0.163,0.359-0.361,0.357c-0.197-0.001-0.357-0.163-0.357-0.36C16.92,14.695,17.082,14.534,17.281,14.536z
			 M9.604,15.946c0.923,0.005,1.67,0.647,1.667,1.43c-0.003,0.785-0.758,1.418-1.681,1.414c-0.923-0.005-1.67-0.646-1.667-1.431
			C7.928,16.575,8.683,15.941,9.604,15.946z"/>
		<path d="M3.645,25.843c0.224,0.24,0.496,0.431,0.818,0.569c0.322,0.14,0.692,0.209,1.11,0.209c0.375,0,0.709-0.062,1.002-0.188
			s0.54-0.289,0.739-0.494c0.199-0.203,0.351-0.434,0.454-0.688s0.155-0.512,0.155-0.771H6.366
			c-0.024,0.121-0.057,0.232-0.097,0.338c-0.041,0.106-0.094,0.197-0.159,0.274c-0.065,0.077-0.144,0.138-0.238,0.181
			c-0.094,0.043-0.208,0.064-0.342,0.064c-0.188,0-0.344-0.041-0.468-0.123c-0.125-0.081-0.225-0.189-0.299-0.324
			c-0.075-0.134-0.128-0.285-0.162-0.453s-0.05-0.34-0.05-0.513s0.017-0.343,0.05-0.512c0.034-0.168,0.087-0.319,0.162-0.454
			c0.074-0.134,0.174-0.242,0.299-0.324c0.125-0.08,0.281-0.121,0.468-0.121c0.163,0,0.296,0.03,0.4,0.094
			c0.104,0.062,0.186,0.135,0.249,0.216c0.063,0.082,0.106,0.165,0.13,0.249s0.041,0.15,0.05,0.197H7.9
			c-0.067-0.647-0.294-1.148-0.681-1.502c-0.387-0.354-0.936-0.533-1.647-0.537c-0.398,0-0.758,0.064-1.077,0.193
			c-0.32,0.131-0.594,0.312-0.822,0.549c-0.228,0.234-0.403,0.52-0.526,0.851c-0.123,0.332-0.184,0.698-0.184,1.103
			c0,0.381,0.058,0.734,0.173,1.063C3.252,25.318,3.421,25.604,3.645,25.843z"/>
		<polygon points="10.171,21.354 8.585,21.354 8.585,26.499 12.449,26.499 12.449,25.18 10.171,25.18 		"/>
		<path d="M17.476,21.991c-0.228-0.238-0.503-0.425-0.825-0.56s-0.677-0.201-1.067-0.201c-0.389,0-0.745,0.066-1.066,0.201
			s-0.597,0.32-0.825,0.56c-0.228,0.237-0.405,0.521-0.53,0.851s-0.188,0.69-0.188,1.084c0,0.395,0.063,0.756,0.188,1.085
			s0.302,0.612,0.53,0.851s0.503,0.425,0.825,0.56c0.322,0.136,0.677,0.201,1.066,0.201c0.39,0,0.745-0.065,1.067-0.201
			c0.322-0.135,0.598-0.321,0.825-0.56c0.228-0.237,0.405-0.521,0.53-0.851c0.125-0.329,0.188-0.69,0.188-1.085
			c0-0.394-0.062-0.755-0.188-1.084C17.881,22.514,17.703,22.229,17.476,21.991z M16.502,24.633
			c-0.069,0.184-0.155,0.325-0.256,0.43c-0.102,0.104-0.211,0.174-0.333,0.215s-0.23,0.062-0.332,0.062
			c-0.101,0-0.211-0.021-0.331-0.062c-0.121-0.041-0.231-0.111-0.332-0.215c-0.101-0.104-0.187-0.246-0.256-0.43
			c-0.07-0.183-0.104-0.418-0.104-0.707c0-0.287,0.035-0.523,0.104-0.706s0.155-0.325,0.256-0.429s0.211-0.176,0.332-0.216
			c0.12-0.041,0.23-0.062,0.331-0.062s0.211,0.021,0.332,0.062c0.12,0.04,0.231,0.112,0.333,0.216
			c0.101,0.104,0.187,0.246,0.256,0.429c0.07,0.183,0.104,0.419,0.104,0.706C16.606,24.215,16.572,24.45,16.502,24.633z"/>
		<path d="M22.729,23.829c-0.137-0.113-0.292-0.206-0.465-0.277s-0.352-0.135-0.533-0.188c-0.184-0.048-0.361-0.093-0.537-0.134
			c-0.175-0.041-0.333-0.084-0.472-0.131c-0.14-0.045-0.253-0.098-0.343-0.158c-0.088-0.06-0.135-0.135-0.141-0.228
			c0-0.071,0.021-0.13,0.059-0.176c0.037-0.046,0.086-0.081,0.144-0.104s0.12-0.041,0.188-0.051c0.066-0.01,0.127-0.015,0.18-0.015
			c0.082,0,0.163,0.01,0.245,0.028c0.082,0.02,0.155,0.054,0.224,0.102c0.067,0.043,0.119,0.1,0.155,0.166s0.047,0.148,0.033,0.245
			h1.499c-0.01-0.313-0.075-0.575-0.195-0.789s-0.279-0.388-0.477-0.521c-0.196-0.132-0.422-0.227-0.676-0.283
			c-0.256-0.059-0.521-0.088-0.801-0.088c-0.264,0-0.521,0.032-0.771,0.099c-0.25,0.063-0.471,0.167-0.662,0.306
			c-0.192,0.141-0.348,0.316-0.465,0.53c-0.118,0.214-0.178,0.47-0.178,0.769c0,0.26,0.053,0.471,0.159,0.637
			s0.242,0.304,0.407,0.412c0.166,0.106,0.354,0.193,0.562,0.259s0.414,0.127,0.615,0.185c0.221,0.062,0.404,0.116,0.549,0.162
			c0.144,0.045,0.256,0.089,0.338,0.129c0.082,0.041,0.14,0.085,0.174,0.13c0.033,0.046,0.05,0.104,0.05,0.171
			c0,0.096-0.021,0.174-0.063,0.233s-0.1,0.106-0.166,0.144c-0.068,0.037-0.14,0.062-0.217,0.072
			c-0.076,0.012-0.146,0.018-0.209,0.018c-0.148,0-0.298-0.022-0.447-0.07c-0.148-0.049-0.252-0.148-0.31-0.303
			c-0.038-0.103-0.058-0.215-0.058-0.34h-1.586c0,0.273,0.043,0.51,0.131,0.707c0.087,0.196,0.197,0.364,0.332,0.504
			c0.134,0.14,0.285,0.25,0.453,0.332s0.336,0.146,0.504,0.193c0.168,0.049,0.328,0.08,0.477,0.094
			c0.148,0.016,0.271,0.021,0.368,0.021c0.288,0,0.573-0.029,0.856-0.09c0.285-0.061,0.539-0.158,0.765-0.295
			c0.226-0.139,0.407-0.318,0.548-0.545c0.139-0.227,0.209-0.508,0.209-0.844c0-0.234-0.041-0.437-0.123-0.602
			C22.976,24.081,22.867,23.941,22.729,23.829z"/>
		<polygon points="27.929,22.672 27.929,21.354 23.67,21.354 23.67,26.499 28.009,26.499 28.009,25.18 25.256,25.18 25.256,24.539 
			27.684,24.539 27.684,23.312 25.256,23.312 25.256,22.672 		"/>
	</g>
</g>
<g>
</g>
<g>
</g>
<g>
</g>
<g>
</g>
<g>
</g>
<g>
</g>
<g>
</g>
<g>
</g>
<g>
</g>
<g>
</g>
<g>
</g>
<g>
</g>
<g>
</g>
<g>
</g>
<g>
</g>
</svg>
