<?xml version="1.0" encoding="iso-8859-1"?>
<!-- Generator: Adobe Illustrator 16.0.0, SVG Export Plug-In . SVG Version: 6.00 Build 0)  -->
<!DOCTYPE svg PUBLIC "-//W3C//DTD SVG 1.1//EN" "http://www.w3.org/Graphics/SVG/1.1/DTD/svg11.dtd">
<svg version="1.1" id="Capa_1" xmlns="http://www.w3.org/2000/svg" xmlns:xlink="http://www.w3.org/1999/xlink" x="0px" y="0px"
	 width="31.229px" height="31.229px" viewBox="0 0 31.229 31.229" style="enable-background:new 0 0 31.229 31.229;"
	 xml:space="preserve">
<g>
	<g>
		<path d="M4.644,21.088l2.818,2.574l0.373-0.408l-2.818-2.573l0.322-0.354L8.157,22.9l0.373-0.408l-2.818-2.574l0.312-0.341
			l2.818,2.574l0.373-0.408l-2.819-2.574l0.263-0.287l2.818,2.574l0.372-0.408l-2.818-2.573l0.312-0.342l2.818,2.574l0.373-0.408
			l-2.818-2.573l0.262-0.288l2.818,2.574l0.373-0.407L8.351,17.03l0.312-0.342l2.818,2.574l0.373-0.407l-2.818-2.574l0.323-0.353
			l2.818,2.573l0.373-0.408l-2.82-2.574l0.312-0.341l2.818,2.572l0.372-0.408l-2.818-2.573l0.33-0.361l2.818,2.574l0.372-0.407
			l-2.818-2.574l0.313-0.342l2.818,2.574l0.373-0.408l-2.818-2.574l0.263-0.288l2.818,2.574l0.373-0.407l-2.818-2.573l0.312-0.342
			l2.818,2.574l0.373-0.408l-2.818-2.574l0.323-0.353l2.818,2.574l0.373-0.408l-2.818-2.574l0.312-0.342l2.818,2.575l0.372-0.408
			l-2.818-2.574l0.305-0.335l2.818,2.574l0.373-0.407l-2.818-2.574l0.312-0.342l2.818,2.574l0.372-0.408l-2.818-2.573l0.323-0.354
			l2.818,2.574l0.373-0.408l-2.818-2.574l0.312-0.342l2.818,2.574l0.373-0.408l-2.818-2.574l0.33-0.36l2.817,2.574L20.762,9.1
			l-2.818-2.574l0.313-0.342l2.818,2.574l0.373-0.408L18.63,5.775l0.262-0.288l2.818,2.575l0.373-0.408l-2.818-2.574l0.312-0.342
			l2.817,2.574l0.372-0.408l-2.817-2.574l0.322-0.353l2.818,2.574l0.373-0.408l-2.818-2.574l0.312-0.341l2.817,2.574l0.373-0.408
			L21.33,2.82l0.326-0.357l2.817,2.574l0.372-0.408l-2.818-2.574l0.202-0.221c0.125-0.136,0.194-0.212,0.194-0.212
			s2.15,1.964,2.473,2.258c0.322,0.295,0.69,0.358,1.085-0.173c-0.412-0.377-3.263-3.089-3.562-3.363
			c-0.3-0.275-0.714-0.501-0.986-0.204c-0.012,0.014-0.077,0.084-0.179,0.196c-0.079,0.086-0.176,0.193-0.302,0.331L1.113,22.385
			c-0.29,0.317-0.459,0.504-0.48,0.526c-0.272,0.298-0.009,0.689,0.291,0.964c0.302,0.275,3.26,2.868,3.672,3.246
			c0.493-0.441,0.397-0.803,0.075-1.098c-0.322-0.294-2.472-2.257-2.472-2.257s0.069-0.076,0.194-0.212l0.248-0.271l2.818,2.574
			l0.372-0.408l-2.818-2.574l0.312-0.341l2.818,2.574l0.373-0.409l-2.818-2.574l0.262-0.287l2.818,2.574l0.373-0.408l-2.818-2.573
			L4.644,21.088z"/>
		<path d="M27.133,6.876c-0.301-0.274-0.714-0.5-0.986-0.202c-0.006,0.007-0.031,0.035-0.066,0.072l-0.415,0.454L8.046,26.492
			c-0.29,0.318-0.459,0.503-0.481,0.527c-0.272,0.297-0.009,0.688,0.292,0.963c0.301,0.274,3.26,2.869,3.672,3.246
			c0.494-0.442,0.397-0.804,0.075-1.098c-0.322-0.294-2.473-2.258-2.473-2.258l-0.12-0.499l0.147-0.162l3.132,2.86l0.373-0.408
			l-3.132-2.859l0.323-0.354l3.132,2.86l0.373-0.408l-3.132-2.86l0.312-0.341l3.132,2.86l0.372-0.408l-3.132-2.86l0.262-0.287
			l3.132,2.86l0.373-0.408l-3.132-2.859l0.312-0.343l3.132,2.86l0.373-0.408l-3.132-2.859l0.263-0.287l3.132,2.859l0.372-0.407
			l-3.132-2.86l0.312-0.341l3.132,2.859l0.373-0.407l-3.132-2.86l0.323-0.354l3.132,2.86l0.373-0.408l-3.132-2.859l0.313-0.343
			l3.132,2.86l0.373-0.407l-3.132-2.859l0.33-0.361l3.132,2.86l0.373-0.408l-3.132-2.86l0.312-0.341l3.133,2.86l0.372-0.408
			l-3.132-2.86l0.263-0.287l3.132,2.86l0.372-0.408l-3.132-2.859l0.312-0.342l3.132,2.86l0.373-0.408l-3.132-2.859l0.323-0.354
			l3.132,2.86l0.373-0.408l-3.132-2.86l0.312-0.341l3.133,2.86l0.373-0.408l-3.134-2.86l0.307-0.334l3.132,2.86l0.373-0.408
			l-3.132-2.859l0.312-0.343l3.132,2.86l0.373-0.408l-3.132-2.859l0.323-0.353l3.132,2.86l0.373-0.408l-3.132-2.86l0.312-0.342
			l3.132,2.86l0.372-0.407l-3.132-2.86l0.33-0.361l3.132,2.859l0.372-0.408l-3.132-2.859l0.312-0.341l3.132,2.859l0.373-0.408
			l-3.133-2.86l0.263-0.287l3.132,2.86l0.373-0.408l-3.132-2.86l0.312-0.341l3.132,2.86l0.373-0.408l-3.132-2.86l0.323-0.354
			l3.132,2.86l0.373-0.408l-3.132-2.86l0.312-0.341l3.133,2.86l0.371-0.408l-3.132-2.86l0.326-0.356l3.132,2.86l0.373-0.408
			l-3.132-2.86l0.09-0.099l0.508,0.074c0,0,2.15,1.964,2.474,2.258c0.321,0.294,0.689,0.357,1.086-0.174
			C30.285,9.864,27.434,7.151,27.133,6.876z"/>
	</g>
</g>
<g>
</g>
<g>
</g>
<g>
</g>
<g>
</g>
<g>
</g>
<g>
</g>
<g>
</g>
<g>
</g>
<g>
</g>
<g>
</g>
<g>
</g>
<g>
</g>
<g>
</g>
<g>
</g>
<g>
</g>
</svg>
