<?xml version="1.0" encoding="iso-8859-1"?>
<!-- Generator: Adobe Illustrator 16.0.0, SVG Export Plug-In . SVG Version: 6.00 Build 0)  -->
<!DOCTYPE svg PUBLIC "-//W3C//DTD SVG 1.1//EN" "http://www.w3.org/Graphics/SVG/1.1/DTD/svg11.dtd">
<svg version="1.1" id="Capa_1" xmlns="http://www.w3.org/2000/svg" xmlns:xlink="http://www.w3.org/1999/xlink" x="0px" y="0px"
	 width="31.654px" height="31.654px" viewBox="0 0 31.654 31.654" style="enable-background:new 0 0 31.654 31.654;"
	 xml:space="preserve">
<g>
	<path d="M5.597,23.498c0,0-0.01-11.3-5.597-14.113C2.308,6.49,5.059,3.038,7.145,0.421c6.004,5.604,14.562,2.865,14.562,2.865
		L5.597,23.498z M22.619,3.286L5.574,24.663l2.714,2.163L25.333,5.449L22.619,3.286z M20.956,11.881l6.626,5.281l0.818-1.027
		l-6.625-5.281L20.956,11.881z M19.298,13.959l6.625,5.278l0.819-1.026l-6.625-5.279L19.298,13.959z M25.027,6.774l-0.818,1.028
		l6.625,5.281l0.82-1.028L25.027,6.774z M22.549,9.881l6.626,5.281l0.818-1.026l-6.626-5.281L22.549,9.881z M17.76,15.892
		l6.627,5.281l0.818-1.027l-6.626-5.282L17.76,15.892z M16.104,17.97l6.625,5.279l0.817-1.026l-6.625-5.28L16.104,17.97z
		 M14.593,19.866l6.626,5.281l0.818-1.027l-6.626-5.281L14.593,19.866z M12.934,21.946l6.626,5.281l0.818-1.027l-6.626-5.281
		L12.934,21.946z M11.395,23.874l6.626,5.279l0.817-1.026l-6.625-5.28L11.395,23.874z M9.739,25.954l6.626,5.279l0.818-1.027
		l-6.625-5.279L9.739,25.954z"/>
</g>
<g>
</g>
<g>
</g>
<g>
</g>
<g>
</g>
<g>
</g>
<g>
</g>
<g>
</g>
<g>
</g>
<g>
</g>
<g>
</g>
<g>
</g>
<g>
</g>
<g>
</g>
<g>
</g>
<g>
</g>
</svg>
