<?xml version="1.0" encoding="iso-8859-1"?>
<!-- Generator: Adobe Illustrator 16.0.0, SVG Export Plug-In . SVG Version: 6.00 Build 0)  -->
<!DOCTYPE svg PUBLIC "-//W3C//DTD SVG 1.1//EN" "http://www.w3.org/Graphics/SVG/1.1/DTD/svg11.dtd">
<svg version="1.1" id="Capa_1" xmlns="http://www.w3.org/2000/svg" xmlns:xlink="http://www.w3.org/1999/xlink" x="0px" y="0px"
	 width="31.775px" height="31.775px" viewBox="0 0 31.775 31.775" style="enable-background:new 0 0 31.775 31.775;"
	 xml:space="preserve">
<g>
	<path d="M30.587,6.213c0.333,0.338,0.729,0.426,1.188-0.129c-0.428-0.434-3.375-3.54-3.687-3.856
		c-0.312-0.313-0.748-0.585-1.062-0.276C26.716,2.26,0.63,28.035,0.11,28.55c-0.52,0.514,0.956,1.708,1.326,1.342
		C1.61,29.721,7.47,23.93,13.643,17.831l2.673,2.707l0.363-0.359l-2.674-2.707c0.101-0.099,0.201-0.198,0.302-0.298l2.673,2.706
		l0.362-0.357l-2.675-2.707c0.085-0.084,0.17-0.168,0.255-0.253l2.674,2.707l0.361-0.356l-2.674-2.706
		c0.101-0.101,0.202-0.2,0.303-0.3l2.674,2.706l0.362-0.356l-2.674-2.706c0.084-0.083,0.167-0.165,0.25-0.248l2.674,2.706
		l0.361-0.357l-2.674-2.707c0.102-0.1,0.202-0.199,0.302-0.299l2.675,2.706l0.361-0.356l-2.674-2.706
		c0.085-0.084,0.17-0.168,0.255-0.254l2.674,2.707l0.361-0.356l-2.673-2.706c0.101-0.101,0.202-0.2,0.303-0.299l2.673,2.706
		l0.362-0.357l-2.673-2.707c0.104-0.104,0.209-0.207,0.312-0.31l2.675,2.707l0.361-0.358l-2.674-2.706
		c0.103-0.101,0.202-0.2,0.303-0.299l2.675,2.706l0.361-0.357l-2.672-2.709c0.085-0.084,0.169-0.167,0.254-0.251l2.674,2.706
		l0.363-0.356l-2.674-2.706c0.102-0.102,0.203-0.201,0.303-0.3l2.674,2.707l0.362-0.357l-2.674-2.707
		c0.085-0.083,0.171-0.168,0.255-0.251l2.673,2.706l0.363-0.358l-2.674-2.706c0.102-0.1,0.203-0.2,0.304-0.299l2.674,2.706
		l0.361-0.356l-2.676-2.707c0.105-0.105,0.21-0.208,0.313-0.312l2.674,2.706l0.362-0.356l-2.674-2.706
		c0.103-0.102,0.204-0.201,0.303-0.301l2.674,2.707l0.362-0.356l-2.674-2.707c0.107-0.107,0.215-0.212,0.32-0.316l2.674,2.706
		l0.361-0.356l-2.674-2.706c0.104-0.103,0.204-0.201,0.303-0.301l2.675,2.707l0.36-0.358L25.1,6.51
		c0.086-0.085,0.17-0.169,0.254-0.251l2.674,2.707l0.362-0.357l-2.674-2.707c0.104-0.103,0.206-0.203,0.303-0.299l2.674,2.706
		l0.362-0.358l-2.674-2.705c0.11-0.108,0.214-0.212,0.312-0.311l2.674,2.706l0.361-0.358l-2.673-2.707
		c0.108-0.106,0.211-0.208,0.303-0.299l2.675,2.706l0.36-0.356L27.72,3.92c0.198-0.195,0.304-0.302,0.304-0.302
		S30.252,5.874,30.587,6.213z"/>
</g>
<g>
</g>
<g>
</g>
<g>
</g>
<g>
</g>
<g>
</g>
<g>
</g>
<g>
</g>
<g>
</g>
<g>
</g>
<g>
</g>
<g>
</g>
<g>
</g>
<g>
</g>
<g>
</g>
<g>
</g>
</svg>
