<?xml version="1.0" encoding="iso-8859-1"?>
<!-- Generator: Adobe Illustrator 16.0.0, SVG Export Plug-In . SVG Version: 6.00 Build 0)  -->
<!DOCTYPE svg PUBLIC "-//W3C//DTD SVG 1.1//EN" "http://www.w3.org/Graphics/SVG/1.1/DTD/svg11.dtd">
<svg version="1.1" id="Capa_1" xmlns="http://www.w3.org/2000/svg" xmlns:xlink="http://www.w3.org/1999/xlink" x="0px" y="0px"
	 width="569.626px" height="569.626px" viewBox="0 0 569.626 569.626" style="enable-background:new 0 0 569.626 569.626;"
	 xml:space="preserve">
<g>
	<path d="M464.007,0h-10.072v208.266h-12.321V0h-10.09v208.266h-9.751V0h-10.089v208.266h-10.482V0h-10.09v208.266h-12.304V0
		h-10.125v208.266h-8.287V0h-10.071v208.266h-9.375V0h-10.09v208.266h-10.482V0h-10.09v208.266h-12.321V0h-10.117v208.266h-10.482V0
		h-10.09v208.266h-8.098V0H249.08v208.266h-10.474V0h-10.099v208.266h-9.384V0h-10.089v208.266h-10.483V0h-10.089v208.266h-9.384V0
		h-10.09v208.266h-10.482V0h-10.089v208.266h-12.304V0h-10.116v208.266h-10.482V0h-10.09v208.266c0,0,0,1.384,0,3.857
		c0,10.018,0,38.93,0,75.922c0,46.108,132.263,88.413,135.576,137.433c3.312,49.02-39.68,105.719-40.778,144.148
		c94.797,0,116.834,0,169.175,0c-1.107-38.43-44.073-95.129-40.769-144.148c3.303-49.02,135.575-91.288,135.575-137.433
		c0-46.135,0-79.779,0-79.779h-0.196V0z"/>
</g>
<g>
</g>
<g>
</g>
<g>
</g>
<g>
</g>
<g>
</g>
<g>
</g>
<g>
</g>
<g>
</g>
<g>
</g>
<g>
</g>
<g>
</g>
<g>
</g>
<g>
</g>
<g>
</g>
<g>
</g>
</svg>
