<?xml version="1.0" encoding="iso-8859-1"?>
<!-- Generator: Adobe Illustrator 16.0.0, SVG Export Plug-In . SVG Version: 6.00 Build 0)  -->
<!DOCTYPE svg PUBLIC "-//W3C//DTD SVG 1.1//EN" "http://www.w3.org/Graphics/SVG/1.1/DTD/svg11.dtd">
<svg version="1.1" id="Capa_1" xmlns="http://www.w3.org/2000/svg" xmlns:xlink="http://www.w3.org/1999/xlink" x="0px" y="0px"
	 width="581.146px" height="581.146px" viewBox="0 0 581.146 581.146" style="enable-background:new 0 0 581.146 581.146;"
	 xml:space="preserve">
<g>
	<g>
		<path d="M136.926,499.517c-5.286-4.822-40.448-36.966-40.448-36.966s1.134-1.214,3.179-3.464l4.045-4.447l46.118,42.109
			l6.089-6.662l-46.1-42.107l5.098-5.59l46.1,42.108l6.09-6.679l-46.1-42.109l4.304-4.695l46.1,42.107l6.089-6.678l-46.1-42.109
			l5.116-5.59l46.1,42.109l6.089-6.679l-46.1-42.108l5.286-5.786l46.1,42.126l6.089-6.679l-46.1-42.108l5.098-5.59l46.1,42.127
			l6.089-6.679l-46.1-42.108l4.304-4.715l46.1,42.127l6.089-6.68l-46.1-42.09l5.098-5.607l46.1,42.126l6.089-6.679l-46.1-42.108
			l4.277-4.714l46.1,42.125l6.089-6.678l-46.1-42.109l5.107-5.607l46.1,42.127l6.089-6.679l-46.126-42.091l5.286-5.785l46.1,42.107
			l6.089-6.678l-46.1-42.109l5.107-5.59l46.1,42.109l6.089-6.68l-46.1-42.107l5.393-5.912l46.1,42.127l6.089-6.66l-46.1-42.109
			l5.116-5.607l46.1,42.126l6.09-6.68l-46.1-42.108l4.304-4.706l46.1,42.118l6.089-6.68l-46.099-42.108l5.098-5.598l46.108,42.117
			l6.09-6.678l-46.108-42.109l5.286-5.786l46.109,42.109l6.089-6.679l-46.126-42.1l5.099-5.598l46.1,42.117l6.09-6.679l-46.1-42.108
			l4.99-5.474l46.127,42.118l6.09-6.679l-46.109-42.108l5.107-5.599l46.109,42.118l6.089-6.679l-46.108-42.108l5.285-5.786
			l46.092,42.117l6.089-6.67l-46.091-42.117l5.107-5.599l46.091,42.118l6.089-6.679l-46.09-42.109l5.375-5.893l46.091,42.118
			l6.089-6.679l-46.02-42.091l5.126-5.598l46.091,42.117l6.09-6.679l-46.092-42.108l4.286-4.706l46.108,42.117l6.09-6.679
			l-46.108-42.108l5.106-5.599l46.092,42.118l6.09-6.679l-46.109-42.109l5.286-5.786l46.091,42.118l6.09-6.679l-46.092-42.108
			l5.09-5.581l46.109,42.118l6.089-6.679l-46.073-42.109l5.34-5.839l46.108,42.118l6.09-6.679l-46.108-42.108l3.32-3.625
			c2.019-2.232,3.162-3.474,3.162-3.474s35.18,32.135,40.447,36.957c5.285,4.83,11.304,5.857,17.75-2.831
			c-6.732-6.161-53.377-50.546-58.287-55.029c-4.929-4.482-11.68-8.188-16.125-3.321c-0.215,0.214-1.269,1.366-2.93,3.196
			c-1.285,1.411-2.893,3.161-4.946,5.411L78.719,439.997c-4.732,5.178-7.509,8.214-7.857,8.607
			c-4.465,4.875-0.152,11.285,4.768,15.768c4.938,4.5,53.323,46.912,60.073,53.073C143.766,510.231,142.194,504.338,136.926,499.517
			z"/>
		<path d="M74.496,386.103c-5.286-4.805-40.448-36.967-40.448-36.967l-1.938-8.143l2.411-2.66l51.243,46.805l6.089-6.679
			l-51.261-46.77l5.304-5.804l51.243,46.805l6.09-6.66l-51.243-46.823l5.107-5.571l51.234,46.787l6.089-6.68l-51.234-46.787
			l4.277-4.678l51.233,46.787l6.107-6.662l-51.251-46.805l5.098-5.589l51.243,46.788l6.089-6.661l-51.243-46.796l4.294-4.706
			l51.243,46.787l6.089-6.66l-51.243-46.796l5.107-5.581l51.252,46.787l6.089-6.679l-51.234-46.796l5.286-5.786l51.251,46.796
			l6.089-6.679l-51.233-46.787l5.098-5.599l51.243,46.796l6.09-6.652l-51.261-46.796l5.393-5.911l51.243,46.796l6.089-6.679
			l-51.243-46.788l5.107-5.598l51.234,46.796l6.089-6.679l-51.216-46.787l4.294-4.706l51.234,46.796l6.089-6.679l-51.251-46.788
			l5.098-5.581l51.243,46.796l6.107-6.679l-51.243-46.788l5.286-5.804l51.261,46.796l6.089-6.67l-51.261-46.778l5.107-5.581
			l51.234,46.796l6.089-6.67l-51.261-46.796l5-5.473l51.234,46.796l6.089-6.67l-51.234-46.796l5.098-5.599l51.252,46.796
			l6.089-6.679l-51.234-46.788l5.286-5.759l51.251,46.787l6.09-6.67l-51.234-46.796l5.098-5.599l51.243,46.796l6.09-6.652
			l-51.225-46.832l5.393-5.911l51.243,46.796l6.089-6.67l-51.243-46.796l5.107-5.581l51.243,46.796l6.089-6.679l-51.26-46.796
			l4.294-4.697l51.27,46.814l6.09-6.67l-51.252-46.814l5.099-5.599l51.26,46.796l6.09-6.679L284.86,64.189l5.286-5.795
			l51.261,46.814l6.09-6.67l-51.244-46.814l5.1-5.581l51.251,46.796l6.09-6.679l-51.252-46.788l5.339-5.839l51.234,46.796l6.09-6.67
			l-51.252-46.796l1.482-1.634l8.285,1.214c0,0,35.198,32.126,40.467,36.957c5.25,4.821,11.285,5.831,17.768-2.839
			c-6.75-6.161-53.377-50.546-58.305-55.038c-4.93-4.5-11.68-8.197-16.145-3.312c-0.089,0.107-0.518,0.589-1.089,1.188l-6.786,7.429
			L16.315,326.563c-4.741,5.215-7.518,8.251-7.866,8.626c-4.446,4.894-0.143,11.269,4.768,15.769
			c4.92,4.5,53.341,46.912,60.074,53.091C81.353,396.816,79.782,390.905,74.496,386.103z"/>
		<path d="M518.109,158.371c-4.751-4.304-11.304-7.866-15.572-3.134c-4.25,4.706-360.833,398.549-367.95,406.407
			c-7.116,7.875,15.197,23.947,20.242,18.34c2.375-2.625,82.494-91.092,166.863-184.292l40.857,36.983l4.947-5.482l-40.858-36.983
			c1.375-1.518,2.731-3.036,4.125-4.571l40.858,37.001l4.947-5.446l-40.823-37.002c1.161-1.285,2.321-2.57,3.481-3.857
			l40.859,37.002l4.929-5.447l-40.841-37c1.375-1.519,2.732-3.055,4.143-4.572l40.859,37.002l4.946-5.465l-40.858-36.983
			c1.143-1.269,2.285-2.536,3.41-3.786l40.877,36.983l4.946-5.464l-40.841-36.984c1.375-1.518,2.75-3.053,4.125-4.571l40.877,36.983
			l4.946-5.446l-40.858-36.983c1.16-1.286,2.34-2.59,3.482-3.875l40.858,37.001l4.929-5.446l-40.841-37.002
			c1.394-1.535,2.751-3.053,4.144-4.571l40.857,37.001l4.93-5.465l-40.841-37c1.446-1.59,2.839-3.161,4.269-4.732l40.876,36.982
			l4.929-5.464l-40.841-36.983c1.394-1.535,2.75-3.054,4.125-4.572l40.876,36.984l4.947-5.465l-40.841-36.983
			c1.144-1.304,2.304-2.571,3.446-3.839l40.859,36.965l4.945-5.446l-40.84-37.001c1.393-1.527,2.768-3.062,4.143-4.581
			l40.859,36.992l4.945-5.446l-40.84-36.992c1.143-1.259,2.34-2.581,3.465-3.84l40.857,36.992l4.947-5.482l-40.841-36.974
			c1.394-1.518,2.769-3.062,4.144-4.571l40.876,36.957l4.929-5.447l-40.858-36.965c1.464-1.607,2.875-3.161,4.268-4.75
			l40.858,36.983l4.947-5.438l-40.841-37.001c1.393-1.536,2.786-3.071,4.125-4.571l40.858,36.975l4.947-5.447l-40.842-36.975
			c1.482-1.643,2.947-3.25,4.375-4.848l40.859,36.992l4.946-5.464l-40.858-36.975c1.41-1.554,2.785-3.071,4.143-4.572l40.787,36.939
			l4.947-5.464l-40.841-37.001c1.161-1.294,2.321-2.571,3.446-3.839l40.877,37.001l4.964-5.456l-40.876-36.993
			c1.41-1.553,2.821-3.089,4.143-4.571l40.859,36.975l4.945-5.465l-40.84-36.974c1.5-1.643,2.928-3.241,4.268-4.741l40.859,36.992
			l4.964-5.464l-40.876-36.993c1.5-1.643,2.893-3.179,4.143-4.571l40.858,36.992l4.946-5.447l-40.876-36.974
			c2.714-3,4.161-4.59,4.161-4.59s34.055,30.832,39.162,35.439c5.089,4.607,10.893,5.572,17.107-2.822
			C568.021,205.274,522.876,162.684,518.109,158.371z"/>
	</g>
</g>
<g>
</g>
<g>
</g>
<g>
</g>
<g>
</g>
<g>
</g>
<g>
</g>
<g>
</g>
<g>
</g>
<g>
</g>
<g>
</g>
<g>
</g>
<g>
</g>
<g>
</g>
<g>
</g>
<g>
</g>
</svg>
