<?xml version="1.0" encoding="iso-8859-1"?>
<!-- Generator: Adobe Illustrator 16.0.0, SVG Export Plug-In . SVG Version: 6.00 Build 0)  -->
<!DOCTYPE svg PUBLIC "-//W3C//DTD SVG 1.1//EN" "http://www.w3.org/Graphics/SVG/1.1/DTD/svg11.dtd">
<svg version="1.1" id="Capa_1" xmlns="http://www.w3.org/2000/svg" xmlns:xlink="http://www.w3.org/1999/xlink" x="0px" y="0px"
	 width="31.844px" height="31.844px" viewBox="0 0 31.844 31.844" style="enable-background:new 0 0 31.844 31.844;"
	 xml:space="preserve">
<g>
	<path d="M9.792,7.608c-0.685,1.749-2.838,5.63-2.838,5.63s0.943,1.748,0.963,3.117c0.019,1.369-0.963,2.154-0.963,2.154
		s0.963,1.623,0,2.333c0.963,2.61-1.852,5.374-1.572,5.882c1.597,5.043-2.839,5.119-2.839,5.119s1.699-0.709,1.673-2.002
		c-0.026-1.293-2.56-2.154-2.383-3.574c0.177-1.42,2.104-2.256,1.977-3.6c-0.126-1.343-2.179-2.458-2.229-3.65
		C1.531,17.827,2.897,17.445,3,17.091c0.102-0.354-0.608-0.532-0.659-1.014c-0.051-0.483,1.04-0.406,1.014-0.762
		c-0.025-0.356-0.457-0.811-0.507-1.268c-0.051-0.456,0.456-0.558,0.456-0.558s-0.203-1.673-0.151-2.788
		C3.203,9.586,4.977,0.208,10.757,0.003c5.779-0.203,5.754,8.264,5.754,8.264s1.41,2.261,1.699,4.084l-2.491-1.535
		c0.116-0.238,0.209-0.423,0.26-0.521c0.102-3.244-1.724-6.286-1.724-6.286S12.177,8.497,9.792,7.608z M20.643,26.315
		c0-1.57-2.483-2.939-2.483-2.939s0.283-0.541,0.479-1.268l-2.56-1.368c0,0-1.09,1.19-1.166,2.434s0.963,4.538,3.448,5.171
		c-0.837,1.396,0.354,1.927,0.354,1.927s2.229,0.278,1.317-2.279C19.704,27.764,20.643,27.889,20.643,26.315z M25.517,20.034
		c-0.858-0.514-2.343-1.055-2.815-1.335c-0.595-0.354-0.162-1.896-0.162-1.896l-1.692-1.01l-2.711,4.545l1.691,1.01
		c0,0,1.15-1.111,1.745-0.758c0.473,0.283,1.653,1.332,2.513,1.844c0.665,0.396,5.626,3.127,6.098,2.012
		C30.939,23.499,26.182,20.432,25.517,20.034z M17.543,20.771l3.234-5.419l-0.245-0.146l-3.233,5.42L17.543,20.771z M17.098,20.467
		l3.233-5.42L20.088,14.9l-3.233,5.419L17.098,20.467z M16.668,20.191l3.233-5.42l-0.245-0.147l-3.233,5.42L16.668,20.191z
		 M16.211,19.899l3.234-5.419l-0.243-0.146l-3.233,5.419L16.211,19.899z M15.744,19.601l3.232-5.42l-0.243-0.146l-3.233,5.42
		L15.744,19.601z M15.289,19.312l3.233-5.42l-0.244-0.146l-3.234,5.42L15.289,19.312z M17.776,13.464l-3.234,5.42l0.244,0.145
		l3.234-5.419L17.776,13.464z M17.337,13.164l-3.232,5.42l0.244,0.146l3.233-5.42L17.337,13.164z M16.874,12.888l-3.232,5.42
		l0.244,0.146l3.233-5.42L16.874,12.888z M16.376,12.59l-3.232,5.42l0.244,0.146l3.232-5.42L16.376,12.59z M15.856,12.282
		l-3.235,5.419l0.244,0.146l3.234-5.419L15.856,12.282z M15.372,11.993l-3.233,5.42l0.245,0.146l3.233-5.419L15.372,11.993z
		 M14.913,11.66l-3.233,5.42l0.245,0.146l3.232-5.42L14.913,11.66z M13.733,11.704c0,0-0.613,0.438-1.633,2.146
		c-1.019,1.708-1.079,2.399-1.079,2.399l0.576,0.344l2.711-4.546L13.733,11.704z"/>
</g>
<g>
</g>
<g>
</g>
<g>
</g>
<g>
</g>
<g>
</g>
<g>
</g>
<g>
</g>
<g>
</g>
<g>
</g>
<g>
</g>
<g>
</g>
<g>
</g>
<g>
</g>
<g>
</g>
<g>
</g>
</svg>
