<?xml version="1.0" encoding="iso-8859-1"?>
<!-- Generator: Adobe Illustrator 16.0.0, SVG Export Plug-In . SVG Version: 6.00 Build 0)  -->
<!DOCTYPE svg PUBLIC "-//W3C//DTD SVG 1.1//EN" "http://www.w3.org/Graphics/SVG/1.1/DTD/svg11.dtd">
<svg version="1.1" id="Capa_1" xmlns="http://www.w3.org/2000/svg" xmlns:xlink="http://www.w3.org/1999/xlink" x="0px" y="0px"
	 width="380.663px" height="380.662px" viewBox="0 0 380.663 380.662" style="enable-background:new 0 0 380.663 380.662;"
	 xml:space="preserve">
<g>
	<path d="M279.344,194.541c-3.947-28.737-60.289-31.015-59.214-53.551c0,0-7.333-47.613,2.826-58.771
		c32.112-45.511,2.301-94.52-32.626-79.433c-34.932-15.087-64.726,33.922-32.608,79.433c10.153,11.158,2.809,58.771,2.809,58.771
		c1.074,22.537-55.268,24.814-59.215,53.551c-3.38,17.446,4.508,186.122,4.508,186.122h6.772l3.381-153.566l5.453-0.746V373.48
		h6.411v-148.02l10.556-1.447V373.48h6.411V223.138l11.537-1.576V373.48h6.411V220.686l12.22-1.693V373.48h6.411V218.129
		l8.944-1.238l2.738,0.385V373.48h6.405V218.151l12.226,1.682V373.48h6.423V220.709l13.627,1.88V373.48h6.41V223.453l12.227,1.693
		V373.48h6.398V225.998l7.906,1.086l3.386,153.566h6.772C274.836,380.662,282.731,211.986,279.344,194.541z M191.713,52.815
		c-5.844,0-10.579-4.735-10.579-10.58c0-5.85,4.735-10.597,10.579-10.597c5.851,0,10.597,4.735,10.597,10.597
		C202.311,48.081,197.576,52.815,191.713,52.815z"/>
</g>
<g>
</g>
<g>
</g>
<g>
</g>
<g>
</g>
<g>
</g>
<g>
</g>
<g>
</g>
<g>
</g>
<g>
</g>
<g>
</g>
<g>
</g>
<g>
</g>
<g>
</g>
<g>
</g>
<g>
</g>
</svg>
