<?xml version="1.0" encoding="iso-8859-1"?>
<!-- Generator: Adobe Illustrator 16.0.0, SVG Export Plug-In . SVG Version: 6.00 Build 0)  -->
<!DOCTYPE svg PUBLIC "-//W3C//DTD SVG 1.1//EN" "http://www.w3.org/Graphics/SVG/1.1/DTD/svg11.dtd">
<svg version="1.1" id="Capa_1" xmlns="http://www.w3.org/2000/svg" xmlns:xlink="http://www.w3.org/1999/xlink" x="0px" y="0px"
	 width="382.636px" height="382.635px" viewBox="0 0 382.636 382.635" style="enable-background:new 0 0 382.636 382.635;"
	 xml:space="preserve">
<g>
	<g>
		<path d="M107.64,195.931c0.525,0.327,1.127,0.549,1.815,0.689c0.695,0.128,1.401,0.198,2.143,0.198
			c1.816,0,3.217-0.292,4.209-0.911c0.993-0.596,1.723-1.319,2.213-2.172c0.479-0.841,0.753-1.693,0.87-2.563
			c0.111-0.847,0.157-1.553,0.157-2.067v-3.433c-0.396,0.35-0.875,0.625-1.459,0.8c-0.584,0.204-1.209,0.362-1.88,0.49
			c-0.666,0.134-1.384,0.257-2.137,0.327c-0.765,0.082-1.482,0.204-2.178,0.321c-0.741,0.134-1.424,0.286-2.066,0.514
			c-0.648,0.228-1.221,0.502-1.723,0.875c-0.502,0.356-0.899,0.835-1.197,1.419c-0.298,0.578-0.456,1.285-0.456,2.114
			c0,0.852,0.158,1.564,0.456,2.102S107.114,195.615,107.64,195.931z"/>
		<path d="M323.362,176.418c-1.098-1.232-2.779-1.815-5.021-1.815c-1.471,0-2.686,0.251-3.666,0.753
			c-0.958,0.49-1.74,1.109-2.312,1.839c-0.584,0.729-1.004,1.506-1.237,2.324c-0.245,0.812-0.374,1.553-0.421,2.212h14.947
			C325.23,179.384,324.46,177.615,323.362,176.418z"/>
		<path d="M122.54,290.468c0.526-0.409,1.04-0.97,1.542-1.67c0.514-0.688,0.765-1.249,0.765-1.704c0-0.643-0.128-1.156-0.356-1.577
			c-0.251-0.409-0.537-0.618-0.887-0.618c-0.619,0-1.156,0.104-1.6,0.326c-0.444,0.246-0.817,0.537-1.104,0.888
			c-0.297,0.351-0.549,0.771-0.73,1.226c-0.175,0.456-0.391,1.04-0.63,1.717c-0.228,0.701-0.374,1.238-0.397,1.682
			s-0.035,0.806-0.035,1.121c0.525,0,1.086-0.117,1.711-0.373C121.436,291.204,122.002,290.877,122.54,290.468z"/>
		<path d="M159.258,278.803c0.444-0.736,0.899-1.518,1.354-2.348c0.479-0.863,0.905-1.693,1.267-2.521
			c0.379-0.818,0.694-1.6,0.946-2.301c0.251-0.725,0.379-1.285,0.379-1.752c0-0.163-0.023-0.326-0.047-0.537
			c-0.012-0.198-0.058-0.35-0.134-0.537c-0.07-0.187-0.187-0.314-0.333-0.443c-0.158-0.117-0.368-0.164-0.648-0.164
			c-0.379,0-0.753,0.328-1.144,1.005c-0.385,0.63-0.753,1.495-1.104,2.522c-0.356,1.027-0.689,2.148-1.004,3.375
			c-0.31,1.248-0.596,2.439-0.858,3.607c0.228,0.023,0.433,0.047,0.66,0.047C158.82,278.78,159.019,278.78,159.258,278.803z"/>
		<path d="M177.457,276.561c0.66-1.541,1.232-3.083,1.699-4.612c0.49-1.554,0.788-2.978,0.922-4.31c0-0.42-0.012-0.793-0.035-1.086
			c-0.012-0.291-0.087-0.443-0.193-0.443c-0.408,0-0.835,0.269-1.29,0.829c-0.455,0.549-0.923,1.284-1.366,2.23
			c-0.467,0.935-1.004,2.464-1.646,4.565c-0.637,2.125-0.958,3.176-0.958,3.188c0,0-0.205,0.97-0.589,2.932
			c-0.38,1.938-0.619,3.678-0.689,5.173c0.654-1.179,1.349-2.476,2.079-3.946C176.12,279.609,176.814,278.114,177.457,276.561z"/>
		<path d="M159.142,284.478c-0.432,0.537-0.841,1.051-1.197,1.495c-0.058,0.898-0.104,1.774-0.146,2.662
			c-0.023,0.361-0.035,0.747-0.047,1.145c-0.012,0.396-0.023,0.793-0.035,1.203c-0.012,0.385-0.023,0.758-0.035,1.132
			c-0.012,0.351-0.012,0.7-0.012,0.981c0,0.781,0.07,1.447,0.228,1.973c0.14,0.549,0.356,0.97,0.63,1.32
			c0.274,0.326,0.613,0.572,1.004,0.747c0.409,0.163,0.852,0.222,1.343,0.222c0.31,0,0.695-0.059,1.133-0.222
			c0.467-0.151,0.958-0.327,1.506-0.596c0.543-0.245,1.115-0.561,1.723-0.899c0.601-0.35,1.196-0.735,1.769-1.133
			c0.397-0.268,0.753-0.584,1.127-0.875c-0.192-1.238-0.345-2.5-0.345-3.83c0-1.425,0.21-3.316,0.619-5.699
			c0.105-0.596,0.158-0.887,0.239-1.308h-8.227C159.988,283.333,159.562,283.917,159.142,284.478z"/>
		<path d="M99.331,311.219c-0.98,1.611-1.757,3.234-2.335,4.857c-0.479,1.377-0.239,2.078,0.741,2.078
			c0.351,0,0.66-0.047,0.935-0.141c0.263-0.081,0.514-0.244,0.753-0.443c0.228-0.245,0.432-0.467,0.602-0.759
			c0.175-0.245,0.356-0.642,0.549-1.109c0.187-0.514,0.368-0.981,0.525-1.46c0.151-0.455,0.344-1.086,0.572-1.868
			c0.122-0.421,0.216-0.876,0.274-1.366c0.058-0.502,0.146-1.133,0.239-1.868c0.087-0.735,0.146-1.202,0.169-1.401
			C101.328,308.475,100.324,309.63,99.331,311.219z"/>
		<path d="M99.903,288.122c-1.39,2.405-2.131,4.04-2.248,4.881c-0.274,1.833-0.158,3.223,0.385,4.18
			c0.345,0.607,0.8,0.889,1.372,0.889c0.981,0,1.792-0.771,2.44-2.359c0.502-1.238,0.788-2.499,0.847-3.736l1.629-7.217
			C102.642,284.735,101.17,285.856,99.903,288.122z"/>
		<path d="M193.49,238.026c-0.128-0.279-0.304-0.502-0.537-0.677c-0.222-0.175-0.491-0.257-0.794-0.257
			c-0.396,0-0.794,0.188-1.162,0.514c-0.374,0.351-0.683,0.795-0.969,1.354c-0.274,0.549-0.502,1.133-0.66,1.786
			c-0.164,0.666-0.239,1.402-0.239,2.23c0,0.421,0.035,0.818,0.123,1.18c0.082,0.386,0.216,0.713,0.379,0.969
			c0.169,0.281,0.385,0.491,0.671,0.654c0.274,0.164,0.607,0.258,0.993,0.258c0.327,0,0.677-0.188,0.981-0.525
			c0.327-0.34,0.596-0.771,0.841-1.297s0.42-1.156,0.572-1.892c0.14-0.759,0.21-1.401,0.21-1.985c0-0.443-0.023-0.887-0.105-1.261
			C193.747,238.657,193.63,238.331,193.49,238.026z"/>
		<path d="M187.943,290.468c0.531-0.409,1.045-0.97,1.547-1.67c0.514-0.688,0.765-1.249,0.765-1.704
			c0-0.643-0.134-1.156-0.362-1.577c-0.239-0.409-0.525-0.618-0.881-0.618c-0.625,0-1.162,0.104-1.605,0.326
			c-0.438,0.234-0.812,0.537-1.098,0.888c-0.31,0.351-0.549,0.771-0.73,1.226c-0.181,0.456-0.385,1.04-0.636,1.717
			c-0.24,0.701-0.368,1.238-0.392,1.682c-0.035,0.443-0.047,0.806-0.047,1.121c0.525,0,1.098-0.117,1.711-0.373
			C186.846,291.204,187.406,290.877,187.943,290.468z"/>
		<path d="M284.174,292.746c0.07-0.607,0.047-1.075-0.023-1.39c-0.104-0.339-0.187-0.619-0.257-0.853l-6.002,6.317
			c0.164,0,0.351,0.117,0.572,0.315c0.222,0.233,0.455,0.467,0.736,0.735c0.268,0.269,0.583,0.502,0.957,0.736
			c0.351,0.209,0.759,0.314,1.227,0.314c0.561,0,1.027-0.094,1.389-0.269c0.374-0.21,0.666-0.443,0.888-0.759
			s0.374-0.689,0.468-1.109c0.069-0.408,0.116-0.841,0.116-1.296c0-0.386-0.023-0.782-0.07-1.203
			C284.104,293.866,284.128,293.352,284.174,292.746z"/>
		<path d="M232.351,290.468c0.515-0.409,1.028-0.97,1.542-1.67c0.514-0.688,0.759-1.249,0.759-1.704
			c0-0.643-0.129-1.156-0.361-1.577c-0.246-0.409-0.537-0.618-0.888-0.618c-0.619,0-1.156,0.104-1.589,0.326
			c-0.443,0.246-0.816,0.537-1.109,0.888c-0.291,0.351-0.549,0.771-0.735,1.226c-0.175,0.456-0.385,1.04-0.63,1.717
			c-0.223,0.701-0.374,1.238-0.397,1.682s-0.023,0.806-0.023,1.121c0.514,0,1.074-0.117,1.705-0.373
			C231.241,291.204,231.813,290.877,232.351,290.468z"/>
		<circle cx="196.222" cy="92.635" r="2.009"/>
		<path d="M244.087,121.629c0.502-0.251,0.945-0.56,1.366-0.922c1.739-1.442,2.721-3.631,2.744-6.154
			c0.034-2.622-0.958-5.284-2.768-7.508c-3.224-3.865-8.291-5.301-12.051-3.398c-0.491,0.251-0.958,0.549-1.378,0.899
			c-1.752,1.448-2.721,3.632-2.756,6.142c-0.023,2.657,0.957,5.313,2.779,7.509C235.247,122.073,240.338,123.509,244.087,121.629z"
			/>
		<path d="M129.417,121.115c2.925,3.024,8.174,3.328,12.483,0.753c2.464-1.472,4.279-3.661,5.114-6.148
			c0.8-2.388,0.613-4.782-0.561-6.726c-0.274-0.456-0.625-0.899-1.004-1.308c-2.919-3.024-8.18-3.322-12.495-0.753
			c-2.464,1.483-4.268,3.672-5.121,6.183c-0.788,2.37-0.584,4.758,0.572,6.72C128.688,120.28,129.032,120.724,129.417,121.115z"/>
		<path d="M191.318,20.208c-94.497,0-171.111,76.614-171.111,171.11c0,94.491,76.614,171.116,171.111,171.116
			c94.491,0,171.117-76.625,171.117-171.116C362.435,96.821,285.809,20.208,191.318,20.208z M286.696,155.82h9.178v46.241h-9.178
			V155.82z M266.472,191.505l7.31-22.928h9.528l-13.988,37.688c-1.005,2.686-2.371,4.601-4.146,5.792
			c-1.764,1.179-4.228,1.763-7.368,1.763c-0.958,0-1.916-0.035-2.826-0.093c-0.923-0.059-1.868-0.152-2.814-0.246v-7.578
			c0.864,0.105,1.74,0.175,2.65,0.269c0.911,0.082,1.822,0.117,2.732,0.07c0.771-0.093,1.448-0.338,1.974-0.747
			c0.537-0.397,0.946-0.911,1.203-1.518c0.257-0.619,0.397-1.25,0.397-1.938c0-0.747-0.141-1.424-0.397-2.079l-11.794-31.405h9.855
			l7.566,22.928h0.117V191.505z M252.81,55.589l-2.499,5.763l-48.717,26.057l-7.298-4.782L252.81,55.589z M199.749,88.63
			l31.481,11.823c0.164-0.058,0.305-0.164,0.433-0.239c5.313-2.697,12.366-0.835,16.71,4.391c1.168,1.401,2.078,2.978,2.709,4.624
			c2.429,4.198,12.215,3.672,12.95,4.104c0.759,0.467-0.491,3.322-1.903,3.468c-1.401,0.146-7.625-1.472-10.965,2.318
			c-0.689,1.769-1.787,3.316-3.234,4.531c-0.654,0.525-1.355,1.004-2.103,1.378c-5.348,2.68-12.354,0.823-16.71-4.391
			c-2.417-2.89-3.725-6.469-3.678-9.996c0.023-1.792,0.396-3.48,1.074-4.975l-24.674-9.494l-6.271,2.99l-47.94-39.066l-1.448-5.237
			L199.749,88.63z M242.44,194.413c0.537,0.514,1.564,0.782,3.129,0.782c1.027,0,1.985-0.093,2.85-0.269v7.205
			c-0.782,0.129-1.658,0.21-2.593,0.246c-0.957,0.058-1.892,0.082-2.778,0.082c-1.437,0-2.779-0.105-4.064-0.292
			c-1.272-0.198-2.382-0.572-3.363-1.156c-0.969-0.607-1.728-1.401-2.288-2.429c-0.572-1.051-0.841-2.394-0.841-4.087v-19.746
			h-5.582v-6.16h5.582v-10.036h9.189v10.036h6.738v6.16h-6.738v16.57C241.669,192.859,241.927,193.887,242.44,194.413z
			 M198.838,239.405c-0.514-0.514-1.016-0.958-1.518-1.297c-0.502-0.35-0.922-0.665-1.285-0.898l-0.117,0.187
			c0.292,0.561,0.502,1.179,0.654,1.81c0.152,0.643,0.222,1.379,0.222,2.184c0,0.584-0.059,1.18-0.199,1.775
			c-0.117,0.596-0.315,1.168-0.561,1.729s-0.537,1.074-0.887,1.564c-0.362,0.514-0.759,0.934-1.214,1.284
			c-0.444,0.351-0.935,0.631-1.472,0.841c-0.561,0.211-1.121,0.304-1.74,0.304c-0.875,0-1.617-0.198-2.248-0.561
			c-0.625-0.374-1.139-0.888-1.536-1.519c-0.391-0.618-0.677-1.307-0.87-2.09c-0.181-0.782-0.263-1.564-0.263-2.347
			c0-1.319,0.152-2.452,0.491-3.41c0.204-0.56,0.549-1.004,0.847-1.472c-0.205,0-0.345,0-0.584,0
			c-0.549,0.035-1.186,0.059-1.845,0.082c-0.677,0.023-1.314,0.035-1.933,0.059c-0.625,0.023-1.185,0.047-1.687,0.059
			c-0.502,0.012-0.847,0.012-1.063,0.012c-0.239,1.215-0.444,2.358-0.66,3.491c-0.216,1.109-0.49,2.16-0.835,3.142
			c-0.339,0.957-0.753,1.845-1.22,2.662c-0.467,0.771-1.016,1.471-1.675,2.043c-0.648,0.561-1.39,1.005-2.248,1.32
			c-0.847,0.303-1.804,0.467-2.908,0.467c-0.24,0-0.502-0.023-0.823-0.047c-0.321-0.047-0.648-0.094-0.993-0.164
			c-0.345-0.069-0.694-0.162-1.039-0.256c-0.345-0.141-0.66-0.258-0.923-0.444c-0.274-0.163-0.502-0.351-0.665-0.583
			c-0.17-0.223-0.251-0.468-0.251-0.76c0-0.152,0.023-0.35,0.093-0.596c0.07-0.256,0.17-0.479,0.31-0.724
			c0.123-0.233,0.298-0.421,0.502-0.584c0.205-0.175,0.456-0.257,0.742-0.257c0.321,0,0.683,0.047,1.04,0.176
			c0.362,0.104,0.741,0.221,1.127,0.361c0.379,0.129,0.788,0.245,1.185,0.351c0.403,0.116,0.812,0.163,1.232,0.163
			c0.321,0,0.654-0.117,0.952-0.385c0.315-0.246,0.613-0.619,0.887-1.086s0.549-1.005,0.8-1.635
			c0.251-0.619,0.491-1.285,0.707-2.009c0.216-0.735,0.42-1.495,0.595-2.266c0.181-0.771,0.362-1.588,0.543-2.358l-1.857-0.012
			c-0.169,0-0.391,0-0.63-0.047c-0.251-0.047-0.502-0.105-0.73-0.199c-0.228-0.093-0.432-0.209-0.589-0.35
			c-0.164-0.164-0.24-0.35-0.24-0.572c0-0.176,0.035-0.315,0.135-0.443c0.093-0.152,0.239-0.246,0.455-0.304
			c0.561-0.117,1.051-0.21,1.483-0.292c0.414-0.094,0.8-0.164,1.121-0.234c0.321-0.058,0.613-0.104,0.864-0.15
			c0.251-0.059,0.491-0.082,0.689-0.129c0.239-1.168,0.432-2.148,0.578-2.943c0.128-0.793,0.263-1.506,0.356-2.148
			c0.111-0.643,0.205-1.249,0.286-1.786c0.099-0.572,0.205-1.18,0.309-1.821c-0.87,0.244-1.635,0.549-2.271,0.887
			c-0.654,0.362-1.18,0.736-1.6,1.133s-0.742,0.806-0.934,1.25c-0.204,0.432-0.31,0.828-0.31,1.237c0,0.035,0,0.104,0,0.222
			c-0.012,0.117-0.059,0.246-0.169,0.397c-0.094,0.128-0.251,0.245-0.479,0.351c-0.228,0.116-0.549,0.187-0.969,0.187
			c-0.572,0-1.016-0.047-1.337-0.094c-0.321-0.081-0.561-0.175-0.718-0.269c-0.14-0.105-0.24-0.245-0.274-0.385
			c-0.035-0.141-0.047-0.281-0.047-0.421c0-1.495,0.368-2.779,1.109-3.83c0.753-1.074,1.798-1.938,3.147-2.628
			c1.337-0.677,2.954-1.179,4.84-1.494c1.892-0.314,3.958-0.479,6.23-0.479c1.523,0,3.111,0.094,4.775,0.233
			c1.67,0.14,3.387,0.304,5.161,0.444c0.502,0.151,0.864,0.326,1.051,0.606c0.21,0.257,0.304,0.537,0.304,0.817
			c0,0.188-0.023,0.374-0.093,0.584c-0.047,0.223-0.117,0.42-0.234,0.607c-0.117,0.164-0.257,0.303-0.444,0.432
			c-0.187,0.117-0.374,0.176-0.619,0.176c-0.023,0-0.046,0-0.105-0.012c-0.035,0-0.094-0.012-0.141-0.012
			c-0.653-0.047-1.377-0.105-2.125-0.164c-0.771-0.07-1.576-0.117-2.411-0.187c-0.823-0.081-1.688-0.116-2.569-0.14
			c-0.887-0.023-1.798-0.047-2.715-0.047c-0.263,0-0.589,0.023-0.969,0.047c-0.386,0.023-0.753,0.047-1.104,0.081
			c-0.392,0.035-0.812,0.082-1.244,0.128c0,0.094-0.011,0.199-0.035,0.293c-0.012,0.128-0.035,0.291-0.07,0.549
			c-0.047,0.256-0.094,0.584-0.17,0.992c-0.081,0.408-0.151,0.899-0.21,1.482c-0.053,0.584-0.157,1.309-0.269,2.195
			c-0.117,0.865-0.239,1.986-0.321,3.281h8.262c0.239,0,0.42,0.059,0.555,0.152c0.105,0.094,0.21,0.199,0.263,0.304
			c0.175-0.093,0.274-0.257,0.479-0.351c0.894-0.396,1.886-0.607,2.996-0.607c0.934,0,1.833,0.164,2.663,0.444
			c0.817,0.28,1.6,0.7,2.312,1.19c0.724,0.49,1.39,1.098,2.009,1.846c0.245,0.291,0.443,0.537,0.654,0.817
			c0.023-0.094,0.046-0.163,0.046-0.257c0.188-0.748,0.351-1.379,0.468-1.893c0.14-0.514,0.269-0.91,0.396-1.249
			c0.07-0.222,0.141-0.397,0.245-0.525c0.07-0.14,0.176-0.233,0.269-0.28c0.117-0.105,0.234-0.141,0.386-0.175
			c0.151-0.023,0.351-0.035,0.596-0.035s0.443,0.012,0.583,0.035c0.164,0.034,0.257,0.093,0.327,0.175
			c0.07,0.117,0.117,0.245,0.14,0.42c0,0.188,0,0.433,0,0.748c0,0.35,0,0.887-0.07,1.564c-0.047,0.678-0.047,1.262-0.023,1.775
			h0.141c0.21-0.397,0.467-0.911,0.759-1.576c0.304-0.654,0.619-1.191,0.946-1.623c0.327-0.421,0.701-0.771,1.121-1.074
			c0.409-0.305,0.899-0.444,1.448-0.444c0.187,0,0.374,0.035,0.561,0.104c0.164,0.059,0.327,0.152,0.467,0.27
			c0.141,0.116,0.246,0.244,0.327,0.443c0.07,0.176,0.105,0.35,0.105,0.584c0,0.175-0.023,0.396-0.07,0.712
			s-0.152,0.712-0.245,1.203c-0.117,0.49-0.198,0.888-0.245,1.202c-0.035,0.315-0.07,0.572-0.07,0.783
			c0,0.338,0.035,0.653,0.105,0.887c0.07,0.246,0.163,0.421,0.28,0.584c0.116,0.152,0.245,0.246,0.396,0.292
			c0.141,0.07,0.292,0.104,0.467,0.104c0.444,0,0.899-0.116,1.378-0.291c0.479-0.223,0.922-0.432,1.32-0.689
			c0.455-0.279,0.922-0.631,1.366-0.98l-0.222,3.503c-0.269,0.163-0.561,0.339-0.875,0.561c-0.327,0.222-0.689,0.397-1.063,0.596
			c-0.362,0.187-0.759,0.339-1.167,0.455c-0.397,0.14-0.817,0.198-1.227,0.198c-0.759,0-1.354-0.175-1.81-0.467
			c-0.456-0.292-0.817-0.689-1.086-1.203c-0.269-0.479-0.49-1.027-0.607-1.658c-0.128-0.606-0.233-1.226-0.304-1.844h-0.233
			l-2.697,7.449c-0.128,0.396-0.269,0.713-0.386,0.957c-0.128,0.258-0.257,0.468-0.373,0.643c-0.152,0.141-0.28,0.246-0.444,0.339
			c-0.14,0.047-0.303,0.07-0.49,0.07c-0.42,0-0.735-0.07-0.98-0.245c-0.246-0.176-0.444-0.409-0.561-0.701
			c-0.141-0.291-0.245-0.619-0.28-1.004c-0.047-0.373-0.07-0.76-0.07-1.156c0-0.443,0.035-0.957,0.082-1.541
			c0.046-0.584,0.116-1.203,0.198-1.846c0.07-0.561,0.164-1.145,0.269-1.739C199.749,240.268,199.316,239.872,198.838,239.405z
			 M160.922,174.795c0.432-1.039,1.004-1.997,1.746-2.884c0.741-0.887,1.576-1.646,2.522-2.271c0.945-0.625,1.985-1.115,3.071-1.448
			c1.104-0.333,2.213-0.525,3.34-0.525c0.695,0,1.36,0.123,2.008,0.321v8.553c-0.432-0.087-0.958-0.169-1.553-0.228
			c-0.602-0.07-1.197-0.111-1.746-0.111c-1.688,0-3.1,0.286-4.268,0.853c-1.174,0.549-2.108,1.313-2.826,2.294
			c-0.707,0.969-1.22,2.102-1.506,3.433c-0.309,1.302-0.456,2.715-0.456,4.168v15.11h-9.207v-33.496h8.758v6.229H160.922z
			 M209.359,202.972c-1.927,0-3.842-0.21-5.687-0.607c-1.856-0.374-3.503-1.04-4.962-1.974c-1.448-0.922-2.627-2.148-3.562-3.655
			c-0.922-1.506-1.436-3.363-1.518-5.576h8.734c0,0.998,0.21,1.862,0.607,2.563c0.408,0.712,0.934,1.285,1.588,1.751
			c0.666,0.444,1.401,0.782,2.242,1.004c0.841,0.222,1.728,0.315,2.615,0.315c0.654,0,1.332-0.082,2.056-0.222
			c0.712-0.164,1.343-0.397,1.938-0.736c0.583-0.315,1.074-0.759,1.471-1.296c0.386-0.514,0.561-1.214,0.561-2.032
			c0-0.689-0.233-1.273-0.7-1.775c-0.479-0.491-1.168-0.934-2.032-1.32c-0.887-0.391-1.985-0.753-3.27-1.074
			c-1.296-0.31-2.756-0.66-4.414-1.004c-1.331-0.298-2.639-0.672-3.9-1.063c-1.273-0.42-2.417-0.946-3.41-1.629
			c-0.992-0.671-1.775-1.518-2.405-2.522c-0.596-1.004-0.911-2.248-0.911-3.731c0-2.102,0.42-3.871,1.261-5.272
			c0.841-1.401,1.961-2.499,3.339-3.299c1.378-0.794,2.943-1.354,4.671-1.687c1.717-0.321,3.492-0.491,5.302-0.491
			c1.81,0,3.573,0.193,5.278,0.526c1.704,0.333,3.223,0.922,4.554,1.746c1.343,0.823,2.452,1.915,3.34,3.275
			c0.887,1.354,1.401,3.077,1.588,5.155h-8.734c-0.14-1.769-0.806-2.978-2.009-3.614c-1.202-0.619-2.627-0.917-4.262-0.917
			c-0.514,0-1.086,0.023-1.693,0.082c-0.607,0.07-1.156,0.216-1.646,0.42c-0.502,0.228-0.923,0.537-1.272,0.946
			c-0.339,0.403-0.514,0.952-0.514,1.646c0,0.812,0.292,1.495,0.911,2.02c0.607,0.502,1.401,0.922,2.359,1.255
			c0.981,0.31,2.079,0.613,3.34,0.864c1.261,0.263,2.522,0.549,3.83,0.835c1.331,0.298,2.639,0.683,3.9,1.115
			c1.272,0.426,2.429,0.993,3.41,1.723c1.004,0.712,1.786,1.6,2.405,2.65c0.607,1.051,0.91,2.359,0.91,3.912
			c0,2.23-0.443,4.052-1.33,5.535c-0.888,1.495-2.044,2.698-3.457,3.608c-1.448,0.899-3.06,1.565-4.904,1.927
			C213.131,202.762,211.262,202.972,209.359,202.972z M124.215,111.861c1.132-3.334,3.538-6.265,6.767-8.227
			c5.821-3.492,13.078-2.919,17.218,1.378c0.216,0.21,0.379,0.426,0.561,0.654l0.099,0.251l32.795-15.77l6.352,5.669l-37.01,15.198
			l0.204,0.502c0.204,1.746,0.059,3.562-0.549,5.389c-0.958,2.837-2.838,5.372-5.336,7.246c-1.53,1.495-3.655,2.289-5.728,2.75
			c-4.77,1.244-9.768,0.146-12.926-3.153c-0.572-0.636-1.086-1.267-1.53-2.008C123.386,118.856,123.065,115.329,124.215,111.861z
			 M135.606,163.398v-7.578h9.195v7.578H135.606z M144.802,168.577v33.484h-9.195v-33.484H144.802z M97.726,188.224
			c0.66-1.232,1.519-2.213,2.599-2.942c1.074-0.742,2.294-1.279,3.654-1.652c1.366-0.368,2.75-0.671,4.187-0.882
			c1.425-0.216,2.773-0.374,4.069-0.514c1.291-0.134,2.446-0.327,3.462-0.59c1.022-0.263,1.822-0.63,2.429-1.133
			c0.601-0.49,0.91-1.22,0.91-2.166c0-0.993-0.157-1.781-0.49-2.359c-0.321-0.595-0.753-1.051-1.29-1.372
			c-0.537-0.309-1.174-0.537-1.88-0.648c-0.707-0.105-1.483-0.152-2.295-0.152c-1.769,0-3.182,0.368-4.245,1.156
			c-1.051,0.782-1.675,2.084-1.839,3.888H97.79c0.128-2.166,0.666-3.947,1.623-5.383c0.946-1.407,2.154-2.569,3.638-3.427
			c1.459-0.864,3.094-1.471,4.91-1.833c1.821-0.368,3.684-0.561,5.576-0.561c1.687,0,3.392,0.123,5.115,0.356
			c1.734,0.257,3.305,0.718,4.735,1.39c1.424,0.694,2.586,1.675,3.492,2.919c0.911,1.244,1.378,2.855,1.378,4.852v17.417
			c0,1.518,0.082,2.942,0.251,4.332c0.169,1.39,0.479,2.417,0.911,3.118h-9.33c-0.169-0.537-0.309-1.051-0.42-1.588
			c-0.105-0.549-0.175-1.098-0.228-1.658c-1.478,1.518-3.2,2.581-5.173,3.2c-1.997,0.63-4.017,0.958-6.09,0.958
			c-1.6,0-3.095-0.222-4.473-0.631c-1.383-0.409-2.592-1.027-3.62-1.845c-1.04-0.806-1.857-1.845-2.429-3.118
			c-0.572-1.25-0.87-2.744-0.87-4.46C96.757,191.032,97.095,189.45,97.726,188.224z M90.229,202.061H80.053v-19.962H61.34v19.962
			H51.175V155.82H61.34v17.731h18.713V155.82h10.176V202.061z M265.059,297.252l-1.086,0.807c-0.093,0.081-0.771,0.455-2.056,1.155
			c-1.821,0.958-2.965,1.577-3.433,1.752c-1.121,0.502-1.833,0.794-2.102,0.876c-0.735,0.244-1.495,0.338-2.277,0.338
			c-0.806,0-1.483-0.561-2.009-1.729c-0.537-1.155-0.806-2.825-0.806-5.044c0-0.864,0.047-1.798,0.164-2.813
			c0.116-0.993,0.257-2.079,0.42-3.235h-0.339l-5.687,11.28c-0.292,0.607-0.63,1.004-0.98,1.215c-0.351,0.21-0.771,0.326-1.25,0.326
			c-0.583,0-1.062-0.14-1.437-0.385c-0.35-0.258-0.63-0.596-0.84-1.016c-0.188-0.433-0.315-0.923-0.374-1.46
			c-0.023-0.198-0.023-0.409-0.047-0.619c-0.584,0.397-1.19,0.806-1.856,1.214c-0.713,0.433-1.46,0.818-2.254,1.168
			c-0.794,0.327-1.6,0.584-2.452,0.795c-0.841,0.187-1.704,0.303-2.569,0.303c-1.33,0-2.533-0.256-3.537-0.771
			c-1.005-0.49-1.857-1.167-2.522-2.009c-0.141-0.187-0.198-0.432-0.315-0.63c-0.222,0.175-0.42,0.327-0.643,0.514
			c-0.619,0.525-1.296,0.981-1.996,1.425c-0.701,0.42-1.472,0.771-2.312,1.051c-0.829,0.269-1.775,0.42-2.826,0.42
			c-0.525,0-0.957-0.187-1.319-0.514c-0.362-0.326-0.63-0.782-0.853-1.4c-0.222-0.584-0.374-1.285-0.467-2.103
			c-0.094-0.794-0.14-1.682-0.14-2.628c0-0.922,0.023-1.902,0.093-2.93c0.07-1.017,0.164-2.067,0.28-3.119h-0.327l-4.391,11.152
			c-0.385,0.607-0.806,1.004-1.272,1.215c-0.467,0.21-0.993,0.326-1.6,0.326c-0.467,0-0.829-0.14-1.098-0.373
			c-0.28-0.246-0.514-0.561-0.654-0.946c-0.151-0.397-0.257-0.817-0.304-1.272c-0.046-0.467-0.07-0.911-0.07-1.354
			c0-0.187,0.023-0.444,0.046-0.782c0.023-0.362,0.07-0.76,0.129-1.203c0.059-0.467,0.128-0.922,0.198-1.447
			c0.07-0.491,0.141-0.97,0.21-1.495c0.175-1.145,0.374-2.382,0.595-3.737h-0.327c-0.164,0.211-0.362,0.537-0.584,0.981
			c-0.222,0.443-0.537,1.074-0.946,1.915c-0.397,0.841-0.934,1.938-1.541,3.293c-0.631,1.331-1.448,2.989-2.441,4.928
			c-0.292,0.584-0.63,0.98-1.004,1.18c-0.362,0.198-0.806,0.314-1.272,0.314c-0.584,0-1.051-0.14-1.425-0.373
			c-0.362-0.258-0.631-0.584-0.829-0.992c-0.198-0.409-0.315-0.877-0.385-1.414c-0.023-0.093-0.023-0.187-0.023-0.256
			c-0.397,0.256-0.771,0.514-1.191,0.77c-0.724,0.433-1.472,0.818-2.242,1.168c-0.782,0.339-1.611,0.584-2.458,0.795
			c-0.841,0.187-1.711,0.303-2.575,0.303c-1.349,0-2.534-0.256-3.538-0.771c-1.004-0.49-1.851-1.167-2.522-2.009
			c-0.023-0.035-0.035-0.116-0.07-0.163c-0.321,0.198-0.66,0.421-0.993,0.596c-0.561,0.292-1.15,0.584-1.746,0.853
			c-0.613,0.28-1.221,0.537-1.816,0.759c-0.613,0.222-1.22,0.397-1.798,0.525c-0.572,0.14-1.121,0.21-1.623,0.21
			c-0.776,0-1.495-0.338-2.178-1.027c-0.671-0.678-1.244-1.564-1.746-2.721c-0.07-0.176-0.104-0.42-0.169-0.584
			c-0.993,0.561-1.968,1.121-2.773,1.576c-1.074,0.607-2.043,1.121-2.89,1.519c-0.853,0.409-1.606,0.724-2.26,0.911
			c-0.66,0.187-1.255,0.303-1.787,0.303c-1.098,0-2.067-0.326-2.89-1.004c-0.841-0.666-1.53-1.623-2.096-2.873
			c-0.047-0.093-0.059-0.279-0.105-0.385l-0.204,0.141c-0.082,0.081-0.765,0.455-2.044,1.156c-1.827,0.957-2.978,1.564-3.444,1.751
			c-1.121,0.502-1.828,0.794-2.102,0.876c-0.73,0.233-1.483,0.338-2.271,0.338c-0.806,0-1.472-0.561-2.009-1.728
			c-0.555-1.168-0.817-2.826-0.817-5.045c0-0.864,0.047-1.798,0.169-2.813c0.117-0.993,0.263-2.079,0.432-3.234h-0.351
			l-5.681,11.279c-0.298,0.607-0.631,1.004-0.975,1.215c-0.362,0.21-0.783,0.326-1.261,0.326c-0.584,0-1.062-0.14-1.431-0.396
			c-0.361-0.245-0.636-0.584-0.84-1.004c-0.187-0.433-0.321-0.923-0.379-1.472c-0.023-0.187-0.023-0.409-0.035-0.631
			c-0.59,0.409-1.209,0.829-1.88,1.237c-0.718,0.433-1.46,0.818-2.248,1.156c-0.788,0.34-1.6,0.596-2.452,0.807
			c-0.835,0.187-1.711,0.303-2.569,0.303c-1.337,0-2.534-0.256-3.538-0.77c-1.004-0.491-1.856-1.168-2.522-2.01
			c-0.292-0.361-0.432-0.852-0.66-1.261c-0.368,0.515-0.625,0.958-1.197,1.542c-1.039,1.027-1.909,1.821-2.639,2.382
			c-0.123,0.093-0.228,0.163-0.304,0.21c-1.384,0.888-2.388,1.553-3.001,1.962c-0.392,0.257-0.666,0.747-0.8,1.425
			c-0.158,0.678-0.31,1.961-0.49,3.795c-0.059,0.549-0.117,0.969-0.152,1.25c-0.087,0.665-0.169,1.295-0.251,1.938
			c-0.087,0.643-0.239,1.355-0.443,2.16c-0.216,0.807-0.456,1.541-0.73,2.207c-0.274,0.678-0.636,1.355-1.081,2.032
			c-0.438,0.677-0.928,1.249-1.477,1.716c-0.555,0.456-1.209,0.83-1.974,1.121c-0.765,0.27-1.617,0.433-2.511,0.433
			c-0.741,0-1.425-0.093-2.049-0.257c-0.619-0.164-1.191-0.42-1.722-0.748c-0.525-0.326-0.952-0.805-1.279-1.412
			c-0.321-0.607-0.525-1.32-0.595-2.113c-0.123-1.542,0.298-3.153,1.255-4.847c0.549-0.958,0.935-1.623,1.133-1.997
			c0.216-0.385,0.543-0.91,1.021-1.588c0.461-0.7,0.952-1.308,1.442-1.868c1.004-1.133,1.845-2.044,2.499-2.732
			c0.648-0.7,1.448-1.437,2.347-2.242l0.433-2.581c-1.617,1.542-3.194,2.301-4.724,2.301c-1.127,0-2.166-0.338-3.124-1.027
			c-0.934-0.689-1.652-1.518-2.125-2.545c-0.876-1.799-0.899-3.9-0.076-6.33c0.753-2.242,1.506-4.109,2.283-5.581
			c0.753-1.472,1.758-2.732,2.966-3.818c1.77-1.577,3.48-2.358,5.144-2.358c0.753,0,1.302,0.221,1.652,0.642
			c0.035,0.047,0.105,0.116,0.187,0.245c0.099,0.117,0.146,0.223,0.192,0.245c0.023,0.023,0.094,0.07,0.181,0.163
			c0.093,0.094,0.164,0.141,0.239,0.164c0.07,0.023,0.164,0.07,0.286,0.105c0.117,0.059,0.239,0.082,0.379,0.105
			c0.158,0,0.327,0,0.502,0h0.958c0.648,0,1.104,0.186,1.343,0.583c0.093,0.163,0.175,0.374,0.286,0.631
			c0.181,0.443,0.204,1.938,0.058,4.46c-0.07,0.795-0.251,1.775-0.572,2.92c-0.321,1.145-0.537,2.429-0.648,3.854
			c-0.105,1.4-0.263,3.258-0.479,5.512c0.408-0.246,0.864-0.537,1.343-0.911c1.459-1.098,3.129-3.177,4.922-5.909
			c0-0.116-0.047-0.232-0.047-0.35c0-0.794,0.158-1.752,0.456-2.873c0.297-1.098,0.625-2.078,0.946-2.942
			c0.31-0.841,0.729-1.658,1.208-2.429c0.502-0.782,1.063-1.471,1.722-2.078c0.654-0.584,1.384-1.051,2.195-1.402
			c0.829-0.338,1.723-0.537,2.715-0.537c0.817,0,1.56,0.141,2.248,0.421c0.695,0.245,1.296,0.607,1.81,1.074
			c0.514,0.468,0.917,1.052,1.203,1.717c0.292,0.653,0.432,1.39,0.432,2.23c0,0.864-0.286,1.856-0.881,2.942
			c-0.578,1.098-1.256,2.031-2.062,2.791c-0.776,0.782-1.722,1.471-2.785,2.078c-1.086,0.619-2.248,1.086-3.515,1.425
			c0.228,0.386,0.433,0.712,0.648,0.958c0.216,0.244,0.426,0.455,0.642,0.584c0.228,0.151,0.456,0.244,0.695,0.291
			c0.239,0.07,0.502,0.094,0.765,0.094c0.864,0,1.781-0.164,2.75-0.502c0.958-0.339,1.892-0.76,2.797-1.262
			c0.923-0.525,1.787-1.074,2.598-1.682c0.356-0.244,0.584-0.49,0.893-0.758c0.1-0.912,0.193-1.846,0.304-2.896
			c0.175-1.494,0.368-2.838,0.584-4.041c0.216-1.214,0.432-2.241,0.637-3.094c0.151-0.666,0.461-1.215,0.916-1.67
			c0.468-0.443,1.081-0.678,1.869-0.678c0.777,0,1.314,0.246,1.623,0.725c0.298,0.479,0.456,1.109,0.456,1.915
			c0,0.21-0.012,0.502-0.059,0.864c-0.035,0.373-0.099,0.759-0.157,1.215c-0.07,0.443-0.129,0.91-0.216,1.365
			c-0.07,0.479-0.128,1.016-0.199,1.611c-0.076,0.596-0.134,1.039-0.169,1.344c-0.035,0.279-0.059,0.49-0.059,0.596h0.426
			c0.087-0.152,0.228-0.409,0.42-0.76c0.192-0.373,0.409-0.863,0.648-1.541c0.251-0.654,0.502-1.238,0.789-1.752
			c0.274-0.514,0.537-1.004,0.788-1.471c0.251-0.479,0.479-0.899,0.671-1.25c0.21-0.361,0.356-0.631,0.461-0.806
			c0.467-0.771,0.992-1.308,1.582-1.588c0.584-0.292,1.255-0.444,1.974-0.444c0.729,0,1.302,0.305,1.734,0.911
			c0.426,0.607,0.642,1.448,0.642,2.522c0,0.164-0.035,0.42-0.093,0.782c-0.059,0.386-0.158,0.829-0.251,1.354
			c-0.093,0.525-0.216,1.191-0.333,2.021c-0.134,0.817-0.239,1.553-0.338,2.206c-0.094,0.666-0.175,1.285-0.251,1.928
			c-0.07,0.654-0.105,1.237-0.105,1.752c0,0.887,0.117,1.646,0.333,2.218c0.228,0.584,0.572,0.864,1.051,0.864
			c0.181,0,0.42-0.07,0.741-0.188c0.479-0.186,0.777-0.326,0.911-0.467c0.637-0.49,0.969-0.724,0.992-0.724
			c0.047,0.023,0.538-0.28,1.46-0.864c0.584-0.373,1.384-0.91,2.079-1.354c-0.274-1.774-0.42-3.748-0.42-5.979
			c0-0.841,0.041-1.774,0.111-2.768c0.07-0.97,0.169-1.95,0.298-2.919c-0.432-0.07-0.765-0.129-1.004-0.176
			c-0.251-0.07-0.502-0.116-0.765-0.187c-0.263-0.047-0.607-0.116-1.016-0.175c-0.409-0.059-1.017-0.152-1.793-0.246
			c-0.35-0.046-0.625-0.14-0.817-0.268c-0.187-0.129-0.321-0.293-0.402-0.49c-0.1-0.176-0.146-0.363-0.158-0.561
			c-0.012-0.223-0.023-0.386-0.023-0.525c0-0.234,0.146-0.409,0.421-0.525c0.286-0.129,0.654-0.223,1.098-0.27
			c0.443-0.047,0.922-0.094,1.459-0.105c0.525-0.012,1.04,0,1.53,0.012c0.49,0.023,0.922,0.023,1.302,0.035
			c0.397,0,0.66,0,0.806-0.035c0.392-1.938,0.882-3.83,1.483-5.651c0.595-1.821,1.267-3.444,2.02-4.869
			c0.742-1.413,1.554-2.558,2.423-3.421c0.887-0.842,1.81-1.262,2.768-1.262c0.63,0,1.191,0.164,1.705,0.514
			c0.514,0.327,0.958,0.795,1.319,1.378c0.356,0.584,0.643,1.249,0.823,2.032c0.205,0.759,0.298,1.588,0.298,2.405
			c0,0.7-0.093,1.425-0.298,2.207c-0.204,0.759-0.479,1.564-0.823,2.347c-0.35,0.807-0.753,1.611-1.22,2.43
			c-0.479,0.816-0.97,1.635-1.495,2.439c0.129-0.046,0.345-0.069,0.654-0.023c0.304,0.023,0.648,0.047,1.057,0.047
			c0.391,0.012,0.823,0.035,1.29,0.035c0.467,0.023,0.911,0.023,1.337,0.047c0.432,0.023,0.84,0.047,1.22,0.047
			c0.385,0.023,0.683,0.023,0.934,0.047c0.023,0,0.023,0.023,0.035,0.047c0.158-0.607,0.344-1.309,0.625-2.336
			c0.631-2.382,1.255-4.273,1.886-5.722c0.637-1.448,1.326-2.744,2.067-3.993c0.753-1.25,1.535-2.324,2.347-3.246
			c0.812-0.935,1.676-1.658,2.558-2.195c0.899-0.537,1.804-0.783,2.727-0.783c0.671,0,1.22,0.129,1.664,0.386
			c0.426,0.257,0.765,0.596,1.016,1.017c0.251,0.408,0.415,0.875,0.525,1.412c0.105,0.537,0.158,1.086,0.158,1.635
			c0,1.354-0.158,2.756-0.491,4.181c-0.315,1.413-0.753,2.825-1.308,4.263c-0.549,1.424-1.179,2.86-1.897,4.309
			c-0.718,1.424-1.471,2.872-2.248,4.262c-0.776,1.437-1.57,2.826-2.358,4.191c-0.788,1.379-1.506,2.733-2.178,4.041
			c-0.07,0.152-0.152,0.327-0.233,0.584c-0.088,0.233-0.158,0.479-0.228,0.747c-0.076,0.269-0.146,0.561-0.216,0.864
			c-0.076,0.304-0.146,0.596-0.181,0.898v0.316c0,0.361,0.035,0.735,0.117,1.074c0.087,0.373,0.181,0.688,0.292,0.98
			c0.117,0.269,0.251,0.49,0.368,0.678c0.146,0.163,0.251,0.256,0.386,0.256c0.274,0,0.595-0.069,0.957-0.186
			c0.368-0.129,0.753-0.258,1.156-0.479c0.409-0.198,0.812-0.409,1.244-0.677c0.432-0.27,0.841-0.502,1.244-0.783
			c0.07-0.035,0.157-0.104,0.239-0.151c-0.105-0.642-0.286-1.249-0.286-1.903c0-0.794,0.158-1.752,0.456-2.873
			c0.297-1.098,0.619-2.078,0.946-2.942c0.31-0.841,0.724-1.658,1.203-2.429c0.502-0.782,1.069-1.471,1.722-2.078
			c0.66-0.584,1.39-1.051,2.201-1.402c0.812-0.338,1.723-0.537,2.715-0.537c0.812,0,1.554,0.141,2.248,0.421
			c0.689,0.245,1.296,0.607,1.81,1.074c0.514,0.468,0.911,1.052,1.203,1.717c0.292,0.653,0.432,1.39,0.432,2.23
			c0,0.864-0.28,1.856-0.887,2.942c-0.584,1.098-1.261,2.031-2.056,2.791c-0.776,0.782-1.722,1.471-2.785,2.078
			c-1.074,0.619-2.248,1.086-3.515,1.425c0.228,0.386,0.433,0.712,0.643,0.958c0.216,0.244,0.432,0.455,0.648,0.584
			c0.228,0.151,0.456,0.244,0.695,0.291c0.239,0.07,0.502,0.094,0.765,0.094c0.858,0,1.77-0.164,2.738-0.502
			c0.952-0.339,1.897-0.76,2.797-1.262c0.923-0.525,1.775-1.074,2.581-1.682c0.105-0.069,0.152-0.128,0.246-0.197
			c0-0.199,0.023-0.375,0.058-0.584c0.117-0.911,0.269-1.939,0.502-3.106c0.233-1.168,0.42-2.161,0.583-3.024
			c0.164-0.853,0.327-1.67,0.502-2.371c0.175-0.712,0.338-1.284,0.49-1.739c0.128-0.456,0.269-0.841,0.409-1.109
			c0.128-0.269,0.28-0.491,0.444-0.665c0.163-0.152,0.374-0.246,0.596-0.293c0.245-0.07,0.525-0.07,0.875-0.07
			c0.561,0,0.981,0,1.308,0.047c0.292,0.047,0.537,0.141,0.677,0.258c0.152,0.14,0.245,0.326,0.269,0.607
			c0.023,0.256,0.059,0.606,0.059,1.074c0,0.256-0.023,0.537-0.059,0.84c-0.012,0.327-0.046,0.678-0.093,1.027
			c-0.023,0.374-0.07,0.748-0.117,1.121c-0.105,0.748-0.152,1.121-0.175,1.145c-0.21,1.004-0.42,2.113-0.63,3.316l0.233,0.28
			c0.023-0.046,0.222-0.443,0.572-1.167c0.362-0.748,0.735-1.449,1.145-2.172c0.408-0.725,0.853-1.473,1.343-2.242
			c0.467-0.783,0.934-1.472,1.354-2.079c0.42-0.583,0.864-1.098,1.331-1.495c0.479-0.373,1.027-0.584,1.682-0.584
			c0.619,0,1.133,0.199,1.564,0.561c0.444,0.328,0.643,0.842,0.643,1.495c0,0.584-0.023,1.121-0.105,1.636
			c-0.093,0.653-0.187,1.144-0.269,1.482c-0.104,0.385-0.21,0.852-0.338,1.39c-0.093,0.49-0.292,1.19-0.537,2.102
			c-0.047,0.14-0.105,0.351-0.152,0.631c0,0.081-0.012,0.14-0.012,0.163l0.233,0.28c0.047-0.046,0.245-0.443,0.619-1.167
			c0.362-0.725,0.782-1.426,1.226-2.148c0.432-0.725,0.899-1.473,1.401-2.254c0.491-0.807,0.97-1.495,1.401-2.091
			c0.433-0.583,0.841-1.074,1.261-1.472c0.421-0.396,0.935-0.607,1.542-0.607c0.665,0,1.249,0.188,1.717,0.538
			c0.479,0.339,0.712,0.853,0.712,1.518c0,1.005-0.047,1.962-0.163,2.85c-0.105,0.911-0.257,1.915-0.456,3.013
			c-0.222,1.098-0.361,2.102-0.467,2.989c-0.094,0.888-0.151,1.833-0.151,2.849c0,0.771,0.104,1.426,0.304,1.939
			c0.21,0.479,0.443,0.746,0.747,0.746s0.63-0.081,0.945-0.209c0.339-0.129,0.666-0.305,1.017-0.502
			c0.35-0.223,0.7-0.444,1.016-0.713c0.269-0.223,0.514-0.443,0.759-0.689c-0.116-0.688-0.315-1.342-0.315-2.078
			c0-0.806,0.152-1.764,0.456-2.873c0.304-1.098,0.618-2.078,0.934-2.931c0.327-0.864,0.735-1.669,1.215-2.452
			c0.502-0.771,1.074-1.471,1.728-2.055c0.654-0.596,1.379-1.062,2.195-1.401c0.818-0.351,1.729-0.538,2.709-0.538
			c0.818,0,1.565,0.117,2.254,0.398c0.689,0.256,1.297,0.606,1.811,1.098c0.514,0.467,0.91,1.027,1.202,1.704
			c0.292,0.653,0.433,1.378,0.433,2.242c0,0.853-0.28,1.845-0.888,2.931c-0.572,1.086-1.261,2.021-2.056,2.791
			c-0.771,0.771-1.728,1.471-2.778,2.078c-1.098,0.619-2.254,1.086-3.526,1.425c0.233,0.374,0.432,0.7,0.653,0.958
			c0.21,0.245,0.421,0.443,0.643,0.584c0.222,0.151,0.455,0.256,0.688,0.303c0.246,0.047,0.514,0.082,0.771,0.082
			c0.863,0,1.774-0.175,2.732-0.502c0.957-0.339,1.902-0.76,2.802-1.262c0.923-0.525,1.775-1.074,2.593-1.682
			c0.35-0.256,0.584-0.479,0.887-0.723c0.094-0.958,0.188-1.869,0.305-2.92c0.175-1.494,0.373-2.85,0.583-4.063
			c0.21-1.202,0.421-2.23,0.631-3.083c0.163-0.666,0.467-1.215,0.923-1.67c0.467-0.443,1.074-0.689,1.856-0.689
			s1.319,0.258,1.635,0.736c0.304,0.479,0.443,1.109,0.443,1.915c0,0.21,0,0.502-0.046,0.853c-0.047,0.373-0.094,0.771-0.164,1.227
			c-0.07,0.443-0.141,0.91-0.21,1.365c-0.07,0.468-0.141,1.005-0.21,1.611c-0.07,0.596-0.117,1.04-0.164,1.332
			c-0.035,0.291-0.059,0.514-0.059,0.607h0.433c0.081-0.164,0.21-0.409,0.396-0.771c0.198-0.35,0.421-0.863,0.666-1.529
			c0.245-0.654,0.502-1.25,0.782-1.764c0.292-0.514,0.561-1.004,0.794-1.471c0.257-0.467,0.479-0.888,0.678-1.238
			c0.21-0.35,0.351-0.631,0.467-0.794c0.467-0.782,0.981-1.319,1.564-1.611c0.596-0.28,1.262-0.444,1.985-0.444
			s1.296,0.316,1.729,0.935c0.432,0.584,0.653,1.425,0.653,2.499c0,0.164-0.022,0.42-0.104,0.794
			c-0.059,0.386-0.152,0.817-0.246,1.354c-0.093,0.525-0.221,1.191-0.338,2.021c-0.129,0.806-0.245,1.553-0.339,2.207
			c-0.093,0.653-0.175,1.284-0.233,1.927c-0.07,0.643-0.117,1.227-0.117,1.764c0,0.887,0.117,1.635,0.351,2.207
			c0.222,0.583,0.561,0.863,1.051,0.863c0.175,0,0.421-0.059,0.735-0.198c0.479-0.175,0.783-0.327,0.923-0.468
			c0.631-0.467,0.958-0.712,0.981-0.712c0.059,0.023,0.549-0.269,1.471-0.864c1.156-0.735,2.546-1.646,4.146-2.721V297.252z
			 M269.835,264.836c-0.023,0.188-0.07,0.375-0.117,0.584c-0.233,0.689-0.467,1.449-0.712,2.289
			c-0.245,0.818-0.503,1.635-0.759,2.464c-0.27,0.841-0.537,1.624-0.783,2.347c-0.245,0.748-0.479,1.391-0.688,1.904
			c-0.233,0.688-0.584,1.215-1.051,1.553c-0.444,0.327-0.911,0.502-1.378,0.502c-0.444,0-0.853-0.175-1.203-0.525
			c-0.339-0.361-0.514-0.887-0.514-1.611c0-0.245,0.012-0.584,0.035-1.004c0.012-0.397,0.047-0.853,0.07-1.355
			c0.047-0.49,0.069-1.016,0.116-1.588c0.047-0.561,0.07-1.098,0.141-1.635c0.093-1.249,0.21-2.615,0.35-4.063
			c0-0.42,0.105-0.817,0.315-1.155c0.223-0.34,0.502-0.643,0.841-0.877c0.339-0.232,0.735-0.42,1.18-0.549
			c0.432-0.128,0.864-0.197,1.308-0.197c0.374,0,0.747,0.046,1.086,0.151c0.351,0.081,0.666,0.245,0.935,0.421
			c0.269,0.174,0.502,0.432,0.653,0.734c0.152,0.316,0.246,0.654,0.246,1.052C269.882,264.487,269.858,264.663,269.835,264.836z
			 M293.633,299.401c-1.191,0.584-2.405,1.098-3.726,1.554c-1.296,0.443-2.604,0.806-3.935,1.051
			c-1.308,0.245-2.569,0.386-3.761,0.386c-0.84,0-1.646-0.07-2.382-0.234c-0.747-0.163-1.378-0.396-1.938-0.712
			s-1.004-0.759-1.354-1.272c-0.351-0.537-0.561-1.168-0.63-1.916c-0.211,0.047-0.397,0.094-0.584,0.094
			c-0.211,0.012-0.397,0.023-0.584,0.023c-0.234,0-0.444-0.012-0.654-0.023c-0.21,0-0.373-0.07-0.514-0.163
			s-0.257-0.257-0.351-0.468c-0.081-0.209-0.128-0.514-0.128-0.898c0-0.351,0.082-0.689,0.245-0.98
			c0.187-0.293,0.397-0.572,0.618-0.807c0.246-0.221,0.468-0.42,0.689-0.607c0.233-0.162,0.396-0.303,0.514-0.42
			c0.817-0.7,1.495-1.284,1.985-1.752c0.514-0.443,1.004-1.004,1.519-1.635c0.514-0.606,0.91-1.121,1.19-1.518
			c0.327-0.396,0.665-0.863,1.062-1.401c0.409-0.537,0.899-1.214,1.472-1.985c0.572-0.77,1.343-1.751,2.254-2.919
			c0.187-0.257,0.396-0.514,0.63-0.759s0.491-0.479,0.771-0.666c0.281-0.21,0.584-0.361,0.935-0.49
			c0.351-0.141,0.724-0.187,1.145-0.187c0.677,0,1.226,0.069,1.611,0.233c0.374,0.141,0.642,0.327,0.806,0.561
			c0.176,0.233,0.269,0.443,0.304,0.701c0.035,0.244,0.047,0.443,0.047,0.606c0,0.374-0.152,0.747-0.421,1.168
			s-0.572,0.841-0.91,1.237c-0.339,0.386-0.643,0.76-0.946,1.098c-0.28,0.327-0.467,0.561-0.514,0.736
			c0,0.455,0.047,0.863,0.116,1.249c0.07,0.374,0.152,0.735,0.258,1.098c0.116,0.351,0.233,0.747,0.35,1.133
			c0.117,0.409,0.234,0.864,0.327,1.39c0.094,0.525,0.14,1.262,0.047,2.172c-0.094,0.922-0.128,1.856-0.128,2.791
			c0.514-0.351,1.086-0.666,1.669-0.957c0.607-0.27,1.238-0.584,1.892-0.889c0.654-0.291,1.32-0.653,2.009-1.016
			c0.677-0.373,1.366-0.817,2.056-1.354l0.023,4.916C295.851,298.187,294.8,298.817,293.633,299.401z M328.313,200.31
			c-2.686,1.751-5.92,2.662-9.715,2.662c-2.64,0-4.998-0.443-7.123-1.308c-2.114-0.864-3.9-2.079-5.372-3.62
			c-1.472-1.564-2.615-3.41-3.409-5.582c-0.807-2.148-1.203-4.531-1.203-7.123c0-2.499,0.408-4.829,1.227-6.983
			c0.816-2.166,2.008-4.028,3.503-5.605c1.518-1.582,3.316-2.826,5.418-3.737c2.078-0.905,4.414-1.36,6.96-1.36
			c2.837,0,5.324,0.561,7.449,1.664c2.103,1.098,3.842,2.581,5.208,4.438c1.354,1.851,2.336,3.953,2.954,6.334
			c0.596,2.376,0.83,4.864,0.643,7.45h-24.148c0.129,2.931,0.888,5.085,2.266,6.44s3.375,2.055,5.967,2.055
			c1.857,0,3.457-0.467,4.788-1.401c1.343-0.922,2.148-1.903,2.464-2.942h8.092C332.984,195.639,330.999,198.535,328.313,200.31z"/>
		<path d="M191.318,0C85.833,0,0,85.827,0,191.318c0,105.491,85.833,191.317,191.318,191.317
			c105.491,0,191.318-85.826,191.318-191.317C382.636,85.827,296.809,0,191.318,0z M191.318,371.87
			c-99.559,0-180.545-80.992-180.545-180.552c0-99.559,80.986-180.545,180.545-180.545s180.551,80.987,180.551,180.545
			C371.869,290.877,290.877,371.87,191.318,371.87z"/>
	</g>
</g>
<g>
</g>
<g>
</g>
<g>
</g>
<g>
</g>
<g>
</g>
<g>
</g>
<g>
</g>
<g>
</g>
<g>
</g>
<g>
</g>
<g>
</g>
<g>
</g>
<g>
</g>
<g>
</g>
<g>
</g>
</svg>
