<?xml version="1.0" encoding="iso-8859-1"?>
<!-- Generator: Adobe Illustrator 16.0.0, SVG Export Plug-In . SVG Version: 6.00 Build 0)  -->
<!DOCTYPE svg PUBLIC "-//W3C//DTD SVG 1.1//EN" "http://www.w3.org/Graphics/SVG/1.1/DTD/svg11.dtd">
<svg version="1.1" id="Capa_1" xmlns="http://www.w3.org/2000/svg" xmlns:xlink="http://www.w3.org/1999/xlink" x="0px" y="0px"
	 width="379.657px" height="379.657px" viewBox="0 0 379.657 379.657" style="enable-background:new 0 0 379.657 379.657;"
	 xml:space="preserve">
<g>
	<path d="M336.604,8.612H85.961c-38.441,0-41.658,32.223-41.658,65.24c0,33,3.217,65.229,41.658,65.229h250.644
		c38.452,0,41.664-32.229,41.664-65.229C378.269,40.835,375.057,8.612,336.604,8.612z M80.87,129.727
		c-22.946-2.499-27.745-21.807-27.745-55.887c0-34.091,4.782-53.388,27.745-55.886V129.727z M101.731,33.77h19.886v33.134h-19.886
		V33.77z M121.991,116.251h-19.886V83.118h19.886V116.251z M134.876,33.77h19.886v33.134h-19.886V33.77z M155.136,116.251H135.25
		V83.118h19.886V116.251z M168.752,33.77h19.886v33.134h-19.886V33.77z M189.012,116.251h-19.886V83.118h19.886V116.251z
		 M200.904,33.77h19.887v33.134h-19.887V33.77z M221.165,116.251h-19.887V83.118h19.887V116.251z M234.056,33.77h19.875v33.134
		h-19.875V33.77z M254.304,116.251H234.43V83.118h19.874V116.251z M266.215,33.77h19.874v33.134h-19.874V33.77z M286.463,116.251
		h-19.886V83.118h19.886V116.251z M299.354,33.77h19.886v33.134h-19.886V33.77z M319.603,116.251h-19.875V83.118h19.875V116.251z
		 M339.617,129.943V17.749c24.778,1.518,29.823,20.984,29.823,56.091C369.44,108.947,364.396,128.425,339.617,129.943z"/>
	<path d="M292.302,169.476H41.658C3.217,169.476,0,201.705,0,234.715c0,33,3.217,65.24,41.658,65.24h250.644
		c38.452,0,41.664-32.229,41.664-65.24C333.988,201.705,330.766,169.476,292.302,169.476z M36.579,290.602
		c-22.946-2.499-27.727-21.812-27.727-55.887c0-34.085,4.781-53.394,27.727-55.892V290.602z M57.445,194.646h19.881v33.134H57.445
		V194.646z M77.699,277.127H57.813v-33.129h19.886V277.127z M90.591,194.646h19.881v33.134H90.591V194.646z M110.833,277.127H90.947
		v-33.129h19.886V277.127z M124.466,194.646h19.88v33.134h-19.88V194.646z M144.72,277.127h-19.886v-33.129h19.886V277.127z
		 M156.619,194.646h19.886v33.134h-19.886V194.646z M176.873,277.127h-19.886v-33.129h19.886V277.127z M189.753,194.646h19.886
		v33.134h-19.886V194.646z M210.001,277.127h-19.88v-33.129h19.88V277.127z M221.912,194.646h19.897v33.134h-19.897V194.646z
		 M242.16,277.127h-19.887v-33.129h19.887V277.127z M255.052,194.646h19.886v33.134h-19.886V194.646z M275.3,277.127h-19.875
		v-33.129H275.3V277.127z M295.313,290.801V178.607c24.779,1.518,29.824,20.99,29.824,56.097
		C325.138,269.805,320.116,289.283,295.313,290.801z"/>
	<path d="M379.646,346.383l-332.102-9.107c-3.625-9.108-12.483-15.555-22.887-15.555C11.035,321.721,0,332.768,0,346.383
		s11.035,24.662,24.668,24.662c9.996,0,18.572-5.979,22.443-14.537l332.546-6.75v-3.375H379.646z"/>
</g>
<g>
</g>
<g>
</g>
<g>
</g>
<g>
</g>
<g>
</g>
<g>
</g>
<g>
</g>
<g>
</g>
<g>
</g>
<g>
</g>
<g>
</g>
<g>
</g>
<g>
</g>
<g>
</g>
<g>
</g>
</svg>
