<?xml version="1.0" encoding="iso-8859-1"?>
<!-- Generator: Adobe Illustrator 16.0.0, SVG Export Plug-In . SVG Version: 6.00 Build 0)  -->
<!DOCTYPE svg PUBLIC "-//W3C//DTD SVG 1.1//EN" "http://www.w3.org/Graphics/SVG/1.1/DTD/svg11.dtd">
<svg version="1.1" id="Capa_1" xmlns="http://www.w3.org/2000/svg" xmlns:xlink="http://www.w3.org/1999/xlink" x="0px" y="0px"
	 width="382.194px" height="382.195px" viewBox="0 0 382.194 382.195" style="enable-background:new 0 0 382.194 382.195;"
	 xml:space="preserve">
<g>
	<path d="M131.192,138.738c10.03-9.312,11.467-1.431,24.37,10.749c12.897,12.185,57.346-6.802,57.346-6.802
		s13.616,6.802,17.201,17.568c3.573,10.76-12.203,11.467-10.042,25.8c2.148,14.34,44.068,16.488,50.176,19.361
		c6.096,2.861,0,5.733,0,11.466c0,5.723,10.381,1.074,19.361,8.595c8.968,7.521,0,40.858,0,40.858s-1.437,7.894-3.586,19.361
		c-2.125,11.467,3.924,7.52,3.586,20.785c-0.351,13.253-13.628,36.187-20.073,44.442c-6.446,8.244,8.944,16.488,20.073,16.488
		c11.116,0,15.051-21.872,20.797-24.382c5.732-2.511,32.952,3.947,34.4-5.021c1.447-8.956-17.562-20.785-15.764-26.519
		c1.798-5.745,42.994-22.222,46.591-32.264c3.573-10.042-7.181-30.127-4.309-35.849c2.86-5.733,9.307-5.733,10.755-18.648
		c1.424-12.903-10.416-16.488-11.467-24.37c-1.074-7.882,10.019-16.482,4.285-28.662c-5.733-12.197-15.775-3.591-20.797-12.903
		c-5.01-9.33,8.617-9.33,10.042-22.945c1.448-13.621-13.615-22.934-13.615-22.934s14.689-28.679-5.021-48.034
		c-19.711-19.36-68.428,4.449-80.992-4.303c-12.588-8.746-30.489-50.533-65.964-45.874c-35.475,4.665-53.055,17.206-53.055,17.206
		s-41.921,9.342-62.344,23.669c-20.412,14.334-21.141,51.257-29.379,59.495s-20.809-5.728-29.392,2.154
		c-8.6,7.894-2.522,26.519-3.585,35.849c-1.068,9.312-12.559,5.739-17.2,17.924c-4.647,12.185,9.33,29.742,9.33,37.986
		c0,8.233-12.197,13.977-12.903,27.956c-0.707,13.977,20.067,16.487,25.088,24.381c5.021,7.883-4.653,16.85-3.579,25.807
		c1.08,8.969,18.275,10.404,20.079,17.2c1.792,6.808-7.905,18.648-1.448,28.679c6.469,10.031,41.675-1.133,47.316,6.458
		c5.646,7.59,4.303,31.901,20.797,27.955c16.488-3.947,3.217-38.71,2.51-45.167S95.7,315.447,86.014,306.48
		c-9.669-8.969,7.882-20.074,15.058-27.243c7.176-7.182-2.143-54.766,4.291-60.219c6.446-5.465,29.035-15.041,32.977-27.955
		C142.286,178.154,121.145,148.056,131.192,138.738z"/>
</g>
<g>
</g>
<g>
</g>
<g>
</g>
<g>
</g>
<g>
</g>
<g>
</g>
<g>
</g>
<g>
</g>
<g>
</g>
<g>
</g>
<g>
</g>
<g>
</g>
<g>
</g>
<g>
</g>
<g>
</g>
</svg>
