<?xml version="1.0" encoding="iso-8859-1"?>
<!-- Generator: Adobe Illustrator 16.0.0, SVG Export Plug-In . SVG Version: 6.00 Build 0)  -->
<!DOCTYPE svg PUBLIC "-//W3C//DTD SVG 1.1//EN" "http://www.w3.org/Graphics/SVG/1.1/DTD/svg11.dtd">
<svg version="1.1" id="Capa_1" xmlns="http://www.w3.org/2000/svg" xmlns:xlink="http://www.w3.org/1999/xlink" x="0px" y="0px"
	 width="375.89px" height="375.89px" viewBox="0 0 375.89 375.89" style="enable-background:new 0 0 375.89 375.89;"
	 xml:space="preserve">
<g>
	<path d="M181.561,38.8l-47.853,100.359c0,0,25.73,44.507,28.562,69.473c2.826,24.954-18.52,42.447-18.52,42.447
		s18.269,13.895,20.844,28.562c2.569,14.679-7.199,108.317-41.688,94.946c16.984-19.57,0-65.613,0-65.613
		s-2.569,37.822-19.296,37.051c6.434-11.058-5.407-36.269-5.407-36.269s-1.564,13.3-14.672,14.667
		c2.837-10.055-5.4-25.492-5.4-25.492s-17.499,30.875,0,54.03c-32.93,2.056-20.844-66.384-20.844-66.384s-5.932-14.41-23.927,11.584
		c-3.597-24.453,33.192-67.156,33.192-67.156s-12.6-3.607-23.927,16.99c-4.122-15.448,26.239-88.01,26.239-88.01
		s-13.896,10.299-23.162,27.021c-5.657-16.722,32.428-74.109,32.428-74.109s41.43-116.812,98.023-103.43
		c37.84-31.639,68.714,24.966,79.503,39.375c10.802,14.41,17.235,32.667,25.211,55.052c7.976,22.396,49.406,82.154,50.434,94.077
		c1.017,11.922-12.354,23.762-12.354,23.762s32.428-11.303,21.626,6.189c-40.659,25.199-83.946,1.518-87.216-29.952
		c-3.281-31.47-6.948-66.536-6.948-66.536L181.561,38.8z"/>
</g>
<g>
</g>
<g>
</g>
<g>
</g>
<g>
</g>
<g>
</g>
<g>
</g>
<g>
</g>
<g>
</g>
<g>
</g>
<g>
</g>
<g>
</g>
<g>
</g>
<g>
</g>
<g>
</g>
<g>
</g>
</svg>
