<?xml version="1.0" encoding="iso-8859-1"?>
<!-- Generator: Adobe Illustrator 16.0.0, SVG Export Plug-In . SVG Version: 6.00 Build 0)  -->
<!DOCTYPE svg PUBLIC "-//W3C//DTD SVG 1.1//EN" "http://www.w3.org/Graphics/SVG/1.1/DTD/svg11.dtd">
<svg version="1.1" id="Capa_1" xmlns="http://www.w3.org/2000/svg" xmlns:xlink="http://www.w3.org/1999/xlink" x="0px" y="0px"
	 width="547.839px" height="547.839px" viewBox="0 0 547.839 547.839" style="enable-background:new 0 0 547.839 547.839;"
	 xml:space="preserve">
<g>
	<path d="M448.068,224.169l1.447-4.331l-1.965-0.804c-1.393-0.589-2.821-0.991-4.214-1.536c1.214-6.599,2-13.5,2-20.92
		c0-60.386-41.287-93.905-99.753-115.593l1.428-4.331l-1.946-0.803c-38.448-16.072-81.342-16.84-120.933-1.518l-2.393,0.938
		l2.857,5.393c-59.011,21.447-100.78,55.18-100.78,115.915c0,0.875,0.125,1.661,0.125,2.518c-7.956,1.777-15.849,3.991-23.626,6.991
		l-2.393,0.911l2.857,5.393C41.787,233.866,0,285.886,0,346.62c0,75.646,64.609,126.487,160.773,126.487
		c42.207,0,78.324-9.805,105.566-27.198c28.313,24.411,70.064,38.626,120.727,38.626c96.146,0,160.773-50.84,160.773-126.486
		C547.822,297.671,506.535,245.857,448.068,224.169z M137.531,196.579c0-55.43,38.858-84.521,93.557-103.646l2.393,4.536
		l1.866-0.661c33.626-11.956,69.467-10.75,101.557,2.616l2.286,0.946l2.125-6.402c53.02,19.831,90.343,48.243,90.343,102.61
		c0,5.866-0.555,11.268-1.357,16.456c-33.752-9.857-69.896-8.599-103.682,4.482l-2.394,0.911l2.857,5.393
		c-17.322,6.295-32.894,15.474-46.627,26.483c-16.089-16.188-36.037-29.188-58.68-37.582l1.446-4.331l-1.956-0.786
		c-26.644-11.134-55.412-14.742-83.735-10.938C137.531,196.633,137.531,196.615,137.531,196.579z M307.814,346.62
		c0,36.216-16.055,63.003-40.483,81.449c-16.902-17.554-27.34-40.751-27.34-70.021c0-19.518,5.027-37.93,13.679-54.572
		c9.911,0.839,20.17,1.303,30.912,1.303c5.178,0,10.196-0.143,15.179-0.321C304.849,317.708,307.814,331.851,307.814,346.62z
		 M284.582,291.064c-7.644,0-15.313-0.231-22.903-0.66c5.116-7.5,10.804-14.625,17.474-21.019
		c5.572,6.769,10.572,13.894,14.644,21.554C290.689,290.975,287.652,291.064,284.582,291.064z M246.098,289.207
		c-50.109-5.125-93.958-22.446-105.53-67.555c24.635-3.277,49.52-0.054,72.502,9.509l2.286,0.946l2.125-6.402
		c20.206,7.554,38.091,19.054,52.538,33.358C260.598,268.082,252.714,278.279,246.098,289.207z M289.545,260.617
		c12.929-10.259,27.644-18.76,44.02-24.501l2.393,4.536l1.875-0.661c27.948-9.929,57.396-10.661,85.003-2.982
		c-18.607,37.483-64.681,50.52-114.379,53.359C303.421,279.724,297.134,269.76,289.545,260.617z M13.715,346.62
		c0-55.431,38.858-102.807,93.557-121.933l2.393,4.536l1.866-0.661c5.152-1.831,10.366-3.259,15.616-4.464
		c11.483,45.323,52.734,70.002,112.2,77.823c-8.152,17.322-13.036,36.18-13.036,56.127c0,30.555,10.679,56.967,29.59,77.699
		c-26.849,15.965-61.002,23.645-95.11,23.645C87.574,459.392,13.715,424.515,13.715,346.62z M387.066,470.82
		c-40.357,0-80.842-10.66-109.11-33.232c27.697-22.126,43.591-53.484,43.591-90.968c0-15.001-2.571-29.447-7.285-43.037
		c59.395-4.731,103.092-24.483,121.432-62.332c1.215,0.473,2.482,0.839,3.679,1.357l2.286,0.946l2.143-6.402
		c53.002,19.822,90.324,66.538,90.324,120.896C534.107,435.945,460.248,470.82,387.066,470.82z"/>
</g>
<g>
</g>
<g>
</g>
<g>
</g>
<g>
</g>
<g>
</g>
<g>
</g>
<g>
</g>
<g>
</g>
<g>
</g>
<g>
</g>
<g>
</g>
<g>
</g>
<g>
</g>
<g>
</g>
<g>
</g>
</svg>
