<?xml version="1.0" encoding="iso-8859-1"?>
<!-- Generator: Adobe Illustrator 16.0.0, SVG Export Plug-In . SVG Version: 6.00 Build 0)  -->
<!DOCTYPE svg PUBLIC "-//W3C//DTD SVG 1.1//EN" "http://www.w3.org/Graphics/SVG/1.1/DTD/svg11.dtd">
<svg version="1.1" id="Capa_1" xmlns="http://www.w3.org/2000/svg" xmlns:xlink="http://www.w3.org/1999/xlink" x="0px" y="0px"
	 width="31.663px" height="31.662px" viewBox="0 0 31.663 31.662" style="enable-background:new 0 0 31.663 31.662;"
	 xml:space="preserve">
<g>
	<path d="M27.551,14.777c-0.005-0.014-0.014-0.025-0.02-0.039c-0.059-0.127-0.125-0.249-0.203-0.363
		c-0.02-0.029-0.044-0.055-0.066-0.083c-0.068-0.093-0.142-0.183-0.225-0.266c-0.038-0.038-0.082-0.071-0.123-0.107
		c-0.073-0.063-0.145-0.125-0.225-0.18c-0.059-0.04-0.119-0.073-0.183-0.109c-0.069-0.041-0.14-0.08-0.214-0.113
		c-0.074-0.034-0.15-0.061-0.229-0.087c-0.069-0.023-0.139-0.046-0.211-0.064c-0.084-0.021-0.168-0.034-0.256-0.046
		c-0.043-0.005-0.082-0.019-0.127-0.023V4.618H22.11C21.374,1.962,18.877,0,15.912,0c-2.967,0-5.463,1.962-6.197,4.618H6.206v8.917
		c-0.045,0.003-0.088,0.018-0.133,0.023c-0.088,0.012-0.174,0.025-0.258,0.046c-0.073,0.017-0.142,0.04-0.211,0.063
		c-0.078,0.026-0.156,0.052-0.231,0.085c-0.075,0.034-0.145,0.074-0.216,0.115c-0.062,0.035-0.124,0.068-0.181,0.108
		c-0.081,0.056-0.154,0.118-0.227,0.182c-0.041,0.036-0.083,0.068-0.121,0.105c-0.084,0.084-0.159,0.176-0.229,0.27
		c-0.02,0.027-0.043,0.051-0.062,0.078c-0.081,0.117-0.149,0.241-0.208,0.372c-0.004,0.011-0.011,0.021-0.017,0.031
		c-0.126,0.288-0.197,0.601-0.197,0.933c0,0.002,0,0.003,0,0.005c0,0.001,0,0.003,0,0.005c0,0.331,0.071,0.644,0.195,0.93
		c0.006,0.015,0.014,0.025,0.021,0.039c0.058,0.127,0.124,0.25,0.203,0.363c0.02,0.028,0.044,0.055,0.065,0.082
		c0.07,0.094,0.143,0.185,0.225,0.267c0.039,0.038,0.082,0.071,0.123,0.106c0.072,0.063,0.145,0.125,0.224,0.18
		c0.058,0.041,0.121,0.074,0.182,0.109c0.07,0.041,0.14,0.079,0.214,0.112c0.075,0.035,0.152,0.062,0.23,0.088
		c0.07,0.021,0.14,0.045,0.212,0.062c0.083,0.021,0.168,0.035,0.255,0.047c0.043,0.006,0.084,0.02,0.127,0.023v8.678h3.363
		c0.734,2.656,3.23,4.619,6.197,4.619c2.966,0,5.462-1.963,6.197-4.619h3.51v-8.916c0.046-0.004,0.088-0.018,0.133-0.023
		c0.088-0.012,0.174-0.024,0.258-0.045c0.072-0.018,0.143-0.041,0.211-0.063c0.08-0.024,0.156-0.052,0.231-0.084
		c0.075-0.035,0.144-0.074,0.215-0.115c0.062-0.034,0.124-0.067,0.183-0.106c0.08-0.058,0.153-0.119,0.228-0.183
		c0.041-0.036,0.083-0.067,0.121-0.106c0.084-0.084,0.157-0.176,0.229-0.271c0.021-0.026,0.043-0.051,0.062-0.078
		c0.081-0.116,0.147-0.241,0.208-0.37c0.005-0.013,0.012-0.021,0.018-0.033c0.125-0.287,0.194-0.6,0.194-0.931
		c0-0.001,0-0.003,0-0.005c0-0.003,0-0.005,0-0.006C27.747,15.376,27.676,15.063,27.551,14.777z M25.248,17.255
		c-0.235,0-0.458-0.051-0.661-0.139v0.012v0.455h-0.013v8.58h-3.271l-0.142,0.416h-0.005c-0.008,0.03-0.02,0.06-0.024,0.088
		l-0.127,0.377h0.021c-0.709,2.164-2.805,3.735-5.277,3.735c-2.473,0-4.569-1.573-5.278-3.735l-0.004-0.01
		c-0.048-0.148-0.091-0.302-0.126-0.455h-0.066l-0.177-0.416H7.074V18.29h0.001v-0.011v-0.913v-0.011
		c-0.202,0.088-0.425,0.14-0.661,0.14c-0.89,0-1.614-0.692-1.617-1.544c0.003-0.852,0.727-1.544,1.617-1.544
		c0.236,0,0.458,0.051,0.661,0.139v-0.01V14.08h0.013V5.5h3.27l0.14-0.417h0.006c0.007-0.03,0.017-0.059,0.024-0.088l0.127-0.377
		h-0.021c0.708-2.162,2.805-3.735,5.278-3.735c2.474,0,4.569,1.573,5.278,3.735l0.004,0.01c0.049,0.149,0.092,0.301,0.125,0.455
		h0.068L21.563,5.5h3.023v7.872c0,0-0.001,0-0.002,0v0.011v0.913v0.011c0.202-0.087,0.426-0.139,0.661-0.139
		c0.892,0,1.612,0.692,1.617,1.544C26.86,16.564,26.137,17.255,25.248,17.255z M19.319,7.052L19.852,7.3l-8.318,17.937L11,24.988
		L19.319,7.052z M12.935,15.873L12.4,15.626l3.833-8.264l0.533,0.247L12.935,15.873z M17.538,16.021l0.534,0.248l-3.839,8.26
		l-0.534-0.248L17.538,16.021z"/>
</g>
<g>
</g>
<g>
</g>
<g>
</g>
<g>
</g>
<g>
</g>
<g>
</g>
<g>
</g>
<g>
</g>
<g>
</g>
<g>
</g>
<g>
</g>
<g>
</g>
<g>
</g>
<g>
</g>
<g>
</g>
</svg>
