<?xml version="1.0" encoding="iso-8859-1"?>
<!-- Generator: Adobe Illustrator 16.0.0, SVG Export Plug-In . SVG Version: 6.00 Build 0)  -->
<!DOCTYPE svg PUBLIC "-//W3C//DTD SVG 1.1//EN" "http://www.w3.org/Graphics/SVG/1.1/DTD/svg11.dtd">
<svg version="1.1" id="Capa_1" xmlns="http://www.w3.org/2000/svg" xmlns:xlink="http://www.w3.org/1999/xlink" x="0px" y="0px"
	 width="29.582px" height="29.582px" viewBox="0 0 29.582 29.582" style="enable-background:new 0 0 29.582 29.582;"
	 xml:space="preserve">
<g>
	<path d="M5.627,10.771c0.012,0.045,0.022,0.093,0.032,0.14c-0.252,0.052-0.648,0.052-0.964-0.396
		c-0.134,0.645,0.614,0.739,1.021,0.746c0.044,0.429-0.01,0.893-0.302,1.331c-0.612,0.92-1.296,1.341-1.517,1.957
		c-0.314,0.86,1.337,1.011,1.337,1.011l0.004,0.326c0,0-0.53,0.514-0.417,0.915c0.15,0.535,1.215,0.345,1.215,0.345
		s-1.022,0.378-0.974,0.875c0.048,0.497,0.475,0.714,0.475,0.714s-0.99,1.945,0.466,2.373c1.456,0.429,4.409-1.349,4.794,0.729
		c0.372,1.432,2.029,4.948,1.456,5.606c-0.575,0.659-1.456,1.669-1.456,1.669l15.108,0.472c0,0-6.288-6.43-6.758-7.113
		c-0.202-0.294-0.783-1.086-1.245-2.043c1.604-0.116,1.479-4.121,1.479-4.121s0.898,2.142,0.514,3.854
		c0.984-0.301,3.167-5.095,1.84-10.529c-0.599-1.755-0.401-6.805-8.961-9.244C1.645-2.056,3.856,7.913,3.856,7.913l1.042,0.09
		C5.029,9.1,5.457,10.335,5.627,10.771z M17.903,20.426c-0.343-0.711-0.621-1.512-0.628-2.268l0.352-0.313
		C17.626,17.846,18.653,18.616,17.903,20.426z"/>
</g>
<g>
</g>
<g>
</g>
<g>
</g>
<g>
</g>
<g>
</g>
<g>
</g>
<g>
</g>
<g>
</g>
<g>
</g>
<g>
</g>
<g>
</g>
<g>
</g>
<g>
</g>
<g>
</g>
<g>
</g>
</svg>
