<?xml version="1.0" encoding="iso-8859-1"?>
<!-- Generator: Adobe Illustrator 16.0.0, SVG Export Plug-In . SVG Version: 6.00 Build 0)  -->
<!DOCTYPE svg PUBLIC "-//W3C//DTD SVG 1.1//EN" "http://www.w3.org/Graphics/SVG/1.1/DTD/svg11.dtd">
<svg version="1.1" id="Capa_1" xmlns="http://www.w3.org/2000/svg" xmlns:xlink="http://www.w3.org/1999/xlink" x="0px" y="0px"
	 width="363.083px" height="363.083px" viewBox="0 0 363.083 363.083" style="enable-background:new 0 0 363.083 363.083;"
	 xml:space="preserve">
<g>
	<g>
		<path d="M264.198,296.776L251.459,263.8c0,0,13.195,7.252,17.808,31.004c10.346-8.35-16.488-52.115-15.017-60.955
			c1.482-8.84,4.238-44.618,9.96-59.781c4.006-10.632,5.092-37.174,3.492-55.051c3.877,1.244,7.392,2.318,10.158,2.954
			c10.872,2.446-5.885-18.753-16.441-32.789c-9.562-0.812-47.841-3.527-79.567,2.773c-30.856,6.136-81.786,27.003-97.544,33.636
			c0.812,5.348-0.636,13.849-1.314,16.61c-0.122,0.514,1.985,0.14,5.664-0.812c-5.903,8.846-14.445,24.919-11.368,40.602
			c4.565,23.295,8.343,52.103,16.488,51.473c-2.417-14.293,6.598-9.237,6.598-9.237s13.417,31.225,16.943,45.984
			c3.532,14.749,4.986,59.962-4.396,57.592c-0.432,13.206,11.87,0,11.87,0s7.485,15.401-17.813,29.029
			c35.861,9.248,28.375-58.701,28.375-58.701s10.136,28.048,0,39.585c12.757,1.109,10.544-22.664,10.544-22.664
			s7.905,23.75,24.861,12.763c-13.248,0.093-34.74-47.503-34.74-47.503s20.009,40.041,40.695,42.668
			c-32.93-29.355-32.777-66.431-32.777-66.431s6.843,28.165,23.103,19.804c-22.227-10.895-20.16-33.816-20.16-33.816
			s24.978,16.22,28.504-0.934c-7.509,7.707-45.412-18.427-42.003-34.53c2.271-10.778,11.823-56.085,17.913-84.939
			c12.097-3.696,24.078-7.222,34.354-9.891l59.903,30.186c0,0-8.36,16.464-5.044,31.878c3.293,15.384-36.946,54.31-41.781,70.366
			c-4.834,16.08-8.816,50.574,1.296,71.242c10.124,20.68,32.999,10.229,35.627,13.207c2.639,2.978,6.095,30.84-4.612,27.698
			c9.061,9.739,12.973-10.112,12.973-10.112s7.135,13.907-0.28,16.184c8.91,2.021,7.754-12.669,7.754-12.669
			s8.337,16.267,18.474,9.236c-17.107-6.937-10.557-31.668-10.557-31.668s11.432,33.863,27.044,27.044
			C267.749,344.944,264.198,296.776,264.198,296.776z"/>
		<path d="M179.797,81.603c27.406-5.441,58.386-4.56,74.301-3.567c-5.861-17.334-10.603-95.647-97.212-74.413
			C78.533,22.855,77.932,93.332,81.317,115.378C98.547,108.145,148.304,87.867,179.797,81.603z"/>
	</g>
</g>
<g>
</g>
<g>
</g>
<g>
</g>
<g>
</g>
<g>
</g>
<g>
</g>
<g>
</g>
<g>
</g>
<g>
</g>
<g>
</g>
<g>
</g>
<g>
</g>
<g>
</g>
<g>
</g>
<g>
</g>
</svg>
