<?xml version="1.0" encoding="iso-8859-1"?>
<!-- Generator: Adobe Illustrator 16.0.0, SVG Export Plug-In . SVG Version: 6.00 Build 0)  -->
<!DOCTYPE svg PUBLIC "-//W3C//DTD SVG 1.1//EN" "http://www.w3.org/Graphics/SVG/1.1/DTD/svg11.dtd">
<svg version="1.1" id="Capa_1" xmlns="http://www.w3.org/2000/svg" xmlns:xlink="http://www.w3.org/1999/xlink" x="0px" y="0px"
	 width="584.744px" height="584.744px" viewBox="0 0 584.744 584.744" style="enable-background:new 0 0 584.744 584.744;"
	 xml:space="preserve">
<g>
	<g>
		<path d="M130.312,154.389c0,0,0.598-3.286,1.607-9.027c1.044-5.706,2.688-13.679,5.009-22.938
			c1.17-4.607,2.652-9.509,4.313-14.572c1.652-5.062,3.625-10.277,5.911-15.456c2.25-5.169,4.956-10.268,7.884-15.206
			c1.348-2.67,3.107-4.464,4.536-6.857c1.259-2.179,3.947-4.938,5.849-7.393l0.768-0.964l0.33-0.402l0.036-0.054l1.643-1.616
			l3.241-3.214c2.17-2.143,4.206-4.393,6.322-6.545c4.339-4.205,9.054-7.956,13.295-11.947c4.589-3.688,9.036-7.241,13.242-10.625
			c4.411-3.268,8.572-6.375,12.42-9.215c3.982-2.688,7.643-5.214,10.875-7.572c3.348-2.098,6.232-4.107,8.634-5.741
			C241.048,1.902,243.923,0,243.923,0s-3.366,0.036-9.25,0.911c-5.857,0.955-14.134,2.732-23.76,6.089
			c-4.714,1.866-9.947,3.768-15.269,6.277c-5.152,2.759-10.75,5.5-16.161,8.974c-5.268,3.714-10.938,7.357-16.134,11.813
			c-2.5,2.331-5.081,4.634-7.563,7.062l-3.75,3.625l-1.884,1.821l-0.134,0.107l-0.054,0.081l-0.455,0.491l-0.179,0.223l-0.402,0.473
			l-0.786,0.946c-2.071,2.732-4.009,4.724-6.17,8.09c-2.009,3.161-4.331,6.491-5.777,9.634c-3.331,6.286-5.831,12.795-7.661,19.179
			c-3.679,12.786-4.714,25-4.331,35.296c0.214,10.277,1.831,18.688,3.268,24.411C128.92,151.282,130.312,154.389,130.312,154.389z"
			/>
		<path d="M471.03,175.711c-0.394-5.777-1.18-11.465-2.215-17.081c-1.143-5.5-2.5-11.661-4.072-16.563l-2.285-7.536l-2.893-7.973
			c-1.768-5.099-4.018-10.036-6.072-14.956c-8.625-19.599-20.054-37.323-33.322-51.975c-13.179-14.787-28.394-26.108-43.466-34.135
			c-15.09-8.17-30.072-12.929-43.43-15.777c-13.394-2.929-25.242-3.804-34.93-4.027c-9.715-0.259-17.304,0.419-22.457,0.857
			c-5.125,0.554-7.848,0.866-7.848,0.866s2.723,0.125,7.884,0.339c5.116,0.294,12.634,0.991,22.036,2.357
			c9.393,1.375,20.67,3.786,33.118,7.795c12.393,4.098,25.857,10.081,39.162,18.581c13.215,8.607,26.107,19.965,37.322,33.921
			c11.25,13.974,20.465,30.68,27.947,48.859c1.715,4.625,3.625,9.214,5.09,14.027l2.25,6.893l2.035,7.643
			c1.447,5.232,2.107,9.545,3.018,14.518c0.787,4.956,1.447,9.894,1.732,14.885c1.269,19.938-2.143,40.117-10.035,59.064
			c-7.536,19.107-18.858,37.144-30.93,54.573c-11.5,16.429-23.27,32.822-34.145,49.43c3.018-10.071,5.59-20.251,7.644-30.608
			c3.839-20.019,5.536-40.555,4.5-61.306c-1.036-20.715-5.071-42.001-15.09-61.609c-1.196-2.464-2.554-4.875-4.019-7.241
			c-1.303-2.339-3-4.768-4.785-7.224c-1.786-2.652-3.286-4.312-4.857-6.197l-1.179-1.357l-0.644-0.75l-0.32-0.357l-0.643-0.714
			l-2.715-2.857c-7.215-7.607-15.18-14.17-23.18-20.242c-15.992-12.197-32.376-22.51-46.564-34.135
			c-7.099-5.839-13.384-12.242-18.367-19.519c-5.152-7.143-8.661-15.394-10.599-24.224c-1.902-8.857-2.438-18.286-1.688-27.795
			c0.089-1.232,0.312-2.456,0.438-3.697c0.831-3.607,1.652-7.223,2.286-10.857c0.75-4.723,1.214-9.349,1.706-14.045
			c-0.277,0.58-0.518,1.152-0.804,1.75l0,0c0.286-0.581,0.509-1.17,0.804-1.75c-0.589,0.786-1.098,1.661-1.688,2.446
			c-1.089,0.893-2.741,2.339-4.893,4.643c-3.786,4.081-8.893,10.643-13.5,20.117c-4.42,8.947-8.741,20.519-10.75,34.51
			c-7.589,11.429-15.929,22.304-24.617,33.001c-11.697,14.152-23.822,28.144-35.93,42.76c-5.911,7.438-11.724,15.063-17.188,23.162
			c-5.357,8.045-10.554,16.483-14.572,25.68l-5.438,10.589l-5.152,11.679c-3.036,8.009-5.875,16.188-7.331,24.813
			c-0.92,4.259-1.464,8.634-1.795,13.045c-0.419,4.384-0.384,8.866-0.205,13.322l0.536,6.679l1.223,6.616
			c1.045,4.357,2.232,8.724,3.982,12.84c1.536,4.188,3.643,8.17,5.929,11.956c2.214,3.875,4.902,7.357,7.732,10.679
			c5.723,6.607,12.232,12.304,19.295,16.982c14.134,9.179,29.804,15.322,45.93,17.644c-7.42-3.285-14.366-7.304-21.009-11.572
			c-6.563-4.393-12.867-9.035-18.394-14.357c-5.563-5.285-10.59-10.982-14.519-17.197c-1.955-3.125-3.714-6.321-5.232-9.589
			c-1.518-3.268-2.849-6.59-3.732-10.063c-1.054-3.402-1.589-6.938-2.062-10.429c-0.402-3.527-0.545-7.072-0.527-10.644
			c0.089-3.562,0.268-7.17,0.857-10.75c0.491-3.563,1.17-7.152,2.161-10.697c0.705-3.544,2.188-7.044,3.196-10.589
			c1.152-3.491,2.652-6.964,3.929-10.456l4.795-10.295l5.429-10.081l0.205-0.366l0.25-0.491c3.732-7.715,7.902-15.411,12.786-22.876
			c4.848-7.5,10.188-14.849,15.741-22.125c10.867-14.849,22.751-29.465,33.323-45.296c3.456-5.134,6.822-10.402,10.054-15.742
			c1.134,8.134,3.384,16.527,7.536,24.867c4.312,8.777,10.545,17.242,18.358,24.447c1.973,1.741,4.062,3.438,6.143,5.161
			c2.178,1.536,4.393,3.143,6.661,4.607c1.679,1,3.438,2.027,5.134,3.036c0.768,0.599,1.5,1.295,2.268,1.902
			c3.312,2.67,6.893,4.75,10.348,7.107l5.25,3c11.063,9.072,21.082,20.795,28.876,33.957c1.464,2.474,2.678,5.125,3.964,7.724
			c0.625,1.607,1.286,3.214,1.894,4.839c1.678,5.768,3.214,11.599,3.82,17.67c1.572,12.045,0.786,24.608-1.32,37.028
			c-2.25,12.429-5.501,24.912-9.912,37.126c-2.723,7.697-5.946,15.269-9.348,22.751c-3.036,2.786-6.304,5.626-9.839,8.429
			c-7.277,5.732-15.429,11.625-24.322,17.68c-9.063,5.965-18.608,12.268-28.519,18.75c-9.974,6.572-20.375,13.501-30.528,21.43
			c-10.161,7.875-20.438,16.375-29.581,26.305c-9.25,9.785-17.394,21.018-23.537,33.197c-6.313,11.93-10.295,27.287-7.902,41.447
			c2.268,14.34,10.117,25.93,18.322,34.484c8.339,8.678,17.652,14.571,26.242,19.482c8.634,4.946,17.009,8.268,24.394,11.054
			c2.616,1,5.089,1.839,7.5,2.607c2.616,2.106,5.322,4.106,8.099,5.821c13.768,8.25,28.805,12.215,43.635,13.394
			c29.6,2.036,59.297-5.321,83.227-21.786c11.965-8.18,22.215-18.787,29.43-31.072c6.32-10.447,10-22.145,11.75-33.859
			c2.643-3.928,4.821-7.357,6.482-10c2.821-4.75,4.321-7.285,4.321-7.285s-1.161,1.285-3.375,3.714
			c1.25-2.644,2.429-5.321,3.375-8.054c-0.269,0.375-0.536,0.75-0.769,1.16c0.037-0.16,0.107-0.339,0.144-0.428
			c0.394-1.269,0.625-1.911,0.625-1.911s-0.304,0.606-0.911,1.804c-0.518,1.107-1.375,2.679-2.643,4.535
			c-1.321,1.805-2.679,3.5-4.125,5.18c-2.982,3.143-7.018,6.375-12.607,8.357c-8.305,3.035-20.144,1.875-29.162-6.144
			c-9.215-7.679-14.411-21.358-14.75-36.43c-0.179-7.571,0.75-15.571,2.643-23.679c0.965-4.107,2.107-8.107,3.357-12.145
			c0.607-2,1.535-4.268,2.25-6.428l1.143-3.072l1.286-3.107c6.821-16.696,16.929-33.072,28.251-49.645
			c11.393-16.607,24.75-32.965,37.358-50.858c12.644-17.849,25.144-36.992,34.001-58.645
			C468.994,222.963,472.869,198.828,471.03,175.711z M336.525,180.774l0.089,0.116C336.811,181.086,336.667,180.944,336.525,180.774
			z M255.495,7.679c-2.536,5.581-4.902,11.286-6.821,17.17c-0.339,0.804-0.67,1.616-1.036,2.402c0.018-0.044,0.018-0.062,0.018-0.08
			C249.79,20.537,252.424,14.045,255.495,7.679L255.495,7.679z"/>
	</g>
</g>
<g>
</g>
<g>
</g>
<g>
</g>
<g>
</g>
<g>
</g>
<g>
</g>
<g>
</g>
<g>
</g>
<g>
</g>
<g>
</g>
<g>
</g>
<g>
</g>
<g>
</g>
<g>
</g>
<g>
</g>
</svg>
