<?xml version="1.0" encoding="iso-8859-1"?>
<!-- Generator: Adobe Illustrator 16.0.0, SVG Export Plug-In . SVG Version: 6.00 Build 0)  -->
<!DOCTYPE svg PUBLIC "-//W3C//DTD SVG 1.1//EN" "http://www.w3.org/Graphics/SVG/1.1/DTD/svg11.dtd">
<svg version="1.1" id="Capa_1" xmlns="http://www.w3.org/2000/svg" xmlns:xlink="http://www.w3.org/1999/xlink" x="0px" y="0px"
	 width="382.111px" height="382.11px" viewBox="0 0 382.111 382.11" style="enable-background:new 0 0 382.111 382.11;"
	 xml:space="preserve">
<g>
	<path d="M269.154,0.022c-32.112-1.051-84.35,34.798-71.546,110.944c-1.086,3.311-34.471-8.431-68.416,5.722
		c-54.252,28.808-47.415,22.771-79.673,34.144c-32.264,11.368-78.406,82.067-15.653,90.509
		c103.109,4.718,203.036,84.834,205.769,93.72c2.721,8.887,11.91-21.346,11.91-21.346s-11.549,66.163,34.33,68.3
		c45.88,2.138,50.854-32.368,35.92-53.364c-2.722-3.795-16.01-14.211-33.094,5.71c27.383,13.511,33.023,25.362,2.289,23.343
		c-29.1-1.892-19.968-47.584-16.815-51.041c-0.992-5.628,26.577-131.56,38.616-136.307c40.66-7.234,66.618-33.373,66.618-90.661
		C379.409,3.572,312.183,1.447,269.154,0.022z"/>
</g>
<g>
</g>
<g>
</g>
<g>
</g>
<g>
</g>
<g>
</g>
<g>
</g>
<g>
</g>
<g>
</g>
<g>
</g>
<g>
</g>
<g>
</g>
<g>
</g>
<g>
</g>
<g>
</g>
<g>
</g>
</svg>
