<?xml version="1.0" encoding="iso-8859-1"?>
<!-- Generator: Adobe Illustrator 16.0.0, SVG Export Plug-In . SVG Version: 6.00 Build 0)  -->
<!DOCTYPE svg PUBLIC "-//W3C//DTD SVG 1.1//EN" "http://www.w3.org/Graphics/SVG/1.1/DTD/svg11.dtd">
<svg version="1.1" id="Capa_1" xmlns="http://www.w3.org/2000/svg" xmlns:xlink="http://www.w3.org/1999/xlink" x="0px" y="0px"
	 width="577.699px" height="577.7px" viewBox="0 0 577.699 577.7" style="enable-background:new 0 0 577.699 577.7;"
	 xml:space="preserve">
<g>
	<path d="M116.307,181.543H81.011c0,0-47.171-226.382,182.943-173.55c230.079,52.832,163.184,367.467,127.951,381.539
		c2.339-28.18,0-66.912,0-66.912s-7.055,71.609-31.697,73.967c-6.251,0.589-10.501-1.607-13.43-5.215
		c7.875,25.357,25.34,49.055,30.322,56.287C385.673,460.177,500.677,577.7,500.677,577.7l-276.277-8.59
		c0,0,16.107-18.483,26.608-30.52c10.492-12.054-19.804-76.359-26.608-102.539c-7.045-37.965-61.038-5.482-87.664-13.304
		c-26.626-7.84-8.527-43.395-8.527-43.395s-7.821-3.946-8.697-13.054c-0.884-9.09,17.804-15.982,17.804-15.982
		s-19.456,3.446-22.215-6.34c-2.045-7.322,7.643-16.715,7.643-16.715l-0.071-5.965c0,0-30.207-2.75-24.465-18.5
		c4.036-11.26,16.527-18.957,27.751-35.778c5.322-8.009,6.331-16.509,5.527-24.34c-7.464-0.125-21.117-1.884-18.67-13.643
		c5.777,8.179,13.018,8.179,17.625,7.241c-0.179-0.857-0.366-1.714-0.562-2.554C126.655,225.58,118.467,201.972,116.307,181.543z"/>
</g>
<g>
</g>
<g>
</g>
<g>
</g>
<g>
</g>
<g>
</g>
<g>
</g>
<g>
</g>
<g>
</g>
<g>
</g>
<g>
</g>
<g>
</g>
<g>
</g>
<g>
</g>
<g>
</g>
<g>
</g>
</svg>
