<?xml version="1.0" encoding="iso-8859-1"?>
<!-- Generator: Adobe Illustrator 16.0.0, SVG Export Plug-In . SVG Version: 6.00 Build 0)  -->
<!DOCTYPE svg PUBLIC "-//W3C//DTD SVG 1.1//EN" "http://www.w3.org/Graphics/SVG/1.1/DTD/svg11.dtd">
<svg version="1.1" id="Capa_1" xmlns="http://www.w3.org/2000/svg" xmlns:xlink="http://www.w3.org/1999/xlink" x="0px" y="0px"
	 width="380.708px" height="380.707px" viewBox="0 0 380.708 380.707" style="enable-background:new 0 0 380.708 380.707;"
	 xml:space="preserve">
<g>
	<path d="M200.014,75.625c-23.529-22.963-38.738,18.088-38.738,18.088s-8.997,52.039-26.694,56.249
		c-19.605,18.379,36.45,50.019,36.45,50.019s-14.158,15.986-0.286,25.467c35.294,40.474-12.915,30.887-0.292,64.563
		c12.629,33.688-11.479,90.696-11.479,90.696s5.36-46.102-6.884-63.431c-113.273-83.899-7.607-73.332-43.619-105.035
		c-45.921-32.819-4.986-100.925,0-116.246c4.962-15.292,6.872-130.859,91.542-85.518c81.215-46.778,69.748,83.976,79.218,96.424
		c40.847,62.192-19.221,72.153,0,99.594c31.283,65.917-27.651,72.223-27.838,95.285c-0.176,23.062-60.277,64.574-60.277,64.574
		s20.855-22.771,15.215-44.197c-8.325-41.711,9.855-58.001,19.513-62.274c9.669-4.298-32.632-44.688-1.145-64.294
		c12.635-7.864,40.449-28.054,43.73-40.642c4.87-18.783-11.116-23.745-18.753-29.666S246.793,34.299,200.014,75.625z"/>
</g>
<g>
</g>
<g>
</g>
<g>
</g>
<g>
</g>
<g>
</g>
<g>
</g>
<g>
</g>
<g>
</g>
<g>
</g>
<g>
</g>
<g>
</g>
<g>
</g>
<g>
</g>
<g>
</g>
<g>
</g>
</svg>
