<?xml version="1.0" encoding="iso-8859-1"?>
<!-- Generator: Adobe Illustrator 16.0.0, SVG Export Plug-In . SVG Version: 6.00 Build 0)  -->
<!DOCTYPE svg PUBLIC "-//W3C//DTD SVG 1.1//EN" "http://www.w3.org/Graphics/SVG/1.1/DTD/svg11.dtd">
<svg version="1.1" id="Capa_1" xmlns="http://www.w3.org/2000/svg" xmlns:xlink="http://www.w3.org/1999/xlink" x="0px" y="0px"
	 width="372.629px" height="372.629px" viewBox="0 0 372.629 372.629" style="enable-background:new 0 0 372.629 372.629;"
	 xml:space="preserve">
<g>
	<path d="M128.717,96.635c-1.197,25.339-40.105,68.766-40.105,68.766s0.899,21.702,11.753,44.344
		c10.86,22.631,59.729,50.667,59.729,50.667s-5.43,83.27,3.626,112.218c-24.429-14.714-76.923-73.286-89.587-123.965
		S36.135,26.958,128.717,35.114c18.712-69.689,116.106-18.999,144.493,9.949c28.387,28.959,44.116,204.501,36.258,232.549
		c-7.871,28.049-64.307,92.309-100.505,95.018c18.999-26.239,0.911-116.736,0.911-116.736s89.587-15.367,56.085-119.451
		C255.343,139.273,168.25,169.021,128.717,96.635z"/>
</g>
<g>
</g>
<g>
</g>
<g>
</g>
<g>
</g>
<g>
</g>
<g>
</g>
<g>
</g>
<g>
</g>
<g>
</g>
<g>
</g>
<g>
</g>
<g>
</g>
<g>
</g>
<g>
</g>
<g>
</g>
</svg>
