<?xml version="1.0" encoding="iso-8859-1"?>
<!-- Generator: Adobe Illustrator 16.0.0, SVG Export Plug-In . SVG Version: 6.00 Build 0)  -->
<!DOCTYPE svg PUBLIC "-//W3C//DTD SVG 1.1//EN" "http://www.w3.org/Graphics/SVG/1.1/DTD/svg11.dtd">
<svg version="1.1" id="Capa_1" xmlns="http://www.w3.org/2000/svg" xmlns:xlink="http://www.w3.org/1999/xlink" x="0px" y="0px"
	 width="363.089px" height="363.089px" viewBox="0 0 363.089 363.089" style="enable-background:new 0 0 363.089 363.089;"
	 xml:space="preserve">
<g>
	<path d="M35.898,183.344c2.646-7.374,10.819-12.418,18.141-23.407c3.491-5.237,4.134-10.784,3.608-15.916
		c-4.875-0.082-13.809-1.232-12.22-8.921c3.778,5.348,8.513,5.336,11.537,4.735c-0.117-0.561-0.251-1.121-0.379-1.658
		c-2.762-7.117-11.339-32.094-8.694-46.288c-15.951,0.537,7.976-38.19,21.918-49.791c16.535-12.839,64.832-22.443,132.167-12.804
		c11.128-14.34,46.218-51.251,87.905-11.233c50.667,48.612,41.465,128.962,23.553,186.291
		c-17.913,57.322-16.769,108.106,4.601,123.848c-4.869,15.717-67.563-45.564-67.563-45.564s10.485,26.355,44.536,50.153
		c-86.621-17.667-72.164-112.591-72.164-112.591s44.524-107.727,23.412-145.351c-12.949-23.074-25.176-20.721-32.696-15.46
		c4.928,13.978,10.719,30.098,15.425,42.078c10.229,26.104-5.628,82.919-26.098,105.432c-20.476,22.514,9.75,62.952,15.39,71.138
		c5.629,8.174,80.806,85.056,80.806,85.056l-180.68-5.628c0,0,10.533-12.074,17.399-19.956c6.866-7.871-12.95-49.92-17.399-67.027
		c-4.601-24.825-39.912-3.596-57.323-8.711c-17.411-5.114-5.57-28.375-5.57-28.375s-5.109-2.592-5.681-8.536
		c-0.572-5.955,11.648-10.462,11.648-10.462s-12.722,2.276-14.532-4.123c-1.337-4.799,4.986-10.941,4.986-10.941l-0.047-3.912
		C51.896,195.418,32.145,193.62,35.898,183.344z"/>
</g>
<g>
</g>
<g>
</g>
<g>
</g>
<g>
</g>
<g>
</g>
<g>
</g>
<g>
</g>
<g>
</g>
<g>
</g>
<g>
</g>
<g>
</g>
<g>
</g>
<g>
</g>
<g>
</g>
<g>
</g>
</svg>
