<?xml version="1.0" encoding="iso-8859-1"?>
<!-- Generator: Adobe Illustrator 16.0.0, SVG Export Plug-In . SVG Version: 6.00 Build 0)  -->
<!DOCTYPE svg PUBLIC "-//W3C//DTD SVG 1.1//EN" "http://www.w3.org/Graphics/SVG/1.1/DTD/svg11.dtd">
<svg version="1.1" id="Capa_1" xmlns="http://www.w3.org/2000/svg" xmlns:xlink="http://www.w3.org/1999/xlink" x="0px" y="0px"
	 width="31.844px" height="31.844px" viewBox="0 0 31.844 31.844" style="enable-background:new 0 0 31.844 31.844;"
	 xml:space="preserve">
<g>
	<path d="M19.065,4.009c0,0-2.078,4.487-4.461,3.6c-0.684,1.749-2.839,5.627-2.839,5.627s0.944,1.749,0.963,3.118
		s-0.963,2.154-0.963,2.154s0.963,1.623,0,2.333c0.963,2.611-1.851,5.374-1.572,5.881c1.597,5.044-2.839,5.121-2.839,5.121
		s1.698-0.71,1.673-2.002c-0.025-1.293-2.56-2.155-2.383-3.574c0.177-1.42,2.104-2.256,1.977-3.6c-0.126-1.344-2.18-2.459-2.23-3.65
		c-0.05-1.19,1.318-1.572,1.419-1.927c0.101-0.355-0.608-0.532-0.659-1.014C7.1,15.594,8.19,15.67,8.165,15.315
		s-0.457-0.811-0.507-1.268c-0.051-0.456,0.456-0.558,0.456-0.558s-0.203-1.673-0.152-2.788C8.014,9.585,9.788,0.208,15.568,0.003
		c5.779-0.203,5.754,8.264,5.754,8.264s1.647,2.636,1.749,4.512c0.102,1.875-1.496,3.447-1.419,4.259
		c0.075,0.812,1.646,1.8,1.927,3.245c0.278,1.444-0.608,3.092-0.608,3.092s2.484,1.369,2.484,2.939c0,1.572-0.938,1.445-0.608,1.673
		c0.913,2.561-1.317,2.281-1.317,2.281s-1.191-0.532-0.355-1.926c-2.484-0.634-3.522-3.929-3.448-5.171
		c0.076-1.242,1.166-2.435,1.166-2.435s-2.027-3.27-2.079-4.816c-0.05-1.546,1.674-5.044,1.979-5.627
		C20.89,7.051,19.065,4.009,19.065,4.009z"/>
</g>
<g>
</g>
<g>
</g>
<g>
</g>
<g>
</g>
<g>
</g>
<g>
</g>
<g>
</g>
<g>
</g>
<g>
</g>
<g>
</g>
<g>
</g>
<g>
</g>
<g>
</g>
<g>
</g>
<g>
</g>
</svg>
