<?xml version="1.0" encoding="iso-8859-1"?>
<!-- Generator: Adobe Illustrator 16.0.0, SVG Export Plug-In . SVG Version: 6.00 Build 0)  -->
<!DOCTYPE svg PUBLIC "-//W3C//DTD SVG 1.1//EN" "http://www.w3.org/Graphics/SVG/1.1/DTD/svg11.dtd">
<svg version="1.1" id="Capa_1" xmlns="http://www.w3.org/2000/svg" xmlns:xlink="http://www.w3.org/1999/xlink" x="0px" y="0px"
	 width="30.439px" height="30.439px" viewBox="0 0 30.439 30.439" style="enable-background:new 0 0 30.439 30.439;"
	 xml:space="preserve">
<g>
	<path d="M4.743,16.485c0.205-0.571,0.84-0.963,1.408-1.816c0.271-0.406,0.321-0.838,0.28-1.235
		c-0.378-0.006-1.072-0.095-0.948-0.693c0.294,0.416,0.661,0.416,0.896,0.368c-0.009-0.044-0.019-0.088-0.03-0.129
		c-0.417-1.072-1.045-4.563,1.184-6.416C7.559,6.543,7.59,6.522,7.618,6.502C6.786,5.854,5.638,4.878,5.53,4.354
		c-0.171-0.833,3.339,0,3.339,0S7.574,1.595,8.312,1.242c0.738-0.354,2.525,2.312,2.525,2.312S11.095,0.043,11.822,0
		c0.727-0.043,1.241,3.149,1.241,3.149S14.808,0,15.459,0c0.654,0,0.428,2.739,0.428,2.739s2.664-2.169,3.082-1.946
		s-0.728,2.781-0.728,2.781s3.209-0.858,3.381-0.425c0.171,0.435-1.969,1.944-1.969,1.944s3.521,0.417,3.553,1.027
		c0.032,0.609-2.611,1.498-2.611,1.498s3.841,0.471,3.853,1.155c0.011,0.684-2.269,1.157-2.269,1.157s3.479,1.681,3.553,2.354
		c0.075,0.673-3.017,0.916-2.867,1.069c0.148,0.153,2.377,2.43,2.307,2.781c-0.071,0.354-2.264,0-2.264,0s2.867,2.708,0.556,3.682
		c-1.347,0.566-3.316-0.226-4.729-0.983c-0.896,1.819-0.219,4.448,0.163,5.003c0.438,0.638,6.273,6.604,6.273,6.604l-14.024-0.438
		c0,0,0.818-0.938,1.351-1.55c0.533-0.61-1.005-3.875-1.351-5.204c-0.357-1.927-3.099-0.278-4.45-0.675
		c-1.35-0.396-0.432-2.203-0.432-2.203s-0.397-0.2-0.441-0.662c-0.045-0.462,0.904-0.812,0.904-0.812s-0.988,0.177-1.127-0.32
		c-0.104-0.372,0.387-0.849,0.387-0.849l-0.003-0.304C5.984,17.424,4.452,17.284,4.743,16.485z"/>
</g>
<g>
</g>
<g>
</g>
<g>
</g>
<g>
</g>
<g>
</g>
<g>
</g>
<g>
</g>
<g>
</g>
<g>
</g>
<g>
</g>
<g>
</g>
<g>
</g>
<g>
</g>
<g>
</g>
<g>
</g>
</svg>
