<?xml version="1.0" encoding="iso-8859-1"?>
<!-- Generator: Adobe Illustrator 16.0.0, SVG Export Plug-In . SVG Version: 6.00 Build 0)  -->
<!DOCTYPE svg PUBLIC "-//W3C//DTD SVG 1.1//EN" "http://www.w3.org/Graphics/SVG/1.1/DTD/svg11.dtd">
<svg version="1.1" id="Capa_1" xmlns="http://www.w3.org/2000/svg" xmlns:xlink="http://www.w3.org/1999/xlink" x="0px" y="0px"
	 width="31.661px" height="31.662px" viewBox="0 0 31.661 31.662" style="enable-background:new 0 0 31.661 31.662;"
	 xml:space="preserve">
<g>
	<path d="M14.195,0.21C9.064,1.614,8.699,8.74,8.699,8.74S8.121,20.057,9.021,23.05c0.9,2.994,4.748,8.245,4.748,8.245
		s0.511-14.667,0.061-15.543c-2.992-1.618-3.481-6.779-3.481-6.779s3.359-0.266,5.436-0.117c2.077,0.149,5.437-0.116,5.437-0.116
		s0.221,1.853-0.531,3.563c-0.752,1.71-2.77,2.687-3.195,3.45c-0.43,0.764-1.368,15.908-1.368,15.908s5.152-2.32,6.313-15.269
		c0.387-3.438,2.077-13.497-1.751-15.066C19.532,0.864,16.698-0.523,14.195,0.21z"/>
</g>
<g>
</g>
<g>
</g>
<g>
</g>
<g>
</g>
<g>
</g>
<g>
</g>
<g>
</g>
<g>
</g>
<g>
</g>
<g>
</g>
<g>
</g>
<g>
</g>
<g>
</g>
<g>
</g>
<g>
</g>
</svg>
