<?xml version="1.0" encoding="iso-8859-1"?>
<!-- Generator: Adobe Illustrator 16.0.0, SVG Export Plug-In . SVG Version: 6.00 Build 0)  -->
<!DOCTYPE svg PUBLIC "-//W3C//DTD SVG 1.1//EN" "http://www.w3.org/Graphics/SVG/1.1/DTD/svg11.dtd">
<svg version="1.1" id="Capa_1" xmlns="http://www.w3.org/2000/svg" xmlns:xlink="http://www.w3.org/1999/xlink" x="0px" y="0px"
	 width="556.5px" height="556.5px" viewBox="0 0 556.5 556.5" style="enable-background:new 0 0 556.5 556.5;" xml:space="preserve"
	>
<g>
	<path d="M87.358,0.286c21.706-2.357,26.992,9.759,30.519,40.868C102.609,28.242,88.51,20.545,78.545,45.6
		c-10.589,58.493,36.385,45.645,68.172,35.358c7.179-2.643,7.179-2.643,27.92-22.635c20.715-19.983,245.893-92.637,234.98,80.842
		c-0.66,10.777-1.195,20.867-1.678,30.653c2.357,14.26,1.553,31.671-1.625,49.868c-2.305,156.505,28.09,156.041,56.716,151.951
		c8.25,35.752-42.52,47.842-76.913,51.913c0.785,1.161,1.482,2.106,2,2.894c8.625,12.5,123.594,130.057,123.594,130.057
		l-276.278-8.625c0,0,16.117-18.482,26.608-30.519c10.5-12.036-19.804-76.342-26.608-102.521
		c-7.036-37.947-61.038-5.464-87.664-13.304c-26.626-7.822-8.518-43.395-8.518-43.395s-7.812-3.965-8.688-13.054
		c-0.875-9.107,17.813-16.001,17.813-16.001s-19.474,3.5-22.215-6.321c-2.053-7.321,7.625-16.733,7.625-16.733l-0.081-5.964
		c0,0-30.206-2.732-24.447-18.465c4.045-11.277,16.554-18.965,27.742-35.787c5.339-8.009,6.331-16.509,5.527-24.358
		c-7.464-0.107-21.125-1.866-18.688-13.616c5.795,8.152,13.036,8.152,17.644,7.214c-0.188-0.839-0.366-1.696-0.589-2.536
		c-4.224-10.884-17.331-49.064-13.295-70.771c-0.438,0.036-0.732-0.125-1.134-0.143C59.232,140.246,2.82,39.01,87.358,0.286z"/>
</g>
<g>
</g>
<g>
</g>
<g>
</g>
<g>
</g>
<g>
</g>
<g>
</g>
<g>
</g>
<g>
</g>
<g>
</g>
<g>
</g>
<g>
</g>
<g>
</g>
<g>
</g>
<g>
</g>
<g>
</g>
</svg>
