<?xml version="1.0" encoding="iso-8859-1"?>
<!-- Generator: Adobe Illustrator 16.0.0, SVG Export Plug-In . SVG Version: 6.00 Build 0)  -->
<!DOCTYPE svg PUBLIC "-//W3C//DTD SVG 1.1//EN" "http://www.w3.org/Graphics/SVG/1.1/DTD/svg11.dtd">
<svg version="1.1" id="Capa_1" xmlns="http://www.w3.org/2000/svg" xmlns:xlink="http://www.w3.org/1999/xlink" x="0px" y="0px"
	 width="30.585px" height="30.585px" viewBox="0 0 30.585 30.585" style="enable-background:new 0 0 30.585 30.585;"
	 xml:space="preserve">
<g>
	<path d="M30.188,22.881c-1.73,2.026-2.497,1.58-3.034-0.247c-0.884-2.995-1.156-9.707-4.079-15.314
		c0.396-0.425,0.503-1.067,0.213-1.607c-0.317-0.589-0.996-0.856-1.614-0.678c-0.539-0.751-1.138-1.467-1.816-2.129
		C12.059-4.713,3.981,4.597,1.864,8.688c-0.144,0.245-0.259,0.5-0.351,0.763c-0.092,0.237-0.15,0.439-0.173,0.597
		c0,0.001,0,0.003,0,0.003c-0.333,1.528,0,3.113,0.253,3.767c0.011,0.04,0.021,0.082,0.029,0.123
		c-0.226,0.046-0.578,0.047-0.86-0.353c-0.119,0.574,0.547,0.66,0.911,0.665c0.04,0.383-0.009,0.796-0.269,1.188
		c-0.547,0.818-1.156,1.194-1.354,1.744c-0.28,0.768,1.192,0.9,1.192,0.9l0.004,0.291c0,0-0.473,0.458-0.372,0.815
		c0.135,0.478,1.084,0.308,1.084,0.308s-0.912,0.336-0.869,0.78c0.043,0.443,0.424,0.637,0.424,0.637s-0.882,1.733,0.416,2.115
		c1.298,0.381,3.932-1.202,4.274,0.648c0.332,1.276,1.81,4.41,1.297,4.999c-0.512,0.587-1.297,1.486-1.297,1.486l13.47,0.42
		c0,0-4.16-5.381-4.579-5.989c-0.324-0.473,0.536-1.362,1.646-2.517c0.838,2.072,2.59,3.971,5.948,5.267
		C29.502,30.322,31.505,24.484,30.188,22.881z"/>
</g>
<g>
</g>
<g>
</g>
<g>
</g>
<g>
</g>
<g>
</g>
<g>
</g>
<g>
</g>
<g>
</g>
<g>
</g>
<g>
</g>
<g>
</g>
<g>
</g>
<g>
</g>
<g>
</g>
<g>
</g>
</svg>
