<?xml version="1.0" encoding="iso-8859-1"?>
<!-- Generator: Adobe Illustrator 16.0.0, SVG Export Plug-In . SVG Version: 6.00 Build 0)  -->
<!DOCTYPE svg PUBLIC "-//W3C//DTD SVG 1.1//EN" "http://www.w3.org/Graphics/SVG/1.1/DTD/svg11.dtd">
<svg version="1.1" id="Capa_1" xmlns="http://www.w3.org/2000/svg" xmlns:xlink="http://www.w3.org/1999/xlink" x="0px" y="0px"
	 width="584.835px" height="584.835px" viewBox="0 0 584.835 584.835" style="enable-background:new 0 0 584.835 584.835;"
	 xml:space="preserve">
<g>
	<path d="M413.347,133.86c-6.857,20.537-38.144,37.493-38.144,37.493l4.875-23.795c0,0-50.876,48.77-84.146,35.153
		c40.483-4.795,37.18-24.412,37.18-24.412s-92.949,38.18-92.949,43.082c0,4.902-14.688,55.788,13.697,101.735
		c-58.698-4.875-55.779-106.638-55.779-106.638l-44.028,63.601c0,0,62.609,35.233,28.358,86.128
		c89.039-19.59,30.34,56.733,61.645,61.608c90.021,24.483,48.931,102.719,48.931,102.719s38.144,37.197,11.732,66.573
		c-26.394,29.322-21.019-34.251-21.019-34.251s-67.984-11.43-25.93-61.002c42.072-49.556-84.154,37.52-66.529-71.109
		c-8.813-8.786-119.37,30.59-64.565-73.253c14.662-13.821-77.315-17.732-42.082-111.664c-13.697-36.189-23.474-40.618,20.554-84.137
		c13.715-24.465-90.994-91.012,49.903-140.898c81.208-8.812,82.199,58.699,82.199,58.699l11.742,3.911
		c0,0,107.62-100.771,186.873-0.964c129.164,31.305,57.055,204.498,45.18,221.105c6.697,16.644,7.679,37.572,7.679,37.572
		l-44.037-5.25l22.108-118.405C466.779,197.461,412.366,183.764,413.347,133.86z"/>
</g>
<g>
</g>
<g>
</g>
<g>
</g>
<g>
</g>
<g>
</g>
<g>
</g>
<g>
</g>
<g>
</g>
<g>
</g>
<g>
</g>
<g>
</g>
<g>
</g>
<g>
</g>
<g>
</g>
<g>
</g>
</svg>
