<?xml version="1.0" encoding="iso-8859-1"?>
<!-- Generator: Adobe Illustrator 16.0.0, SVG Export Plug-In . SVG Version: 6.00 Build 0)  -->
<!DOCTYPE svg PUBLIC "-//W3C//DTD SVG 1.1//EN" "http://www.w3.org/Graphics/SVG/1.1/DTD/svg11.dtd">
<svg version="1.1" id="Capa_1" xmlns="http://www.w3.org/2000/svg" xmlns:xlink="http://www.w3.org/1999/xlink" x="0px" y="0px"
	 width="31.637px" height="31.638px" viewBox="0 0 31.637 31.638" style="enable-background:new 0 0 31.637 31.638;"
	 xml:space="preserve">
<g>
	<path d="M19.016,19.053c0,0-1.881,6.383-2.188,8.902c-0.307,2.52,4.61,0.554,6.578,2.605c1.968,2.051,5.101,0.117,5.349-2.177
		c0.249-2.293-1.66-9.332-1.66-9.332s-2.213-4.499-2.151-6.773c0.062-2.274-2.306-14.598-11.219-11.893
		c-4.057,1.536-3.719,0.581-5.072,3.07c-1.353,2.49,0.246,5.564-0.369,7.347c-0.615,1.783-7.5,15.885-4.795,19.758
		c2.705,3.871,10.696-3.836,9.897-5.127c-0.799-1.291,2.643-3.996-0.123-4.918S9.574,7.484,13.57,5.456
		C13.016,14,20.946,14.95,21.869,16.014C22.792,17.074,19.016,19.053,19.016,19.053z"/>
</g>
<g>
</g>
<g>
</g>
<g>
</g>
<g>
</g>
<g>
</g>
<g>
</g>
<g>
</g>
<g>
</g>
<g>
</g>
<g>
</g>
<g>
</g>
<g>
</g>
<g>
</g>
<g>
</g>
<g>
</g>
</svg>
