<?xml version="1.0" encoding="iso-8859-1"?>
<!-- Generator: Adobe Illustrator 16.0.0, SVG Export Plug-In . SVG Version: 6.00 Build 0)  -->
<!DOCTYPE svg PUBLIC "-//W3C//DTD SVG 1.1//EN" "http://www.w3.org/Graphics/SVG/1.1/DTD/svg11.dtd">
<svg version="1.1" id="Capa_1" xmlns="http://www.w3.org/2000/svg" xmlns:xlink="http://www.w3.org/1999/xlink" x="0px" y="0px"
	 width="380.581px" height="380.58px" viewBox="0 0 380.581 380.58" style="enable-background:new 0 0 380.581 380.58;"
	 xml:space="preserve">
<g>
	<path d="M273.174,65.287C261.778,27.406,228.754,0,189.741,0c-39.784,0-73.333,28.516-84.069,67.546h-6.626v52.926h6.615
		c9.96,34.827,39.673,58.041,75.773,61.147v9.389c-20.686,0.765-39.702,3.556-42.534,7.304c0,3.725,0,79.417,0,92.775h-8.933v18.694
		h45.774v52.898h-68.755v17.9h15.052h138.175h9.505v-17.9h-64.878v-52.898h41.897v-18.694h-8.944c0-13.172,0-86.854,0-92.775
		c-4.483-4.776-20.633-7.006-38.628-7.426v-9.4c36.362-3.562,66.022-27.581,75.235-63.29h7.135V65.287H273.174z M189.741,167.485
		c-33.227,0-60.167-20.312-60.167-50.037c0-29.73,26.939-53.861,60.167-53.861c33.221,0,60.161,24.131,60.161,53.861
		C249.902,147.172,222.962,167.485,189.741,167.485z"/>
</g>
<g>
</g>
<g>
</g>
<g>
</g>
<g>
</g>
<g>
</g>
<g>
</g>
<g>
</g>
<g>
</g>
<g>
</g>
<g>
</g>
<g>
</g>
<g>
</g>
<g>
</g>
<g>
</g>
<g>
</g>
</svg>
