<?xml version="1.0" encoding="iso-8859-1"?>
<!-- Generator: Adobe Illustrator 16.0.0, SVG Export Plug-In . SVG Version: 6.00 Build 0)  -->
<!DOCTYPE svg PUBLIC "-//W3C//DTD SVG 1.1//EN" "http://www.w3.org/Graphics/SVG/1.1/DTD/svg11.dtd">
<svg version="1.1" id="Capa_1" xmlns="http://www.w3.org/2000/svg" xmlns:xlink="http://www.w3.org/1999/xlink" x="0px" y="0px"
	 width="345.782px" height="345.782px" viewBox="0 0 345.782 345.782" style="enable-background:new 0 0 345.782 345.782;"
	 xml:space="preserve">
<g>
	<g>
		<path d="M318.504,107.914H27.202C10.13,129.668,0,162.954,0,200.303c0,49.277,17.626,91.525,45.593,109.438h17.539v7.953h219.278
			v-7.953h17.527c28.142-17.795,45.844-60.008,45.844-109.438C345.782,162.895,335.624,129.633,318.504,107.914z M45.033,212.773
			c0.333,2.477,0.525,4.928,0.812,7.404c0.455,2.498,0.858,5.021,1.244,7.52c0.525,2.476,1.051,4.904,1.565,7.311
			c0.636,2.381,1.243,4.74,1.845,7.029c0.707,2.288,1.384,4.53,2.043,6.726c1.471,4.32,2.896,8.454,4.373,12.237
			c1.606,3.748,3.077,7.193,4.367,10.241c1.448,3.036,2.715,5.687,3.754,7.858c2.178,4.344,3.562,6.866,3.562,6.866
			s-2.411-1.564-6.084-4.951c-1.815-1.704-4.005-3.818-6.3-6.445c-2.324-2.616-4.834-5.675-7.298-9.214
			c-1.203-1.81-2.464-3.678-3.754-5.616c-1.167-2.032-2.365-4.134-3.608-6.282c-1.104-2.242-2.225-4.555-3.375-6.913
			c-0.981-2.429-1.997-4.928-3.013-7.474c-0.835-2.627-1.688-5.277-2.546-7.963c-0.694-2.744-1.337-5.559-1.973-8.385
			c-0.491-2.908-0.969-5.92-1.337-8.934c-0.292-2.895-0.397-5.569-0.59-8.359c-0.082-6.33,0.134-12.017,1.08-17.89
			c0.835-5.786,2.236-11.408,4.041-16.646c3.562-10.509,8.682-19.536,13.954-26.437c2.557-3.515,5.249-6.469,7.689-8.968
			c2.423-2.522,4.758-4.507,6.696-6.095c3.883-3.17,6.429-4.496,6.429-4.496s-1.6,2.353-4.063,6.551s-5.693,10.247-8.922,17.615
			c-3.129,7.409-6.229,16.149-8.273,25.661c-1.04,4.747-1.816,9.698-2.283,14.719c-0.502,4.951-0.596,10.37-0.491,15.11
			C44.758,207.285,44.805,210.182,45.033,212.773z"/>
		<path d="M313.577,58.747c0,0-32.322-30.658-137.218-30.658c-104.913,0-147.686,30.658-147.686,30.658v40.344h284.903V58.747
			L313.577,58.747z"/>
	</g>
</g>
<g>
</g>
<g>
</g>
<g>
</g>
<g>
</g>
<g>
</g>
<g>
</g>
<g>
</g>
<g>
</g>
<g>
</g>
<g>
</g>
<g>
</g>
<g>
</g>
<g>
</g>
<g>
</g>
<g>
</g>
</svg>
