<?xml version="1.0" encoding="iso-8859-1"?>
<!-- Generator: Adobe Illustrator 16.0.0, SVG Export Plug-In . SVG Version: 6.00 Build 0)  -->
<!DOCTYPE svg PUBLIC "-//W3C//DTD SVG 1.1//EN" "http://www.w3.org/Graphics/SVG/1.1/DTD/svg11.dtd">
<svg version="1.1" id="Capa_1" xmlns="http://www.w3.org/2000/svg" xmlns:xlink="http://www.w3.org/1999/xlink" x="0px" y="0px"
	 width="570.198px" height="570.198px" viewBox="0 0 570.198 570.198" style="enable-background:new 0 0 570.198 570.198;"
	 xml:space="preserve">
<g>
	<g>
		<path d="M432.872,399.175c-19.93,60.198-76.574,103.683-143.451,103.683c-66.896,0-123.549-43.502-143.478-103.683H0v167.042
			h570.198V399.175H432.872z"/>
		<path d="M85.672,187.534c0-33.43,14.099-63.323,41.93-88.896c21.724-19.947,48.055-33.439,69.083-41.064
			c15.527-5.652,8.527,9.25,14.25,9.724v64.788H373.62V61.539c0,0-17.251-59.046-139.13-57.529
			c-68.601,2.964-90.976,17.447-138.067,60.689C59.252,98.861,39.59,141.318,39.59,187.534v185.033h46.082V187.534z"/>
		<path d="M245.437,205.525c10.697,0,19.367-8.902,19.367-19.911s-19.367-36.957-19.367-36.957s-19.384,25.965-19.384,36.957
			C226.052,196.605,234.74,205.525,245.437,205.525z"/>
		<path d="M295.045,205.525c10.715,0,19.394-8.902,19.394-19.911s-19.394-36.957-19.394-36.957s-19.375,25.965-19.375,36.957
			C275.67,196.605,284.348,205.525,295.045,205.525z"/>
		<path d="M348.297,205.525c10.697,0,19.357-8.902,19.357-19.911s-19.357-36.957-19.357-36.957s-19.394,25.965-19.394,36.957
			C328.904,196.605,337.583,205.525,348.297,205.525z"/>
	</g>
</g>
<g>
</g>
<g>
</g>
<g>
</g>
<g>
</g>
<g>
</g>
<g>
</g>
<g>
</g>
<g>
</g>
<g>
</g>
<g>
</g>
<g>
</g>
<g>
</g>
<g>
</g>
<g>
</g>
<g>
</g>
</svg>
