<?xml version="1.0" encoding="iso-8859-1"?>
<!-- Generator: Adobe Illustrator 16.0.0, SVG Export Plug-In . SVG Version: 6.00 Build 0)  -->
<!DOCTYPE svg PUBLIC "-//W3C//DTD SVG 1.1//EN" "http://www.w3.org/Graphics/SVG/1.1/DTD/svg11.dtd">
<svg version="1.1" id="Capa_1" xmlns="http://www.w3.org/2000/svg" xmlns:xlink="http://www.w3.org/1999/xlink" x="0px" y="0px"
	 width="382.635px" height="382.635px" viewBox="0 0 382.635 382.635" style="enable-background:new 0 0 382.635 382.635;"
	 xml:space="preserve">
<g>
	<g>
		<ellipse cx="193.145" cy="74.517" rx="1.355" ry="1.349"/>
		<path d="M218.222,81.956c-0.315,0.169-0.666,0.368-0.946,0.613c-1.167,0.975-1.821,2.446-1.845,4.146
			c-0.035,1.769,0.631,3.561,1.868,5.044c2.172,2.622,5.605,3.59,8.128,2.312c0.326-0.169,0.63-0.374,0.922-0.613
			c1.18-0.981,1.834-2.464,1.856-4.163c0.023-1.769-0.653-3.562-1.868-5.056C224.165,81.635,220.755,80.666,218.222,81.956z"/>
		<path d="M148.089,93.732c1.974,2.043,5.512,2.248,8.419,0.502c1.664-0.993,2.896-2.464,3.457-4.146
			c0.537-1.617,0.409-3.229-0.385-4.548c-0.175-0.298-0.415-0.607-0.666-0.87c-1.973-2.043-5.511-2.248-8.431-0.514
			c-1.664,0.993-2.884,2.476-3.456,4.175c-0.525,1.6-0.397,3.217,0.385,4.519C147.599,93.16,147.826,93.458,148.089,93.732z"/>
		<path d="M191.96,0.117L191.317,0L7.018,33.11v316.433l183.652,32.987l0.648,0.104l184.3-33.115V33.11L191.96,0.117z
			 M368.343,343.447l-177.025,31.809L14.287,343.447V39.183L191.317,7.38l177.025,31.803V343.447z"/>
		<path d="M313.074,161.868c-1.004-1.104-2.545-1.664-4.601-1.664c-1.354,0-2.476,0.239-3.363,0.683
			c-0.887,0.467-1.6,1.027-2.137,1.699c-0.525,0.695-0.91,1.384-1.121,2.149c-0.222,0.753-0.35,1.424-0.385,2.02H315.2
			C314.779,164.606,314.079,162.977,313.074,161.868z"/>
		<path d="M115.066,179.792c0.479,0.286,1.028,0.502,1.658,0.619c0.636,0.134,1.296,0.193,1.973,0.193
			c1.664,0,2.955-0.274,3.865-0.835c0.905-0.555,1.588-1.22,2.021-1.985c0.432-0.765,0.706-1.559,0.8-2.347
			c0.099-0.776,0.146-1.424,0.146-1.886v-3.159c-0.362,0.31-0.8,0.561-1.343,0.742c-0.525,0.192-1.109,0.321-1.722,0.444
			c-0.607,0.117-1.267,0.228-1.956,0.297c-0.695,0.07-1.354,0.181-1.997,0.286c-0.672,0.134-1.308,0.274-1.903,0.479
			c-0.584,0.204-1.115,0.467-1.565,0.788c-0.467,0.339-0.829,0.776-1.104,1.302c-0.274,0.543-0.415,1.197-0.415,1.938
			c0,0.789,0.14,1.437,0.415,1.927C114.202,179.109,114.587,179.506,115.066,179.792z"/>
		<path d="M31.855,51.846v278.032l159.462,29.076l159.463-29.076V51.846L191.317,22.765L31.855,51.846z M144.586,87.491
			c0.765-2.248,2.394-4.233,4.571-5.547c3.93-2.353,8.822-1.961,11.607,0.935c0.146,0.14,0.251,0.286,0.385,0.438l0.059,0.169
			l22.122-10.644l4.28,3.818l-24.954,10.27l0.128,0.344c0.135,1.174,0.035,2.394-0.379,3.638c-0.648,1.915-1.915,3.625-3.602,4.893
			c-1.04,1.004-2.476,1.542-3.859,1.851c-3.229,0.823-6.592,0.093-8.717-2.143c-0.397-0.415-0.742-0.847-1.04-1.349
			C144.025,92.202,143.809,89.826,144.586,87.491z M213.375,175.045c-0.444-0.467-1.063-0.864-1.869-1.22
			c-0.817-0.362-1.821-0.695-3.013-0.981c-1.179-0.297-2.522-0.613-4.04-0.922c-1.226-0.274-2.429-0.607-3.597-0.981
			c-1.167-0.379-2.219-0.87-3.118-1.483c-0.911-0.619-1.641-1.396-2.201-2.318c-0.56-0.934-0.84-2.067-0.84-3.421
			c0-1.933,0.396-3.562,1.162-4.84c0.765-1.278,1.792-2.283,3.059-3.024c1.262-0.741,2.686-1.243,4.286-1.559
			c1.588-0.286,3.211-0.426,4.87-0.426c1.67,0,3.27,0.152,4.857,0.467c1.542,0.321,2.954,0.834,4.181,1.6
			c1.214,0.765,2.242,1.757,3.06,3.013c0.817,1.244,1.308,2.82,1.471,4.735h-8.034c-0.117-1.641-0.736-2.738-1.833-3.311
			c-1.109-0.56-2.429-0.852-3.935-0.852c-0.479,0-0.993,0.035-1.542,0.099c-0.549,0.059-1.051,0.181-1.506,0.379
			c-0.467,0.193-0.829,0.479-1.156,0.864c-0.315,0.356-0.49,0.87-0.49,1.506c0,0.753,0.28,1.36,0.841,1.839
			c0.561,0.479,1.284,0.864,2.172,1.162c0.887,0.298,1.915,0.572,3.06,0.8c1.144,0.239,2.312,0.502,3.515,0.765
			c1.226,0.274,2.417,0.625,3.585,1.016c1.167,0.397,2.218,0.922,3.129,1.565c0.899,0.66,1.635,1.471,2.195,2.452
			c0.549,0.958,0.817,2.166,0.817,3.591c0,2.02-0.42,3.73-1.214,5.079c-0.817,1.366-1.88,2.476-3.177,3.287
			c-1.308,0.841-2.802,1.437-4.483,1.798c-1.693,0.345-3.41,0.525-5.138,0.525c-1.798,0-3.539-0.181-5.243-0.525
			c-1.693-0.362-3.234-0.969-4.542-1.821c-1.319-0.847-2.417-1.962-3.27-3.346c-0.847-1.39-1.313-3.1-1.396-5.121h8.028
			c0,0.911,0.187,1.699,0.561,2.347c0.374,0.654,0.864,1.191,1.471,1.612c0.583,0.409,1.273,0.729,2.032,0.911
			c0.782,0.216,1.588,0.298,2.405,0.298c0.607,0,1.227-0.07,1.88-0.216c0.666-0.14,1.25-0.344,1.787-0.654
			c0.537-0.304,0.98-0.707,1.331-1.197c0.362-0.491,0.537-1.127,0.537-1.869C214.029,176.05,213.808,175.495,213.375,175.045z
			 M194.832,208.343c0.502,0.14,0.835,0.339,1.028,0.607c0.193,0.257,0.286,0.514,0.286,0.794c0,0.187-0.023,0.374-0.082,0.584
			c-0.059,0.21-0.135,0.397-0.24,0.561c-0.111,0.187-0.251,0.327-0.432,0.443c-0.192,0.117-0.379,0.164-0.607,0.164
			c-0.011,0-0.046,0-0.099,0c-0.035,0-0.094,0-0.141,0c-0.648-0.047-1.354-0.117-2.107-0.175c-0.753-0.058-1.53-0.117-2.341-0.187
			c-0.812-0.059-1.664-0.105-2.534-0.128c-0.876-0.023-1.758-0.047-2.657-0.047c-0.263,0-0.584,0.023-0.958,0.047
			c-0.368,0.023-0.73,0.046-1.074,0.093c-0.397,0.023-0.8,0.07-1.232,0.105c0,0.094,0,0.199-0.023,0.292
			c-0.012,0.117-0.035,0.292-0.07,0.537c-0.041,0.257-0.088,0.584-0.17,0.981c-0.082,0.396-0.146,0.888-0.204,1.447
			c-0.059,0.584-0.157,1.285-0.263,2.149c-0.117,0.864-0.228,1.938-0.321,3.246h8.104c0.24,0,0.42,0.047,0.555,0.14
			c0.117,0.07,0.199,0.188,0.251,0.305c0.175-0.105,0.274-0.258,0.461-0.352c0.876-0.396,1.845-0.595,2.931-0.595
			c0.935,0,1.805,0.151,2.622,0.433c0.812,0.291,1.564,0.677,2.282,1.167c0.725,0.49,1.378,1.098,1.985,1.821
			c0.233,0.258,0.432,0.525,0.643,0.771c0.023-0.07,0.023-0.141,0.058-0.234c0.164-0.747,0.315-1.377,0.444-1.868
			c0.14-0.514,0.257-0.911,0.385-1.237c0.07-0.211,0.152-0.397,0.245-0.514c0.07-0.141,0.164-0.234,0.257-0.305
			c0.104-0.069,0.233-0.116,0.385-0.14c0.141-0.022,0.339-0.046,0.561-0.046c0.245,0,0.456,0.023,0.584,0.046
			c0.128,0.023,0.245,0.082,0.315,0.163c0.07,0.117,0.117,0.246,0.128,0.421c0.012,0.163,0.023,0.409,0.023,0.7
			c0,0.374-0.023,0.889-0.07,1.565c-0.047,0.665-0.059,1.237-0.035,1.739h0.163c0.187-0.385,0.444-0.898,0.724-1.541
			c0.292-0.631,0.607-1.168,0.934-1.576c0.315-0.42,0.689-0.771,1.098-1.062c0.42-0.292,0.888-0.443,1.425-0.443
			c0.187,0,0.362,0.034,0.537,0.104c0.187,0.069,0.351,0.163,0.467,0.269c0.141,0.117,0.245,0.245,0.327,0.432
			c0.07,0.176,0.117,0.351,0.117,0.584c0,0.164-0.023,0.397-0.082,0.689c-0.047,0.303-0.128,0.688-0.233,1.18
			c-0.105,0.467-0.199,0.863-0.245,1.19c-0.047,0.304-0.082,0.561-0.082,0.747c0,0.362,0.035,0.654,0.105,0.888
			s0.164,0.421,0.269,0.561s0.246,0.257,0.385,0.304c0.141,0.059,0.28,0.082,0.444,0.082c0.444,0,0.887-0.094,1.354-0.27
			c0.467-0.209,0.899-0.42,1.296-0.677c0.467-0.28,0.899-0.606,1.343-0.97l-0.222,3.434c-0.245,0.176-0.537,0.351-0.853,0.561
			c-0.327,0.199-0.677,0.396-1.027,0.596c-0.374,0.176-0.759,0.304-1.156,0.443c-0.397,0.117-0.806,0.188-1.203,0.188
			c-0.747,0-1.331-0.164-1.774-0.455c-0.456-0.293-0.817-0.689-1.074-1.156c-0.257-0.49-0.467-1.051-0.584-1.646
			c-0.117-0.607-0.233-1.215-0.304-1.834h-0.233l-2.639,7.322c-0.14,0.385-0.257,0.712-0.397,0.957
			c-0.117,0.245-0.245,0.443-0.362,0.596c-0.128,0.163-0.269,0.269-0.42,0.338c-0.152,0.059-0.292,0.094-0.479,0.094
			c-0.397,0-0.724-0.094-0.969-0.245c-0.245-0.187-0.432-0.409-0.561-0.7c-0.128-0.281-0.222-0.619-0.269-0.98
			c-0.023-0.352-0.047-0.748-0.047-1.145c0-0.433,0.023-0.923,0.07-1.507c0.047-0.572,0.117-1.18,0.198-1.81
			c0.082-0.537,0.164-1.133,0.245-1.693c-0.396-0.386-0.84-0.807-1.284-1.25c-0.508-0.49-1.01-0.91-1.5-1.261
			c-0.485-0.351-0.905-0.631-1.255-0.876l-0.117,0.176c0.286,0.561,0.502,1.167,0.648,1.786c0.141,0.618,0.21,1.343,0.21,2.137
			c0,0.584-0.059,1.168-0.187,1.751c-0.134,0.584-0.315,1.145-0.555,1.705c-0.251,0.537-0.525,1.051-0.882,1.542
			c-0.361,0.467-0.753,0.888-1.185,1.237c-0.456,0.351-0.935,0.631-1.472,0.842c-0.525,0.197-1.086,0.291-1.688,0.291
			c-0.858,0-1.588-0.198-2.207-0.561c-0.613-0.385-1.115-0.875-1.506-1.482c-0.397-0.607-0.672-1.285-0.853-2.056
			c-0.181-0.747-0.274-1.529-0.274-2.312c0-1.285,0.169-2.406,0.49-3.34c0.192-0.561,0.537-0.98,0.823-1.448
			c-0.204,0-0.345,0.012-0.572,0.012c-0.549,0.035-1.15,0.047-1.804,0.07c-0.66,0.012-1.291,0.046-1.903,0.058
			c-0.607,0.023-1.162,0.047-1.646,0.059c-0.491,0.012-0.841,0.023-1.057,0.023c-0.228,1.18-0.426,2.301-0.642,3.41
			c-0.204,1.098-0.479,2.125-0.806,3.082c-0.345,0.946-0.742,1.822-1.203,2.604c-0.467,0.771-1.004,1.448-1.641,2.009
			c-0.63,0.561-1.36,1.004-2.213,1.296c-0.823,0.315-1.78,0.468-2.854,0.468c-0.216,0-0.491-0.012-0.806-0.047
			c-0.31-0.035-0.643-0.082-0.976-0.152c-0.35-0.07-0.694-0.176-1.021-0.269c-0.333-0.116-0.631-0.245-0.894-0.409
			c-0.263-0.175-0.49-0.373-0.648-0.584c-0.164-0.232-0.251-0.467-0.251-0.746c0-0.164,0.023-0.34,0.099-0.584
			c0.059-0.246,0.164-0.468,0.286-0.701c0.129-0.233,0.298-0.432,0.502-0.596c0.205-0.175,0.444-0.257,0.73-0.257
			c0.321,0,0.666,0.059,1.028,0.175c0.344,0.105,0.729,0.223,1.098,0.352c0.385,0.139,0.765,0.244,1.173,0.361
			c0.397,0.094,0.8,0.152,1.208,0.152c0.321,0,0.643-0.129,0.958-0.375c0.297-0.256,0.595-0.63,0.87-1.074
			c0.263-0.467,0.525-0.98,0.777-1.6c0.251-0.618,0.479-1.272,0.694-1.984c0.216-0.713,0.42-1.46,0.584-2.219
			c0.181-0.783,0.362-1.553,0.531-2.324h-1.833c-0.164,0-0.38-0.023-0.619-0.059c-0.251-0.035-0.49-0.093-0.718-0.197
			c-0.228-0.094-0.42-0.211-0.572-0.352c-0.17-0.14-0.251-0.326-0.251-0.549c0-0.175,0.047-0.303,0.14-0.443
			c0.082-0.152,0.239-0.245,0.444-0.291c0.549-0.117,1.028-0.223,1.448-0.293c0.403-0.082,0.776-0.151,1.098-0.222
			c0.321-0.058,0.613-0.116,0.847-0.163c0.257-0.035,0.479-0.082,0.683-0.105c0.24-1.156,0.432-2.137,0.561-2.896
			c0.134-0.781,0.251-1.482,0.362-2.102c0.094-0.643,0.193-1.237,0.274-1.774c0.094-0.561,0.193-1.145,0.31-1.763
			c-0.858,0.233-1.6,0.537-2.236,0.864c-0.63,0.339-1.156,0.725-1.564,1.098c-0.42,0.396-0.729,0.794-0.923,1.227
			c-0.187,0.432-0.286,0.828-0.286,1.249c0,0,0,0.07-0.012,0.198c-0.012,0.117-0.058,0.246-0.169,0.386
			c-0.105,0.128-0.251,0.245-0.473,0.351c-0.216,0.116-0.543,0.175-0.958,0.175c-0.566,0-0.992-0.035-1.319-0.104
			c-0.31-0.047-0.537-0.141-0.689-0.246c-0.146-0.117-0.239-0.245-0.274-0.385c-0.041-0.129-0.052-0.258-0.052-0.397
			c0-1.472,0.362-2.744,1.104-3.771c0.729-1.051,1.757-1.892,3.071-2.569c1.314-0.666,2.919-1.156,4.758-1.472
			c1.857-0.315,3.889-0.467,6.125-0.467c1.483,0,3.036,0.07,4.677,0.222C191.388,208.062,193.086,208.203,194.832,208.343z
			 M163.97,160.385c0.397-0.958,0.934-1.833,1.6-2.645c0.671-0.812,1.448-1.506,2.324-2.09c0.87-0.578,1.804-1.004,2.82-1.325
			c1.004-0.315,2.032-0.467,3.06-0.467c0.637,0,1.244,0.093,1.845,0.286v7.841c-0.396-0.082-0.875-0.152-1.424-0.216
			c-0.561-0.058-1.086-0.093-1.6-0.093c-1.547,0-2.861,0.263-3.923,0.776c-1.074,0.502-1.938,1.22-2.581,2.108
			c-0.648,0.881-1.127,1.933-1.401,3.153c-0.274,1.208-0.42,2.487-0.42,3.83v13.843h-8.442v-30.717h8.027v5.704h0.117V160.385z
			 M140.738,142.975h8.442v6.948h-8.442V142.975z M140.738,154.692h8.442v30.717h-8.442V154.692z M105.964,172.71
			c0.589-1.121,1.39-2.02,2.382-2.703c0.993-0.677,2.102-1.179,3.357-1.518c1.243-0.333,2.51-0.607,3.83-0.8
			c1.302-0.204,2.557-0.356,3.742-0.467c1.191-0.128,2.248-0.297,3.176-0.537c0.934-0.251,1.676-0.583,2.225-1.039
			c0.554-0.456,0.84-1.127,0.84-1.985c0-0.922-0.146-1.652-0.443-2.178c-0.298-0.537-0.695-0.958-1.197-1.244
			c-0.502-0.297-1.074-0.502-1.722-0.595c-0.654-0.111-1.36-0.158-2.114-0.158c-1.629,0-2.919,0.362-3.888,1.062
			c-0.969,0.718-1.542,1.915-1.699,3.579h-8.431c0.123-1.985,0.613-3.625,1.483-4.939c0.876-1.29,1.985-2.341,3.328-3.147
			c1.337-0.8,2.855-1.36,4.519-1.693c1.664-0.338,3.357-0.502,5.103-0.502c1.547,0,3.112,0.105,4.7,0.321
			c1.582,0.216,3.024,0.63,4.344,1.267c1.302,0.63,2.364,1.518,3.205,2.68c0.835,1.145,1.244,2.639,1.244,4.443v16.003
			c0,1.372,0.082,2.727,0.234,3.982c0.157,1.267,0.432,2.224,0.829,2.843h-8.536c-0.158-0.467-0.292-0.958-0.386-1.448
			c-0.093-0.502-0.169-1.004-0.204-1.518c-1.349,1.39-2.931,2.359-4.759,2.943c-1.815,0.561-3.684,0.853-5.581,0.853
			c-1.472,0-2.838-0.193-4.104-0.566c-1.268-0.379-2.376-0.94-3.334-1.699c-0.958-0.753-1.699-1.705-2.225-2.843
			c-0.537-1.115-0.812-2.487-0.812-4.063C105.07,175.285,105.368,173.849,105.964,172.71z M72.556,167.105v18.304h-9.324v-42.435
			h9.324v16.284h17.183v-16.284h9.342v42.435h-9.354v-18.304H72.556z M268.421,249.423c-0.047,0.187-0.093,0.374-0.14,0.572
			c-0.21,0.677-0.444,1.437-0.677,2.242c-0.258,0.829-0.503,1.646-0.771,2.44c-0.245,0.806-0.514,1.588-0.747,2.312
			c-0.257,0.724-0.479,1.354-0.677,1.867c-0.234,0.678-0.561,1.191-1.028,1.519c-0.443,0.327-0.888,0.49-1.343,0.49
			s-0.853-0.175-1.203-0.514c-0.338-0.351-0.514-0.864-0.514-1.564c0-0.257,0.023-0.596,0.023-0.981
			c0.023-0.42,0.047-0.852,0.07-1.354c0.023-0.479,0.07-1.005,0.117-1.542c0.035-0.561,0.081-1.098,0.116-1.611
			c0.117-1.249,0.21-2.581,0.351-3.993c0-0.421,0.105-0.807,0.327-1.145c0.21-0.327,0.49-0.619,0.817-0.842
			c0.338-0.232,0.724-0.42,1.168-0.537c0.42-0.151,0.84-0.209,1.272-0.209c0.362,0,0.735,0.047,1.074,0.14s0.642,0.233,0.911,0.409
			c0.268,0.197,0.49,0.432,0.642,0.734c0.163,0.293,0.233,0.654,0.233,1.052C268.444,249.072,268.444,249.26,268.421,249.423z
			 M294.157,163.672c0.748-1.985,1.811-3.708,3.212-5.155c1.39-1.448,3.036-2.592,4.962-3.416c1.916-0.829,4.053-1.244,6.399-1.244
			c2.616,0,4.882,0.502,6.819,1.506c1.95,1.016,3.55,2.365,4.8,4.063c1.249,1.723,2.137,3.661,2.697,5.833
			c0.561,2.178,0.759,4.46,0.584,6.831h-22.163c0.116,2.703,0.817,4.677,2.078,5.92c1.262,1.244,3.083,1.862,5.477,1.862
			c1.693,0,3.164-0.42,4.402-1.279c1.238-0.846,1.985-1.746,2.266-2.703h7.427c-1.191,3.649-3.013,6.276-5.465,7.905
			c-2.452,1.624-5.419,2.429-8.922,2.429c-2.405,0-4.577-0.386-6.539-1.186c-1.938-0.788-3.573-1.903-4.928-3.322
			c-1.343-1.437-2.405-3.136-3.13-5.132c-0.735-1.962-1.098-4.163-1.098-6.527C293.013,167.776,293.398,165.646,294.157,163.672z
			 M279.397,142.975h8.455v42.435h-8.455V142.975z M278.276,273.244c0.281-0.373,0.631-0.829,1.028-1.378
			c0.396-0.514,0.888-1.167,1.448-1.927c0.56-0.771,1.307-1.74,2.218-2.873c0.187-0.268,0.397-0.514,0.619-0.758
			c0.222-0.234,0.479-0.444,0.759-0.654c0.269-0.199,0.572-0.351,0.911-0.479c0.339-0.117,0.712-0.176,1.121-0.176
			c0.688,0,1.214,0.07,1.588,0.234c0.374,0.14,0.631,0.326,0.794,0.537c0.176,0.232,0.269,0.443,0.304,0.688
			c0.023,0.245,0.047,0.432,0.047,0.618c0,0.352-0.141,0.725-0.397,1.145c-0.269,0.409-0.561,0.818-0.91,1.215
			c-0.327,0.396-0.631,0.735-0.935,1.062c-0.292,0.315-0.443,0.561-0.49,0.736c0,0.432,0.023,0.828,0.081,1.202
			c0.07,0.362,0.152,0.735,0.27,1.086c0.093,0.351,0.21,0.724,0.326,1.121c0.117,0.397,0.234,0.853,0.327,1.354
			c0.105,0.537,0.117,1.238,0.047,2.148c-0.094,0.899-0.116,1.799-0.116,2.744c0.49-0.35,1.051-0.666,1.646-0.945
			c0.583-0.281,1.202-0.561,1.833-0.876c0.642-0.292,1.296-0.631,1.962-0.993c0.688-0.373,1.377-0.793,2.055-1.308v4.8
			c-0.876,0.665-1.892,1.272-3.036,1.856c-1.167,0.572-2.382,1.086-3.667,1.519c-1.284,0.432-2.557,0.77-3.854,1.039
			c-1.308,0.244-2.521,0.373-3.701,0.373c-0.829,0-1.623-0.082-2.347-0.222c-0.713-0.163-1.354-0.397-1.915-0.712
			c-0.537-0.316-0.981-0.76-1.32-1.25c-0.338-0.514-0.549-1.145-0.618-1.868c-0.21,0.047-0.397,0.069-0.584,0.081
			c-0.198,0.023-0.374,0.023-0.561,0.023c-0.233,0-0.444,0-0.643-0.023c-0.198-0.012-0.373-0.081-0.514-0.151
			c-0.151-0.116-0.245-0.257-0.339-0.467c-0.081-0.198-0.128-0.514-0.128-0.876c0-0.35,0.081-0.689,0.245-0.957
			c0.175-0.305,0.373-0.561,0.607-0.795c0.222-0.221,0.443-0.408,0.677-0.596c0.233-0.174,0.397-0.303,0.503-0.408
			c0.781-0.701,1.447-1.25,1.938-1.729s0.993-0.992,1.495-1.6C277.588,274.143,277.974,273.641,278.276,273.244z M253.802,154.692
			l6.936,21.03h0.117l6.727-21.03h8.734l-12.834,34.593c-0.91,2.452-2.184,4.227-3.795,5.325c-1.623,1.086-3.877,1.635-6.772,1.635
			c-0.876,0-1.739-0.035-2.593-0.093c-0.84-0.07-1.716-0.14-2.58-0.222v-6.954c0.794,0.093,1.623,0.163,2.44,0.251
			c0.817,0.082,1.658,0.093,2.487,0.058c0.712-0.082,1.319-0.298,1.81-0.695c0.515-0.368,0.864-0.823,1.109-1.384
			c0.245-0.566,0.362-1.162,0.362-1.786c0-0.678-0.117-1.302-0.362-1.898l-10.824-28.819h9.038V154.692z M246.095,265.771
			c0.304,0.467,0.455,1.098,0.455,1.879c0,0.223-0.035,0.502-0.059,0.854c-0.046,0.373-0.093,0.77-0.163,1.19
			c-0.07,0.444-0.14,0.888-0.21,1.354c-0.07,0.455-0.141,0.98-0.21,1.576c-0.07,0.596-0.117,1.016-0.164,1.32
			c-0.035,0.279-0.058,0.479-0.058,0.584h0.432c0.082-0.164,0.233-0.421,0.396-0.748c0.199-0.35,0.397-0.853,0.654-1.518
			c0.233-0.654,0.502-1.227,0.771-1.729c0.28-0.514,0.537-0.992,0.771-1.448c0.234-0.467,0.468-0.864,0.654-1.237
			c0.21-0.351,0.351-0.607,0.467-0.771c0.444-0.77,0.958-1.284,1.542-1.588c0.583-0.279,1.237-0.42,1.938-0.42
			c0.712,0,1.272,0.304,1.682,0.898c0.42,0.596,0.642,1.414,0.642,2.465c0,0.163-0.035,0.42-0.093,0.793
			c-0.082,0.352-0.152,0.795-0.246,1.309c-0.104,0.502-0.222,1.168-0.35,1.973c-0.117,0.807-0.223,1.542-0.315,2.184
			c-0.094,0.631-0.198,1.262-0.245,1.893c-0.07,0.631-0.094,1.191-0.094,1.729c0,0.887,0.094,1.611,0.315,2.172
			c0.222,0.572,0.572,0.84,1.039,0.84c0.163,0,0.409-0.047,0.724-0.187c0.468-0.175,0.771-0.304,0.911-0.443
			c0.607-0.491,0.946-0.724,0.981-0.712c0.023,0.023,0.514-0.27,1.412-0.842c1.133-0.724,2.487-1.611,4.076-2.662l-0.035,4.753
			l-1.062,0.806c-0.082,0.082-0.748,0.443-1.997,1.109c-1.81,0.969-2.931,1.564-3.375,1.752c-1.109,0.49-1.798,0.77-2.078,0.84
			c-0.701,0.234-1.46,0.339-2.242,0.339c-0.771,0-1.425-0.571-1.962-1.692c-0.537-1.145-0.794-2.779-0.794-4.951
			c0-0.854,0.059-1.775,0.163-2.756c0.117-0.981,0.258-2.056,0.444-3.188h-0.351l-5.582,11.069
			c-0.291,0.619-0.607,1.005-0.957,1.203c-0.351,0.223-0.759,0.315-1.227,0.315c-0.584,0-1.051-0.128-1.412-0.362
			c-0.351-0.256-0.631-0.596-0.818-1.004c-0.198-0.42-0.314-0.91-0.373-1.424c-0.023-0.211-0.012-0.409-0.047-0.607
			c-0.561,0.385-1.168,0.793-1.821,1.19c-0.701,0.421-1.448,0.794-2.219,1.133c-0.771,0.315-1.565,0.584-2.405,0.782
			c-0.83,0.199-1.658,0.292-2.522,0.292c-1.319,0-2.499-0.245-3.479-0.735c-1.005-0.49-1.822-1.168-2.499-1.985
			c-0.141-0.187-0.188-0.433-0.315-0.63c-0.199,0.186-0.409,0.326-0.607,0.514c-0.619,0.49-1.272,0.957-1.962,1.4
			c-0.688,0.409-1.448,0.76-2.277,1.027c-0.817,0.258-1.74,0.397-2.779,0.397c-0.514,0-0.946-0.163-1.297-0.49
			c-0.338-0.327-0.63-0.771-0.829-1.378c-0.222-0.572-0.374-1.25-0.467-2.055c-0.093-0.795-0.14-1.658-0.14-2.593
			c0-0.888,0.047-1.845,0.093-2.872c0.07-1.005,0.152-2.032,0.269-3.061h-0.315l-4.321,10.941c-0.362,0.596-0.771,0.993-1.237,1.203
			c-0.444,0.211-0.981,0.304-1.577,0.304c-0.456,0-0.806-0.116-1.086-0.351c-0.28-0.244-0.479-0.561-0.63-0.934
			c-0.141-0.385-0.257-0.794-0.304-1.25c-0.047-0.455-0.07-0.875-0.07-1.318c0-0.188,0.012-0.444,0.035-0.783
			c0.023-0.338,0.07-0.735,0.128-1.18c0.07-0.443,0.117-0.91,0.187-1.4c0.07-0.49,0.151-0.981,0.222-1.472
			c0.152-1.145,0.339-2.358,0.572-3.667h-0.327c-0.163,0.211-0.362,0.537-0.584,0.946c-0.222,0.433-0.514,1.062-0.911,1.892
			c-0.397,0.806-0.911,1.903-1.518,3.234c-0.63,1.309-1.425,2.943-2.405,4.857c-0.292,0.561-0.631,0.935-1.004,1.145
			c-0.374,0.199-0.782,0.292-1.238,0.292c-0.584,0-1.051-0.116-1.407-0.362c-0.362-0.232-0.636-0.561-0.817-0.957
			c-0.198-0.408-0.321-0.876-0.379-1.39c-0.012-0.081-0.012-0.175-0.012-0.269c-0.397,0.257-0.753,0.537-1.174,0.771
			c-0.707,0.421-1.448,0.794-2.225,1.133c-0.765,0.315-1.576,0.584-2.405,0.782c-0.823,0.188-1.67,0.292-2.522,0.292
			c-1.313,0-2.487-0.245-3.479-0.735c-0.993-0.49-1.816-1.168-2.487-1.985c-0.035-0.046-0.035-0.116-0.07-0.163
			c-0.321,0.198-0.642,0.42-0.969,0.584c-0.549,0.279-1.121,0.572-1.723,0.84c-0.596,0.281-1.191,0.537-1.781,0.748
			c-0.607,0.21-1.185,0.373-1.757,0.525c-0.572,0.117-1.098,0.187-1.6,0.187c-0.753,0-1.483-0.315-2.131-0.992
			c-0.654-0.666-1.244-1.554-1.722-2.675c-0.07-0.175-0.094-0.396-0.175-0.572c-0.958,0.549-1.927,1.109-2.715,1.554
			c-1.068,0.596-2.008,1.098-2.849,1.495c-0.823,0.385-1.565,0.688-2.213,0.875c-0.643,0.199-1.244,0.304-1.758,0.304
			c-1.062,0-2.008-0.327-2.832-0.98c-0.812-0.654-1.506-1.589-2.043-2.826c-0.053-0.093-0.064-0.269-0.123-0.386l-0.205,0.152
			c-0.082,0.082-0.753,0.443-1.997,1.121c-1.792,0.957-2.925,1.541-3.38,1.74c-1.104,0.49-1.792,0.758-2.055,0.852
			c-0.718,0.223-1.459,0.327-2.236,0.327c-0.782,0-1.436-0.571-1.973-1.692c-0.525-1.133-0.794-2.779-0.794-4.951
			c0-0.854,0.052-1.775,0.169-2.744c0.111-1.005,0.251-2.067,0.432-3.2h-0.35l-5.57,11.07c-0.298,0.606-0.619,1.004-0.958,1.19
			c-0.356,0.234-0.765,0.327-1.244,0.327c-0.584,0-1.051-0.128-1.407-0.374c-0.35-0.244-0.636-0.584-0.817-1.004
			c-0.198-0.396-0.321-0.887-0.379-1.424c-0.023-0.199-0.023-0.397-0.035-0.607c-0.578,0.396-1.186,0.805-1.833,1.203
			c-0.707,0.432-1.442,0.805-2.213,1.132c-0.776,0.327-1.577,0.584-2.4,0.771c-0.84,0.211-1.675,0.304-2.522,0.304
			c-1.32,0-2.487-0.257-3.48-0.747c-0.992-0.49-1.833-1.098-2.499-1.927c-0.251-0.327-0.385-0.759-0.589-1.133
			c-0.344,0.444-0.753,0.911-1.244,1.401c-1.016,1.004-1.886,1.787-2.592,2.336c-0.134,0.081-0.228,0.163-0.298,0.187
			c-1.366,0.876-2.347,1.541-2.966,1.938c-0.385,0.257-0.648,0.724-0.789,1.389c-0.146,0.666-0.303,1.916-0.467,3.749
			c-0.076,0.537-0.123,0.935-0.158,1.237c-0.082,0.654-0.169,1.285-0.239,1.904c-0.07,0.63-0.228,1.318-0.432,2.113
			c-0.198,0.794-0.449,1.518-0.712,2.172c-0.263,0.678-0.625,1.331-1.057,1.984c-0.426,0.666-0.917,1.227-1.459,1.682
			c-0.537,0.456-1.18,0.818-1.933,1.109c-0.753,0.293-1.57,0.409-2.452,0.409c-0.73,0-1.39-0.082-1.997-0.233
			c-0.613-0.188-1.173-0.42-1.688-0.76c-0.514-0.326-0.945-0.781-1.255-1.389c-0.31-0.596-0.514-1.285-0.584-2.091
			c-0.123-1.483,0.298-3.071,1.232-4.753c0.537-0.934,0.917-1.588,1.121-1.938c0.205-0.374,0.537-0.888,1.004-1.588
			c0.467-0.666,0.934-1.262,1.413-1.799c0.993-1.121,1.816-2.031,2.464-2.709c0.642-0.666,1.407-1.401,2.306-2.184l0.421-2.534
			c-1.594,1.507-3.136,2.266-4.642,2.266c-1.098,0-2.114-0.351-3.047-1.005c-0.935-0.677-1.641-1.494-2.108-2.498
			c-0.847-1.775-0.87-3.854-0.058-6.225c0.718-2.207,1.471-4.04,2.212-5.477c0.753-1.447,1.722-2.686,2.919-3.76
			c1.734-1.541,3.416-2.312,5.044-2.312c0.742,0,1.279,0.211,1.611,0.631c0.041,0.047,0.111,0.129,0.193,0.258
			c0.087,0.116,0.146,0.209,0.181,0.232s0.094,0.082,0.181,0.164c0.082,0.094,0.164,0.141,0.24,0.164
			c0.07,0.022,0.163,0.069,0.274,0.104c0.116,0.046,0.251,0.069,0.379,0.093c0.146,0.012,0.298,0.023,0.502,0.023l0.946-0.023
			c0.637,0,1.074,0.199,1.313,0.584c0.088,0.152,0.181,0.351,0.274,0.619c0.169,0.443,0.193,1.893,0.064,4.379
			c-0.035,0.76-0.228,1.717-0.537,2.85c-0.327,1.145-0.531,2.394-0.625,3.771c-0.093,1.401-0.251,3.211-0.479,5.418
			c0.42-0.233,0.853-0.537,1.313-0.887c1.448-1.074,3.077-3.13,4.846-5.805c0-0.128-0.046-0.244-0.046-0.361
			c0-0.771,0.151-1.717,0.449-2.779c0.292-1.098,0.602-2.055,0.923-2.896c0.321-0.84,0.718-1.635,1.196-2.404
			c0.491-0.748,1.04-1.438,1.688-2.021c0.643-0.584,1.36-1.04,2.16-1.39c0.794-0.327,1.688-0.514,2.657-0.514
			c0.789,0,1.53,0.141,2.213,0.385c0.695,0.246,1.279,0.619,1.781,1.074c0.502,0.456,0.911,1.017,1.185,1.67
			c0.286,0.654,0.432,1.379,0.432,2.207c0,0.853-0.292,1.811-0.864,2.885s-1.243,1.984-2.008,2.744
			c-0.765,0.759-1.687,1.436-2.738,2.031c-1.062,0.596-2.213,1.062-3.457,1.401c0.216,0.374,0.432,0.688,0.637,0.935
			c0.204,0.245,0.414,0.455,0.63,0.584c0.216,0.151,0.444,0.245,0.671,0.291c0.228,0.047,0.49,0.082,0.753,0.082
			c0.847,0,1.746-0.175,2.692-0.49c0.946-0.338,1.863-0.759,2.762-1.25c0.893-0.502,1.746-1.051,2.534-1.635
			c0.345-0.256,0.572-0.479,0.876-0.746c0.082-0.912,0.175-1.811,0.298-2.85c0.163-1.472,0.356-2.791,0.572-3.971
			c0.216-1.191,0.42-2.195,0.625-3.023c0.152-0.666,0.45-1.203,0.905-1.646c0.444-0.444,1.051-0.666,1.822-0.666
			c0.765,0,1.302,0.245,1.6,0.712c0.297,0.468,0.443,1.098,0.443,1.868c0,0.211-0.012,0.514-0.064,0.853
			c-0.035,0.374-0.093,0.759-0.163,1.203c-0.047,0.432-0.134,0.876-0.204,1.343c-0.07,0.455-0.146,0.98-0.205,1.576
			c-0.07,0.584-0.117,1.027-0.164,1.32c-0.041,0.268-0.064,0.479-0.064,0.583h0.433c0.081-0.163,0.228-0.421,0.408-0.759
			c0.175-0.339,0.392-0.841,0.631-1.494c0.239-0.666,0.502-1.238,0.765-1.74c0.286-0.514,0.537-0.992,0.776-1.448
			c0.251-0.467,0.467-0.876,0.66-1.226c0.204-0.362,0.344-0.631,0.455-0.783c0.456-0.759,0.969-1.296,1.553-1.588
			c0.583-0.269,1.232-0.42,1.938-0.42s1.267,0.291,1.687,0.898c0.415,0.596,0.631,1.414,0.631,2.465
			c0,0.163-0.035,0.408-0.094,0.781c-0.076,0.363-0.157,0.807-0.251,1.32c-0.099,0.502-0.216,1.18-0.338,1.973
			c-0.117,0.818-0.222,1.542-0.321,2.172c-0.093,0.654-0.181,1.273-0.239,1.904c-0.07,0.619-0.093,1.203-0.093,1.717
			c0,0.887,0.105,1.623,0.321,2.184c0.216,0.572,0.56,0.852,1.027,0.852c0.169,0,0.42-0.07,0.729-0.187
			c0.479-0.187,0.765-0.315,0.899-0.444c0.619-0.49,0.958-0.734,0.98-0.723c0.047,0.022,0.514-0.258,1.431-0.842
			c0.578-0.373,1.366-0.887,2.05-1.354c-0.274-1.729-0.409-3.68-0.409-5.84c0-0.852,0.035-1.751,0.105-2.732
			c0.076-0.957,0.169-1.914,0.292-2.872c-0.433-0.069-0.753-0.116-0.993-0.187c-0.239-0.059-0.479-0.105-0.753-0.164
			c-0.251-0.047-0.602-0.116-1.004-0.187c-0.409-0.047-0.993-0.151-1.775-0.245c-0.333-0.047-0.595-0.129-0.788-0.269
			c-0.187-0.116-0.321-0.28-0.403-0.468c-0.087-0.186-0.134-0.361-0.158-0.561c-0.012-0.209-0.023-0.373-0.023-0.514
			c0-0.232,0.146-0.396,0.421-0.514c0.274-0.128,0.63-0.21,1.074-0.268c0.432-0.059,0.911-0.082,1.436-0.105
			c0.514,0,1.016,0,1.495,0.023c0.479,0.012,0.894,0.023,1.279,0.023c0.368,0.023,0.63,0,0.776-0.023
			c0.379-1.916,0.858-3.76,1.459-5.559c0.596-1.787,1.244-3.375,1.974-4.775c0.729-1.391,1.518-2.512,2.388-3.352
			c0.864-0.841,1.77-1.25,2.727-1.25c0.613,0,1.162,0.164,1.664,0.514c0.502,0.339,0.946,0.783,1.291,1.344
			c0.362,0.584,0.636,1.249,0.812,1.984c0.193,0.771,0.292,1.564,0.292,2.383c0,0.677-0.099,1.4-0.303,2.148
			c-0.199,0.759-0.468,1.541-0.812,2.312c-0.333,0.781-0.742,1.588-1.208,2.393c-0.467,0.807-0.946,1.6-1.46,2.395
			c0.123-0.07,0.339-0.07,0.637-0.023c0.298,0.023,0.631,0.047,1.039,0.059c0.386,0.012,0.8,0.012,1.256,0.023
			c0.455,0.012,0.898,0.035,1.313,0.047c0.42,0.012,0.829,0.023,1.197,0.035c0.374,0.022,0.683,0.034,0.922,0.046
			c0.012,0,0.023,0.023,0.035,0.023c0.158-0.561,0.345-1.284,0.607-2.288c0.625-2.312,1.243-4.182,1.868-5.582
			c0.619-1.401,1.29-2.721,2.02-3.924c0.73-1.238,1.495-2.289,2.306-3.211c0.806-0.899,1.641-1.611,2.511-2.125
			c0.876-0.525,1.757-0.783,2.668-0.783c0.66,0,1.197,0.141,1.629,0.374c0.427,0.257,0.765,0.584,1.004,1.005
			c0.251,0.408,0.415,0.863,0.514,1.389c0.093,0.525,0.14,1.051,0.14,1.588c0,1.344-0.151,2.721-0.479,4.111
			c-0.321,1.389-0.753,2.791-1.278,4.215c-0.538,1.401-1.168,2.803-1.875,4.215c-0.707,1.426-1.448,2.826-2.213,4.217
			c-0.776,1.4-1.542,2.756-2.318,4.121c-0.782,1.367-1.495,2.662-2.154,3.947c-0.07,0.152-0.146,0.338-0.228,0.561
			c-0.07,0.245-0.158,0.479-0.228,0.759c-0.07,0.257-0.14,0.537-0.216,0.841c-0.07,0.304-0.128,0.607-0.163,0.876v0.292
			c0,0.373,0.035,0.747,0.117,1.098c0.082,0.35,0.181,0.666,0.286,0.934c0.111,0.281,0.239,0.514,0.362,0.678
			c0.117,0.163,0.251,0.257,0.368,0.257c0.263,0,0.584-0.07,0.945-0.187c0.356-0.117,0.742-0.258,1.133-0.456
			c0.397-0.198,0.817-0.409,1.232-0.665c0.432-0.258,0.829-0.514,1.22-0.771c0.076-0.047,0.158-0.116,0.228-0.163
			c-0.093-0.63-0.263-1.237-0.263-1.88c0-0.782,0.146-1.717,0.444-2.791c0.286-1.098,0.607-2.055,0.922-2.885
			c0.321-0.84,0.718-1.646,1.191-2.404c0.49-0.76,1.045-1.438,1.688-2.021c0.648-0.584,1.366-1.04,2.166-1.39
			c0.8-0.339,1.688-0.514,2.656-0.514c0.789,0,1.53,0.129,2.207,0.385c0.695,0.258,1.285,0.619,1.787,1.074
			c0.502,0.456,0.893,1.016,1.179,1.682c0.274,0.654,0.432,1.367,0.432,2.195c0,0.864-0.286,1.822-0.87,2.896
			c-0.578,1.062-1.244,1.984-2.015,2.732c-0.765,0.747-1.681,1.436-2.738,2.031c-1.062,0.607-2.207,1.074-3.45,1.401
			c0.21,0.374,0.426,0.7,0.631,0.935c0.204,0.233,0.42,0.455,0.636,0.584c0.216,0.14,0.438,0.233,0.678,0.279
			c0.239,0.047,0.49,0.094,0.753,0.094c0.853,0,1.746-0.163,2.691-0.49c0.946-0.338,1.869-0.747,2.762-1.238
			c0.899-0.514,1.734-1.062,2.54-1.646c0.082-0.069,0.128-0.116,0.21-0.197c0.023-0.211,0.041-0.375,0.064-0.584
			c0.117-0.889,0.274-1.893,0.502-3.037s0.415-2.137,0.584-2.965c0.157-0.865,0.321-1.635,0.502-2.324
			c0.181-0.689,0.321-1.273,0.467-1.729c0.14-0.455,0.274-0.829,0.415-1.098c0.117-0.269,0.257-0.49,0.42-0.631
			c0.164-0.151,0.362-0.244,0.584-0.314c0.233-0.035,0.514-0.07,0.876-0.07c0.537,0,0.958,0.023,1.272,0.059
			c0.292,0.035,0.538,0.128,0.678,0.245c0.163,0.151,0.257,0.351,0.28,0.606c0.023,0.258,0.023,0.607,0.023,1.051
			c0,0.258,0,0.515-0.023,0.842c-0.023,0.303-0.047,0.654-0.094,1.004c-0.023,0.35-0.07,0.725-0.128,1.098
			c-0.094,0.725-0.152,1.098-0.164,1.121c-0.198,0.969-0.408,2.055-0.619,3.27l0.234,0.245c0.023-0.035,0.21-0.409,0.572-1.133
			c0.338-0.724,0.736-1.425,1.133-2.125c0.397-0.712,0.829-1.437,1.308-2.219c0.467-0.747,0.91-1.448,1.331-2.021
			c0.42-0.596,0.864-1.086,1.308-1.471c0.455-0.386,1.027-0.584,1.658-0.584c0.596,0,1.109,0.198,1.518,0.525
			c0.444,0.361,0.642,0.853,0.642,1.494c0,0.572-0.035,1.098-0.105,1.588c-0.093,0.654-0.164,1.145-0.257,1.461
			c-0.093,0.385-0.21,0.84-0.327,1.377c-0.093,0.479-0.28,1.18-0.537,2.056c-0.023,0.151-0.07,0.351-0.117,0.618
			c-0.023,0.094-0.035,0.141-0.035,0.188l0.245,0.245c0.023-0.035,0.222-0.409,0.596-1.121c0.362-0.712,0.759-1.413,1.203-2.113
			c0.42-0.724,0.887-1.448,1.378-2.23c0.49-0.759,0.945-1.46,1.377-2.032c0.42-0.584,0.817-1.062,1.238-1.447
			c0.409-0.409,0.911-0.607,1.518-0.607c0.654,0,1.226,0.198,1.682,0.525c0.467,0.361,0.689,0.853,0.689,1.494
			c0,0.993-0.047,1.928-0.152,2.826c-0.093,0.864-0.257,1.846-0.444,2.943c-0.21,1.074-0.351,2.055-0.455,2.919
			c-0.094,0.888-0.141,1.821-0.141,2.802c0,0.771,0.094,1.402,0.292,1.893c0.21,0.49,0.444,0.747,0.736,0.747
			s0.607-0.082,0.922-0.21c0.327-0.129,0.666-0.281,1.004-0.49c0.35-0.211,0.677-0.433,1.004-0.701
			c0.257-0.222,0.49-0.432,0.747-0.666c-0.116-0.688-0.304-1.342-0.304-2.066c0-0.771,0.152-1.729,0.443-2.779
			c0.293-1.098,0.607-2.055,0.935-2.896c0.315-0.841,0.712-1.636,1.203-2.405c0.479-0.748,1.039-1.437,1.681-2.021
			c0.643-0.596,1.367-1.04,2.161-1.39c0.794-0.327,1.692-0.514,2.662-0.514c0.794,0,1.53,0.141,2.219,0.385
			c0.7,0.246,1.284,0.619,1.786,1.074c0.502,0.456,0.899,1.017,1.18,1.67c0.292,0.654,0.432,1.379,0.432,2.207
			c0,0.854-0.291,1.811-0.852,2.885c-0.584,1.074-1.25,1.984-2.032,2.744c-0.759,0.759-1.682,1.436-2.732,2.031
			c-1.074,0.596-2.219,1.062-3.456,1.402c0.21,0.361,0.432,0.688,0.63,0.934c0.21,0.245,0.421,0.455,0.631,0.584
			c0.222,0.14,0.443,0.245,0.688,0.291c0.246,0.047,0.491,0.07,0.76,0.07c0.841,0,1.739-0.163,2.686-0.479
			c0.934-0.338,1.868-0.759,2.756-1.25c0.898-0.502,1.752-1.051,2.545-1.635c0.339-0.256,0.561-0.479,0.864-0.746
			c0.094-0.911,0.188-1.811,0.304-2.85c0.164-1.472,0.351-2.791,0.572-3.971c0.222-1.191,0.409-2.195,0.619-3.035
			c0.163-0.654,0.455-1.203,0.91-1.635c0.444-0.444,1.04-0.666,1.822-0.666C245.266,265.07,245.791,265.304,246.095,265.771z
			 M244.272,160.327h-6.177v15.209c0,1.43,0.245,2.376,0.712,2.855c0.479,0.467,1.425,0.707,2.85,0.707
			c0.958,0,1.822-0.07,2.615-0.24v6.598c-0.712,0.134-1.506,0.205-2.382,0.257c-0.864,0.035-1.716,0.059-2.546,0.059
			c-1.307,0-2.533-0.099-3.713-0.263c-1.191-0.169-2.195-0.543-3.105-1.08c-0.876-0.537-1.589-1.267-2.103-2.225
			c-0.514-0.952-0.771-2.213-0.771-3.754v-18.123h-5.114v-5.646h5.114v-9.219h8.442v9.219h6.177V160.327z M237.594,90.83
			c-0.958,0.094-5.161-0.992-7.403,1.565c-0.467,1.197-1.215,2.248-2.195,3.06c-0.42,0.35-0.91,0.683-1.425,0.922
			c-3.597,1.804-8.313,0.572-11.256-2.954c-1.624-1.95-2.511-4.35-2.487-6.744c0.023-1.208,0.269-2.33,0.736-3.34l-16.64-6.405
			l-4.233,2.02l-32.328-26.343l-0.969-3.539l36.124,22.765l21.223,7.976c0.094-0.047,0.21-0.117,0.28-0.164
			c3.597-1.81,8.338-0.561,11.269,2.966c0.782,0.94,1.413,2.009,1.821,3.118c1.635,2.826,8.256,2.476,8.746,2.761
			C239.392,88.804,238.552,90.731,237.594,90.83z M231.3,49.552l-1.693,3.883l-32.859,17.58l-4.916-3.24L231.3,49.552z"/>
		<path d="M159.83,263.144c0.432-0.712,0.876-1.483,1.343-2.323c0.467-0.818,0.87-1.658,1.244-2.453
			c0.368-0.805,0.683-1.564,0.922-2.254c0.233-0.712,0.356-1.272,0.356-1.739c0-0.163-0.012-0.315-0.035-0.514
			c-0.012-0.198-0.059-0.362-0.134-0.537c-0.07-0.175-0.175-0.304-0.333-0.421c-0.146-0.117-0.362-0.187-0.637-0.187
			c-0.368,0-0.753,0.327-1.121,0.981c-0.374,0.653-0.741,1.471-1.086,2.475c-0.362,1.016-0.683,2.125-0.992,3.34
			c-0.304,1.215-0.59,2.383-0.853,3.527c0.216,0.012,0.432,0.034,0.648,0.046C159.392,263.108,159.608,263.132,159.83,263.144z"/>
		<path d="M123.783,274.599c0.525-0.397,1.027-0.958,1.529-1.623c0.502-0.688,0.753-1.249,0.753-1.693
			c0-0.642-0.122-1.144-0.361-1.541c-0.24-0.397-0.514-0.619-0.858-0.619c-0.607,0-1.139,0.128-1.565,0.339
			c-0.432,0.21-0.789,0.514-1.092,0.863c-0.286,0.352-0.525,0.748-0.701,1.203c-0.192,0.467-0.397,1.027-0.637,1.693
			c-0.239,0.678-0.373,1.227-0.396,1.658c-0.023,0.42-0.047,0.794-0.047,1.098c0.514,0,1.08-0.141,1.676-0.385
			C122.691,275.322,123.257,274.996,123.783,274.599z"/>
		<path d="M159.713,268.713c-0.42,0.537-0.8,1.028-1.162,1.472c-0.059,0.876-0.105,1.752-0.152,2.593
			c-0.012,0.373-0.023,0.759-0.035,1.156c-0.017,0.385-0.029,0.758-0.041,1.156c-0.012,0.385-0.023,0.746-0.023,1.12
			c-0.011,0.339-0.011,0.677-0.011,0.981c0,0.759,0.075,1.4,0.216,1.926c0.146,0.525,0.35,0.958,0.625,1.285
			c0.274,0.338,0.596,0.584,0.993,0.724c0.391,0.151,0.823,0.233,1.313,0.233c0.298,0,0.672-0.082,1.109-0.222
			c0.444-0.14,0.935-0.327,1.483-0.583c0.525-0.258,1.092-0.549,1.687-0.889c0.595-0.326,1.173-0.712,1.746-1.109
			c0.386-0.268,0.742-0.572,1.086-0.852c-0.175-1.227-0.333-2.453-0.333-3.76c0-1.402,0.205-3.27,0.625-5.582
			c0.082-0.514,0.152-0.923,0.222-1.309h-8.068C160.548,267.592,160.134,268.152,159.713,268.713z"/>
		<path d="M101.538,272.287c-1.349,2.347-2.09,3.946-2.207,4.775c-0.28,1.811-0.146,3.188,0.379,4.099
			c0.344,0.607,0.789,0.888,1.337,0.888c0.969,0,1.774-0.771,2.405-2.312c0.502-1.226,0.776-2.451,0.823-3.689l1.605-7.088
			C104.241,268.971,102.793,270.08,101.538,272.287z"/>
		<path d="M100.989,294.986c-0.969,1.565-1.734,3.153-2.295,4.765c-0.467,1.354-0.228,2.032,0.73,2.032
			c0.344,0,0.648-0.047,0.911-0.141c0.251-0.082,0.502-0.245,0.73-0.443c0.222-0.233,0.426-0.467,0.596-0.725
			c0.169-0.256,0.344-0.63,0.549-1.109c0.181-0.479,0.362-0.957,0.514-1.412c0.158-0.467,0.35-1.074,0.549-1.846
			c0.134-0.396,0.228-0.863,0.292-1.354c0.058-0.49,0.128-1.098,0.222-1.811c0.087-0.735,0.146-1.18,0.169-1.378
			C102.939,292.277,101.947,293.41,100.989,294.986z"/>
		<path d="M177.708,260.937c0.647-1.519,1.196-3.036,1.675-4.554c0.467-1.495,0.765-2.896,0.899-4.216c0-0.409,0-0.759-0.029-1.062
			c-0.012-0.304-0.082-0.444-0.187-0.444c-0.397,0-0.817,0.258-1.267,0.807c-0.444,0.549-0.899,1.261-1.354,2.195
			c-0.456,0.922-0.993,2.416-1.612,4.483c-0.625,2.091-0.946,3.142-0.946,3.142s-0.192,0.957-0.572,2.861
			c-0.385,1.926-0.613,3.631-0.683,5.078c0.642-1.155,1.314-2.428,2.032-3.853C176.394,263.938,177.077,262.455,177.708,260.937z"/>
		<path d="M188.007,274.599c0.525-0.397,1.027-0.958,1.53-1.623c0.502-0.688,0.742-1.249,0.742-1.693
			c0-0.642-0.123-1.144-0.351-1.541c-0.239-0.397-0.514-0.619-0.87-0.619c-0.613,0-1.138,0.128-1.57,0.339
			c-0.426,0.21-0.788,0.514-1.098,0.863c-0.286,0.352-0.514,0.748-0.707,1.203c-0.181,0.455-0.379,1.016-0.619,1.693
			c-0.239,0.666-0.374,1.215-0.397,1.635c-0.023,0.42-0.035,0.794-0.035,1.109c0.514,0,1.074-0.129,1.675-0.385
			C186.915,275.322,187.476,274.996,188.007,274.599z"/>
		<path d="M277.588,281.861c0.269,0.246,0.572,0.491,0.935,0.713c0.361,0.222,0.759,0.315,1.226,0.315
			c0.537,0,1.005-0.094,1.366-0.269c0.374-0.188,0.666-0.432,0.864-0.748c0.222-0.303,0.362-0.665,0.455-1.086
			c0.082-0.396,0.129-0.828,0.129-1.272c0-0.386-0.023-0.782-0.082-1.179c-0.047-0.397-0.035-0.9,0.023-1.495
			c0.059-0.607,0.035-1.074-0.035-1.378c-0.104-0.327-0.175-0.607-0.245-0.841l-5.908,6.212c0.175,0,0.361,0.117,0.561,0.327
			C277.074,281.371,277.319,281.605,277.588,281.861z"/>
		<path d="M189.665,230.062c0.169,0.279,0.386,0.49,0.66,0.654c0.263,0.163,0.595,0.232,0.98,0.232c0.333,0,0.643-0.163,0.969-0.49
			c0.321-0.326,0.584-0.759,0.823-1.272c0.24-0.514,0.432-1.133,0.561-1.868c0.146-0.725,0.216-1.367,0.216-1.927
			c0-0.468-0.035-0.888-0.105-1.261c-0.064-0.374-0.169-0.725-0.304-1.005c-0.128-0.28-0.31-0.514-0.525-0.677
			c-0.216-0.176-0.467-0.258-0.776-0.258c-0.403,0-0.776,0.188-1.133,0.514c-0.362,0.328-0.683,0.771-0.958,1.309
			s-0.491,1.133-0.648,1.764c-0.152,0.665-0.239,1.377-0.239,2.184c0,0.42,0.035,0.805,0.122,1.179
			C189.367,229.479,189.502,229.793,189.665,230.062z"/>
		<path d="M231.592,274.599c0.525-0.397,1.027-0.958,1.529-1.623c0.503-0.688,0.759-1.249,0.759-1.693
			c0-0.642-0.128-1.144-0.373-1.541c-0.233-0.397-0.514-0.619-0.853-0.619c-0.619,0-1.133,0.128-1.576,0.339
			c-0.421,0.21-0.782,0.514-1.074,0.863c-0.292,0.352-0.537,0.748-0.713,1.203c-0.175,0.455-0.385,1.016-0.606,1.693
			c-0.246,0.666-0.374,1.215-0.409,1.635c-0.023,0.42-0.035,0.794-0.035,1.109c0.514,0,1.074-0.129,1.67-0.385
			C230.518,275.322,231.078,274.996,231.592,274.599z"/>
	</g>
</g>
<g>
</g>
<g>
</g>
<g>
</g>
<g>
</g>
<g>
</g>
<g>
</g>
<g>
</g>
<g>
</g>
<g>
</g>
<g>
</g>
<g>
</g>
<g>
</g>
<g>
</g>
<g>
</g>
<g>
</g>
</svg>
