<?xml version="1.0" encoding="iso-8859-1"?>
<!-- Generator: Adobe Illustrator 16.0.0, SVG Export Plug-In . SVG Version: 6.00 Build 0)  -->
<!DOCTYPE svg PUBLIC "-//W3C//DTD SVG 1.1//EN" "http://www.w3.org/Graphics/SVG/1.1/DTD/svg11.dtd">
<svg version="1.1" id="Capa_1" xmlns="http://www.w3.org/2000/svg" xmlns:xlink="http://www.w3.org/1999/xlink" x="0px" y="0px"
	 width="382.472px" height="382.472px" viewBox="0 0 382.472 382.472" style="enable-background:new 0 0 382.472 382.472;"
	 xml:space="preserve">
<g>
	<g>
		<path d="M138.49,96.972c-0.467,1.302-0.455,4.531-0.104,7.701c0,0.461-0.135,0.881-0.135,1.349c0,2.102,0.094,4.198,0.286,6.253
			c3.217,33.945,31.376,59.547,65.521,59.547c36.292,0,65.801-29.52,65.801-65.8c0-1.816-0.397-3.538-0.537-5.319
			c0.256-2.12,0.502-4.379,0.677-7.012c2.347-4.146,1.272-25.882-6.142-26.303c0.432-11.981-4.461-12.092-6.166-15.268
			c-1.67-3.193-3.071-12.115-6.341-12.523c1.577,6.458,0.958,7.21,0,6.364c-0.957-0.858-8.711-15.916-13.592-16.132
			c4.881,6.376,7.637,12.208,6.796,11.671c-0.853-0.525-26.624-16.967-39.457-17.603c-12.833-0.643-28.842,9.96-28.842,9.96
			s-0.753-5.295,4.017-9.96c-3.492-1.063-8.466,8.624-9.342,10.176c-0.415,0.73-7.111-0.403-13.464,2.546
			c-7.1,3.293-14.036,10.883-16.441,15.7c-4.554,9.125-3.491,21.106-3.392,22.899c0.093,1.798-2.861,5.728-2.335,9.879
			C135.834,89.218,139.448,94.21,138.49,96.972z M150.792,114.464c1.769-5.179,4.998-7.31,4.869-10.608
			c-0.216-5.938-3.982-4.817-4.017-10.807c-0.023-3.264,0.584-6.866,1.542-10.235c2.131-4.642,4.951-8.851,8.215-12.71
			c8.717-2.668,34.984,5.944,40.729,3.859c2.768-3.392,26.834-5.401,39.024-2.867c5.01,1.051,11.49,8.32,14.316,20.365
			c2.021,8.618,2.85,18.818,3.152,26.852c-5.628,24.983-27.908,43.742-54.566,43.742c-26.25,0-48.191-17.842-54.246-42.569
			C150.027,117.617,150.313,115.866,150.792,114.464z"/>
		<path d="M310.261,220.68l-37.052-28.703l0.023-0.269l-0.595-0.187l-0.631-0.484l-0.188,0.251l-27.254-7.853
			c0,18.946-15.367,34.313-34.331,34.313c-18.94,0-34.318-15.367-34.318-34.313l-37.484,8.227l-0.046-0.046l-45.57,35.312
			L82.65,213.812c0.403-0.279,0.812-0.56,1.256-0.711c1.985-0.725-1.711-2.675-5.01-4.134l-3.387-4.355l-0.858,0.771l0.438-12.635
			l-2.435-0.432l0.957-27.009l9.733,0.344l0.116-3.275l-9.732-0.344l0.093-2.452l9.721,0.333l0.146-3.252l-9.721-0.345l0.117-3.444
			l9.546,0.333l0.104-3.275l-9.54-0.321l0.082-2.476l9.528,0.345l0.123-3.275l-9.54-0.333l0.105-3.124l9.552,0.339l0.123-3.287
			l-9.541-0.351l0.082-2.464l9.529,0.351l0.123-3.281l-9.534-0.345l0.099-2.785l9.529,0.345l0.122-3.287l-9.534-0.333l0.088-2.464
			l9.528,0.333l0.117-3.275l-9.529-0.345l0.094-2.954l9.546,0.344l0.117-3.275l-9.541-0.333l0.093-2.476l9.534,0.344l0.105-3.275
			l-9.517-0.356l0.104-2.954l9.535,0.344l0.105-3.287l-9.528-0.333l0.082-2.464l9.529,0.333l0.122-3.275l-9.517-0.321l0.129-3.783
			l9.528,0.338l0.123-3.275l-9.541-0.35l0.094-2.464l9.528,0.338l0.123-3.275l-9.546-0.338l0.181-5.08l-3.947-0.146l0.479-13.102
			h-0.082c-0.467-2.633-3.854-4.77-8.034-4.916c-4.209-0.158-7.724,1.746-8.372,4.314h-0.082l-0.455,13.119L51.8,77.179
			l-0.193,5.085l-9.528-0.35l-0.123,3.287l9.546,0.338l-0.088,2.464l-9.552-0.35l-0.105,3.293l9.541,0.333l-0.146,3.778l-9.54-0.333
			L41.495,98l9.541,0.345l-0.082,2.452l-9.546-0.333l-0.117,3.275l9.541,0.333l-0.093,2.966l-9.546-0.344l-0.117,3.287l9.54,0.333
			l-0.082,2.464l-9.54-0.333l-0.123,3.287l9.54,0.321l-0.105,2.955l-9.54-0.333l-0.111,3.287l9.546,0.333l-0.1,2.464l-9.528-0.333
			l-0.123,3.275l9.546,0.333l-0.123,2.803l-9.528-0.351l-0.105,3.275l9.528,0.351l-0.087,2.464l-9.541-0.351l-0.105,3.287
			l9.54,0.339l-0.117,3.118l-9.546-0.333l-0.104,3.275l9.54,0.339l-0.094,2.458l-9.546-0.333l-0.105,3.275l9.529,0.333l-0.117,3.457
			l-9.354-0.333l-0.104,3.287l9.335,0.339l-0.082,2.464l-9.342-0.351l-0.117,3.275l9.354,0.339l-0.362,10.054
			c-1.244,0.444-9.243,3.311-10.498,4.484c-1.349,1.267-0.169,5.091-0.169,5.091s-38.453,32.631-37.665,65.853
			c0.625,0.992,3.854,0.21,5.132-1.145c7.234-38.488,35.225-45.121,42.365-46.195l-0.134,3.644c0,0-12.95,3.818-9.721,5.231
			c8.741,3.608,6.604,36.374,3.241,42.844c-5.261,13.615-5.833,66.805-2.855,80.385c2.925,13.44,0.742,22.175,17.598,22.63
			c16.861,0.76,15.273-8.127,19.156-21.334c3.538-12.004,6.469-56.154,3.9-75.025l8.466,10.918l25.298-19.605l-0.035-0.047
			l28.224-21.859l5.377,111.715h118.383l6.504-111.423L298,251.658l-0.047,0.047l25.315,19.605l3.492-4.495
			c-0.537,4.882-0.958,9.716-0.958,13.802c0,9.67,2.464,80.082,17.399,77.992c14.935,2.09,17.387-68.322,17.387-77.992
			c0-12.424-3.666-31.727-3.666-38.592c0-8.595,19.209-13.826,19.209-13.826v-24.522h-65.859v17.002H310.261z"/>
		<rect x="301.865" y="196.589" width="78.54" height="3.526"/>
		<rect x="302.273" y="189.893" width="78.54" height="3.532"/>
		<rect x="302.472" y="183.517" width="78.553" height="3.526"/>
		<rect x="302.694" y="176.809" width="78.517" height="3.538"/>
		<rect x="302.893" y="169.884" width="78.54" height="3.556"/>
		<rect x="303.103" y="163.193" width="78.528" height="3.55"/>
		<rect x="302.893" y="156.006" width="78.54" height="3.55"/>
		<rect x="303.302" y="149.402" width="78.539" height="3.538"/>
		<rect x="303.302" y="142.706" width="78.539" height="3.544"/>
		<rect x="303.302" y="135.506" width="78.539" height="3.544"/>
		<rect x="303.302" y="127.94" width="78.539" height="3.55"/>
		<rect x="303.302" y="120.945" width="78.539" height="3.538"/>
		<rect x="303.92" y="113.916" width="78.552" height="3.538"/>
		<path d="M374.474,101.596c0,0-8.595-3.777-33.351-3.777c-24.755,0-32.509,3.777-32.509,3.777v8.349h65.859V101.596z"/>
	</g>
</g>
<g>
</g>
<g>
</g>
<g>
</g>
<g>
</g>
<g>
</g>
<g>
</g>
<g>
</g>
<g>
</g>
<g>
</g>
<g>
</g>
<g>
</g>
<g>
</g>
<g>
</g>
<g>
</g>
<g>
</g>
</svg>
