<?xml version="1.0" encoding="iso-8859-1"?>
<!-- Generator: Adobe Illustrator 16.0.0, SVG Export Plug-In . SVG Version: 6.00 Build 0)  -->
<!DOCTYPE svg PUBLIC "-//W3C//DTD SVG 1.1//EN" "http://www.w3.org/Graphics/SVG/1.1/DTD/svg11.dtd">
<svg version="1.1" id="Capa_1" xmlns="http://www.w3.org/2000/svg" xmlns:xlink="http://www.w3.org/1999/xlink" x="0px" y="0px"
	 width="375.688px" height="375.688px" viewBox="0 0 375.688 375.688" style="enable-background:new 0 0 375.688 375.688;"
	 xml:space="preserve">
<g>
	<path d="M283.571,130.425c-5.5-17.673-68.592-0.444-84.881,2.294c-16.296,2.738-99.407-19.074-99.109-2.294
		c0.297,16.774,0.922,41.465,0,44.122c-0.923,2.674,4.127,40.753,4.127,40.753s46.335,38.09,15.601,58.724
		c6.89-1.378,20.184,13.756,0,28.435c9.184,3.234,6.89,29.834-10.089,39.024c-3.217,4.122,19.273,21.101,4.133,32.112
		c-15.15,11.012-25.695-25.036-25.695-25.036s-18.817-5.71-12.839-21.311c-8.268,5.967-61.941-23.401-27.996-55.969
		c-0.904,5.968-45.424-14.689-11.922-50.024c-8.262,0-58.228-42.989,30.278-85.342c-14.217-6.411-18.356-105.981,9.64-116.993
		c27.979-11.012,28.434,27.523,28.434,27.523s9.185-43.579,83.054-42.663C242.281-16.87,283.571,53.8,283.571,53.8
		s-7.801-53.68,28.445-35.323c36.233,18.356,10.089,121.594-16.979,119.299c-2.301,0.455,118.838,55.98,41.302,100.925
		c21.101,26.168-21.579,46.347-21.579,46.347s27.534,32.124-13.312,58.269c-2.744,4.146,3.678,26.156-17.89,24.312
		c-21.556-1.822-4.134-33.035-4.134-33.035s-47.713-31.656,1.378-66.992c-9.167-0.467-36.246-15.6,0-75.702
		c2.405-11.806,6.434-31.201,6.434-33.496S289.082,148.093,283.571,130.425z"/>
</g>
<g>
</g>
<g>
</g>
<g>
</g>
<g>
</g>
<g>
</g>
<g>
</g>
<g>
</g>
<g>
</g>
<g>
</g>
<g>
</g>
<g>
</g>
<g>
</g>
<g>
</g>
<g>
</g>
<g>
</g>
</svg>
