<?xml version="1.0" encoding="iso-8859-1"?>
<!-- Generator: Adobe Illustrator 16.0.0, SVG Export Plug-In . SVG Version: 6.00 Build 0)  -->
<!DOCTYPE svg PUBLIC "-//W3C//DTD SVG 1.1//EN" "http://www.w3.org/Graphics/SVG/1.1/DTD/svg11.dtd">
<svg version="1.1" id="Capa_1" xmlns="http://www.w3.org/2000/svg" xmlns:xlink="http://www.w3.org/1999/xlink" x="0px" y="0px"
	 width="31.575px" height="31.575px" viewBox="0 0 31.575 31.575" style="enable-background:new 0 0 31.575 31.575;"
	 xml:space="preserve">
<g>
	<g>
		<rect x="0.721" y="30.139" width="8.991" height="1.437"/>
		<path d="M9.386,6.307V5.515H7.985V4.481H5.916V0L5.481,0.257c0,0-0.401,0.137-0.561,0.331C4.727,0.493,4.432,0.803,4.286,0.962
			C4.175,0.866,3.768,1.16,3.624,1.353C3.499,1.239,3.138,1.501,3.019,1.711C2.882,1.478,2.412,2.068,2.412,2.068v3.446H1.048
			l0.047,0.792H0.721v23.359h8.991V6.307H9.386z M2.969,28.257H1.831V7.949h1.138V28.257z"/>
	</g>
	<path d="M21.684,22.902v8.672h9.17v-8.672H21.684z M23.975,31.159h-1.156v-7.771h1.156V31.159z"/>
	<rect x="11.889" y="30.27" width="8.184" height="1.306"/>
	<path d="M22.177,13.741v7.737h8.185v-7.737H22.177z M24.222,21.109h-1.033v-6.937h1.033V21.109z"/>
	<path d="M19.282,6.829h-0.449V6.258h-1.361V3.914l-2.574-0.002v2.346H13.35v0.571h-0.485v1.749h-0.976v21.26h8.184V8.578h-0.791
		V6.829z M16.205,4.482c0.333,0,0.603,0.271,0.603,0.604c0,0.332-0.27,0.602-0.603,0.602s-0.603-0.27-0.603-0.602
		C15.603,4.753,15.872,4.482,16.205,4.482z M13.935,28.557h-1.036V10.071h1.036V28.557z"/>
</g>
<g>
</g>
<g>
</g>
<g>
</g>
<g>
</g>
<g>
</g>
<g>
</g>
<g>
</g>
<g>
</g>
<g>
</g>
<g>
</g>
<g>
</g>
<g>
</g>
<g>
</g>
<g>
</g>
<g>
</g>
</svg>
