<?xml version="1.0" encoding="iso-8859-1"?>
<!-- Generator: Adobe Illustrator 16.0.0, SVG Export Plug-In . SVG Version: 6.00 Build 0)  -->
<!DOCTYPE svg PUBLIC "-//W3C//DTD SVG 1.1//EN" "http://www.w3.org/Graphics/SVG/1.1/DTD/svg11.dtd">
<svg version="1.1" id="Capa_1" xmlns="http://www.w3.org/2000/svg" xmlns:xlink="http://www.w3.org/1999/xlink" x="0px" y="0px"
	 width="33.096px" height="33.095px" viewBox="0 0 33.096 33.095" style="enable-background:new 0 0 33.096 33.095;"
	 xml:space="preserve">
<g>
	<g>
		<path d="M8.561,8.054c-0.045,0.129-0.044,0.447-0.01,0.76c0,0.045-0.013,0.087-0.013,0.133c0,0.208,0.009,0.414,0.028,0.618
			c0.317,3.353,3.099,5.882,6.471,5.882c3.585,0,6.5-2.916,6.5-6.5c0-0.18-0.039-0.349-0.053-0.525
			c0.025-0.209,0.05-0.433,0.067-0.692c0.231-0.41,0.125-2.558-0.606-2.599c0.041-1.184-0.44-1.193-0.608-1.508
			c-0.167-0.314-0.304-1.194-0.628-1.235c0.156,0.638,0.094,0.712,0,0.628c-0.096-0.084-0.859-1.572-1.342-1.594
			c0.482,0.63,0.754,1.205,0.671,1.153c-0.084-0.052-2.63-1.676-3.897-1.738c-1.268-0.062-2.85,0.984-2.85,0.984
			s-0.074-0.524,0.398-0.984c-0.346-0.104-0.837,0.853-0.922,1.006c-0.041,0.071-0.703-0.04-1.331,0.251
			c-0.701,0.324-1.385,1.073-1.623,1.55c-0.45,0.9-0.345,2.085-0.335,2.262c0.01,0.177-0.283,0.566-0.23,0.975
			C8.299,7.289,8.656,7.781,8.561,8.054z M9.777,9.782c0.175-0.511,0.494-0.722,0.481-1.047c-0.02-0.587-0.392-0.476-0.397-1.068
			c-0.002-0.321,0.058-0.678,0.153-1.011c0.21-0.458,0.489-0.875,0.811-1.256c0.862-0.263,3.456,0.587,4.023,0.381
			c0.272-0.335,2.65-0.534,3.855-0.283c0.496,0.104,1.136,0.822,1.414,2.012c0.199,0.852,0.281,1.859,0.312,2.651
			c-0.558,2.468-2.758,4.32-5.393,4.32c-2.593,0-4.76-1.762-5.358-4.205C9.702,10.094,9.729,9.919,9.777,9.782z"/>
		<path d="M32.538,12.995l0.01-2.237l-0.327-0.003l-0.007,1.525h-0.138l0.007-1.524l-0.224-0.001l-0.006,1.524h-0.139l0.008-1.524
			l-0.229-0.002l-0.008,1.525H31.35l0.006-1.524l-0.223-0.001l-0.007,1.524l-0.138-0.001l0.007-1.525h-0.249l-0.008,1.524
			l-0.137-0.001l0.006-1.523l-0.223-0.001l-0.007,1.524l-0.137-0.001l0.006-1.523l-0.229-0.001l-0.006,1.524h-0.139l0.007-1.524
			l-0.223-0.001l-0.007,1.524h-0.139l0.008-1.524l-0.27-0.007l-0.007,1.525l-0.136-0.001l0.006-1.523l-0.223-0.002l-0.009,1.524
			h-0.136l0.006-1.525l-0.229-0.001l-0.008,1.525l-0.138-0.001l0.009-1.524h-0.225l-0.008,1.523h-0.139l0.008-1.525h-0.25
			l-0.006,1.524l-0.139-0.001l0.008-1.524l-0.285-0.001l-0.012,2.238l-0.406-0.002l-0.01,1.979h0.006
			c0.031,0.363,0.196,2.304,0.377,4.517l-1.057,1.37l-4.383-3.396l0.001-0.027l-0.058-0.017l-0.063-0.048l-0.019,0.024l-2.692-0.775
			c0,1.873-1.519,3.391-3.391,3.391c-1.872,0-3.39-1.518-3.39-3.391l-3.703,0.813l-0.004-0.005l-4.501,3.49l-1.708-2.205L0,20.829
			l1.551,2.001l0.171,0.221l1.769,2.282l2.5-1.936l-0.004-0.005l2.787-2.159l0.532,11.034H21l0.643-11.007l2.676,2.072l-0.004,0.005
			l2.5,1.937l0.869-1.121c0.1,1.336,0.168,2.375,0.168,2.678c-0.006,1.106,4.199,0.923,4.203,0.02
			c0.004-0.864,0.944-10.994,1.025-11.874h0.006l0.01-1.98L32.538,12.995z M29.982,20.115c-0.349-0.001-0.627-0.584-0.625-1.304
			c0.002-0.719,0.289-1.3,0.637-1.298c0.347,0.001,0.627,0.585,0.624,1.304S30.33,20.117,29.982,20.115z M32.529,14.446
			l-5.045-0.023l0.002-0.339l5.046,0.023L32.529,14.446z"/>
		<ellipse cx="29.988" cy="18.761" rx="0.302" ry="0.624"/>
	</g>
</g>
<g>
</g>
<g>
</g>
<g>
</g>
<g>
</g>
<g>
</g>
<g>
</g>
<g>
</g>
<g>
</g>
<g>
</g>
<g>
</g>
<g>
</g>
<g>
</g>
<g>
</g>
<g>
</g>
<g>
</g>
</svg>
