<?xml version="1.0" encoding="iso-8859-1"?>
<!-- Generator: Adobe Illustrator 16.0.0, SVG Export Plug-In . SVG Version: 6.00 Build 0)  -->
<!DOCTYPE svg PUBLIC "-//W3C//DTD SVG 1.1//EN" "http://www.w3.org/Graphics/SVG/1.1/DTD/svg11.dtd">
<svg version="1.1" id="Capa_1" xmlns="http://www.w3.org/2000/svg" xmlns:xlink="http://www.w3.org/1999/xlink" x="0px" y="0px"
	 width="381.323px" height="381.323px" viewBox="0 0 381.323 381.323" style="enable-background:new 0 0 381.323 381.323;"
	 xml:space="preserve">
<g>
	<g>
		<path d="M315.481,83.241H65.375v214.835h250.106V83.241z M312.795,295.403H68.066V85.933h244.729V295.403z"/>
		<path d="M373.773,246.032c-3.982-0.327-9.225,2.803-7.882,6.645c5.149-3.749,6.69,3.923,0.315,4.028
			c-2.348,0.035-4.414-1.752-5.43-4.857c-0.911-2.803-0.141-10.299-1.997-14.924c-1.483-3.689-3.772-7.672-6.633-6.761
			c-1.833,0.572-2.044,3.772-3.946,2.768c1.074-0.888,2.055-1.786,2.148-3.013c-1.051-2.148-3.281-4.484-4.508-6.645v-4.53
			c0.386-0.386,0.899-0.736,1.6-1.051c1.869-0.864,5.477,0.385,7.578-0.385c3.422-1.238,6.458-5.138,7.205-7.999
			c1.787-6.878-6.574-13.873-10.988-7.158c0.351,0.771,2.301-1.331,2.114,0.374c-1.168,3.305-5.243,3.749-7.509,2.476v-9.073
			c0.047-0.467,0.059-0.928,0-1.418v-3.83v-26.355c0.525-1.232,1.121-2.067,1.811-2.411c2.825-1.413,7.706-1.974,9.598,0.847
			c4.986,7.45-8.256,10.895-6.037,2.429c-5.021,3.129-1.331,11.502,2.768,13.691c5.897,3.118,16.851-2.727,19.385-8.706
			c2.592-6.101-1.507-13.75-6.551-16.861c-5.104-3.13-11.783-2.318-16.349-6.744c-1.448-1.396-2.697-3.778-1.074-5.044
			c2.861-2.248,10.883,2.68,14.585,3.129c7.719,0.946,15.893-5.214,17.061-11.181c1.051-5.4-1.67-12.693-7.252-13.148
			c-3.994-0.338-9.236,2.797-7.894,6.645c5.149-3.743,6.69,3.923,0.315,4.046c-2.348,0.035-4.414-1.757-5.43-4.869
			c-0.911-2.797-0.141-10.305-1.997-14.912c-1.483-3.708-3.772-7.689-6.633-6.767c-1.833,0.572-2.044,3.754-3.946,2.773
			c1.074-0.882,2.055-1.792,2.148-3.013c-1.051-2.166-3.281-4.496-4.508-6.65v-4.542c0.386-0.368,0.899-0.742,1.6-1.051
			c1.869-0.875,5.477,0.397,7.578-0.385c3.422-1.244,6.458-5.138,7.205-8.01c1.787-6.86-6.574-13.867-10.988-7.146
			c0.351,0.765,2.301-1.343,2.114,0.344c-1.168,3.311-5.243,3.766-7.509,2.476v-9.067c0.047-0.461,0.059-0.929,0-1.419v-3.83h-2.44
			h-3.258v-5.763h-2.103v-2.032h-30.896c-1.437-0.525-2.43-1.133-2.814-1.816c-1.67-2.849-2.324-7.713,0.992-9.604
			c8.723-4.974,12.764,8.25,2.826,6.055c3.689,5.009,13.51,1.313,16.056-2.791c3.679-5.879-3.176-16.844-10.194-19.366
			c-7.146-2.598-16.126,1.506-19.77,6.551c-3.678,5.103-2.721,11.776-7.916,16.348c-1.635,1.454-4.414,2.697-5.909,1.074
			c-2.628-2.849,3.142-10.883,3.679-14.591c1.109-7.712-6.107-15.875-13.102-17.048c-6.342-1.051-14.889,1.664-15.426,7.257
			c-0.397,3.982,3.27,9.208,7.788,7.882c-4.379-5.167,4.612-6.697,4.741-0.315c0.047,2.347-2.055,4.414-5.71,5.43
			c-3.27,0.911-12.086,0.146-17.492,1.997c-4.321,1.483-9.003,3.766-7.94,6.627c0.688,1.828,4.414,2.043,3.258,3.947
			c-1.039-1.08-2.102-2.061-3.538-2.154c-2.534,1.051-5.29,3.287-7.801,4.519h-5.312c-0.433-0.397-0.853-0.911-1.238-1.6
			c-1.016-1.869,0.456-5.477-0.455-7.596c-1.472-3.416-6.025-6.458-9.389-7.199c-8.057-1.792-16.254,6.591-8.396,10.988
			c0.911-0.344-1.565-2.306,0.42-2.113c3.889,1.185,4.414,5.237,2.908,7.52h-10.638c-0.537-0.059-1.086-0.07-1.67,0h-4.484H159.72
			c-1.448-0.525-2.429-1.133-2.832-1.816c-1.664-2.849-2.306-7.713,0.993-9.604c8.729-4.974,12.769,8.25,2.832,6.055
			c3.685,5.009,13.499,1.313,16.062-2.791c3.655-5.879-3.194-16.844-10.2-19.366c-7.152-2.598-16.132,1.506-19.77,6.551
			c-3.667,5.091-2.715,11.776-7.899,16.348c-1.641,1.454-4.426,2.697-5.92,1.074c-2.622-2.849,3.141-10.883,3.684-14.591
			c1.109-7.712-6.113-15.875-13.107-17.048c-6.335-1.051-14.9,1.664-15.438,7.257c-0.396,3.982,3.275,9.208,7.795,7.882
			c-4.373-5.167,4.606-6.697,4.735-0.315c0.052,2.347-2.055,4.414-5.705,5.43c-3.275,0.911-12.074,0.158-17.48,1.997
			c-4.326,1.483-9.015,3.778-7.94,6.639c0.684,1.828,4.414,2.043,3.252,3.947c-1.039-1.08-2.102-2.061-3.538-2.154
			c-2.534,1.051-5.284,3.275-7.794,4.507h-5.308c-0.443-0.379-0.864-0.899-1.244-1.6c-1.016-1.869,0.467-5.477-0.456-7.596
			c-1.459-3.404-6.025-6.446-9.388-7.199c-8.057-1.792-16.26,6.591-8.396,11c0.911-0.344-1.553-2.306,0.421-2.113
			c3.9,1.173,4.414,5.237,2.907,7.508H49.354c-0.537-0.059-1.086-0.07-1.676,0h-4.484v2.02h-2.102v5.763h-2.236H35.4v26.355
			c-0.525,1.243-1.133,2.084-1.804,2.429c-2.849,1.413-7.725,1.973-9.616-0.858c-4.974-7.438,8.25-10.883,6.055-2.417
			c5.021-3.147,1.313-11.514-2.791-13.691c-5.891-3.124-16.844,2.727-19.367,8.705c-2.598,6.084,1.507,13.75,6.551,16.856
			c5.103,3.135,11.776,2.324,16.348,6.732c1.454,1.401,2.697,3.771,1.074,5.05c-2.85,2.236-10.883-2.68-14.591-3.147
			C9.546,110,1.384,116.171,0.222,122.138c-1.051,5.407,1.664,12.699,7.258,13.166c3.981,0.321,9.207-2.797,7.882-6.65
			c-5.155,3.742-6.697-3.924-0.315-4.029c2.359-0.035,4.414,1.746,5.441,4.852c0.911,2.802,0.146,10.311,1.997,14.912
			c1.483,3.708,3.766,7.689,6.639,6.772c1.827-0.578,2.043-3.76,3.935-2.768c-1.08,0.888-2.043,1.798-2.143,3.013
			c1.051,2.167,3.275,4.496,4.508,6.65v4.519c-0.392,0.385-0.905,0.741-1.6,1.068c-1.868,0.858-5.477-0.397-7.584,0.379
			c-3.415,1.244-6.457,5.144-7.199,8.011c-1.792,6.878,6.58,13.872,10.994,7.152c-0.35-0.765-2.3,1.337-2.12-0.356
			c1.186-3.316,5.237-3.754,7.521-2.476v9.062c-0.059,0.467-0.07,0.934,0,1.425v3.824v26.361c-0.526,1.226-1.133,2.055-1.805,2.406
			c-2.843,1.413-7.724,1.961-9.604-0.864c-4.968-7.45,8.256-10.883,6.055-2.429c5.021-3.13,1.314-11.514-2.785-13.686
			c-5.897-3.118-16.85,2.732-19.373,8.711c-2.598,6.095,1.507,13.755,6.551,16.862c5.109,3.13,11.776,2.312,16.348,6.726
			c1.459,1.401,2.704,3.783,1.063,5.045c-2.844,2.242-10.883-2.674-14.591-3.129c-7.713-0.958-15.875,5.207-17.037,11.186
			c-1.051,5.396,1.664,12.693,7.258,13.148c3.981,0.328,9.207-2.791,7.882-6.633c-5.155,3.737-6.697-3.923-0.31-4.039
			c2.353-0.047,4.408,1.751,5.436,4.869c0.911,2.791,0.146,10.287,1.997,14.911c1.483,3.714,3.771,7.684,6.638,6.772
			c1.828-0.584,2.043-3.76,3.935-2.768c-1.074,0.889-2.043,1.787-2.143,3.014c1.051,2.16,3.275,4.495,4.507,6.645v4.53
			c-0.391,0.374-0.905,0.735-1.6,1.051c-1.869,0.888-5.477-0.386-7.579,0.397c-3.421,1.237-6.457,5.137-7.199,7.986
			c-1.798,6.89,6.574,13.873,10.988,7.158c-0.35-0.759-2.294,1.344-2.119-0.361c1.186-3.316,5.237-3.761,7.52-2.477v9.086
			c-0.058,0.467-0.07,0.934,0,1.412v3.83h2.429h3.252v5.757h2.119v2.032h30.909c1.437,0.537,2.429,1.133,2.82,1.81
			c1.664,2.849,2.306,7.719-0.993,9.61c-8.729,4.975-12.769-8.256-2.843-6.049c-3.685-5.033-13.499-1.331-16.05,2.779
			c-3.655,5.885,3.194,16.838,10.2,19.361c7.152,2.604,16.132-1.496,19.77-6.54c3.655-5.114,2.709-11.782,7.899-16.348
			c1.641-1.46,4.426-2.709,5.92-1.074c2.633,2.849-3.147,10.883-3.672,14.585c-1.109,7.719,6.113,15.893,13.107,17.049
			c6.335,1.062,14.9-1.646,15.438-7.252c0.379-3.971-3.275-9.213-7.795-7.871c4.385,5.15-4.606,6.68-4.735,0.305
			c-0.052-2.359,2.055-4.414,5.705-5.442c3.275-0.911,12.074-0.14,17.48-1.985c4.338-1.494,9.003-3.771,7.94-6.644
			c-0.684-1.833-4.414-2.032-3.24-3.936c1.039,1.074,2.102,2.056,3.538,2.149c2.522-1.052,5.272-3.281,7.782-4.508h5.308
			c0.443,0.373,0.864,0.887,1.244,1.588c1.016,1.868-0.467,5.488,0.456,7.59c1.471,3.422,6.025,6.457,9.388,7.193
			c8.057,1.799,16.26-6.574,8.396-10.977c-0.911,0.339,1.564,2.289-0.421,2.102c-3.888-1.18-4.414-5.23-2.907-7.496h10.644
			c0.537,0.047,1.086,0.07,1.664,0h4.496h30.916c1.412,0.514,2.405,1.121,2.803,1.798c1.669,2.85,2.312,7.73-0.993,9.599
			c-8.723,4.998-12.763-8.244-2.825-6.049c-3.69-5.021-13.511-1.308-16.057,2.791c-3.667,5.896,3.188,16.85,10.206,19.373
			c7.146,2.592,16.126-1.519,19.757-6.563c3.679-5.091,2.732-11.771,7.906-16.348c1.646-1.448,4.426-2.686,5.92-1.051
			c2.639,2.849-3.141,10.883-3.678,14.573c-1.109,7.707,6.106,15.881,13.102,17.049c6.34,1.051,14.899-1.646,15.437-7.24
			c0.386-3.994-3.27-9.225-7.8-7.895c4.379,5.162-4.602,6.691-4.729,0.328c-0.047-2.359,2.056-4.414,5.687-5.442
			c3.281-0.911,12.098-0.151,17.504-2.009c4.332-1.471,9.004-3.76,7.93-6.632c-0.678-1.821-4.402-2.032-3.247-3.924
			c1.04,1.074,2.103,2.032,3.538,2.126c2.534-1.052,5.278-3.27,7.801-4.508h5.301c0.444,0.396,0.864,0.91,1.25,1.611
			c1.016,1.868-0.455,5.465,0.455,7.578c1.472,3.422,6.025,6.457,9.389,7.205c8.068,1.787,16.266-6.586,8.384-11
			c-0.888,0.351,1.577,2.301-0.408,2.125c-3.889-1.191-4.414-5.242-2.907-7.52h10.638c0.537,0.07,1.086,0.07,1.657,0h4.484v-2.031
			h2.113v-5.746h2.242h3.457v-26.367c0.525-1.214,1.121-2.066,1.81-2.404c2.826-1.426,7.707-1.975,9.599,0.852
			c4.986,7.438-8.256,10.871-6.037,2.418c-5.021,3.152-1.331,11.514,2.768,13.697c5.896,3.117,16.85-2.721,19.384-8.7
			c2.604-6.095-1.506-13.755-6.551-16.862c-5.103-3.129-11.771-2.312-16.348-6.725c-1.437-1.402-2.697-3.772-1.074-5.057
			c2.86-2.23,10.883,2.697,14.597,3.141c7.706,0.958,15.881-5.207,17.048-11.175C382.076,253.786,379.367,246.5,373.773,246.032z
			 M322.23,304.207H59.028V77.117H322.23V304.207z"/>
		<path d="M195.195,281.566c-37.384-19.84-39.171-73.508,22.631-87.994c6.106,0.251,31.282-8.133,29.998-31.283
			c-2.277-7.374,16.792,4.063,9.926,36.876c38.137-53.662-13.721-74.255-22.898-72.737c0.256-4.829-4.566-26.951-46.791-26.7
			c-42.207,0.251-84.945,33.578-77.553,94.345C116.602,216.722,148.65,268.603,195.195,281.566z"/>
	</g>
</g>
<g>
</g>
<g>
</g>
<g>
</g>
<g>
</g>
<g>
</g>
<g>
</g>
<g>
</g>
<g>
</g>
<g>
</g>
<g>
</g>
<g>
</g>
<g>
</g>
<g>
</g>
<g>
</g>
<g>
</g>
</svg>
