<?xml version="1.0" encoding="iso-8859-1"?>
<!-- Generator: Adobe Illustrator 16.0.0, SVG Export Plug-In . SVG Version: 6.00 Build 0)  -->
<!DOCTYPE svg PUBLIC "-//W3C//DTD SVG 1.1//EN" "http://www.w3.org/Graphics/SVG/1.1/DTD/svg11.dtd">
<svg version="1.1" id="Capa_1" xmlns="http://www.w3.org/2000/svg" xmlns:xlink="http://www.w3.org/1999/xlink" x="0px" y="0px"
	 width="382.662px" height="382.662px" viewBox="0 0 382.662 382.662" style="enable-background:new 0 0 382.662 382.662;"
	 xml:space="preserve">
<g>
	<g>
		<path d="M370.692,199.07c0.105-2.499,0.374-4.951,0.374-7.485c0-2.242-0.245-4.432-0.327-6.668
			c0.898-4.326,3.06-8.752,5.138-12.839c2.079-4.572,4.216-8.67,4.671-10.977c1.892-7.678-2.568-12.296-7.474-15.273
			c-3.479-2.172-7.169-3.585-9.481-5.162c-1.296-4.402-2.861-8.693-4.484-12.95c-0.467-4.583-0.023-9.604,0.374-14.182
			c0.584-5.074,1.378-9.687,1.121-12.057c-2.172-13.464-16.383-12.086-23.027-13.762c-2.662-3.708-5.372-7.38-8.291-10.871
			c-4.402-8.273-4.775-21.177-7.169-25.036c-6.003-12.413-19.338-6.06-26.087-5.634c-3.714-2.663-7.556-5.15-11.479-7.52
			c-6.552-6.901-11.549-18.188-14.818-21.562c-5.396-5.71-11.841-4.25-16.886-2.043c-3.713,1.605-6.912,3.97-9.552,5.155
			c-4.601-1.372-9.271-2.61-14.024-3.625c-8.278-4.181-16.289-13.44-20.399-15.192c-7.006-3.206-12.553-0.351-16.634,3.404
			c-2.949,2.966-5.22,6.276-7.316,8.238c-4.735,0.192-9.447,0.467-14.083,1.016c-9.283-1.051-20.114-7.613-24.609-7.724
			c-7.725-0.969-12.115,3.363-14.603,8.693c-1.862,3.719-2.954,7.573-4.35,10.019c-4.32,1.711-8.513,3.591-12.664,5.599
			c-9.353,1.711-21.485-0.274-26.092,0.631c-7.748,1.389-10.019,7.584-10.93,13.025c-0.677,4.017-0.444,8.046-0.893,10.889
			c-3.638,3.077-7.164,6.229-10.551,9.581c-7.964,4.747-20.47,6.218-24.031,8.845c-11.753,7.152-4.473,19.816-3.421,26.536
			c-2.365,3.959-4.578,7.999-6.65,12.15c-2.844,3.439-7.03,6.323-10.714,9.026c-4.017,3.036-7.853,5.605-9.395,7.426
			c-5.395,5.821-3.386,12.098-0.648,16.99c2.067,3.573,4.519,6.54,5.821,9.026c-0.951,4.595-1.611,9.266-2.218,13.955
			c-3.784,8.682-11.707,17.685-13.703,21.953c-4.379,12.781,8.478,18.362,13.592,23.01c0.602,4.822,1.255,9.645,2.248,14.351
			c-0.456,9.214-6.014,20.283-5.728,24.674c-0.444,13.756,14.1,14.573,20.341,17.353c2.032,4.156,4.21,8.209,6.551,12.167
			c1.355,4.274,1.495,9.365,1.723,13.942c0.333,5.021,0.409,9.646,1.086,11.911c1.938,7.706,8.291,9.435,13.873,9.844
			c4.151,0.233,7.975-0.222,10.795,0.058c3.305,3.281,6.796,6.377,10.334,9.389c5.354,7.742,8.25,19.828,10.93,23.576
			c4.648,6.154,10.889,6.283,16.284,4.904c4.04-1.214,7.643-3.07,10.416-3.771c4.174,2.066,8.419,3.994,12.769,5.733
			c3.661,2.511,6.937,6.224,9.855,9.879c3.299,3.877,6.253,7.286,8.191,8.688c3.13,2.265,6.23,2.988,9.073,2.744
			c2.896-0.456,5.535-1.846,7.905-3.48c3.393-2.348,6.16-5.185,8.524-6.68c4.606,0.572,9.277,0.888,13.989,1.121
			c8.991,3.002,18.643,10.404,23.086,11.795c7.473,2.65,12.424-1.904,15.811-6.225c2.464-3.246,4.181-6.703,5.92-8.934
			c4.706-0.98,9.283-2.241,13.826-3.561c9.377-0.188,20.891,3.889,25.468,3.725c7.684-0.537,11.21-5.71,12.997-10.965
			c1.202-4.052,1.6-8.104,2.533-10.812c3.877-2.301,7.684-4.706,11.374-7.287c4.203-1.845,9.225-2.65,14.024-3.094
			c5.056-0.689,9.539-1.25,11.758-2.114c7.404-2.662,8.922-8.815,8.677-14.608c-0.094-4.145-0.958-8.045-0.876-10.859
			c2.919-3.433,5.629-7.029,8.291-10.684c1.611-1.367,3.363-2.651,5.348-3.737c2.184-1.401,4.531-2.64,6.819-3.761
			c4.577-2.265,8.887-4.121,10.731-5.628c10.054-9.179,1.227-20.271-1.027-26.775c1.693-4.332,3.328-8.711,4.683-13.195
			c4.577-8.104,15.063-15.378,16.896-19.454C387.25,212.102,374.896,204.476,370.692,199.07z M192.178,350.755
			c-87.753,0-159.177-71.417-159.177-159.17c0-87.759,71.412-159.171,159.177-159.171c87.771,0,159.165,71.412,159.165,159.171
			C351.332,279.338,279.938,350.755,192.178,350.755z"/>
		<path d="M192.633,50.864c-78.429,0-142.232,63.804-142.232,142.216c0,78.423,63.804,142.239,142.232,142.239
			c78.43,0,142.233-63.805,142.233-142.239C334.867,114.656,271.063,50.864,192.633,50.864z M192.633,329.876
			c-75.428,0-136.779-61.362-136.779-136.785c0-75.411,61.352-136.786,136.779-136.786c75.429,0,136.78,61.363,136.78,136.774
			C329.414,268.502,268.062,329.876,192.633,329.876z"/>
		<rect x="141.756" y="280.75" width="51.537" height="8.232"/>
		<path d="M141.756,278.042h51.537V144.193h-51.537V278.042z M148.115,153.587h6.521v116.374h-6.521V153.587z"/>
		<path d="M141.756,140.818h51.537V92.107h-51.537V140.818z M148.115,94.816h6.521v43.672h-6.521V94.816z"/>
		<rect x="207.002" y="280.915" width="51.52" height="8.197"/>
		<path d="M253.536,133.31h-2.838v-3.573h-8.57v-14.754l-16.185-0.018v14.771h-9.751v3.573h-3.071v11.023h-6.119v133.849h51.52
			V144.333h-4.975V133.31H253.536z M219.871,270.114h-6.527V153.745h6.527V270.114z M234.174,126.135
			c-2.113,0-3.795-1.693-3.795-3.766c0-2.113,1.705-3.801,3.795-3.801c2.091,0,3.796,1.699,3.796,3.801
			C237.97,124.441,236.265,126.135,234.174,126.135z"/>
		<path d="M234.174,120.792c0.854,0,1.554,0.695,1.554,1.553c0,0.858-0.7,1.553-1.554,1.553c-0.852,0-1.553-0.695-1.553-1.553
			C232.622,121.487,233.323,120.792,234.174,120.792z"/>
	</g>
</g>
<g>
</g>
<g>
</g>
<g>
</g>
<g>
</g>
<g>
</g>
<g>
</g>
<g>
</g>
<g>
</g>
<g>
</g>
<g>
</g>
<g>
</g>
<g>
</g>
<g>
</g>
<g>
</g>
<g>
</g>
</svg>
