<?xml version="1.0" encoding="iso-8859-1"?>
<!-- Generator: Adobe Illustrator 16.0.0, SVG Export Plug-In . SVG Version: 6.00 Build 0)  -->
<!DOCTYPE svg PUBLIC "-//W3C//DTD SVG 1.1//EN" "http://www.w3.org/Graphics/SVG/1.1/DTD/svg11.dtd">
<svg version="1.1" id="Capa_1" xmlns="http://www.w3.org/2000/svg" xmlns:xlink="http://www.w3.org/1999/xlink" x="0px" y="0px"
	 width="31.815px" height="31.815px" viewBox="0 0 31.815 31.815" style="enable-background:new 0 0 31.815 31.815;"
	 xml:space="preserve">
<g>
	<g>
		<path d="M9.5,16.149c0.42-0.417,0.465-1.063,0.152-1.541l0.752-0.748c0.476,0.313,1.12,0.271,1.54-0.147
			c0.42-0.419,0.464-1.062,0.151-1.539l0.71-0.709c0.477,0.315,1.121,0.271,1.541-0.146c0.419-0.42,0.464-1.062,0.15-1.54
			l0.803-0.801c0.476,0.315,1.121,0.273,1.54-0.147c0.421-0.417,0.466-1.061,0.151-1.538l2.773-2.763c0,0,0.383-0.094,0.579-0.131
			c0.875-0.167,2.503-0.48,2.386-2.202c-0.047-0.666-0.28-1.083-0.699-1.24c-0.691-0.26-1.614,0.33-1.996,0.63l-0.008-0.003
			L0,21.543l0.262,0.265L20.131,2.002c0,0,1.225-0.862,1.758-0.662c0.252,0.096,0.399,0.394,0.434,0.885
			c0.086,1.256-0.969,1.565-2.055,1.774C19.941,4.061,19.6,4.175,19.6,4.175l-3.02,3.009l0.145,0.376
			c0.174,0.325,0.127,0.737-0.147,1.01c-0.274,0.274-0.688,0.319-1.011,0.142l-0.341-0.178l-1.133,1.13l0.138,0.381
			c0.175,0.326,0.128,0.737-0.146,1.011c-0.275,0.273-0.687,0.319-1.012,0.143l-0.358-0.162l-1.042,1.039l0.158,0.362
			c0.173,0.326,0.127,0.737-0.146,1.012c-0.275,0.273-0.688,0.317-1.012,0.144l-0.316-0.206L9.21,14.53l0.176,0.347
			c0.175,0.323,0.128,0.736-0.146,1.01c-0.298,0.298-0.86,0.213-1.094,0.095c-0.151-0.03-0.274-0.121-0.274-0.121l-5.477,5.458
			l0.263,0.263l5.304-5.286C8.437,16.609,9.082,16.567,9.5,16.149z"/>
		<path d="M31.296,11.592c-1.575-1.525-6.249,0.746-10.44,5.072c-2.6,2.684-4.689,6.614-5.021,7.66
			c-0.331,1.045-2.358,2.955-2.456,3.169s2.15,2.776,2.486,2.498c0.337-0.28,1.953-2.038,3.193-2.543
			c1.242-0.506,4.898-2.579,7.498-5.261C30.747,17.862,32.869,13.118,31.296,11.592z M22.342,18.13
			c2.27-2.343,4.54-4.071,5.946-4.626L17.906,24.22C18.416,22.796,20.073,20.473,22.342,18.13z M26.46,17.605l-4.285,4.422
			l-0.88-0.852l4.285-4.425L26.46,17.605z M18.768,25.543c-0.396,0.104-0.694,0.084-0.867-0.082
			c-0.135-0.132-0.182-0.347-0.149-0.629l2.647-2.732l0.879,0.853L18.768,25.543z M25.089,20.791
			c-2.103,2.171-4.208,3.816-5.624,4.486l9.932-10.25C28.771,16.466,27.191,18.622,25.089,20.791z M29.639,14.324l-2.283,2.355
			l-0.879-0.853l2.42-2.498c0.28-0.04,0.496-0.001,0.633,0.131C29.701,13.626,29.73,13.925,29.639,14.324z"/>
		<path d="M30.031,8.953c-0.311-0.753,0,0-0.275-0.868C21.968,8.22,12.903,21.856,12.903,21.856s2.012-10.217,15.594-16.39
			c-0.718-1.411,0.33,0.647-0.619-1.219C12.847,8.786,8.645,23.764,8.645,23.764l-5.131,2.323l1.126,1.236l5.2-0.082l-2.433,3.114
			l0.515,0.565l4.354-4.726C12.276,26.196,18.395,11.372,30.031,8.953z M10.663,25.313c-0.301,0.272-0.766,0.253-1.041-0.049
			c-0.274-0.301-0.252-0.768,0.048-1.04c0.3-0.273,0.766-0.252,1.04,0.048C10.984,24.574,10.964,25.039,10.663,25.313z"/>
	</g>
</g>
<g>
</g>
<g>
</g>
<g>
</g>
<g>
</g>
<g>
</g>
<g>
</g>
<g>
</g>
<g>
</g>
<g>
</g>
<g>
</g>
<g>
</g>
<g>
</g>
<g>
</g>
<g>
</g>
<g>
</g>
</svg>
