<?xml version="1.0" encoding="iso-8859-1"?>
<!-- Generator: Adobe Illustrator 16.0.0, SVG Export Plug-In . SVG Version: 6.00 Build 0)  -->
<!DOCTYPE svg PUBLIC "-//W3C//DTD SVG 1.1//EN" "http://www.w3.org/Graphics/SVG/1.1/DTD/svg11.dtd">
<svg version="1.1" id="Capa_1" xmlns="http://www.w3.org/2000/svg" xmlns:xlink="http://www.w3.org/1999/xlink" x="0px" y="0px"
	 width="373.178px" height="373.177px" viewBox="0 0 373.178 373.177" style="enable-background:new 0 0 373.178 373.177;"
	 xml:space="preserve">
<g>
	<path d="M336.406,49.29c-4.998-91.14-52.442-30.6-57.439-16.862c36.21-20.599,33.081,9.996,20.586,15.618
		c-12.471,5.617-88.629-26.209-114.225-31.832C159.731,10.592,82.949-8.763,64.225,106.706
		C45.5,222.18,106.052,232.188,36.771,257.142c43.678,51.624,72.054,30.897,84.945,14.315c4.77,6.248,7.543,10.896,5.5,13.838
		c-5.366,7.824-20.721,87.719-20.721,87.719l122.855,0.163c0,0-10.042-5.675-16.605-13.194c-4.496-5.162,1.354-15.321,7.871-32.977
		c0.888-2.383,6.188,1.004,9.622-7.041c3.409-8.046-3.387-12.098-2.569-14.527c0.7-2.137,1.237-1.856,1.682-3.561
		c0.911-4.904,3.129-7.848,6.153-9.6c45.798,1.402,57.721-0.863,46.394-32.613c1.472-1.344,9.669-6.656,11.408-10.463
		c1.74-3.771-2.382-4.729-2.382-4.729s3.001,0.163,5.22-3.316c2.219-3.491-3.795-17.118-3.795-17.118s15.191-3.316,18.52-9.016
		c3.328-5.698-26.752-40.671-25.631-47.023c1.098-6.323,6.165-9.324,7.59-10.901c1.437-1.594,4.788-18.765-13.756-46.072
		c-1.67-2.452-3.503-4.939-5.418-7.45C297.101,101.171,335.519,90.877,336.406,49.29z"/>
</g>
<g>
</g>
<g>
</g>
<g>
</g>
<g>
</g>
<g>
</g>
<g>
</g>
<g>
</g>
<g>
</g>
<g>
</g>
<g>
</g>
<g>
</g>
<g>
</g>
<g>
</g>
<g>
</g>
<g>
</g>
</svg>
