<?xml version="1.0" encoding="iso-8859-1"?>
<!-- Generator: Adobe Illustrator 16.0.0, SVG Export Plug-In . SVG Version: 6.00 Build 0)  -->
<!DOCTYPE svg PUBLIC "-//W3C//DTD SVG 1.1//EN" "http://www.w3.org/Graphics/SVG/1.1/DTD/svg11.dtd">
<svg version="1.1" id="Capa_1" xmlns="http://www.w3.org/2000/svg" xmlns:xlink="http://www.w3.org/1999/xlink" x="0px" y="0px"
	 width="374.835px" height="374.835px" viewBox="0 0 374.835 374.835" style="enable-background:new 0 0 374.835 374.835;"
	 xml:space="preserve">
<g>
	<g>
		<path d="M233.005,178.712c-3.877-19.74-37.74-31.435-45.599-16.628c-7.842-14.807-41.717-3.124-45.594,16.628
			c-5.091,20.663-32.007,26.326-46.965,15.571c0,23.331,25.135,23.646,40.677,25.14c36.83-1.635,48.466-18.601,51.882-26.366
			c3.444,7.765,15.075,24.731,51.904,26.366c15.554-1.494,40.671-1.798,40.671-25.14
			C265.023,205.038,238.12,199.375,233.005,178.712z"/>
		<path d="M187.406,315.061c6.106,0,11.058,4.939,11.058,11.046c0,6.096-4.951,11.046-11.058,11.046
			c-6.102,0-11.047-4.95-11.047-11.046C176.359,320,181.305,315.061,187.406,315.061z"/>
		<path d="M47.602,176.359c6.102,0,11.047,4.945,11.047,11.046c0,6.096-4.945,11.046-11.047,11.046
			c-6.101,0-11.046-4.951-11.046-11.046C36.555,181.305,41.5,176.359,47.602,176.359z"/>
		<path d="M328.944,176.359c6.107,0,11.047,4.945,11.047,11.046c0,6.096-4.939,11.046-11.047,11.046
			c-6.096,0-11.047-4.951-11.047-11.046C317.897,181.305,322.849,176.359,328.944,176.359z"/>
		<path d="M187.418,0.012C84.069,0.012,0,84.087,0,187.417c0,103.354,84.069,187.406,187.418,187.406
			c103.318,0,187.417-84.052,187.417-187.406C374.835,84.087,290.736,0.012,187.418,0.012z M187.418,362.819
			c-96.722,0-175.414-78.681-175.414-175.402S90.696,12.016,187.418,12.016c96.732,0,175.401,78.681,175.401,175.402
			S284.15,362.819,187.418,362.819z"/>
		<path d="M187.418,75.13c-61.912,0-112.287,50.375-112.287,112.287c0,61.924,50.375,112.299,112.287,112.299
			c61.911,0,112.286-50.375,112.286-112.299C299.704,125.505,249.329,75.13,187.418,75.13z M187.418,292.523
			c-57.954,0-105.106-47.129-105.106-105.106c0-57.954,47.152-105.105,105.106-105.105c57.965,0,105.105,47.152,105.105,105.105
			C292.512,245.395,245.383,292.523,187.418,292.523z"/>
	</g>
	<g>
		<g>
			<path d="M38.213,149.263c1.092-5.272,1.734-7.841,3.159-12.828c4.344,1.302,6.516,1.933,10.871,3.241
				c2.441-8.507,3.936-12.547,7.351-20.149c-4.11-1.95-6.171-2.931-10.282-4.881c2.009-4.461,3.083-6.598,5.383-10.772
				c10.294,5.92,15.461,8.898,25.742,14.789c-1.856,3.363-2.727,5.132-4.344,8.717c-4.612-2.189-6.93-3.311-11.549-5.5
				c-3.287,7.304-4.723,11.216-7.064,19.384c4.875,1.459,7.316,2.201,12.208,3.661c-1.162,4.017-1.664,6.084-2.545,10.329
				C55.565,152.888,49.791,151.68,38.213,149.263z"/>
			<path d="M68.346,83.369c2.919-3.661,4.437-5.395,7.596-8.77c13.872,2.633,20.505,4.688,32.748,10.06
				c-2.855,2.33-4.244,3.573-6.936,6.154c-2.721-1.051-4.122-1.553-6.918-2.487c-4.537,4.595-6.662,7.07-10.644,12.366
				c1.255,2.738,1.927,4.076,3.287,6.732c-2.178,3.077-3.217,4.677-5.179,7.987C75.545,103.541,72.679,97.048,68.346,83.369z
				 M81.933,95.647c2.931-3.742,4.46-5.511,7.666-8.886c-4.724-1.36-7.129-1.985-12.033-3.001c-0.035,0.047-0.059,0.07-0.094,0.123
				C79.101,88.688,79.994,91.041,81.933,95.647z"/>
			<path d="M93.184,59.01c3.491-2.68,5.284-3.947,8.944-6.341c6.627,9.902,9.926,14.842,16.523,24.732
				c-2.955,1.921-4.385,2.925-7.199,5.068C104.16,73.081,100.487,68.422,93.184,59.01z"/>
			<path d="M110.284,47.724c9.29-5.243,14.17-7.45,24.178-10.965c2.067-0.729,4.04-1.126,5.856-1.237
				c1.821-0.105,3.433,0.029,4.834,0.409c1.396,0.374,2.546,0.958,3.427,1.757c0.887,0.8,1.436,1.781,1.722,2.861
				c0.456,1.687,0.263,3.275-0.467,4.782c-0.724,1.506-2.184,2.884-4.35,4.233c0.012,0.035,0.012,0.035,0.023,0.07
				c1.208-0.128,2.259-0.058,3.146,0.169c0.882,0.228,1.623,0.584,2.271,1.074c0.63,0.491,1.145,1.028,1.553,1.688
				c0.409,0.66,0.753,1.337,1.004,2.043c0.181,0.456,0.35,0.981,0.549,1.583c0.205,0.595,0.444,1.226,0.707,1.827
				c0.251,0.596,0.549,1.162,0.911,1.699c0.355,0.537,0.776,0.958,1.278,1.255c-3.387,0.812-5.044,1.278-8.373,2.33
				c-0.403-0.356-0.742-0.777-1.062-1.279c-0.298-0.49-0.607-1.051-0.911-1.617c-0.298-0.561-0.561-1.121-0.823-1.705
				c-0.263-0.589-0.549-1.173-0.847-1.687c-0.806-1.366-1.81-2.236-3.024-2.575c-1.244-0.321-2.989-0.093-5.226,0.771
				c-3.567,1.372-5.313,2.148-8.781,3.777c2.049,4.175,3.065,6.218,5.109,10.375c-3.159,1.483-4.712,2.301-7.759,4.017
				C119.276,63.121,116.263,58.029,110.284,47.724z M125.85,54.789c3.923-1.857,5.92-2.703,9.96-4.233
				c2.067-0.777,3.55-1.641,4.426-2.645c0.87-1.004,1.074-2.184,0.596-3.597c-0.467-1.366-1.372-2.189-2.738-2.417
				c-1.372-0.228-3.165,0.082-5.366,0.922c-4.279,1.635-6.41,2.499-10.562,4.461C123.637,50.282,124.379,51.788,125.85,54.789z"/>
			<path d="M183.617,47.602c0.023,0.993,0.321,1.792,0.835,2.476c0.531,0.683,1.22,1.244,2.049,1.664
				c0.812,0.415,1.769,0.776,2.867,1.004c1.092,0.21,2.253,0.321,3.48,0.368c0.806,0.035,1.67,0.012,2.569-0.023
				c0.934-0.046,1.798-0.192,2.627-0.391c0.817-0.228,1.541-0.49,2.148-0.934c0.584-0.42,0.911-0.993,0.992-1.746
				c0.082-0.8-0.222-1.506-0.887-2.061c-0.689-0.561-1.646-1.074-2.814-1.506c-1.18-0.415-2.522-0.765-4.063-1.074
				c-1.542-0.31-3.095-0.631-4.671-0.935c-1.605-0.297-3.229-0.619-4.8-0.98c-1.564-0.356-3.001-0.835-4.279-1.407
				c-1.279-0.566-2.353-1.255-3.194-2.143c-0.846-0.87-1.349-1.997-1.465-3.369c-0.134-1.524,0.251-2.873,1.203-4.058
				c0.969-1.191,2.289-2.207,3.982-3.024c1.699-0.823,3.638-1.448,5.839-1.828c2.189-0.385,4.396-0.514,6.615-0.444
				c2.581,0.088,5.044,0.374,7.357,0.899c2.323,0.537,4.355,1.325,6.048,2.306c1.728,0.981,2.99,2.125,3.83,3.457
				c0.853,1.337,1.145,2.878,0.864,4.577c-3.9-0.607-5.862-0.847-9.786-1.208c0.023-0.881-0.222-1.658-0.677-2.259
				c-0.456-0.596-1.075-1.109-1.904-1.495c-0.806-0.38-1.763-0.678-2.861-0.87c-1.098-0.193-2.3-0.31-3.55-0.351
				c-0.847-0.023-1.67,0.029-2.517,0.123c-0.853,0.105-1.617,0.274-2.312,0.56c-0.695,0.263-1.244,0.637-1.658,1.051
				c-0.444,0.444-0.66,0.958-0.648,1.57c0.012,0.584,0.204,1.04,0.549,1.384c0.351,0.362,1.039,0.695,2.032,0.969
				c1.004,0.274,2.382,0.596,4.133,0.958c1.751,0.374,4.041,0.847,6.82,1.53c0.525,0.134,1.261,0.286,2.125,0.514
				c0.864,0.239,1.751,0.525,2.721,0.899c0.946,0.356,1.88,0.835,2.791,1.36c0.911,0.537,1.728,1.162,2.429,1.856
				c0.712,0.718,1.214,1.542,1.541,2.446c0.339,0.911,0.444,1.927,0.257,3.019c-0.233,1.326-0.841,2.446-1.751,3.48
				c-0.935,1.039-2.125,1.862-3.644,2.51c-1.506,0.654-3.316,1.133-5.395,1.419c-2.091,0.304-4.461,0.351-7.123,0.251
				c-2.178-0.082-4.269-0.298-6.312-0.707c-2.05-0.379-3.877-0.963-5.488-1.74c-1.617-0.782-2.978-1.775-4.069-3.03
				c-1.086-1.244-1.723-2.727-1.851-4.531C178.175,47.818,179.979,47.695,183.617,47.602z"/>
			<path d="M229.069,38.966c-5.465-1.529-8.232-2.172-13.813-3.188c0.421-2.155,0.631-3.217,1.039-5.36
				c15.823,2.873,23.646,5.307,38.255,12.173c-0.97,1.973-1.46,2.931-2.43,4.904c-5.149-2.417-7.788-3.491-13.137-5.395
				c-3.374,9.05-5.091,13.575-8.478,22.636c-3.27-1.173-4.916-1.71-8.267-2.645C224.972,52.827,226.349,48.215,229.069,38.966z"/>
			<path d="M260.866,66.641c-1.494-9.534-2.709-14.339-6.072-23.956c4.414,2.084,6.586,3.229,10.825,5.669
				c1.623,6.352,2.23,9.505,3.095,15.781c6.212-1.43,9.411-1.997,15.997-2.697c3.818,3.095,5.687,4.735,9.249,8.174
				c-10.498,0.076-15.602,0.648-25.246,2.633c-2.744,3.649-4.122,5.442-6.866,9.085c-2.826-2.102-4.298-3.094-7.264-4.963
				C257.095,72.486,258.368,70.524,260.866,66.641z"/>
			<path d="M296.995,72.62c3.13,3.199,4.625,4.898,7.532,8.39c-7.392,6.265-11.116,9.377-18.509,15.642
				c5.419,6.516,7.918,10.077,12.297,17.778c-1.893,1.127-2.838,1.699-4.741,2.814c-6.072-10.714-9.728-15.466-17.831-23.775
				C284.244,85.138,288.483,80.963,296.995,72.62z"/>
			<path d="M322.288,108.001c7.45,14.585,10.404,22.677,14.176,40.59c-2.137,0.455-3.211,0.706-5.348,1.162
				c-2.569-12.197-4.367-17.889-8.746-28.48c-2.324,1.016-3.492,1.542-5.804,2.557c3.842,9.301,5.441,14.252,7.847,24.849
				c-1.973,0.456-2.942,0.671-4.904,1.121c-2.312-10.212-3.854-14.982-7.578-23.95c-2.65,1.162-3.982,1.722-6.633,2.873
				c3.912,9.447,5.5,14.549,7.766,25.444c-2.148,0.444-3.223,0.671-5.371,1.109c-3.037-14.696-5.442-21.34-11.537-33.274
				C306.595,116.403,311.813,113.595,322.288,108.001z"/>
		</g>
	</g>
</g>
<g>
</g>
<g>
</g>
<g>
</g>
<g>
</g>
<g>
</g>
<g>
</g>
<g>
</g>
<g>
</g>
<g>
</g>
<g>
</g>
<g>
</g>
<g>
</g>
<g>
</g>
<g>
</g>
<g>
</g>
</svg>
