<?xml version="1.0" encoding="iso-8859-1"?>
<!-- Generator: Adobe Illustrator 16.0.0, SVG Export Plug-In . SVG Version: 6.00 Build 0)  -->
<!DOCTYPE svg PUBLIC "-//W3C//DTD SVG 1.1//EN" "http://www.w3.org/Graphics/SVG/1.1/DTD/svg11.dtd">
<svg version="1.1" id="Capa_1" xmlns="http://www.w3.org/2000/svg" xmlns:xlink="http://www.w3.org/1999/xlink" x="0px" y="0px"
	 width="381.153px" height="381.152px" viewBox="0 0 381.153 381.152" style="enable-background:new 0 0 381.153 381.152;"
	 xml:space="preserve">
<g>
	<g>
		<path d="M315.743,282.703c0-38.535-28.842-71.301-69.198-83.959v-54.083H169.19v55.262c-38.4,13.463-65.41,45.459-65.41,82.803
			c0,31.096,18.736,58.467,47.169,74.546v23.88h116.987V357.6C296.698,341.555,315.743,314.044,315.743,282.703z"/>
		<path d="M180.82,97.802c1.77,3.538,1.104,22.093,0.765,29.245h-5.488v14.158h64.469v-14.158h-5.979v-26.723l32.976-19.314h34.799
			V70.956h-31.751l-36.607-19.729l-0.07,0.105L89.931,0l-11,27.99l35.849,18.24v24.843L65.41,172.64l5.657,5.342
			C71.067,177.994,144.031,81.454,180.82,97.802z M234.587,88.664V62.992l22.841,12.29L234.587,88.664z"/>
	</g>
</g>
<g>
</g>
<g>
</g>
<g>
</g>
<g>
</g>
<g>
</g>
<g>
</g>
<g>
</g>
<g>
</g>
<g>
</g>
<g>
</g>
<g>
</g>
<g>
</g>
<g>
</g>
<g>
</g>
<g>
</g>
</svg>
