<?xml version="1.0" encoding="iso-8859-1"?>
<!-- Generator: Adobe Illustrator 16.0.0, SVG Export Plug-In . SVG Version: 6.00 Build 0)  -->
<!DOCTYPE svg PUBLIC "-//W3C//DTD SVG 1.1//EN" "http://www.w3.org/Graphics/SVG/1.1/DTD/svg11.dtd">
<svg version="1.1" id="Capa_1" xmlns="http://www.w3.org/2000/svg" xmlns:xlink="http://www.w3.org/1999/xlink" x="0px" y="0px"
	 width="386.116px" height="386.116px" viewBox="0 0 386.116 386.116" style="enable-background:new 0 0 386.116 386.116;"
	 xml:space="preserve">
<g>
	<g>
		<path d="M214.958,42.587c-7.532-1.15-15.168-1.723-22.718-1.723c-74.278,0-138.654,55.437-149.741,128.951
			C30.039,252.424,87.111,329.786,169.75,342.268c7.521,1.133,15.163,1.717,22.694,1.717c74.278,0,138.666-55.443,149.748-128.951
			c6.025-39.958-3.9-79.935-27.955-112.538C290.17,69.882,254.928,48.601,214.958,42.587z M339.213,214.579
			c-10.871,72.06-73.986,126.404-146.781,126.404c-7.403,0-14.888-0.572-22.25-1.692c-80.998-12.214-136.96-88.034-124.729-169.032
			C56.324,98.199,119.421,43.854,192.228,43.854c7.403,0,14.906,0.572,22.274,1.675c39.165,5.903,73.74,26.77,97.316,58.73
			C335.395,136.237,345.134,175.408,339.213,214.579z"/>
		<path d="M380.516,198.196c1.961-2.954,3.666-5.5,4.285-7.246c2.732-6.574,0.853-12.623-5.535-17.936
			c-0.747-0.654-1.482-1.133-2.242-1.705c1.822-3.936,3.608-7.485,4.018-9.558c1.891-7.66-2.581-12.302-7.497-15.268
			c-1.133-0.718-2.254-1.255-3.375-1.828c0.304-1.378,0.596-2.738,0.923-4.128c0.35-1.255,0.7-2.475,1.027-3.643
			c1.004-3.491,1.868-6.51,1.95-8.553c-0.104-10.2-7.509-13.878-13.931-15.975c0.549-4.338,1.133-8.215,0.91-10.293
			c-1.576-9.721-9.388-11.706-16.148-12.687c-0.199-2.306-0.339-4.642-0.433-6.708c-0.187-4.355-0.315-7.783-1.168-9.709
			c-2.978-9.64-11.069-10.749-16.896-10.749c-0.432,0-0.817,0.047-1.249,0.047c-0.853-4.355-1.53-8.156-2.663-9.949
			c-4.332-8.98-12.482-8.157-19.22-6.843c-1.04-2.283-2.021-4.601-2.873-6.656c-1.471-3.614-2.732-6.72-3.982-8.442
			c-2.802-4.04-6.714-6.083-11.63-6.083c-1.927,0-4.017,0.297-6.388,0.928c-0.969,0.251-1.774,0.636-2.697,0.958
			c-2.242-3.754-4.156-7.053-5.675-8.624c-5.406-5.722-11.841-4.268-16.908-2.055c-1.308,0.561-2.464,1.255-3.644,1.927
			c-1.682-1.781-3.281-3.638-4.706-5.284c-2.721-3.182-4.869-5.704-6.69-6.831c-5.839-3.812-12.051-3.562-18.695,0.946
			c-0.794,0.613-1.425,1.22-2.172,1.816c-3.34-2.867-6.189-5.412-8.139-6.253c-7.024-3.206-12.588-0.345-16.675,3.41
			c-0.993,1.051-1.851,2.119-2.738,3.159c-2.02-1.092-4.017-2.225-5.885-3.328c-3.777-2.248-6.767-4.017-8.846-4.385
			c-7.07-1.974-13.061,0.461-17.375,7.006c-0.561,0.788-0.958,1.53-1.448,2.306c-4.075-1.646-7.637-3.159-9.733-3.206
			c-7.724-0.958-12.132,3.363-14.62,8.717c-0.648,1.255-1.115,2.499-1.617,3.742c-2.487-0.379-4.963-0.835-7.281-1.278
			c-3.591-0.707-6.697-1.279-8.816-1.279H113.6c-10.235,0.286-13.166,9.324-14.135,12.29c-0.298,0.934-0.432,1.798-0.66,2.715
			c-4.326-0.169-8.104-0.368-10.234,0.035c-7.748,1.413-10.031,7.62-10.942,13.061c-0.239,1.384-0.286,2.738-0.368,4.063
			c-2.271,0.385-4.595,0.718-6.767,0.981c-4.368,0.537-7.824,0.958-9.698,1.962c-9.47,3.97-9.855,12.231-9.161,18.963
			c-4.209,1.174-7.871,2.166-9.529,3.386c-8.466,5.162-7.07,13.137-5.225,19.729c-0.887,0.479-1.746,0.981-2.645,1.431l-1.29,0.671
			c-1.15,0.636-2.26,1.22-3.334,1.781c-3.159,1.664-5.885,3.088-7.298,4.332c-8.127,6.504-4.747,15.472-3.631,18.438
			c0.345,0.893,0.753,1.658,1.133,2.499c-3.457,2.546-6.586,4.735-7.929,6.323c-5.389,5.839-3.381,12.127-0.654,17.031
			c0.707,1.203,1.431,2.248,2.16,3.311c-1.862,2.125-3.801,4.163-5.546,5.955c-2.476,2.592-4.625,4.805-5.821,6.633
			c-4.665,9.021,0.023,15.775,4.647,20.674c-2.423,3.456-4.624,6.469-5.547,8.425c-3.153,9.249,2.691,14.713,8.098,18.8
			c-0.922,2.113-1.927,4.239-2.896,6.189c-1.962,4.005-3.515,7.158-3.684,9.271c-1.863,10.159,4.916,14.993,10.965,18.088
			c-1.302,4.134-2.487,7.73-2.341,9.773c-0.31,9.891,7.076,13.078,13.592,15.134c-0.093,1.109-0.151,2.219-0.263,3.305l-0.151,1.167
			c-0.111,1.262-0.228,2.5-0.339,3.69c-0.333,3.573-0.642,6.668-0.368,8.548c1.004,10.299,10.34,12.436,13.452,13.137
			c0.993,0.222,1.875,0.292,2.82,0.432c0.251,4.263,0.374,8.069,0.969,10.066c1.938,7.719,8.296,9.435,13.896,9.855
			c1.337,0.07,2.568,0.023,3.824,0.012c0.683,2.521,1.243,5.067,1.745,7.344c0.864,3.971,1.56,7.111,2.534,9.039
			c3.352,6.212,9.271,8.828,16.908,8.045c1.081-0.151,2.009-0.396,3.024-0.619c1.548,4.018,2.838,7.521,4.07,9.249
			c4.647,6.165,10.906,6.294,16.295,4.893c1.302-0.386,2.487-0.876,3.708-1.343c0.823,1.272,1.699,2.604,2.371,3.76
			c2.878,4.683,5.237,8.385,7.029,10.124c2.809,2.744,6.014,4.263,9.663,4.519c2.785-0.034,5.728-0.828,8.979-2.439
			c0.905-0.444,1.658-0.935,2.499-1.414c2.82,3.305,5.331,6.143,7.041,7.357c3.147,2.254,6.241,2.989,9.103,2.744
			c2.89-0.467,5.547-1.846,7.911-3.504c1.08-0.746,1.997-1.529,2.954-2.323c2.079,1.577,4.093,3.188,5.874,4.647
			c3.001,2.464,5.593,4.578,7.473,5.5c2.137,1.133,4.292,1.705,6.446,1.705c5.149,0,9.242-3.281,11.881-5.769
			c0.765-0.759,1.366-1.495,2.061-2.254c3.69,2.195,6.913,4.157,8.968,4.8c7.497,2.639,12.425-1.916,15.834-6.26
			c0.782-1.051,1.424-2.09,2.09-3.129c2.487,0.817,4.928,1.717,7.1,2.545c3.76,1.414,6.737,2.535,8.886,2.791
			c7.042,0.514,12.332-2.744,15.986-9.773c0.467-0.992,0.771-1.927,1.145-2.896c4.238,0.9,7.94,1.752,10.089,1.693
			c7.707-0.537,11.222-5.732,13.021-10.977c0.396-1.342,0.63-2.627,0.898-3.911c1.425,0.012,2.838,0.046,4.285,0.128
			c2.044,0.047,3.994,0.082,5.746,0.082c3.188,0,5.207-0.141,6.527-0.432c7.064-1.391,11.093-6.248,11.969-14.445
			c0.129-1.016,0.141-1.914,0.187-2.896c4.367-0.572,8.163-1.109,10.124-1.868c7.427-2.674,8.945-8.828,8.688-14.632
			c-0.034-1.284-0.187-2.487-0.314-3.713c1.354-0.503,2.732-1.063,4.04-1.495c1.237-0.396,2.452-0.771,3.632-1.121
			c3.607-1.109,6.457-1.961,8.221-3c8.57-5.734,7.52-14.061,5.745-20.6c3.923-1.891,7.438-3.479,9.062-4.775
			c7.239-6.621,4.693-14.199,1.856-20.365c1.798-1.412,3.667-2.791,5.441-4.063c3.538-2.522,6.317-4.519,7.462-6.259
			c6.551-8.021,2.814-15.53-1.051-21.158c3.188-3.107,6.002-5.746,6.865-7.672c5.033-8.514,0.023-14.842-4.74-19.735
			c0.782-1.203,1.553-2.359,2.405-3.573C379.125,200.263,379.838,199.2,380.516,198.196z M14.45,240.805
			c-5.477-2.86-10.346-6.679-8.851-14.783c0.134-1.716,1.722-4.928,3.397-8.337c0.882-1.786,1.781-3.737,2.651-5.687
			c1.162,0.829,2.248,1.647,3.088,2.406c0.596,4.823,1.256,9.669,2.248,14.374C16.78,232.678,15.641,236.871,14.45,240.805z
			 M14.841,169.371c-1.646,3.766-4.075,7.555-6.469,11.035c-4.029-4.373-7.374-9.686-3.778-16.616
			c0.97-1.46,3.024-3.603,5.407-6.078c1.577-1.652,3.334-3.526,5.056-5.441c0.753,1.104,1.507,2.189,2.009,3.135
			C16.108,160.006,15.455,164.671,14.841,169.371z M340.522,74.01c0.677,1.553,0.816,5.074,0.969,8.775
			c0.094,1.892,0.257,4.046,0.42,6.16c-1.447-0.204-2.802-0.379-3.935-0.671c-2.663-3.713-5.36-7.397-8.291-10.9
			c-1.892-3.567-3.024-7.964-3.912-12.173C331.647,65.065,338.023,65.941,340.522,74.01z M279.17,28.13
			c7.17-1.915,11.606-0.66,14.807,3.97c1.039,1.472,2.253,4.426,3.654,7.841c0.782,1.892,1.717,4.029,2.662,6.136
			c-1.424,0.286-2.779,0.537-3.899,0.625c-3.749-2.692-7.567-5.167-11.502-7.549c-2.826-2.978-5.337-6.744-7.579-10.363
			C277.932,28.574,278.516,28.288,279.17,28.13z M221.135,8.711c5.523-3.742,10.462-4.063,15.356-0.87
			c1.459,0.905,3.678,3.515,6.025,6.253c1.272,1.506,2.755,3.176,4.262,4.805c-1.121,0.654-2.242,1.325-3.223,1.769
			c-4.613-1.372-9.283-2.622-14.048-3.626c-3.468-1.74-6.878-4.385-9.984-7.006C220.072,9.611,220.562,9.132,221.135,8.711z
			 M160.017,9.36c2.785-4.222,6.265-6.364,10.305-6.364c1.209,0,2.476,0.193,3.936,0.584c1.699,0.304,4.747,2.131,7.987,4.046
			c1.629,0.963,3.515,2.009,5.395,3.036c-0.876,1.039-1.746,2.102-2.534,2.843c-4.735,0.193-9.458,0.467-14.1,1.028
			c-3.958-0.456-8.145-1.933-12.062-3.48C159.31,10.492,159.608,9.932,160.017,9.36z M102.309,29.899
			c2.248-6.924,5.751-10.089,11.718-10.247c1.845,0,4.822,0.561,8.255,1.232c2.02,0.38,4.315,0.789,6.632,1.156
			c-0.502,1.273-0.992,2.551-1.529,3.479c-4.314,1.711-8.524,3.579-12.688,5.588c-4.04,0.729-8.583,0.776-12.839,0.66
			C102.022,31.131,102.092,30.519,102.309,29.899z M62.075,54.486c1.506-0.8,5.033-1.232,8.775-1.699
			c1.892-0.239,4.041-0.561,6.16-0.911c-0.059,1.354-0.111,2.715-0.274,3.807c-3.649,3.083-7.176,6.242-10.562,9.599
			c-3.404,2.032-7.602,3.433-11.607,4.63C53.965,63.787,54.532,57.639,62.075,54.486z M22.256,121.191
			c-0.263-0.607-0.549-1.121-0.788-1.74c-2.569-6.843-1.746-11.467,2.75-15.069c1.208-1.062,3.777-2.417,6.767-3.993
			c1.086-0.561,2.225-1.162,3.346-1.769l1.272-0.66c0.677-0.344,1.396-0.765,2.09-1.144c0.42,1.407,0.788,2.75,0.969,3.894
			c-2.359,3.97-4.566,8.011-6.639,12.162C29.409,116.03,25.701,118.692,22.256,121.191z M37.822,295.536
			c-7.146-1.635-10.579-4.857-11.128-10.556c-0.216-1.6,0.058-4.53,0.391-7.929c0.123-1.191,0.239-2.429,0.339-3.678l0.117-1.145
			c0.099-0.853,0.134-1.811,0.216-2.709c1.436,0.432,2.796,0.852,3.865,1.331c2.031,4.157,4.232,8.221,6.562,12.19
			c1.243,3.936,1.448,8.524,1.664,12.787C39.165,295.735,38.517,295.688,37.822,295.536z M79.544,340.283
			c-0.776,0.082-1.565,0.128-2.353,0.128c-5.359,0-9.149-2.172-11.543-6.597c-0.788-1.554-1.471-4.683-2.259-8.279
			c-0.456-2.079-1.016-4.391-1.6-6.702c1.395-0.035,2.773-0.082,3.906,0.023c3.316,3.293,6.819,6.398,10.346,9.411
			c2.341,3.375,4.198,7.567,5.774,11.549C81.05,339.979,80.321,340.167,79.544,340.283z M133.708,368.706
			c-2.832,1.412-5.354,2.125-7.579,2.148c-2.785-0.199-5.36-1.425-7.654-3.679c-1.553-1.495-3.894-5.208-6.551-9.505
			c-0.583-1.004-1.377-2.172-2.078-3.27c1.384-0.561,2.738-1.098,3.859-1.367c4.198,2.056,8.442,3.994,12.78,5.723
			c3.34,2.301,6.317,5.616,9.044,8.921C134.917,368.016,134.356,368.401,133.708,368.706z M194.143,378.164
			c-2.248,2.137-5.728,4.951-9.814,4.951c-1.652,0-3.352-0.456-5.097-1.378c-1.6-0.771-4.075-2.791-6.936-5.15
			c-1.623-1.318-3.48-2.768-5.342-4.203c1.121-0.934,2.212-1.846,3.17-2.452c4.612,0.561,9.277,0.888,14.001,1.098
			c3.882,1.296,7.817,3.433,11.479,5.534C195.112,377.1,194.68,377.649,194.143,378.164z M254.45,367.724
			c-2.85,5.488-6.727,8.174-11.817,8.174c-0.397,0-0.817-0.023-1.191-0.046c-1.739-0.211-4.706-1.32-8.127-2.628
			c-1.974-0.747-4.216-1.542-6.458-2.288c0.748-1.203,1.448-2.371,2.149-3.259c4.694-0.981,9.283-2.218,13.837-3.573
			c4.018-0.07,8.361,0.666,12.448,1.483C255.01,366.299,254.777,367.024,254.45,367.724z M307.849,337.936
			c-0.747,6.843-3.877,10.73-9.622,11.852c-1.472,0.34-4.087,0.374-5.908,0.374c-1.752,0-3.679-0.034-5.652-0.081
			c-1.214-0.07-2.452-0.094-3.701-0.105c0.292-1.437,0.561-2.861,0.945-3.959c3.877-2.312,7.695-4.729,11.386-7.31
			c3.783-1.67,8.29-2.429,12.681-2.907C307.942,336.523,307.942,337.188,307.849,337.936z M343.792,307.014
			c-1.39,0.807-4.228,1.682-7.509,2.687c-1.18,0.351-2.417,0.735-3.69,1.133c-1.109,0.362-2.241,0.841-3.351,1.249
			c-0.176-1.471-0.339-2.907-0.304-4.087c2.919-3.421,5.64-7.029,8.291-10.696c1.623-1.354,3.362-2.639,5.371-3.748
			c1.845-1.191,3.818-2.219,5.78-3.211C349.91,296.19,350.435,302.566,343.792,307.014z M192.386,351.692
			c-87.899,0-159.404-71.5-159.404-159.393c0-87.905,71.504-159.41,159.404-159.41c87.906,0,159.392,71.504,159.392,159.41
			C351.778,280.192,280.292,351.692,192.386,351.692z M359.824,115.394c5.675,1.915,11.187,4.975,11.257,12.903
			c-0.059,1.605-0.923,4.595-1.834,7.759c-0.326,1.174-0.688,2.406-1.098,3.947c-0.256,1.004-0.467,2.102-0.7,3.159
			c-1.249-0.636-2.487-1.244-3.397-1.868c-1.32-4.408-2.885-8.717-4.508-12.961C359.124,124.157,359.473,119.65,359.824,115.394z
			 M372.528,251.723c-0.922,1.402-3.771,3.434-6.795,5.605c-1.554,1.109-3.27,2.43-4.975,3.736c-0.643-1.33-1.238-2.615-1.623-3.725
			c1.704-4.344,3.339-8.723,4.693-13.207c1.938-3.444,4.939-6.714,7.895-9.668C375.214,239.603,377.76,245.313,372.528,251.723z
			 M375.961,199.679c-0.735,1.016-1.366,2.055-2.066,3.071c-1.051-1.051-2.021-2.043-2.732-2.954
			c0.104-2.499,0.385-4.975,0.385-7.497c0-2.253-0.257-4.431-0.338-6.679c0.793-3.883,2.65-7.818,4.519-11.549
			c0.549,0.403,1.086,0.753,1.623,1.221c5.43,4.53,6.925,9.143,4.694,14.584c-0.537,1.465-2.148,3.871-4.006,6.662
			C377.339,197.554,376.627,198.628,375.961,199.679z"/>
		<polygon points="104.358,176.961 89.516,176.961 89.516,160.152 81.459,160.152 81.459,203.964 89.516,203.964 89.516,185.059 
			104.358,185.059 104.358,203.964 112.427,203.964 112.427,160.152 104.358,160.152 		"/>
		<path d="M132.623,184.627c-0.8,0.251-1.723,0.42-2.738,0.549c-1.028,0.123-2.114,0.286-3.241,0.491
			c-1.138,0.216-2.248,0.479-3.31,0.829c-1.069,0.344-2.044,0.858-2.896,1.564c-0.858,0.707-1.541,1.629-2.055,2.785
			c-0.514,1.162-0.765,2.657-0.765,4.443c0,1.635,0.228,3.048,0.695,4.239c0.461,1.179,1.109,2.16,1.921,2.942
			c0.817,0.759,1.769,1.343,2.873,1.74c1.098,0.385,2.271,0.584,3.55,0.584c1.641,0,3.241-0.292,4.817-0.899
			c1.582-0.584,2.942-1.6,4.116-3.036c0.035,0.537,0.093,1.062,0.181,1.576c0.082,0.514,0.199,1.016,0.333,1.506h7.392
			c-0.351-0.666-0.59-1.646-0.729-2.942c-0.146-1.308-0.205-2.698-0.205-4.122v-16.506c0-1.88-0.362-3.41-1.086-4.601
			c-0.718-1.197-1.641-2.108-2.768-2.768c-1.132-0.654-2.376-1.086-3.743-1.313c-1.36-0.228-2.727-0.321-4.052-0.321
			c-1.518,0-2.989,0.181-4.426,0.514c-1.43,0.345-2.738,0.935-3.894,1.746c-1.162,0.812-2.131,1.903-2.873,3.252
			c-0.753,1.343-1.186,3.048-1.279,5.091h7.281c0.146-1.717,0.637-2.949,1.471-3.69c0.841-0.742,1.962-1.104,3.363-1.104
			c0.643,0,1.244,0.052,1.816,0.158c0.561,0.105,1.062,0.297,1.482,0.619c0.433,0.304,0.765,0.742,1.028,1.285
			c0.263,0.537,0.385,1.29,0.385,2.242c0,0.899-0.239,1.583-0.718,2.061C134.07,184.032,133.422,184.388,132.623,184.627z
			 M135.267,191.68c0,0.49-0.041,1.144-0.134,1.961c-0.082,0.818-0.309,1.624-0.695,2.429c-0.368,0.782-0.957,1.483-1.746,2.055
			c-0.777,0.572-1.886,0.853-3.322,0.853c-0.584,0-1.162-0.07-1.699-0.187c-0.549-0.128-1.028-0.327-1.448-0.654
			c-0.403-0.304-0.741-0.724-0.969-1.238c-0.251-0.502-0.356-1.168-0.356-1.985c0-0.771,0.123-1.436,0.356-1.997
			c0.239-0.561,0.555-1.004,0.945-1.343c0.397-0.345,0.853-0.625,1.366-0.823c0.514-0.205,1.062-0.362,1.635-0.491
			c0.555-0.123,1.127-0.228,1.734-0.298c0.602-0.087,1.162-0.192,1.699-0.303c0.525-0.128,1.027-0.274,1.482-0.461
			c0.467-0.193,0.847-0.432,1.162-0.771v3.252H135.267z"/>
		<rect x="148.404" y="172.226" width="7.287" height="31.727"/>
		<rect x="148.404" y="160.152" width="7.287" height="7.188"/>
		<path d="M161.441,172.226v31.727h7.292V189.66c0-1.384,0.117-2.715,0.356-3.953c0.24-1.249,0.648-2.335,1.208-3.258
			c0.566-0.917,1.308-1.646,2.236-2.172c0.923-0.537,2.061-0.806,3.387-0.806c0.443,0,0.904,0.041,1.383,0.099
			c0.479,0.059,0.887,0.146,1.244,0.228v-8.11c-0.514-0.216-1.051-0.298-1.6-0.298c-0.888,0-1.758,0.169-2.645,0.49
			c-0.881,0.321-1.693,0.777-2.435,1.378c-0.742,0.596-1.424,1.302-1.997,2.149c-0.59,0.841-1.057,1.746-1.39,2.738h-0.105v-5.891
			h-6.936V172.226z"/>
		<path d="M210.1,198.091c-0.467,0.292-0.981,0.537-1.542,0.677s-1.121,0.222-1.635,0.222c-0.712,0-1.401-0.105-2.079-0.303
			c-0.666-0.199-1.238-0.526-1.757-0.946c-0.514-0.432-0.934-0.981-1.255-1.658c-0.321-0.689-0.49-1.483-0.49-2.429h-6.925
			c0.059,2.09,0.467,3.854,1.209,5.278c0.741,1.424,1.675,2.592,2.82,3.457c1.15,0.875,2.452,1.506,3.923,1.868
			c1.472,0.374,2.978,0.561,4.519,0.561c1.506,0,2.99-0.187,4.437-0.561c1.46-0.362,2.756-0.981,3.877-1.822
			c1.133-0.864,2.044-1.997,2.756-3.41c0.701-1.413,1.051-3.176,1.051-5.243c0-1.471-0.257-2.709-0.735-3.713
			c-0.479-1.004-1.109-1.839-1.903-2.522c-0.771-0.683-1.682-1.22-2.686-1.629c-1.016-0.403-2.056-0.753-3.106-1.039
			c-1.027-0.286-2.043-0.561-3.036-0.8c-0.992-0.239-1.868-0.514-2.65-0.823c-0.759-0.303-1.39-0.706-1.874-1.197
			c-0.479-0.49-0.719-1.127-0.719-1.903c0-0.654,0.129-1.185,0.403-1.565c0.263-0.385,0.613-0.694,1.01-0.887
			c0.386-0.216,0.829-0.333,1.308-0.391c0.479-0.07,0.911-0.1,1.32-0.1c1.296,0,2.429,0.286,3.386,0.888
			c0.958,0.596,1.495,1.734,1.6,3.41h6.925c-0.14-1.962-0.561-3.603-1.25-4.881c-0.701-1.279-1.588-2.318-2.651-3.095
			c-1.062-0.776-2.253-1.331-3.62-1.664c-1.366-0.333-2.732-0.491-4.18-0.491c-1.448,0-2.85,0.158-4.228,0.456
			s-2.609,0.835-3.707,1.6c-1.086,0.753-1.974,1.798-2.645,3.135c-0.666,1.337-1.004,2.989-1.004,4.998
			c0,1.384,0.251,2.569,0.73,3.526s1.115,1.757,1.903,2.394c0.777,0.631,1.687,1.145,2.692,1.53
			c1.016,0.391,2.043,0.742,3.105,1.016c1.308,0.321,2.464,0.648,3.492,0.958c1.028,0.298,1.892,0.642,2.604,1.004
			c0.701,0.362,1.238,0.782,1.623,1.249c0.386,0.467,0.561,1.04,0.561,1.705c0,0.759-0.152,1.401-0.455,1.915
			C210.941,197.378,210.567,197.787,210.1,198.091z"/>
		<path d="M225.222,162.721v9.505h-4.425v5.827h4.425v18.707c0,1.6,0.234,2.884,0.666,3.865c0.444,0.981,1.062,1.74,1.822,2.301
			c0.771,0.561,1.658,0.911,2.662,1.109c1.027,0.187,2.09,0.269,3.223,0.269c0.724,0,1.46-0.023,2.207-0.07
			c0.759-0.035,1.437-0.117,2.055-0.245v-6.808c-0.677,0.163-1.424,0.257-2.241,0.257c-1.25,0-2.056-0.257-2.464-0.748
			c-0.421-0.49-0.619-1.471-0.619-2.942v-15.706h5.324v-5.827h-5.324v-9.505h-7.31V162.721z"/>
		<path d="M257.976,172.226l-5.804,21.708h-0.105l-6.002-21.708h-7.8l9.342,29.765c0.198,0.607,0.304,1.249,0.304,1.961
			c0,0.654-0.117,1.261-0.304,1.833c-0.21,0.572-0.525,1.051-0.946,1.436c-0.432,0.385-0.957,0.631-1.576,0.724
			c-0.712,0.035-1.437,0.012-2.148-0.082c-0.736-0.082-1.425-0.164-2.125-0.246v7.182c0.759,0.093,1.506,0.163,2.254,0.232
			c0.735,0.059,1.471,0.082,2.229,0.082c2.499,0,4.449-0.561,5.851-1.682c1.401-1.132,2.499-2.954,3.293-5.488l11.082-35.72H257.976
			z"/>
		<rect x="268.194" y="160.152" width="7.286" height="43.812"/>
		<path d="M283.689,176.185c-1.19,1.495-2.113,3.264-2.756,5.313c-0.642,2.043-0.969,4.245-0.969,6.621
			c0,2.452,0.315,4.706,0.945,6.738c0.631,2.032,1.53,3.807,2.697,5.278c1.168,1.471,2.581,2.616,4.263,3.433
			c1.67,0.817,3.55,1.238,5.64,1.238c3.013,0,5.582-0.829,7.719-2.522c2.125-1.669,3.69-4.391,4.718-8.162h-6.411
			c-0.245,0.981-0.899,1.915-1.95,2.779c-1.062,0.887-2.323,1.319-3.795,1.319c-2.055,0-3.631-0.642-4.729-1.927
			c-1.098-1.284-1.693-3.316-1.787-6.101h19.15c0.141-2.452-0.035-4.811-0.514-7.059c-0.479-2.248-1.25-4.256-2.336-6.014
			c-1.074-1.757-2.451-3.17-4.133-4.209c-1.682-1.051-3.644-1.565-5.909-1.565c-2.021,0-3.842,0.42-5.512,1.279
			C286.329,173.534,284.892,174.69,283.689,176.185z M290.391,178.637c0.76-0.467,1.74-0.707,2.908-0.707
			c1.764,0,3.106,0.578,3.971,1.723c0.863,1.15,1.482,2.82,1.821,5.033h-11.853c0.035-0.619,0.141-1.302,0.315-2.09
			c0.21-0.765,0.514-1.506,0.98-2.213C289.014,179.699,289.622,179.116,290.391,178.637z"/>
		<g>
			<polygon points="258.186,230.389 260.989,223.932 195.352,254.247 203.549,259.606 			"/>
			<path d="M181.193,262.711l-36.83,17.691l-0.105-0.292c-0.216-0.245-0.385-0.502-0.613-0.747
				c-4.671-4.811-12.816-5.477-19.32-1.529c-3.661,2.172-6.341,5.453-7.607,9.213c-1.302,3.865-0.969,7.823,1.004,11.116
				c0.491,0.794,1.08,1.554,1.723,2.242c3.562,3.714,9.161,4.916,14.515,3.526c2.324-0.502,4.724-1.425,6.422-3.071
				c2.808-2.137,4.928-4.974,5.99-8.15c0.683-2.044,0.864-4.075,0.625-6.049l-0.216-0.572l41.518-17.071L181.193,262.711z
				 M142.297,291.368c-0.934,2.803-2.99,5.254-5.728,6.9c-4.834,2.908-10.725,2.547-14.012-0.828
				c-0.444-0.455-0.806-0.946-1.138-1.472c-1.291-2.195-1.519-4.857-0.648-7.544c0.969-2.79,2.989-5.254,5.728-6.924
				c4.834-2.896,10.755-2.546,14.03,0.841c0.426,0.455,0.823,0.958,1.121,1.483C142.968,286.008,143.19,288.706,142.297,291.368z"/>
			<path d="M273.6,288.706c-0.817-0.467-11.782,0.104-14.538-4.602c-0.677-1.833-1.705-3.619-3.024-5.172
				c-4.881-5.886-12.798-7.965-18.742-4.939c-0.151,0.069-0.314,0.174-0.49,0.268l-35.335-13.288l-60.107-37.881l1.617,5.886
				l53.808,43.836l7.03-3.352l27.675,10.649c-0.76,1.682-1.168,3.562-1.227,5.593c-0.035,3.947,1.448,7.953,4.146,11.211
				c4.893,5.85,12.751,7.904,18.741,4.904c0.854-0.409,1.67-0.946,2.383-1.564c1.623-1.344,2.85-3.061,3.631-5.045
				c3.749-4.285,10.732-2.452,12.309-2.639C273.063,292.43,274.453,289.219,273.6,288.706z M198.534,267.488
				c-1.139,0.514-2.499,0.082-3.042-1.016c-0.525-1.098-0.117-2.452,0.993-3.024c1.127-0.549,2.464-0.105,3.03,1.004
				C200.087,265.538,199.631,266.892,198.534,267.488z M252.756,296.985c-0.455,0.385-0.957,0.746-1.529,1.016
				c-4.192,2.137-9.914,0.502-13.511-3.854c-2.067-2.441-3.177-5.441-3.13-8.408c0.035-2.814,1.133-5.266,3.06-6.889
				c0.479-0.386,1.017-0.748,1.577-1.005c4.238-2.148,9.925-0.525,13.498,3.796c2.066,2.486,3.199,5.477,3.13,8.406
				C255.828,292.885,254.718,295.362,252.756,296.985z"/>
		</g>
		<polygon points="169.306,103.664 174.952,103.664 174.952,82.785 182.629,82.785 182.629,78.05 161.646,78.05 161.646,82.785 
			169.306,82.785 		"/>
		<polygon points="191.189,92.617 201.57,92.617 201.57,103.664 207.192,103.664 207.192,78.05 201.57,78.05 201.57,87.882 
			191.189,87.882 191.189,78.05 185.572,78.05 185.572,103.664 191.189,103.664 		"/>
		<polygon points="231.585,98.917 217.772,98.917 217.772,92.652 230.184,92.652 230.184,88.273 217.772,88.273 217.772,82.785 
			231.293,82.785 231.293,78.05 212.143,78.05 212.143,103.664 231.585,103.664 		"/>
		<polygon points="163.841,130.007 150.033,130.007 150.033,123.743 162.446,123.743 162.446,119.352 150.033,119.352 
			150.033,113.864 163.555,113.864 163.555,109.141 144.399,109.141 144.399,134.754 163.841,134.754 		"/>
		<polygon points="167.66,109.141 167.66,134.754 185.759,134.754 185.759,130.007 173.276,130.007 173.276,109.141 		"/>
		<rect x="188.917" y="109.141" width="5.634" height="25.614"/>
		<polygon points="210.812,134.754 210.812,113.864 218.496,113.864 218.496,109.141 197.5,109.141 197.5,113.864 205.172,113.864 
			205.172,134.754 		"/>
		<polygon points="240.577,113.864 240.577,109.141 221.438,109.141 221.438,134.754 240.881,134.754 240.881,130.007 
			227.055,130.007 227.055,123.743 239.479,123.743 239.479,119.352 227.055,119.352 227.055,113.864 		"/>
		<rect x="101.771" y="139.25" width="180.855" height="3.801"/>
	</g>
</g>
<g>
</g>
<g>
</g>
<g>
</g>
<g>
</g>
<g>
</g>
<g>
</g>
<g>
</g>
<g>
</g>
<g>
</g>
<g>
</g>
<g>
</g>
<g>
</g>
<g>
</g>
<g>
</g>
<g>
</g>
</svg>
