<?xml version="1.0" encoding="iso-8859-1"?>
<!-- Generator: Adobe Illustrator 16.0.0, SVG Export Plug-In . SVG Version: 6.00 Build 0)  -->
<!DOCTYPE svg PUBLIC "-//W3C//DTD SVG 1.1//EN" "http://www.w3.org/Graphics/SVG/1.1/DTD/svg11.dtd">
<svg version="1.1" id="Capa_1" xmlns="http://www.w3.org/2000/svg" xmlns:xlink="http://www.w3.org/1999/xlink" x="0px" y="0px"
	 width="571.126px" height="571.126px" viewBox="0 0 571.126 571.126" style="enable-background:new 0 0 571.126 571.126;"
	 xml:space="preserve">
<g>
	<g>
		<polygon points="262.723,182.042 262.482,182.042 250.794,214.954 274.036,214.954 		"/>
		<path d="M402.764,197.489c2.286-1.991,3.429-5.259,3.429-9.795c0-4.339-1.143-7.518-3.429-9.491s-5.696-2.947-10.144-2.947h-21.59
			v25.251h21.626C397.085,200.507,400.442,199.507,402.764,197.489z"/>
		<path d="M285.581,0C128.112,0,0,128.112,0,285.581c0,157.434,128.111,285.545,285.581,285.545
			c157.434,0,285.545-128.111,285.545-285.545C571.126,128.112,443.051,0,285.581,0z M351.298,159.917h48.395
			c4.018,0,7.643,0.661,10.875,1.955c3.215,1.277,5.982,3.072,8.269,5.339c2.321,2.25,4.089,4.902,5.286,7.92
			c1.214,3.018,1.839,6.197,1.839,9.527c0,5.286-1.125,9.857-3.339,13.697c-2.215,3.857-5.84,6.777-10.857,8.795v0.25
			c2.428,0.679,4.41,1.706,6,3.072c1.607,1.393,2.893,3.036,3.928,4.964c1,1.911,1.715,4,2.18,6.232
			c0.445,2.214,0.785,4.446,0.928,6.714c0.107,1.42,0.197,3.107,0.268,5.009c0.09,1.919,0.232,3.875,0.447,5.848
			c0.215,1.956,0.535,3.875,1,5.724c0.465,1.848,1.143,3.402,2.071,4.643h-19.715c-0.589-1.42-1.036-3-1.321-4.715
			c-0.322-1.723-0.554-3.509-0.75-5.393c-0.215-1.902-0.393-3.822-0.5-5.777c-0.107-1.964-0.322-3.848-0.572-5.598
			c-0.678-4.706-2.07-8.117-4.25-10.295c-2.178-2.179-5.75-3.277-10.679-3.277H371.03v35.055h-19.732V159.917z M285.411,58.466
			c16.402,0,29.707,13.304,29.707,29.715c0,16.394-13.305,29.715-29.707,29.715c-16.402,0-29.715-13.322-29.715-29.715
			C255.696,71.771,269.009,58.466,285.411,58.466z M333.976,159.917v89.708h-19.715v-89.708H333.976z M252.661,159.917h20.224
			l33.554,89.708h-20.473l-6.787-19.983h-33.555l-7.045,19.983h-19.965L252.661,159.917z M135.085,159.917h19.724v34.43h36.305
			v-34.43h19.724v89.708h-19.724v-38.688h-36.305v38.688h-19.724V159.917z M174.488,385.191c-1.589,3.519-3.964,6.555-7.116,9.108
			c-3.143,2.571-7.036,4.571-11.679,6.036c-4.652,1.464-10.045,2.214-16.152,2.214c-4.956,0-9.741-0.644-14.384-1.911
			c-4.652-1.268-8.741-3.196-12.259-5.785c-3.509-2.59-6.339-5.875-8.482-9.912c-2.116-4.035-3.161-8.785-3.072-14.321h19.09
			c0,3,0.553,5.589,1.643,7.679c1.099,2.072,2.545,3.786,4.322,5.072c1.812,1.285,3.911,2.25,6.286,2.875
			c2.402,0.643,4.938,0.946,7.607,0.946c1.759,0,3.643-0.144,5.67-0.429c1.991-0.304,3.893-0.857,5.652-1.679
			c1.777-0.856,3.232-2,4.384-3.464c1.179-1.465,1.777-3.322,1.777-5.607c0-2.43-0.768-4.375-2.321-5.894
			c-1.554-1.5-3.581-2.786-6.09-3.821c-2.527-1.036-5.375-1.929-8.554-2.643c-3.188-0.715-6.42-1.5-9.679-2.447
			c-3.349-0.84-6.599-1.875-9.777-3.09c-3.206-1.178-6.036-2.75-8.562-4.695c-2.527-1.947-4.536-4.322-6.09-7.162
			c-1.554-2.857-2.321-6.393-2.321-10.571c0-4.607,0.991-8.607,2.946-11.982c1.956-3.375,4.536-6.232,7.732-8.482
			c3.179-2.269,6.786-3.964,10.804-5.036c4.027-1.071,8.027-1.625,12.054-1.625c4.697,0,9.197,0.518,13.509,1.572
			c4.304,1.053,8.144,2.731,11.492,5.089c3.357,2.339,6.009,5.321,7.991,8.964c1.973,3.644,2.956,8.055,2.956,13.27h-19.108
			c-0.161-2.662-0.732-4.912-1.696-6.662c-0.973-1.75-2.232-3.143-3.839-4.143c-1.589-1-3.438-1.715-5.527-2.143
			c-2.08-0.393-4.312-0.625-6.652-0.625c-1.589,0-3.188,0.196-4.777,0.5c-1.589,0.339-3.036,0.928-4.331,1.768
			c-1.304,0.84-2.375,1.893-3.206,3.197c-0.839,1.303-1.259,2.875-1.259,4.732c0,1.768,0.348,3.178,1.009,4.25
			c0.679,1.106,1.991,2.07,3.964,2.964c1.956,0.875,4.697,1.821,8.161,2.75c3.474,0.964,8.009,2.144,13.634,3.571
			c1.099,0.25,2.509,0.607,4.268,1.072c1.75,0.464,3.616,1.106,5.589,1.893c1.956,0.803,3.956,1.821,5.911,3.09
			c1.956,1.25,3.768,2.803,5.393,4.643c1.643,1.84,2.964,4.054,3.964,6.59c1.009,2.57,1.5,5.518,1.5,8.857
			C176.863,377.871,176.078,381.691,174.488,385.191z M255,327.261h-26.876v73.145h-19.733v-73.145h-26.885v-16.572h73.511v16.572
			H255z M291.136,515.625c-16.403,0-29.716-13.322-29.716-29.715c0-16.412,13.313-29.716,29.716-29.716
			c16.41,0,29.715,13.304,29.715,29.716C320.851,502.302,307.546,515.625,291.136,515.625z M308.296,365.976v34.43h-19.741v-34.93
			l-33.037-54.77h22.233l20.974,35.448l20.858-35.448h22L308.296,365.976z M412.585,400.406h-63.466v-89.717h19.733v73.127h43.732
			V400.406z M423.622,400.406v-89.717h67.109v16.572h-47.377v19.25h43.466v15.322h-43.466v21.982h48.377v16.59H423.622z"/>
	</g>
</g>
<g>
</g>
<g>
</g>
<g>
</g>
<g>
</g>
<g>
</g>
<g>
</g>
<g>
</g>
<g>
</g>
<g>
</g>
<g>
</g>
<g>
</g>
<g>
</g>
<g>
</g>
<g>
</g>
<g>
</g>
</svg>
