<?xml version="1.0" encoding="iso-8859-1"?>
<!-- Generator: Adobe Illustrator 16.0.0, SVG Export Plug-In . SVG Version: 6.00 Build 0)  -->
<!DOCTYPE svg PUBLIC "-//W3C//DTD SVG 1.1//EN" "http://www.w3.org/Graphics/SVG/1.1/DTD/svg11.dtd">
<svg version="1.1" id="Capa_1" xmlns="http://www.w3.org/2000/svg" xmlns:xlink="http://www.w3.org/1999/xlink" x="0px" y="0px"
	 width="31.457px" height="31.458px" viewBox="0 0 31.457 31.458" style="enable-background:new 0 0 31.457 31.458;"
	 xml:space="preserve">
<g>
	<g>
		<circle cx="13.411" cy="10.348" r="3.176"/>
		<ellipse cx="28.09" cy="3.64" rx="3.367" ry="3.47"/>
		<path d="M30.305,8.598c-1.218-0.989-3.332-0.438-4.383-0.143c-0.969,0.373-2.628,0.742-4.604,0.874
			c-0.773-1.018-2.223-1.601-2.223-1.601s-0.004-0.185-0.082-0.221c-0.072-0.033-0.465-0.042-0.525-0.043l-0.164-0.436l0.404-0.151
			l-0.053-0.143l-0.404,0.151L18.232,6.78l0.404-0.151l-0.053-0.143L18.18,6.637l-0.057-0.149l0.414-0.154l-0.053-0.143L18.07,6.346
			L18.029,6.24l0.414-0.154l-0.053-0.144l-0.414,0.155l-0.051-0.136l0.414-0.155l-0.052-0.142l-0.415,0.154l-0.039-0.106
			l0.414-0.154l-0.053-0.143L17.782,5.57l-0.046-0.12l0.414-0.155l-0.055-0.141l-0.412,0.153l-0.041-0.105l0.414-0.155l-0.054-0.143
			l-0.414,0.154L17.541,4.93l0.414-0.154l-0.053-0.143l-0.414,0.155l-0.04-0.107l0.413-0.154l-0.053-0.143l-0.414,0.154
			l-0.047-0.128l0.414-0.153l-0.054-0.143l-0.414,0.156l-0.04-0.106l0.414-0.154l-0.053-0.143l-0.414,0.154l-0.061-0.163
			l0.414-0.154L17.5,3.562l-0.414,0.154l-0.039-0.107l0.414-0.154l-0.053-0.143l-0.414,0.155l-0.083-0.221l-0.193,0.071L16.507,2.75
			L16.504,2.75c-0.066-0.104-0.248-0.136-0.429-0.066c-0.182,0.068-0.299,0.211-0.281,0.333L15.79,3.019l0.212,0.567l-0.17,0.064
			l0.081,0.22L15.5,4.024l0.053,0.143l0.414-0.154l0.039,0.106l-0.412,0.154l0.053,0.142l0.412-0.153l0.062,0.163L15.707,4.58
			L15.76,4.72l0.414-0.153l0.039,0.106l-0.414,0.154l0.055,0.143l0.414-0.154l0.047,0.128l-0.413,0.154l0.053,0.142l0.413-0.153
			l0.041,0.106l-0.414,0.154l0.053,0.142l0.414-0.154l0.047,0.129l-0.413,0.154l0.053,0.142l0.414-0.153L16.6,5.711l-0.412,0.155
			l0.054,0.142l0.413-0.154l0.044,0.121l-0.413,0.154l0.053,0.142l0.414-0.154l0.04,0.107l-0.413,0.154l0.053,0.143l0.412-0.155
			l0.051,0.136L16.48,6.656l0.053,0.143l0.414-0.155l0.041,0.107l-0.414,0.154l0.053,0.143l0.412-0.154l0.059,0.148l-0.423,0.156
			l0.054,0.144l0.422-0.156l0.039,0.106l-0.42,0.155l0.053,0.143l0.422-0.157l0.438,1.171L17.58,8.658l0.234,0.626
			c0,0-0.484,0.393-0.322,0.396c0.438-0.002,0.926,1.438,0.896,1.771c0.016,0.675,0.934,2.957,1.301,3.483
			c0.363,0.523,0.424,0.937,1.152,0.656c0.734-0.266,0.51-0.618,0.44-1.25c-0.06-0.556-0.673-2.383-1.114-3.193
			c1.635-0.169,5.725-0.558,5.71-0.223c-0.028,0.718-0.343,7.921-0.063,8.16l-0.576,5.337l0.51,5.248h-1.484v1.543h5.051V30.88
			v-1.21v-9.915c0.593-0.117,1.045-0.43,1.123-1.08C30.682,16.633,31.661,9.701,30.305,8.598z M20.922,9.355
			c-0.324,0.017-0.654,0.026-0.99,0.027l-0.527-0.021c-0.016-0.194,0.004-0.354,0.093-0.431c0.121-0.11-0.503-0.089-0.503-0.089
			l-0.059-0.156C19.201,8.639,20.115,8.554,20.922,9.355z"/>
		<path d="M3.753,25.921c0.326,0.056,0.659,0.106,0.994,0.156c0.035,0.005,0.07,0.01,0.105,0.015
			c1.555,0.229,3.188,0.393,4.677,0.445c0.088,0.004,0.174,0.005,0.263,0.007c0.188,0.006,0.375,0.009,0.556,0.011
			c0.053,0,0.108,0.002,0.16,0.002c0.065,0,0.127-0.002,0.191-0.003c0.105-0.001,0.207-0.002,0.308-0.004
			c0.126-0.004,0.25-0.008,0.372-0.013c0.098-0.004,0.197-0.008,0.292-0.014c0.118-0.009,0.231-0.018,0.344-0.025
			c0.092-0.008,0.184-0.016,0.274-0.023c0.109-0.012,0.212-0.025,0.316-0.039c0.085-0.013,0.17-0.022,0.251-0.035
			c0.1-0.017,0.193-0.035,0.288-0.055c0.074-0.016,0.149-0.029,0.22-0.046c0.094-0.021,0.177-0.047,0.264-0.071
			c0.06-0.02,0.125-0.035,0.18-0.055c0.09-0.029,0.168-0.064,0.246-0.1c0.042-0.021,0.089-0.035,0.129-0.055
			c0.112-0.058,0.212-0.119,0.298-0.186c0.044-0.034,0.088-0.077,0.128-0.128c0.017-0.021,0.032-0.045,0.047-0.067
			c0.024-0.033,0.049-0.063,0.071-0.103c0.019-0.03,0.035-0.066,0.052-0.101c0.02-0.037,0.039-0.07,0.058-0.111
			c0.017-0.037,0.033-0.081,0.05-0.122c0.015-0.043,0.033-0.082,0.05-0.126c0.015-0.045,0.029-0.094,0.044-0.141
			c0.016-0.049,0.031-0.094,0.046-0.146c0.014-0.048,0.026-0.101,0.041-0.153c0.014-0.054,0.028-0.105,0.042-0.164
			c0.013-0.051,0.024-0.104,0.035-0.158c0.014-0.063,0.027-0.123,0.041-0.188c0.01-0.052,0.02-0.106,0.028-0.161
			c0.014-0.07,0.026-0.14,0.038-0.213c0.01-0.052,0.017-0.105,0.025-0.159c0.011-0.078,0.023-0.157,0.035-0.239
			c0.007-0.052,0.013-0.104,0.02-0.153c0.011-0.089,0.021-0.177,0.032-0.269c0.006-0.047,0.01-0.095,0.016-0.143
			c0.01-0.1,0.02-0.197,0.029-0.299c0.004-0.043,0.007-0.084,0.011-0.127c0.008-0.107,0.018-0.217,0.026-0.326
			c0.003-0.04,0.006-0.08,0.008-0.12c0.008-0.116,0.017-0.233,0.024-0.353c0.001-0.03,0.003-0.062,0.004-0.094
			c0.007-0.128,0.014-0.256,0.021-0.386c0-0.024,0.001-0.051,0.003-0.076c0.006-0.137,0.011-0.272,0.016-0.409
			c0.001-0.02,0.001-0.039,0.002-0.059c0.004-0.143,0.009-0.286,0.011-0.43c0-0.006,0-0.01,0-0.015l0,0
			c0.038-1.694-0.022-3.396-0.117-4.543v-0.001c-0.001-0.011-0.001-0.021-0.003-0.032c-0.01-0.11-0.02-0.215-0.029-0.314
			c-0.004-0.041-0.008-0.08-0.014-0.119c-0.005-0.066-0.012-0.129-0.021-0.188c-0.004-0.038-0.01-0.075-0.014-0.11
			c-0.008-0.058-0.016-0.11-0.024-0.16c-0.004-0.028-0.008-0.057-0.013-0.082c-0.013-0.071-0.025-0.137-0.038-0.188
			c-0.116-0.083-0.249-0.148-0.39-0.204c-0.007-0.002-0.013-0.006-0.02-0.008c-0.141-0.055-0.293-0.096-0.45-0.129
			c-0.004,0-0.007-0.002-0.01-0.002c-0.001,0-0.003,0-0.004,0c-1.092-0.221-2.498,0.02-3.105,0.019
			c-0.278,0.149-0.547,1.428-0.973,2.841c-0.055,0.182-0.112,0.363-0.172,0.547c-0.001,0.004-0.003,0.01-0.004,0.014
			c-0.126,0.381-0.263,0.762-0.418,1.125l0,0c-0.076,0.181-0.157,0.354-0.24,0.521C9.473,19.09,9.47,19.095,9.467,19.1
			c-0.083,0.17-0.173,0.329-0.267,0.481c0,0.002,0,0.004-0.001,0.006c-0.287,0.462-0.615,0.841-1,1.069c0.001,0,0.001,0,0.001,0
			c-0.3,0.182-0.633,0.272-1.006,0.24C3.721,20.422-0.392,25.218,3.753,25.921z"/>
		<path d="M16.091,27.192l0.009,0.002l2.016-9.106l-2.034-0.451l-0.151,0.683c0.049,3.144-0.181,7.029-1.205,7.83
			c-0.685,0.535-2.104,0.807-4.218,0.807c-1.103,0-2.394-0.079-3.744-0.223v0.519h3.432l-0.436,2.446H6.664l-1.058,1.589h11.908
			l-1.058-1.589h-3.294l-0.436-2.446h3.367v-0.06H16.091z"/>
		<path d="M7.229,20.501c0.041,0.003,0.08,0.005,0.118,0.005c1.019,0,1.731-1.309,2.244-2.716c-0.768,0.886-1.632,1.565-2.458,1.513
			C6.138,19.317,5.966,20.134,7.229,20.501z"/>
		<path d="M3.687,26.313c-0.597-0.102-1.023-0.281-1.328-0.494c-0.576,0.908-1.092,1.754-1.414,2.287H0v1.433h4.62v-1.433H4.544
			l1.047-1.51C4.959,26.514,4.321,26.419,3.687,26.313z"/>
	</g>
</g>
<g>
</g>
<g>
</g>
<g>
</g>
<g>
</g>
<g>
</g>
<g>
</g>
<g>
</g>
<g>
</g>
<g>
</g>
<g>
</g>
<g>
</g>
<g>
</g>
<g>
</g>
<g>
</g>
<g>
</g>
</svg>
