<?xml version="1.0" encoding="iso-8859-1"?>
<!-- Generator: Adobe Illustrator 16.0.0, SVG Export Plug-In . SVG Version: 6.00 Build 0)  -->
<!DOCTYPE svg PUBLIC "-//W3C//DTD SVG 1.1//EN" "http://www.w3.org/Graphics/SVG/1.1/DTD/svg11.dtd">
<svg version="1.1" id="Capa_1" xmlns="http://www.w3.org/2000/svg" xmlns:xlink="http://www.w3.org/1999/xlink" x="0px" y="0px"
	 width="24.633px" height="24.633px" viewBox="0 0 24.633 24.633" style="enable-background:new 0 0 24.633 24.633;"
	 xml:space="preserve">
<g>
	<path d="M8.409,9.059L8.69,8.734l1.968,1.705l-0.281,0.325L8.409,9.059z M11.477,11.771c0.188,0,0.34-0.152,0.34-0.34
		s-0.152-0.34-0.34-0.34s-0.34,0.152-0.34,0.34S11.289,11.771,11.477,11.771z M12.433,12.599c0.188,0,0.34-0.152,0.34-0.34
		s-0.152-0.34-0.34-0.34s-0.34,0.152-0.34,0.34S12.245,12.599,12.433,12.599z M24.389,22.612c-0.363,0.418-0.996,0.463-1.414,0.102
		l-7.035-6.094c-0.84-0.025-3.125-0.115-3.378-0.334c-0.271-0.234-1.798-1.56-2.186-1.896c-0.017-0.012-0.038-0.016-0.055-0.03
		c-0.265-0.23-0.294-0.631-0.064-0.896c0.216-0.25,0.581-0.281,0.844-0.094l0.004-0.006c0,0,0.009,0.01,0.024,0.021
		c0.007,0.008,0.016,0.008,0.023,0.016c0.007,0.006,0.01,0.015,0.017,0.021c0.321,0.278,1.824,1.58,1.953,1.69
		c0.088,0.076,0.717,0.101,1.195,0.105L4.412,6.639L5.01,5.948C4.704,5.682,4.377,5.405,4.045,5.145
		c-0.2-0.157-0.403-0.318-0.585-0.477C3.065,4.324,2.838,3.975,2.604,3.565C2.387,3.507,2.178,3.422,1.945,3.288
		C1.271,2.899,0.652,2.456,0,1.891l0.188-0.216c0.637,0.552,1.241,0.985,1.9,1.365c0.124,0.071,0.241,0.127,0.356,0.172
		C2.312,2.721,2.515,2.133,2.949,1.849c0.265-0.173,0.596-0.201,0.864-0.073c0.236,0.114,0.386,0.337,0.411,0.61
		c0.031,0.341,0.011,0.805-0.263,1.081C3.799,3.629,3.578,3.699,3.303,3.675c-0.115-0.01-0.221-0.021-0.324-0.036
		c0.183,0.3,0.374,0.556,0.669,0.812c0.003,0.003,0.005,0.005,0.008,0.007c0.184,0.16,0.372,0.309,0.566,0.461
		c0.337,0.265,0.666,0.544,0.976,0.813l0.526-0.608l9.874,8.552c0.125-0.015,0.252-0.028,0.373-0.033
		c0.2-0.01,0.389-0.018,0.577-0.061c0.06-0.015,0.132-0.039,0.209-0.062c0.238-0.075,0.507-0.161,0.699-0.1
		c0.422,0.137,0.412,0.619,0.407,0.938v0.116c0.005,0.316-0.155,0.533-0.309,0.742c-0.022,0.031-0.043,0.062-0.066,0.095
		l6.798,5.887C24.705,21.561,24.751,22.192,24.389,22.612z M2.792,3.316C2.955,3.351,3.128,3.372,3.328,3.39
		c0.189,0.017,0.33-0.024,0.43-0.125c0.153-0.154,0.218-0.457,0.181-0.852C3.927,2.282,3.873,2.175,3.786,2.099
		C3.757,2.074,3.724,2.053,3.688,2.035C3.513,1.951,3.285,1.972,3.106,2.089C2.723,2.34,2.573,2.924,2.791,3.314
		C2.791,3.315,2.792,3.315,2.792,3.316z M13.357,12.422l-4.79-4.148l-0.633,0.73l4.79,4.147L13.357,12.422z M17.324,15.051
		c0.137-0.188,0.256-0.351,0.254-0.569v-0.125c0.004-0.322-0.006-0.597-0.211-0.662c-0.104-0.033-0.357,0.047-0.523,0.1
		c-0.086,0.027-0.166,0.053-0.23,0.068c-0.215,0.047-0.426,0.059-0.629,0.065c-0.028,0.002-0.055,0.006-0.084,0.008l1.371,1.189
		C17.289,15.1,17.305,15.075,17.324,15.051z"/>
</g>
<g>
</g>
<g>
</g>
<g>
</g>
<g>
</g>
<g>
</g>
<g>
</g>
<g>
</g>
<g>
</g>
<g>
</g>
<g>
</g>
<g>
</g>
<g>
</g>
<g>
</g>
<g>
</g>
<g>
</g>
</svg>
