<?xml version="1.0" encoding="iso-8859-1"?>
<!-- Generator: Adobe Illustrator 16.0.0, SVG Export Plug-In . SVG Version: 6.00 Build 0)  -->
<!DOCTYPE svg PUBLIC "-//W3C//DTD SVG 1.1//EN" "http://www.w3.org/Graphics/SVG/1.1/DTD/svg11.dtd">
<svg version="1.1" id="Capa_1" xmlns="http://www.w3.org/2000/svg" xmlns:xlink="http://www.w3.org/1999/xlink" x="0px" y="0px"
	 width="370.339px" height="370.339px" viewBox="0 0 370.339 370.339" style="enable-background:new 0 0 370.339 370.339;"
	 xml:space="preserve">
<g>
	<path d="M364.444,120.303l3.714-3.696l-4.426-4.426l1.553-1.553c4.402-4.402,4.718-11.204,0.712-15.198l-1.425-1.448l4.426-4.419
		l-3.689-3.696l-4.426,4.419l-4.928-4.922l4.426-4.425l-3.69-3.696l-4.425,4.425l-4.904-4.893l4.425-4.438l-3.713-3.69l-4.426,4.42
		l-4.729-4.735l4.426-4.426l-3.701-3.702l-4.426,4.426l-4.893-4.893l4.414-4.426l-3.69-3.696l-4.426,4.426l-4.928-4.928l4.426-4.42
		l-3.69-3.713l-4.425,4.426l-4.905-4.887l4.426-4.425l-3.689-3.708l-4.426,4.425l-4.811-4.811l4.426-4.42l-3.714-3.708l-4.414,4.426
		l-4.893-4.893l4.426-4.425l-3.714-3.696l-4.426,4.425l-4.916-4.928l4.426-4.419l-3.701-3.708l-4.426,4.419l-4.893-4.887
		l4.426-4.426l-3.702-3.708l-4.425,4.426l-1.483-1.483c-3.993-4.005-10.813-3.684-15.204,0.718l-0.642,0.707L253.325,0l-3.69,3.708
		l4.426,4.425l-4.893,4.887l-4.426-4.426l-3.713,3.708l4.426,4.426l-4.928,4.916l-4.414-4.426l-3.714,3.696l4.426,4.426
		l-4.904,4.887l-4.426-4.42l-3.701,3.702l4.425,4.426l-4.191,4.209l-4.426-4.425l-3.69,3.708l4.425,4.425l-4.904,4.904l-4.425-4.425
		l-3.702,3.708l4.426,4.419l-4.916,4.916l-4.426-4.425l-3.713,3.708l4.425,4.425l-4.893,4.893l-4.414-4.426l-3.713,3.708
		l4.426,4.426l-4.735,4.735l-4.426-4.426l-3.696,3.708l4.426,4.426l-4.893,4.887l-4.425-4.42l-3.708,3.702l4.426,4.414l-4.928,4.928
		l-4.42-4.425l-3.708,3.707l4.425,4.426l-4.893,4.887l-4.425-4.425l-3.708,3.713l4.426,4.419l-4.806,4.805l-4.425-4.419
		l-3.708,3.707l4.426,4.42l-4.893,4.893l-4.426-4.425l-3.702,3.708l4.419,4.425l-4.91,4.928l-4.426-4.425l-3.707,3.708l4.426,4.419
		l-4.893,4.893l-4.425-4.426l-3.696,3.696l4.426,4.426l-0.666,0.683c-4.402,4.396-4.723,11.216-0.718,15.209l-2.248-2.248
		l-4.402,4.338l3.708,3.708l4.426-4.426l4.887,4.905l-4.42,4.425l3.702,3.708l4.425-4.425l4.928,4.928l-4.425,4.419l3.708,3.708
		l4.426-4.42l4.887,4.899l-4.42,4.425l3.708,3.708l4.42-4.425l4.747,4.747c-5.675,3.982-13.043,17.755-18.888,23.617
		c-7.753,7.766-98.899,98.894-105.24,105.246c-6.347,6.353-19.045,6.341-29.093,21.685c-10.043,15.332,19.576,41.792,34.377,34.377
		c14.818-7.403,11.992-24.686,20.103-32.789c8.109-8.115,98.192-98.193,104.183-104.184c4.531-4.53,19.507-12.693,23.751-18.753
		l3.538,3.562l-4.425,4.402l3.695,3.701l4.426-4.414l4.893,4.904l-4.426,4.414l3.69,3.702l4.426-4.426l4.928,4.928l-4.426,4.426
		l3.713,3.702l4.426-4.414l4.881,4.893l-4.414,4.426l3.702,3.713l4.426-4.438l-1.88-1.868c4.005,4.005,10.812,3.679,15.215-0.724
		l-0.222,0.221l4.426,4.426l3.713-3.701l-4.426-4.426l4.882-4.904l4.425,4.438l3.714-3.713l-4.426-4.426l4.928-4.928l4.426,4.426
		l3.701-3.714l-4.426-4.414l4.893-4.893l4.426,4.426l3.702-3.714l-4.426-4.414l4.8-4.811l4.425,4.426l3.702-3.702L270,205.984
		l4.881-4.881l4.426,4.414l3.701-3.702l-4.426-4.426l4.917-4.928l4.425,4.426l3.702-3.702l-4.426-4.426l4.893-4.893l4.426,4.426
		l3.702-3.696l-4.426-4.426l4.74-4.735l4.426,4.426l3.702-3.696l-4.426-4.426l4.904-4.898l4.426,4.426l3.689-3.708l-4.413-4.426
		l4.916-4.928l4.425,4.426l3.714-3.708l-4.426-4.426l4.893-4.887l4.426,4.42l3.701-3.702l-4.426-4.426l4.216-4.221l4.414,4.42
		l3.714-3.69l-4.426-4.426l4.893-4.904l4.426,4.425l3.689-3.707l-4.426-4.426l4.916-4.922l4.426,4.42l3.702-3.696l-4.414-4.42
		l4.881-4.904L364.444,120.303z M266.589,13.306c1.215,1.208,1.215,3.182,0,4.391c-1.226,1.208-3.188,1.22-4.391,0
		c-1.226-1.22-1.226-3.182,0-4.391C263.402,12.103,265.364,12.103,266.589,13.306z M256.547,23.196c1.203,1.209,1.215,3.17,0,4.391
		c-1.226,1.22-3.188,1.22-4.391,0c-1.226-1.208-1.226-3.182,0-4.391C253.372,21.976,255.333,21.976,256.547,23.196z M231.454,48.437
		c-1.215-1.214-1.215-3.176,0-4.385c1.226-1.208,3.176-1.22,4.391,0c1.214,1.208,1.214,3.182,0,4.385
		C234.629,49.645,232.667,49.645,231.454,48.437z M224.4,59.88c-1.214,1.22-3.176,1.208-4.391,0c-1.214-1.215-1.214-3.176,0-4.385
		c1.227-1.209,3.188-1.221,4.391,0C225.603,56.704,225.603,58.677,224.4,59.88z M214.358,65.368c1.203,1.221,1.215,3.182,0,4.391
		c-1.226,1.209-3.188,1.22-4.391,0c-1.214-1.208-1.214-3.182,0-4.391C211.182,64.166,213.144,64.166,214.358,65.368z
		 M202.448,81.833c-1.215,1.22-3.177,1.208-4.391,0c-1.215-1.214-1.215-3.165,0-4.385c1.226-1.208,3.188-1.22,4.391,0
		C203.65,78.668,203.65,80.63,202.448,81.833z M192.399,87.321c1.221,1.208,1.221,3.182,0,4.391c-1.208,1.22-3.182,1.22-4.39,0
		c-1.214-1.208-1.214-3.182,0-4.391C189.229,86.119,191.191,86.119,192.399,87.321z M135.246,144.335
		c-1.22-1.22-1.208-3.188,0-4.396c1.203-1.208,3.176-1.208,4.385,0c1.209,1.208,1.209,3.176,0,4.396
		C138.422,145.543,136.449,145.543,135.246,144.335z M144.809,134.771c-1.208-1.22-1.208-3.182,0-4.39
		c1.221-1.221,3.182-1.221,4.391,0c1.221,1.208,1.221,3.17,0,4.39C147.991,135.98,146.03,135.98,144.809,134.771z M154.852,124.881
		c-1.22-1.208-1.22-3.165,0-4.385c1.208-1.208,3.182-1.208,4.391,0c1.22,1.22,1.22,3.176,0,4.385S156.06,126.089,154.852,124.881z
		 M166.92,112.976c-1.22-1.22-1.208-3.182,0-4.402s3.182-1.22,4.385,0c1.208,1.208,1.208,3.182,0,4.391
		C170.102,114.179,168.128,114.179,166.92,112.976z M176.962,103.085c-1.221-1.22-1.221-3.182,0-4.391
		c1.208-1.208,3.182-1.22,4.391,0c1.208,1.22,1.208,3.182,0,4.391C180.144,104.294,178.17,104.294,176.962,103.085z M241.484,38.563
		c-1.215-1.22-1.215-3.182,0-4.391c1.227-1.22,3.188-1.22,4.402,0s1.215,3.182,0,4.402C244.671,39.784,242.71,39.772,241.484,38.563
		z M278.582,25.304c1.215,1.214,1.203,3.176,0,4.396c-1.214,1.208-3.188,1.22-4.39,0c-1.203-1.22-1.203-3.182,0-4.385
		C275.394,24.096,277.356,24.096,278.582,25.304z M268.551,35.189c1.203,1.208,1.203,3.182,0,4.391c-1.226,1.22-3.188,1.22-4.402,0
		c-1.214-1.22-1.214-3.182,0-4.391C265.352,33.98,267.326,33.969,268.551,35.189z M243.446,60.435c-1.203-1.208-1.203-3.182,0-4.39
		c1.214-1.209,3.188-1.209,4.391,0c1.226,1.22,1.226,3.182,0,4.39C246.633,61.655,244.671,61.655,243.446,60.435z M236.393,71.873
		c-1.203,1.22-3.177,1.22-4.391,0c-1.203-1.203-1.203-3.165,0-4.385c1.214-1.22,3.188-1.22,4.391,0
		C237.607,68.708,237.607,70.67,236.393,71.873z M226.35,77.378c1.215,1.22,1.215,3.176,0,4.385c-1.202,1.208-3.176,1.22-4.39,0
		c-1.203-1.22-1.203-3.176,0-4.385C223.174,76.17,225.148,76.17,226.35,77.378z M214.44,93.832c-1.215,1.22-3.176,1.22-4.402,0
		c-1.203-1.209-1.215-3.17,0-4.391c1.214-1.209,3.188-1.209,4.391,0C215.631,90.649,215.643,92.623,214.44,93.832z M204.409,99.319
		c1.203,1.221,1.203,3.194,0,4.396c-1.226,1.208-3.176,1.208-4.391,0c-1.214-1.203-1.214-3.176,0-4.385
		C201.233,98.123,203.183,98.111,204.409,99.319z M147.238,156.333c-1.208-1.208-1.208-3.182,0-4.391c1.209-1.22,3.183-1.22,4.385,0
		c1.221,1.208,1.221,3.182,0,4.391C150.42,157.536,148.458,157.536,147.238,156.333z M156.801,146.764
		c-1.22-1.22-1.22-3.182,0-4.396c1.221-1.208,3.183-1.208,4.391,0c1.221,1.214,1.221,3.176,0,4.396
		C159.996,147.972,158.022,147.972,156.801,146.764z M166.85,136.879c-1.209-1.208-1.209-3.182,0-4.402
		c1.202-1.208,3.164-1.208,4.385,0.012c1.208,1.208,1.208,3.182,0,4.391C170.014,138.082,168.052,138.093,166.85,136.879z
		 M178.924,124.968c-1.22-1.22-1.208-3.182,0-4.402c1.208-1.208,3.182-1.22,4.391,0c1.22,1.22,1.22,3.182,0,4.402
		C182.106,126.171,180.132,126.171,178.924,124.968z M188.955,115.089c-1.22-1.22-1.209-3.182,0-4.391
		c1.22-1.214,3.182-1.214,4.408,0c1.203,1.208,1.203,3.182,0,4.391C192.136,116.298,190.163,116.298,188.955,115.089z
		 M253.476,50.556c-1.214-1.22-1.214-3.182,0-4.391c1.215-1.208,3.188-1.22,4.391,0c1.227,1.22,1.215,3.182,0,4.391
		C256.665,51.765,254.691,51.765,253.476,50.556z M289.956,36.672c1.203,1.208,1.203,3.182,0,4.391c-1.214,1.22-3.188,1.22-4.391,0
		c-1.226-1.22-1.226-3.182,0-4.391C286.768,35.463,288.73,35.463,289.956,36.672z M279.902,46.562c1.226,1.22,1.226,3.182,0,4.385
		c-1.203,1.22-3.176,1.22-4.379,0c-1.215-1.203-1.215-3.176,0-4.385C276.726,45.342,278.699,45.342,279.902,46.562z M254.82,71.802
		c-1.215-1.22-1.215-3.176,0-4.385c1.226-1.208,3.176-1.208,4.39,0c1.215,1.209,1.215,3.165,0,4.385
		C257.984,73.023,256.022,73.011,254.82,71.802z M247.766,83.246c-1.226,1.22-3.176,1.208-4.391,0c-1.214-1.22-1.214-3.182,0-4.391
		c1.215-1.203,3.177-1.214,4.391,0C248.969,80.082,248.969,82.038,247.766,83.246z M237.724,88.734c1.215,1.22,1.215,3.182,0,4.391
		c-1.227,1.22-3.188,1.22-4.402,0c-1.215-1.208-1.215-3.182,0-4.391C234.548,87.526,236.509,87.526,237.724,88.734z
		 M225.801,105.199c-1.226,1.221-3.188,1.209-4.39,0c-1.215-1.22-1.215-3.176,0-4.384c1.202-1.221,3.176-1.221,4.39,0
		C227.016,102.035,227.016,103.996,225.801,105.199z M215.771,110.687c1.215,1.209,1.215,3.182,0,4.391
		c-1.214,1.22-3.188,1.22-4.402,0c-1.214-1.22-1.214-3.182,0-4.391C212.583,109.484,214.557,109.484,215.771,110.687z
		 M158.606,167.689c-1.215-1.22-1.215-3.182,0-4.385c1.208-1.208,3.182-1.208,4.391,0c1.208,1.203,1.208,3.176,0,4.385
		C161.788,168.909,159.814,168.909,158.606,167.689z M168.175,158.137c-1.221-1.22-1.221-3.182,0-4.402
		c1.22-1.208,3.182-1.208,4.402,0c1.202,1.22,1.202,3.194,0,4.402C171.357,159.346,169.395,159.346,168.175,158.137z
		 M178.206,148.247c-1.22-1.208-1.22-3.182,0-4.385c1.209-1.22,3.17-1.22,4.391,0c1.221,1.214,1.221,3.176,0,4.385
		C181.399,149.467,179.426,149.467,178.206,148.247z M190.286,136.336c-1.22-1.22-1.208-3.194,0-4.396
		c1.203-1.22,3.182-1.22,4.385,0c1.214,1.203,1.214,3.176,0,4.385C193.468,137.544,191.5,137.544,190.286,136.336z M200.333,126.451
		c-1.214-1.22-1.214-3.182,0-4.402c1.215-1.208,3.177-1.208,4.391,0c1.215,1.22,1.215,3.182,0,4.402
		C203.51,127.654,201.537,127.666,200.333,126.451z M264.85,61.912c-1.215-1.203-1.215-3.165,0-4.373
		c1.226-1.22,3.188-1.22,4.391-0.012c1.214,1.22,1.214,3.182,0,4.402C268.026,63.15,266.076,63.138,264.85,61.912z M301.948,48.664
		c1.215,1.221,1.215,3.182,0,4.402c-1.226,1.208-3.188,1.208-4.391,0c-1.226-1.22-1.226-3.182,0-4.402
		C298.749,47.456,300.722,47.456,301.948,48.664z M291.894,58.555c1.215,1.208,1.227,3.182,0,4.391
		c-1.215,1.208-3.176,1.208-4.379,0c-1.215-1.22-1.215-3.182,0-4.391C288.73,57.334,290.691,57.334,291.894,58.555z M266.812,83.795
		c-1.215-1.203-1.215-3.176,0-4.385c1.214-1.22,3.188-1.208,4.391,0c1.202,1.208,1.214,3.182,0,4.385
		C270,85.015,268.038,85.015,266.812,83.795z M259.758,95.238c-1.214,1.22-3.176,1.22-4.401,0c-1.215-1.22-1.215-3.176,0-4.385
		c1.226-1.208,3.188-1.22,4.401,0C260.961,92.074,260.961,94.036,259.758,95.238z M249.716,100.738c1.215,1.22,1.215,3.17,0,4.391
		s-3.188,1.22-4.391,0c-1.215-1.208-1.215-3.17,0-4.391C246.541,99.524,248.501,99.524,249.716,100.738z M237.806,117.191
		c-1.227,1.22-3.177,1.22-4.391,0c-1.203-1.203-1.215-3.176,0-4.385c1.214-1.22,3.176-1.22,4.391,0
		C239.008,114.027,239.008,115.989,237.806,117.191z M227.763,122.68c1.215,1.22,1.215,3.182,0,4.402
		c-1.226,1.208-3.188,1.208-4.391,0c-1.203-1.22-1.203-3.182,0-4.402C224.587,121.477,226.549,121.477,227.763,122.68z
		 M170.604,179.693c-1.209-1.22-1.22-3.176,0-4.396c1.214-1.208,3.176-1.208,4.385,0c1.22,1.221,1.22,3.176,0,4.396
		C173.78,180.902,171.818,180.902,170.604,179.693z M180.167,170.129c-1.22-1.208-1.22-3.182,0-4.391s3.182-1.208,4.402,0
		c1.203,1.208,1.203,3.182,0,4.391C183.35,171.338,181.388,171.338,180.167,170.129z M190.209,160.239
		c-1.22-1.22-1.22-3.182,0-4.396c1.209-1.209,3.188-1.209,4.391,0.011c1.215,1.203,1.215,3.165,0,4.374
		C193.386,161.448,191.418,161.448,190.209,160.239z M202.295,148.334c-1.226-1.226-1.226-3.193,0-4.402
		c1.215-1.209,3.176-1.209,4.391,0c1.215,1.22,1.215,3.176,0,4.402C205.472,149.537,203.499,149.537,202.295,148.334z
		 M212.326,138.444c-1.226-1.209-1.214-3.182,0-4.391c1.214-1.22,3.176-1.22,4.39,0c1.203,1.208,1.203,3.182,0,4.391
		C215.502,139.652,213.541,139.652,212.326,138.444z M276.842,73.922c-1.214-1.22-1.214-3.182,0-4.402
		c1.226-1.208,3.188-1.22,4.402,0c1.214,1.22,1.214,3.182,0,4.402C280.03,75.13,278.068,75.13,276.842,73.922z M312.843,59.571
		c1.214,1.22,1.202,3.182,0,4.391c-1.215,1.22-3.188,1.22-4.391,0c-1.215-1.208-1.215-3.182,0-4.391
		C309.655,58.362,311.628,58.362,312.843,59.571z M302.8,69.45c1.215,1.22,1.215,3.182,0,4.396c-1.215,1.209-3.176,1.209-4.379,0
		c-1.227-1.214-1.227-3.176,0-4.396C299.625,68.241,301.585,68.241,302.8,69.45z M277.707,94.689c-1.203-1.208-1.203-3.182,0-4.391
		c1.203-1.214,3.176-1.214,4.391,0c1.214,1.208,1.214,3.182,0,4.391C280.882,95.91,278.92,95.91,277.707,94.689z M270.654,106.145
		c-1.215,1.208-3.188,1.208-4.391,0c-1.203-1.221-1.215-3.182,0-4.391c1.202-1.214,3.176-1.214,4.391-0.012
		C271.856,102.963,271.856,104.924,270.654,106.145z M260.623,111.633c1.203,1.209,1.215,3.17,0,4.391
		c-1.215,1.221-3.188,1.221-4.391,0c-1.226-1.208-1.226-3.182,0-4.391C257.435,110.413,259.397,110.424,260.623,111.633z
		 M248.701,128.098c-1.227,1.22-3.188,1.208-4.402,0c-1.203-1.208-1.215-3.176,0-4.385c1.203-1.22,3.176-1.22,4.391,0
		C249.892,124.933,249.915,126.889,248.701,128.098z M238.669,133.586c1.215,1.22,1.203,3.182,0,4.391
		c-1.226,1.22-3.188,1.22-4.391,0.012c-1.226-1.22-1.226-3.182,0-4.402C235.482,132.377,237.456,132.377,238.669,133.586z
		 M181.504,190.588c-1.22-1.22-1.22-3.182,0-4.402c1.221-1.208,3.182-1.208,4.391,0c1.221,1.22,1.209,3.182,0,4.391
		C184.675,191.796,182.713,191.808,181.504,190.588z M191.074,181.024c-1.208-1.209-1.208-3.182,0-4.391
		c1.221-1.22,3.188-1.22,4.402,0c1.215,1.208,1.203,3.182,0,4.391C194.262,182.233,192.283,182.245,191.074,181.024z
		 M201.104,171.146c-1.214-1.22-1.214-3.182,0-4.402c1.214-1.208,3.188-1.208,4.391,0c1.203,1.22,1.203,3.182,0,4.391
		C204.292,172.354,202.331,172.354,201.104,171.146z M213.19,159.223c-1.226-1.208-1.214-3.182,0-4.385
		c1.203-1.208,3.176-1.208,4.379,0c1.226,1.214,1.226,3.176,0,4.385C216.367,160.432,214.393,160.443,213.19,159.223z
		 M223.221,149.35c-1.215-1.22-1.227-3.182,0-4.391c1.214-1.22,3.176-1.22,4.391,0c1.214,1.208,1.214,3.182,0,4.391
		C226.397,150.553,224.435,150.553,223.221,149.35z M287.749,84.822c-1.202-1.214-1.214-3.176,0-4.396
		c1.227-1.22,3.188-1.208,4.402,0c1.203,1.221,1.203,3.182,0,4.396C290.937,86.031,288.963,86.031,287.749,84.822z M324.835,71.563
		c1.214,1.22,1.214,3.182,0,4.402c-1.215,1.208-3.188,1.208-4.391-0.012c-1.227-1.208-1.227-3.17,0-4.391
		C321.659,70.343,323.621,70.354,324.835,71.563z M314.792,81.454c1.227,1.208,1.227,3.17,0,4.391c-1.202,1.208-3.176,1.208-4.379,0
		c-1.226-1.22-1.226-3.182,0-4.391C311.617,80.233,313.579,80.233,314.792,81.454z M289.71,106.694
		c-1.215-1.221-1.215-3.176,0-4.396c1.227-1.208,3.176-1.208,4.391,0c1.215,1.22,1.215,3.176,0,4.385
		C292.886,107.902,290.925,107.902,289.71,106.694z M282.646,118.137c-1.215,1.22-3.177,1.22-4.391,0
		c-1.203-1.208-1.203-3.176,0-4.385c1.226-1.22,3.176-1.22,4.391,0C283.86,114.961,283.86,116.929,282.646,118.137z
		 M272.615,123.625c1.215,1.22,1.215,3.182,0,4.402c-1.226,1.208-3.188,1.208-4.391,0c-1.214-1.22-1.202-3.182,0-4.402
		C269.427,122.417,271.389,122.417,272.615,123.625z M260.705,140.09c-1.227,1.22-3.188,1.208-4.402,0
		c-1.215-1.214-1.215-3.176,0-4.396c1.215-1.208,3.176-1.208,4.391,0C261.908,136.926,261.908,138.887,260.705,140.09z
		 M250.662,145.579c1.215,1.208,1.215,3.182,0,4.39c-1.214,1.221-3.188,1.221-4.391,0c-1.214-1.22-1.214-3.182,0-4.39
		C247.474,144.375,249.448,144.375,250.662,145.579z M193.502,202.574c-1.22-1.214-1.22-3.176,0-4.379
		c1.215-1.226,3.177-1.226,4.402,0c1.203,1.203,1.203,3.176,0,4.379C196.679,203.8,194.706,203.8,193.502,202.574z M203.066,193.022
		c-1.214-1.214-1.214-3.176,0-4.396c1.214-1.208,3.188-1.208,4.39,0c1.203,1.22,1.203,3.182,0,4.396
		C206.254,194.237,204.292,194.237,203.066,193.022z M213.097,183.138c-1.215-1.208-1.215-3.182,0-4.385
		c1.214-1.22,3.176-1.22,4.391,0c1.226,1.203,1.226,3.176,0,4.385C216.285,184.346,214.311,184.346,213.097,183.138z
		 M225.183,171.215c-1.215-1.208-1.215-3.182,0-4.396c1.214-1.208,3.176-1.208,4.379,0c1.226,1.215,1.226,3.188,0,4.396
		C228.359,172.424,226.385,172.436,225.183,171.215z M235.225,161.342c-1.226-1.208-1.226-3.182,0-4.391
		c1.214-1.22,3.176-1.22,4.391,0c1.214,1.209,1.214,3.182,0,4.391C238.401,162.545,236.427,162.545,235.225,161.342z
		 M299.741,96.821c-1.214-1.22-1.214-3.182,0-4.391c1.227-1.22,3.188-1.22,4.391,0c1.215,1.208,1.215,3.182,0,4.391
		C302.929,98.029,300.967,98.029,299.741,96.821z M335.963,82.709c1.214,1.208,1.214,3.182,0,4.391
		c-1.226,1.214-3.176,1.214-4.391,0c-1.214-1.22-1.214-3.194,0-4.402C332.788,81.477,334.761,81.477,335.963,82.709z
		 M325.933,92.576c1.214,1.214,1.202,3.176,0,4.396c-1.227,1.208-3.188,1.22-4.391,0c-1.203-1.221-1.203-3.182,0-4.385
		C322.745,91.368,324.707,91.368,325.933,92.576z M300.838,117.828c-1.214-1.22-1.214-3.182,0-4.402c1.227-1.22,3.188-1.208,4.402,0
		c1.215,1.209,1.215,3.182,0,4.391C304.015,119.048,302.053,119.036,300.838,117.828z M293.774,129.271
		c-1.214,1.22-3.176,1.208-4.391,0c-1.214-1.22-1.214-3.182,0-4.402c1.215-1.208,3.188-1.208,4.402,0
		C295,126.089,295,128.051,293.774,129.271z M283.744,134.771c1.226,1.209,1.226,3.17,0,4.391c-1.203,1.221-3.165,1.221-4.391,0
		c-1.215-1.208-1.203-3.182,0-4.391C280.579,133.539,282.541,133.539,283.744,134.771z M271.833,151.224
		c-1.214,1.22-3.176,1.22-4.391,0c-1.214-1.208-1.214-3.182,0-4.385c1.227-1.208,3.188-1.226,4.402,0
		C273.047,148.042,273.047,150.016,271.833,151.224z M261.791,156.712c1.227,1.22,1.203,3.182,0,4.391
		c-1.215,1.22-3.176,1.22-4.391,0s-1.203-3.182,0-4.402C258.626,155.504,260.587,155.504,261.791,156.712z M204.631,213.727
		c-1.215-1.227-1.203-3.188,0-4.403c1.226-1.203,3.188-1.203,4.402,0c1.214,1.214,1.214,3.176,0,4.391
		C207.819,214.929,205.845,214.929,204.631,213.727z M214.207,204.151c-1.227-1.203-1.227-3.188,0-4.391
		c1.202-1.226,3.176-1.226,4.379,0c1.226,1.203,1.214,3.188,0,4.391C217.382,205.365,215.409,205.365,214.207,204.151z
		 M224.249,194.272c-1.226-1.226-1.226-3.182,0-4.402c1.203-1.208,3.165-1.208,4.391,0c1.214,1.208,1.202,3.176,0,4.391
		C227.414,195.475,225.452,195.498,224.249,194.272z M236.311,182.361c-1.226-1.22-1.214-3.194,0-4.402
		c1.214-1.203,3.188-1.203,4.402,0c1.202,1.208,1.202,3.182,0,4.402C239.488,183.57,237.513,183.57,236.311,182.361z
		 M246.353,172.471c-1.202-1.203-1.214-3.176,0-4.396c1.215-1.208,3.177-1.208,4.391,0.012c1.203,1.208,1.203,3.182,0,4.385
		C249.518,173.679,247.568,173.679,246.353,172.471z M310.881,107.949c-1.227-1.22-1.227-3.176,0-4.396
		c1.214-1.209,3.176-1.209,4.39,0c1.215,1.22,1.215,3.176,0,4.396C314.057,109.158,312.083,109.158,310.881,107.949z
		 M347.967,94.689c1.203,1.22,1.203,3.182,0,4.402c-1.202,1.208-3.176,1.208-4.391,0c-1.202-1.22-1.202-3.182,0-4.402
		C344.792,93.481,346.753,93.481,347.967,94.689z M337.925,104.58c1.203,1.208,1.203,3.182,0,4.385c-1.227,1.22-3.188,1.22-4.402,0
		c-1.203-1.203-1.203-3.176,0-4.385C334.738,103.36,336.71,103.36,337.925,104.58z M312.843,129.82c-1.215-1.22-1.227-3.182,0-4.385
		c1.214-1.208,3.176-1.208,4.379,0c1.226,1.214,1.226,3.176,0,4.385C316.019,131.029,314.045,131.029,312.843,129.82z
		 M305.778,141.264c-1.214,1.22-3.176,1.22-4.379,0c-1.226-1.208-1.226-3.182,0-4.385c1.203-1.208,3.177-1.208,4.379,0
		C306.993,138.082,306.993,140.055,305.778,141.264z M295.736,146.764c1.227,1.208,1.227,3.182,0,4.391
		c-1.203,1.208-3.176,1.208-4.391,0s-1.215-3.182,0-4.391C292.572,145.543,294.533,145.543,295.736,146.764z M283.826,163.217
		c-1.215,1.22-3.177,1.208-4.402,0c-1.203-1.22-1.215-3.182,0-4.385c1.226-1.208,3.188-1.22,4.402,0
		C285.04,160.046,285.04,162.008,283.826,163.217z M273.794,168.705c1.215,1.208,1.215,3.182,0,4.391
		c-1.215,1.22-3.176,1.22-4.391,0c-1.215-1.209-1.215-3.182,0-4.391C270.607,167.496,272.58,167.496,273.794,168.705z
		 M216.624,225.707c-1.215-1.203-1.215-3.188,0-4.391c1.226-1.215,3.188-1.215,4.391,0c1.226,1.203,1.214,3.188,0,4.391
		C219.811,226.933,217.849,226.933,216.624,225.707z M226.199,216.154c-1.215-1.226-1.215-3.188,0-4.402s3.176-1.214,4.379,0
		c1.227,1.214,1.227,3.176,0,4.402C229.375,217.357,227.414,217.357,226.199,216.154z M236.229,206.264
		c-1.214-1.214-1.214-3.176,0-4.391c1.203-1.203,3.177-1.203,4.391,0c1.215,1.214,1.215,3.176,0,4.391
		C239.417,207.479,237.444,207.479,236.229,206.264z M248.303,194.354c-1.214-1.214-1.202-3.193,0-4.402
		c1.215-1.214,3.177-1.214,4.391,0c1.215,1.209,1.215,3.188,0,4.391C251.48,195.545,249.506,195.568,248.303,194.354z
		 M258.345,184.463c-1.202-1.215-1.202-3.176,0-4.385c1.227-1.221,3.188-1.209,4.391,0c1.215,1.22,1.215,3.182,0,4.385
		C261.534,185.672,259.56,185.684,258.345,184.463z M322.874,119.947c-1.215-1.208-1.227-3.182,0-4.391
		c1.214-1.22,3.176-1.22,4.379,0c1.226,1.208,1.226,3.182,0,4.391C326.049,121.15,324.087,121.15,322.874,119.947z M358.197,104.913
		c1.203,1.22,1.203,3.182,0,4.402c-1.215,1.209-3.188,1.209-4.391,0c-1.227-1.22-1.227-3.182,0-4.402
		C355.009,103.704,356.97,103.704,358.197,104.913z M348.142,114.803c1.215,1.209,1.227,3.182,0,4.385
		c-1.214,1.22-3.176,1.22-4.391,0c-1.214-1.203-1.214-3.176,0-4.385C344.966,113.583,346.94,113.583,348.142,114.803z
		 M323.06,140.043c-1.215-1.22-1.215-3.182,0-4.402c1.215-1.203,3.176-1.203,4.402,0c1.203,1.208,1.203,3.17,0,4.391
		C326.236,141.252,324.263,141.252,323.06,140.043z M316.007,151.487c-1.227,1.22-3.188,1.22-4.391,0s-1.215-3.182,0-4.391
		c1.227-1.203,3.176-1.203,4.391,0C317.21,148.305,317.21,150.278,316.007,151.487z M305.976,156.987
		c1.203,1.208,1.215,3.17,0,4.391c-1.226,1.208-3.188,1.208-4.391,0c-1.226-1.22-1.226-3.182,0-4.391
		C302.789,155.767,304.75,155.767,305.976,156.987z M294.054,173.44c-1.227,1.22-3.188,1.208-4.391,0
		c-1.215-1.22-1.215-3.176,0-4.396c1.203-1.208,3.176-1.208,4.391,0C295.257,170.275,295.257,172.231,294.054,173.44z
		 M284.024,178.928c1.214,1.22,1.214,3.182,0,4.391c-1.227,1.22-3.188,1.22-4.391,0c-1.227-1.208-1.227-3.182,0-4.391
		C280.824,177.72,282.797,177.72,284.024,178.928z M226.853,235.924c-1.227-1.203-1.203-3.176,0-4.379
		c1.214-1.226,3.176-1.226,4.391,0c1.202,1.215,1.214,3.176,0,4.379C230.029,237.15,228.067,237.15,226.853,235.924z
		 M236.427,226.372c-1.214-1.214-1.214-3.176,0-4.391c1.215-1.214,3.188-1.214,4.391,0c1.203,1.227,1.203,3.188,0,4.391
		C239.604,227.587,237.642,227.587,236.427,226.372z M246.447,216.494c-1.215-1.227-1.203-3.188,0-4.415
		c1.215-1.203,3.188-1.214,4.391,0c1.227,1.214,1.227,3.188,0,4.391C249.646,217.708,247.673,217.708,246.447,216.494z
		 M258.533,204.583c-1.227-1.215-1.215-3.2,0-4.402c1.215-1.226,3.176-1.226,4.391,0c1.214,1.203,1.214,3.176,0,4.379
		C261.708,205.774,259.736,205.786,258.533,204.583z M268.575,194.704c-1.226-1.214-1.226-3.2,0-4.402
		c1.203-1.208,3.177-1.208,4.379,0c1.215,1.203,1.215,3.188,0,4.402C271.751,195.907,269.79,195.907,268.575,194.704z
		 M333.103,130.165c-1.215-1.203-1.215-3.176,0-4.385c1.226-1.208,3.188-1.22,4.402,0c1.202,1.22,1.202,3.182,0,4.385
		C336.279,131.385,334.317,131.373,333.103,130.165z"/>
</g>
<g>
</g>
<g>
</g>
<g>
</g>
<g>
</g>
<g>
</g>
<g>
</g>
<g>
</g>
<g>
</g>
<g>
</g>
<g>
</g>
<g>
</g>
<g>
</g>
<g>
</g>
<g>
</g>
<g>
</g>
</svg>
