<?xml version="1.0" encoding="iso-8859-1"?>
<!-- Generator: Adobe Illustrator 16.0.0, SVG Export Plug-In . SVG Version: 6.00 Build 0)  -->
<!DOCTYPE svg PUBLIC "-//W3C//DTD SVG 1.1//EN" "http://www.w3.org/Graphics/SVG/1.1/DTD/svg11.dtd">
<svg version="1.1" id="Capa_1" xmlns="http://www.w3.org/2000/svg" xmlns:xlink="http://www.w3.org/1999/xlink" x="0px" y="0px"
	 width="371.671px" height="371.671px" viewBox="0 0 371.671 371.671" style="enable-background:new 0 0 371.671 371.671;"
	 xml:space="preserve">
<g>
	<g>
		<path d="M79.55,106.916c-0.415,1.191-0.403,4.157-0.082,7.065c0,0.42-0.117,0.812-0.117,1.244c0,1.938,0.082,3.848,0.263,5.739
			c2.949,31.16,28.802,54.654,60.132,54.654c33.314,0,60.399-27.091,60.399-60.394c0-1.676-0.35-3.241-0.49-4.881
			c0.245-1.944,0.467-4.017,0.631-6.44c2.148-3.807,1.167-23.763-5.652-24.148c0.397-11-4.081-11.093-5.634-14.013
			c-1.559-2.931-2.826-11.105-5.839-11.479c1.46,5.932,0.876,6.615,0,5.838c-0.881-0.794-7.987-14.614-12.459-14.807
			c4.483,5.851,7.006,11.205,6.229,10.714c-0.776-0.49-24.44-15.577-36.217-16.155c-11.776-0.584-26.472,9.149-26.472,9.149
			s-0.707-4.887,3.678-9.172c-3.217-0.981-7.771,7.917-8.571,9.342c-0.386,0.677-6.528-0.362-12.366,2.341
			c-6.516,3.024-12.874,9.984-15.087,14.41c-4.187,8.373-3.205,19.384-3.124,21.019c0.087,1.652-2.627,5.261-2.137,9.067
			C77.127,99.798,80.438,104.376,79.55,106.916z M90.854,122.972c1.623-4.747,4.589-6.708,4.473-9.733
			c-0.192-5.453-3.649-4.426-3.696-9.925c-0.023-2.99,0.537-6.3,1.424-9.4c1.944-4.256,4.543-8.127,7.532-11.671
			c8.01-2.447,32.118,5.453,37.378,3.544c2.534-3.124,24.633-4.963,35.826-2.633c4.601,0.969,10.544,7.643,13.137,18.689
			c1.857,7.917,2.61,17.282,2.908,24.656c-5.179,22.934-25.625,40.14-50.101,40.14c-24.096,0-44.245-16.377-49.792-39.077
			C90.159,125.868,90.41,124.25,90.854,122.972z"/>
		<path d="M301.807,111.732c-4.951-2.107-10.3-3.41-15.893-3.836l-0.841-0.204c0,0-0.047,0.082-0.082,0.152
			c-1.027-0.059-2.055-0.152-3.094-0.152c-28.178,0-51.018,22.846-51.018,51.023c0,13.534,5.289,25.801,13.896,34.926
			c0,0.012,0,0.047,0,0.058c4.624,6.055,6.143,14.124,6.516,22.461l-7.333,9.517l-40.729-31.546l0.012-0.251l-0.537-0.158
			l-0.596-0.455l-0.164,0.239l-25.024-7.21c0,17.404-14.106,31.51-31.505,31.51s-31.499-14.105-31.499-31.51l-34.412,7.561
			l-0.035-0.052L37.63,226.227l-15.87-20.493L0,225.619l14.41,18.602l1.588,2.043l16.441,21.207l23.22-17.983l-0.035-0.047
			l25.899-20.062l4.939,102.537h108.662l5.979-102.291l24.872,19.267l-0.023,0.035l23.226,17.995l0.421-0.526
			c8.115,7.438,33.058,7.742,35.486,7.812c2.568,0.07,4.846-8.021,0-9.703c-1.658-0.747-2.113-11.957,0-16.955
			c2.125-4.986,12.95-40.461,12.95-40.461l73.636-22.812v-55.723L301.807,111.732z M278.021,176.424
			c-11.152,0-20.213-9.056-20.213-20.208c0-11.157,9.061-20.213,20.213-20.213c11.175,0,20.213,9.044,20.213,20.213
			C298.233,167.38,289.195,176.424,278.021,176.424z"/>
	</g>
</g>
<g>
</g>
<g>
</g>
<g>
</g>
<g>
</g>
<g>
</g>
<g>
</g>
<g>
</g>
<g>
</g>
<g>
</g>
<g>
</g>
<g>
</g>
<g>
</g>
<g>
</g>
<g>
</g>
<g>
</g>
</svg>
