<?xml version="1.0" encoding="iso-8859-1"?>
<!-- Generator: Adobe Illustrator 16.0.0, SVG Export Plug-In . SVG Version: 6.00 Build 0)  -->
<!DOCTYPE svg PUBLIC "-//W3C//DTD SVG 1.1//EN" "http://www.w3.org/Graphics/SVG/1.1/DTD/svg11.dtd">
<svg version="1.1" id="Capa_1" xmlns="http://www.w3.org/2000/svg" xmlns:xlink="http://www.w3.org/1999/xlink" x="0px" y="0px"
	 width="375.208px" height="375.208px" viewBox="0 0 375.208 375.208" style="enable-background:new 0 0 375.208 375.208;"
	 xml:space="preserve">
<g>
	<g>
		<path d="M121.698,83.881c-0.491,1.39-0.479,4.799-0.111,8.145c0,0.491-0.14,0.934-0.14,1.425c0,2.236,0.093,4.437,0.298,6.615
			c3.392,35.896,33.18,62.975,69.28,62.975c38.371,0,69.583-31.219,69.583-69.59c0-1.927-0.408-3.743-0.571-5.623
			c0.291-2.248,0.537-4.636,0.735-7.421c2.476-4.391,1.331-27.371-6.505-27.815c0.456-12.687-4.717-12.78-6.504-16.155
			c-1.786-3.375-3.258-12.792-6.737-13.236c1.67,6.825,1.004,7.631,0,6.732c-1.017-0.911-9.202-16.838-14.363-17.061
			c5.173,6.726,8.069,12.897,7.193,12.337c-0.899-0.561-28.165-17.948-41.734-18.619c-13.569-0.677-30.5,10.539-30.5,10.539
			s-0.788-5.611,4.256-10.539c-3.695-1.121-8.956,9.114-9.879,10.767c-0.443,0.776-7.52-0.42-14.24,2.686
			c-7.508,3.491-14.835,11.514-17.387,16.611c-4.817,9.651-3.696,22.327-3.597,24.212c0.128,1.927-3.001,6.089-2.44,10.462
			C118.883,75.707,122.713,80.968,121.698,83.881z M134.717,102.395c1.874-5.477,5.284-7.724,5.155-11.216
			c-0.228-6.276-4.209-5.108-4.25-11.443c-0.023-3.457,0.625-7.257,1.641-10.825c2.248-4.91,5.237-9.359,8.682-13.452
			c9.23-2.82,37.005,6.282,43.071,4.081c2.907-3.59,28.375-5.716,41.267-3.024c5.313,1.109,12.168,8.798,15.146,21.532
			c2.137,9.126,3.001,19.91,3.351,28.399c-5.967,26.425-29.531,46.253-57.731,46.253c-27.768,0-50.976-18.87-57.357-45.021
			C133.906,105.729,134.204,103.878,134.717,102.395z"/>
		<path d="M323.361,204.815L311.1,220.72l-46.942-36.357l0.035-0.286l-0.631-0.181l-0.665-0.514l-0.198,0.263l-28.831-8.308
			c0,20.049-16.255,36.298-36.304,36.298c-20.038,0-36.292-16.237-36.292-36.298l-39.649,8.717L121.575,184l-48.197,37.362
			l-13.931-17.972c0.718-67.599,1.027-136.103-0.169-143.062c-2.394-13.908-13.826-16.167-13.826-16.167l0.204,6.113l-7.637,0.666
			l0.141,162.306l-6.948,6.341l-0.467-4.297l5.441-0.351L20.247,51.506l-7.648,0.059l-0.409-6.102c0,0-11.146,3.375-12.162,17.434
			c-1.051,14.088,27.943,271.58,29.333,279.146c0.596,3.234,3.55,4.66,6.72,5.244l0.684,21.415l14.071-0.443l-0.671-21.124
			c3.503-0.806,6.936-2.499,7.234-6.154c0.228-2.768,0.841-38.289,1.424-83.164l8.577,11.059l26.758-20.727l-0.035-0.047
			l29.847-23.109l5.693,118.137h125.202l6.878-117.845l28.644,22.198l-0.046,0.047l26.764,20.738l18.637-24.055
			c-0.619,7.754-1.203,16.033-1.203,22.63c0,10.872,1.752,90.171,12.483,87.812c10.719,2.359,12.471-76.939,12.471-87.812
			c0-14.001-2.639-35.755-2.639-43.474c0-9.68,13.803-15.565,13.803-15.565v-27.617h-47.293V204.815z M31.55,222.599l11.846,15.298
			l-0.834,86.527L31.55,222.599z"/>
		<rect x="318.527" y="173.293" width="56.389" height="4.84"/>
		<rect x="318.527" y="166.532" width="56.389" height="4.858"/>
		<rect x="318.527" y="159.047" width="56.389" height="4.846"/>
		<rect x="318.527" y="152.292" width="56.389" height="4.858"/>
		<rect x="318.527" y="144.363" width="56.389" height="4.846"/>
		<rect x="318.527" y="137.607" width="56.389" height="4.858"/>
		<rect x="318.527" y="130.111" width="56.389" height="4.846"/>
		<rect x="318.527" y="123.355" width="56.389" height="4.84"/>
		<rect x="318.831" y="116.455" width="56.377" height="4.846"/>
		<rect x="318.831" y="109.699" width="56.377" height="4.846"/>
		<rect x="318.831" y="101.759" width="56.377" height="4.858"/>
		<rect x="318.831" y="95.015" width="56.377" height="4.846"/>
		<rect x="318.831" y="87.519" width="56.377" height="4.846"/>
		<rect x="318.831" y="80.775" width="56.377" height="4.834"/>
		<rect x="318.527" y="73.278" width="56.389" height="4.84"/>
		<path d="M370.666,62.407c0,0-6.178-4.256-23.95-4.256c-17.761,0-23.343,4.256-23.343,4.256v9.412h47.293V62.407z"/>
	</g>
</g>
<g>
</g>
<g>
</g>
<g>
</g>
<g>
</g>
<g>
</g>
<g>
</g>
<g>
</g>
<g>
</g>
<g>
</g>
<g>
</g>
<g>
</g>
<g>
</g>
<g>
</g>
<g>
</g>
<g>
</g>
</svg>
