<?xml version="1.0" encoding="iso-8859-1"?>
<!-- Generator: Adobe Illustrator 16.0.0, SVG Export Plug-In . SVG Version: 6.00 Build 0)  -->
<!DOCTYPE svg PUBLIC "-//W3C//DTD SVG 1.1//EN" "http://www.w3.org/Graphics/SVG/1.1/DTD/svg11.dtd">
<svg version="1.1" id="Capa_1" xmlns="http://www.w3.org/2000/svg" xmlns:xlink="http://www.w3.org/1999/xlink" x="0px" y="0px"
	 width="377.042px" height="377.042px" viewBox="0 0 377.042 377.042" style="enable-background:new 0 0 377.042 377.042;"
	 xml:space="preserve">
<g>
	<g>
		<ellipse cx="307.331" cy="42.137" rx="40.894" ry="42.137"/>
		<path d="M334.235,102.379c-14.771-12.016-45.027-0.847-51.986-1.553c-6.948-0.694-55.957-39.533-55.957-39.533l-3.199,3.06
			c-0.619-9.926-1.588-26.11-4.694-36.316c-4.204-13.721-5.815-14.702-9.517-14.404c-3.713,0.333-15.479,3.895-15.479,3.895
			l0.274,1.483c0,0,9.424-0.969,13.236-1.36c0.286-0.035,0.607,0.193,0.923,0.607l-13.359,2.989l0.251,1.319l14.211-2.073
			c0.128,0.274,0.246,0.613,0.35,0.934l-13.866,3.095l0.263,1.319l14.316-2.107c0.093,0.327,0.187,0.683,0.269,1.027l-13.931,3.124
			l0.251,1.314l14.333-2.055c0.094,0.42,0.188,0.812,0.269,1.244l-14.375,3.229l0.251,1.302l14.625-2.306
			c0.082,0.467,0.199,0.934,0.269,1.384l-14.427,3.229l0.24,1.319l14.643-2.236c0.082,0.415,0.163,0.847,0.245,1.267l-14.433,3.24
			l0.251,1.302l14.579-2.33c0.07,0.415,0.14,0.835,0.199,1.255l-14.346,3.229l0.251,1.314l14.48-2.178
			c0.082,0.526,0.175,1.075,0.257,1.606l-14.211,3.176l0.239,1.308l14.287-2.049c0.047,0.467,0.129,0.922,0.164,1.354l-13.972,3.129
			l0.251,1.32l14.001-2.073c0.046,0.409,0.093,0.817,0.116,1.22l-14.24,3.205l0.251,1.302l14.223-1.897
			c0.023,0.426,0.058,0.847,0.058,1.244l-14.281,3.193l0.263,1.302l14.03-2.055c-0.058,0.735-0.175,1.167-0.35,1.238
			c-1.962,0.648-13.376,3.305-13.376,3.305s0.047,0.572,0.141,1.244c3.158,0.49,11.473,1.506,12.71,6.837
			c0.199,0.84,0.327,1.961,0.42,3.252l-5.594,5.36c0,0,2.161,1.588,5.675,4.209c-0.199,9.184-0.875,19.944-0.257,23.588
			c0.969,5.769,14.549,3.556,15.811-4.076c0.315-1.757-0.187-4.939-0.981-8.536c20.855,15.951,50.353,39.527,50.106,45.149
			c-0.338,8.717-3.023,88.565,0.374,91.473l0,0l-6.995,64.819l6.189,63.746h-18.041v18.741h61.328v-4.052v-14.701V237.886
			c7.229-1.401,12.717-5.22,13.674-13.113C338.801,199.982,350.7,115.772,334.235,102.379z M221.937,104.148
			c-1.354,0.263-2.65-0.607-2.907-1.962c-0.269-1.349,0.619-2.65,1.961-2.919c1.355-0.245,2.651,0.636,2.908,1.985
			C224.155,102.583,223.268,103.885,221.937,104.148z"/>
		<path d="M155.103,13.621c17.75,0,32.142,14.386,32.142,32.142c0,17.749-14.392,32.141-32.142,32.141
			c-17.749,0-32.141-14.392-32.141-32.141C122.961,28.007,137.354,13.621,155.103,13.621z"/>
		<path d="M187.256,226.887l0.105,0.023l24.51-110.612l-24.709-5.477l-1.974,8.91c1.279,32.305-0.636,77.799-13.767,86.79
			c-7.713,5.29-23.611,7.963-47.287,7.963c-14.602,0-32.071-1.074-50.153-2.989v16.102h42.043l-6.137,126.137h-37.15l-12.851,19.279
			h144.633l-12.851-19.279h-39.545L146,227.587h41.244v-0.7H187.256z"/>
		<path d="M45.355,202.843c0.958,0.199,1.903,0.385,2.954,0.549c6.493,0.969,13.213,1.857,20.009,2.639
			c0.059,0,0.117,0.023,0.175,0.023l0,0c6.078,0.701,12.185,1.319,18.263,1.833c0.151,0.012,0.298,0.035,0.449,0.059
			c3.83,0.315,7.631,0.584,11.397,0.829c0.601,0.035,1.208,0.07,1.792,0.117c3.912,0.245,7.789,0.42,11.566,0.572
			c0.368,0,0.741,0,1.109,0.023c3.24,0.093,6.398,0.152,9.505,0.164c0.502,0,1.027,0.023,1.536,0.023
			c0.724,0,1.407-0.012,2.125-0.023c1.173-0.012,2.329-0.023,3.468-0.047c1.413-0.023,2.797-0.07,4.175-0.117
			c1.098-0.047,2.201-0.094,3.264-0.152c1.313-0.07,2.592-0.164,3.871-0.245c1.033-0.07,2.072-0.14,3.065-0.246
			c1.244-0.117,2.4-0.245,3.573-0.385c0.934-0.105,1.892-0.21,2.773-0.327c1.139-0.164,2.189-0.351,3.241-0.537
			c0.823-0.14,1.687-0.28,2.476-0.444c1.028-0.21,1.961-0.467,2.919-0.724c0.694-0.175,1.424-0.327,2.066-0.537
			c0.981-0.28,1.845-0.642,2.715-0.958c0.491-0.21,1.04-0.374,1.483-0.572c1.255-0.549,2.382-1.156,3.346-1.81
			c0.514-0.35,1.016-0.794,1.494-1.319c0.169-0.175,0.304-0.385,0.467-0.584c0.298-0.385,0.625-0.759,0.911-1.203
			c0.181-0.257,0.333-0.584,0.502-0.864c0.251-0.42,0.514-0.864,0.753-1.354c0.181-0.338,0.321-0.701,0.491-1.062
			c0.239-0.502,0.455-1.016,0.671-1.576c0.164-0.386,0.298-0.794,0.45-1.215c0.216-0.583,0.408-1.179,0.613-1.798
			c0.128-0.426,0.263-0.864,0.391-1.32c0.204-0.671,0.374-1.354,0.566-2.073c0.117-0.438,0.228-0.881,0.333-1.349
			c0.192-0.776,0.362-1.588,0.525-2.394c0.099-0.438,0.192-0.87,0.274-1.326c0.181-0.922,0.338-1.862,0.514-2.832
			c0.064-0.374,0.134-0.753,0.192-1.139c0.205-1.185,0.374-2.376,0.537-3.608c0.023-0.205,0.064-0.385,0.088-0.59
			c1.004-7.485,1.611-15.828,1.921-24.347c0-0.047,0-0.093,0-0.128c0.076-1.664,0.123-3.334,0.158-4.998c0-0.058,0-0.117,0-0.169
			c0.046-1.688,0.07-3.357,0.093-5.021c0-0.023,0-0.035,0-0.035l0,0c0.146-12.891-0.321-25.409-1.086-35.037
			c0-0.012,0-0.012,0-0.012c0-0.035,0-0.058,0-0.093c-0.094-1.074-0.181-2.119-0.263-3.124c-0.012-0.128-0.023-0.263-0.035-0.391
			c-0.111-1.028-0.204-2.02-0.298-2.955c0-0.07-0.012-0.157-0.029-0.216c-0.438-3.994-0.928-7.129-1.442-9.015
			c-11.718-7.222-35.802-3.182-44.653-3.206c-7.409,3.503-14.229,70.145-45.892,67.634C48.823,149.286,3.937,194.342,45.355,202.843
			L45.355,202.843z"/>
		<path d="M47.604,208.156c-1.921-0.28-3.667-0.677-5.296-1.074c-4.805,6.726-8.057,11.444-8.057,11.444
			c0,4.904,5.693,6.235,12.851,6.235c6.229,0,11.432-3.013,12.698-7.019l5.395-7.251C59.333,209.802,53.454,209.02,47.604,208.156z"
			/>
	</g>
</g>
<g>
</g>
<g>
</g>
<g>
</g>
<g>
</g>
<g>
</g>
<g>
</g>
<g>
</g>
<g>
</g>
<g>
</g>
<g>
</g>
<g>
</g>
<g>
</g>
<g>
</g>
<g>
</g>
<g>
</g>
</svg>
