<?xml version="1.0" encoding="iso-8859-1"?>
<!-- Generator: Adobe Illustrator 16.0.0, SVG Export Plug-In . SVG Version: 6.00 Build 0)  -->
<!DOCTYPE svg PUBLIC "-//W3C//DTD SVG 1.1//EN" "http://www.w3.org/Graphics/SVG/1.1/DTD/svg11.dtd">
<svg version="1.1" id="Capa_1" xmlns="http://www.w3.org/2000/svg" xmlns:xlink="http://www.w3.org/1999/xlink" x="0px" y="0px"
	 width="372.779px" height="372.779px" viewBox="0 0 372.779 372.779" style="enable-background:new 0 0 372.779 372.779;"
	 xml:space="preserve">
<g>
	<g>
		<path d="M301.17,159.702c22.887-15.793,37.903-42.183,37.903-72.1C339.074,39.223,299.851,0,251.472,0
			c-9.342,0-18.332,1.495-26.787,4.221c-58.841,0-170.065,0-180.849,0c-14.749,0-12.209,80.018,0,80.018c6.381,0,65.356,0,120.204,0
			c-0.035,1.138-0.164,2.236-0.164,3.363c0,43.497,31.721,79.48,73.28,86.34v18.952h-10.112v18.952h10.112v11.373h-10.112v18.953
			h10.112v37.238c-6.247,6.551-10.112,15.367-10.112,25.094c0,20.236,16.604,36.643,37.074,36.643c5.652,0,11-1.296,15.787-3.538
			l23.553,35.171l9.786-6.562l-23.588-35.218c7.076-6.69,11.502-16.079,11.502-26.507c0-4.273-0.794-8.385-2.148-12.215h2.148
			V159.702H301.17z M251.472,55.589c6.574,0,12.67,1.985,17.738,5.372h-35.476C238.815,57.574,244.91,55.589,251.472,55.589z
			 M230.01,63.909h42.937c2.242,2.038,4.192,4.367,5.78,6.948h-54.485C225.83,68.276,227.768,65.946,230.01,63.909z M222.619,73.811
			h57.696c1.121,2.347,1.997,4.846,2.534,7.473h-62.765C220.622,78.657,221.498,76.158,222.619,73.811z M251.472,119.608
			c-6.492,0-12.518-1.938-17.562-5.26h35.137C263.991,117.67,257.965,119.608,251.472,119.608z M272.83,111.394h-42.703
			c-2.137-1.909-4.017-4.11-5.569-6.527h53.854C276.835,107.295,274.956,109.484,272.83,111.394z M280.082,101.923h-57.206
			c-1.074-2.166-1.927-4.449-2.499-6.849h62.192C282.008,97.475,281.156,99.769,280.082,101.923z M283.129,92.132h-63.313
			c-0.222-1.483-0.351-2.989-0.351-4.531c0-1.139,0.059-2.248,0.176-3.363h63.663c0.105,1.115,0.188,2.236,0.188,3.363
			C283.492,89.143,283.328,90.649,283.129,92.132z"/>
		<polygon points="147.027,235.854 140.283,235.854 140.283,163.421 133.966,163.421 133.966,235.854 128.91,235.854 
			128.91,163.421 122.598,163.421 122.598,235.854 115.855,235.854 115.855,163.421 109.526,163.421 109.526,235.854 
			103.214,235.854 103.214,163.421 96.903,163.421 96.903,235.854 90.159,235.854 90.159,163.421 83.842,163.421 83.842,235.854 
			75.843,235.854 75.843,163.421 69.532,163.421 69.532,235.854 62.788,235.854 62.788,163.421 56.471,163.421 56.471,235.854 
			56.471,238.4 56.471,275.767 66.578,323.455 143.238,323.455 153.338,275.767 153.338,238.4 153.338,235.854 153.338,163.421 
			147.027,163.421 		"/>
	</g>
</g>
<g>
</g>
<g>
</g>
<g>
</g>
<g>
</g>
<g>
</g>
<g>
</g>
<g>
</g>
<g>
</g>
<g>
</g>
<g>
</g>
<g>
</g>
<g>
</g>
<g>
</g>
<g>
</g>
<g>
</g>
</svg>
