<?xml version="1.0" encoding="iso-8859-1"?>
<!-- Generator: Adobe Illustrator 16.0.0, SVG Export Plug-In . SVG Version: 6.00 Build 0)  -->
<!DOCTYPE svg PUBLIC "-//W3C//DTD SVG 1.1//EN" "http://www.w3.org/Graphics/SVG/1.1/DTD/svg11.dtd">
<svg version="1.1" id="Capa_1" xmlns="http://www.w3.org/2000/svg" xmlns:xlink="http://www.w3.org/1999/xlink" x="0px" y="0px"
	 width="377.519px" height="377.518px" viewBox="0 0 377.519 377.518" style="enable-background:new 0 0 377.519 377.518;"
	 xml:space="preserve">
<g>
	<g>
		<path d="M121.3,108.064c-0.433,1.226-0.421,4.256-0.1,7.217c0,0.432-0.117,0.829-0.117,1.272c0,1.974,0.082,3.936,0.263,5.868
			c3.013,31.855,29.438,55.881,61.474,55.881c34.057,0,61.743-27.698,61.743-61.749c0-1.71-0.374-3.328-0.502-4.986
			c0.256-1.985,0.479-4.116,0.642-6.58c2.207-3.895,1.203-24.283-5.769-24.68c0.409-11.239-4.18-11.344-5.769-14.322
			c-1.588-2.99-2.896-11.35-5.979-11.742c1.495,6.061,0.899,6.755,0,5.979c-0.899-0.806-8.162-14.935-12.728-15.14
			c4.578,5.979,7.158,11.456,6.364,10.953c-0.782-0.502-24.983-15.927-37.01-16.517c-12.045-0.596-27.074,9.354-27.074,9.354
			s-0.706-4.975,3.778-9.354c-3.287-0.993-7.952,8.086-8.764,9.558c-0.379,0.695-6.673-0.374-12.64,2.388
			c-6.656,3.088-13.16,10.211-15.426,14.736c-4.268,8.56-3.275,19.81-3.188,21.486c0.093,1.682-2.692,5.377-2.189,9.266
			C118.812,100.79,122.193,105.466,121.3,108.064z M132.836,124.482c1.676-4.857,4.7-6.854,4.583-9.949
			c-0.204-5.576-3.731-4.525-3.783-10.153c-0.023-3.065,0.555-6.446,1.459-9.604c1.997-4.361,4.642-8.308,7.701-11.934
			c8.191-2.499,32.836,5.576,38.22,3.625c2.592-3.194,25.164-5.074,36.619-2.691c4.718,0.981,10.789,7.806,13.429,19.109
			c1.903,8.092,2.662,17.673,2.966,25.193c-5.29,23.436-26.203,41.039-51.21,41.039c-24.633,0-45.226-16.739-50.906-39.941
			C132.13,127.431,132.393,125.796,132.836,124.482z"/>
		<path d="M45.69,214.39c1.664,0,3.013,1.355,3.013,3.014s-1.349,3.012-3.013,3.012s-3.013-1.354-3.013-3.012
			S44.026,214.39,45.69,214.39z"/>
		<path d="M342.697,192.344v-18.538h-25.946v18.141c-13.533,4.239-23.202,15.226-23.202,28.154c0,1.133,0.351,2.184,0.502,3.281
			l-4.694,6.084l-41.641-32.265l0.012-0.257l-0.549-0.164l-0.596-0.467l-0.175,0.245l-25.585-7.368
			c0,17.796-14.409,32.206-32.205,32.206c-17.778,0-32.2-14.421-32.2-32.206l-35.177,7.73l-0.041-0.046l-42.756,33.14
			l-16.225-20.926l-7.724,7.053c3.036-32.229,11.309-98.835,6.265-99.688c-0.362-0.059-0.742,0.286-1.15,0.993
			c-6.72,9.003-20.826,96.453-25.24,111.026c-4.163,13.755-11.957,35.452-16.144,40.146c-8.822-0.688-16.832,6.154-18.064,15.647
			c-1.272,9.786,5.126,18.707,14.264,19.886c9.138,1.18,17.598-5.814,18.87-15.588c0.847-6.609-1.798-12.811-6.422-16.512
			c-0.765-5.932,11.572-32.112,15.268-39.796l2.581,3.316c1.961,12.004,5.407,35.499,3.042,39.608
			c-0.023,0.059-0.035,0.082-0.052,0.117c-6.025,2.09-10.772,7.73-11.707,14.83c-1.255,9.785,5.156,18.707,14.281,19.874
			c9.132,1.203,17.598-5.804,18.87-15.577c1.121-8.676-3.807-16.675-11.315-19.186c-2.178-1.984-3.468-14.981-4.052-27.967
			l0.882,1.145l1.629,2.078l16.798,21.674l23.774-18.357l-0.035-0.047l26.472-20.504l5.044,104.812h111.084l6.107-104.557
			l25.421,19.688l-0.047,0.047l23.751,18.403l14.912-19.243v0.724h39.224v-8.011c9.528-5.395,15.822-14.584,15.822-25.012
			C364.639,207.583,355.577,196.852,342.697,192.344z M29.804,288.096c-1.021,7.87-7.713,13.476-14.9,12.554
			c-7.21-0.936-12.243-8.069-11.216-15.928c1.016-7.859,7.689-13.477,14.9-12.553C25.792,273.126,30.831,280.273,29.804,288.096z
			 M65.699,293.982c-1.016,7.847-7.713,13.475-14.924,12.541c-7.21-0.934-12.231-8.08-11.216-15.928
			c1.004-7.836,7.701-13.475,14.912-12.541C61.665,278.988,66.703,286.134,65.699,293.982z M46.304,212.65
			c2.615,0.34,4.472,2.744,4.133,5.36c-0.344,2.616-2.738,4.473-5.366,4.134c-2.609-0.35-4.46-2.756-4.128-5.371
			C41.294,214.157,43.682,212.312,46.304,212.65z"/>
		<path d="M360.948,149.121v-8.32l12.017-6.125l-3.702-9.383l-48.297,17.218l-0.012-0.035l-12.271,6.609h-10.65v3.386h11.678
			l11.058,6.481v8.956h-1.997v4.747h21.627v-4.747h-1.834c-0.116-2.405-0.338-8.624,0.246-9.809
			c12.342-5.488,36.806,26.886,36.806,26.886l1.903-1.786L360.948,149.121z M320.756,155.018l-7.648-4.484l7.648-4.122V155.018z"/>
	</g>
</g>
<g>
</g>
<g>
</g>
<g>
</g>
<g>
</g>
<g>
</g>
<g>
</g>
<g>
</g>
<g>
</g>
<g>
</g>
<g>
</g>
<g>
</g>
<g>
</g>
<g>
</g>
<g>
</g>
<g>
</g>
</svg>
