<?xml version="1.0" encoding="iso-8859-1"?>
<!-- Generator: Adobe Illustrator 16.0.0, SVG Export Plug-In . SVG Version: 6.00 Build 0)  -->
<!DOCTYPE svg PUBLIC "-//W3C//DTD SVG 1.1//EN" "http://www.w3.org/Graphics/SVG/1.1/DTD/svg11.dtd">
<svg version="1.1" id="Capa_1" xmlns="http://www.w3.org/2000/svg" xmlns:xlink="http://www.w3.org/1999/xlink" x="0px" y="0px"
	 width="382.636px" height="382.636px" viewBox="0 0 382.636 382.636" style="enable-background:new 0 0 382.636 382.636;"
	 xml:space="preserve">
<g>
	<g>
		<path d="M341.684,0.047c22.619,0,40.952,18.894,40.952,42.195c0,23.307-18.333,42.201-40.952,42.201
			c-22.618,0-40.951-18.894-40.951-42.201C300.732,18.94,319.065,0.047,341.684,0.047z"/>
		<path d="M368.611,102.56c-14.807-12.045-40.531-5.325-53.306-1.751c-12.098,4.653-32.883,9.365-57.709,10.883V77.279h-1.145
			v-2.797h-4.951v-3.649h-7.31V55.005l-1.541,0.905c0,0-1.425,0.479-1.985,1.173c-0.7-0.321-1.729,0.765-2.242,1.314
			c-0.396-0.321-1.833,0.707-2.323,1.378c-0.444-0.397-1.717,0.525-2.137,1.255c-0.491-0.812-2.149,1.267-2.149,1.267v12.173h-4.811
			l0.164,2.797h-1.309v82.504h31.738v-26.816c22.233-3.479,57.405-8.075,57.172-2.108c-0.351,8.717-4.181,96.354-0.771,99.262l0,0
			l-7.006,64.924l6.188,63.84h-18.053v18.776h61.422v-4.063v-14.713v-120.59c7.216-1.425,12.728-5.231,13.686-13.148
			C373.2,200.309,385.111,115.971,368.611,102.56z M229.759,154.798V83.065h4.017V112.1c-0.187-0.011-0.373,0-0.561-0.011
			l0.561,2.055v40.654H229.759z"/>
		<polygon points="195.731,333.498 195.731,332.797 195.849,332.82 220.37,222.028 195.615,216.541 175.355,308.158 82.266,308.158 
			82.266,333.498 124.022,333.498 118.727,363.275 81.068,363.275 68.194,382.589 213.037,382.589 200.169,363.275 160.087,363.275 
			154.786,333.498 		"/>
		<path d="M163.146,166.527c21.334,0,38.622-17.288,38.622-38.622c0-0.905-0.07-1.781-0.128-2.68
			c0.653,0.076,1.284,0.204,1.961,0.204c9.167,0,16.64-7.374,16.64-16.441c0-7.52-5.243-14.012-12.506-15.84
			c0.561-1.664,0.84-3.363,0.84-5.085c0-8.641-6.772-15.747-15.601-16.354c-1.921-7.128-8.46-12.185-16.032-12.185
			c-5.57,0-10.737,2.797-13.809,7.386c-1.699-0.56-3.456-0.834-5.249-0.834c-9.172,0-16.634,7.368-16.634,16.441
			c0,4.233,1.652,8.098,4.379,11.011c-12.512,6.399-21.095,19.373-21.095,34.377C124.524,149.239,141.812,166.527,163.146,166.527z
			 M144.458,82.505c0-7.281,6.014-13.213,13.417-13.213c1.839,0,3.608,0.356,5.295,1.074l1.337,0.59l0.707-1.267
			c2.37-4.274,6.854-6.936,11.718-6.936c6.457,0,11.992,4.554,13.166,10.807l0.514,1.279h1.337c7.392,0,13.405,5.932,13.405,13.212
			c0,1.915-0.443,3.789-1.308,5.611l-0.981,2.008l2.23,0.274c6.691,0.835,11.712,6.434,11.712,13.032
			c0,7.281-6.001,13.213-13.405,13.213c-0.794,0-1.565-0.128-2.335-0.263c-2.884-18.497-18.823-32.644-38.12-32.644
			c-5.108,0-9.972,1.004-14.444,2.814C146.092,89.68,144.458,86.294,144.458,82.505z"/>
		<path d="M86.808,298.49h21.62h34.202h23.004c0,0,20.196-98.812,22.432-109.707c2.236-10.895,1.302-16.167-5.943-16.219
			c-7.234-0.059-36.205,0-36.205,0v0.018l-0.076-0.029c0,0-31.312,66.057-59.092,64.271c-15.098,0.245-14.672,15.683,15.928,16.663
			c7.042,0.258,14.112-3.572,20.809-9.528l-5.249,19.022c-19.6-0.059-44.781,0.07-50.451,0.852
			c-7.905,1.098-43.882,59.554-56.295,80.059H0v17.445h56.202v-17.445h-0.923L86.808,298.49z"/>
		<rect x="225.835" y="161.448" width="31.75" height="5.08"/>
	</g>
</g>
<g>
</g>
<g>
</g>
<g>
</g>
<g>
</g>
<g>
</g>
<g>
</g>
<g>
</g>
<g>
</g>
<g>
</g>
<g>
</g>
<g>
</g>
<g>
</g>
<g>
</g>
<g>
</g>
<g>
</g>
</svg>
