<?xml version="1.0" encoding="iso-8859-1"?>
<!-- Generator: Adobe Illustrator 16.0.0, SVG Export Plug-In . SVG Version: 6.00 Build 0)  -->
<!DOCTYPE svg PUBLIC "-//W3C//DTD SVG 1.1//EN" "http://www.w3.org/Graphics/SVG/1.1/DTD/svg11.dtd">
<svg version="1.1" id="Capa_1" xmlns="http://www.w3.org/2000/svg" xmlns:xlink="http://www.w3.org/1999/xlink" x="0px" y="0px"
	 width="383.221px" height="383.221px" viewBox="0 0 383.221 383.221" style="enable-background:new 0 0 383.221 383.221;"
	 xml:space="preserve">
<g>
	<g>
		<path d="M371.225,199.373c0.104-2.499,0.385-4.963,0.385-7.497c0-2.26-0.257-4.438-0.35-6.685
			c0.898-4.327,3.07-8.775,5.149-12.863c2.066-4.571,4.216-8.67,4.683-10.988c1.892-7.678-2.581-12.308-7.485-15.286
			c-3.503-2.184-7.205-3.596-9.505-5.19c-1.309-4.396-2.873-8.705-4.508-12.961c-0.455-4.589-0.023-9.61,0.374-14.205
			c0.596-5.068,1.39-9.698,1.133-12.074c-2.195-13.476-16.407-12.104-23.074-13.779c-2.662-3.713-5.384-7.386-8.303-10.889
			c-4.391-8.273-4.775-21.211-7.169-25.077c-6.014-12.436-19.373-6.072-26.122-5.628c-3.737-2.68-7.579-5.167-11.502-7.549
			c-6.574-6.907-11.572-18.188-14.842-21.58c-5.418-5.728-11.853-4.256-16.92-2.061c-3.714,1.617-6.913,3.982-9.552,5.167
			c-4.613-1.372-9.283-2.615-14.06-3.62c-8.279-4.198-16.312-13.47-20.417-15.221c-7.019-3.206-12.577-0.35-16.652,3.416
			c-2.966,2.978-5.226,6.288-7.333,8.25c-4.735,0.192-9.458,0.467-14.094,1.027c-9.295-1.062-20.149-7.637-24.645-7.748
			c-7.713-0.94-12.115,3.398-14.603,8.729c-1.88,3.719-2.966,7.573-4.35,10.037c-4.332,1.699-8.53,3.562-12.688,5.582
			c-9.365,1.723-21.526-0.263-26.127,0.636c-7.771,1.384-10.048,7.59-10.953,13.043c-0.695,4.005-0.444,8.045-0.911,10.895
			c-3.632,3.083-7.176,6.241-10.556,9.599c-7.963,4.758-20.499,6.218-24.061,8.863c-11.776,7.164-4.496,19.822-3.433,26.565
			c-2.365,3.97-4.577,8.016-6.645,12.162c-2.86,3.457-7.059,6.341-10.737,9.044c-4.023,3.036-7.871,5.617-9.412,7.438
			c-5.395,5.833-3.387,12.121-0.648,17.013c2.084,3.585,4.52,6.551,5.839,9.05c-0.958,4.589-1.629,9.266-2.236,13.966
			c-3.783,8.694-11.706,17.697-13.727,21.988c-4.379,12.81,8.489,18.403,13.604,23.039c0.601,4.834,1.267,9.669,2.248,14.375
			c-0.443,9.225-6.025,20.33-5.728,24.709c-0.443,13.767,14.124,14.607,20.377,17.387c2.031,4.156,4.221,8.221,6.562,12.191
			c1.354,4.285,1.494,9.376,1.722,13.965c0.35,5.021,0.409,9.646,1.092,11.923c1.933,7.706,8.296,9.446,13.89,9.855
			c4.151,0.233,7.987-0.222,10.824,0.058c3.299,3.293,6.802,6.389,10.34,9.4c5.372,7.754,8.267,19.852,10.953,23.611
			c4.665,6.178,10.907,6.306,16.313,4.916c4.04-1.215,7.666-3.082,10.428-3.771c4.18,2.066,8.442,3.994,12.792,5.733
			c3.661,2.511,6.948,6.224,9.867,9.879c3.311,3.888,6.253,7.31,8.203,8.699c3.142,2.277,6.241,2.989,9.097,2.756
			c2.896-0.456,5.547-1.845,7.917-3.491c3.392-2.336,6.171-5.186,8.536-6.68c4.618,0.584,9.289,0.888,14.001,1.121
			c9.003,3.001,18.666,10.428,23.114,11.817c7.497,2.65,12.437-1.903,15.846-6.235c2.464-3.258,4.18-6.727,5.932-8.957
			c4.694-0.98,9.283-2.23,13.837-3.561c9.389-0.188,20.926,3.899,25.503,3.736c7.707-0.549,11.222-5.723,13.021-10.988
			c1.202-4.053,1.6-8.104,2.545-10.824c3.865-2.312,7.695-4.719,11.386-7.311c4.191-1.845,9.236-2.65,14.047-3.094
			c5.057-0.678,9.552-1.25,11.759-2.114c7.427-2.662,8.934-8.827,8.7-14.632c-0.094-4.156-0.958-8.057-0.876-10.871
			c2.919-3.444,5.628-7.041,8.303-10.707c1.611-1.355,3.351-2.651,5.371-3.737c2.184-1.401,4.53-2.64,6.819-3.771
			c4.577-2.266,8.897-4.134,10.755-5.628c10.065-9.19,1.214-20.318-1.027-26.834c1.692-4.333,3.327-8.712,4.693-13.195
			c4.566-8.116,15.063-15.402,16.932-19.478C387.817,212.428,375.439,204.779,371.225,199.373z M192.448,351.268
			c-87.894,0-159.398-71.498-159.398-159.392c0-87.899,71.504-159.404,159.398-159.404c87.894,0,159.392,71.505,159.392,159.404
			C351.84,279.77,280.33,351.268,192.448,351.268z"/>
		<path d="M242.32,135.056c-4.332-21.953-41.979-34.961-50.719-18.497c-8.729-16.465-46.382-3.457-50.714,18.497
			c-5.652,22.957-35.609,29.274-52.226,17.293c0,25.947,27.943,26.268,45.231,27.943c40.958-1.798,53.907-20.674,57.708-29.298
			c3.824,8.624,16.762,27.5,57.714,29.298c17.294-1.675,45.237-1.997,45.237-27.943C277.9,164.33,247.973,158.013,242.32,135.056z"
			/>
		<path d="M191.029,160.325c-22.671,30.979-68.206,23.961-68.206,23.961s-2.154,42.435,11.216,53.516
			c-0.823,49.394,52.623,60.242,66.017,61.083c13.405,0.829,38.984-15.238,33.589-25.082c10.953-10.731,14.538-23.95,13.405-36.842
			c11.7-1.682,5.161-51.566,5.161-51.566S205.614,187.106,191.029,160.325z"/>
		<path d="M192.903,50.934c-78.534,0-142.438,63.903-142.438,142.438c0,78.551,63.903,142.449,142.438,142.449
			c78.552,0,142.449-63.897,142.449-142.449C335.341,114.836,271.455,50.934,192.903,50.934z M192.903,330.367
			c-75.533,0-136.984-61.468-136.984-136.996c0-75.522,61.451-136.984,136.984-136.984c75.527,0,136.996,61.462,136.996,136.984
			C329.888,268.899,268.431,330.367,192.903,330.367z"/>
	</g>
</g>
<g>
</g>
<g>
</g>
<g>
</g>
<g>
</g>
<g>
</g>
<g>
</g>
<g>
</g>
<g>
</g>
<g>
</g>
<g>
</g>
<g>
</g>
<g>
</g>
<g>
</g>
<g>
</g>
<g>
</g>
</svg>
