<?xml version="1.0" encoding="iso-8859-1"?>
<!-- Generator: Adobe Illustrator 16.0.0, SVG Export Plug-In . SVG Version: 6.00 Build 0)  -->
<!DOCTYPE svg PUBLIC "-//W3C//DTD SVG 1.1//EN" "http://www.w3.org/Graphics/SVG/1.1/DTD/svg11.dtd">
<svg version="1.1" id="Capa_1" xmlns="http://www.w3.org/2000/svg" xmlns:xlink="http://www.w3.org/1999/xlink" x="0px" y="0px"
	 width="375.632px" height="375.632px" viewBox="0 0 375.632 375.632" style="enable-background:new 0 0 375.632 375.632;"
	 xml:space="preserve">
<g>
	<path d="M340.247,46.279c7.999-57.697-37.915-56.453-57.288-23.594c18.952-5.477,34.109-8.419,17.691,16.85
		c-16.418,25.252-36.643,22.741-80.876-16.85C175.554-16.906,81.629-0.476,65.631,90.927
		c-16.009,91.379,52.22,157.098-31.172,162.457c51.321,56.436,81.798,26.192,94.678,5.302
		c10.235,13.709,19.828,23.121,16.441,28.014c-5.43,7.917-20.96,88.758-20.96,88.758l124.326,0.175c0,0-10.159-5.722-16.792-13.347
		c-4.554-5.22,1.378-15.519,7.964-33.362c0.888-2.404,6.259,1.017,9.716-7.146c3.468-8.14-3.41-12.214-2.593-14.679
		c0.724-2.172,1.261-1.902,1.705-3.619c0.934-4.963,3.176-7.953,6.235-9.716c46.347,1.413,58.432-0.888,46.965-33.011
		c1.495-1.367,9.774-6.738,11.537-10.592c1.764-3.818-2.405-4.787-2.405-4.787s3.06,0.152,5.29-3.363
		c2.254-3.526-3.842-17.305-3.842-17.305s15.367-3.363,18.742-9.133c3.362-5.768-27.08-41.173-25.947-47.583
		c1.133-6.405,6.247-9.447,7.695-11.046c1.448-1.612,4.834-18.987-13.942-46.609c-3.479-5.144-7.474-10.509-12.167-15.7
		C306.909,87.365,335.297,81.924,340.247,46.279z"/>
</g>
<g>
</g>
<g>
</g>
<g>
</g>
<g>
</g>
<g>
</g>
<g>
</g>
<g>
</g>
<g>
</g>
<g>
</g>
<g>
</g>
<g>
</g>
<g>
</g>
<g>
</g>
<g>
</g>
<g>
</g>
</svg>
