<?xml version="1.0" encoding="iso-8859-1"?>
<!-- Generator: Adobe Illustrator 16.0.0, SVG Export Plug-In . SVG Version: 6.00 Build 0)  -->
<!DOCTYPE svg PUBLIC "-//W3C//DTD SVG 1.1//EN" "http://www.w3.org/Graphics/SVG/1.1/DTD/svg11.dtd">
<svg version="1.1" id="Capa_1" xmlns="http://www.w3.org/2000/svg" xmlns:xlink="http://www.w3.org/1999/xlink" x="0px" y="0px"
	 width="344.89px" height="344.89px" viewBox="0 0 344.89 344.89" style="enable-background:new 0 0 344.89 344.89;"
	 xml:space="preserve">
<g>
	<g>
		<path d="M155.591,153.371c53.254,0,114.29-17.598,128.291-24.581c13.989-6.983,53.679-5.19,56.832-6.306
			c3.153-1.132,7.1-49.587,0.911-50.252c-6.225-0.683-40.251,0.24-57.743-7.473c-17.505-7.713-75.049-24.586-128.291-24.586
			C69.666,40.173,0,65.523,0,96.777C0,128.037,69.666,153.371,155.591,153.371z M155.842,123.611
			c-46.516,0-86.767-6.101-106.413-14.993h212.815C242.604,117.51,202.341,123.611,155.842,123.611z M109.578,104.099V86.636h87.835
			v17.463H109.578z M275.007,96.322c0,2.704-1.739,5.313-4.951,7.777H215.77V86.636h51.473
			C272.24,89.654,275.007,92.918,275.007,96.322z M155.842,69.05c43.089,0,80.853,5.237,101.777,13.078H54.047
			C74.984,74.275,112.737,69.05,155.842,69.05z M44.419,86.636h46.79v17.463H41.6c-3.194-2.464-4.939-5.074-4.939-7.777
			C36.66,92.918,39.422,89.654,44.419,86.636z"/>
		<path d="M341.625,223.574c-6.225-0.678-40.251,0.232-57.743-7.474c-17.505-7.707-75.037-24.581-128.291-24.581
			C69.666,191.531,0,216.871,0,248.119c0,31.26,69.666,56.599,155.591,56.599c53.254,0,114.29-17.597,128.291-24.58
			c13.989-6.983,53.679-5.196,56.832-6.306C343.868,272.71,347.814,224.25,341.625,223.574z M155.842,220.397
			c43.089,0,80.853,5.231,101.777,13.079H54.047C74.984,225.617,112.737,220.397,155.842,220.397z M197.413,237.983v17.457h-87.835
			v-17.457H197.413z M36.66,247.675c0-3.41,2.762-6.691,7.759-9.692h46.79v17.457H41.6C38.406,252.976,36.66,250.384,36.66,247.675z
			 M155.842,274.953c-46.516,0-86.767-6.096-106.413-14.994h212.815C242.604,268.857,202.341,274.953,155.842,274.953z
			 M270.056,255.44H215.77v-17.457h51.473c4.997,3.001,7.765,6.259,7.765,9.692C275.007,250.384,273.268,252.976,270.056,255.44z"/>
	</g>
</g>
<g>
</g>
<g>
</g>
<g>
</g>
<g>
</g>
<g>
</g>
<g>
</g>
<g>
</g>
<g>
</g>
<g>
</g>
<g>
</g>
<g>
</g>
<g>
</g>
<g>
</g>
<g>
</g>
<g>
</g>
</svg>
