<?xml version="1.0" encoding="iso-8859-1"?>
<!-- Generator: Adobe Illustrator 16.0.0, SVG Export Plug-In . SVG Version: 6.00 Build 0)  -->
<!DOCTYPE svg PUBLIC "-//W3C//DTD SVG 1.1//EN" "http://www.w3.org/Graphics/SVG/1.1/DTD/svg11.dtd">
<svg version="1.1" id="Capa_1" xmlns="http://www.w3.org/2000/svg" xmlns:xlink="http://www.w3.org/1999/xlink" x="0px" y="0px"
	 width="382.645px" height="382.645px" viewBox="0 0 382.645 382.645" style="enable-background:new 0 0 382.645 382.645;"
	 xml:space="preserve">
<g>
	<g>
		<g>
			<polygon points="236.825,79.864 238.763,75.397 193.497,96.305 199.125,100.013 			"/>
			<path d="M183.711,102.144l-25.409,12.208l-0.07-0.205c-0.146-0.175-0.263-0.333-0.42-0.502
				c-3.217-3.334-8.833-3.778-13.318-1.074c-2.522,1.495-4.367,3.777-5.237,6.358c-0.899,2.692-0.671,5.418,0.707,7.654
				c0.333,0.584,0.741,1.074,1.167,1.565c2.464,2.551,6.329,3.41,10.025,2.452c1.6-0.356,3.252-0.981,4.431-2.148
				c1.927-1.448,3.386-3.41,4.128-5.611c0.467-1.413,0.595-2.809,0.432-4.175l-0.158-0.391l28.638-11.765L183.711,102.144z
				 M156.883,121.919c-0.637,1.927-2.061,3.626-3.947,4.759c-3.339,1.985-7.403,1.751-9.674-0.584
				c-0.298-0.298-0.561-0.654-0.777-1.028c-0.899-1.483-1.051-3.351-0.444-5.202c0.672-1.927,2.067-3.608,3.959-4.747
				c3.322-2.008,7.415-1.769,9.686,0.584c0.286,0.304,0.572,0.66,0.753,1.004C157.344,118.223,157.502,120.068,156.883,121.919z"/>
			<path d="M247.451,120.092c-0.572-0.333-8.139,0.058-10.03-3.182c-0.468-1.267-1.18-2.511-2.091-3.585
				c-3.362-4.04-8.827-5.477-12.926-3.386c-0.105,0.052-0.222,0.123-0.338,0.169l-24.364-9.161l-41.454-26.128l1.098,4.052
				l37.116,30.244l4.846-2.306l19.08,7.327c-0.514,1.174-0.782,2.476-0.829,3.854c-0.023,2.732,0.993,5.5,2.85,7.725
				c3.386,4.052,8.805,5.488,12.938,3.404c0.584-0.274,1.133-0.654,1.635-1.074c1.133-0.935,1.973-2.131,2.51-3.492
				c2.593-2.942,7.404-1.699,8.49-1.804C247.089,122.661,248.046,120.436,247.451,120.092z M195.668,105.443
				c-0.765,0.374-1.722,0.064-2.09-0.707c-0.362-0.753-0.082-1.693,0.694-2.079c0.777-0.385,1.693-0.059,2.079,0.683
				C196.749,104.117,196.434,105.04,195.668,105.443z M233.076,125.784c-0.303,0.274-0.665,0.514-1.062,0.73
				c-2.884,1.448-6.819,0.333-9.306-2.657c-1.424-1.71-2.207-3.766-2.172-5.797c0.023-1.962,0.782-3.649,2.125-4.759
				c0.315-0.274,0.7-0.514,1.086-0.707c2.907-1.471,6.831-0.362,9.307,2.639c1.413,1.711,2.195,3.772,2.148,5.804
				C235.19,122.988,234.431,124.669,233.076,125.784z"/>
		</g>
		<path d="M370.679,199.07c0.105-2.499,0.374-4.939,0.374-7.485c0-2.26-0.245-4.438-0.327-6.674
			c0.888-4.314,3.048-8.764,5.138-12.851c2.067-4.548,4.228-8.647,4.683-10.953c1.88-7.678-2.58-12.284-7.496-15.273
			c-3.492-2.172-7.182-3.597-9.471-5.19c-1.308-4.373-2.873-8.665-4.508-12.933c-0.467-4.572-0.023-9.593,0.374-14.182
			c0.596-5.062,1.39-9.687,1.133-12.057c-2.195-13.464-16.371-12.086-23.039-13.762c-2.662-3.708-5.359-7.368-8.279-10.859
			c-4.39-8.273-4.764-21.188-7.169-25.048c-6.002-12.401-19.338-6.06-26.087-5.622c-3.737-2.663-7.556-5.162-11.479-7.532
			c-6.551-6.901-11.561-18.176-14.818-21.562c-5.396-5.71-11.829-4.227-16.886-2.043c-3.701,1.605-6.9,3.982-9.551,5.155
			c-4.602-1.372-9.272-2.622-14.025-3.625c-8.278-4.169-16.301-13.423-20.388-15.192c-7.006-3.194-12.564-0.351-16.646,3.427
			c-2.949,2.966-5.214,6.265-7.304,8.227c-4.735,0.192-9.447,0.467-14.071,1.027c-9.283-1.051-20.137-7.625-24.621-7.736
			c-7.725-0.952-12.127,3.386-14.603,8.705c-1.874,3.708-2.954,7.561-4.35,10.031c-4.309,1.676-8.519,3.544-12.664,5.576
			c-9.341,1.699-21.485-0.274-26.092,0.636C80.772,32.659,78.5,38.854,77.59,44.307c-0.677,3.982-0.456,8.022-0.893,10.866
			c-3.649,3.077-7.164,6.253-10.551,9.581c-7.975,4.77-20.47,6.241-24.031,8.863c-11.753,7.135-4.473,19.81-3.421,26.519
			c-2.365,3.959-4.578,7.999-6.65,12.15c-2.855,3.451-7.042,6.334-10.714,9.026c-4.017,3.036-7.853,5.623-9.395,7.438
			c-5.383,5.821-3.386,12.098-0.659,16.979c2.078,3.585,4.519,6.551,5.832,9.05c-0.951,4.572-1.611,9.254-2.207,13.943
			c-3.784,8.682-11.707,17.685-13.715,21.941c-4.367,12.798,8.478,18.38,13.592,23.028c0.584,4.811,1.255,9.621,2.236,14.327
			c-0.444,9.214-6.014,20.318-5.716,24.674c-0.444,13.756,14.1,14.597,20.341,17.376c2.032,4.145,4.222,8.209,6.551,12.167
			c1.355,4.274,1.495,9.342,1.723,13.942c0.333,5.021,0.397,9.646,1.074,11.899c1.938,7.694,8.291,9.446,13.873,9.844
			c4.151,0.233,7.975-0.222,10.795,0.069c3.316,3.27,6.808,6.354,10.334,9.365c5.354,7.754,8.25,19.828,10.93,23.576
			c4.647,6.166,10.889,6.295,16.272,4.916c4.04-1.214,7.654-3.082,10.416-3.771c4.187,2.066,8.431,3.994,12.757,5.733
			c3.673,2.499,6.937,6.224,9.855,9.855c3.299,3.877,6.242,7.298,8.186,8.688c3.147,2.288,6.236,2.988,9.09,2.756
			c2.885-0.444,5.535-1.846,7.906-3.48c3.369-2.336,6.154-5.185,8.524-6.68c4.601,0.584,9.266,0.889,13.978,1.121
			c9.003,2.99,18.654,10.404,23.086,11.795c7.485,2.639,12.401-1.904,15.811-6.236c2.464-3.246,4.181-6.715,5.92-8.944
			c4.695-0.981,9.272-2.219,13.814-3.55c9.377-0.188,20.902,3.889,25.479,3.736c7.695-0.561,11.21-5.722,12.997-10.977
			c1.202-4.04,1.6-8.104,2.545-10.801c3.877-2.324,7.684-4.706,11.374-7.322c4.181-1.845,9.213-2.639,14.013-3.059
			c5.056-0.689,9.552-1.262,11.735-2.113c7.415-2.675,8.933-8.84,8.688-14.633c-0.094-4.156-0.958-8.033-0.864-10.836
			c2.92-3.444,5.629-7.053,8.279-10.719c1.623-1.332,3.352-2.628,5.348-3.702c2.195-1.401,4.531-2.651,6.82-3.772
			c4.577-2.253,8.874-4.133,10.73-5.627c10.066-9.179,1.227-20.271-1.051-26.788c1.717-4.344,3.34-8.699,4.706-13.184
			c4.565-8.092,15.052-15.366,16.908-19.442C387.25,212.102,374.883,204.488,370.679,199.07z M192.166,32.432
			c66.017,0,122.779,40.438,146.822,97.836c-4.671,0.683-10.767,1.518-17.784,2.452c-22.747-48.273-71.768-81.862-128.583-81.862
			c-57.218,0-106.518,34.057-129.066,82.867c-6.937-0.812-13.201-1.582-18.678-2.259C68.668,73.436,125.682,32.432,192.166,32.432z
			 M308.522,206.52c1.284,1.261,3.142,1.904,5.57,1.904c1.751,0,3.246-0.432,4.495-1.296c1.25-0.864,2.009-1.798,2.289-2.756h7.578
			c-1.226,3.725-3.059,6.399-5.569,8.057s-5.535,2.499-9.108,2.499c-2.452,0-4.683-0.421-6.668-1.214
			c-1.984-0.818-3.643-1.962-5.021-3.41c-1.377-1.448-2.439-3.2-3.188-5.22c-0.759-2.02-1.133-4.239-1.133-6.667
			c0-2.347,0.386-4.507,1.168-6.54c0.747-2.038,1.845-3.771,3.258-5.243c1.401-1.472,3.095-2.645,5.057-3.48
			c1.961-0.858,4.145-1.279,6.516-1.279c2.686,0,4.998,0.514,6.971,1.553c1.985,1.028,3.62,2.417,4.882,4.163
			c1.261,1.734,2.195,3.719,2.755,5.932c0.561,2.23,0.76,4.542,0.607,6.971h-22.606C306.513,203.227,307.214,205.235,308.522,206.52
			z M192.86,144.567c-30.542,0-84.764-5.628-123.59-10.177c22.011-46.083,68.959-78.079,123.351-78.079
			c54.036,0,100.697,31.581,122.908,77.174C280.17,138.145,225.521,144.567,192.86,144.567z M292.525,170.782v43.258h-8.63v-43.258
			H292.525z M259.607,212.102l-11.023-29.392h9.201l7.088,21.451h0.141l6.843-21.451h8.897l-13.09,35.265
			c-0.934,2.51-2.23,4.309-3.865,5.441c-1.67,1.109-3.97,1.67-6.912,1.67c-0.888,0-1.764-0.035-2.64-0.094s-1.751-0.129-2.639-0.233
			v-7.076c0.794,0.069,1.635,0.14,2.487,0.245c0.841,0.07,1.693,0.094,2.545,0.047c0.725-0.07,1.32-0.292,1.834-0.689
			c0.502-0.373,0.876-0.852,1.133-1.424c0.245-0.561,0.35-1.168,0.35-1.822C259.957,213.362,259.852,212.708,259.607,212.102z
			 M242.5,206.894c0.479,0.49,1.46,0.747,2.908,0.747c0.969,0,1.868-0.093,2.686-0.257v6.75c-0.736,0.117-1.541,0.187-2.429,0.233
			s-1.764,0.07-2.616,0.07c-1.331,0-2.592-0.094-3.771-0.28c-1.215-0.188-2.254-0.537-3.164-1.098
			c-0.911-0.537-1.635-1.285-2.16-2.242c-0.515-0.981-0.771-2.254-0.771-3.83v-18.485h-5.22v-5.751h5.231v-9.388h8.595v9.388h6.317
			v5.751h-6.317v15.519C241.776,205.445,242.009,206.426,242.5,206.894z M216.565,203.484c-0.444-0.467-1.074-0.888-1.892-1.238
			c-0.829-0.374-1.857-0.712-3.083-1.004c-1.203-0.304-2.581-0.63-4.11-0.958c-1.249-0.269-2.487-0.607-3.678-1.004
			c-1.185-0.374-2.248-0.887-3.182-1.495c-0.934-0.642-1.688-1.424-2.248-2.359c-0.572-0.958-0.846-2.125-0.846-3.503
			c0-1.968,0.391-3.625,1.179-4.928c0.794-1.308,1.833-2.347,3.136-3.1c1.278-0.753,2.732-1.267,4.355-1.565s3.27-0.467,4.963-0.467
			c1.705,0,3.339,0.169,4.939,0.49c1.611,0.321,3.012,0.858,4.273,1.635c1.238,0.771,2.289,1.798,3.129,3.054
			c0.829,1.278,1.32,2.89,1.483,4.834h-8.186c-0.117-1.664-0.759-2.779-1.88-3.363c-1.121-0.59-2.464-0.888-4.005-0.888
			c-0.479,0-1.004,0.023-1.565,0.1c-0.572,0.058-1.086,0.187-1.553,0.391c-0.467,0.204-0.853,0.49-1.191,0.875
			c-0.327,0.38-0.49,0.894-0.49,1.553c0,0.765,0.28,1.378,0.853,1.868c0.572,0.491,1.308,0.888,2.23,1.191
			c0.911,0.304,1.927,0.583,3.106,0.817c1.179,0.233,2.371,0.514,3.585,0.794c1.25,0.269,2.464,0.607,3.667,1.004
			c1.203,0.409,2.254,0.946,3.199,1.611c0.923,0.677,1.67,1.495,2.242,2.499c0.561,0.98,0.853,2.218,0.853,3.667
			c0,2.055-0.42,3.783-1.25,5.185c-0.817,1.413-1.903,2.522-3.234,3.351c-1.332,0.864-2.861,1.471-4.566,1.81
			c-1.74,0.374-3.479,0.572-5.255,0.572c-1.798,0-3.596-0.198-5.324-0.572c-1.752-0.339-3.264-0.981-4.63-1.833
			c-1.36-0.853-2.475-1.997-3.333-3.421c-0.876-1.401-1.343-3.153-1.425-5.231h8.174c0,0.934,0.21,1.751,0.584,2.405
			c0.385,0.677,0.876,1.214,1.483,1.635c0.619,0.444,1.308,0.748,2.114,0.958c0.771,0.199,1.588,0.304,2.429,0.304
			c0.619,0,1.25-0.082,1.915-0.222c0.677-0.152,1.272-0.374,1.821-0.689c0.549-0.304,1.005-0.701,1.366-1.214
			c0.351-0.502,0.549-1.145,0.549-1.915C217.254,204.5,217.02,203.951,216.565,203.484z M166.208,188.537
			c0.397-0.958,0.945-1.857,1.641-2.692c0.688-0.834,1.483-1.541,2.364-2.131c0.888-0.596,1.828-1.039,2.873-1.36
			c1.027-0.321,2.066-0.49,3.129-0.49c0.648,0,1.268,0.105,1.88,0.297v7.999c-0.409-0.07-0.899-0.14-1.459-0.216
			c-0.572-0.058-1.115-0.093-1.641-0.093c-1.588,0-2.914,0.263-3.994,0.788c-1.098,0.526-1.973,1.238-2.65,2.149
			c-0.671,0.911-1.15,1.985-1.425,3.223s-0.42,2.546-0.42,3.924v14.105h-8.606v-31.33h8.174v5.815h0.135V188.537z M142.509,177.87
			v-7.088h8.618v7.088H142.509z M151.126,182.71v31.33h-8.618v-31.33H151.126z M126.546,189.646
			c-0.298-0.537-0.719-0.969-1.221-1.267s-1.086-0.502-1.746-0.607c-0.66-0.111-1.39-0.157-2.166-0.157
			c-1.658,0-2.978,0.368-3.958,1.103c-0.993,0.724-1.576,1.933-1.734,3.649h-8.605c0.116-2.038,0.619-3.725,1.506-5.05
			c0.894-1.314,2.021-2.394,3.393-3.217c1.366-0.788,2.907-1.372,4.618-1.734c1.688-0.333,3.421-0.514,5.214-0.514
			c1.576,0,3.182,0.117,4.77,0.333c1.629,0.228,3.1,0.66,4.437,1.291c1.325,0.66,2.417,1.57,3.252,2.744
			c0.847,1.179,1.279,2.686,1.279,4.542v16.295c0,1.425,0.081,2.779,0.239,4.064c0.169,1.296,0.455,2.265,0.847,2.907h-8.717
			c-0.164-0.479-0.286-0.98-0.391-1.483c-0.111-0.502-0.181-1.016-0.216-1.553c-1.378,1.424-2.989,2.428-4.84,3.012
			c-1.869,0.584-3.76,0.876-5.705,0.876c-1.494,0-2.896-0.187-4.186-0.583c-1.291-0.375-2.429-0.958-3.398-1.729
			c-0.969-0.771-1.734-1.751-2.26-2.896c-0.549-1.179-0.823-2.581-0.823-4.192c0-1.787,0.298-3.234,0.905-4.402
			c0.613-1.144,1.425-2.067,2.429-2.756c1.004-0.677,2.154-1.203,3.421-1.541c1.267-0.351,2.581-0.619,3.912-0.806
			c1.326-0.222,2.604-0.374,3.812-0.479c1.221-0.117,2.283-0.304,3.241-0.561c0.946-0.233,1.699-0.584,2.259-1.051
			c0.561-0.467,0.847-1.145,0.847-2.032C127.001,190.937,126.844,190.201,126.546,189.646z M73,195.403v18.648h-9.505v-43.258H73
			v16.605h17.516v-16.605h9.505v43.258h-9.517v-18.648H73z M191.331,240.08c40.987,0,93.347,4.718,126.347,8.175
			c-21.253,48.016-69.269,81.622-125.057,81.622c-56.114,0-104.387-33.979-125.458-82.44
			C102.882,244.096,153.52,240.08,191.331,240.08z M192.166,350.732c-67.249,0-124.764-41.968-148.03-101.054
			c5.067-0.514,10.83-1.074,17.299-1.705c21.515,51.251,72.2,87.346,131.186,87.346c58.625,0,109.07-35.662,130.802-86.435
			c6.516,0.7,12.108,1.308,16.383,1.821C316.288,309.254,259.035,350.732,192.166,350.732z"/>
		<path d="M313.543,188.344c-1.378,0-2.499,0.239-3.41,0.707s-1.646,1.051-2.195,1.734c-0.537,0.707-0.923,1.419-1.155,2.201
			c-0.223,0.783-0.351,1.437-0.386,2.055h14.001c-0.409-2.184-1.145-3.836-2.16-4.974
			C317.209,188.917,315.645,188.344,313.543,188.344z"/>
		<path d="M123.878,199.934c-0.63,0.128-1.291,0.222-2.008,0.303c-0.707,0.07-1.378,0.187-2.032,0.304
			c-0.694,0.117-1.325,0.28-1.938,0.479c-0.595,0.198-1.132,0.479-1.6,0.806c-0.467,0.35-0.841,0.771-1.127,1.331
			c-0.274,0.537-0.432,1.191-0.432,1.962c0,0.817,0.157,1.471,0.432,1.985c0.274,0.491,0.672,0.911,1.162,1.214
			c0.479,0.304,1.051,0.514,1.688,0.643c0.654,0.117,1.313,0.198,2.008,0.198c1.693,0,3.013-0.304,3.941-0.864
			c0.923-0.56,1.605-1.249,2.049-2.032c0.438-0.782,0.73-1.588,0.823-2.405c0.093-0.794,0.158-1.448,0.158-1.915v-3.223
			c-0.374,0.315-0.829,0.561-1.366,0.759C125.098,199.677,124.502,199.817,123.878,199.934z"/>
		<path d="M154.081,283.635c-0.49,0.233-1.027,0.396-1.588,0.467c-0.572,0.094-1.098,0.141-1.588,0.141
			c-0.753,0-1.472-0.094-2.143-0.257c-0.671-0.175-1.244-0.444-1.757-0.806c-0.502-0.374-0.911-0.841-1.22-1.437
			c-0.31-0.607-0.456-1.284-0.456-2.148h-5.354c-0.023,1.541,0.251,2.872,0.858,4.017c0.583,1.133,1.378,2.066,2.371,2.779
			c0.992,0.748,2.137,1.285,3.438,1.635c1.308,0.373,2.645,0.514,4.046,0.514c1.722,0,3.229-0.187,4.531-0.607
			c1.29-0.42,2.388-0.98,3.275-1.705c0.876-0.723,1.541-1.564,1.997-2.545c0.443-1.004,0.671-2.078,0.671-3.223
			c0-0.935-0.146-1.764-0.42-2.499c-0.274-0.712-0.66-1.331-1.109-1.845c-0.467-0.514-0.969-0.958-1.536-1.297
			c-0.549-0.338-1.098-0.643-1.646-0.852c-0.549-0.246-1.074-0.397-1.565-0.537c-0.502-0.129-0.899-0.258-1.208-0.305
			c-1.583-0.385-2.861-0.724-3.842-1.004c-0.969-0.257-1.734-0.514-2.271-0.759c-0.561-0.245-0.923-0.525-1.121-0.829
			c-0.192-0.304-0.274-0.713-0.274-1.203c0-0.514,0.117-0.957,0.345-1.319c0.251-0.374,0.537-0.665,0.911-0.911
			c0.356-0.232,0.765-0.385,1.203-0.49c0.444-0.094,0.899-0.14,1.343-0.14c0.654,0,1.279,0.069,1.862,0.187
			c0.602,0.117,1.115,0.304,1.571,0.607c0.438,0.28,0.8,0.654,1.075,1.168c0.274,0.49,0.432,1.121,0.479,1.868h5.354
			c0-1.472-0.274-2.71-0.834-3.737c-0.549-1.027-1.291-1.868-2.248-2.521c-0.922-0.654-2.008-1.145-3.229-1.425
			c-1.208-0.292-2.476-0.444-3.79-0.444c-1.138,0-2.248,0.152-3.375,0.468c-1.132,0.292-2.148,0.771-3.047,1.401
			c-0.888,0.631-1.612,1.424-2.178,2.37c-0.549,0.958-0.812,2.091-0.812,3.374c0,1.191,0.216,2.172,0.648,2.979
			c0.438,0.782,1.004,1.459,1.723,1.996c0.712,0.537,1.506,0.981,2.399,1.332c0.888,0.326,1.804,0.631,2.75,0.863
			c0.899,0.246,1.804,0.49,2.715,0.678c0.888,0.21,1.699,0.443,2.406,0.748c0.707,0.291,1.267,0.653,1.71,1.074
			c0.438,0.408,0.654,0.98,0.654,1.658c0,0.642-0.164,1.167-0.491,1.576C154.992,283.098,154.571,283.402,154.081,283.635z"/>
		<polygon points="169.997,277.073 180.173,277.073 180.173,287.956 185.72,287.956 185.72,262.756 180.173,262.756 
			180.173,272.425 169.997,272.425 169.997,262.756 164.45,262.756 164.45,287.956 169.997,287.956 		"/>
		<path d="M192.779,284.733c1.062,1.191,2.353,2.102,3.871,2.779c1.529,0.701,3.275,1.027,5.237,1.027s3.69-0.326,5.22-1.027
			c1.53-0.689,2.826-1.611,3.876-2.779c1.063-1.168,1.869-2.568,2.441-4.156c0.56-1.612,0.84-3.305,0.84-5.139
			c0-1.845-0.28-3.585-0.84-5.22c-0.572-1.623-1.378-3.048-2.441-4.239c-1.051-1.214-2.347-2.137-3.876-2.802
			c-1.53-0.7-3.258-1.028-5.22-1.028s-3.708,0.328-5.237,1.028c-1.519,0.677-2.809,1.6-3.871,2.802
			c-1.057,1.191-1.869,2.616-2.429,4.239c-0.572,1.635-0.847,3.352-0.847,5.22c0,1.822,0.274,3.526,0.847,5.139
			C190.91,282.165,191.722,283.565,192.779,284.733z M195.406,272.239c0.251-1.027,0.648-1.95,1.186-2.756
			c0.549-0.818,1.243-1.472,2.131-1.938c0.858-0.491,1.921-0.735,3.176-0.735c1.244,0,2.289,0.244,3.165,0.735
			c0.876,0.467,1.588,1.12,2.137,1.938c0.537,0.806,0.923,1.74,1.18,2.756c0.245,1.039,0.374,2.113,0.374,3.223
			c0,1.051-0.128,2.102-0.374,3.082c-0.257,1.005-0.643,1.893-1.18,2.698c-0.549,0.806-1.249,1.448-2.137,1.938
			c-0.853,0.479-1.921,0.735-3.165,0.735s-2.306-0.257-3.176-0.735c-0.876-0.49-1.582-1.133-2.131-1.938
			c-0.537-0.782-0.935-1.693-1.186-2.698c-0.251-0.98-0.356-2.031-0.356-3.082C195.05,274.34,195.155,273.278,195.406,272.239z"/>
		<path d="M223.571,278.918h5.815c1.576,0,2.92-0.246,4.029-0.701c1.097-0.467,1.996-1.074,2.709-1.822
			c0.688-0.747,1.19-1.611,1.518-2.58c0.304-0.957,0.479-1.962,0.479-2.989c0-1.017-0.175-2.009-0.479-2.989
			c-0.327-0.98-0.829-1.834-1.518-2.593c-0.713-0.759-1.612-1.343-2.709-1.81c-1.109-0.467-2.453-0.689-4.029-0.689h-11.35v25.188
			h5.535V278.918z M223.571,267.053h4.298c0.642,0,1.249,0.047,1.833,0.141c0.596,0.094,1.109,0.28,1.564,0.549
			c0.444,0.269,0.794,0.654,1.074,1.156c0.269,0.49,0.409,1.145,0.409,1.938s-0.141,1.448-0.409,1.938
			c-0.269,0.479-0.63,0.863-1.074,1.145c-0.455,0.268-0.969,0.455-1.564,0.561c-0.584,0.093-1.203,0.14-1.833,0.14h-4.298V267.053z"
			/>
	</g>
</g>
<g>
</g>
<g>
</g>
<g>
</g>
<g>
</g>
<g>
</g>
<g>
</g>
<g>
</g>
<g>
</g>
<g>
</g>
<g>
</g>
<g>
</g>
<g>
</g>
<g>
</g>
<g>
</g>
<g>
</g>
</svg>
