<?xml version="1.0" encoding="iso-8859-1"?>
<!-- Generator: Adobe Illustrator 16.0.0, SVG Export Plug-In . SVG Version: 6.00 Build 0)  -->
<!DOCTYPE svg PUBLIC "-//W3C//DTD SVG 1.1//EN" "http://www.w3.org/Graphics/SVG/1.1/DTD/svg11.dtd">
<svg version="1.1" id="Capa_1" xmlns="http://www.w3.org/2000/svg" xmlns:xlink="http://www.w3.org/1999/xlink" x="0px" y="0px"
	 width="584.969px" height="584.969px" viewBox="0 0 584.969 584.969" style="enable-background:new 0 0 584.969 584.969;"
	 xml:space="preserve">
<g>
	<path d="M463.023,527.663V346.586h15.27v-31.197h-15.27V188.206h63.234v-87.405h-41.805c-2.107-19.849-18.715-35.35-39.09-35.35
		c-20.395,0-36.948,15.5-39.073,35.35h-51.108v19.509H295.75c-2.839-42.644-29.224-89.271-79.011-109.753
		C148.727-17.462,63.18,13.86,43.107,62.63c-20.099,48.77,24.358,85.324,92.378,113.343
		c68.011,28.037,133.897,36.993,153.969-11.812c0.992-2.393,1.357-5.099,2.144-7.607h63.583v31.635h72.537v339.457l-83.699,18.287
		v39.037h202.703v-39.037L463.023,527.663z"/>
</g>
<g>
</g>
<g>
</g>
<g>
</g>
<g>
</g>
<g>
</g>
<g>
</g>
<g>
</g>
<g>
</g>
<g>
</g>
<g>
</g>
<g>
</g>
<g>
</g>
<g>
</g>
<g>
</g>
<g>
</g>
</svg>
