<?xml version="1.0" encoding="iso-8859-1"?>
<!-- Generator: Adobe Illustrator 16.0.0, SVG Export Plug-In . SVG Version: 6.00 Build 0)  -->
<!DOCTYPE svg PUBLIC "-//W3C//DTD SVG 1.1//EN" "http://www.w3.org/Graphics/SVG/1.1/DTD/svg11.dtd">
<svg version="1.1" id="Capa_1" xmlns="http://www.w3.org/2000/svg" xmlns:xlink="http://www.w3.org/1999/xlink" x="0px" y="0px"
	 width="317.945px" height="317.945px" viewBox="0 0 317.945 317.945" style="enable-background:new 0 0 317.945 317.945;"
	 xml:space="preserve">
<g>
	<path d="M10.019,289.335L29.8,274.294c3.153,2.814,7.111,4.928,10.819,2.732c7.759-4.623,258.256-177.783,269.922-189.565
		c11.677-11.776,6.049-24.248,6.049-24.248l-5.711,4.35l-5.85-6.849L147.949,172.81l3.888,5.102L46.346,251.524l96.423-85.71
		l4.041,4.962L292.383,44.092l-5.29-7.281l5.559-4.554c0,0-10.813-8.373-24.989,0.251C253.498,41.103,26.787,244.425,20.481,250.905
		c-2.703,2.779-2.043,6.574-0.456,10.008L0,276.163L10.019,289.335z"/>
</g>
<g>
</g>
<g>
</g>
<g>
</g>
<g>
</g>
<g>
</g>
<g>
</g>
<g>
</g>
<g>
</g>
<g>
</g>
<g>
</g>
<g>
</g>
<g>
</g>
<g>
</g>
<g>
</g>
<g>
</g>
</svg>
