<?xml version="1.0" encoding="iso-8859-1"?>
<!-- Generator: Adobe Illustrator 16.0.0, SVG Export Plug-In . SVG Version: 6.00 Build 0)  -->
<!DOCTYPE svg PUBLIC "-//W3C//DTD SVG 1.1//EN" "http://www.w3.org/Graphics/SVG/1.1/DTD/svg11.dtd">
<svg version="1.1" id="Capa_1" xmlns="http://www.w3.org/2000/svg" xmlns:xlink="http://www.w3.org/1999/xlink" x="0px" y="0px"
	 width="379.413px" height="379.413px" viewBox="0 0 379.413 379.413" style="enable-background:new 0 0 379.413 379.413;"
	 xml:space="preserve">
<g>
	<g>
		<path d="M195.258,73.913c20.75-4.14,46.358-0.864,66.769,3.404c-0.326-0.905-0.688-1.828-0.887-2.738
			c-4.857-22.846,0.712-77.921-56.914-74.418c-28.802,1.746-90.767,31.814-101.778,58.876c-7.531,18.438-9.639,37.501-9.709,48.513
			C110.494,100.455,162.188,80.475,195.258,73.913z"/>
		<path d="M270.062,90.558c-20.517-4.998-50.234-10.241-72.631-5.792c-35.3,7.018-94.8,30.734-105.077,34.868
			c-3.859,2.008-13.317,4.221-18.304,12.798c6.551,9.949,16.383,14.153,27.932,14.708c-2.417,19.104-7.222,64.954,1.15,75.312
			c10.626,13.16,12.004,6.691,13.854,38.779c1.857,32.077,16.576,44.396,13.394,72.69c8.548-3.259,0-53.552,0-53.552
			s14.316,48.484,5.991,72.258c11.064-7.029,13.154-38.791,13.154-38.791s1.629,38.103-3.468,52.641
			c7.392,0.689,12.459-32.567,12.459-32.567s8.25,28.036,0,38.103c8.32,0.7,13.166-29.088,13.166-29.088
			s-1.162,39.211,10.393,36.339c-7.777-8.058,0-28.036,0-28.036s28.154,15.472,31.167,2.078
			c-20.727,2.65-26.099-16.617-33.251-24.23c-7.146-7.625-21.807-60.954-21.807-60.954s8.034,5.956,11.432,1.39
			c-22.612-18.684-26.787-65.311-25.625-83.783c0.63-20.522,27.406-48.373,51.805-69.619c12.121-5.43,22.419-9.552,29.216-10.019
			c14.421-0.993,31.201,12.424,45.914,23.617c-3.223,8.238-14.55,18.689-13.358,31.102c1.611,17.072-21.93,52.629-28.399,67.855
			c-6.469,15.251-24.02,28.644-30.477,31.179c-6.458,2.521-2.779,40.391,4.846,58.14c7.625,17.772,24.697,49.64,40.858,52.64
			c-26.775-25.584-33.245-75.48-33.245-75.48s28.154,79.871,55.408,79.615c-27.651-22.257-18.018-41.547-18.018-41.547
			s7.38,21.006,21.475,12.459c-21.475-12.459-20.786-55.396-20.786-55.396s9.459,40.402,20.786,36.012
			C252.219,300.956,261,282.67,261,282.67s3.223,10.159,9.016,7.613c-8.549-13.16-7.672-38.441-5.547-47.094
			c2.137-8.641,13.16-53.317,13.16-55.396c0-1.915,8.991-10.784,4.25-50.124c2.078,1.384,4.04,2.534,5.955,3.55
			c1.857,8.081,2.195,18.584-1.892,28.58c7.1-2.668,8.478-15.25,8.291-26.069c4.367,0.992,7.976,0,10.416-4.414
			C309.951,125.005,284.471,108.027,270.062,90.558z"/>
	</g>
</g>
<g>
</g>
<g>
</g>
<g>
</g>
<g>
</g>
<g>
</g>
<g>
</g>
<g>
</g>
<g>
</g>
<g>
</g>
<g>
</g>
<g>
</g>
<g>
</g>
<g>
</g>
<g>
</g>
<g>
</g>
</svg>
