<?xml version="1.0" encoding="iso-8859-1"?>
<!-- Generator: Adobe Illustrator 16.0.0, SVG Export Plug-In . SVG Version: 6.00 Build 0)  -->
<!DOCTYPE svg PUBLIC "-//W3C//DTD SVG 1.1//EN" "http://www.w3.org/Graphics/SVG/1.1/DTD/svg11.dtd">
<svg version="1.1" id="Capa_1" xmlns="http://www.w3.org/2000/svg" xmlns:xlink="http://www.w3.org/1999/xlink" x="0px" y="0px"
	 width="382.216px" height="382.216px" viewBox="0 0 382.216 382.216" style="enable-background:new 0 0 382.216 382.216;"
	 xml:space="preserve">
<g>
	<path d="M323.543,194.309c4.683-8.454-16.336-23.903-16.336-23.903s5.091-4.904,12.576,0c0.759-7.188-13.195-11.753-23.004-14.071
		c1.693-0.269,3.585-0.806,5.675-1.857c-12.424-2.102-9.376-14.993-9.376-14.993s7.975,17.113,14.129,10.305
		c-10.369-4.303-4.753-22.957-4.753-22.957s8.922-9.914,12.658,0.467c4.216-7.03-7.905-13.131-7.905-13.131s10.019-2.785,12.576,0
		c1.88-7.964-19.197-17.79-19.197-17.79s12.658-1.401,11.712-5.167c-6.317-0.228-21.567-0.946-21.567-0.946
		s24.709-13.317,29.053-9.347c-0.922-10.772-34.658,2.329-34.658,2.329s9.845-15.927,12.635-15.7
		c-2.568-6.562-14.981,7.257-14.981,7.257s5.384-10.544,7.964-14.398c-0.899-0.747-5.021,2.429-9.424,6.282
		c1.109-1.039,2.219-2.096,3.328-3.135c-7.952-0.671-8.909-3.118-8.909-3.118s17.819-28.007,8.897-32.935
		c-0.104,6.294-4.18,12.961-7.847,17.749c-0.082-1.354-0.992-2.762-3.386-4.163c-3.271,8.431-15.928,15.928-15.928,15.928
		s-1.191-19.909,0-26.244c-1.95-0.782-4.216,6.574-5.815,13.248c-1.95-6.615-19.034-1.997-19.034-1.997s5.874-7.246,0-16.874
		c-1.635,11.251-9.832,18.736-9.832,18.736s7.73-44.969-18.274-41.682c17.539,12.792,7.497,27.167,7.497,27.167
		S201.71,0.778,194.692,7.335c2.925,2.773,4.951,7.579,6.72,10.708c-3.374-3.334-9.114-7.9-10.462-4.613
		c5.15,2.82,9.838,23.892,9.838,23.892s-7.415-17.971-14.263-16.862c5.132,4.928,0,14.526,0,14.526l-15.735,1.892
		c0,0,0.479-9.137,3.275-9.838c-3.036-5.646-10.772,7.018-12.652,7.497c-1.863,0.461,3.515-29.047,12.664-32.322
		c-5.155-9.855-29.059,16.383-29.059,16.383s-2.102-4.677,2.814-9.377c-3.742-3.036-19.682,15.46-19.682,15.46
		s5.033-19.489,14.515-22.479c-9.126-6.802-18.257,20.137-18.257,20.137s-1.88-5.155-8.898-4.209
		c-7.029,0.946-26.606,6.265-43.573,27.646C63.039,56.957,58.52,79.354,58.041,91.941c-1.062,27.896,15.618,37.057,23.687,39.842
		c-3.48,18.187,0.456,36.707,3.48,44.496c0.134,0.49,0.251,1.016,0.361,1.518c-2.773,0.561-7.105,0.561-10.573-4.332
		c-1.472,7.064,6.72,8.104,11.181,8.174c0.49,4.694-0.105,9.762-3.299,14.573c-6.72,10.066-14.205,14.69-16.634,21.428
		c-3.433,9.423,14.672,11.069,14.672,11.069l0.047,3.562c0,0-5.809,5.641-4.577,10.031c1.635,5.85,13.294,3.771,13.294,3.771
		s-11.192,4.121-10.655,9.574c0.531,5.453,5.202,7.812,5.202,7.812s-10.83,21.299,5.109,25.993
		c15.928,4.683,48.273-14.76,52.465,7.952c4.081,15.694,22.222,54.182,15.939,61.387c-6.288,7.217-15.939,18.274-15.939,18.274
		l165.406,5.149c0,0-51.076-66.057-56.226-73.554c-3.899-5.687-17.165-24.394-15.215-42.107l2.032,1.81l9.832-14.059
		c0,0,7.029,8.453,2.347,14.059c6.784-2.347,7.018-19.209,7.018-19.209s6.306,8.034,3.271,13.137
		c4.448-1.67,4.682-19.221,4.682-19.221s4.928,18.987,2.336,25.305c9.844-1.412,4.693-37.016,4.693-37.016s5.15,16.172,5.617,24.812
		c4.238-3.047,1.88-30.92,1.88-30.92s11.712,18.286,12.646,27.662c7.73-4.928-7.964-31.866-9.377-34.201
		c-1.39-2.336,14.538,5.395,19.221,11.711c3.749-9.154-18.274-18.273-18.274-18.273s19.197,3.981,23.494,9.213
		c3.573-7.906-18.8-18.123-18.8-18.123s21.544,4.238,24.358,10.322c3.981-9.166-25.305-25.783-25.305-25.783l19.746,8.442
		l-3.807-8.91c0,0,15.461,20.634,17.784,26.25c6.107-6.107-15.928-33.747-15.928-33.747S315.824,181.195,323.543,194.309z
		 M251.367,45.332c-1.121,4.771-1.856,8.887-1.856,8.887h-22.479C227.009,54.219,247.385,42.664,251.367,45.332z"/>
</g>
<g>
</g>
<g>
</g>
<g>
</g>
<g>
</g>
<g>
</g>
<g>
</g>
<g>
</g>
<g>
</g>
<g>
</g>
<g>
</g>
<g>
</g>
<g>
</g>
<g>
</g>
<g>
</g>
<g>
</g>
</svg>
