<?xml version="1.0" encoding="iso-8859-1"?>
<!-- Generator: Adobe Illustrator 16.0.0, SVG Export Plug-In . SVG Version: 6.00 Build 0)  -->
<!DOCTYPE svg PUBLIC "-//W3C//DTD SVG 1.1//EN" "http://www.w3.org/Graphics/SVG/1.1/DTD/svg11.dtd">
<svg version="1.1" id="Capa_1" xmlns="http://www.w3.org/2000/svg" xmlns:xlink="http://www.w3.org/1999/xlink" x="0px" y="0px"
	 width="375.84px" height="375.84px" viewBox="0 0 375.84 375.84" style="enable-background:new 0 0 375.84 375.84;"
	 xml:space="preserve">
<g>
	<g>
		<path d="M197.686,251.221c-7.03,2.512-7.088,10.533,0,12.564c7.088,2.032,29.636-1.518,59.285,17.096
			C251.447,256.266,204.715,248.699,197.686,251.221z"/>
		<path d="M182.587,251.221c-7.036-2.521-53.762,5.045-59.285,29.648c29.643-18.602,52.191-15.052,59.285-17.084
			C189.675,261.754,189.628,253.732,182.587,251.221z"/>
		<path d="M190.463,314.021c-19.6-0.724-39.352-10.369-40.006-5.512c-1.255,9.296,7.794,60.044,13.569,62.298
			c5.774,2.266,26.332-3.014,28.364,5.033c9.056-7.544,23.64-2.254,26.897-5.279c3.271-3.012,16.068-57.042,9.798-62.04
			C226.096,306.104,208.347,314.674,190.463,314.021z"/>
		<path d="M315.752,100.487c-18.1-14.071-31.399-54.27-33.665-61.305c-7.543-1.506-14.573,7.035-14.573,7.035
			s-4.764-7.538-6.025-13.575c-6.784,1.016-13.568,6.54-13.568,6.54s-6.025-14.071-5.021-22.111c-5.277,0.257-12.12,8.04-12.12,8.04
			s0.046-12.308-2.464-19.098c-12.798,0.753-19.093,6.527-19.093,6.527S204.715,6.767,205.217,0
			c-7.298,0.251-23.611,13.569-23.611,13.569s-4.524-2.762-3.013-7.042c-7.035,0.239-13.574,7.042-13.574,7.042
			s-4.759-4.029-3.001-10.556c-9.803,0.239-28.148,24.119-28.148,24.119s-6.971-4.986-4.268-7.532
			c-5.558,5.272-25.876,30.133-25.876,30.133s-8.787,5.284-11.047-0.491c-6.784,5.021-12.057,26.122-12.057,26.122
			s-6.778-3.515-10.054-7.532c-3.264,4.759,0,33.648,0,33.648s-16.827,1.255-19.601-5.021c-1.255,5.786,0.502,152.241,25.124,158.78
			c-6.527-119.568,31.651-119.568,35.166-125.109c3.515-5.523-8.034-28.649,0-34.663c8.034-6.014,14.579-11.059,31.149-10.042
			c16.576,1.004,39.69,15.081,39.69,15.081l56.786-19.612c0,0,36.666,56.774,57.767,77.886
			c21.112,21.106,8.046,105.566,16.594,107.038C321.79,267.312,333.852,114.552,315.752,100.487z"/>
	</g>
</g>
<g>
</g>
<g>
</g>
<g>
</g>
<g>
</g>
<g>
</g>
<g>
</g>
<g>
</g>
<g>
</g>
<g>
</g>
<g>
</g>
<g>
</g>
<g>
</g>
<g>
</g>
<g>
</g>
<g>
</g>
</svg>
