<?xml version="1.0" encoding="iso-8859-1"?>
<!-- Generator: Adobe Illustrator 16.0.0, SVG Export Plug-In . SVG Version: 6.00 Build 0)  -->
<!DOCTYPE svg PUBLIC "-//W3C//DTD SVG 1.1//EN" "http://www.w3.org/Graphics/SVG/1.1/DTD/svg11.dtd">
<svg version="1.1" id="Capa_1" xmlns="http://www.w3.org/2000/svg" xmlns:xlink="http://www.w3.org/1999/xlink" x="0px" y="0px"
	 width="372.219px" height="372.219px" viewBox="0 0 372.219 372.219" style="enable-background:new 0 0 372.219 372.219;"
	 xml:space="preserve">
<g>
	<path d="M326.843,217.451c13.907-31.347-18.812-54.065-18.812-54.065s12.74-27.826,6.668-38.406
		c-6.072-10.585-13.721-16.254-12.927-25.853c0.771-9.616,35.265-33.315-7.053-73.274c-42.329-39.977-92.482-6.469-105.012-7.053
		c-12.542-0.613-28.802-31.75-70.933-12.559c39.188,0.981,35.265,9.4,35.265,9.4s-69.152,0.583-73.263,39.971
		c7.053-13.318,18.806-19.396,21.165-19.191c2.353,0.192,3.923,20.96,0,23.512c-3.936,2.546-43.311,18.999-36.444,49.371
		c6.86,30.372,16.067,23.506,18.415,46.621c2.353,23.126-31.92,44.875-38.4,49.371c-6.48,4.496,25.66-9.47,30.962-11.735
		c-16.657,20.364-25.876,44.934-30.962,56.81c-5.08,11.875-6.253,48.121,6.674,58.525c-7.83-70.344,10.573-71.452,10.573-71.452
		s2.399,7.134,5.389,18.146c0.566,13.697,0.923,50.598-11.274,63.734c13.51,1.471,15.793-28.656,16.085-43.836
		c6.656,30.793,11.776,72.807-2.371,96.732c40.344-5.336,6.662-112.064,6.662-112.064s13.33,3.526,16.068,42.318
		c11.875-9.016-22.058-62.298-10.188-86.972c4.56-4.846,3.281,20.225,7.835,16.453c27.838-18.415,35.931-69.094,41.921-78.377
		c11.239-3.013,9.412,23.903,9.412,23.903s8.384-27.167,5.488-36.047c-2.896-8.886,30.577-53.043,60.335-50.953
		c29.765,2.108,33.443,18.035,42.715,23.126c9.249,5.091,9.786,38.792,9.786,38.792s9.399,16.067,20.376,19.594
		c-5.29,16.453-2.942,18.812,2.347,27.429c5.278,8.629,5.278,54.661,6.656,65.45c1.378,10.756-21.158,33.689-21.158,33.689
		s18.018-6.26,28.994-22.327c0.735-1.086,1.412-1.833,2.031-2.405c-0.047,8.676-0.747,26.18-4.775,50.994
		c6.551-7.848,9.925-28.41,11.455-41.232c1.611,10.767,1.927,26.555,3.818,32.626c3.526,11.222,8.232,17.819-4.694,45.05
		c28.2-8.418,6.259-66.209,8.618-80.314c2.358-14.105,7.053-27.045,6.655-47.023c-0.397-19.992-16.453-50.153-16.453-50.153
		S321.179,176.552,326.843,217.451z"/>
</g>
<g>
</g>
<g>
</g>
<g>
</g>
<g>
</g>
<g>
</g>
<g>
</g>
<g>
</g>
<g>
</g>
<g>
</g>
<g>
</g>
<g>
</g>
<g>
</g>
<g>
</g>
<g>
</g>
<g>
</g>
</svg>
