<?xml version="1.0" encoding="iso-8859-1"?>
<!-- Generator: Adobe Illustrator 16.0.0, SVG Export Plug-In . SVG Version: 6.00 Build 0)  -->
<!DOCTYPE svg PUBLIC "-//W3C//DTD SVG 1.1//EN" "http://www.w3.org/Graphics/SVG/1.1/DTD/svg11.dtd">
<svg version="1.1" id="Capa_1" xmlns="http://www.w3.org/2000/svg" xmlns:xlink="http://www.w3.org/1999/xlink" x="0px" y="0px"
	 width="372.068px" height="372.067px" viewBox="0 0 372.068 372.067" style="enable-background:new 0 0 372.068 372.067;"
	 xml:space="preserve">
<g>
	<g>
		<path d="M186.034,0C117.792,0,62.286,83.45,62.286,186.034c0,102.578,55.507,186.034,123.748,186.034
			c68.224,0,123.748-83.456,123.748-186.034C309.782,83.45,254.257,0,186.034,0z M186.034,352.018
			c-57.183,0-103.71-74.465-103.71-165.984c0-91.525,46.528-165.996,103.71-165.996c57.177,0,103.698,74.471,103.698,165.996
			C289.732,277.553,243.21,352.018,186.034,352.018z"/>
		<path d="M258.064,256.195c0-11.596-18.333-21.695-18.333-21.695s6.539-12.168,4.483-22.817
			c-2.055-10.673-13.65-17.959-14.223-23.95c-0.561-5.979,11.233-17.592,10.486-31.412c-0.747-13.849-12.915-33.303-12.915-33.303
			s0.187-62.49-42.464-60.995s-55.758,70.716-56.114,78.943c-0.385,8.227,1.109,20.575,1.109,20.575s-3.742,0.759-3.357,4.116
			c0.368,3.369,3.55,6.732,3.743,9.348c0.192,2.621-7.859,2.061-7.474,5.623c0.368,3.538,5.605,4.857,4.852,7.473
			c-0.741,2.622-10.842,5.412-10.462,14.217c0.374,8.793,15.525,17.014,16.453,26.927c0.934,9.914-13.283,16.092-14.584,26.578
			c-1.308,10.463,17.398,16.826,17.574,26.367c0.193,9.551-12.337,14.783-12.337,14.783s32.737-0.561,20.949-37.799
			c-2.055-3.749,18.701-24.125,11.596-43.393c7.117-5.243,0-17.224,0-17.224s7.245-5.78,7.117-15.887
			c-0.135-10.101-7.117-23.004-7.117-23.004s15.904-28.626,20.948-41.53c17.598,6.539,32.918-26.554,32.918-26.554
			s13.476,22.443,12.729,46.393c-2.242,4.292-14.959,30.121-14.597,41.512c0.374,11.42,15.344,35.556,15.344,35.556
			s-8.046,8.781-8.606,17.937c-0.561,9.179,7.111,33.501,25.444,38.173c-6.165,10.287,2.616,14.211,2.616,14.211
			s16.465,2.055,9.727-16.838C251.127,266.869,258.064,267.803,258.064,256.195z"/>
	</g>
</g>
<g>
</g>
<g>
</g>
<g>
</g>
<g>
</g>
<g>
</g>
<g>
</g>
<g>
</g>
<g>
</g>
<g>
</g>
<g>
</g>
<g>
</g>
<g>
</g>
<g>
</g>
<g>
</g>
<g>
</g>
</svg>
