<?xml version="1.0" encoding="iso-8859-1"?>
<!-- Generator: Adobe Illustrator 16.0.0, SVG Export Plug-In . SVG Version: 6.00 Build 0)  -->
<!DOCTYPE svg PUBLIC "-//W3C//DTD SVG 1.1//EN" "http://www.w3.org/Graphics/SVG/1.1/DTD/svg11.dtd">
<svg version="1.1" id="Capa_1" xmlns="http://www.w3.org/2000/svg" xmlns:xlink="http://www.w3.org/1999/xlink" x="0px" y="0px"
	 width="373.468px" height="373.468px" viewBox="0 0 373.468 373.468" style="enable-background:new 0 0 373.468 373.468;"
	 xml:space="preserve">
<g>
	<path d="M185.648,5.143c-30.36-18.356-60.458,37.939-63.15,56.295c-2.686,18.351,2.441,59.459-34.996,68.766
		c0.981,9.05,35.236-8.577,35.236-8.577l-9.05,15.425l9.05,1.962c0,0-8.56,14.923-15.91,16.885
		c-1.221,4.893,19.092-3.684,19.092-3.684s-11.012,15.186-23.243,20.82c-0.251,8.553,17.136-7.105,21.293-4.175
		c4.163,2.943-21.042,43.323-21.042,43.323l12.722-10.031c0,0,3.182,12.482-3.672,19.092c-6.849,6.609,9.307-2.942,10.761,22.759
		c1.231,16.149,5.383,37.192-0.742,45.751c6.125,5.15,8.326-12.227,8.326-12.227s2.691,25.69-2.213,34.997
		c5.874-0.245,11.012-16.64,11.012-16.64s7.584,35.72-2.569,50.422c9.675-0.258,14.812-23.74,14.812-23.74s1.962,20.797,0.73,27.406
		c2.692,0,9.797-21.766,9.797-21.766s1.231,29.355-4.893,40.379c8.32,0.49,12.232-29.135,12.232-29.135s4.414,21.043,7.596,34.016
		c5.138-8.314-11.017-104.008-11.017-104.008l24.23,58.748c0,0-31.569-126.3-36.462-140.254
		c-4.898-13.942-4.898-104.002-4.898-104.002l5.389,46.014c0,0-0.98-53.843,17.376-87.374
		c13.452,26.425,64.358,71.709,66.075,87.374c1.716,15.665-15.169,26.437-26.192,41.6c-11,15.175,21.79,87.853,21.79,87.853
		s-3.434,30.349-0.736,37.95c2.686,7.59,21.287,24.966,15.659,56.774c12.729-0.981,6.364-66.828,6.364-66.828
		s22.268,77.839,31.562,62.169c-28.141-59.472-20.061-87.613-20.809-101.077c-0.735-13.464-12.471-52.605-12.471-52.605
		s4.647,11.735,10.02,8.303c-5.862-8.069-4.881-23.716-4.881-23.716s6.818,7.859,12.471,8.921
		c-1.658-9.19-3.422-20.914-8.326-38.062c1.717-2.201,10.521,4.414,17.621,6.364c-11.98-10.27-14.924-24.703-14.924-24.703
		s15.904,0.963,17.131-3.433c-10.031,0.251-10.031-5.634-10.031-5.634s9.051,0,12.974-4.396c-8.816-1.962-7.345-3.684-12.716-6.125
		c-5.396-2.452-11.514-41.109-13.709-53.102C256.12,48.214,222.84-18.848,185.648,5.143z"/>
</g>
<g>
</g>
<g>
</g>
<g>
</g>
<g>
</g>
<g>
</g>
<g>
</g>
<g>
</g>
<g>
</g>
<g>
</g>
<g>
</g>
<g>
</g>
<g>
</g>
<g>
</g>
<g>
</g>
<g>
</g>
</svg>
