<?xml version="1.0" encoding="iso-8859-1"?>
<!-- Generator: Adobe Illustrator 16.0.0, SVG Export Plug-In . SVG Version: 6.00 Build 0)  -->
<!DOCTYPE svg PUBLIC "-//W3C//DTD SVG 1.1//EN" "http://www.w3.org/Graphics/SVG/1.1/DTD/svg11.dtd">
<svg version="1.1" id="Capa_1" xmlns="http://www.w3.org/2000/svg" xmlns:xlink="http://www.w3.org/1999/xlink" x="0px" y="0px"
	 width="30.75px" height="30.749px" viewBox="0 0 30.75 30.749" style="enable-background:new 0 0 30.75 30.749;"
	 xml:space="preserve">
<g>
	<path d="M16.683,0.577c-0.322-0.134-0.637-1.151-3.363-0.12c-2.726,1.031-3.644,2.398-3.175,4.782
		C10.614,7.624,8.874,11,9.074,13.17c0.2,2.17,0.844,6.296,0.737,8.012c-0.107,1.715-1.607,5.011-1.769,6.391
		c-0.161,1.379,0.603,3.175,0.603,3.175l0.174-3.027l0.322,2.091l0.436-1.365l0.355,1.298c0,0,0.308-3.416,0.308-3.256
		c0,0.161,0.335,4.02,0.335,4.02l0.362-2.531l0.375,1.916c0,0-0.188-3.967,0.884-6.727c0.556-1.996,1.125-6.886,0.509-8.842
		c-0.616-1.955-1.206-2.036-1.286-6.698c1.206,0.51,6.752-4.447,6.752-4.447l1.688,5.023c0,0-1.206,3.31-1.526,4.542
		c-0.321,1.231,0.054,7.904,0.361,9.687c0.309,1.781-0.401,7.636-0.401,7.636l0.481-1.567l0.04,2.251l0.744-3.638l0.583,3.034
		l0.482-4.36l0.32,4.763l0.604-2.854l0.241,1.45l0.32-2.656l0.442,2.372c0,0-0.382-1.447,0-4.421
		c0.381-2.976,0.141-4.462-0.563-6.312c-0.702-1.849-0.622-8.901-1.085-10.328C20.439,6.371,19.756-1.205,16.683,0.577z"/>
</g>
<g>
</g>
<g>
</g>
<g>
</g>
<g>
</g>
<g>
</g>
<g>
</g>
<g>
</g>
<g>
</g>
<g>
</g>
<g>
</g>
<g>
</g>
<g>
</g>
<g>
</g>
<g>
</g>
<g>
</g>
</svg>
