<?xml version="1.0" encoding="iso-8859-1"?>
<!-- Generator: Adobe Illustrator 16.0.0, SVG Export Plug-In . SVG Version: 6.00 Build 0)  -->
<!DOCTYPE svg PUBLIC "-//W3C//DTD SVG 1.1//EN" "http://www.w3.org/Graphics/SVG/1.1/DTD/svg11.dtd">
<svg version="1.1" id="Capa_1" xmlns="http://www.w3.org/2000/svg" xmlns:xlink="http://www.w3.org/1999/xlink" x="0px" y="0px"
	 width="573.793px" height="573.793px" viewBox="0 0 573.793 573.793" style="enable-background:new 0 0 573.793 573.793;"
	 xml:space="preserve">
<g>
	<g>
		<path d="M448.366,536.423c0,0,27.93,2.375,19.857-21.269c-21.75,17.947-30.268-13.232-30.268-13.232s31.661,3.75,30.268-14.197
			c-12.768,9.447-25.536-8.518-25.536-8.518s20.341,5.214,19.394-14.68c-15.179,15.232-28.822-41.127-28.822-41.127
			s22.68-94.574,15.125-139.951c-4.946-29.786-22.09-67.546-33.305-90.109c16.787,1.607,28.645,0.562,29.52-5.438
			c3.125-22.072-39.733-33.117-39.733-33.117s0.036-0.286,0.036-0.384c-30.162-4.884-76.789-12.286-105.076-16.036
			c-55.082-7.312-117.583-7.42-137.004-7.259c-16.179,3.366-43.028,10.884-41.671,23.697c0.634,6.331,21.081,9.527,47.501,11.009
			c-8.188,51.404-25.599,169.425-13.786,175.336c3.456-30.287,24.581-36.912,24.581-36.912s-38.144,120.433-30.885,136.504
			c4.732-21.732,24.26-22.393,24.26-22.393s0.643,43.215-5.027,51.108c-5.669,7.894-55.805,5.339-60.546,50.431
			c25.858-18.305,37.823-7.572,37.823-7.572s-28.037,31.841-40.966,25.215c9.474,25.216,36.573-8.178,36.573-8.178
			s-17.027,34.661-26.805,41.93c14.483,7.232,38.162-34.377,38.162-34.377s11.322,4.411-3.188,20.822
			c35.626-16.072,116.031-174.97,99.628-203.024c-15.777-27.036-69.985-27.929-62.851-188.211
			c47.511,1.393,103.842-1.241,103.842-1.241s50.109,25.528,52.002,69.958c0.947,73.779,0,158.89,80.396,201.463
			c15.125,8.518,2.839,113.021,0,122.949c-2.822,9.93,10.393,18.608,32.143,11.68c-24.571-8.357-13.232-21.607-13.232-21.607
			s17.02,13.715,27.43,1.428C451.188,545.423,448.366,536.423,448.366,536.423z"/>
		<path d="M301.825,123.373c28.145,3.714,74.289,11.045,104.54,15.929c2.071-23.76,4.839-69.127-1.5-93.539
			C396.025,11.7,273.075-12.238,234.618,6.655c-30.081,14.787-49.689,81.039-56.841,109.325
			C205.725,116.132,256.244,117.302,301.825,123.373z"/>
	</g>
</g>
<g>
</g>
<g>
</g>
<g>
</g>
<g>
</g>
<g>
</g>
<g>
</g>
<g>
</g>
<g>
</g>
<g>
</g>
<g>
</g>
<g>
</g>
<g>
</g>
<g>
</g>
<g>
</g>
<g>
</g>
</svg>
