<?xml version="1.0" encoding="iso-8859-1"?>
<!-- Generator: Adobe Illustrator 16.0.0, SVG Export Plug-In . SVG Version: 6.00 Build 0)  -->
<!DOCTYPE svg PUBLIC "-//W3C//DTD SVG 1.1//EN" "http://www.w3.org/Graphics/SVG/1.1/DTD/svg11.dtd">
<svg version="1.1" id="Capa_1" xmlns="http://www.w3.org/2000/svg" xmlns:xlink="http://www.w3.org/1999/xlink" x="0px" y="0px"
	 width="369.756px" height="369.756px" viewBox="0 0 369.756 369.756" style="enable-background:new 0 0 369.756 369.756;"
	 xml:space="preserve">
<g>
	<path d="M188.416,6.481c-17.306-12.168-31.739-0.946-42.943,7.38C116,44.606,118.879,106.122,115.364,114.786
		c-3.515,8.653-9.61,15.683-24.989,17.609c8.658,7.368,31.388-5.126,31.388-5.126s-5.12,11.362-12.173,11.841
		c-1.267,6.095,14.421,0,14.421,0s-5.121,16.033-16.021,16.033c0.011,8.968,19.547-4.484,19.547-4.484s-16.979,27.068-24.031,23.693
		c4.495,12.495,18.905-6.726,18.905-6.726s-6.195,35.615-19.373,37.962c8.659,8.325,18.415-9.447,18.415-9.447
		s-6.241,7.999-6.72,21.778c-0.479,13.768,15.852,60.242,10.567,72.071c7.532-1.261,8.011-17.282,8.011-17.282
		s4.175,39.726-7.684,41.641c11.216,4.332,15.052-22.432,15.052-22.432s6.084,48.553-4.484,55.104
		c12.354,0.012,16.009-27.23,16.009-27.23s4.665,28.375-2.558,33.326c11.707,0.164,11.525-26.916,11.525-26.916
		s7.38,27.395-1.927,41.326c14.591,1.752,8.968-34.611,8.968-34.611s9.295,20.517,6.738,36.842
		c13.954-3.037-8.017-79.778-5.769-106.028c2.248-26.263-14.585-77.875-21.865-100.773c-7.287-22.899-4.333-41.968-5.214-55.98
		c-0.876-14.013,16.26-27.395,29.63-61.76c1.279,15.378,57.177,79.533,64.067,86.504c0.396,15.624-23.542,31.878-26.601,39.714
		c-3.036,7.847-2.919,20.855-0.315,27.231c2.581,6.375,20.82,51.262,20.82,51.262s-1.705,34.681-0.631,43.567
		c1.051,8.863-0.49,26.834,23.378,38.126c-14.34-15.624-1.915-50.62-1.915-50.62s-2.499,29.788,15.367,31.084
		c-14.433-16.371-2.966-47.246-2.873-66.968c0.07-19.688-13.778-49.336-13.778-49.336s6.002,9.937,11.84,8.01
		c-8.793-9.365-8.01-23.389-8.01-23.389s1.447,14.982,12.821,9.938c-10.696-3.13-9.61-39.714-9.61-39.714
		s1.763,21.941,17.153,18.812c-9.132-5.278-9.132-17.539-9.132-17.539s5.209,4.799,13.943-2.65
		c-15.857-2.172-20.984-15.297-20.984-15.297s5.851,9.049,16.663,3.526c-11.771-3.129-10.252-11.537-10.252-11.537
		s1.845,5.769,14.094,0c-16.826-3.597-16.336-17.294-16.336-17.294s5.604,16.593,17.937,4.799
		c-17.213-8.162-11.047-28.2-21.439-45.821C247.525,50.071,223.973-21.696,188.416,6.481z"/>
</g>
<g>
</g>
<g>
</g>
<g>
</g>
<g>
</g>
<g>
</g>
<g>
</g>
<g>
</g>
<g>
</g>
<g>
</g>
<g>
</g>
<g>
</g>
<g>
</g>
<g>
</g>
<g>
</g>
<g>
</g>
</svg>
