<?xml version="1.0" encoding="iso-8859-1"?>
<!-- Generator: Adobe Illustrator 16.0.0, SVG Export Plug-In . SVG Version: 6.00 Build 0)  -->
<!DOCTYPE svg PUBLIC "-//W3C//DTD SVG 1.1//EN" "http://www.w3.org/Graphics/SVG/1.1/DTD/svg11.dtd">
<svg version="1.1" id="Capa_1" xmlns="http://www.w3.org/2000/svg" xmlns:xlink="http://www.w3.org/1999/xlink" x="0px" y="0px"
	 width="31.987px" height="31.987px" viewBox="0 0 31.987 31.987" style="enable-background:new 0 0 31.987 31.987;"
	 xml:space="preserve">
<g>
	<path d="M4.231,27.44c0,0-0.159,1.229,0.75,1.496c0.373-1.336,7.592-6.842,7.592-8.393c0-1.554-5.132-11.337-2.299-13.476
		c2.833-2.139,4.115-1.816,5.827-2.191c3.102-0.107,6.311,9.784,6.311,9.784s-2.14,3.637-1.979,6.845
		c0.589,5.507,8.021,7.217,9.144,7.431c-0.268-1.443,0.803-2.673,0.803-2.673s1.561,1.12,1.016,2.673
		c2.246-0.32-3.262-6.789-2.939-7.539c0.32-0.749,3.59,2.481,2.834,3.423c2.032-1.229-0.908-4.009-2.031-4.919
		s-3.7-3.605-3.957-5.881c-0.258-2.276-0.643-12.152-7.221-13.107C8.029,0.653,8.135,7.733,7.172,9.032
		C6.21,10.33,0.65,13.485,1.666,18.728c1.552-3.583,3.263-4.66,3.958-4.443s0.32,0.912,0.32,0.912s-6.201,5.134-5.935,7.433
		c0.267,2.299,0.962,2.565,0.962,2.565s0.269-1.764,1.123-2.619s3.529-0.268,3.529-0.268s-5.415,3.852-5.542,5.854
		c-0.126,2.004,1.478,3.5,2.654,2.699c-1.632-1.143-2.085-2.514-1.658-2.834c0.428-0.32,0.696-0.854,1.284-0.588
		c0.587,0.268-0.535,1.068,0.962,2.459C3.538,28.403,4.231,27.44,4.231,27.44z"/>
</g>
<g>
</g>
<g>
</g>
<g>
</g>
<g>
</g>
<g>
</g>
<g>
</g>
<g>
</g>
<g>
</g>
<g>
</g>
<g>
</g>
<g>
</g>
<g>
</g>
<g>
</g>
<g>
</g>
<g>
</g>
</svg>
