<?xml version="1.0" encoding="iso-8859-1"?>
<!-- Generator: Adobe Illustrator 16.0.0, SVG Export Plug-In . SVG Version: 6.00 Build 0)  -->
<!DOCTYPE svg PUBLIC "-//W3C//DTD SVG 1.1//EN" "http://www.w3.org/Graphics/SVG/1.1/DTD/svg11.dtd">
<svg version="1.1" id="Capa_1" xmlns="http://www.w3.org/2000/svg" xmlns:xlink="http://www.w3.org/1999/xlink" x="0px" y="0px"
	 width="382.601px" height="382.602px" viewBox="0 0 382.601 382.602" style="enable-background:new 0 0 382.601 382.602;"
	 xml:space="preserve">
<g>
	<path d="M349.983,17.5c0.888,1.051,0.023,1.95-1.004,1.413c-7.66-4.017-14.667-7.187-20.948-8.624l18.122,12.664l-1.903,2.715
		L321.047,9.442c-1.682,0.011-3.305,0.228-4.869,0.642l26.168,18.31l-1.892,2.691L312.5,11.521
		c-1.027,0.537-2.008,1.209-2.942,1.985l29.018,20.295l-1.903,2.715l-29.543-20.663c-0.537,0.63-1.074,1.337-1.588,2.067
		l29.625,20.732l-1.893,2.703l-29.671-20.744c-0.491,0.742-1.074,1.553-1.752,2.522l29.66,20.744l-1.892,2.715l-29.66-20.744
		c-0.596,0.847-1.227,1.757-1.892,2.715l29.66,20.744l-1.903,2.704l-29.672-20.745c-0.607,0.882-1.238,1.769-1.892,2.709
		l29.659,20.75l-1.891,2.715l-29.672-20.75c-0.07,0.123-0.141,0.228-0.222,0.338c0,0-0.561,0.788-1.542,2.201l29.66,20.744
		l-1.892,2.715l-29.648-20.75c-0.572,0.829-1.202,1.711-1.903,2.715l29.66,20.745l-1.892,2.703l-29.66-20.744
		c-0.444,0.648-0.888,1.278-1.378,1.973l29.672,20.745l-1.904,2.703l-29.659-20.745c-0.561,0.812-1.145,1.664-1.764,2.522
		l29.672,20.745l-1.892,2.715l-29.672-20.745c-0.619,0.87-1.237,1.781-1.88,2.715l29.648,20.745l-1.892,2.715l-29.672-20.744
		c-0.607,0.881-1.237,1.781-1.892,2.715l29.66,20.744l-1.892,2.703l-29.66-20.744c-0.572,0.823-1.168,1.67-1.775,2.522l29.66,20.709
		l-1.892,2.715l-29.66-20.75c-0.63,0.899-1.261,1.798-1.892,2.703l29.66,20.756l-1.892,2.703l-29.672-20.745
		c-0.514,0.742-1.039,1.495-1.564,2.248l29.648,20.745l-1.892,2.715l-29.66-20.745c-0.572,0.835-1.156,1.688-1.752,2.522
		l29.66,20.744l-1.892,2.692l-29.648-20.745c-0.502,0.718-1.004,1.425-1.506,2.154l29.659,20.745l-1.892,2.715l-29.671-20.75
		c-0.584,0.84-1.18,1.687-1.764,2.528l29.672,20.745l-1.904,2.715L248.79,99.017c-0.631,0.905-1.249,1.804-1.892,2.709l29.66,20.75
		l-1.893,2.709l-29.659-20.744c-0.631,0.911-1.262,1.804-1.892,2.715l29.671,20.75l-1.903,2.709l-29.66-20.745
		c-0.595,0.835-1.179,1.688-1.763,2.522l29.672,20.744l-1.915,2.715l-29.66-20.744c-0.643,0.875-1.284,1.769-1.915,2.68
		l29.671,20.745l-1.891,2.715l-29.672-20.745c-0.443,0.643-0.911,1.314-1.378,1.974l29.671,20.744l-1.879,2.715l-29.672-20.75
		c-0.596,0.853-1.18,1.688-1.764,2.517l29.66,20.744l-1.892,2.704l-29.66-20.745c-0.653,0.917-1.272,1.816-1.915,2.709l29.66,20.75
		l-1.892,2.697l-29.66-20.744c-0.631,0.922-1.261,1.815-1.892,2.715l29.66,20.744l-1.881,2.715l-29.671-20.744
		c-0.596,0.858-1.191,1.699-1.764,2.522l29.672,20.745l-1.892,2.703l-29.672-20.744c-0.642,0.922-1.272,1.827-1.903,2.715
		l29.66,20.744l-1.892,2.715l-29.66-20.745c-0.537,0.776-1.062,1.518-1.576,2.248l29.648,20.744l-1.881,2.715l-29.671-20.744
		c-0.607,0.87-1.203,1.734-1.752,2.51l29.66,20.756l-1.892,2.697l-29.66-20.75c-0.724,1.027-1.354,1.933-1.892,2.727l29.66,20.744
		l-1.892,2.721l-29.66-20.744c-0.678,0.958-1.238,1.88-1.74,2.814l29.508,20.628l-1.892,2.732l-28.953-20.254
		c-0.362,1.08-0.625,2.154-0.765,3.217l27.955,19.559l-1.903,2.698l-26.175-18.31c0.146,1.588,0.502,3.2,1.063,4.776l23.208,16.231
		l-1.88,2.721l-18.111-12.658c3.608,5.523,9.143,11.152,15.752,17.143c0.817,0.747-0.163,1.471-1.471,0.98
		c-9.715-3.585-35.72-13.137-49.768-1.215L36.412,382.602l-4.163-2.919l155.329-222.099c3.106-4.461,12.097-17.317,23.261-33.28
		c1.098-1.553,2.219-3.159,3.328-4.747c27.125-38.803,64.375-92.039,64.375-92.039c5.979-8.548,10.627-15.192,12.811-18.316
		C301.546-5.376,332.865-2.649,349.983,17.5z"/>
</g>
<g>
</g>
<g>
</g>
<g>
</g>
<g>
</g>
<g>
</g>
<g>
</g>
<g>
</g>
<g>
</g>
<g>
</g>
<g>
</g>
<g>
</g>
<g>
</g>
<g>
</g>
<g>
</g>
<g>
</g>
</svg>
