<?xml version="1.0" encoding="iso-8859-1"?>
<!-- Generator: Adobe Illustrator 16.0.0, SVG Export Plug-In . SVG Version: 6.00 Build 0)  -->
<!DOCTYPE svg PUBLIC "-//W3C//DTD SVG 1.1//EN" "http://www.w3.org/Graphics/SVG/1.1/DTD/svg11.dtd">
<svg version="1.1" id="Capa_1" xmlns="http://www.w3.org/2000/svg" xmlns:xlink="http://www.w3.org/1999/xlink" x="0px" y="0px"
	 width="31.87px" height="31.87px" viewBox="0 0 31.87 31.87" style="enable-background:new 0 0 31.87 31.87;" xml:space="preserve"
	>
<g>
	<path d="M6.312,9.572c0.234,1.312,1.58,1.479,1.58,1.479h1.48l1.245-0.201c0,0,0.672-0.235,1.009-0.067s1.556-0.142,2.106-0.357
		c0.551-0.215,3.14,0.182,3.745,0c0.605-0.181,0.741,0.425,1.043,0.626c0.302,0.202,0.571-0.626,0.571-0.626s0.102,0.491,0.27,0.828
		s0.438-0.571,0.438-0.571l0.37,2.085v1.647c0,0-1.749,1.883-1.783,3.833c-0.874,0.303-1.076,1.379-1.009,2.455
		c-0.773,0.067-0.571,1.178-0.571,1.178s-1.211,0.27-1.346,1.412c-1.076,0.103-0.841,0.908-0.673,1.515
		c-2.656,3.431,0.666,5.041,0.505,5.684c-0.161,0.641-0.37,1.379-0.37,1.379s1.884-0.841,0.808-4.104
		c0.808,0.169,1.379,0.337,1.547-1.683c1.683,0.674,1.851-1.85,1.851-1.85s3.833-0.908,2.59-3.699
		c0.673,0.135,3.564-1.646,2.556-4.708c0.539,0.168,2.187-2.354,0.641-5.044c0.233-0.168,0.84-3.329-1.11-3.7
		c-0.572-0.101,0.102-5.146-2.59-6.659c-2.691-1.513-3.834,1.514-3.834,1.514l-0.673,0.27C16.704,2.207,6.277,0.188,6.312,9.572z"/>
</g>
<g>
</g>
<g>
</g>
<g>
</g>
<g>
</g>
<g>
</g>
<g>
</g>
<g>
</g>
<g>
</g>
<g>
</g>
<g>
</g>
<g>
</g>
<g>
</g>
<g>
</g>
<g>
</g>
<g>
</g>
</svg>
