<?xml version="1.0" encoding="iso-8859-1"?>
<!-- Generator: Adobe Illustrator 16.0.0, SVG Export Plug-In . SVG Version: 6.00 Build 0)  -->
<!DOCTYPE svg PUBLIC "-//W3C//DTD SVG 1.1//EN" "http://www.w3.org/Graphics/SVG/1.1/DTD/svg11.dtd">
<svg version="1.1" id="Capa_1" xmlns="http://www.w3.org/2000/svg" xmlns:xlink="http://www.w3.org/1999/xlink" x="0px" y="0px"
	 width="31.156px" height="31.156px" viewBox="0 0 31.156 31.156" style="enable-background:new 0 0 31.156 31.156;"
	 xml:space="preserve">
<g>
	<path d="M18.265,15.733c0,0-1.882,1.156-0.76,1.288c4.755-1.188,5.118-5.052,5.118-5.052s0.825,0.528,0.66,2.525
		c0.66-0.347,0.958-4.275-0.297-9.097S19.188,2.26,19.188,2.26s-2.641-4.951-7.66-0.197C4.626,9.824,8.259,14.778,8.259,14.91
		c0,0.131-0.496,0.791,1.089,2.904c-1.387,1.188,1.024,3.27,1.024,3.27s0.033,1.916,0.99,2.245
		c-0.891,1.023,0.694,2.675,0.694,2.675s0.165,2.18,0.792,1.882c0.066,3.006,1.453,3.271,1.453,3.271s0.594-1.815-0.661-3.83
		c0.363,0.165,0.396-1.123-0.462-1.75c0.363-0.066,0.991-1.288-0.264-2.08c0.496-0.298,1.09-1.454-0.264-2.246
		c0.562,0.099,1.057-1.255,0.099-2.542c1.915-1.354-0.693-3.171-0.693-3.171L9.876,9.99c0,0,2.246-1.835,2.279-1.585
		c0.033,0.248-0.627,1.155-0.627,1.155l2.179-1.222c0,0-0.495,0.792-0.396,0.727c0.099-0.066,1.915-0.991,1.915-0.991L15.06,8.906
		l1.85-1.427l-0.132,0.594c0,0,2.278-3.434,2.212-3.004c-0.429,3.17,2.246,5.117,2.346,5.679
		C21.686,14.296,18.265,15.733,18.265,15.733z"/>
</g>
<g>
</g>
<g>
</g>
<g>
</g>
<g>
</g>
<g>
</g>
<g>
</g>
<g>
</g>
<g>
</g>
<g>
</g>
<g>
</g>
<g>
</g>
<g>
</g>
<g>
</g>
<g>
</g>
<g>
</g>
</svg>
