<?xml version="1.0" encoding="iso-8859-1"?>
<!-- Generator: Adobe Illustrator 16.0.0, SVG Export Plug-In . SVG Version: 6.00 Build 0)  -->
<!DOCTYPE svg PUBLIC "-//W3C//DTD SVG 1.1//EN" "http://www.w3.org/Graphics/SVG/1.1/DTD/svg11.dtd">
<svg version="1.1" id="Capa_1" xmlns="http://www.w3.org/2000/svg" xmlns:xlink="http://www.w3.org/1999/xlink" x="0px" y="0px"
	 width="378.14px" height="378.14px" viewBox="0 0 378.14 378.14" style="enable-background:new 0 0 378.14 378.14;"
	 xml:space="preserve">
<g>
	<path d="M212.033,32.083c0,0-33.735,62.081-39.778,77.448c-6.037,15.361,5.121,37.688,11.169,42.563
		c-0.467,9.546-7.678,9.774-7.678,9.774s3.024,30.454,10.941,36.035c-6.972,10.252-14.421-8.127-14.421-8.127
		s5.587,28.608,13.253,34.167c0.233,12.588-13.253,23.717-13.253,23.717s7.45,15.367,15.355,18.846
		c-4.653,14.679-21.632-6.982-21.632-6.982s15.595,30.478,23.021,30.01c0.012,16.278-14.648,7.672-14.648,7.672
		s14.66,23.051,27.208,26.52c-5.115,13.254-30.004-4.881-30.004-4.881s3.953,45.599,9.073,51.624
		c-7.905,0.935-8.373-5.581-8.373-5.581s3.719,12.541-6.277,13.253c1.641-8.606-13.726-30.478-14.648-48.145
		c-0.929-17.667-9.768-43.964-9.768-43.964s-18.619,7.204-27.908-4.193c10.702-2.545,16.739-12.564,16.739-12.564
		s-13.031,6.75-16.739-6.258c11.181,0.934,4.186-79.533,4.186-79.533s-7.94,11.595-14.672-4.192
		c10.007-1.856,20.23-77.448,20.23-77.448s-6.983,11.846-12.553,6.265c6.994-4.163,13.247-36.257,13.247-36.257
		s-6.276,6.043-11.157-1.396c6.288-1.378,4.893-48.833,50.941-66.279c46.043-17.445,92.786,23.722,103.249,50.936
		c10.463,27.202-3.702,74.436-3.702,74.436s2.312,30.226,11.525,33.42c-3.631,13.096-12.692,6.562-12.692,6.562
		s-3.479,26.997,5.581,34.891c-9.995,11.186-15.367-0.701-15.367-0.701s2.114,17.912,8.385,24.428
		c-9.973,8.012-10.463-5.581-10.463-5.581s0.467,26.04,2.779,32.79c-13.008,3.012-9.715-11.444-9.715-11.444
		s-22.841,5.616-17.493-20.669c5.36-26.25-3.479-47.671,4.192-85.814C237.839,99.279,212.033,32.083,212.033,32.083z"/>
</g>
<g>
</g>
<g>
</g>
<g>
</g>
<g>
</g>
<g>
</g>
<g>
</g>
<g>
</g>
<g>
</g>
<g>
</g>
<g>
</g>
<g>
</g>
<g>
</g>
<g>
</g>
<g>
</g>
<g>
</g>
</svg>
