<?xml version="1.0" encoding="iso-8859-1"?>
<!-- Generator: Adobe Illustrator 16.0.0, SVG Export Plug-In . SVG Version: 6.00 Build 0)  -->
<!DOCTYPE svg PUBLIC "-//W3C//DTD SVG 1.1//EN" "http://www.w3.org/Graphics/SVG/1.1/DTD/svg11.dtd">
<svg version="1.1" id="Capa_1" xmlns="http://www.w3.org/2000/svg" xmlns:xlink="http://www.w3.org/1999/xlink" x="0px" y="0px"
	 width="376.795px" height="376.794px" viewBox="0 0 376.795 376.794" style="enable-background:new 0 0 376.795 376.794;"
	 xml:space="preserve">
<g>
	<path d="M214.746,65.6c0,0-2.289,25.491-12.752,25.176c7.403-5.372,1.32-12.588,1.32-12.588s-16.103,30.71-33.992,26.986
		c16.021-7.205,18.952-22.561,18.952-22.561s-53.282,28.119-59.821,28.749c-2.283,6.878,5.558,21.918,12.745,36.947
		c7.188,15.04,26.472,29.099,26.472,29.099s10.463,60.301,16.348,84.975c5.879,24.686,12.255,117.354,4.414,109.998
		c-7.847-7.356-25.497-97.084-42.657-110.325c-17.16-13.23-28.924-41.36-28.924-41.36v17.831c0,0-24.02-87.777-12.745-159.357
		C126-12.521,205.603-11.049,226.189,16.439c50.013,3.398,41.698,80.408,42.645,108.819c0.958,28.41,3.433,111.808,6.866,137.779
		c-11.269-3.434-10.287-26.963-10.287-26.963s-19.127,100.504-21.089,140.721c-20.097-6.866-21.567-110.816-21.567-110.816
		s-5.886-0.49-8.828,9.798c-8.816-11.269-0.981-100.015-0.981-100.015s32.859-19.127,31.879-47.572
		c2.452-43.638-29.905-64.727-29.905-64.727"/>
</g>
<g>
</g>
<g>
</g>
<g>
</g>
<g>
</g>
<g>
</g>
<g>
</g>
<g>
</g>
<g>
</g>
<g>
</g>
<g>
</g>
<g>
</g>
<g>
</g>
<g>
</g>
<g>
</g>
<g>
</g>
</svg>
