<?xml version="1.0" encoding="iso-8859-1"?>
<!-- Generator: Adobe Illustrator 16.0.0, SVG Export Plug-In . SVG Version: 6.00 Build 0)  -->
<!DOCTYPE svg PUBLIC "-//W3C//DTD SVG 1.1//EN" "http://www.w3.org/Graphics/SVG/1.1/DTD/svg11.dtd">
<svg version="1.1" id="Capa_1" xmlns="http://www.w3.org/2000/svg" xmlns:xlink="http://www.w3.org/1999/xlink" x="0px" y="0px"
	 width="378.534px" height="378.534px" viewBox="0 0 378.534 378.534" style="enable-background:new 0 0 378.534 378.534;"
	 xml:space="preserve">
<g>
	<g>
		<path d="M186.586,328.219c-51.537-4.379-61.007-21.568-61.007-21.568s-7.007,30.15-3.153,43.124
			c54.334,49.067,114.401,25.001,131.929,3.632c5.616-10.871,0.232-46.756,0.232-46.756S238.111,332.598,186.586,328.219z"/>
		<path d="M295.259,38.13c-43.123-31.557-135.67-60.995-197.01-12.267C36.903,74.586,46.005,187.474,46.005,187.474
			s12.974,50.48,19.636,51.543c6.655,1.051-6.662-57.51,4.554-62.765c11.216-5.254,17.183-42.762,9.47-50.831
			c-6.312-3.17-1.757-50.486,16.12-48.384c50.136,19.646,123.059,17.889,187.202,2.107c15.425-2.814,17.878,38.213,17.878,38.213
			s-20.669,27.681,9.82,51.175c9.107,8.758-3.504,69.409,2.803,66.606c6.305-2.814,19.278-49.43,19.278-49.43
			S338.382,69.688,295.259,38.13z"/>
	</g>
</g>
<g>
</g>
<g>
</g>
<g>
</g>
<g>
</g>
<g>
</g>
<g>
</g>
<g>
</g>
<g>
</g>
<g>
</g>
<g>
</g>
<g>
</g>
<g>
</g>
<g>
</g>
<g>
</g>
<g>
</g>
</svg>
