<?xml version="1.0" encoding="iso-8859-1"?>
<!-- Generator: Adobe Illustrator 16.0.0, SVG Export Plug-In . SVG Version: 6.00 Build 0)  -->
<!DOCTYPE svg PUBLIC "-//W3C//DTD SVG 1.1//EN" "http://www.w3.org/Graphics/SVG/1.1/DTD/svg11.dtd">
<svg version="1.1" id="Capa_1" xmlns="http://www.w3.org/2000/svg" xmlns:xlink="http://www.w3.org/1999/xlink" x="0px" y="0px"
	 width="32.355px" height="32.355px" viewBox="0 0 32.355 32.355" style="enable-background:new 0 0 32.355 32.355;"
	 xml:space="preserve">
<g>
	<path d="M27.183,17.355c1.998-2.009,3.321-5.569-1.438-9.064c-1.313-0.438-4.25-11.375-15-7.438
		c-10.75,3.937-4.187,8.563-4.187,8.563s-3.206,5.793-1.759,8.086c-1.039,0.624-1.452,1.699-1.441,2.658
		c0.018,1.673,1.197,3.479,2.961,3.728c0.143,2.686,1.555,4.602,2.743,5.751c1.713,1.657,3.994,2.716,5.844,2.716
		c0.033,0,0.065,0,0.098-0.001c1.795-0.037,4.756-1.921,7.041-4.48c1.062-1.189,2.775-3.447,2.779-5.615
		c2.981-0.343,3.146-2.326,3.123-2.946C27.918,18.566,27.61,17.855,27.183,17.355z M24.407,21.542l-0.385,0.024l0.036,0.385
		c0.137,1.457-0.802,3.434-2.577,5.423c-2.122,2.379-4.915,4.197-6.495,4.229c-1.657,0.062-3.823-0.974-5.404-2.504
		c-1.135-1.099-2.494-2.954-2.525-5.563l-0.004-0.363L6.69,23.166c-1.525-0.028-2.566-1.581-2.582-3.013
		c-0.011-0.992,0.447-1.722,1.256-2.11c0.31,0.198,0.688,0.34,1.193,0.373c0.023,0.151,0.055-0.132,0.098-0.683
		c0.015-0.001,0.027-0.004,0.042-0.005l-0.015-0.363c0.196-2.712,0.585-9.46,1.312-8.199c0.813,2.5,14.188,2.125,15.563,0
		c0.438-0.688-0.375,8.188,0.313,9.625c0.241,0.506,1.533,0.081,2.761-0.935c0.299,0.365,0.543,0.909,0.564,1.481
		C27.245,20.621,26.229,21.424,24.407,21.542z"/>
</g>
<g>
</g>
<g>
</g>
<g>
</g>
<g>
</g>
<g>
</g>
<g>
</g>
<g>
</g>
<g>
</g>
<g>
</g>
<g>
</g>
<g>
</g>
<g>
</g>
<g>
</g>
<g>
</g>
<g>
</g>
</svg>
