<?xml version="1.0" encoding="iso-8859-1"?>
<!-- Generator: Adobe Illustrator 16.0.0, SVG Export Plug-In . SVG Version: 6.00 Build 0)  -->
<!DOCTYPE svg PUBLIC "-//W3C//DTD SVG 1.1//EN" "http://www.w3.org/Graphics/SVG/1.1/DTD/svg11.dtd">
<svg version="1.1" id="Capa_1" xmlns="http://www.w3.org/2000/svg" xmlns:xlink="http://www.w3.org/1999/xlink" x="0px" y="0px"
	 width="377.162px" height="377.162px" viewBox="0 0 377.162 377.162" style="enable-background:new 0 0 377.162 377.162;"
	 xml:space="preserve">
<g>
	<path d="M304.365,142.691c1.273-7.234,7.064-10.679,8.699-12.483c1.623-1.804,5.465-21.427-15.74-52.652
		c-5.348-7.864-11.747-16.202-19.734-23.926l8.571-15.986c0,0-58.515-57.072-151.972-30.67
		c-39.241,21.404-96.313,57.06-90.608,143.395c5.698,86.329,66.349,120.578,66.349,120.578l8.922-8.21
		c4.565,6.213,7.053,10.907,4.928,14.002c-6.137,8.921-23.682,100.236-23.682,100.236l140.418,0.187c0,0-11.479-6.481-18.964-15.075
		c-5.15-5.885,1.553-17.516,8.991-37.67c1.004-2.732,7.088,1.156,10.988-8.069c3.912-9.19-3.854-13.813-2.932-16.581
		c0.818-2.441,1.425-2.137,1.927-4.076c1.04-5.616,3.573-8.968,7.03-10.965c52.336,1.576,65.976-1.016,53.037-37.273
		c1.67-1.541,11.035-7.602,13.02-11.957c1.997-4.32-2.721-5.418-2.721-5.418s3.434,0.176,5.979-3.795
		c2.522-3.982-4.344-19.547-4.344-19.547s17.376-3.784,21.159-10.312C337.47,189.907,303.093,149.914,304.365,142.691z"/>
</g>
<g>
</g>
<g>
</g>
<g>
</g>
<g>
</g>
<g>
</g>
<g>
</g>
<g>
</g>
<g>
</g>
<g>
</g>
<g>
</g>
<g>
</g>
<g>
</g>
<g>
</g>
<g>
</g>
<g>
</g>
</svg>
