<?xml version="1.0" encoding="iso-8859-1"?>
<!-- Generator: Adobe Illustrator 16.0.0, SVG Export Plug-In . SVG Version: 6.00 Build 0)  -->
<!DOCTYPE svg PUBLIC "-//W3C//DTD SVG 1.1//EN" "http://www.w3.org/Graphics/SVG/1.1/DTD/svg11.dtd">
<svg version="1.1" id="Capa_1" xmlns="http://www.w3.org/2000/svg" xmlns:xlink="http://www.w3.org/1999/xlink" x="0px" y="0px"
	 width="31.385px" height="31.386px" viewBox="0 0 31.385 31.386" style="enable-background:new 0 0 31.385 31.386;"
	 xml:space="preserve">
<g>
	<g>
		<path d="M22.95,23.118c-3.258,1.171-3.496-1.585-6.768-1.685c-2.831-0.087-5.012,2.33-7.236,1.934
			c-1.013-0.181-1.73-2.201-3.057-3.087c-1.154,0.218,0.593,7.359,2.526,7.298c4.21-0.063,0.874,3.711,7.858,3.806
			c6.988,0.093,2.527-3.743,7.237-4.211c2.215-0.312,3.119-6.425,2.121-7.174C24.158,20.653,23.792,22.814,22.95,23.118z
			 M12.314,25.083c0,0,1.246-1.563,3.229-1.563c1.983,0,3.603,1.563,3.603,1.563H12.314z"/>
		<path d="M25.57,6.961c0,0,0.96,3.234,1.063,6.426c0.1,3.006-0.658,5.975-0.599,6.081c1-1.81,3.059-0.966,3.37-6.487
			C29.718,7.46,26.475,8.583,25.57,6.961z"/>
		<path d="M4.752,13.138c0.104-3.19,1.064-6.426,1.064-6.426C4.912,8.333,1.668,7.21,1.98,12.731c0.312,5.521,2.37,4.679,3.37,6.487
			C5.412,19.112,4.652,16.143,4.752,13.138z"/>
		<path d="M9.976,3.688c2.401-0.375,3.618,1.841,6.299,1.902c2.684,0.063,0.75-1.747,5.085-1.497
			c0.687,0.093,1.778-3.898-5.63-4.086C8.321-0.181,9.507,3.75,9.976,3.688z"/>
	</g>
</g>
<g>
</g>
<g>
</g>
<g>
</g>
<g>
</g>
<g>
</g>
<g>
</g>
<g>
</g>
<g>
</g>
<g>
</g>
<g>
</g>
<g>
</g>
<g>
</g>
<g>
</g>
<g>
</g>
<g>
</g>
</svg>
