<?xml version="1.0" encoding="iso-8859-1"?>
<!-- Generator: Adobe Illustrator 16.0.0, SVG Export Plug-In . SVG Version: 6.00 Build 0)  -->
<!DOCTYPE svg PUBLIC "-//W3C//DTD SVG 1.1//EN" "http://www.w3.org/Graphics/SVG/1.1/DTD/svg11.dtd">
<svg version="1.1" id="Capa_1" xmlns="http://www.w3.org/2000/svg" xmlns:xlink="http://www.w3.org/1999/xlink" x="0px" y="0px"
	 width="31.992px" height="31.992px" viewBox="0 0 31.992 31.992" style="enable-background:new 0 0 31.992 31.992;"
	 xml:space="preserve">
<g>
	<path d="M3.263,28.492c-0.95-1.35-1.524-4.121-1.999-4.42c-0.474-0.301-0.725-2.947-0.5-3.597c0.225-0.648-0.624-1.823-0.749-2.797
		s0.572-1.901,0.55-2.323c-0.022-0.421-0.274-3.246,0.799-5.394C1.93,8.829,3.562,7.041,5.235,6.266
		c1.497-0.694,3.075-0.427,3.171-0.6C8.608,5.3,9.782,3.02,10.604,3.269C9.479,4.368,9.655,5.616,9.655,5.616
		s3.771-2.497,6.793-2.347c3.021,0.15,9.091,4.02,9.289,4.146c0.199,0.125-0.449-1.249-1.599-2.747
		c1.149,0.05,2.972,3.596,3.197,3.796c0.225,0.2,0.375,0.025,0-1.499c0.773,0.1,1.099,2.198,1.499,2.947
		c0.398,0.75,1.547,0.774,1.448,3.596c1.747,0.1,2,5.219,1.448,6.193c-0.226,3.347-0.787,4.748-1.348,6.044
		c-0.562,1.296-1.299,2.997-1.299,2.997s0.172-5.523-0.774-9.564c-0.664-2.833-2.188-4.548-3.372-4.795
		c-2.873-0.599-8.54-0.126-9.188,0.674c-1.454,0.53-8.573-1.901-10.041-0.749c-0.86,0.675-1.862,3.239-1.847,5.244
		C3.873,20.966,4.76,20.7,4.81,22.099c0.028,0.776-0.731,1.277-1.148,2.498C3.327,25.573,3.329,27.181,3.263,28.492z"/>
</g>
<g>
</g>
<g>
</g>
<g>
</g>
<g>
</g>
<g>
</g>
<g>
</g>
<g>
</g>
<g>
</g>
<g>
</g>
<g>
</g>
<g>
</g>
<g>
</g>
<g>
</g>
<g>
</g>
<g>
</g>
</svg>
