<?xml version="1.0" encoding="iso-8859-1"?>
<!-- Generator: Adobe Illustrator 16.0.0, SVG Export Plug-In . SVG Version: 6.00 Build 0)  -->
<!DOCTYPE svg PUBLIC "-//W3C//DTD SVG 1.1//EN" "http://www.w3.org/Graphics/SVG/1.1/DTD/svg11.dtd">
<svg version="1.1" id="Capa_1" xmlns="http://www.w3.org/2000/svg" xmlns:xlink="http://www.w3.org/1999/xlink" x="0px" y="0px"
	 width="378.945px" height="378.945px" viewBox="0 0 378.945 378.945" style="enable-background:new 0 0 378.945 378.945;"
	 xml:space="preserve">
<g>
	<path d="M299.805,166.802c1.145-6.545,6.388-9.651,7.859-11.28c1.471-1.646,4.939-19.396-14.246-47.637
		c-6.119-9.003-13.768-18.689-23.915-27.05c12.413-10.854,36.736-34.377,35.137-50.457C302.479,8.869,182.281-38.891,88.759,61.369
		C-4.757,161.634,111.43,264.043,111.43,264.043l7.188-5.932c10.819,14.725,21.357,24.79,17.79,29.975
		c-5.547,8.08-21.428,90.672-21.428,90.672l127.048,0.188c0,0-10.394-5.861-17.178-13.65c-4.647-5.312,1.401-15.846,8.15-34.086
		c0.911-2.475,6.399,1.039,9.938-7.298c3.526-8.302-3.491-12.507-2.662-15.005c0.747-2.207,1.284-1.938,1.752-3.679
		c0.945-5.079,3.234-8.115,6.363-9.925c47.351,1.436,59.693-0.923,47.981-33.725c1.507-1.4,9.983-6.877,11.794-10.801
		c1.786-3.912-2.452-4.904-2.452-4.904s3.106,0.164,5.395-3.434c2.277-3.607-3.935-17.69-3.935-17.69s15.705-3.433,19.15-9.318
		C329.757,209.522,298.66,173.353,299.805,166.802z"/>
</g>
<g>
</g>
<g>
</g>
<g>
</g>
<g>
</g>
<g>
</g>
<g>
</g>
<g>
</g>
<g>
</g>
<g>
</g>
<g>
</g>
<g>
</g>
<g>
</g>
<g>
</g>
<g>
</g>
<g>
</g>
</svg>
