<?xml version="1.0" encoding="iso-8859-1"?>
<!-- Generator: Adobe Illustrator 16.0.0, SVG Export Plug-In . SVG Version: 6.00 Build 0)  -->
<!DOCTYPE svg PUBLIC "-//W3C//DTD SVG 1.1//EN" "http://www.w3.org/Graphics/SVG/1.1/DTD/svg11.dtd">
<svg version="1.1" id="Capa_1" xmlns="http://www.w3.org/2000/svg" xmlns:xlink="http://www.w3.org/1999/xlink" x="0px" y="0px"
	 width="31.75px" height="31.75px" viewBox="0 0 31.75 31.75" style="enable-background:new 0 0 31.75 31.75;" xml:space="preserve"
	>
<g>
	<path d="M31.338,19.335c-0.261,0.447-1.454,0.709-1.454,0.709s0.473,1.066,0.299,1.342c-0.174,0.273-0.41,0.262-0.41,0.262
		s0.322,0.074,0.187,0.372s-0.779,0.715-0.896,0.819c0.889,2.492-0.049,2.67-3.643,2.561c-0.236,0.14-0.41,0.369-0.482,0.754
		c-0.033,0.134-0.075,0.111-0.133,0.279c-0.062,0.189,0.471,0.508,0.201,1.14c-0.268,0.633-0.685,0.365-0.754,0.555
		c-0.512,1.385-0.971,2.184-0.617,2.588c0.514,0.591,1.303,1.035,1.303,1.035l-9.644-0.015c0,0,1.205-6.271,1.626-6.884
		c0.422-0.611-1.762-2.127-2.567-4.482c-1.861-5.012-1.725-10.922,4.368-12.455c6.094-1.532,8.662,1.117,10.117,3.26
		c1.456,2.144,1.193,3.491,1.081,3.616c-0.112,0.124-0.51,0.359-0.596,0.855C29.234,16.144,31.599,18.889,31.338,19.335z
		 M12.128,9.841l1.115,0.833l-0.122,0.164l-1.115-0.833l-0.075,0.101l1.116,0.833l-0.137,0.183l-1.115-0.833L11.72,10.39
		l1.115,0.832l-0.122,0.164l-1.116-0.833l-0.075,0.1l1.115,0.833l-0.125,0.17l-1.115-0.836l-0.076,0.103l1.115,0.834l-0.122,0.163
		l-1.115-0.833l-0.076,0.1l1.116,0.833l-0.179,0.239l-1.637-1.224l-0.305,0.405l-1.447-1.081l0.003-0.005
		C8.072,9.816,1.149,3.625,0.516,3.151c-0.661-0.494,1.49-3.68,2.3-3.075c0.773,0.577,8.538,5.364,9.218,5.782l0.003-0.005
		l1.448,1.082l-0.223,0.299l1.637,1.224l-0.156,0.207l-1.114-0.832l-0.076,0.101l1.116,0.834l-0.137,0.182l-1.115-0.833
		l-0.075,0.101l1.118,0.831l-0.123,0.164L13.222,8.38l-0.075,0.1l1.114,0.833l-0.124,0.167l-1.116-0.832l-0.075,0.101l1.114,0.833
		l-0.122,0.164l-1.115-0.832l-0.075,0.099l1.114,0.833l-0.147,0.198L12.6,9.21l-0.075,0.101l1.115,0.832l-0.123,0.164l-1.115-0.833
		l-0.075,0.102l1.115,0.833l-0.125,0.168l-1.115-0.834L12.128,9.841z M7.881,5.541C7.356,5.146,6.775,5.037,6.585,5.292
		C6.394,5.545,6.666,6.069,7.192,6.464c0.526,0.391,1.107,0.505,1.297,0.249C8.679,6.458,8.407,5.934,7.881,5.541z M12.367,6.737
		l-0.249-0.187l-2.757,3.69l0.249,0.187L12.367,6.737z M7.74,5.808C7.488,5.62,7.209,5.566,7.118,5.688
		C7.026,5.812,7.157,6.063,7.409,6.252C7.662,6.439,7.94,6.494,8.032,6.371C8.123,6.248,7.993,5.996,7.74,5.808z"/>
</g>
<g>
</g>
<g>
</g>
<g>
</g>
<g>
</g>
<g>
</g>
<g>
</g>
<g>
</g>
<g>
</g>
<g>
</g>
<g>
</g>
<g>
</g>
<g>
</g>
<g>
</g>
<g>
</g>
<g>
</g>
</svg>
