<?xml version="1.0" encoding="iso-8859-1"?>
<!-- Generator: Adobe Illustrator 16.0.0, SVG Export Plug-In . SVG Version: 6.00 Build 0)  -->
<!DOCTYPE svg PUBLIC "-//W3C//DTD SVG 1.1//EN" "http://www.w3.org/Graphics/SVG/1.1/DTD/svg11.dtd">
<svg version="1.1" id="Capa_1" xmlns="http://www.w3.org/2000/svg" xmlns:xlink="http://www.w3.org/1999/xlink" x="0px" y="0px"
	 width="376.642px" height="376.643px" viewBox="0 0 376.642 376.643" style="enable-background:new 0 0 376.642 376.643;"
	 xml:space="preserve">
<g>
	<path d="M300.724,169.106c1.108-6.411,6.246-9.447,7.683-11.053c1.448-1.611,4.835-18.975-13.919-46.597
		c-5.582-8.215-12.471-16.955-21.369-24.715c16.104-7.041,63.897-31.855,23.482-64.306C248.585-16.105,146.282-0.306,119.127,34.51
		c-16.43,23.453-75.79,63.699-68.842,105.386c6.948,41.682,4.426,80.204,26.524,103.161c15.402,15.998,29.858,7.462,37.221,0.807
		c12.39,22.478,31.377,37.261,26.822,43.894c-5.43,7.894-20.96,88.723-20.96,88.723l124.303,0.163c0,0-10.171-5.721-16.792-13.347
		c-4.542-5.208,1.378-15.507,7.964-33.35c0.899-2.405,6.259,1.027,9.715-7.135c3.457-8.14-3.397-12.226-2.592-14.679
		c0.736-2.172,1.262-1.902,1.717-3.619c0.91-4.963,3.164-7.94,6.212-9.703c46.335,1.4,58.397-0.9,46.942-33
		c1.482-1.366,9.773-6.738,11.525-10.592c1.763-3.818-2.395-4.787-2.395-4.787s3.036,0.164,5.278-3.363
		c2.242-3.526-3.854-17.305-3.854-17.305s15.379-3.352,18.742-9.121C330.033,210.898,299.603,175.499,300.724,169.106z"/>
</g>
<g>
</g>
<g>
</g>
<g>
</g>
<g>
</g>
<g>
</g>
<g>
</g>
<g>
</g>
<g>
</g>
<g>
</g>
<g>
</g>
<g>
</g>
<g>
</g>
<g>
</g>
<g>
</g>
<g>
</g>
</svg>
