<?xml version="1.0" encoding="iso-8859-1"?>
<!-- Generator: Adobe Illustrator 16.0.0, SVG Export Plug-In . SVG Version: 6.00 Build 0)  -->
<!DOCTYPE svg PUBLIC "-//W3C//DTD SVG 1.1//EN" "http://www.w3.org/Graphics/SVG/1.1/DTD/svg11.dtd">
<svg version="1.1" id="Capa_1" xmlns="http://www.w3.org/2000/svg" xmlns:xlink="http://www.w3.org/1999/xlink" x="0px" y="0px"
	 width="376.89px" height="376.89px" viewBox="0 0 376.89 376.89" style="enable-background:new 0 0 376.89 376.89;"
	 xml:space="preserve">
<g>
	<g>
		<path d="M328.53,161.558c1.156-6.65,6.48-9.797,7.976-11.455c1.494-1.676,5.01-19.682-14.457-48.361
			c-19.477-28.644-53.808-64.078-135.284-43.59c-81.478,20.493-83.299,99.542-58.427,166.562
			c10.761,31.504,39.965,51.764,34.331,59.949c-5.635,8.209-21.749,92.051-21.749,92.051l128.956,0.176
			c0,0-10.544-5.932-17.422-13.826c-4.718-5.406,1.425-16.114,8.256-34.622c0.934-2.511,6.504,1.062,10.089-7.392
			c3.585-8.455-3.526-12.705-2.686-15.227c0.747-2.242,1.296-1.975,1.763-3.737c0.958-5.161,3.293-8.244,6.458-10.089
			c48.074,1.447,60.592-0.934,48.717-34.237c1.529-1.401,10.146-6.983,11.957-10.977c1.833-3.97-2.487-4.975-2.487-4.975
			s3.165,0.163,5.477-3.479c2.323-3.666-3.981-17.959-3.981-17.959s15.95-3.48,19.431-9.459
			C358.925,204.933,327.362,168.19,328.53,161.558z"/>
		<path d="M134.602,39.59c9.342-0.192,33.187-4.279,33.187-4.279s0.286,7.175,2.271,6.644c1.997-0.502,85.161-21.842,85.161-21.842
			s4.46-23.08-9.144-19.793c-8.244,1.997-76.427,18.502-128.833,31.149c0.426-0.712,0.847-1.431,1.279-2.149
			c3.707-5.646-5.237-9.195-17.434-4.309c-4.367,2.622-8.957,7.356-13.622,13.633c-18.928,4.583-31.674,7.666-31.674,7.666
			s-4.496,3.229-0.958,5.535c7.573,0.362,16.155-0.31,24.837-1.542C50.877,97.725,21.37,190.476,21.177,198.72
			c-0.24,10.345,29.058,22.771,25.491,14.97c2.271-45.115,24.3-102.344,62.812-169.055C121.261,42.02,130.743,39.649,134.602,39.59z
			 M38.266,201.324c-1.354,1.156-3.398,0.981-4.548-0.362c-1.144-1.378-0.981-3.41,0.385-4.566c1.36-1.156,3.41-0.969,4.554,0.362
			C39.808,198.148,39.638,200.168,38.266,201.324z M105.141,38.907c-1.36,1.139-3.41,0.958-4.566-0.42
			c-1.139-1.349-0.969-3.392,0.379-4.542c1.366-1.145,3.41-0.969,4.56,0.385C106.659,35.69,106.507,37.74,105.141,38.907z"/>
	</g>
</g>
<g>
</g>
<g>
</g>
<g>
</g>
<g>
</g>
<g>
</g>
<g>
</g>
<g>
</g>
<g>
</g>
<g>
</g>
<g>
</g>
<g>
</g>
<g>
</g>
<g>
</g>
<g>
</g>
<g>
</g>
</svg>
