<?xml version="1.0" encoding="iso-8859-1"?>
<!-- Generator: Adobe Illustrator 16.0.0, SVG Export Plug-In . SVG Version: 6.00 Build 0)  -->
<!DOCTYPE svg PUBLIC "-//W3C//DTD SVG 1.1//EN" "http://www.w3.org/Graphics/SVG/1.1/DTD/svg11.dtd">
<svg version="1.1" id="Capa_1" xmlns="http://www.w3.org/2000/svg" xmlns:xlink="http://www.w3.org/1999/xlink" x="0px" y="0px"
	 width="31.766px" height="31.766px" viewBox="0 0 31.766 31.766" style="enable-background:new 0 0 31.766 31.766;"
	 xml:space="preserve">
<g>
	<path d="M22.472,9.108C22.472,4.086,19.517,0,15.883,0C12.25,0,9.294,4.086,9.294,9.108c0,3.363,1.329,6.3,3.296,7.876
		c-0.008,0.164-0.055,0.338-0.167,0.516c1.114,0.04,1.763,1.725,1.604,2.52c0.598,0,0.478,0.742,0.478,0.742l0.199,0.016v7.646
		h0.357v1.294c-0.496,0.188-0.835,0.541-0.835,0.953c0,0.604,0.721,1.095,1.611,1.095c0.891,0,1.609-0.49,1.609-1.095
		c0-0.412-0.338-0.769-0.834-0.953v-1.294h0.438v-7.646l0.199-0.016c0,0-0.12-0.742,0.477-0.742c-0.158-0.795,0.49-2.479,1.604-2.52
		c-0.109-0.172-0.157-0.343-0.168-0.502C21.137,15.422,22.472,12.479,22.472,9.108z M15.883,16.943
		c-2.931,0-5.316-3.516-5.316-7.835c0-4.319,2.386-7.835,5.316-7.835c2.933,0,5.315,3.516,5.315,7.835
		C21.198,13.428,18.815,16.943,15.883,16.943z M18.276,3.757l0.287,0.135l-5.073,10.883l-0.289-0.135L18.276,3.757z M14.348,9.092
		L14.06,8.958l2.333-5.015l0.289,0.134L14.348,9.092z M17.185,9.198l0.289,0.135l-2.334,5.015l-0.288-0.134L17.185,9.198z"/>
</g>
<g>
</g>
<g>
</g>
<g>
</g>
<g>
</g>
<g>
</g>
<g>
</g>
<g>
</g>
<g>
</g>
<g>
</g>
<g>
</g>
<g>
</g>
<g>
</g>
<g>
</g>
<g>
</g>
<g>
</g>
</svg>
