<?xml version="1.0" encoding="iso-8859-1"?>
<!-- Generator: Adobe Illustrator 16.0.0, SVG Export Plug-In . SVG Version: 6.00 Build 0)  -->
<!DOCTYPE svg PUBLIC "-//W3C//DTD SVG 1.1//EN" "http://www.w3.org/Graphics/SVG/1.1/DTD/svg11.dtd">
<svg version="1.1" id="Capa_1" xmlns="http://www.w3.org/2000/svg" xmlns:xlink="http://www.w3.org/1999/xlink" x="0px" y="0px"
	 width="31.892px" height="31.892px" viewBox="0 0 31.892 31.892" style="enable-background:new 0 0 31.892 31.892;"
	 xml:space="preserve">
<g>
	<path d="M26.383,6.962H5.467v17.967h20.917L26.383,6.962L26.383,6.962z M26.159,24.706H5.692V7.188h20.467V24.706z M31.258,20.577
		c-0.332-0.027-0.771,0.234-0.658,0.556c0.433-0.313,0.56,0.328,0.025,0.337c-0.195,0.003-0.369-0.146-0.453-0.406
		c-0.076-0.234-0.012-0.861-0.168-1.248c-0.123-0.309-0.314-0.642-0.555-0.564c-0.152,0.048-0.171,0.314-0.33,0.23
		c0.09-0.074,0.172-0.148,0.18-0.252c-0.088-0.18-0.273-0.375-0.377-0.556v-0.379c0.033-0.032,0.076-0.062,0.135-0.088
		c0.156-0.072,0.458,0.032,0.634-0.032c0.286-0.104,0.54-0.43,0.604-0.669c0.148-0.575-0.551-1.16-0.92-0.599
		c0.029,0.063,0.192-0.111,0.178,0.031c-0.098,0.275-0.438,0.312-0.629,0.207v-0.76c0.004-0.039,0.006-0.078,0-0.119v-0.32v-2.204
		c0.045-0.103,0.095-0.173,0.152-0.202c0.235-0.118,0.645-0.165,0.803,0.071c0.416,0.623-0.69,0.911-0.506,0.203
		c-0.42,0.262-0.11,0.962,0.231,1.145c0.493,0.261,1.409-0.228,1.621-0.728c0.217-0.51-0.126-1.15-0.549-1.41
		c-0.426-0.262-0.984-0.194-1.366-0.564c-0.121-0.117-0.226-0.316-0.09-0.422c0.239-0.188,0.909,0.224,1.22,0.262
		c0.646,0.079,1.329-0.436,1.427-0.935c0.088-0.452-0.14-1.062-0.605-1.1c-0.335-0.027-0.773,0.235-0.661,0.557
		c0.433-0.313,0.56,0.328,0.025,0.338c-0.195,0.003-0.369-0.147-0.453-0.407c-0.076-0.234-0.012-0.862-0.168-1.247
		c-0.123-0.31-0.314-0.643-0.555-0.566c-0.152,0.048-0.171,0.314-0.33,0.232c0.09-0.074,0.172-0.15,0.18-0.252
		c-0.088-0.181-0.273-0.376-0.377-0.556v-0.38c0.033-0.031,0.076-0.062,0.135-0.088c0.156-0.073,0.458,0.033,0.634-0.032
		c0.286-0.104,0.54-0.43,0.604-0.67c0.148-0.574-0.551-1.16-0.92-0.598c0.029,0.064,0.192-0.112,0.178,0.029
		c-0.098,0.277-0.438,0.315-0.629,0.207V5.871c0.004-0.039,0.006-0.078,0-0.119v-0.32H28.72h-0.271V4.95h-0.177V4.78h-2.584
		c-0.12-0.044-0.203-0.095-0.234-0.152c-0.141-0.238-0.195-0.645,0.082-0.803c0.729-0.416,1.067,0.69,0.236,0.506
		c0.309,0.419,1.13,0.11,1.344-0.233c0.307-0.492-0.267-1.409-0.854-1.62c-0.599-0.217-1.349,0.126-1.653,0.548
		C24.3,3.453,24.38,4.011,23.946,4.394c-0.137,0.122-0.368,0.226-0.493,0.09c-0.221-0.238,0.262-0.91,0.307-1.22
		c0.094-0.645-0.51-1.328-1.096-1.426c-0.529-0.088-1.244,0.139-1.289,0.607c-0.033,0.333,0.272,0.77,0.65,0.659
		c-0.365-0.432,0.387-0.56,0.396-0.026c0.004,0.196-0.172,0.369-0.478,0.454c-0.272,0.076-1.011,0.012-1.463,0.167
		c-0.36,0.124-0.753,0.315-0.664,0.554c0.058,0.153,0.369,0.171,0.271,0.33c-0.086-0.09-0.176-0.172-0.295-0.18
		c-0.213,0.088-0.442,0.275-0.652,0.378h-0.443c-0.036-0.033-0.071-0.076-0.104-0.134c-0.084-0.156,0.039-0.458-0.037-0.635
		c-0.123-0.286-0.504-0.54-0.785-0.602c-0.674-0.15-1.359,0.551-0.702,0.919c0.076-0.029-0.131-0.193,0.035-0.177
		c0.325,0.099,0.369,0.438,0.243,0.629h-0.891c-0.044-0.005-0.09-0.006-0.14,0h-0.375h-2.584c-0.121-0.044-0.203-0.095-0.237-0.152
		c-0.139-0.238-0.193-0.645,0.083-0.803c0.73-0.416,1.068,0.69,0.237,0.506c0.308,0.419,1.129,0.11,1.343-0.233
		c0.306-0.492-0.267-1.409-0.853-1.62c-0.598-0.217-1.349,0.126-1.653,0.548c-0.307,0.426-0.227,0.985-0.661,1.367
		c-0.137,0.122-0.37,0.226-0.495,0.09c-0.219-0.238,0.263-0.91,0.308-1.22c0.093-0.645-0.511-1.328-1.096-1.426
		C9.804,1.75,9.087,1.977,9.042,2.444c-0.033,0.333,0.274,0.77,0.652,0.659c-0.366-0.432,0.385-0.56,0.396-0.026
		c0.004,0.196-0.172,0.369-0.477,0.454c-0.274,0.076-1.01,0.013-1.462,0.167C7.79,3.822,7.397,4.014,7.487,4.253
		c0.057,0.153,0.369,0.171,0.272,0.33c-0.087-0.09-0.176-0.172-0.296-0.18C7.251,4.491,7.021,4.677,6.812,4.78H6.368
		C6.331,4.749,6.295,4.705,6.264,4.646C6.179,4.49,6.303,4.188,6.226,4.011C6.104,3.727,5.722,3.472,5.44,3.409
		c-0.674-0.15-1.36,0.551-0.702,0.92C4.814,4.3,4.608,4.136,4.773,4.152C5.1,4.25,5.143,4.59,5.017,4.78H4.127
		c-0.045-0.005-0.091-0.006-0.14,0H3.612v0.169H3.437v0.482H3.25H2.96v2.204C2.917,7.739,2.866,7.81,2.81,7.838
		C2.571,7.957,2.164,8.003,2.005,7.767c-0.416-0.622,0.69-0.91,0.506-0.202c0.42-0.263,0.11-0.963-0.233-1.145
		C1.786,6.158,0.87,6.647,0.659,7.147c-0.217,0.509,0.126,1.15,0.548,1.41C1.633,8.819,2.191,8.751,2.574,9.12
		c0.122,0.117,0.226,0.315,0.09,0.422c-0.238,0.187-0.91-0.224-1.22-0.263C0.798,9.2,0.116,9.716,0.019,10.215
		c-0.088,0.452,0.139,1.062,0.607,1.101c0.333,0.027,0.77-0.234,0.659-0.556c-0.431,0.313-0.56-0.328-0.026-0.337
		c0.197-0.003,0.369,0.146,0.455,0.406c0.076,0.234,0.012,0.862,0.167,1.247c0.124,0.31,0.315,0.643,0.555,0.566
		c0.153-0.048,0.171-0.314,0.329-0.231c-0.09,0.074-0.171,0.15-0.179,0.252c0.088,0.181,0.274,0.376,0.377,0.556v0.378
		c-0.033,0.032-0.076,0.062-0.134,0.089c-0.156,0.072-0.458-0.033-0.634,0.032c-0.286,0.104-0.54,0.43-0.602,0.67
		c-0.15,0.575,0.55,1.16,0.919,0.598c-0.029-0.064-0.192,0.112-0.177-0.03c0.099-0.277,0.438-0.314,0.629-0.207v0.758
		c-0.005,0.039-0.006,0.078,0,0.119v0.32v2.205c-0.044,0.104-0.095,0.172-0.151,0.201c-0.238,0.118-0.646,0.164-0.803-0.072
		c-0.416-0.623,0.69-0.91,0.506-0.203c0.42-0.262,0.11-0.963-0.233-1.145c-0.493-0.261-1.409,0.229-1.62,0.729
		c-0.217,0.511,0.126,1.15,0.548,1.41c0.427,0.263,0.985,0.193,1.367,0.562C2.7,19.75,2.804,19.95,2.667,20.055
		c-0.238,0.188-0.91-0.224-1.22-0.262c-0.645-0.08-1.328,0.436-1.425,0.936c-0.088,0.451,0.139,1.062,0.607,1.1
		c0.333,0.027,0.77-0.232,0.659-0.555c-0.431,0.312-0.56-0.328-0.026-0.338c0.197-0.004,0.369,0.146,0.455,0.407
		c0.076,0.233,0.012,0.86,0.167,1.247c0.124,0.311,0.315,0.643,0.555,0.566c0.153-0.049,0.171-0.314,0.329-0.231
		C2.678,23,2.597,23.075,2.588,23.177c0.088,0.181,0.274,0.376,0.377,0.556v0.379C2.933,24.143,2.89,24.174,2.832,24.2
		c-0.156,0.074-0.458-0.031-0.634,0.033c-0.286,0.104-0.54,0.43-0.602,0.668c-0.15,0.576,0.55,1.16,0.919,0.6
		c-0.029-0.062-0.192,0.111-0.177-0.03c0.099-0.276,0.438-0.313,0.629-0.207v0.761c-0.005,0.039-0.006,0.076,0,0.117v0.32h0.203
		h0.272v0.48h0.177v0.17h2.585c0.12,0.045,0.203,0.096,0.236,0.151c0.139,0.238,0.193,0.646-0.083,0.804
		c-0.73,0.416-1.068-0.689-0.238-0.506C5.811,27.14,4.99,27.45,4.776,27.793c-0.306,0.492,0.267,1.408,0.853,1.619
		c0.598,0.218,1.349-0.125,1.653-0.547c0.306-0.428,0.227-0.985,0.661-1.367c0.137-0.122,0.37-0.227,0.495-0.09
		c0.22,0.238-0.263,0.91-0.307,1.22c-0.093,0.646,0.511,1.329,1.096,1.426c0.53,0.089,1.246-0.138,1.291-0.606
		c0.032-0.332-0.274-0.771-0.652-0.657c0.367,0.431-0.385,0.56-0.396,0.024c-0.004-0.197,0.172-0.369,0.477-0.455
		c0.274-0.076,1.01-0.012,1.462-0.166c0.363-0.125,0.753-0.314,0.664-0.556c-0.057-0.153-0.369-0.17-0.271-0.329
		c0.087,0.09,0.176,0.172,0.296,0.18c0.211-0.088,0.441-0.273,0.651-0.377h0.444c0.037,0.031,0.072,0.074,0.104,0.133
		c0.085,0.156-0.039,0.459,0.038,0.636c0.123,0.286,0.504,0.54,0.785,0.603c0.674,0.149,1.36-0.551,0.702-0.918
		c-0.076,0.027,0.131,0.19-0.035,0.176c-0.325-0.1-0.369-0.438-0.243-0.627h0.89c0.045,0.004,0.091,0.006,0.139,0h0.376h2.585
		c0.117,0.043,0.2,0.094,0.233,0.149c0.14,0.238,0.193,0.646-0.083,0.804c-0.729,0.418-1.066-0.689-0.236-0.506
		c-0.309-0.421-1.13-0.109-1.343,0.232c-0.307,0.492,0.267,1.408,0.854,1.619c0.598,0.218,1.349-0.127,1.651-0.549
		c0.308-0.426,0.229-0.983,0.661-1.367c0.139-0.12,0.37-0.225,0.495-0.088c0.222,0.238-0.264,0.91-0.309,1.22
		c-0.092,0.646,0.512,1.329,1.097,1.426c0.53,0.089,1.246-0.138,1.291-0.604c0.032-0.334-0.273-0.771-0.652-0.66
		c0.366,0.432-0.385,0.561-0.396,0.027c-0.004-0.197,0.172-0.369,0.476-0.455c0.274-0.076,1.012-0.014,1.465-0.168
		c0.361-0.123,0.752-0.314,0.662-0.556c-0.057-0.151-0.367-0.17-0.271-0.329c0.088,0.092,0.177,0.172,0.297,0.18
		c0.212-0.088,0.441-0.273,0.652-0.377h0.442c0.037,0.033,0.072,0.076,0.104,0.135c0.086,0.156-0.037,0.457,0.039,0.634
		c0.123,0.286,0.504,0.54,0.785,0.603c0.674,0.149,1.359-0.551,0.7-0.92c-0.073,0.029,0.132,0.192-0.034,0.178
		c-0.324-0.1-0.369-0.438-0.242-0.629h0.89c0.045,0.006,0.091,0.006,0.139,0h0.375v-0.17h0.178v-0.479h0.188h0.289v-2.205
		c0.044-0.103,0.094-0.173,0.15-0.201c0.236-0.118,0.646-0.165,0.804,0.071c0.417,0.623-0.69,0.908-0.505,0.201
		c-0.42,0.265-0.111,0.964,0.23,1.146c0.493,0.262,1.409-0.229,1.621-0.729c0.219-0.51-0.126-1.149-0.548-1.409
		c-0.428-0.263-0.983-0.192-1.367-0.562c-0.12-0.117-0.227-0.315-0.09-0.424c0.238-0.187,0.91,0.227,1.222,0.264
		c0.645,0.08,1.327-0.437,1.426-0.936C31.954,21.225,31.727,20.616,31.258,20.577z M26.948,25.442H4.937V6.45h22.012V25.442z
		 M9.163,22.487l-0.416-0.432L21.729,9.542l0.416,0.431L9.163,22.487z M13.438,14.985l-0.417-0.432L19,8.784l0.417,0.432
		L13.438,14.985z M17.256,16.578l0.416,0.432l-5.978,5.768l-0.417-0.432L17.256,16.578z"/>
</g>
<g>
</g>
<g>
</g>
<g>
</g>
<g>
</g>
<g>
</g>
<g>
</g>
<g>
</g>
<g>
</g>
<g>
</g>
<g>
</g>
<g>
</g>
<g>
</g>
<g>
</g>
<g>
</g>
<g>
</g>
</svg>
