<?xml version="1.0" encoding="iso-8859-1"?>
<!-- Generator: Adobe Illustrator 16.0.0, SVG Export Plug-In . SVG Version: 6.00 Build 0)  -->
<!DOCTYPE svg PUBLIC "-//W3C//DTD SVG 1.1//EN" "http://www.w3.org/Graphics/SVG/1.1/DTD/svg11.dtd">
<svg version="1.1" id="Capa_1" xmlns="http://www.w3.org/2000/svg" xmlns:xlink="http://www.w3.org/1999/xlink" x="0px" y="0px"
	 width="31.983px" height="31.982px" viewBox="0 0 31.983 31.982" style="enable-background:new 0 0 31.983 31.982;"
	 xml:space="preserve">
<g>
	<path d="M19.042,8.026l0.602,0.279L12.38,23.952l-0.601-0.279L19.042,8.026z M16.947,8.572l-0.602-0.279l-3.341,7.21l0.602,0.279
		L16.947,8.572z M14.138,23.056l0.601,0.279l3.344-7.21l-0.602-0.278L14.138,23.056z M26.094,18.182
		c0.652,0.679,0.904,1.964,0.289,2.753c-0.121,0.157-0.271,0.295-0.466,0.399c-0.755,0.419-2.241,0.151-2.151-0.908
		c0.002-0.023,0.004-0.048,0.006-0.07c0.053-0.392,0.232-0.738,0.518-0.94c0.271-0.202,0.644-0.263,1.043-0.034
		c0.519,0.29,0.609,1.032,0.06,1.334c-0.032,0.02-0.067,0.036-0.106,0.052c-0.249,0.099-0.65,0.02-0.767-0.244
		c-0.027-0.069-0.039-0.151-0.021-0.248c0.086-0.506,0.836-0.198,0.438,0.136c0.174,0.156,0.322,0.042,0.387-0.146
		c0.06-0.19,0.034-0.454-0.13-0.581c-0.354-0.272-0.796-0.073-0.974,0.245c-0.093,0.174-0.133,0.344-0.104,0.505
		c0.036,0.217,0.172,0.414,0.395,0.555c0.402,0.258,0.823,0.124,1.146-0.214c0.026-0.029,0.055-0.061,0.081-0.089
		c0.406-0.481,0.421-0.97,0.221-1.41c-0.192-0.442-0.614-0.845-1.054-1.208c-0.263-0.213-0.534-0.413-0.784-0.606
		c-0.016,0.183-0.031,0.363-0.051,0.543c0.172-0.02,0.32,0.018,0.417,0.146l-0.007,0.041c-0.146,0.051-0.301,0.095-0.449,0.144
		c-0.034,0.261-0.072,0.52-0.116,0.773c0.055,0.06,0.085,0.138,0.073,0.22c-0.016,0.085-0.074,0.149-0.15,0.188
		c-0.118,0.596-0.266,1.174-0.44,1.729c0.113,0.111,0.234,0.222,0.361,0.333c0.489,0.423,1.03,0.83,1.299,1.267l0.037,0.063
		c0.234,0.412,0.346,0.946,0.28,1.464c-0.061,0.517-0.297,1.013-0.696,1.323c-0.16,0.125-0.354,0.219-0.563,0.271
		c-0.415,0.108-0.98-0.012-1.372-0.281c-0.393-0.271-0.634-0.677-0.453-1.17c0.008-0.023,0.017-0.047,0.021-0.066
		c0.146-0.363,0.412-0.646,0.732-0.771c0.318-0.125,0.688-0.095,1.021,0.226c0.435,0.408,0.322,1.164-0.285,1.317
		c-0.037,0.011-0.076,0.018-0.117,0.022c-0.272,0.027-0.633-0.154-0.673-0.438c-0.013-0.075,0-0.157,0.042-0.245
		c0.219-0.464,0.859,0.021,0.389,0.244c0.252,0.402,0.696-0.309,0.435-0.644c-0.273-0.354-0.752-0.269-1-0.007
		c-0.141,0.141-0.215,0.296-0.23,0.457c-0.024,0.218,0.052,0.438,0.229,0.638c0.319,0.36,0.754,0.343,1.164,0.097
		c0.035-0.021,0.068-0.045,0.103-0.065c0.522-0.369,0.664-0.85,0.578-1.33c-0.077-0.482-0.39-0.974-0.735-1.431
		c-0.231-0.302-0.479-0.59-0.698-0.859c-0.069,0.201-0.145,0.4-0.222,0.597c0.228,0.001,0.415,0.064,0.496,0.247L23.52,22.54
		c-0.202,0.019-0.413,0.021-0.615,0.044c-0.085,0.2-0.173,0.396-0.266,0.587c0.123,0.077,0.186,0.221,0.131,0.345
		c-0.061,0.131-0.223,0.184-0.37,0.129c-0.074,0.144-0.152,0.282-0.231,0.42c0,0.029-0.004,0.062-0.019,0.09
		c-0.021,0.037-0.05,0.063-0.081,0.082c-0.151,0.251-0.311,0.492-0.475,0.724c0.358,0.741,1.064,1.526,1.229,2.242l0.014,0.071
		c0.095,0.476,0.013,1.033-0.247,1.521c-0.121,0.247-0.304,0.465-0.502,0.652c-0.214,0.178-0.441,0.325-0.707,0.396
		c-0.214,0.058-0.427,0.084-0.656,0.046c-0.448-0.065-0.901-0.406-1.14-0.824c-0.235-0.417-0.278-0.878,0.063-1.25l0.047-0.048
		c0.266-0.264,0.604-0.422,0.944-0.425c0.34,0.001,0.681,0.148,0.881,0.566c0.133,0.271,0.098,0.57-0.047,0.808
		c-0.152,0.228-0.414,0.388-0.733,0.338c-0.039-0.006-0.079-0.015-0.12-0.025c-0.263-0.074-0.521-0.395-0.442-0.668
		c0.021-0.072,0.065-0.14,0.135-0.208c0.371-0.351,0.791,0.337,0.267,0.376c0.067,0.475,0.774-0.034,0.647-0.448
		c-0.133-0.433-0.604-0.511-0.932-0.37c-0.18,0.074-0.299,0.193-0.38,0.327c-0.106,0.184-0.118,0.427-0.043,0.676
		c0.138,0.459,0.547,0.63,1.035,0.548c0.041-0.006,0.083-0.014,0.125-0.021c0.644-0.162,0.979-0.58,1.066-1.076
		c0.052-0.246,0.041-0.515-0.004-0.786c-0.041-0.271-0.121-0.548-0.22-0.821c-0.159-0.453-0.364-0.891-0.516-1.278
		c-0.184,0.237-0.37,0.465-0.565,0.678c0.344,0.053,0.655,0.178,0.682,0.454l-0.022,0.032c-0.305-0.07-0.616-0.184-0.921-0.208
		c-0.129,0.129-0.262,0.251-0.395,0.37c0.084-0.011,0.179,0.016,0.256,0.086c0.125,0.113,0.149,0.302,0.043,0.405
		c-0.104,0.105-0.285,0.091-0.404-0.033c-0.082-0.087-0.112-0.195-0.094-0.288c-0.131,0.107-0.264,0.213-0.397,0.312
		c0.041,0.012,0.081,0.032,0.112,0.067c0.08,0.089,0.08,0.218,0,0.289c-0.059,0.053-0.143,0.052-0.211,0.015
		c-0.027-0.015-0.053-0.034-0.073-0.061c-0.021-0.025-0.035-0.055-0.043-0.083c-0.008-0.026-0.005-0.053-0.003-0.077
		c-0.147,0.1-0.297,0.192-0.449,0.278c-0.034,0.33,0.007,0.716,0.052,1.13c0.068,0.631,0.157,1.32-0.018,1.821l-0.025,0.072
		c-0.175,0.469-0.59,0.917-1.135,1.192c-0.544,0.274-1.213,0.337-1.752,0.133c-0.218-0.092-0.414-0.219-0.574-0.386
		c-0.317-0.349-0.437-0.904-0.338-1.372c0.048-0.233,0.144-0.448,0.284-0.607c0.139-0.154,0.321-0.27,0.563-0.303
		c0.022-0.002,0.043-0.005,0.064-0.006c0.355-0.05,0.698,0.044,0.972,0.233c0.267,0.193,0.475,0.517,0.396,0.968
		c-0.054,0.29-0.265,0.539-0.541,0.632c-0.272,0.107-0.602,0.047-0.827-0.177c-0.028-0.03-0.055-0.062-0.08-0.098
		c-0.162-0.229-0.152-0.639,0.08-0.796c0.061-0.046,0.137-0.077,0.234-0.083c0.252-0.014,0.358,0.162,0.348,0.321
		c-0.009,0.162-0.155,0.291-0.374,0.138c-0.118,0.206,0.035,0.319,0.253,0.335c0.217,0.008,0.484-0.103,0.557-0.297
		c0.078-0.218,0.022-0.408-0.086-0.555c-0.109-0.148-0.273-0.263-0.442-0.301c-0.184-0.046-0.345-0.043-0.489,0.024
		c-0.193,0.07-0.357,0.242-0.461,0.49c-0.194,0.44,0.006,0.827,0.461,1.084c0.037,0.02,0.076,0.038,0.118,0.057
		c0.642,0.291,1.215,0.111,1.596-0.242c0.386-0.37,0.599-0.924,0.699-1.493c0.124-0.644,0.105-1.294,0.17-1.763
		c-0.362,0.181-0.735,0.326-1.119,0.43c0.091,0.066,0.181,0.137,0.271,0.215c0.281,0.24,0.529,0.519,0.412,0.791l-0.037,0.018
		c-0.278-0.281-0.518-0.604-0.82-0.797c-0.085-0.051-0.179-0.088-0.274-0.12c-0.332,0.062-0.669,0.097-1.013,0.097
		c-0.081,0-0.161-0.006-0.242-0.009c-0.028,0.021-0.058,0.043-0.086,0.068c-0.088,0.075-0.174,0.164-0.26,0.27
		c-0.174,0.214-0.348,0.455-0.533,0.719c-0.185,0.268-0.377,0.529-0.583,0.767c-0.207,0.236-0.429,0.442-0.663,0.564l-0.073,0.029
		c-0.453,0.229-1.053,0.268-1.625,0.119c-0.559-0.159-1.078-0.507-1.325-0.988c-0.107-0.189-0.162-0.405-0.176-0.63
		c-0.031-0.44,0.218-0.966,0.569-1.285c0.354-0.319,0.799-0.459,1.234-0.196c0.02,0.012,0.039,0.022,0.058,0.033
		c0.159,0.104,0.288,0.231,0.393,0.367c0.102,0.145,0.176,0.299,0.215,0.461c0.072,0.328,0.006,0.703-0.353,0.987
		c-0.459,0.378-1.264,0.125-1.299-0.527c-0.002-0.04-0.003-0.08,0-0.122c0.018-0.271,0.276-0.588,0.563-0.572
		c0.075,0.004,0.153,0.03,0.231,0.089c0.205,0.15,0.171,0.353,0.059,0.469c-0.108,0.11-0.308,0.127-0.371-0.131
		c-0.217,0.081-0.181,0.271-0.025,0.414c0.158,0.139,0.415,0.236,0.604,0.13c0.395-0.228,0.361-0.699,0.162-0.991
		c-0.115-0.151-0.245-0.259-0.398-0.303c-0.208-0.058-0.436-0.037-0.669,0.097c-0.419,0.232-0.502,0.666-0.323,1.127
		c0.015,0.038,0.031,0.077,0.05,0.116c0.286,0.605,0.794,0.847,1.312,0.83c0.262-0.009,0.524-0.072,0.783-0.188
		c0.256-0.11,0.504-0.263,0.736-0.438c0.61-0.447,1.075-1.025,1.438-1.317c-0.416-0.045-0.824-0.137-1.22-0.272
		c0.018,0.101,0.034,0.204,0.046,0.311c0.041,0.36,0.034,0.738-0.237,0.855l-0.038-0.014c-0.017-0.389,0.035-0.8-0.067-1.143
		c-0.014-0.048-0.033-0.096-0.054-0.142c-0.313-0.129-0.619-0.285-0.915-0.467c0.021,0.063,0.013,0.141-0.034,0.203
		c-0.07,0.099-0.196,0.126-0.278,0.059c-0.059-0.047-0.079-0.127-0.058-0.201c0.008-0.029,0.022-0.058,0.043-0.083
		c0.022-0.026,0.047-0.047,0.074-0.061c0.027-0.016,0.056-0.021,0.084-0.021c-0.174-0.113-0.344-0.236-0.511-0.366
		c-0.839,0.13-1.916,0.732-2.734,0.714l-0.074-0.004c-0.483-0.028-1.001-0.247-1.405-0.6c-0.203-0.174-0.369-0.385-0.499-0.609
		c-0.118-0.229-0.201-0.476-0.214-0.729c-0.009-0.206,0.019-0.414,0.094-0.618c0.313-0.821,1.628-1.544,2.232-0.688
		c0.014,0.021,0.027,0.04,0.04,0.06c0.217,0.324,0.295,0.703,0.223,1.036c-0.081,0.335-0.305,0.625-0.759,0.724
		c-0.291,0.062-0.575-0.035-0.768-0.223c-0.185-0.189-0.274-0.472-0.164-0.765c0.014-0.035,0.03-0.072,0.05-0.109
		C8.388,24.867,8.747,24.669,9,24.799c0.065,0.034,0.128,0.09,0.178,0.174c0.262,0.439-0.5,0.697-0.422,0.184
		c-0.471-0.022-0.138,0.75,0.29,0.722c0.449-0.03,0.638-0.47,0.569-0.825c-0.036-0.194-0.127-0.341-0.247-0.446
		c-0.162-0.145-0.393-0.206-0.657-0.17c-0.48,0.062-0.705,0.429-0.737,0.903c-0.002,0.04-0.005,0.081-0.004,0.122
		c0.015,0.639,0.33,1.035,0.785,1.238c0.45,0.207,1.035,0.226,1.608,0.173c0.558-0.047,1.106-0.166,1.555-0.22
		c-0.243-0.21-0.476-0.438-0.702-0.682c-0.139,0.322-0.333,0.592-0.611,0.552l-0.026-0.032c0.138-0.261,0.306-0.511,0.409-0.776
		c-0.109-0.126-0.214-0.256-0.318-0.39c-0.021,0.025-0.045,0.051-0.076,0.071c-0.141,0.095-0.329,0.073-0.407-0.059
		c-0.079-0.13-0.025-0.306,0.122-0.395c0.021-0.012,0.043-0.016,0.064-0.023c-0.082-0.115-0.162-0.234-0.241-0.355
		c-0.051-0.015-0.095-0.045-0.122-0.093c-0.023-0.041-0.027-0.085-0.018-0.129c-0.16-0.258-0.311-0.526-0.455-0.805
		c-0.798-0.094-1.779,0.027-2.427-0.199l-0.068-0.025c-0.892-0.335-1.67-1.411-1.444-2.384c0.045-0.196,0.123-0.385,0.253-0.56
		c0.512-0.698,1.967-1.088,2.334-0.088c0.008,0.022,0.016,0.045,0.024,0.066c0.12,0.377,0.099,0.768-0.068,1.068
		c-0.163,0.299-0.473,0.513-0.93,0.476c-0.594-0.042-0.993-0.681-0.621-1.186c0.023-0.03,0.049-0.062,0.077-0.093
		c0.185-0.194,0.582-0.294,0.795-0.102c0.056,0.049,0.099,0.119,0.123,0.215c0.138,0.494-0.67,0.533-0.455,0.062
		c-0.45-0.143-0.33,0.675,0.078,0.769c0.44,0.097,0.747-0.271,0.778-0.636c0.012-0.196-0.03-0.365-0.118-0.501
		c-0.12-0.183-0.332-0.302-0.592-0.336C6.8,20.023,6.48,20.32,6.33,20.764c-0.012,0.039-0.024,0.076-0.036,0.114
		c-0.164,0.607,0.031,1.06,0.399,1.376c0.372,0.318,0.911,0.509,1.475,0.641c0.398,0.097,0.805,0.164,1.169,0.241
		c-0.097-0.204-0.191-0.413-0.28-0.626c-0.178,0.147-0.37,0.222-0.548,0.13L8.493,22.6c0.139-0.138,0.294-0.269,0.435-0.408
		c-0.082-0.208-0.159-0.421-0.232-0.637c-0.112-0.014-0.209-0.082-0.24-0.188c-0.031-0.101,0.012-0.202,0.092-0.272
		c-0.17-0.557-0.313-1.136-0.426-1.733c-0.721-0.249-1.598-0.376-2.128-0.715l-0.06-0.041c-0.787-0.528-1.299-1.727-0.872-2.618
		c0.089-0.179,0.21-0.344,0.372-0.486c0.315-0.28,0.862-0.446,1.337-0.402c0.474,0.045,0.884,0.285,0.958,0.818
		c0.003,0.023,0.006,0.048,0.008,0.07c0.082,0.779-0.438,1.551-1.313,1.287c-0.281-0.09-0.486-0.307-0.563-0.555
		c-0.07-0.248-0.012-0.527,0.217-0.732c0.03-0.024,0.061-0.05,0.096-0.072c0.225-0.148,0.634-0.16,0.798,0.072
		c0.045,0.062,0.074,0.14,0.078,0.237c0.022,0.513-0.771,0.373-0.458-0.037c-0.404-0.234-0.478,0.584-0.092,0.765
		c0.409,0.191,0.785-0.096,0.897-0.446c0.06-0.19,0.053-0.364-0.008-0.518c-0.076-0.204-0.252-0.366-0.502-0.455
		c-0.453-0.163-0.822,0.06-1.073,0.455c-0.02,0.036-0.039,0.07-0.058,0.104c-0.581,1.123,0.346,1.864,1.372,2.376
		c0.306,0.158,0.62,0.301,0.913,0.44c-0.03-0.184-0.057-0.368-0.081-0.555c-0.164,0.056-0.319,0.053-0.44-0.055l-0.003-0.044
		c0.132-0.08,0.27-0.153,0.406-0.232c-0.03-0.267-0.055-0.535-0.073-0.807c-0.05-0.046-0.085-0.106-0.088-0.177
		c-0.004-0.069,0.024-0.133,0.069-0.185c-0.013-0.287-0.022-0.577-0.022-0.869c0-0.338,0.011-0.673,0.029-1.005
		c-0.646-0.389-1.455-0.693-1.899-1.129l-0.051-0.054c-0.653-0.679-0.906-1.964-0.29-2.753c0.121-0.157,0.273-0.295,0.466-0.399
		c0.755-0.419,2.241-0.151,2.151,0.908c-0.002,0.024-0.005,0.049-0.006,0.07c-0.052,0.393-0.232,0.739-0.516,0.941
		C7.42,12.767,7.049,12.828,6.65,12.6c-0.52-0.29-0.609-1.032-0.06-1.334c0.034-0.02,0.069-0.035,0.108-0.052
		c0.249-0.097,0.651-0.019,0.764,0.245c0.03,0.069,0.04,0.151,0.021,0.247c-0.085,0.506-0.835,0.2-0.438-0.134
		c-0.172-0.157-0.321-0.044-0.385,0.146c-0.059,0.19-0.034,0.453,0.13,0.581c0.353,0.272,0.795,0.073,0.972-0.245
		c0.093-0.175,0.133-0.345,0.106-0.506c-0.036-0.217-0.172-0.413-0.394-0.555c-0.402-0.257-0.824-0.124-1.144,0.214
		c-0.028,0.03-0.055,0.061-0.081,0.089c-0.407,0.482-0.421,0.97-0.221,1.409c0.193,0.443,0.614,0.846,1.055,1.208
		c0.261,0.213,0.533,0.413,0.784,0.607c0.015-0.183,0.031-0.363,0.051-0.543c-0.171,0.019-0.32-0.019-0.416-0.146l0.005-0.042
		c0.149-0.05,0.301-0.094,0.451-0.143c0.033-0.26,0.072-0.52,0.116-0.773c-0.054-0.06-0.084-0.138-0.072-0.22
		c0.014-0.085,0.073-0.15,0.149-0.189c0.119-0.596,0.267-1.173,0.441-1.728c-0.113-0.112-0.235-0.223-0.361-0.333
		c-0.489-0.423-1.031-0.83-1.3-1.268l-0.037-0.06C6.66,8.662,6.549,8.126,6.614,7.61C6.672,7.093,6.91,6.598,7.309,6.288
		C7.47,6.163,7.663,6.068,7.874,6.017c0.415-0.109,0.981,0.011,1.372,0.281c0.392,0.27,0.633,0.675,0.453,1.17
		C9.691,7.491,9.683,7.513,9.675,7.534C9.53,7.896,9.264,8.179,8.943,8.305C8.625,8.43,8.254,8.399,7.923,8.08
		c-0.434-0.408-0.324-1.164,0.286-1.32c0.037-0.008,0.076-0.015,0.117-0.02C8.597,6.71,8.958,6.894,8.999,7.177
		c0.011,0.074,0,0.156-0.042,0.244C8.739,7.887,8.098,7.402,8.569,7.179C8.317,6.776,7.873,7.486,8.136,7.823
		c0.274,0.353,0.751,0.267,1,0.006c0.14-0.141,0.215-0.296,0.231-0.456c0.023-0.217-0.052-0.439-0.23-0.638
		c-0.32-0.36-0.754-0.342-1.164-0.097C7.938,6.661,7.905,6.683,7.872,6.704c-0.522,0.37-0.664,0.85-0.578,1.33
		c0.078,0.482,0.388,0.974,0.736,1.43c0.231,0.302,0.479,0.59,0.699,0.861C8.8,10.123,8.873,9.922,8.95,9.727
		c-0.227,0-0.415-0.063-0.496-0.246l0.015-0.039c0.204-0.018,0.413-0.022,0.616-0.044C9.17,9.199,9.259,9.002,9.35,8.811
		C9.227,8.732,9.165,8.59,9.219,8.465c0.06-0.131,0.222-0.183,0.37-0.129c0.076-0.142,0.153-0.281,0.232-0.419
		c0-0.03,0.004-0.062,0.019-0.091c0.019-0.036,0.048-0.064,0.081-0.081c0.151-0.252,0.31-0.492,0.473-0.723
		c-0.359-0.741-1.065-1.528-1.23-2.242L9.15,4.708c-0.094-0.475-0.012-1.033,0.247-1.52C9.519,2.938,9.702,2.722,9.9,2.535
		c0.214-0.177,0.442-0.325,0.708-0.395c0.213-0.059,0.426-0.085,0.656-0.047c0.448,0.067,0.901,0.407,1.138,0.825
		c0.236,0.418,0.279,0.879-0.063,1.25l-0.047,0.049c-0.265,0.263-0.604,0.42-0.945,0.424c-0.34-0.001-0.679-0.148-0.88-0.566
		c-0.132-0.271-0.097-0.572,0.046-0.808c0.154-0.227,0.415-0.388,0.735-0.338c0.039,0.006,0.079,0.014,0.12,0.025
		c0.263,0.076,0.52,0.395,0.443,0.668c-0.02,0.073-0.065,0.141-0.135,0.208c-0.372,0.35-0.791-0.336-0.266-0.375
		c-0.07-0.474-0.776,0.035-0.648,0.449c0.133,0.431,0.605,0.51,0.931,0.37c0.18-0.075,0.299-0.195,0.38-0.328
		c0.106-0.184,0.119-0.426,0.043-0.675c-0.137-0.458-0.547-0.63-1.035-0.548c-0.042,0.006-0.083,0.014-0.125,0.022
		C10.312,2.908,9.977,3.326,9.889,3.82C9.838,4.066,9.848,4.334,9.892,4.606c0.041,0.27,0.122,0.548,0.22,0.821
		c0.158,0.454,0.363,0.89,0.515,1.278c0.182-0.236,0.37-0.462,0.565-0.676c-0.344-0.052-0.654-0.177-0.681-0.453l0.024-0.034
		c0.305,0.072,0.617,0.185,0.921,0.209c0.129-0.129,0.261-0.252,0.394-0.37c-0.084,0.01-0.178-0.016-0.256-0.087
		c-0.126-0.114-0.151-0.302-0.045-0.407s0.287-0.091,0.406,0.032c0.082,0.087,0.112,0.197,0.093,0.29
		c0.131-0.108,0.263-0.213,0.398-0.311c-0.04-0.012-0.08-0.033-0.112-0.068c-0.08-0.088-0.079-0.218,0.001-0.289
		c0.057-0.051,0.142-0.05,0.21-0.014c0.028,0.015,0.053,0.035,0.073,0.061c0.022,0.026,0.036,0.056,0.044,0.084
		C12.67,4.7,12.667,4.725,12.665,4.75c0.148-0.1,0.298-0.193,0.45-0.281c0.034-0.329-0.008-0.715-0.053-1.129
		c-0.068-0.63-0.157-1.32,0.018-1.821l0.027-0.072c0.174-0.469,0.589-0.917,1.134-1.193c0.544-0.275,1.213-0.337,1.752-0.133
		c0.218,0.092,0.413,0.219,0.573,0.386c0.317,0.35,0.438,0.905,0.338,1.373c-0.047,0.234-0.144,0.449-0.283,0.608
		C16.48,2.642,16.3,2.756,16.058,2.79c-0.022,0.002-0.043,0.004-0.064,0.006c-0.356,0.048-0.699-0.044-0.972-0.234
		c-0.267-0.194-0.475-0.517-0.396-0.969c0.052-0.291,0.263-0.539,0.541-0.631c0.273-0.107,0.601-0.047,0.827,0.177
		c0.028,0.029,0.055,0.062,0.079,0.097c0.163,0.229,0.152,0.638-0.079,0.796c-0.062,0.046-0.138,0.076-0.235,0.083
		c-0.252,0.012-0.358-0.163-0.348-0.322c0.009-0.161,0.156-0.29,0.374-0.136c0.118-0.207-0.035-0.321-0.253-0.336
		c-0.216-0.008-0.483,0.102-0.555,0.297c-0.079,0.217-0.023,0.408,0.085,0.554c0.109,0.148,0.273,0.263,0.442,0.3
		c0.184,0.047,0.346,0.043,0.49-0.023c0.192-0.071,0.356-0.244,0.46-0.491c0.195-0.441-0.005-0.827-0.46-1.084
		c-0.038-0.019-0.078-0.038-0.119-0.056c-0.642-0.294-1.214-0.115-1.596,0.239c-0.385,0.37-0.597,0.924-0.698,1.494
		c-0.124,0.644-0.107,1.293-0.17,1.763c0.362-0.182,0.736-0.326,1.119-0.431c-0.09-0.065-0.181-0.135-0.271-0.213
		c-0.279-0.24-0.528-0.517-0.411-0.791l0.037-0.016c0.279,0.281,0.518,0.604,0.821,0.797c0.085,0.049,0.179,0.087,0.274,0.12
		c0.332-0.062,0.67-0.098,1.013-0.098c0.081,0,0.161,0.006,0.242,0.009c0.029-0.022,0.058-0.043,0.086-0.069
		c0.088-0.075,0.174-0.164,0.26-0.268c0.174-0.215,0.348-0.456,0.533-0.721c0.186-0.266,0.377-0.528,0.584-0.765
		c0.206-0.237,0.428-0.444,0.662-0.565l0.067-0.034c0.453-0.228,1.055-0.267,1.625-0.118c0.561,0.159,1.078,0.506,1.326,0.988
		c0.106,0.189,0.161,0.405,0.176,0.63c0.031,0.439-0.219,0.966-0.568,1.284c-0.354,0.32-0.801,0.46-1.234,0.197
		c-0.02-0.013-0.04-0.023-0.059-0.035c-0.158-0.102-0.287-0.23-0.393-0.367c-0.103-0.144-0.177-0.3-0.216-0.461
		c-0.071-0.327-0.005-0.702,0.353-0.987c0.459-0.377,1.266-0.123,1.301,0.528c0.002,0.038,0.003,0.079,0,0.12
		c-0.02,0.272-0.276,0.589-0.563,0.573c-0.076-0.004-0.152-0.03-0.229-0.089c-0.205-0.15-0.173-0.353-0.06-0.468
		c0.108-0.111,0.309-0.127,0.371,0.132c0.217-0.083,0.18-0.273,0.024-0.416c-0.158-0.137-0.416-0.237-0.604-0.129
		c-0.395,0.227-0.359,0.699-0.162,0.991c0.115,0.151,0.244,0.259,0.398,0.303c0.208,0.058,0.436,0.037,0.669-0.097
		C21,3.616,21.083,3.182,20.905,2.722c-0.017-0.038-0.031-0.077-0.052-0.116C20.57,2,20.06,1.759,19.54,1.777
		c-0.262,0.009-0.523,0.073-0.783,0.188c-0.256,0.109-0.502,0.262-0.734,0.438c-0.608,0.446-1.074,1.022-1.438,1.316
		c0.416,0.044,0.824,0.137,1.22,0.271c-0.018-0.099-0.033-0.203-0.045-0.309c-0.043-0.361-0.033-0.739,0.236-0.856l0.038,0.013
		c0.017,0.39-0.035,0.8,0.064,1.144c0.016,0.046,0.033,0.094,0.056,0.14c0.312,0.129,0.618,0.284,0.915,0.466
		c-0.021-0.062-0.014-0.14,0.033-0.204c0.07-0.097,0.195-0.125,0.277-0.057c0.062,0.047,0.079,0.127,0.059,0.201
		c-0.008,0.029-0.021,0.058-0.043,0.084c-0.021,0.026-0.047,0.047-0.072,0.061c-0.026,0.015-0.057,0.019-0.084,0.021
		c0.174,0.114,0.344,0.237,0.511,0.367c0.84-0.131,1.916-0.733,2.735-0.715l0.072,0.004c0.483,0.029,1.002,0.248,1.406,0.6
		c0.202,0.174,0.368,0.384,0.498,0.61c0.118,0.229,0.2,0.475,0.213,0.728c0.01,0.205-0.019,0.413-0.094,0.617
		c-0.312,0.821-1.627,1.544-2.232,0.687c-0.014-0.02-0.025-0.038-0.039-0.058c-0.219-0.325-0.295-0.703-0.224-1.036
		c0.081-0.335,0.306-0.626,0.759-0.723c0.291-0.062,0.576,0.034,0.77,0.222c0.185,0.19,0.271,0.47,0.164,0.763
		c-0.014,0.037-0.03,0.073-0.051,0.11c-0.129,0.239-0.486,0.437-0.739,0.308c-0.065-0.036-0.129-0.091-0.18-0.174
		c-0.262-0.44,0.5-0.697,0.422-0.184c0.472,0.021,0.139-0.75-0.289-0.722c-0.449,0.031-0.639,0.47-0.569,0.824
		c0.035,0.196,0.127,0.342,0.247,0.448c0.161,0.145,0.394,0.205,0.657,0.17c0.479-0.062,0.704-0.428,0.735-0.904
		c0.002-0.04,0.004-0.081,0.004-0.122C24,5.875,23.685,5.479,23.23,5.276c-0.449-0.208-1.034-0.227-1.607-0.174
		c-0.561,0.048-1.106,0.167-1.555,0.219c0.242,0.21,0.476,0.437,0.701,0.682c0.14-0.322,0.332-0.591,0.612-0.552l0.025,0.032
		c-0.14,0.26-0.308,0.51-0.409,0.775c0.107,0.126,0.213,0.257,0.316,0.391c0.021-0.026,0.047-0.051,0.076-0.072
		c0.143-0.094,0.33-0.073,0.408,0.058c0.08,0.131,0.024,0.307-0.123,0.396c-0.021,0.012-0.043,0.016-0.062,0.024
		c0.082,0.116,0.162,0.234,0.24,0.356c0.052,0.012,0.096,0.044,0.121,0.092c0.023,0.04,0.027,0.085,0.02,0.128
		c0.16,0.26,0.312,0.528,0.455,0.807c0.797,0.093,1.777-0.028,2.427,0.197l0.068,0.026c0.892,0.334,1.67,1.411,1.442,2.384
		c-0.045,0.195-0.123,0.384-0.252,0.56c-0.513,0.697-1.967,1.087-2.334,0.087c-0.009-0.023-0.017-0.045-0.023-0.067
		c-0.12-0.376-0.1-0.767,0.066-1.068c0.164-0.3,0.476-0.513,0.933-0.476c0.594,0.043,0.991,0.68,0.62,1.187
		c-0.022,0.03-0.049,0.062-0.076,0.092c-0.188,0.195-0.583,0.293-0.796,0.102c-0.058-0.05-0.101-0.12-0.123-0.215
		c-0.14-0.494,0.669-0.533,0.452-0.062c0.451,0.142,0.332-0.676-0.075-0.769C24.338,10.32,24.031,10.687,24,11.05
		c-0.012,0.197,0.03,0.366,0.118,0.501c0.12,0.184,0.332,0.303,0.592,0.336c0.477,0.062,0.795-0.234,0.946-0.677
		c0.012-0.039,0.023-0.078,0.036-0.115c0.163-0.607-0.031-1.058-0.399-1.375c-0.372-0.317-0.911-0.508-1.475-0.64
		c-0.397-0.096-0.807-0.164-1.169-0.241c0.097,0.204,0.19,0.413,0.278,0.626c0.179-0.147,0.371-0.223,0.549-0.13l0.016,0.039
		c-0.141,0.137-0.294,0.268-0.436,0.408c0.08,0.209,0.158,0.421,0.23,0.637c0.113,0.014,0.21,0.082,0.241,0.189
		c0.029,0.101-0.014,0.203-0.094,0.272c0.171,0.558,0.312,1.136,0.428,1.733c0.721,0.249,1.597,0.376,2.128,0.716l0.061,0.041
		c0.787,0.529,1.297,1.727,0.871,2.619c-0.089,0.179-0.211,0.344-0.371,0.486c-0.314,0.281-0.863,0.446-1.338,0.402
		c-0.474-0.044-0.884-0.285-0.957-0.817c-0.004-0.024-0.007-0.048-0.009-0.07c-0.082-0.779,0.438-1.551,1.312-1.288
		c0.281,0.09,0.486,0.306,0.562,0.555c0.07,0.248,0.014,0.528-0.217,0.732c-0.03,0.025-0.062,0.05-0.097,0.072
		c-0.225,0.148-0.635,0.16-0.797-0.072c-0.045-0.062-0.074-0.14-0.078-0.237c-0.021-0.513,0.771-0.373,0.457,0.037
		c0.404,0.235,0.479-0.583,0.094-0.765c-0.409-0.191-0.785,0.097-0.897,0.447c-0.06,0.19-0.053,0.364,0.008,0.518
		c0.076,0.204,0.252,0.366,0.502,0.455c0.453,0.163,0.824-0.061,1.074-0.455c0.021-0.036,0.038-0.07,0.057-0.104
		c0.58-1.121-0.346-1.863-1.371-2.376c-0.307-0.157-0.619-0.3-0.913-0.439c0.028,0.183,0.058,0.367,0.082,0.554
		c0.163-0.055,0.317-0.052,0.438,0.054l0.006,0.042c-0.133,0.079-0.271,0.153-0.406,0.232c0.029,0.266,0.055,0.535,0.072,0.806
		c0.049,0.048,0.084,0.107,0.088,0.179c0.004,0.069-0.023,0.133-0.067,0.185c0.014,0.288,0.021,0.578,0.021,0.87
		c0,0.339-0.012,0.673-0.029,1.006c0.646,0.387,1.455,0.691,1.898,1.129L26.094,18.182z M22.851,15.987
		c0-6.055-3.076-10.98-6.858-10.98c-3.783,0-6.86,4.926-6.86,10.98c0,6.055,3.077,10.979,6.86,10.979S22.851,22.043,22.851,15.987z
		 M24.53,19.062c0.188,0.028,0.37-0.105,0.396-0.303c0.022-0.195-0.115-0.371-0.306-0.393c-0.192-0.021-0.364,0.114-0.386,0.303
		C24.208,18.857,24.338,19.034,24.53,19.062z M26.217,17.241c0.094-0.016,0.137-0.067,0.221-0.099
		c0.029-0.092,0.039-0.258,0.02-0.352c-0.472,0.199-0.897,0.376-1.426,0.331l-0.045-0.002c0.288,0.236,0.728,0.202,1.04,0.41
		c0.216,0.146,0.399,0.408,0.503,0.687c0.056,0.154,0.08,0.312,0.072,0.453c0.318,0.028,0.431-0.158,0.408-0.406
		C26.969,17.849,26.567,17.291,26.217,17.241z M23.814,23.198c0.068-0.187-0.021-0.39-0.203-0.454s-0.383,0.023-0.446,0.2
		c-0.066,0.176,0.016,0.375,0.194,0.45C23.535,23.469,23.743,23.382,23.814,23.198z M25.424,22.008
		c0.098,0.008,0.149-0.034,0.239-0.046c0.05-0.083,0.097-0.244,0.095-0.341c-0.498,0.093-0.959,0.17-1.461,0.007l-0.045-0.012
		c0.227,0.295,0.66,0.358,0.918,0.635c0.184,0.193,0.295,0.493,0.33,0.791c0.021,0.165,0.006,0.326-0.035,0.464
		c0.301,0.103,0.459-0.056,0.492-0.308C26.021,22.777,25.751,22.135,25.424,22.008z M21.521,27.155
		c0.128-0.154,0.105-0.375-0.045-0.494s-0.368-0.101-0.484,0.042c-0.117,0.143-0.106,0.354,0.037,0.483
		C21.167,27.316,21.396,27.308,21.521,27.155z M23.87,26.204c-0.515-0.046-0.974-0.099-1.408-0.397l-0.039-0.024
		c0.135,0.35,0.528,0.533,0.691,0.875c0.112,0.238,0.139,0.57,0.065,0.87c-0.039,0.167-0.1,0.325-0.189,0.447
		c0.256,0.193,0.46,0.082,0.578-0.157c0.211-0.396,0.141-1.111-0.133-1.323c0.092,0.033,0.152,0.007,0.242,0.021
		C23.749,26.444,23.842,26.3,23.87,26.204z M17.789,29.763c0.189-0.062,0.287-0.267,0.22-0.444c-0.07-0.182-0.258-0.273-0.425-0.223
		c-0.168,0.046-0.269,0.236-0.225,0.424C17.403,29.708,17.597,29.815,17.789,29.763z M17.119,28.746
		c-0.041-0.167-0.171-0.283-0.292-0.26c-0.12,0.028-0.201,0.174-0.18,0.344c0.021,0.169,0.154,0.298,0.293,0.267
		C17.08,29.067,17.16,28.912,17.119,28.746z M16.155,28.894c0.1-0.004,0.173-0.104,0.165-0.222
		c-0.009-0.117-0.089-0.212-0.179-0.208c-0.065,0.003-0.12,0.057-0.147,0.129c-0.011,0.027-0.018,0.059-0.018,0.093
		c0,0.032,0.007,0.063,0.018,0.095C16.021,28.85,16.083,28.896,16.155,28.894z M19.276,29.048l-0.024-0.04
		c-0.038,0.375,0.231,0.722,0.207,1.103c-0.018,0.268-0.171,0.583-0.407,0.815c-0.127,0.136-0.281,0.239-0.436,0.303
		c0.112,0.295,0.377,0.308,0.625,0.143c0.104-0.065,0.206-0.157,0.297-0.262c0.087-0.108,0.163-0.23,0.221-0.354
		c0.116-0.242,0.148-0.495,0.076-0.654c0.067,0.069,0.139,0.071,0.215,0.123c0.102-0.035,0.264-0.125,0.332-0.208
		C19.924,29.765,19.528,29.51,19.276,29.048z M13.126,28.932c-0.093,0.168-0.026,0.38,0.152,0.474c0.184,0.079,0.391,0,0.463-0.179
		c0.072-0.18,0-0.381-0.162-0.452C13.424,28.692,13.221,28.763,13.126,28.932z M13.043,27.938c-0.097,0.146-0.073,0.32,0.052,0.396
		c0.123,0.078,0.292,0.015,0.375-0.14c0.081-0.147,0.057-0.321-0.054-0.392C13.306,27.736,13.138,27.799,13.043,27.938z
		 M14.858,29.883l0.009-0.045c-0.278,0.248-0.313,0.693-0.59,0.956c-0.194,0.181-0.532,0.312-0.864,0.317
		c-0.186,0.01-0.372-0.012-0.524-0.073c-0.118,0.298,0.064,0.478,0.362,0.528c0.241,0.054,0.557,0.006,0.812-0.096
		c0.254-0.096,0.457-0.271,0.509-0.434c0.004,0.098,0.057,0.146,0.082,0.236c0.101,0.049,0.292,0.079,0.404,0.063
		C14.863,30.856,14.738,30.395,14.858,29.883z M10.352,26.457c0.153-0.117,0.188-0.332,0.077-0.479
		c-0.104-0.152-0.318-0.19-0.479-0.084c-0.161,0.105-0.201,0.324-0.089,0.488C9.979,26.541,10.199,26.575,10.352,26.457z
		 M10.974,27.592c-0.369,0.046-0.644,0.386-1.017,0.46c-0.264,0.054-0.59-0.013-0.866-0.154c-0.156-0.077-0.288-0.182-0.384-0.296
		c-0.248,0.197-0.2,0.425,0.008,0.601c0.333,0.302,1.058,0.424,1.328,0.207c-0.054,0.081-0.041,0.146-0.074,0.231
		c0.053,0.087,0.179,0.215,0.267,0.268c0.155-0.497,0.31-0.932,0.705-1.284L10.974,27.592z M7.845,22.275
		c0.063,0.188,0.26,0.287,0.442,0.225s0.281-0.26,0.222-0.438c-0.062-0.179-0.253-0.279-0.437-0.227
		C7.887,21.891,7.782,22.089,7.845,22.275z M7.344,24.735c0.327-0.395,0.625-0.742,1.118-0.938l0.042-0.018
		c-0.36-0.086-0.737,0.14-1.11,0.089c-0.263-0.035-0.548-0.194-0.757-0.406c-0.117-0.116-0.216-0.249-0.268-0.382
		c-0.301,0.111-0.318,0.332-0.186,0.549c0.21,0.369,0.837,0.698,1.166,0.591c-0.079,0.057-0.094,0.123-0.154,0.188
		C7.213,24.505,7.281,24.66,7.344,24.735z M6.958,17.789c0.017,0.196,0.184,0.34,0.377,0.319c0.19-0.021,0.334-0.188,0.318-0.377
		c-0.016-0.188-0.184-0.333-0.376-0.319C7.085,17.423,6.943,17.592,6.958,17.789z M5.817,19.69c-0.008,0.096,0.02,0.26,0.062,0.347
		c0.415-0.294,0.792-0.559,1.319-0.625l0.045-0.007c-0.329-0.172-0.749-0.046-1.099-0.184c-0.246-0.098-0.485-0.314-0.637-0.565
		c-0.085-0.14-0.15-0.287-0.171-0.428c-0.32,0.04-0.383,0.245-0.309,0.482c0.116,0.398,0.643,0.858,0.988,0.836
		C5.924,19.583,5.894,19.643,5.817,19.69z M7.456,12.915c-0.19-0.029-0.37,0.106-0.396,0.301c-0.023,0.196,0.114,0.372,0.305,0.394
		c0.191,0.021,0.364-0.115,0.386-0.303C7.777,13.118,7.647,12.942,7.456,12.915z M5.77,14.735c-0.096,0.015-0.137,0.067-0.222,0.098
		c-0.028,0.091-0.039,0.257-0.018,0.351c0.472-0.198,0.898-0.376,1.425-0.331L7,14.855c-0.288-0.237-0.727-0.202-1.039-0.41
		c-0.216-0.146-0.401-0.409-0.504-0.688c-0.056-0.153-0.08-0.311-0.074-0.452c-0.318-0.028-0.429,0.157-0.407,0.405
		C5.016,14.127,5.42,14.686,5.77,14.735z M8.172,8.778C8.103,8.963,8.194,9.167,8.375,9.231c0.181,0.064,0.381-0.025,0.446-0.201
		c0.068-0.176-0.014-0.375-0.192-0.449C8.451,8.507,8.242,8.594,8.172,8.778z M6.562,9.968c-0.097-0.007-0.149,0.035-0.239,0.047
		c-0.051,0.083-0.097,0.243-0.094,0.341c0.498-0.092,0.959-0.169,1.461-0.007l0.044,0.012c-0.226-0.295-0.66-0.359-0.918-0.635
		c-0.183-0.193-0.296-0.493-0.33-0.79C6.465,8.77,6.479,8.608,6.521,8.471C6.22,8.368,6.062,8.526,6.029,8.778
		C5.963,9.198,6.234,9.84,6.562,9.968z M10.464,4.82c-0.126,0.154-0.106,0.375,0.046,0.494c0.151,0.119,0.37,0.101,0.486-0.042
		c0.116-0.143,0.106-0.353-0.037-0.485C10.819,4.659,10.59,4.667,10.464,4.82z M8.117,5.771C8.63,5.818,9.088,5.871,9.524,6.169
		l0.039,0.024C9.428,5.846,9.034,5.662,8.87,5.319C8.757,5.081,8.733,4.749,8.805,4.45c0.038-0.167,0.099-0.326,0.19-0.447
		C8.74,3.809,8.535,3.919,8.417,4.16C8.207,4.555,8.277,5.271,8.551,5.482C8.459,5.45,8.397,5.477,8.308,5.462
		C8.238,5.532,8.145,5.677,8.117,5.771z M14.197,2.213c-0.191,0.06-0.287,0.266-0.219,0.444c0.069,0.182,0.258,0.275,0.425,0.222
		c0.168-0.045,0.269-0.235,0.225-0.424C14.583,2.269,14.39,2.16,14.197,2.213z M14.867,3.23c0.041,0.166,0.171,0.283,0.292,0.259
		c0.12-0.028,0.201-0.173,0.179-0.343c-0.021-0.169-0.154-0.298-0.292-0.267C14.906,2.909,14.826,3.064,14.867,3.23z M15.832,3.083
		c-0.1,0.004-0.173,0.103-0.165,0.221c0.009,0.118,0.089,0.212,0.179,0.207c0.065-0.002,0.12-0.055,0.147-0.128
		c0.011-0.027,0.017-0.058,0.017-0.092s-0.006-0.064-0.017-0.094C15.965,3.126,15.904,3.08,15.832,3.083z M12.71,2.929l0.024,0.038
		c0.038-0.375-0.231-0.72-0.207-1.101C12.546,1.6,12.7,1.284,12.937,1.05c0.126-0.136,0.28-0.238,0.435-0.303
		c-0.114-0.295-0.379-0.307-0.626-0.142c-0.104,0.067-0.206,0.158-0.297,0.262c-0.087,0.11-0.163,0.231-0.22,0.354
		c-0.117,0.242-0.149,0.494-0.077,0.654c-0.067-0.07-0.138-0.072-0.215-0.123c-0.1,0.035-0.264,0.125-0.332,0.208
		C12.061,2.21,12.458,2.466,12.71,2.929z M18.859,3.044c0.093-0.168,0.025-0.381-0.152-0.473c-0.186-0.081-0.391-0.001-0.463,0.177
		c-0.071,0.18,0,0.382,0.161,0.452C18.562,3.283,18.765,3.213,18.859,3.044z M18.943,4.038c0.096-0.145,0.07-0.32-0.053-0.396
		c-0.123-0.078-0.293-0.015-0.375,0.139c-0.082,0.148-0.057,0.322,0.055,0.392C18.679,4.24,18.847,4.177,18.943,4.038z
		 M17.128,2.093l-0.009,0.044c0.278-0.248,0.313-0.693,0.59-0.956c0.195-0.18,0.532-0.312,0.865-0.318
		c0.187-0.008,0.372,0.013,0.523,0.074c0.117-0.297-0.063-0.478-0.361-0.529c-0.241-0.052-0.559-0.005-0.812,0.096
		c-0.253,0.096-0.457,0.271-0.51,0.433c-0.002-0.098-0.056-0.148-0.08-0.238c-0.101-0.047-0.292-0.079-0.403-0.062
		C17.123,1.119,17.248,1.582,17.128,2.093z M21.633,5.52c-0.151,0.117-0.188,0.332-0.076,0.479c0.104,0.153,0.318,0.192,0.479,0.085
		c0.161-0.105,0.201-0.326,0.089-0.488C22.006,5.436,21.787,5.401,21.633,5.52z M21.012,4.384C21.381,4.339,21.657,4,22.03,3.924
		c0.264-0.053,0.59,0.014,0.864,0.155c0.156,0.077,0.289,0.181,0.387,0.296c0.248-0.197,0.199-0.424-0.01-0.599
		c-0.332-0.302-1.057-0.424-1.326-0.207C22,3.487,21.986,3.42,22.017,3.335c-0.053-0.086-0.18-0.214-0.269-0.266
		C21.596,3.565,21.441,4,21.045,4.353L21.012,4.384z M24.14,9.7c-0.062-0.188-0.26-0.288-0.44-0.224
		c-0.183,0.063-0.282,0.261-0.224,0.438c0.062,0.178,0.252,0.28,0.438,0.226C24.099,10.084,24.205,9.887,24.14,9.7z M24.642,7.24
		c-0.326,0.395-0.625,0.744-1.117,0.938l-0.042,0.018c0.358,0.086,0.735-0.14,1.108-0.089c0.264,0.035,0.549,0.193,0.758,0.406
		c0.117,0.116,0.217,0.249,0.269,0.382c0.301-0.112,0.317-0.331,0.186-0.549c-0.209-0.369-0.836-0.698-1.166-0.591
		c0.078-0.056,0.095-0.123,0.154-0.188C24.774,7.472,24.706,7.315,24.642,7.24z M25.027,14.188c-0.018-0.197-0.186-0.34-0.376-0.32
		c-0.19,0.021-0.334,0.189-0.318,0.378s0.184,0.332,0.376,0.32C24.9,14.552,25.042,14.383,25.027,14.188z M26.17,12.286
		c0.008-0.096-0.021-0.26-0.062-0.347c-0.414,0.295-0.792,0.559-1.319,0.626l-0.045,0.007c0.329,0.172,0.749,0.045,1.099,0.183
		c0.246,0.098,0.484,0.315,0.637,0.566c0.084,0.139,0.15,0.287,0.172,0.427c0.318-0.039,0.383-0.244,0.309-0.481
		c-0.116-0.398-0.643-0.859-0.987-0.836C26.06,12.394,26.092,12.333,26.17,12.286z"/>
</g>
<g>
</g>
<g>
</g>
<g>
</g>
<g>
</g>
<g>
</g>
<g>
</g>
<g>
</g>
<g>
</g>
<g>
</g>
<g>
</g>
<g>
</g>
<g>
</g>
<g>
</g>
<g>
</g>
<g>
</g>
</svg>
