<?xml version="1.0" encoding="iso-8859-1"?>
<!-- Generator: Adobe Illustrator 16.0.0, SVG Export Plug-In . SVG Version: 6.00 Build 0)  -->
<!DOCTYPE svg PUBLIC "-//W3C//DTD SVG 1.1//EN" "http://www.w3.org/Graphics/SVG/1.1/DTD/svg11.dtd">
<svg version="1.1" id="Capa_1" xmlns="http://www.w3.org/2000/svg" xmlns:xlink="http://www.w3.org/1999/xlink" x="0px" y="0px"
	 width="392.888px" height="392.888px" viewBox="0 0 392.888 392.888" style="enable-background:new 0 0 392.888 392.888;"
	 xml:space="preserve">
<g>
	<path d="M281.908,185.257c-6.539-33.221-63.5-52.88-76.718-27.984c-13.212-24.896-70.167-5.237-76.707,27.984
		c-8.565,34.716-53.832,44.269-78.978,26.168c0,39.223,42.265,39.737,68.416,42.259c61.941-2.721,81.518-31.259,87.28-44.326
		c5.78,13.067,25.352,41.605,87.286,44.326c26.157-2.522,68.429-3.036,68.429-42.259
		C335.729,229.526,290.468,219.974,281.908,185.257z"/>
	<path d="M196.449,392.888C88.127,392.888,0,304.772,0,196.461C0,88.127,88.127,0,196.449,0
		c108.323,0,196.438,88.127,196.438,196.461C392.888,304.772,304.772,392.888,196.449,392.888z M196.449,11.958
		c-101.736,0-184.492,82.767-184.492,184.504c0,101.725,82.756,184.492,184.492,184.492c101.737,0,184.481-82.768,184.481-184.492
		C380.931,94.725,298.187,11.958,196.449,11.958z"/>
</g>
<g>
</g>
<g>
</g>
<g>
</g>
<g>
</g>
<g>
</g>
<g>
</g>
<g>
</g>
<g>
</g>
<g>
</g>
<g>
</g>
<g>
</g>
<g>
</g>
<g>
</g>
<g>
</g>
<g>
</g>
</svg>
