<?xml version="1.0" encoding="iso-8859-1"?>
<!-- Generator: Adobe Illustrator 16.0.0, SVG Export Plug-In . SVG Version: 6.00 Build 0)  -->
<!DOCTYPE svg PUBLIC "-//W3C//DTD SVG 1.1//EN" "http://www.w3.org/Graphics/SVG/1.1/DTD/svg11.dtd">
<svg version="1.1" id="Capa_1" xmlns="http://www.w3.org/2000/svg" xmlns:xlink="http://www.w3.org/1999/xlink" x="0px" y="0px"
	 width="585.163px" height="585.163px" viewBox="0 0 585.163 585.163" style="enable-background:new 0 0 585.163 585.163;"
	 xml:space="preserve">
<g>
	<path d="M0,0v585.163h585.163V0H0z M432.907,380.102c-94.717-4.161-124.646-47.823-133.486-67.788
		c-8.795,19.965-38.751,63.627-133.469,67.788c-39.992-3.856-104.637-4.644-104.637-64.646
		c38.457,27.697,107.709,13.09,120.781-40.01c10-50.796,97.102-80.86,117.308-42.787c20.215-38.073,107.324-8.009,117.325,42.787
		c13.09,53.082,82.306,67.707,120.79,40.01C537.553,375.458,472.909,376.246,432.907,380.102z"/>
</g>
<g>
</g>
<g>
</g>
<g>
</g>
<g>
</g>
<g>
</g>
<g>
</g>
<g>
</g>
<g>
</g>
<g>
</g>
<g>
</g>
<g>
</g>
<g>
</g>
<g>
</g>
<g>
</g>
<g>
</g>
</svg>
