<?xml version="1.0" encoding="iso-8859-1"?>
<!-- Generator: Adobe Illustrator 16.0.0, SVG Export Plug-In . SVG Version: 6.00 Build 0)  -->
<!DOCTYPE svg PUBLIC "-//W3C//DTD SVG 1.1//EN" "http://www.w3.org/Graphics/SVG/1.1/DTD/svg11.dtd">
<svg version="1.1" id="Capa_1" xmlns="http://www.w3.org/2000/svg" xmlns:xlink="http://www.w3.org/1999/xlink" x="0px" y="0px"
	 width="32.44px" height="32.44px" viewBox="0 0 32.44 32.44" style="enable-background:new 0 0 32.44 32.44;" xml:space="preserve"
	>
<g>
	<path d="M30.758,8.605l0.468,1.221l-0.349,0.138L30.4,8.715c-0.076,0.024-0.152,0.048-0.232,0.073l0.66,1.619l-0.349,0.138
		l-0.669-1.64c-0.062,0.021-0.131,0.045-0.196,0.067l0.792,2.053l-0.35,0.138l-0.798-2.07c-0.089,0.031-0.18,0.062-0.271,0.095
		l0.815,2.061l-0.349,0.138L28.63,9.313c-0.092,0.033-0.183,0.065-0.276,0.099l0.831,2.101l-0.349,0.138L28,9.539
		c-0.083,0.03-0.165,0.06-0.248,0.09l0.844,2.132l-0.349,0.138l-0.847-2.141c-0.092,0.033-0.185,0.067-0.276,0.102l0.857,2.164
		l-0.35,0.138L26.774,9.99c-0.095,0.035-0.189,0.071-0.284,0.106l0.854,2.157l-0.349,0.138l-0.856-2.163
		c-0.091,0.034-0.183,0.069-0.274,0.104l0.865,2.184l-0.35,0.138l-0.866-2.189c-0.083,0.031-0.165,0.063-0.247,0.094l0.874,2.206
		l-0.349,0.138l-0.875-2.21c-0.091,0.035-0.183,0.07-0.274,0.104l0.884,2.23l-0.35,0.138l-0.886-2.235
		c-0.067,0.026-0.134,0.051-0.2,0.077l0.897,2.267l-0.35,0.138l-0.897-2.27c-0.092,0.035-0.185,0.071-0.274,0.106l0.906,2.288
		l-0.349,0.138l-0.906-2.291c-0.083,0.032-0.166,0.064-0.246,0.096l0.913,2.305l-0.35,0.138l-0.912-2.307
		c-0.094,0.036-0.185,0.072-0.273,0.107l0.92,2.324l-0.349,0.138l-0.92-2.325c-0.098,0.038-0.189,0.075-0.282,0.111l0.913,2.305
		l-0.35,0.138l-0.911-2.305c-0.095,0.038-0.187,0.073-0.273,0.108l0.919,2.322l-0.349,0.138l-0.918-2.321
		c-0.085,0.034-0.169,0.067-0.246,0.098l0.924,2.334l-0.349,0.138l-0.924-2.333c-0.109,0.044-0.207,0.083-0.271,0.109l0.93,2.349
		l-0.349,0.138l-0.933-2.356l-0.627,0.222l0.155-0.546l-2.534-1.052l0.145-0.346l2.507,1.041c0.026-0.08,0.057-0.175,0.092-0.28
		l-2.503-1.039l0.144-0.347l2.477,1.027c0.026-0.08,0.053-0.163,0.082-0.251l-2.47-1.025l0.145-0.346l2.442,1.013
		c0.028-0.091,0.059-0.183,0.09-0.28l-2.437-1.012l0.145-0.347l2.408,1c0.029-0.094,0.061-0.19,0.092-0.288L17.42,8.995l0.144-0.347
		l2.335,0.969c0.028-0.091,0.06-0.186,0.09-0.28L17.66,8.37l0.143-0.346l2.3,0.954c0.026-0.083,0.054-0.167,0.08-0.252L17.89,7.775
		l0.145-0.347l2.262,0.939c0.03-0.094,0.06-0.186,0.089-0.281L18.131,7.15l0.145-0.346l2.223,0.922
		c0.021-0.068,0.043-0.136,0.064-0.205l-2.236-0.929l0.143-0.347l2.205,0.916c0.029-0.094,0.06-0.188,0.088-0.282l-2.195-0.912
		l0.143-0.346l2.164,0.898c0.026-0.084,0.052-0.168,0.078-0.253l-2.153-0.894l0.145-0.347l2.12,0.88
		c0.028-0.094,0.058-0.188,0.086-0.282l-2.11-0.876L19.181,4.4l2.076,0.862c0.03-0.098,0.06-0.195,0.088-0.292L19.32,4.128
		l0.143-0.346l1.99,0.827c0.029-0.096,0.056-0.189,0.084-0.284l-1.979-0.821l0.145-0.347l1.94,0.806
		c0.025-0.086,0.05-0.17,0.074-0.254l-1.926-0.8l0.143-0.346l1.888,0.783c0.026-0.096,0.055-0.192,0.081-0.285l-1.872-0.778
		l0.14-0.343L22,2.699c0.017-0.063,0.035-0.126,0.051-0.187l-1.826-0.758l0.144-0.347l1.781,0.739
		c0.024-0.095,0.049-0.186,0.071-0.276l-1.45-0.586l0.143-0.347l1.401,0.566c0.021-0.091,0.045-0.183,0.063-0.267l-1.042-0.43
		l0.145-0.346l0.98,0.405C22.566,0.363,22.598,0.045,22.53,0c-6.458,0.141-7.125,14.025-7.125,14.025l-0.042,0.249L8.797,16.6
		c-0.14-0.194-0.298-0.377-0.481-0.542C6.65,14.561,3.816,14.989,2,17.012c-1.817,2.023-1.941,4.887-0.275,6.383
		s4.5,1.068,6.317-0.955c1.063-1.184,1.542-2.653,1.427-3.971l5.405-1.257l-1.028,6.16c-1.134,0.179-2.285,0.789-3.186,1.791
		c-1.817,2.022-1.94,4.887-0.274,6.384s4.5,1.068,6.317-0.955s1.94-4.886,0.274-6.383c-0.342-0.307-0.734-0.529-1.155-0.677
		l1.994-7.005l0.524-0.122c0,0,13.814-1.547,13.545-8C31.827,8.328,31.405,8.414,30.758,8.605z M7.071,21.568
		c-1.337,1.488-3.345,1.873-4.475,0.856c-1.13-1.016-0.963-3.053,0.374-4.541c1.336-1.487,3.344-1.871,4.475-0.854
		C8.574,18.044,8.407,20.081,7.071,21.568z M16.104,25.182c1.131,1.016,0.963,3.051-0.374,4.539s-3.344,1.872-4.475,0.856
		c-1.131-1.017-0.964-3.054,0.373-4.541C12.966,24.548,14.973,24.165,16.104,25.182z M18.004,15.62
		c-0.339,0.377-0.919,0.408-1.295,0.069c-0.377-0.338-0.408-0.919-0.069-1.296c0.339-0.376,0.918-0.407,1.295-0.069
		C18.312,14.663,18.342,15.243,18.004,15.62z"/>
</g>
<g>
</g>
<g>
</g>
<g>
</g>
<g>
</g>
<g>
</g>
<g>
</g>
<g>
</g>
<g>
</g>
<g>
</g>
<g>
</g>
<g>
</g>
<g>
</g>
<g>
</g>
<g>
</g>
<g>
</g>
</svg>
