<?xml version="1.0" encoding="iso-8859-1"?>
<!-- Generator: Adobe Illustrator 16.0.0, SVG Export Plug-In . SVG Version: 6.00 Build 0)  -->
<!DOCTYPE svg PUBLIC "-//W3C//DTD SVG 1.1//EN" "http://www.w3.org/Graphics/SVG/1.1/DTD/svg11.dtd">
<svg version="1.1" id="Capa_1" xmlns="http://www.w3.org/2000/svg" xmlns:xlink="http://www.w3.org/1999/xlink" x="0px" y="0px"
	 width="380.437px" height="380.437px" viewBox="0 0 380.437 380.437" style="enable-background:new 0 0 380.437 380.437;"
	 xml:space="preserve">
<g>
	<g>
		<path d="M271.743,344.941c4.975-17.328,0.864-35.872-10.463-47.246c-2.335-2.346-4.928-4.32-7.695-5.932
			c-3.258-5.559-19.897-35.696-25.141-77.84C224.287,201.173,234.283,0,234.283,0l-6.866,0.596l-34.909,189.875
			c0,0,36.707,68.201,41.156,96.541c-6.878,0.373-13.721,2.697-20.015,6.924c-9.64,6.458-16.838,16.582-20.266,28.527
			c-4.975,17.329-0.876,35.873,10.451,47.246c4.478,4.496,9.756,7.648,15.711,9.354
			C241.148,385.251,264.562,369.954,271.743,344.941z M205.65,187.709c-2.773-2.791-2.762-7.31,0.023-10.095
			c2.779-2.785,7.31-2.773,10.112,0.011c2.779,2.785,2.756,7.316-0.035,10.107C212.96,190.518,208.43,190.506,205.65,187.709z
			 M222.793,367.759c-4.018-1.156-7.602-3.27-10.638-6.353c-8.361-8.385-11.297-22.42-7.473-35.732
			c2.674-9.26,8.162-17.071,15.495-21.976c7.018-4.718,14.9-6.153,22.163-4.063c3.994,1.156,7.59,3.281,10.639,6.34
			c8.349,8.396,11.291,22.42,7.473,35.732C255.045,360.473,238.16,372.172,222.793,367.759z"/>
		<path d="M365.592,93.195l-3.234-6.183l-96.616,46.971c0,0-13.125,6.154-30.431,14.135c-0.304,10.556-0.514,20.417-0.643,29.088
			L365.592,93.195z"/>
		<path d="M182.909,189.607l3.573-19.431c-14.625,6.434-26.916,11.589-32.06,13.119c-13.843,4.122-48.95,5.5-61.281,5.868
			c-0.263-0.286-0.49-0.595-0.765-0.87c-15.852-15.928-43.76-13.955-62.204,4.402c-18.438,18.356-20.54,46.242-4.683,62.169
			c15.852,15.951,43.76,13.966,62.187-4.391c13.528-13.452,18.24-32.042,13.528-47.292l84.834-7.614
			C184.101,191.82,182.909,189.607,182.909,189.607z M79.403,242.137c-13.843,13.779-34.295,15.787-45.581,4.449
			c-11.286-11.339-9.208-31.785,4.653-45.553c13.843-13.791,34.29-15.788,45.581-4.438
			C95.343,207.922,93.265,228.357,79.403,242.137z"/>
	</g>
</g>
<g>
</g>
<g>
</g>
<g>
</g>
<g>
</g>
<g>
</g>
<g>
</g>
<g>
</g>
<g>
</g>
<g>
</g>
<g>
</g>
<g>
</g>
<g>
</g>
<g>
</g>
<g>
</g>
<g>
</g>
</svg>
