<?xml version="1.0" encoding="iso-8859-1"?>
<!-- Generator: Adobe Illustrator 16.0.0, SVG Export Plug-In . SVG Version: 6.00 Build 0)  -->
<!DOCTYPE svg PUBLIC "-//W3C//DTD SVG 1.1//EN" "http://www.w3.org/Graphics/SVG/1.1/DTD/svg11.dtd">
<svg version="1.1" id="Capa_1" xmlns="http://www.w3.org/2000/svg" xmlns:xlink="http://www.w3.org/1999/xlink" x="0px" y="0px"
	 width="30.625px" height="30.624px" viewBox="0 0 30.625 30.624" style="enable-background:new 0 0 30.625 30.624;"
	 xml:space="preserve">
<g>
	<g>
		<path d="M23.188,7.311l-6.177-5.448c0.033-0.124,0.057-0.251,0.057-0.385C17.069,0.662,16.408,0,15.59,0
			c-0.816,0-1.478,0.662-1.478,1.478c0,0.201,0.041,0.393,0.114,0.568l-6.22,5.265H0.187v23.313h30.25V7.311H23.188z M14.686,2.64
			c0.25,0.195,0.562,0.316,0.904,0.316c0.406,0,0.774-0.164,1.041-0.429l5.424,4.784H9.166L14.686,2.64z M29.437,29.624H1.187V8.311
			h28.25V29.624z"/>
		<path d="M4.222,26.455c0.262,0.273,0.577,0.486,0.946,0.641s0.776,0.231,1.222,0.231c0.446,0,0.854-0.077,1.223-0.231
			c0.369-0.154,0.685-0.367,0.946-0.641c0.262-0.271,0.464-0.598,0.607-0.975s0.215-0.791,0.215-1.244
			c0-0.45-0.072-0.865-0.215-1.242c-0.144-0.377-0.346-0.702-0.607-0.975c-0.261-0.272-0.577-0.486-0.946-0.642
			c-0.369-0.155-0.776-0.231-1.223-0.231c-0.446,0-0.854,0.078-1.222,0.231c-0.369,0.154-0.685,0.368-0.946,0.642
			c-0.261,0.271-0.464,0.598-0.607,0.975C3.471,23.371,3.4,23.786,3.4,24.236c0,0.453,0.071,0.867,0.215,1.244
			C3.758,25.857,3.961,26.182,4.222,26.455z M5.337,23.427c0.08-0.209,0.178-0.372,0.293-0.491c0.115-0.117,0.242-0.201,0.38-0.248
			c0.138-0.047,0.265-0.069,0.38-0.069c0.116,0,0.243,0.022,0.38,0.069s0.264,0.131,0.38,0.248c0.116,0.119,0.213,0.282,0.293,0.491
			c0.08,0.21,0.12,0.479,0.12,0.81c0,0.332-0.04,0.602-0.12,0.811S7.266,25.42,7.15,25.538c-0.116,0.119-0.243,0.201-0.38,0.248
			c-0.138,0.047-0.265,0.069-0.38,0.069c-0.115,0-0.242-0.022-0.38-0.069c-0.138-0.047-0.264-0.129-0.38-0.248
			c-0.116-0.118-0.213-0.282-0.293-0.491s-0.12-0.479-0.12-0.811C5.217,23.906,5.258,23.637,5.337,23.427z"/>
		<path d="M14.875,21.982c-0.17-0.198-0.394-0.363-0.669-0.496s-0.614-0.198-1.016-0.198h-3.04v5.897h1.817v-1.783h1.074
			c0.335,0,0.646-0.043,0.929-0.129c0.284-0.086,0.529-0.215,0.735-0.389c0.207-0.173,0.366-0.391,0.479-0.652
			c0.113-0.26,0.169-0.57,0.169-0.93c0-0.209-0.037-0.432-0.112-0.669C15.168,22.398,15.045,22.18,14.875,21.982z M13.549,23.72
			c-0.058,0.087-0.132,0.149-0.223,0.19c-0.091,0.041-0.194,0.066-0.31,0.074c-0.116,0.009-0.231,0.013-0.347,0.013h-0.702v-1.198
			h0.81c0.11,0,0.218,0.004,0.322,0.014c0.104,0.008,0.197,0.03,0.277,0.069c0.08,0.038,0.143,0.097,0.19,0.173
			c0.047,0.078,0.07,0.184,0.07,0.314C13.636,23.518,13.607,23.635,13.549,23.72z"/>
		<polygon points="17.783,24.939 20.566,24.939 20.566,23.535 17.783,23.535 17.783,22.799 20.847,22.799 20.847,21.288 
			15.965,21.288 15.965,27.186 20.938,27.186 20.938,25.674 17.783,25.674 		"/>
		<polygon points="21.789,27.186 23.507,27.186 23.507,23.964 23.523,23.964 25.333,27.186 27.101,27.186 27.101,21.288 
			25.382,21.288 25.382,24.443 25.367,24.443 23.647,21.288 21.789,21.288 		"/>
		<path d="M22.224,17.396c0,0-2.658-1.379-4.637-2.393c-0.446,0.223-0.852,0.423-1.172,0.579l6.047,2.084L22.224,17.396z"/>
		<path d="M10.841,12.981c0.003,0,0.006,0,0.009,0.001c-0.008,0.002-0.011,0.003-0.011,0.003l4.804,1.651l0.001,0.003l0.25-0.494
			c-0.221-0.111-0.366-0.18-0.402-0.193c-1.652-0.853-2.344-2.65-2.393-2.779c-0.138-0.604-0.632-1.123-1.298-1.328
			c-0.462-0.141-0.948-0.115-1.366,0.072c-0.43,0.192-0.738,0.533-0.869,0.959c-0.042,0.137-0.063,0.278-0.064,0.422
			C9.495,12.045,10.046,12.737,10.841,12.981z M10.074,11.03c0.084-0.276,0.29-0.499,0.579-0.628
			c0.301-0.136,0.653-0.152,0.993-0.049c0.572,0.175,0.968,0.655,0.964,1.17c0,0.092-0.015,0.183-0.042,0.271
			c-0.084,0.276-0.291,0.499-0.579,0.63c-0.3,0.135-0.653,0.152-0.993,0.048c-0.571-0.175-0.968-0.657-0.965-1.17
			C10.033,11.21,10.046,11.119,10.074,11.03z"/>
		<path d="M10.32,19.684c0.413,0.2,0.896,0.238,1.363,0.11c0.69-0.19,1.205-0.715,1.346-1.333c0.081-0.193,0.821-1.881,2.458-2.67
			c0.278-0.089,6.796-3.382,6.796-3.382l0.223-0.261l-6.416,2.104l-0.433,0.857l-4.751,1.5c-0.032,0.008-0.064,0.015-0.096,0.021
			c-0.81,0.225-1.38,0.907-1.386,1.662c-0.001,0.139,0.017,0.273,0.053,0.406C9.596,19.13,9.895,19.479,10.32,19.684z
			 M16.457,14.467c0.154,0.001,0.278,0.128,0.276,0.282c-0.001,0.155-0.127,0.28-0.28,0.277c-0.156-0.001-0.28-0.128-0.279-0.282
			C16.175,14.59,16.3,14.466,16.457,14.467z M10.952,17.146c0.343-0.096,0.694-0.067,0.992,0.074
			c0.285,0.139,0.483,0.367,0.561,0.646c0.023,0.084,0.036,0.173,0.034,0.26c-0.003,0.52-0.414,0.994-0.997,1.155
			c-0.342,0.094-0.694,0.067-0.991-0.076c-0.285-0.138-0.485-0.366-0.561-0.646c-0.023-0.086-0.035-0.174-0.035-0.261
			C9.959,17.782,10.369,17.307,10.952,17.146z"/>
	</g>
</g>
<g>
</g>
<g>
</g>
<g>
</g>
<g>
</g>
<g>
</g>
<g>
</g>
<g>
</g>
<g>
</g>
<g>
</g>
<g>
</g>
<g>
</g>
<g>
</g>
<g>
</g>
<g>
</g>
<g>
</g>
</svg>
