<?xml version="1.0" encoding="iso-8859-1"?>
<!-- Generator: Adobe Illustrator 16.0.0, SVG Export Plug-In . SVG Version: 6.00 Build 0)  -->
<!DOCTYPE svg PUBLIC "-//W3C//DTD SVG 1.1//EN" "http://www.w3.org/Graphics/SVG/1.1/DTD/svg11.dtd">
<svg version="1.1" id="Capa_1" xmlns="http://www.w3.org/2000/svg" xmlns:xlink="http://www.w3.org/1999/xlink" x="0px" y="0px"
	 width="31.117px" height="31.117px" viewBox="0 0 31.117 31.117" style="enable-background:new 0 0 31.117 31.117;"
	 xml:space="preserve">
<g>
	<path d="M15.558,0C9.851,0,5.209,6.979,5.209,15.558c0,8.579,4.642,15.559,10.349,15.559c5.706,0,10.35-6.979,10.35-15.559
		C25.908,6.978,21.264,0,15.558,0z M15.558,29.439c-4.782,0-8.673-6.228-8.673-13.881c0-7.654,3.891-13.882,8.673-13.882
		c4.781,0,8.672,6.228,8.672,13.882C24.23,23.212,20.339,29.439,15.558,29.439z M19.414,5.492l0.76,0.353l-9.184,19.78l-0.76-0.354
		L19.414,5.492z M12.535,15.296l-0.76-0.353l4.232-9.112l0.761,0.353L12.535,15.296z M17.439,15.381l0.762,0.353l-4.229,9.114
		l-0.761-0.353L17.439,15.381z"/>
</g>
<g>
</g>
<g>
</g>
<g>
</g>
<g>
</g>
<g>
</g>
<g>
</g>
<g>
</g>
<g>
</g>
<g>
</g>
<g>
</g>
<g>
</g>
<g>
</g>
<g>
</g>
<g>
</g>
<g>
</g>
</svg>
