<?xml version="1.0" encoding="iso-8859-1"?>
<!-- Generator: Adobe Illustrator 16.0.0, SVG Export Plug-In . SVG Version: 6.00 Build 0)  -->
<!DOCTYPE svg PUBLIC "-//W3C//DTD SVG 1.1//EN" "http://www.w3.org/Graphics/SVG/1.1/DTD/svg11.dtd">
<svg version="1.1" id="Capa_1" xmlns="http://www.w3.org/2000/svg" xmlns:xlink="http://www.w3.org/1999/xlink" x="0px" y="0px"
	 width="31.372px" height="31.372px" viewBox="0 0 31.372 31.372" style="enable-background:new 0 0 31.372 31.372;"
	 xml:space="preserve">
<g>
	<path d="M19.373,7.632l0.613,0.284l-7.391,15.949l-0.613-0.283L19.373,7.632z M17.245,8.19l-0.613-0.284l-3.404,7.347l0.613,0.284
		L17.245,8.19z M14.756,23.101l0.614,0.282l3.386-7.356l-0.613-0.283L14.756,23.101z M27.004,21.838
		c0.243,0.396,0.315,0.935,0.022,1.296c-0.434,0.506-0.89,0.359-1.164,0.09c-0.273-0.274-0.374-0.66-0.048-0.744
		c-0.241,0.354,0.501,0.523,0.71,0.201c0.25-0.437-0.303-0.767-0.661-0.807c-0.326-0.038-0.505,0.071-0.649,0.22
		c-0.147,0.148-0.287,0.329-0.486,0.446c-0.077,0.043-0.172,0.075-0.271,0.092c0.287,0.086,0.607,0.051,0.874-0.098
		c0.008,0.278,0.104,0.522,0.247,0.762c-0.28,0.021-0.514,0.1-0.76,0.244c-0.018-0.283-0.186-0.569-0.408-0.751
		c0.037,0.082,0.062,0.166,0.072,0.243c0.043,0.342-0.16,0.614-0.09,0.93c0.024,0.119,0.085,0.244,0.208,0.38
		c0.189,0.21,0.581,0.413,0.844,0.273c0.076-0.04,0.141-0.107,0.185-0.211c0.151-0.354-0.402-0.851-0.575-0.461
		c-0.054-0.154,0.014-0.265,0.146-0.327c0.127-0.066,0.312-0.091,0.5-0.058c0.189,0.03,0.382,0.118,0.507,0.279
		c0.126,0.161,0.193,0.399,0.092,0.712c-0.048,0.167-0.146,0.312-0.271,0.427c-0.27,0.252-0.673,0.363-1.062,0.31
		c-0.38-0.05-0.717-0.242-0.875-0.548c0.091,0.318-0.35,0.396-0.49-0.002c-0.124-0.33,0.277-0.62,0.261-0.909
		c-0.11,0.184-0.121,0.144-0.306,0.11c0.004-0.029,0.014-0.056,0.019-0.084c-0.1,0.142-0.199,0.279-0.304,0.416
		c0.025,0.084,0.056,0.166,0.091,0.233c-0.074-0.021-0.157-0.035-0.243-0.042c-0.083,0.104-0.169,0.206-0.255,0.309
		c0.265,0.047,0.523,0.164,0.681,0.364c0.288,0.127,0.507,0.446,0.575,0.798c0.056,0.338-0.048,0.701-0.332,0.887
		c-0.428,0.287-0.758,0.037-0.895-0.233c-0.136-0.271-0.137-0.605,0.129-0.585c-0.256,0.216,0.259,0.532,0.491,0.34
		c0.307-0.253-0.03-0.646-0.298-0.772l-0.021-0.01l-0.013-0.02c-0.167-0.239-0.61-0.515-0.794-0.222
		c-0.137,0.222,0.202,0.73,0.389,0.457c0.041,0.259-0.271,0.306-0.548,0.146c-0.102-0.057-0.19-0.132-0.258-0.222
		c-0.053,0.048-0.104,0.097-0.156,0.144c0.091,0.071,0.163,0.163,0.214,0.263c0.144,0.271,0.104,0.597-0.152,0.551
		c0.271-0.188-0.226-0.538-0.443-0.398c-0.008,0.005-0.016,0.015-0.023,0.021c-0.239,0.192-0.009,0.599,0.224,0.776l0.02,0.015
		l0.009,0.021c0.107,0.251,0.49,0.611,0.74,0.349c0.008-0.01,0.016-0.018,0.024-0.025c0.191-0.236-0.112-0.762-0.328-0.503
		c-0.017-0.269,0.305-0.273,0.58-0.122c0.275,0.152,0.497,0.468,0.216,0.908c-0.039,0.06-0.088,0.111-0.14,0.154
		c-0.22,0.196-0.583,0.199-0.877,0.111c-0.302-0.093-0.558-0.303-0.662-0.566c-0.214-0.183-0.33-0.494-0.358-0.789
		c-0.089,0.062-0.181,0.127-0.272,0.188c-0.009,0.103-0.048,0.189-0.171,0.248c-0.069,0.027-0.176,0.035-0.291,0.035
		c-0.373,0.215-0.759,0.402-1.154,0.562c0.077,0.005,0.152-0.006,0.229-0.024c0.114-0.028,0.228-0.074,0.349-0.11
		c0.114-0.05,0.236-0.093,0.38-0.103c0.022,0.188,0.062,0.201-0.118,0.307c0.267,0.013,0.589-0.34,0.914-0.188
		c0.394,0.17,0.286,0.599-0.031,0.479c0.366,0.223,0.544,0.695,0.479,1.17c-0.032,0.236-0.121,0.472-0.265,0.664
		c-0.142,0.195-0.355,0.312-0.592,0.359c-0.679,0.123-0.916-0.289-0.938-0.682c-0.02-0.392,0.153-0.757,0.453-0.609
		c-0.41,0.121,0.026,0.728,0.411,0.617c0.123-0.037,0.205-0.103,0.252-0.185c0.045-0.086,0.055-0.188,0.041-0.294
		c-0.025-0.208-0.145-0.425-0.269-0.554c-0.111-0.118-0.219-0.185-0.322-0.219c-0.107-0.041-0.212-0.051-0.317-0.049
		c-0.209,0.008-0.422,0.065-0.643,0.021c-0.082-0.016-0.17-0.053-0.253-0.105c0.152,0.257,0.406,0.438,0.699,0.495
		c-0.173,0.218-0.257,0.481-0.316,0.747c-0.224-0.175-0.455-0.307-0.729-0.356c0.179-0.23,0.253-0.525,0.209-0.812
		c-0.025,0.081-0.063,0.157-0.106,0.216c-0.202,0.256-0.518,0.361-0.688,0.619c-0.065,0.099-0.112,0.224-0.123,0.404
		c-0.016,0.277,0.115,0.703,0.411,0.799c0.086,0.033,0.181,0.025,0.284-0.025c0.362-0.171,0.296-0.918-0.093-0.735
		c0.131-0.311,0.498-0.151,0.74,0.156c0.238,0.309,0.33,0.776-0.266,1.137c-0.157,0.088-0.328,0.149-0.51,0.133
		c-0.393-0.026-0.77-0.245-0.999-0.543c-0.23-0.297-0.317-0.674-0.21-1.006c-0.163,0.311-0.523,0.01-0.331-0.352
		c0.153-0.311,0.618-0.271,0.811-0.451c-0.202,0.036-0.183,0.004-0.286-0.154c0.121-0.092,0.247-0.139,0.373-0.178
		c0.197-0.074,0.394-0.139,0.524-0.289c-0.38,0.109-0.769,0.194-1.163,0.254c-0.108,0.155-0.197,0.334-0.255,0.487
		c-0.07-0.143-0.186-0.295-0.311-0.422c-0.111,0.011-0.223,0.017-0.335,0.021c0.007,0.007,0.015,0.012,0.021,0.021
		c0.198,0.254,0.347,0.611,0.295,0.921c0.101,0.304,0.017,0.675-0.202,0.953c-0.109,0.142-0.25,0.256-0.406,0.33
		c-0.156,0.072-0.328,0.07-0.493,0.021c-0.507-0.164-0.527-0.549-0.407-0.84c0.123-0.291,0.372-0.488,0.527-0.271
		c-0.327-0.067-0.237,0.534,0.064,0.598c0.195,0.049,0.315-0.07,0.371-0.234c0.058-0.16,0.053-0.358,0.014-0.498l-0.006-0.021
		l0.006-0.021c0.034-0.146,0.027-0.344-0.027-0.498c-0.055-0.148-0.155-0.258-0.32-0.246c-0.247,0.029-0.414,0.613-0.09,0.589
		c-0.168,0.198-0.4-0.03-0.457-0.331c-0.03-0.158-0.015-0.338,0.062-0.488c-0.098-0.008-0.192-0.017-0.288-0.026
		c0.047,0.166,0.026,0.344-0.037,0.5c-0.117,0.293-0.39,0.449-0.512,0.217c0.308,0.104,0.266-0.508,0.031-0.598
		c-0.009-0.004-0.018-0.005-0.027-0.008c-0.291-0.076-0.474,0.389-0.465,0.667v0.022l-0.011,0.02
		c-0.133,0.256-0.172,0.745,0.193,0.789c0.012,0.001,0.021,0.003,0.034,0.005c0.307,0.011,0.517-0.554,0.185-0.569
		c0.197-0.176,0.396,0.086,0.459,0.388c0.061,0.299-0.043,0.698-0.567,0.729c-0.072,0.004-0.143-0.002-0.21-0.02
		c-0.292-0.073-0.54-0.288-0.646-0.603c-0.111-0.301-0.101-0.633,0.042-0.877c0.01-0.285,0.186-0.566,0.396-0.767
		c0.031-0.026,0.062-0.053,0.096-0.079c-0.111-0.025-0.221-0.056-0.329-0.087c-0.106,0.093-0.214,0.15-0.368,0.071
		c-0.088-0.035-0.18-0.147-0.269-0.274c-0.359-0.131-0.709-0.28-1.05-0.454c0.036,0.047,0.078,0.09,0.126,0.131
		c0.186,0.142,0.432,0.213,0.612,0.438c-0.134,0.13-0.123,0.169-0.312,0.083c0.146,0.229,0.609,0.295,0.698,0.612
		c0.108,0.402-0.301,0.594-0.405,0.287c0.052,0.403-0.228,0.865-0.639,1.084c-0.402,0.223-0.978,0.266-1.335-0.063
		c-0.495-0.48-0.311-0.922-0.017-1.174c0.298-0.25,0.688-0.324,0.749,0.009c-0.337-0.266-0.561,0.461-0.242,0.698
		c0.438,0.278,0.791-0.259,0.847-0.617c0.052-0.325-0.046-0.508-0.184-0.657c-0.133-0.155-0.301-0.307-0.398-0.514
		c-0.035-0.077-0.059-0.172-0.066-0.271c-0.112,0.277-0.104,0.598,0.024,0.873c-0.277-0.013-0.528,0.064-0.78,0.188
		c-0.004-0.272-0.05-0.522-0.169-0.785c0.144,0.001,0.284-0.022,0.417-0.08c0.134-0.062,0.256-0.146,0.358-0.253
		c-0.084,0.031-0.17,0.053-0.246,0.057c-0.326-0.008-0.588-0.219-0.905-0.183c-0.121,0.013-0.254,0.062-0.403,0.167
		c-0.229,0.165-0.477,0.53-0.361,0.807c0.033,0.08,0.095,0.149,0.194,0.205c0.347,0.188,0.893-0.316,0.521-0.525
		c0.322-0.086,0.406,0.326,0.32,0.688c-0.09,0.363-0.43,0.754-1.051,0.486c-0.164-0.066-0.302-0.181-0.407-0.316
		c-0.238-0.291-0.276-0.738-0.188-1.104c0.09-0.371,0.324-0.682,0.646-0.803c-0.329,0.054-0.356-0.389,0.061-0.482
		c0.347-0.09,0.585,0.34,0.861,0.366c-0.168-0.126-0.118-0.142-0.062-0.321c0.142,0.047,0.271,0.105,0.389,0.174
		c0.117,0.065,0.226,0.142,0.338,0.194C10.338,26.489,10.03,26.253,9.733,26c-0.123,0.02-0.241,0.044-0.342,0.082
		c0.039-0.091,0.062-0.199,0.082-0.31c-0.091-0.082-0.178-0.166-0.266-0.252c-0.085,0.272-0.242,0.537-0.468,0.668
		c-0.168,0.273-0.504,0.443-0.852,0.457c-0.344,0.015-0.7-0.129-0.85-0.432c-0.208-0.478,0.069-0.765,0.358-0.869
		c0.297-0.105,0.594-0.035,0.552,0.215c-0.182-0.28-0.562,0.189-0.398,0.441c0.217,0.332,0.652,0.046,0.812-0.2l0.014-0.02
		l0.02-0.01c0.259-0.137,0.587-0.541,0.316-0.754c-0.207-0.162-0.754,0.107-0.504,0.325c-0.277,0.021-0.248-0.323-0.066-0.571
		c0.055-0.074,0.125-0.142,0.201-0.192c-0.043-0.054-0.084-0.109-0.127-0.163c-0.071,0.06-0.152,0.105-0.236,0.136
		c-0.291,0.109-0.611,0.032-0.537-0.216c0.147,0.269,0.496-0.092,0.46-0.334c-0.048-0.063-0.095-0.129-0.14-0.194
		c-0.196-0.098-0.522,0.061-0.68,0.229l-0.016,0.017L7.045,24.06c-0.27,0.084-0.646,0.407-0.439,0.701
		c0.008,0.01,0.014,0.018,0.021,0.028c0.213,0.216,0.774-0.024,0.539-0.266c0.271,0.015,0.241,0.33,0.059,0.586
		c-0.184,0.252-0.527,0.433-0.933,0.106c-0.055-0.045-0.105-0.094-0.136-0.154c-0.292-0.521,0.071-1.33,0.626-1.479
		c0.166-0.157,0.41-0.242,0.658-0.267c-0.211-0.334-0.408-0.683-0.59-1.041c-0.158,0.009-0.178,0.028-0.268-0.149
		c-0.029,0.271,0.305,0.629,0.129,0.942c-0.207,0.377-0.622,0.229-0.479-0.075c-0.252,0.346-0.742,0.479-1.206,0.384
		C4.795,23.33,4.57,23.229,4.39,23.08c-0.177-0.147-0.283-0.354-0.314-0.583c-0.079-0.654,0.339-0.884,0.728-0.896
		c0.389-0.014,0.746,0.178,0.586,0.471c-0.104-0.416-0.727,0.002-0.638,0.377c0.107,0.496,0.758,0.312,1.023,0.082
		c0.493-0.411,0.211-0.834,0.31-1.286c0.018-0.083,0.058-0.173,0.112-0.257c-0.26,0.148-0.449,0.404-0.52,0.697
		c-0.214-0.186-0.46-0.281-0.736-0.341c0.17-0.216,0.311-0.448,0.362-0.726c0.228,0.18,0.522,0.263,0.81,0.227
		c-0.082-0.029-0.155-0.07-0.215-0.117c-0.262-0.211-0.346-0.541-0.623-0.705c-0.106-0.064-0.24-0.105-0.424-0.107
		c-0.283-0.003-0.699,0.146-0.771,0.43c-0.022,0.082-0.017,0.175,0.03,0.275c0.162,0.349,0.906,0.283,0.732-0.104
		c0.306,0.129,0.143,0.502-0.169,0.735c-0.313,0.232-0.782,0.314-1.122-0.247c-0.09-0.146-0.131-0.312-0.132-0.479
		c-0.016-0.362,0.222-0.739,0.505-0.981c0.291-0.245,0.661-0.363,0.994-0.273c-0.298-0.147-0.065-0.526,0.329-0.363
		c0.333,0.133,0.284,0.629,0.486,0.82c-0.043-0.168-0.023-0.189,0.063-0.25c-0.048-0.188-0.092-0.373-0.133-0.562
		c-0.027-0.011-0.058-0.021-0.084-0.029c0.022-0.013,0.045-0.033,0.065-0.051c-0.028-0.134-0.053-0.271-0.077-0.406
		c-0.182,0.111-0.381,0.182-0.585,0.167c-0.28,0.13-0.681,0.079-0.966-0.104c-0.291-0.18-0.5-0.492-0.451-0.822
		c0.067-0.503,0.459-0.594,0.758-0.522c0.303,0.07,0.55,0.293,0.361,0.479c0.004-0.337-0.57-0.151-0.579,0.148
		c-0.011,0.393,0.509,0.4,0.78,0.287l0.021-0.011l0.022,0.003c0.168,0.021,0.407-0.025,0.557-0.132
		c-0.023-0.167-0.045-0.335-0.063-0.504c-0.198-0.083-0.463-0.051-0.404,0.17c-0.226-0.141-0.049-0.409,0.242-0.52
		c0.039-0.017,0.08-0.028,0.121-0.037c-0.006-0.074-0.008-0.148-0.015-0.223c-0.039-0.005-0.079-0.011-0.117-0.02
		c-0.302-0.068-0.522-0.308-0.322-0.479c-0.021,0.224,0.235,0.223,0.417,0.116c-0.008-0.171-0.011-0.344-0.013-0.515
		c-0.165-0.083-0.405-0.093-0.567-0.049l-0.026,0.008l-0.021-0.006c-0.278-0.072-0.764,0.005-0.727,0.362
		c0.001,0.012,0.003,0.021,0.005,0.033c0.058,0.297,0.655,0.396,0.597,0.063c0.215,0.158,0.012,0.412-0.281,0.527
		c-0.293,0.111-0.678,0.077-0.832-0.408c-0.021-0.067-0.029-0.135-0.029-0.201c-0.019-0.587,0.771-1.086,1.304-0.922
		c0.189-0.039,0.393-0.006,0.582,0.068c0.01-0.406,0.035-0.806,0.074-1.201c-0.074-0.041-0.089-0.068-0.067-0.228
		c-0.087,0.108-0.114,0.285-0.153,0.454c-0.025,0.172-0.073,0.336-0.225,0.426c-0.361,0.218-0.653-0.125-0.383-0.313
		c-0.385,0.167-0.88,0.025-1.238-0.292c-0.338-0.313-0.531-0.805-0.359-1.232C3.101,12.701,3.3,12.554,3.5,12.506
		c0.197-0.048,0.401,0.001,0.569,0.092c0.169,0.091,0.298,0.224,0.357,0.355c0.062,0.132,0.049,0.26-0.091,0.346
		C4.442,12.889,3.7,12.934,3.598,13.3c-0.133,0.482,0.485,0.651,0.844,0.593c0.658-0.101,0.577-0.616,0.906-0.957
		c0.062-0.062,0.146-0.119,0.24-0.163c-0.298-0.002-0.616,0.119-0.815,0.337c-0.099-0.27-0.239-0.474-0.443-0.663
		c0.262-0.098,0.485-0.231,0.665-0.446c0.114,0.271,0.332,0.494,0.601,0.608c-0.057-0.068-0.104-0.141-0.133-0.212
		c-0.123-0.314-0.057-0.648-0.189-0.924c-0.056-0.108-0.146-0.209-0.302-0.303c-0.24-0.145-0.676-0.226-0.895-0.02
		c-0.062,0.059-0.109,0.14-0.122,0.25c-0.025,0.384,0.655,0.704,0.688,0.278c0.206,0.266-0.112,0.509-0.497,0.554
		c-0.384,0.044-0.832-0.123-0.861-0.781c-0.012-0.174,0.041-0.336,0.135-0.479c0.399-0.637,1.433-0.838,1.923-0.333
		c-0.197-0.283,0.214-0.485,0.46-0.149c0.22,0.281-0.045,0.692,0.028,0.958c0.051-0.171,0.076-0.177,0.188-0.187
		c0.055-0.174,0.112-0.346,0.174-0.516c-0.03-0.037-0.062-0.074-0.092-0.106c0.043-0.001,0.09-0.006,0.137-0.012
		c0.047-0.127,0.095-0.253,0.146-0.378c-0.229,0.008-0.457-0.034-0.629-0.153c-0.319-0.036-0.618-0.272-0.782-0.581
		C4.814,9.212,4.762,8.824,4.992,8.57c0.341-0.389,0.712-0.272,0.936-0.055c0.224,0.218,0.309,0.527,0.045,0.589
		c0.19-0.28-0.404-0.419-0.577-0.17c-0.202,0.337,0.247,0.61,0.535,0.648l0.023,0.002L5.971,9.6C6.13,9.717,6.405,9.808,6.592,9.752
		C6.648,9.63,6.707,9.51,6.765,9.39C6.676,9.177,6.362,8.994,6.278,9.242C6.161,9.009,6.464,8.876,6.769,8.933
		c0.068,0.011,0.134,0.033,0.198,0.062C7,8.935,7.03,8.873,7.064,8.812C7,8.777,6.942,8.735,6.891,8.687
		c-0.222-0.213-0.31-0.545-0.037-0.578C6.679,8.329,7.069,8.48,7.3,8.402c0.056-0.094,0.114-0.186,0.171-0.277
		C7.439,7.918,7.17,7.716,6.963,7.653L6.941,7.647L6.925,7.631c-0.195-0.206-0.651-0.4-0.818-0.08
		C6.102,7.561,6.096,7.569,6.09,7.582C5.975,7.858,6.434,8.252,6.564,7.944c0.087,0.238-0.195,0.361-0.506,0.308
		C5.755,8.202,5.432,7.967,5.549,7.464c0.02-0.067,0.05-0.128,0.088-0.185c0.328-0.497,1.21-0.534,1.59-0.101
		c0.22,0.082,0.41,0.274,0.543,0.496c0.268-0.382,0.551-0.744,0.854-1.086c-0.057,0.04-0.116,0.077-0.181,0.109
		C8.356,6.53,8.306,6.525,8.451,6.37C8.177,6.444,8.026,6.918,7.667,6.896C7.24,6.878,7.187,6.438,7.519,6.429
		C7.101,6.358,6.764,5.976,6.643,5.511C6.506,5.042,6.645,4.527,7.038,4.264c0.549-0.376,0.96-0.067,1.122,0.27
		c0.16,0.338,0.157,0.757-0.175,0.737c0.324-0.277-0.312-0.663-0.611-0.413C6.98,5.186,7.401,5.667,7.735,5.816
		c0.603,0.28,0.837-0.171,1.281-0.275c0.088-0.014,0.19-0.011,0.29,0.008C9.059,5.372,8.738,5.292,8.454,5.362
		c0.064-0.281,0.062-0.532,0.007-0.802c0.271,0.07,0.532,0.093,0.803,0.024C9.2,4.872,9.249,5.176,9.403,5.423
		C9.395,5.335,9.399,5.25,9.416,5.176C9.492,4.851,9.74,4.625,9.798,4.328c0.019-0.118,0.007-0.254-0.062-0.423
		c-0.103-0.26-0.401-0.588-0.704-0.55c-0.087,0.01-0.174,0.05-0.253,0.131c-0.256,0.3,0.113,0.96,0.389,0.631
		c0.01,0.337-0.389,0.347-0.73,0.163C8.099,4.093,7.827,3.699,8.204,3.133C8.297,2.979,8.447,2.882,8.61,2.817
		c0.354-0.14,0.782-0.103,1.113,0.068c0.333,0.168,0.583,0.477,0.623,0.818c0.028-0.332,0.475-0.232,0.459,0.183
		c-0.014,0.33-0.451,0.507-0.549,0.758c0.168-0.126,0.165-0.085,0.325,0.011c-0.071,0.138-0.166,0.24-0.265,0.331
		c-0.066,0.064-0.138,0.12-0.2,0.183c-0.008,0.012-0.017,0.024-0.027,0.036c0.271-0.211,0.55-0.409,0.837-0.589
		c0.004-0.038,0.014-0.074,0.016-0.111c0.012-0.111,0.014-0.221,0.004-0.318c0.1,0.077,0.231,0.144,0.365,0.198
		c0.106-0.06,0.21-0.119,0.317-0.174c-0.275-0.14-0.538-0.379-0.622-0.665c-0.222-0.226-0.308-0.599-0.238-0.949
		c0.062-0.36,0.307-0.651,0.649-0.706c0.519-0.087,0.712,0.247,0.736,0.562c0.021,0.317-0.111,0.609-0.348,0.487
		c0.321-0.094-0.028-0.588-0.324-0.504c-0.387,0.107-0.221,0.6-0.021,0.818l0.014,0.017l0.005,0.022
		c0.065,0.282,0.373,0.704,0.649,0.519c0.208-0.143,0.093-0.742-0.183-0.569c0.061-0.254,0.37-0.16,0.558,0.083
		c0.092,0.118,0.155,0.27,0.164,0.428c0.083-0.03,0.166-0.057,0.25-0.085c-0.104-0.125-0.156-0.286-0.167-0.437
		c-0.024-0.305,0.145-0.58,0.358-0.43c-0.322,0.053-0.009,0.578,0.241,0.546c0.009-0.001,0.018-0.004,0.027-0.006
		c0.293-0.072,0.246-0.566,0.11-0.813l-0.011-0.02V2.486c0.003-0.286-0.185-0.743-0.527-0.61c-0.012,0.004-0.021,0.008-0.032,0.013
		c-0.276,0.135-0.208,0.735,0.093,0.593C12.914,2.73,12.621,2.6,12.426,2.35c-0.191-0.251-0.271-0.629,0.182-0.908
		c0.061-0.039,0.127-0.065,0.193-0.083c0.144-0.038,0.297-0.038,0.442,0.007c0.148,0.054,0.289,0.14,0.405,0.247
		c0.235,0.215,0.377,0.515,0.36,0.798C14.126,2.668,14.098,3,14,3.276c-0.015,0.04-0.032,0.076-0.05,0.113
		c0.107-0.023,0.217-0.043,0.324-0.061c0.055-0.139,0.121-0.25,0.301-0.253c0.107-0.001,0.265,0.077,0.416,0.166
		c0.229-0.019,0.462-0.032,0.695-0.032c0.165,0,0.329,0.006,0.492,0.015c-0.083-0.069-0.177-0.107-0.28-0.132
		c-0.226-0.071-0.477-0.007-0.736-0.125c0.061-0.177,0.032-0.206,0.238-0.219c-0.231-0.128-0.673,0.021-0.896-0.238
		c-0.277-0.299-0.002-0.685,0.233-0.422c-0.232-0.364-0.188-0.865,0.082-1.258c0.134-0.197,0.32-0.364,0.536-0.472
		c0.109-0.053,0.225-0.094,0.341-0.11c0.117-0.006,0.238,0.006,0.355,0.042c0.668,0.206,0.692,0.682,0.537,1.039
		c-0.16,0.358-0.479,0.601-0.681,0.332c0.423,0.081,0.304-0.66-0.093-0.738c-0.518-0.075-0.594,0.588-0.482,0.924
		c0.1,0.318,0.266,0.415,0.455,0.51c0.188,0.093,0.403,0.14,0.579,0.282c0.066,0.053,0.128,0.128,0.178,0.212
		c-0.018-0.299-0.164-0.578-0.398-0.765c0.254-0.116,0.446-0.298,0.62-0.523c0.124,0.233,0.268,0.477,0.489,0.646
		c-0.263,0.123-0.461,0.342-0.553,0.623c0.062-0.066,0.129-0.11,0.194-0.142c0.294-0.137,0.618-0.064,0.892-0.236
		c0.105-0.069,0.202-0.158,0.294-0.313c0.138-0.234,0.218-0.69-0.006-0.891c-0.065-0.057-0.152-0.095-0.27-0.1
		c-0.401-0.019-0.679,0.674-0.251,0.697c-0.256,0.212-0.51-0.102-0.588-0.489c-0.073-0.385,0.055-0.843,0.749-0.882
		c0.184-0.01,0.358,0.032,0.518,0.11c0.34,0.184,0.57,0.571,0.642,0.939c0.069,0.373-0.021,0.75-0.269,0.995
		c0.28-0.186,0.484,0.198,0.14,0.458c-0.282,0.223-0.671-0.047-0.925,0.025c0.198,0.063,0.164,0.084,0.186,0.272
		c-0.148,0.03-0.279-0.004-0.414-0.007c-0.229-0.014-0.445-0.06-0.642,0.035c0.419,0.061,0.829,0.152,1.228,0.272
		c0.154-0.085,0.302-0.192,0.414-0.301c0.003,0.136,0.033,0.306,0.082,0.465c0.104,0.039,0.206,0.08,0.31,0.122
		c-0.058-0.315-0.025-0.686,0.153-0.932c0.046-0.316,0.288-0.607,0.605-0.756c0.159-0.075,0.336-0.114,0.507-0.107
		c0.172,0.004,0.335,0.06,0.454,0.188c0.372,0.374,0.224,0.732-0.011,0.939c-0.235,0.206-0.547,0.27-0.59,0.003
		c0.264,0.208,0.446-0.373,0.207-0.566c-0.328-0.226-0.625,0.214-0.677,0.499l-0.004,0.022l-0.017,0.018
		c-0.188,0.228-0.333,0.719-0.01,0.808c0.236,0.09,0.644-0.361,0.342-0.486c0.237-0.1,0.346,0.21,0.265,0.508
		c-0.035,0.131-0.104,0.259-0.205,0.356c0.069,0.039,0.142,0.077,0.209,0.118c0.043-0.13,0.125-0.249,0.228-0.338
		c0.116-0.103,0.258-0.172,0.37-0.176c0.107,0.002,0.191,0.062,0.195,0.195c-0.233-0.232-0.461,0.339-0.284,0.528
		c0.007,0.008,0.016,0.013,0.022,0.02c0.231,0.203,0.592-0.141,0.702-0.4l0.01-0.021l0.02-0.014
		c0.225-0.173,0.467-0.604,0.161-0.802c-0.009-0.006-0.018-0.012-0.028-0.019c-0.268-0.143-0.701,0.274-0.41,0.435
		c-0.125,0.036-0.204-0.026-0.244-0.135c-0.042-0.104-0.049-0.252-0.01-0.402c0.04-0.15,0.123-0.298,0.262-0.391
		c0.136-0.092,0.335-0.135,0.57-0.034c0.065,0.026,0.125,0.064,0.179,0.107c0.231,0.186,0.344,0.505,0.327,0.811
		c-0.021,0.316-0.169,0.621-0.397,0.782c-0.128,0.256-0.396,0.434-0.676,0.53c0.102,0.076,0.2,0.154,0.299,0.235
		c0.075,0.003,0.146,0.031,0.214,0.116c0.024,0.031,0.047,0.077,0.067,0.126c0.181,0.161,0.358,0.329,0.53,0.503
		c-0.045-0.076-0.086-0.156-0.111-0.25c0.174-0.065,0.177-0.107,0.318,0.052c-0.023-0.134-0.134-0.272-0.239-0.404
		c-0.112-0.127-0.204-0.266-0.176-0.44c0.064-0.417,0.513-0.422,0.482-0.094c0.121-0.403,0.543-0.692,1.023-0.758
		c0.466-0.055,0.97,0.138,1.188,0.555c0.283,0.606-0.066,0.964-0.424,1.087c-0.364,0.125-0.744,0.039-0.696-0.275
		c0.239,0.351,0.7-0.229,0.485-0.553c-0.283-0.424-0.814-0.067-1.005,0.243c-0.176,0.281-0.159,0.49-0.09,0.687
		c0.033,0.098,0.081,0.193,0.123,0.292c0.04,0.101,0.066,0.214,0.072,0.33c0.004,0.088-0.012,0.186-0.041,0.284
		c0.206-0.221,0.316-0.526,0.306-0.833c0.25,0.118,0.508,0.141,0.783,0.118c-0.101,0.26-0.152,0.514-0.111,0.788
		c-0.281-0.096-0.594-0.083-0.857,0.039C23.44,7,23.526,7.015,23.598,7.042c0.33,0.107,0.493,0.405,0.798,0.488
		c0.116,0.031,0.255,0.033,0.43-0.016c0.271-0.077,0.63-0.339,0.622-0.638c-0.001-0.086-0.032-0.174-0.104-0.26
		c-0.12-0.148-0.357-0.153-0.531-0.076c-0.175,0.077-0.266,0.219-0.136,0.386c-0.313-0.043-0.299-0.426-0.069-0.745
		c0.224-0.311,0.655-0.536,1.166-0.102c0.125,0.121,0.208,0.272,0.254,0.436c0.101,0.359,0.021,0.768-0.188,1.082
		c-0.214,0.32-0.537,0.539-0.877,0.544c0.32,0.06,0.193,0.493-0.224,0.443c-0.178-0.018-0.277-0.153-0.382-0.29
		c-0.106-0.136-0.2-0.285-0.324-0.346c0.112,0.183,0.071,0.174-0.04,0.325c0.083,0.134,0.163,0.272,0.241,0.41
		c0.064,0.009,0.129,0.015,0.19,0.014c-0.037,0.041-0.07,0.092-0.104,0.143c0.062,0.115,0.123,0.229,0.185,0.346
		c0.152-0.18,0.348-0.326,0.562-0.371c0.24-0.205,0.622-0.26,0.964-0.168c0.351,0.086,0.623,0.336,0.66,0.671
		c0.058,0.511-0.282,0.698-0.596,0.712c-0.315,0.013-0.604-0.136-0.47-0.368c0.081,0.327,0.586-0.006,0.521-0.3
		c-0.09-0.386-0.59-0.253-0.82-0.067l-0.02,0.014l-0.021,0.003c-0.195,0.031-0.457,0.173-0.551,0.354
		c0.06,0.127,0.113,0.255,0.169,0.384c0.221,0.061,0.535-0.043,0.412-0.263c0.252,0.074,0.146,0.383-0.104,0.566
		c-0.046,0.034-0.098,0.063-0.149,0.087c0.024,0.066,0.049,0.133,0.073,0.199c0.06-0.016,0.118-0.028,0.179-0.03
		c0.308-0.014,0.58,0.159,0.428,0.378c-0.036-0.241-0.327-0.138-0.469,0.038c0.051,0.149,0.101,0.298,0.146,0.449
		c0.185,0.051,0.438-0.006,0.592-0.095l0.021-0.012h0.022c0.285-0.002,0.736-0.204,0.611-0.541c-0.005-0.011-0.009-0.02-0.013-0.032
		c-0.129-0.272-0.73-0.211-0.592,0.096c-0.245-0.097-0.113-0.397,0.141-0.586c0.248-0.184,0.639-0.257,0.904,0.178
		c0.037,0.059,0.061,0.123,0.078,0.188c0.071,0.28-0.031,0.597-0.228,0.833c-0.209,0.24-0.505,0.399-0.785,0.395
		c-0.181,0.095-0.399,0.113-0.611,0.081c0.101,0.385,0.185,0.777,0.255,1.177c0.094,0.022,0.114,0.039,0.135,0.206
		c0.134-0.259-0.118-0.693,0.136-0.945c0.297-0.303,0.663-0.045,0.447,0.206c0.333-0.262,0.844-0.251,1.271-0.035
		c0.434,0.211,0.72,0.642,0.664,1.098c-0.081,0.645-0.567,0.757-0.937,0.666c-0.368-0.093-0.675-0.372-0.444-0.609
		c-0.002,0.426,0.705,0.193,0.713-0.189c0.013-0.501-0.628-0.506-0.961-0.358c-0.607,0.265-0.42,0.745-0.632,1.157
		c-0.04,0.075-0.112,0.153-0.188,0.219c0.297-0.076,0.557-0.273,0.691-0.534c0.168,0.234,0.371,0.394,0.606,0.525
		c-0.229,0.162-0.414,0.349-0.535,0.603c-0.177-0.233-0.441-0.392-0.729-0.434c0.073,0.051,0.136,0.11,0.181,0.171
		c0.202,0.273,0.203,0.614,0.433,0.846c0.079,0.088,0.192,0.163,0.366,0.213c0.268,0.077,0.71,0.041,0.871-0.213
		c0.041-0.073,0.058-0.163,0.036-0.272c-0.071-0.377-0.809-0.51-0.735-0.09c-0.264-0.204-0.015-0.521,0.347-0.664
		c0.36-0.141,0.837-0.094,1.026,0.531c0.051,0.165,0.049,0.334,0.009,0.495c-0.229,0.712-1.181,1.178-1.781,0.822
		c0.252,0.22-0.065,0.527-0.407,0.267c-0.287-0.213-0.127-0.681-0.267-0.918c-0.006,0.154-0.023,0.184-0.098,0.213
		c-0.005,0.201-0.013,0.4-0.025,0.6c0.021,0.014,0.041,0.027,0.062,0.041c-0.021,0.006-0.043,0.021-0.064,0.027
		c-0.01,0.141-0.021,0.277-0.034,0.414c0.205-0.057,0.417-0.07,0.601-0.008c0.314-0.052,0.664,0.097,0.9,0.35
		c0.237,0.25,0.362,0.604,0.233,0.911c-0.194,0.47-0.611,0.454-0.878,0.312c-0.137-0.072-0.242-0.178-0.289-0.281
		c-0.053-0.104-0.041-0.207,0.072-0.272c-0.086,0.324,0.517,0.293,0.599,0.004c0.104-0.377-0.396-0.52-0.687-0.478l-0.021,0.003
		l-0.021-0.008c-0.157-0.062-0.395-0.08-0.566-0.017c-0.021,0.166-0.047,0.334-0.073,0.498c0.171,0.137,0.443,0.178,0.44-0.056
		c0.094,0.099,0.078,0.199,0.004,0.281c-0.08,0.081-0.225,0.14-0.38,0.156c-0.046,0.004-0.092,0.006-0.139,0.002
		c-0.014,0.074-0.024,0.146-0.04,0.218c0.042,0.014,0.082,0.03,0.12,0.051c0.273,0.145,0.432,0.434,0.195,0.546
		c0.077-0.221-0.199-0.278-0.404-0.211c-0.036,0.155-0.075,0.312-0.118,0.463c0.129,0.14,0.374,0.222,0.562,0.224h0.021l0.019,0.012
		c0.238,0.138,0.757,0.197,0.802-0.16c0.002-0.012,0.003-0.021,0.004-0.034c0.019-0.301-0.536-0.553-0.562-0.215
		c-0.168-0.209,0.089-0.402,0.4-0.438s0.676,0.098,0.704,0.609c0.004,0.071-0.004,0.139-0.021,0.203
		c-0.062,0.283-0.342,0.497-0.633,0.602c-0.297,0.104-0.629,0.094-0.871-0.053c-0.203-0.009-0.403-0.104-0.575-0.24
		c-0.118,0.381-0.253,0.752-0.4,1.113c0.099,0.092,0.119,0.102,0.051,0.276c0.217-0.165,0.274-0.645,0.604-0.74
		c0.396-0.117,0.608,0.299,0.28,0.402C26.331,21.185,26.76,21.447,27.004,21.838z M24.69,15.75c0-6.17-4.039-11.19-9.004-11.19
		S6.681,9.58,6.681,15.75c0,6.168,4.04,11.188,9.005,11.188S24.69,21.918,24.69,15.75z M27.44,20.729
		c-0.345,0.168-0.755,0.188-1.119,0.027l-0.027,0.096c0.221,0.211,0.488,0.242,0.717,0.43c0.28,0.227,0.229,0.438,0.404,0.701
		c0.265,0.401,0.384,0.276,0.384-0.008c0.013-0.283-0.16-0.728-0.383-0.929c0.174-0.061,0.407-0.198,0.569-0.383
		c0.163-0.184,0.252-0.41,0.112-0.63C27.864,20.249,27.771,20.563,27.44,20.729z M26.049,18.787c0.095,0.082,0.174,0.17,0.238,0.271
		c0.099-0.067,0.209-0.121,0.327-0.164c-0.093-0.084-0.173-0.172-0.236-0.271C26.279,18.691,26.169,18.745,26.049,18.787z
		 M28.796,16.171c-0.496,0.614-0.989,0.768-1.754,0.721l-0.104,0.041c0.102,0.193,0.562,0.193,0.771,0.418
		c0.211,0.229,0.293,0.633,0.364,0.949c0.523-0.111,0.369-0.615,0.272-1.013C28.791,17.078,28.935,16.669,28.796,16.171z
		 M22.221,28.542c-0.379-0.066-0.717-0.302-0.907-0.65l-0.078,0.059c0.044,0.303,0.237,0.498,0.299,0.781
		c0.067,0.34-0.108,0.48-0.141,0.801c-0.059,0.49,0.116,0.463,0.307,0.229c0.096-0.115,0.188-0.279,0.25-0.451
		c0.058-0.181,0.078-0.369,0.054-0.521c0.177,0.055,0.451,0.081,0.696,0.024c0.244-0.057,0.467-0.186,0.484-0.451
		C22.864,28.404,22.587,28.603,22.221,28.542z M22.249,26.152c0.028,0.119,0.045,0.238,0.038,0.354
		c0.119,0.003,0.24,0.024,0.363,0.06c-0.026-0.121-0.043-0.239-0.037-0.355C22.491,26.211,22.37,26.189,22.249,26.152z
		 M24.112,25.137l-0.108-0.021c-0.021,0.218,0.355,0.461,0.418,0.772c0.071,0.324-0.108,0.696-0.229,1.006
		c0.495,0.192,0.688-0.303,0.794-0.716c0.488,0.063,0.86-0.198,1.008-0.71C25.241,25.738,24.726,25.589,24.112,25.137z
		 M12.905,30.398c-0.182-0.352-0.2-0.767-0.044-1.129l-0.093-0.028c-0.213,0.218-0.247,0.485-0.438,0.711
		c-0.23,0.268-0.464,0.237-0.731,0.391c-0.423,0.243-0.296,0.37,0.004,0.391c0.305,0.002,0.767-0.145,0.972-0.366
		c0.064,0.177,0.216,0.417,0.414,0.585c0.201,0.148,0.453,0.216,0.677,0.081C13.428,30.779,13.079,30.757,12.905,30.398z
		 M14.784,28.919c-0.069,0.104-0.151,0.201-0.248,0.27c0.074,0.099,0.137,0.19,0.188,0.306c0.077-0.104,0.157-0.196,0.249-0.274
		C14.895,29.131,14.834,29.029,14.784,28.919z M16.76,29.652l-0.062-0.096c-0.174,0.122-0.095,0.565-0.289,0.813
		c-0.1,0.125-0.25,0.228-0.416,0.312c-0.166,0.088-0.349,0.159-0.509,0.198c0.187,0.538,0.702,0.267,1.098,0.104
		c0.147,0.205,0.34,0.344,0.555,0.379c0.215,0.029,0.457-0.023,0.703-0.15C17.089,30.88,16.851,30.422,16.76,29.652z M6.277,23.636
		l-0.05-0.083c-0.299,0.013-0.509,0.187-0.795,0.22c-0.346,0.041-0.472-0.142-0.786-0.192c-0.96-0.178,0.055,0.716,0.67,0.652
		c-0.147,0.332-0.206,1.078,0.282,1.203c0.021-0.338-0.164-0.609-0.061-0.967C5.645,24.105,5.911,23.793,6.277,23.636z
		 M7.909,24.767c-0.123,0.015-0.242,0.015-0.362-0.006c-0.017,0.119-0.051,0.235-0.099,0.354c0.126-0.014,0.246-0.014,0.362,0.005
		C7.826,24.997,7.861,24.881,7.909,24.767z M8.674,26.751l0.035-0.104c-0.216-0.047-0.511,0.303-0.822,0.315
		c-0.312,0.011-0.676-0.198-0.967-0.356c-0.257,0.469,0.23,0.699,0.604,0.885c-0.123,0.478,0.114,0.867,0.6,1.093
		C7.946,27.784,8.147,27.308,8.674,26.751z M4.31,15.099l0.003-0.097c-0.266-0.146-0.533-0.107-0.801-0.226
		c-0.322-0.144-0.344-0.362-0.594-0.566c-0.354-0.314-0.453-0.165-0.359,0.11c0.091,0.273,0.346,0.652,0.617,0.787
		c-0.153,0.104-0.346,0.298-0.457,0.517c-0.113,0.217-0.112,0.458,0.064,0.633c0.185-0.269,0.154-0.591,0.447-0.836
		C3.522,15.169,3.918,15.042,4.31,15.099z M5.077,16.935c-0.11-0.058-0.211-0.121-0.297-0.203c-0.08,0.092-0.174,0.17-0.278,0.244
		c0.112,0.058,0.207,0.123,0.301,0.201C4.874,17.083,4.972,17.003,5.077,16.935z M4.7,18.954c-0.147-0.162-0.582-0.045-0.855-0.207
		c-0.271-0.165-0.442-0.536-0.593-0.824c-0.474,0.242-0.221,0.693,0,1.048c-0.379,0.316-0.416,0.753-0.158,1.201
		c0.327-0.727,0.766-1.002,1.517-1.151L4.7,18.954z M5.885,6.458C6.25,6.387,6.666,6.5,6.965,6.755l0.058-0.078
		C6.88,6.414,6.631,6.301,6.473,6.06c-0.189-0.295-0.084-0.492-0.176-0.8C6.027,4.303,5.69,5.645,6.002,6.155
		c-0.372,0.006-1.05,0.296-0.944,0.79C5.367,6.814,5.524,6.524,5.885,6.458z M6.672,8.72c-0.069-0.104-0.123-0.213-0.158-0.33
		c-0.112,0.039-0.23,0.06-0.355,0.069C6.225,8.566,6.28,8.675,6.316,8.79C6.429,8.749,6.547,8.729,6.672,8.72z M5.196,10.269
		l0.113-0.011C5.27,10.046,4.836,9.926,4.692,9.651C4.546,9.373,4.569,8.957,4.579,8.626C4.047,8.595,4.068,9.13,4.061,9.542
		C3.552,9.619,3.309,9.98,3.323,10.504C3.956,10.037,4.464,10.018,5.196,10.269z M13.576,0.941c0.321,0.226,0.525,0.584,0.551,0.98
		l0.096-0.018c0.09-0.294,0-0.547,0.068-0.836c0.084-0.358,0.309-0.392,0.479-0.666c0.271-0.412,0.098-0.466-0.18-0.344
		c-0.279,0.106-0.623,0.465-0.705,0.756c-0.267-0.25-1.002-0.579-1.275-0.102c0.162,0.054,0.321,0.047,0.482,0.061
		C13.256,0.798,13.42,0.833,13.576,0.941z M12.671,2.765c-0.11-0.053-0.212-0.123-0.313-0.204c-0.021,0.126-0.051,0.247-0.098,0.358
		c0.108,0.042,0.209,0.103,0.303,0.18C12.583,2.979,12.617,2.869,12.671,2.765z M10.469,3.334l0.095,0.061
		c0.102-0.19-0.163-0.555-0.101-0.866c0.063-0.315,0.35-0.642,0.6-0.859c-0.195-0.187-0.391-0.188-0.562-0.085
		c-0.169,0.108-0.32,0.301-0.459,0.465C9.82,1.929,9.597,1.898,9.384,1.95C9.169,1.998,8.99,2.16,8.826,2.375
		C9.625,2.354,10.059,2.689,10.469,3.334z M22.405,4.479c0.281-0.112,0.422-0.344,0.685-0.473c0.317-0.153,0.504-0.026,0.826-0.08
		c0.479-0.064,0.424-0.236,0.146-0.349c-0.277-0.115-0.739-0.171-1.017-0.049c0.051-0.385-0.181-1.099-0.694-1.044
		c0.104,0.324,0.387,0.509,0.413,0.879c0.017,0.393-0.138,0.781-0.429,1.049L22.405,4.479z M20.428,3.917
		c0.109-0.061,0.224-0.107,0.343-0.133c-0.029-0.113-0.039-0.232-0.039-0.356c-0.113,0.059-0.226,0.105-0.34,0.133
		C20.422,3.675,20.432,3.794,20.428,3.917z M18.981,2.375l0.01,0.11c0.216-0.041,0.343-0.465,0.625-0.599
		c0.287-0.132,0.716-0.084,1.056-0.051c0.058-0.53-0.506-0.548-0.931-0.579c-0.019-0.126-0.055-0.242-0.106-0.34
		c-0.058-0.092-0.131-0.17-0.219-0.233c-0.179-0.126-0.415-0.192-0.688-0.194C19.236,1.141,19.243,1.654,18.981,2.375z
		 M26.68,12.089c0.293,0.072,0.542-0.034,0.83,0.011c0.348,0.058,0.422,0.264,0.715,0.398c0.892,0.427,0.119-0.689-0.473-0.806
		c0.119-0.14,0.271-0.381,0.304-0.618c0.037-0.237-0.011-0.475-0.229-0.599c-0.113,0.311,0.004,0.617-0.202,0.927
		c-0.221,0.319-0.569,0.544-0.965,0.591L26.68,12.089z M25.44,10.428c0.123,0.022,0.245,0.056,0.346,0.113
		c0.058-0.111,0.119-0.209,0.197-0.306c-0.126-0.025-0.244-0.059-0.354-0.111C25.583,10.233,25.519,10.333,25.44,10.428z
		 M25.251,8.386c0.185,0.117,0.568-0.117,0.873-0.034c0.31,0.083,0.604,0.384,0.81,0.629c0.197-0.182,0.209-0.368,0.122-0.539
		c-0.092-0.169-0.271-0.327-0.422-0.472c0.271-0.409,0.226-0.863-0.189-1.208c-0.02,0.195-0.055,0.366-0.106,0.518
		c-0.062,0.155-0.138,0.29-0.229,0.411c-0.189,0.243-0.447,0.429-0.787,0.606L25.251,8.386z"/>
</g>
<g>
</g>
<g>
</g>
<g>
</g>
<g>
</g>
<g>
</g>
<g>
</g>
<g>
</g>
<g>
</g>
<g>
</g>
<g>
</g>
<g>
</g>
<g>
</g>
<g>
</g>
<g>
</g>
<g>
</g>
</svg>
