<?xml version="1.0" encoding="iso-8859-1"?>
<!-- Generator: Adobe Illustrator 16.0.0, SVG Export Plug-In . SVG Version: 6.00 Build 0)  -->
<!DOCTYPE svg PUBLIC "-//W3C//DTD SVG 1.1//EN" "http://www.w3.org/Graphics/SVG/1.1/DTD/svg11.dtd">
<svg version="1.1" id="Capa_1" xmlns="http://www.w3.org/2000/svg" xmlns:xlink="http://www.w3.org/1999/xlink" x="0px" y="0px"
	 width="31.445px" height="31.444px" viewBox="0 0 31.445 31.444" style="enable-background:new 0 0 31.445 31.444;"
	 xml:space="preserve">
<g>
	<path d="M18.842,7.583l0.615,0.286l-7.433,16.035l-0.616-0.285L18.842,7.583z M16.699,8.145l-0.618-0.286l-3.422,7.389l0.617,0.286
		L16.699,8.145z M13.82,22.987l0.617,0.286l3.427-7.386l-0.617-0.286L13.82,22.987z M26.269,16.724
		c0.021,0.025,0.041,0.049,0.026,0.019L26.269,16.724z M27.178,16.9c0.04,0.574-0.646,0.986-1.073,1.106
		c-0.748,0.208-1.525-0.021-2.091-0.409c-0.008,0.08-0.019,0.159-0.026,0.24c0.049,0.03,0.096,0.061,0.141,0.092
		c-0.044,0.055-0.104,0.094-0.166,0.129c-0.021,0.172-0.045,0.342-0.071,0.51c0.374-0.196,0.824-0.284,1.234,0.021
		c0.358,0.274,0.534,0.699,0.202,1.049c-0.459,0.482-0.871-0.113-0.527-0.182c-0.146,0.225,0.087,0.324,0.232,0.124
		c0.149-0.203-0.024-0.479-0.172-0.615c-0.273-0.253-0.66-0.278-1.002-0.188c-0.021,0.131-0.045,0.26-0.068,0.389
		c0.135-0.131,0.289-0.106,0.471-0.1c0.118,0.004,0.204-0.012,0.292-0.058c-0.052,0.081-0.08,0.16-0.091,0.271
		c-0.018,0.178-0.004,0.336-0.188,0.441c0.127,0.105-0.207,0.23-0.293,0.239c0.108,0.134-0.143,0.179-0.406,0.189
		c-0.02,0.076-0.039,0.149-0.06,0.224c0.042-0.013,0.083-0.023,0.125-0.037c0.384-0.107,0.729-0.166,0.677,0.089
		c0.139-0.038,0.742-0.071,0.633,0.188c0.369,0.034,0.473,0.288,0.636,0.569c0.103,0.176,0.206,0.284,0.353,0.375
		c-0.173-0.002-0.32,0.033-0.5,0.127c-0.287,0.148-0.512,0.308-0.842,0.139c-0.006,0.053-0.033,0.082-0.066,0.095
		c-0.09,0.035-0.248-0.042-0.377-0.127c-0.086-0.056-0.158-0.116-0.188-0.15c-0.013,0.031-0.026,0.057-0.045,0.071l-0.323-0.108
		c-0.104-0.095-0.221-0.222-0.333-0.352c-0.021,0.062-0.042,0.123-0.062,0.186c0.027,0.021,0.056,0.041,0.082,0.062
		c0.179,0.134,0.302,0.274,0.16,0.319c0.066,0.053,0.28,0.338,0.114,0.356c0.099,0.188,0.003,0.313-0.079,0.472
		c-0.051,0.1-0.072,0.18-0.07,0.274c-0.051-0.085-0.113-0.146-0.215-0.206c-0.158-0.093-0.303-0.154-0.345-0.342
		c-0.04,0.098-0.081,0.192-0.123,0.288c0.239,0.263,0.578,0.452,0.949,0.389c0.196-0.03,0.492-0.173,0.478-0.423
		c-0.015-0.247-0.267-0.288-0.264-0.021c-0.252-0.239,0.416-0.521,0.542,0.133c0.093,0.472-0.288,0.738-0.737,0.771
		c-0.41,0.028-0.695-0.175-0.9-0.438c-0.057-0.071-0.104-0.146-0.148-0.223c-0.035,0.08-0.072,0.154-0.109,0.232
		c0.25,0.34,0.609,0.617,1.054,0.748c0.384,0.112,0.978,0.095,1.334-0.131c0.312-0.185,0.437-0.858-0.021-0.634
		c-0.002,0.01,0.004,0.031,0.01,0.05c-0.221-0.31,0.234-0.444,0.479-0.337c0.26,0.115,0.405,0.506,0.322,0.812
		c-0.163,0.567-0.946,0.731-1.396,0.695c-0.771-0.06-1.424-0.556-1.822-1.113c-0.035,0.072-0.07,0.145-0.106,0.215
		c0.037,0.047,0.073,0.094,0.106,0.141c-0.062,0.037-0.135,0.053-0.211,0.062c-0.08,0.148-0.162,0.296-0.246,0.441
		c0.091-0.01,0.184-0.016,0.273-0.014c0.334,0.012,0.668,0.125,0.885,0.471c0.242,0.386,0.244,0.85-0.193,1.052
		c-0.609,0.274-0.764-0.435-0.422-0.365c-0.221,0.149-0.041,0.331,0.17,0.202c0.218-0.131,0.15-0.457,0.066-0.633
		c-0.164-0.337-0.523-0.502-0.877-0.543c-0.068,0.113-0.141,0.223-0.211,0.333c0.184-0.083,0.318,0.001,0.491,0.079
		c0.106,0.049,0.192,0.066,0.292,0.058c-0.08,0.053-0.129,0.118-0.181,0.217c-0.082,0.155-0.13,0.307-0.339,0.33
		c0.08,0.148-0.274,0.133-0.356,0.104c0.052,0.172-0.213,0.102-0.466,0c-0.049,0.06-0.096,0.121-0.143,0.181
		c0.051,0.007,0.104,0.016,0.153,0.021c0.39,0.061,0.735,0.146,0.583,0.353c0.143,0.022,0.715,0.233,0.506,0.423
		c0.324,0.181,0.317,0.455,0.35,0.784c0.021,0.205,0.062,0.348,0.158,0.489c-0.153-0.071-0.306-0.098-0.508-0.084
		c-0.324,0.021-0.607,0.059-0.826-0.235c-0.031,0.043-0.064,0.061-0.103,0.059c-0.095-0.008-0.202-0.146-0.282-0.279
		c-0.053-0.088-0.093-0.174-0.107-0.219c-0.022,0.021-0.047,0.037-0.068,0.043c-0.093,0.027-0.172-0.078-0.243-0.239
		c-0.057-0.14-0.112-0.315-0.165-0.49c-0.045,0.048-0.091,0.096-0.137,0.141c0.021,0.039,0.046,0.078,0.066,0.117
		c0.104,0.196,0.158,0.381,0.011,0.352c0.038,0.078,0.103,0.423-0.054,0.363c0.01,0.215-0.136,0.273-0.278,0.37
		c-0.091,0.062-0.144,0.121-0.187,0.202c-0.005-0.097-0.031-0.179-0.091-0.279c-0.099-0.164-0.2-0.291-0.146-0.479
		c-0.014-0.002-0.022-0.008-0.032-0.014c-0.069,0.056-0.14,0.107-0.209,0.162c0.079,0.356,0.276,0.717,0.647,0.854
		c0.188,0.071,0.51,0.084,0.616-0.142c0.099-0.229-0.104-0.375-0.223-0.145c-0.052-0.165,0.094-0.228,0.233-0.178
		c0.14,0.051,0.283,0.224,0.185,0.549c-0.146,0.462-0.618,0.52-1.021,0.317c-0.367-0.187-0.507-0.51-0.558-0.832
		c-0.019-0.111-0.022-0.219-0.022-0.324c-0.07,0.049-0.14,0.096-0.207,0.141c0.047,0.431,0.209,0.878,0.533,1.236
		c0.266,0.294,0.793,0.583,1.229,0.55c0.376-0.019,0.825-0.572,0.305-0.58c-0.005,0.01-0.012,0.03-0.017,0.051
		c-0.038-0.375,0.423-0.299,0.594-0.092c0.177,0.219,0.123,0.652-0.119,0.893c-0.214,0.227-0.542,0.275-0.836,0.246
		c-0.307-0.041-0.588-0.17-0.773-0.299c-0.416-0.287-0.676-0.73-0.824-1.175c-0.09-0.266-0.143-0.528-0.166-0.78
		c-0.063,0.041-0.127,0.075-0.189,0.113c0.012,0.08,0.023,0.159,0.03,0.235c-0.091-0.008-0.179-0.049-0.263-0.1
		c-0.139,0.074-0.276,0.145-0.418,0.209c0.1,0.055,0.197,0.112,0.293,0.186c0.261,0.204,0.484,0.479,0.473,0.884
		c-0.008,0.227-0.076,0.438-0.207,0.582c-0.135,0.137-0.325,0.219-0.562,0.165c-0.336-0.076-0.408-0.283-0.386-0.432
		c0.026-0.15,0.149-0.242,0.269-0.112c-0.26-0.021-0.229,0.233,0.017,0.261c0.253,0.025,0.392-0.28,0.421-0.468
		c0.057-0.4-0.186-0.756-0.466-1c-0.097,0.04-0.188,0.079-0.284,0.114c0.014,0.02,0.02,0.042,0.01,0.07
		c0.182,0.041,0.243,0.191,0.338,0.356c0.059,0.103,0.117,0.167,0.199,0.222c-0.094-0.008-0.171,0.012-0.264,0.062
		c-0.146,0.082-0.275,0.158-0.449,0.051c-0.023,0.17-0.283-0.071-0.326-0.146c-0.053,0.144-0.185-0.016-0.295-0.223
		c-0.025-0.047-0.05-0.098-0.072-0.146c-0.074,0.016-0.146,0.031-0.222,0.043c0.048,0.06,0.097,0.121,0.146,0.181
		c0.238,0.307,0.449,0.596,0.207,0.649c0.088,0.111,0.392,0.645,0.105,0.649c0.131,0.347-0.06,0.554-0.267,0.823
		c-0.132,0.16-0.2,0.298-0.232,0.467c-0.067-0.156-0.165-0.275-0.325-0.404c-0.263-0.223-0.492-0.381-0.438-0.748
		c-0.052,0.011-0.088-0.002-0.112-0.028c-0.062-0.075-0.038-0.249,0-0.396c0.026-0.101,0.057-0.189,0.079-0.232
		c-0.033,0.002-0.059-0.004-0.079-0.016c-0.082-0.051-0.062-0.18,0-0.342c0.061-0.16,0.157-0.354,0.246-0.533
		c-0.065,0.004-0.131,0.008-0.196,0.008c-0.014,0.064-0.03,0.133-0.049,0.195c-0.062,0.211-0.151,0.37-0.229,0.248
		c-0.026,0.078-0.226,0.376-0.286,0.215c-0.145,0.144-0.286,0.092-0.447,0.047c-0.102-0.031-0.18-0.033-0.269-0.008
		c0.069-0.068,0.113-0.146,0.149-0.258c0.056-0.181,0.086-0.343,0.251-0.421c-0.017-0.028-0.015-0.057-0.002-0.081
		c-0.075-0.011-0.149-0.025-0.223-0.041c-0.225,0.305-0.39,0.714-0.246,1.089c0.07,0.177,0.271,0.451,0.513,0.364
		c0.233-0.079,0.205-0.334-0.044-0.259c0.087-0.153,0.227-0.088,0.285,0.053c0.056,0.142,0.034,0.357-0.277,0.504
		c-0.447,0.206-0.813-0.114-0.916-0.559c-0.098-0.396,0.065-0.711,0.273-0.965c0.081-0.095,0.169-0.18,0.257-0.258
		c-0.08-0.019-0.16-0.039-0.24-0.061c-0.301,0.317-0.553,0.741-0.622,1.233c-0.058,0.399,0.066,0.974,0.387,1.299
		c0.133,0.125,0.391,0.197,0.567,0.174c0.178-0.029,0.264-0.137,0.089-0.329c-0.01,0.002-0.03,0.012-0.049,0.022
		c0.259-0.291,0.522,0.11,0.49,0.379c-0.036,0.271-0.415,0.526-0.776,0.506c-0.331-0.021-0.599-0.223-0.771-0.481
		c-0.178-0.25-0.261-0.559-0.282-0.785c-0.048-0.509,0.13-0.98,0.376-1.387c0.152-0.246,0.329-0.464,0.509-0.65
		c-0.07-0.021-0.141-0.039-0.211-0.062c-0.057,0.063-0.114,0.129-0.173,0.19c-0.056-0.074-0.078-0.177-0.092-0.283
		c-0.14-0.051-0.279-0.107-0.416-0.17c0.02,0.111,0.036,0.226,0.04,0.345c0.009,0.325-0.062,0.673-0.385,0.925
		c-0.356,0.28-0.836,0.308-1.064-0.123c-0.158-0.301-0.042-0.498,0.085-0.571c0.129-0.072,0.283-0.039,0.261,0.133
		c-0.157-0.205-0.332-0.022-0.194,0.182c0.144,0.205,0.461,0.131,0.631,0.025c0.258-0.15,0.389-0.418,0.447-0.696
		c0.019-0.097,0.028-0.192,0.031-0.286c-0.093-0.045-0.186-0.091-0.277-0.141c-0.009,0.013-0.021,0.024-0.042,0.033
		c0.084,0.172,0.005,0.315-0.063,0.492c-0.043,0.111-0.055,0.198-0.042,0.295c-0.058-0.07-0.118-0.125-0.217-0.169
		c-0.157-0.065-0.307-0.104-0.331-0.315c-0.143,0.084-0.133-0.262-0.107-0.344c-0.172,0.055-0.09-0.229,0.016-0.488
		c-0.061-0.045-0.121-0.094-0.182-0.141c-0.009,0.062-0.018,0.123-0.027,0.186c-0.06,0.38-0.143,0.728-0.349,0.582
		c-0.023,0.14-0.224,0.713-0.42,0.51c-0.176,0.326-0.458,0.325-0.785,0.349c-0.205,0.016-0.352,0.062-0.497,0.154
		c0.072-0.154,0.099-0.308,0.089-0.513c-0.018-0.328-0.059-0.604,0.24-0.823c-0.043-0.031-0.058-0.064-0.055-0.103
		c0.009-0.098,0.149-0.203,0.282-0.28c0.089-0.052,0.175-0.091,0.22-0.103c-0.023-0.024-0.037-0.05-0.043-0.072l0.001-0.002
		c-0.024-0.093,0.081-0.17,0.242-0.238l-0.003,0.003l0.002-0.002c0.141-0.054,0.321-0.11,0.498-0.161
		c-0.048-0.045-0.095-0.091-0.142-0.137c-0.04,0.021-0.08,0.046-0.121,0.066c-0.197,0.1-0.377,0.148-0.351,0.006
		c-0.08,0.039-0.425,0.098-0.363-0.06c-0.21,0.001-0.283-0.134-0.374-0.284c-0.06-0.093-0.12-0.146-0.206-0.189
		c0.099-0.004,0.182-0.031,0.284-0.092c0.163-0.099,0.291-0.201,0.478-0.14c0.001-0.005,0.004-0.008,0.005-0.012
		c-0.064-0.077-0.127-0.154-0.19-0.233c-0.352,0.083-0.695,0.289-0.819,0.647c-0.061,0.182-0.088,0.516,0.144,0.619
		c0.226,0.1,0.38-0.104,0.142-0.221c0.33-0.115,0.272,0.604-0.371,0.416c-0.458-0.148-0.519-0.609-0.321-1.021
		c0.173-0.368,0.494-0.518,0.823-0.572c0.095-0.014,0.19-0.02,0.285-0.021c-0.053-0.068-0.106-0.139-0.157-0.209
		c-0.421,0.056-0.848,0.232-1.181,0.558c-0.289,0.28-0.553,0.799-0.533,1.233c0.012,0.177,0.152,0.383,0.289,0.478
		c0.14,0.093,0.278,0.069,0.284-0.185c-0.008-0.004-0.029-0.012-0.049-0.017c0.379-0.045,0.294,0.419,0.085,0.589
		c-0.215,0.172-0.653,0.12-0.883-0.113c-0.214-0.213-0.271-0.519-0.23-0.812c0.035-0.294,0.158-0.573,0.285-0.766
		c0.44-0.654,1.197-0.965,1.879-1.043c-0.046-0.063-0.092-0.129-0.137-0.195c-0.062,0.009-0.123,0.021-0.183,0.025
		c0-0.074,0.024-0.147,0.054-0.219c-0.09-0.14-0.178-0.279-0.263-0.424c-0.036,0.083-0.077,0.165-0.125,0.243
		c-0.177,0.284-0.441,0.521-0.848,0.534c-0.458,0.021-0.853-0.211-0.818-0.688c0.07-0.668,0.754-0.449,0.526-0.187
		c-0.02-0.266-0.264-0.201-0.259,0.048c0.012,0.25,0.324,0.356,0.518,0.371c0.376,0.024,0.696-0.204,0.908-0.494
		c-0.064-0.109-0.127-0.226-0.189-0.34c-0.017,0.192-0.159,0.271-0.309,0.38c-0.095,0.07-0.153,0.138-0.195,0.228
		c-0.006-0.099-0.034-0.177-0.097-0.268c-0.104-0.146-0.203-0.265-0.122-0.461c-0.166-0.004,0.014-0.304,0.079-0.364
		c-0.167-0.038,0.008-0.229,0.212-0.399c-0.031-0.068-0.061-0.141-0.091-0.211c-0.026,0.037-0.053,0.074-0.079,0.108
		c-0.233,0.315-0.478,0.576-0.587,0.343c-0.087,0.113-0.546,0.512-0.615,0.238c-0.311,0.198-0.558,0.063-0.853-0.062
		c-0.186-0.076-0.335-0.103-0.505-0.084c0.137-0.104,0.226-0.219,0.314-0.403c0.14-0.294,0.224-0.558,0.588-0.622
		c-0.026-0.047-0.025-0.085-0.006-0.116c0.049-0.081,0.221-0.115,0.38-0.132c0.103-0.008,0.199-0.005,0.245,0.004
		c-0.01-0.032-0.013-0.061-0.009-0.084c0.015-0.096,0.145-0.121,0.323-0.108c0.141,0.012,0.311,0.041,0.479,0.076
		c-0.022-0.062-0.042-0.123-0.063-0.186c-0.035,0.002-0.07,0.003-0.104,0.003C7.939,21.5,7.758,21.462,7.844,21.34
		c-0.087-0.002-0.427-0.099-0.308-0.215c-0.199-0.088-0.195-0.247-0.225-0.424c-0.018-0.111-0.052-0.187-0.115-0.263
		c0.094,0.037,0.181,0.047,0.299,0.033c0.18-0.022,0.332-0.06,0.475,0.06c-0.028-0.101-0.054-0.201-0.08-0.304
		c-0.349-0.062-0.732-0.004-0.985,0.272c-0.13,0.146-0.281,0.437-0.119,0.627c0.165,0.187,0.386,0.066,0.223-0.143
		c0.342,0.039-0.003,0.664-0.512,0.226c-0.353-0.32-0.226-0.758,0.117-1.062C7,19.81,7.451,19.86,7.839,20.024
		c-0.021-0.084-0.039-0.17-0.058-0.254c-0.406-0.113-0.861-0.108-1.285,0.062c-0.374,0.149-0.818,0.524-0.973,0.92
		c-0.123,0.331,0.172,0.94,0.403,0.486c-0.005-0.009-0.022-0.022-0.038-0.034c0.358,0.111,0.088,0.492-0.173,0.558
		c-0.272,0.063-0.637-0.152-0.749-0.445c-0.217-0.541,0.302-1.146,0.678-1.394c0.648-0.431,1.457-0.446,2.115-0.252
		c-0.017-0.078-0.035-0.157-0.052-0.237c-0.054-0.016-0.108-0.027-0.16-0.043c0.026-0.065,0.07-0.121,0.119-0.176
		c-0.031-0.167-0.062-0.335-0.089-0.505c-0.296,0.304-0.697,0.523-1.179,0.359c-0.429-0.151-0.723-0.502-0.516-0.937
		c0.287-0.6,0.863-0.159,0.559,0.011c0.07-0.256-0.185-0.28-0.261-0.045c-0.076,0.237,0.169,0.447,0.352,0.53
		c0.342,0.158,0.716,0.064,1.013-0.127c-0.019-0.129-0.037-0.259-0.054-0.39c-0.088,0.165-0.243,0.19-0.417,0.237
		c-0.114,0.031-0.192,0.076-0.263,0.145c0.027-0.094,0.031-0.178,0.006-0.287c-0.04-0.175-0.103-0.319,0.043-0.479
		c-0.158-0.062,0.12-0.285,0.199-0.319c-0.145-0.095,0.08-0.214,0.327-0.308c-0.005-0.076-0.01-0.154-0.014-0.231
		c-0.035,0.024-0.07,0.049-0.106,0.073c-0.332,0.223-0.643,0.386-0.669,0.127c-0.123,0.08-0.687,0.299-0.66,0.02
		c-0.362,0.081-0.54-0.128-0.782-0.342c-0.152-0.134-0.285-0.205-0.452-0.244c0.163-0.05,0.291-0.131,0.433-0.274
		c0.226-0.229,0.389-0.45,0.755-0.396c-0.01-0.051,0.003-0.088,0.031-0.11c0.074-0.062,0.248-0.04,0.397,0
		c0.1,0.025,0.189,0.06,0.231,0.083c0-0.035,0.007-0.062,0.018-0.083c0.048-0.087,0.178-0.068,0.341,0
		c0.131,0.056,0.282,0.14,0.43,0.229c0-0.065-0.003-0.132-0.003-0.199c-0.033-0.009-0.066-0.02-0.097-0.029
		c-0.211-0.071-0.373-0.165-0.252-0.254c-0.082-0.029-0.374-0.23-0.225-0.305c-0.161-0.146-0.107-0.298-0.08-0.475
		c0.017-0.112,0.009-0.195-0.027-0.286c0.077,0.062,0.157,0.1,0.273,0.123c0.18,0.035,0.337,0.047,0.436,0.209
		c0.005-0.106,0.01-0.213,0.017-0.318c-0.314-0.169-0.697-0.231-1.022-0.046c-0.17,0.098-0.404,0.327-0.31,0.559
		c0.097,0.228,0.344,0.184,0.256-0.066c0.312,0.146-0.211,0.63-0.556,0.053c-0.233-0.414,0.021-0.788,0.442-0.973
		c0.474-0.204,0.889-0.013,1.207,0.267c0.007-0.088,0.014-0.176,0.022-0.264c-0.351-0.236-0.789-0.372-1.245-0.34
		c-0.397,0.027-0.939,0.246-1.209,0.573c-0.218,0.274-0.131,0.941,0.232,0.585c-0.003-0.01-0.014-0.028-0.026-0.044
		c0.305,0.219-0.071,0.492-0.339,0.47c-0.279-0.024-0.556-0.34-0.572-0.65c-0.04-0.575,0.646-0.987,1.075-1.108
		c0.749-0.21,1.527,0.022,2.092,0.413c0.008-0.081,0.019-0.161,0.028-0.242c-0.049-0.031-0.098-0.062-0.145-0.094
		c0.046-0.055,0.107-0.095,0.172-0.132c0.021-0.172,0.046-0.342,0.072-0.511c-0.375,0.2-0.828,0.292-1.241-0.016
		c-0.358-0.274-0.535-0.699-0.203-1.047c0.459-0.483,0.871,0.113,0.528,0.181c0.147-0.223-0.087-0.324-0.233-0.124
		c-0.15,0.204,0.025,0.479,0.172,0.615c0.277,0.256,0.665,0.281,1.009,0.188c0.022-0.133,0.047-0.263,0.072-0.394
		c-0.136,0.141-0.295,0.113-0.48,0.106c-0.118-0.005-0.204,0.012-0.292,0.056c0.052-0.081,0.08-0.16,0.091-0.271
		c0.016-0.178,0.004-0.337,0.188-0.442c-0.128-0.106,0.206-0.231,0.292-0.24c-0.111-0.136,0.15-0.18,0.418-0.191
		c0.019-0.077,0.039-0.152,0.059-0.227c-0.046,0.015-0.092,0.028-0.137,0.041c-0.383,0.108-0.73,0.166-0.676-0.088
		c-0.139,0.037-0.744,0.07-0.633-0.187c-0.368-0.035-0.472-0.289-0.635-0.57c-0.102-0.175-0.206-0.285-0.352-0.375
		C5.673,9.886,5.82,9.849,6,9.756c0.289-0.149,0.513-0.307,0.842-0.138c0.007-0.052,0.033-0.081,0.067-0.095
		C7,9.489,7.157,9.566,7.286,9.65c0.086,0.057,0.159,0.117,0.19,0.152C7.488,9.769,7.504,9.747,7.521,9.73l0.324,0.109
		c0.108,0.096,0.228,0.228,0.344,0.363c0.021-0.063,0.043-0.125,0.064-0.188C8.22,9.991,8.188,9.968,8.157,9.945
		C7.98,9.811,7.856,9.67,8,9.626C7.931,9.573,7.716,9.288,7.882,9.268C7.784,9.08,7.879,8.955,7.962,8.796
		c0.05-0.099,0.072-0.179,0.071-0.275c0.05,0.085,0.113,0.146,0.214,0.206c0.163,0.097,0.314,0.158,0.35,0.36
		c0.002-0.001,0.003,0,0.005-0.001c0.041-0.098,0.082-0.194,0.124-0.29c-0.24-0.27-0.584-0.468-0.961-0.404
		C7.568,8.425,7.274,8.564,7.288,8.815c0.015,0.246,0.267,0.288,0.264,0.022c0.251,0.24-0.417,0.522-0.543-0.132
		c-0.09-0.473,0.289-0.738,0.739-0.771c0.409-0.028,0.695,0.175,0.901,0.439c0.06,0.077,0.111,0.16,0.158,0.243
		c0.036-0.08,0.075-0.159,0.112-0.237C8.668,8.031,8.305,7.747,7.854,7.614C7.469,7.501,6.877,7.519,6.519,7.745
		c-0.311,0.186-0.435,0.858,0.02,0.634c0.001-0.01-0.004-0.03-0.01-0.05c0.22,0.31-0.235,0.444-0.478,0.337
		C5.793,8.552,5.646,8.161,5.729,7.854c0.163-0.566,0.947-0.732,1.397-0.695c0.781,0.06,1.437,0.567,1.835,1.131
		c0.036-0.072,0.072-0.143,0.108-0.214C9.028,8.023,8.986,7.971,8.948,7.918C9.018,7.877,9.1,7.862,9.186,7.853
		c0.08-0.151,0.163-0.298,0.248-0.443c-0.1,0.012-0.201,0.02-0.302,0.017C8.8,7.415,8.465,7.303,8.248,6.955
		C8.006,6.57,8.005,6.106,8.442,5.905C9.051,5.631,9.205,6.339,8.864,6.27c0.22-0.149,0.04-0.331-0.17-0.202
		C8.477,6.199,8.543,6.525,8.629,6.702C8.796,7.047,9.167,7.21,9.53,7.246C9.595,7.14,9.661,7.037,9.729,6.934
		C9.724,6.927,9.718,6.921,9.716,6.911C9.532,6.994,9.397,6.91,9.223,6.831C9.115,6.783,9.03,6.767,8.931,6.775
		c0.08-0.053,0.13-0.119,0.181-0.216C9.194,6.402,9.241,6.253,9.45,6.227C9.37,6.08,9.726,6.097,9.807,6.123
		c-0.053-0.176,0.231-0.095,0.492,0.011c0.049-0.063,0.099-0.126,0.149-0.187c-0.062-0.008-0.124-0.016-0.187-0.024
		C9.872,5.862,9.526,5.776,9.678,5.571C9.536,5.546,8.963,5.337,9.172,5.147c-0.324-0.179-0.317-0.455-0.35-0.784
		c-0.02-0.205-0.062-0.346-0.157-0.49c0.156,0.073,0.306,0.098,0.509,0.085C9.498,3.937,9.78,3.899,10,4.193
		c0.03-0.044,0.065-0.06,0.101-0.057c0.095,0.007,0.203,0.146,0.283,0.279c0.053,0.089,0.093,0.175,0.107,0.22
		c0.024-0.024,0.047-0.038,0.069-0.045l0.243,0.24c0.06,0.147,0.121,0.337,0.175,0.522c0.047-0.049,0.095-0.097,0.143-0.145
		c-0.029-0.047-0.058-0.097-0.083-0.145c-0.104-0.197-0.158-0.38-0.011-0.351c-0.038-0.077-0.102-0.422,0.053-0.363
		c-0.01-0.215,0.136-0.274,0.279-0.371c0.089-0.06,0.142-0.122,0.187-0.202c0.004,0.097,0.03,0.18,0.09,0.281
		c0.098,0.163,0.201,0.291,0.145,0.478c0.029,0.004,0.045,0.02,0.056,0.04c0.064-0.051,0.128-0.101,0.194-0.149
		c-0.073-0.371-0.272-0.75-0.655-0.893c-0.188-0.072-0.51-0.084-0.618,0.141c-0.099,0.228,0.102,0.374,0.223,0.143
		c0.051,0.165-0.094,0.227-0.234,0.178c-0.14-0.051-0.285-0.224-0.185-0.549c0.147-0.461,0.618-0.519,1.022-0.318
		c0.367,0.186,0.505,0.511,0.556,0.833c0.021,0.126,0.025,0.249,0.024,0.368c0.07-0.05,0.141-0.098,0.212-0.144
		c-0.04-0.442-0.205-0.906-0.539-1.276c-0.266-0.295-0.793-0.584-1.23-0.551c-0.376,0.017-0.827,0.573-0.305,0.58
		c0.006-0.009,0.012-0.03,0.016-0.05c0.039,0.375-0.422,0.298-0.593,0.091C9.548,2.76,9.602,2.326,9.844,2.086
		c0.215-0.226,0.542-0.276,0.836-0.245c0.306,0.041,0.588,0.17,0.774,0.298c0.417,0.287,0.675,0.731,0.825,1.174
		c0.095,0.281,0.147,0.559,0.169,0.822c0.063-0.041,0.127-0.077,0.191-0.115c-0.012-0.093-0.027-0.187-0.035-0.275
		c0.105,0.009,0.205,0.062,0.302,0.122c0.14-0.075,0.281-0.143,0.423-0.207c-0.113-0.06-0.228-0.127-0.336-0.21
		c-0.261-0.204-0.486-0.479-0.473-0.884c0.008-0.225,0.076-0.437,0.207-0.581c0.135-0.135,0.325-0.218,0.564-0.165
		c0.336,0.076,0.408,0.283,0.385,0.432c-0.026,0.15-0.149,0.242-0.269,0.112c0.261,0.02,0.232-0.234-0.015-0.261
		c-0.252-0.025-0.39,0.281-0.421,0.468c-0.057,0.417,0.203,0.783,0.5,1.028c0.094-0.039,0.188-0.076,0.283-0.11
		c-0.037-0.025-0.058-0.057-0.041-0.102c-0.182-0.041-0.245-0.194-0.337-0.358c-0.059-0.103-0.118-0.167-0.201-0.22
		c0.094,0.005,0.17-0.012,0.264-0.063c0.148-0.082,0.276-0.16,0.449-0.052c0.025-0.17,0.284,0.074,0.328,0.146
		c0.052-0.143,0.184,0.015,0.294,0.221c0.033,0.061,0.064,0.126,0.092,0.188c0.077-0.015,0.154-0.032,0.232-0.044
		c-0.057-0.072-0.116-0.146-0.175-0.218c-0.238-0.305-0.448-0.595-0.211-0.647c-0.087-0.112-0.392-0.645-0.107-0.651
		c-0.13-0.346,0.06-0.553,0.268-0.823c0.13-0.16,0.2-0.298,0.232-0.467c0.067,0.159,0.164,0.277,0.326,0.407
		c0.261,0.221,0.491,0.38,0.437,0.747c0.052-0.011,0.089,0.001,0.113,0.029c0.062,0.075,0.038,0.248,0,0.397
		c-0.026,0.1-0.058,0.19-0.079,0.232c0.033-0.001,0.058,0.005,0.079,0.016c0.082,0.05,0.062,0.18,0,0.341
		c-0.067,0.176-0.173,0.388-0.268,0.579c0.069-0.004,0.139-0.008,0.209-0.008c0.016-0.079,0.035-0.163,0.058-0.241
		c0.062-0.21,0.151-0.37,0.229-0.248c0.026-0.078,0.226-0.376,0.286-0.214c0.146-0.143,0.286-0.092,0.447-0.047
		c0.103,0.03,0.181,0.032,0.271,0.007c-0.07,0.069-0.114,0.145-0.149,0.257c-0.056,0.18-0.085,0.342-0.251,0.42
		c0.029,0.046,0.009,0.087-0.029,0.121c0.077,0.012,0.152,0.026,0.227,0.04c0.24-0.307,0.425-0.736,0.275-1.127
		c-0.07-0.176-0.271-0.451-0.514-0.364c-0.232,0.079-0.205,0.333,0.044,0.259c-0.087,0.153-0.228,0.088-0.286-0.053
		c-0.056-0.141-0.033-0.359,0.277-0.505c0.447-0.205,0.812,0.117,0.916,0.559c0.098,0.394-0.065,0.71-0.274,0.964
		c-0.092,0.107-0.194,0.205-0.296,0.293c0.082,0.018,0.164,0.037,0.245,0.058c0.315-0.321,0.585-0.757,0.657-1.266
		c0.058-0.401-0.066-0.975-0.387-1.299c-0.135-0.126-0.393-0.197-0.567-0.174c-0.177,0.028-0.265,0.136-0.089,0.328
		c0.01-0.001,0.031-0.011,0.049-0.022c-0.258,0.291-0.521-0.112-0.489-0.378c0.036-0.271,0.414-0.528,0.774-0.507
		c0.33,0.021,0.6,0.222,0.771,0.482c0.179,0.251,0.263,0.559,0.282,0.786c0.048,0.508-0.13,0.982-0.376,1.387
		c-0.161,0.262-0.351,0.492-0.542,0.687c0.07,0.02,0.145,0.038,0.215,0.06C17.5,3.328,17.568,3.25,17.634,3.18
		c0.062,0.084,0.084,0.204,0.098,0.327c0.141,0.053,0.28,0.11,0.42,0.173c-0.024-0.126-0.043-0.257-0.049-0.392
		c-0.009-0.325,0.062-0.673,0.387-0.925c0.354-0.279,0.836-0.306,1.062,0.124c0.158,0.301,0.041,0.497-0.086,0.571
		c-0.129,0.072-0.282,0.039-0.262-0.133c0.158,0.207,0.332,0.024,0.195-0.18c-0.146-0.205-0.463-0.132-0.633-0.026
		c-0.258,0.15-0.388,0.419-0.445,0.697c-0.022,0.111-0.03,0.222-0.031,0.329c0.09,0.043,0.178,0.087,0.266,0.135
		c0.003-0.032,0.02-0.058,0.057-0.071c-0.084-0.172-0.006-0.317,0.062-0.494c0.043-0.111,0.056-0.197,0.042-0.293
		c0.059,0.07,0.118,0.125,0.217,0.167c0.157,0.066,0.309,0.104,0.331,0.316c0.144-0.084,0.134,0.263,0.106,0.344
		c0.18-0.058,0.082,0.254-0.03,0.522c0.063,0.047,0.127,0.098,0.188,0.146c0.013-0.075,0.022-0.15,0.033-0.225
		c0.061-0.379,0.143-0.728,0.35-0.582c0.022-0.139,0.225-0.712,0.421-0.509c0.176-0.326,0.458-0.325,0.784-0.348
		c0.205-0.017,0.353-0.063,0.496-0.156c-0.07,0.155-0.099,0.307-0.088,0.513c0.019,0.328,0.06,0.603-0.24,0.823
		c0.043,0.032,0.059,0.067,0.056,0.104c-0.011,0.095-0.149,0.201-0.283,0.279c-0.089,0.052-0.175,0.091-0.22,0.104
		c0.021,0.024,0.037,0.048,0.043,0.071l0.001-0.001c0.024,0.094-0.08,0.172-0.242,0.24l-0.001,0.001
		c-0.148,0.057-0.344,0.117-0.531,0.171c0.051,0.046,0.1,0.095,0.147,0.143c0.049-0.029,0.101-0.058,0.147-0.083
		c0.198-0.101,0.379-0.15,0.354-0.006c0.08-0.04,0.424-0.098,0.361,0.058c0.209-0.001,0.283,0.133,0.375,0.284
		c0.061,0.092,0.119,0.148,0.205,0.19c-0.099,0.005-0.183,0.031-0.285,0.092c-0.16,0.097-0.289,0.201-0.477,0.138
		c-0.002,0.018-0.009,0.03-0.017,0.041c0.058,0.069,0.116,0.138,0.174,0.209c0.36-0.079,0.724-0.285,0.849-0.653
		c0.062-0.182,0.088-0.517-0.145-0.619c-0.229-0.1-0.38,0.104-0.143,0.221c-0.33,0.115-0.271-0.605,0.371-0.415
		c0.457,0.148,0.52,0.608,0.32,1.021c-0.174,0.368-0.494,0.518-0.822,0.572c-0.105,0.016-0.214,0.02-0.318,0.02
		c0.055,0.071,0.111,0.14,0.162,0.212c0.431-0.05,0.869-0.229,1.209-0.56c0.289-0.28,0.555-0.799,0.533-1.233
		c-0.013-0.177-0.15-0.384-0.289-0.478c-0.141-0.093-0.276-0.069-0.283,0.184c0.009,0.006,0.029,0.012,0.05,0.016
		c0.01-0.002,0.021-0.003,0.028-0.004c0.033,0.013,0.002,0.011-0.029,0.004c0,0,0,0,0.001,0c-0.379,0.044-0.294-0.418-0.085-0.588
		c0.214-0.171,0.652-0.12,0.882,0.114c0.215,0.212,0.271,0.517,0.229,0.812c-0.035,0.294-0.158,0.576-0.285,0.766
		c-0.446,0.664-1.219,0.974-1.907,1.045c0.046,0.065,0.092,0.131,0.138,0.198c0.07-0.011,0.143-0.022,0.21-0.03
		c0,0.084-0.026,0.165-0.063,0.246c0.091,0.138,0.179,0.278,0.264,0.422c0.039-0.092,0.082-0.183,0.135-0.269
		c0.178-0.284,0.442-0.52,0.85-0.534c0.457-0.021,0.854,0.212,0.818,0.688c-0.07,0.669-0.755,0.451-0.525,0.185
		c0.021,0.266,0.266,0.201,0.261-0.048c-0.013-0.251-0.324-0.356-0.519-0.371c-0.385-0.026-0.711,0.215-0.922,0.514
		c0.063,0.109,0.125,0.218,0.186,0.329c0.005,0,0.01-0.001,0.016,0c0.014-0.2,0.158-0.277,0.312-0.389
		c0.095-0.07,0.152-0.137,0.195-0.226c0.006,0.097,0.032,0.174,0.096,0.266c0.104,0.144,0.203,0.265,0.123,0.46
		c0.166,0.004-0.016,0.303-0.08,0.364c0.17,0.04-0.018,0.238-0.227,0.412c0.031,0.071,0.062,0.145,0.094,0.217
		c0.028-0.043,0.061-0.084,0.09-0.126c0.234-0.314,0.479-0.576,0.588-0.342c0.088-0.114,0.546-0.511,0.615-0.239
		c0.312-0.197,0.559-0.062,0.854,0.064c0.184,0.078,0.332,0.103,0.5,0.086c-0.139,0.102-0.227,0.219-0.312,0.403
		c-0.142,0.295-0.227,0.558-0.59,0.623c0.025,0.046,0.024,0.084,0.006,0.116c-0.047,0.081-0.222,0.116-0.375,0.127
		c-0.104,0.008-0.199,0.005-0.246-0.004c0.012,0.033,0.015,0.061,0.011,0.084c-0.015,0.096-0.146,0.12-0.323,0.109
		c-0.148-0.011-0.322-0.043-0.496-0.079c0.021,0.062,0.043,0.125,0.064,0.188c0.039-0.002,0.078-0.003,0.117-0.003
		c0.227-0.003,0.406,0.035,0.32,0.157c0.086,0.001,0.428,0.099,0.309,0.215c0.199,0.088,0.195,0.248,0.226,0.424
		c0.019,0.111,0.054,0.187,0.114,0.262c-0.094-0.036-0.182-0.046-0.299-0.031c-0.186,0.023-0.342,0.064-0.488-0.068
		c0.027,0.102,0.055,0.205,0.082,0.309c0.354,0.065,0.74,0.009,0.998-0.271c0.13-0.145,0.279-0.436,0.117-0.627
		c-0.164-0.185-0.385-0.066-0.223,0.144c-0.342-0.039,0.002-0.664,0.512-0.226c0.354,0.321,0.227,0.758-0.116,1.063
		c-0.39,0.341-0.847,0.285-1.235,0.118c0.021,0.085,0.038,0.171,0.059,0.257c0.41,0.116,0.869,0.113,1.297-0.059
		c0.373-0.149,0.818-0.524,0.972-0.92c0.124-0.331-0.171-0.941-0.403-0.487c0.006,0.009,0.022,0.022,0.039,0.034
		c-0.357-0.113-0.088-0.493,0.174-0.557c0.271-0.065,0.637,0.152,0.748,0.444c0.217,0.542-0.302,1.146-0.678,1.394
		c-0.65,0.433-1.465,0.447-2.125,0.248c0.018,0.081,0.037,0.16,0.055,0.241c0.058,0.015,0.112,0.029,0.168,0.045
		c-0.025,0.068-0.074,0.126-0.125,0.182c0.031,0.167,0.062,0.334,0.09,0.504c0.298-0.305,0.701-0.531,1.187-0.365
		c0.431,0.151,0.724,0.502,0.517,0.935c-0.285,0.601-0.863,0.161-0.559-0.009c-0.07,0.257,0.186,0.28,0.262,0.045
		c0.074-0.239-0.17-0.449-0.354-0.532c-0.346-0.159-0.723-0.064-1.021,0.131c0.021,0.13,0.039,0.26,0.057,0.392
		c0.088-0.171,0.244-0.195,0.422-0.244c0.113-0.033,0.191-0.075,0.263-0.144c-0.026,0.093-0.03,0.177-0.006,0.286
		c0.039,0.175,0.104,0.321-0.043,0.479c0.153,0.061-0.123,0.284-0.203,0.319c0.146,0.095-0.081,0.216-0.33,0.31
		c0.007,0.077,0.013,0.154,0.017,0.232c0.037-0.025,0.072-0.051,0.107-0.075c0.331-0.223,0.645-0.385,0.669-0.127
		c0.123-0.079,0.688-0.298,0.66-0.019c0.36-0.081,0.54,0.128,0.782,0.342c0.15,0.134,0.283,0.205,0.449,0.244
		c-0.161,0.05-0.291,0.131-0.433,0.275c-0.227,0.231-0.39,0.452-0.756,0.397c0.011,0.051-0.003,0.088-0.03,0.111
		c-0.074,0.062-0.248,0.039-0.396,0c-0.102-0.026-0.188-0.06-0.23-0.083c0,0.035-0.008,0.062-0.019,0.083
		c-0.05,0.086-0.179,0.067-0.343,0c-0.131-0.057-0.281-0.141-0.43-0.229c0,0.066,0.002,0.132,0.002,0.198
		c0.034,0.01,0.066,0.02,0.098,0.031c0.213,0.07,0.373,0.165,0.254,0.254c0.082,0.029,0.374,0.23,0.225,0.304
		c0.161,0.147,0.107,0.297,0.08,0.475c-0.02,0.112-0.009,0.195,0.026,0.286c-0.077-0.063-0.157-0.102-0.273-0.124
		c-0.178-0.036-0.334-0.048-0.433-0.207c-0.008,0.106-0.012,0.215-0.018,0.317c0.312,0.168,0.694,0.229,1.02,0.045
		c0.17-0.1,0.402-0.327,0.311-0.559c-0.099-0.229-0.346-0.187-0.258,0.064c-0.312-0.146,0.212-0.63,0.559-0.053
		c0.231,0.413-0.021,0.786-0.442,0.972c-0.474,0.203-0.888,0.015-1.204-0.264c-0.007,0.089-0.014,0.177-0.021,0.264
		c0.352,0.234,0.787,0.37,1.24,0.338c0.398-0.026,0.94-0.247,1.209-0.573c0.219-0.273,0.131-0.94-0.232-0.584
		c0.003,0.01,0.015,0.026,0.025,0.043c-0.305-0.219,0.071-0.492,0.34-0.471C26.887,16.277,27.166,16.595,27.178,16.9z M24.1,16.374
		c0.031,0.007,0.063,0.014,0.101,0.02c0.062,0.01,0.104,0.027,0.146,0.061c-0.021-0.047-0.024-0.091-0.021-0.149
		c0.014-0.094,0.037-0.173-0.049-0.249c0.08-0.039-0.078-0.145-0.121-0.16c0.047-0.034,0.016-0.068-0.049-0.1
		C24.109,15.989,24.105,16.184,24.1,16.374z M7.346,15.071c-0.032-0.007-0.065-0.012-0.101-0.018
		c-0.063-0.012-0.105-0.029-0.147-0.062c0.018,0.047,0.025,0.091,0.018,0.149c-0.012,0.095-0.036,0.174,0.049,0.25
		c-0.08,0.04,0.077,0.144,0.121,0.16c-0.047,0.033-0.014,0.068,0.049,0.1C7.336,15.456,7.339,15.265,7.346,15.071z M8.229,21.402
		c-0.06-0.18-0.117-0.362-0.172-0.547c-0.033,0.004-0.066,0.01-0.102,0.016c-0.063,0.01-0.111,0.006-0.16-0.012
		c0.032,0.039,0.053,0.078,0.064,0.136c0.018,0.091,0.02,0.173,0.124,0.219c-0.064,0.062,0.118,0.11,0.164,0.111
		C8.113,21.372,8.156,21.395,8.229,21.402z M8.483,9.383c-0.031-0.021-0.066-0.039-0.104-0.06c-0.056-0.03-0.091-0.061-0.12-0.105
		c0.004,0.051-0.006,0.093-0.033,0.145c-0.044,0.082-0.089,0.15-0.033,0.249C8.105,9.622,8.22,9.771,8.257,9.8
		C8.198,9.818,8.226,9.867,8.285,9.921C8.348,9.739,8.414,9.56,8.483,9.383z M20.322,5.207c0.129,0.128,0.256,0.259,0.379,0.397
		c0.045-0.017,0.088-0.048,0.137-0.08c0.052-0.036,0.096-0.053,0.148-0.059c-0.045-0.019-0.078-0.046-0.11-0.092
		c-0.052-0.074-0.085-0.147-0.196-0.141c0.032-0.082-0.152-0.043-0.193-0.022C20.496,5.139,20.417,5.161,20.322,5.207z M15.74,3.135
		c0.153,0,0.306,0.008,0.458,0.021c0.077-0.05,0.084-0.134,0.106-0.229c0.016-0.062,0.033-0.104,0.064-0.144
		c-0.045,0.017-0.084,0.02-0.134,0.008c-0.082-0.022-0.151-0.045-0.222,0.039c-0.033-0.081-0.129,0.075-0.143,0.118
		C15.823,2.872,15.772,2.999,15.74,3.135z M11.183,4.978c-0.071-0.013-0.048,0.071,0.001,0.169c0.129-0.126,0.261-0.246,0.394-0.36
		c-0.014-0.056-0.051-0.104-0.089-0.16c-0.036-0.053-0.053-0.095-0.059-0.146c-0.02,0.043-0.044,0.077-0.089,0.11
		c-0.072,0.052-0.143,0.088-0.135,0.198C11.123,4.757,11.162,4.937,11.183,4.978z M11.092,26.252
		c-0.128-0.128-0.254-0.259-0.378-0.397c-0.035,0.019-0.069,0.043-0.107,0.067c-0.052,0.036-0.096,0.054-0.148,0.06
		c0.045,0.02,0.078,0.047,0.11,0.093c0.052,0.073,0.085,0.147,0.196,0.141c-0.032,0.082,0.151,0.043,0.193,0.022
		C10.946,26.299,11.01,26.288,11.092,26.252z M15.693,28.354c-0.165,0-0.328-0.01-0.491-0.024c-0.037,0.049-0.046,0.117-0.063,0.19
		c-0.014,0.061-0.033,0.104-0.065,0.144c0.043-0.019,0.082-0.021,0.133-0.008c0.081,0.021,0.152,0.045,0.222-0.039
		c0.033,0.08,0.129-0.075,0.143-0.119C15.613,28.564,15.658,28.472,15.693,28.354z M20.259,26.47c0.062,0.01,0.05-0.058,0.014-0.14
		c-0.131,0.127-0.264,0.248-0.397,0.363c0.019,0.043,0.049,0.082,0.079,0.125c0.035,0.054,0.053,0.096,0.059,0.146
		c0.02-0.043,0.044-0.075,0.089-0.108c0.072-0.053,0.142-0.088,0.136-0.198C20.32,26.689,20.281,26.511,20.259,26.47z M22.75,15.745
		c0-6.204-3.153-11.251-7.029-11.251S8.692,9.541,8.692,15.745s3.153,11.251,7.029,11.251S22.75,21.949,22.75,15.745z
		 M23.167,21.534c-0.062,0.182-0.129,0.36-0.196,0.536c0.028,0.017,0.06,0.033,0.093,0.051c0.055,0.031,0.09,0.062,0.118,0.105
		c-0.004-0.052,0.007-0.095,0.033-0.146c0.044-0.083,0.089-0.149,0.032-0.249c0.09-0.01-0.026-0.159-0.063-0.188
		C23.238,21.629,23.219,21.585,23.167,21.534z M23.373,10.59c0.035-0.002,0.074-0.009,0.115-0.015c0.063-0.01,0.11-0.007,0.16,0.011
		c-0.033-0.039-0.054-0.078-0.063-0.135c-0.021-0.092-0.021-0.174-0.125-0.219c0.063-0.062-0.118-0.111-0.164-0.111
		c0.034-0.051-0.017-0.073-0.099-0.08C23.259,10.222,23.32,10.404,23.373,10.59z M26.283,18.441
		c0.188-0.092,0.398-0.202,0.553-0.367c-0.596,0.182-1.092,0.252-1.706,0.176c0.237,0.087,0.42,0.172,0.55,0.29
		c0.188,0.169,0.25,0.406,0.201,0.809c0.212-0.031,0.285-0.303,0.298-0.521c0.322,0.134,0.64,0.357,0.948,0.506
		c-0.062-0.227-0.217-0.473-0.415-0.649C26.578,18.564,26.431,18.477,26.283,18.441z M23.92,21.715l-0.323-0.108
		C23.732,21.724,23.847,21.781,23.92,21.715z M24.931,23.144l-0.02-0.025C24.923,23.148,24.936,23.177,24.931,23.144z
		 M23.322,24.171c0.189,0.165,0.33,0.311,0.408,0.467c0.114,0.226,0.094,0.475-0.107,0.832c0.207,0.049,0.383-0.181,0.474-0.383
		c0.256,0.244,0.463,0.568,0.695,0.821c0.032-0.237-0.024-0.532-0.146-0.771c-0.08-0.16-0.186-0.297-0.312-0.381
		c0.213-0.021,0.449-0.052,0.646-0.158C24.363,24.568,23.869,24.46,23.322,24.171z M21.128,28.59
		c-0.001-0.011-0.002-0.021-0.004-0.03C21.117,28.592,21.115,28.623,21.128,28.59z M19.197,28.683
		c0.074,0.241,0.112,0.439,0.09,0.616c-0.034,0.244-0.192,0.457-0.584,0.634c0.146,0.166,0.435,0.069,0.632-0.057
		c0.069,0.344,0.049,0.741,0.085,1.087c0.178-0.192,0.318-0.476,0.359-0.743c0.026-0.185,0.015-0.357-0.047-0.496
		c0.192,0.09,0.424,0.191,0.658,0.194C19.863,29.58,19.504,29.22,19.197,28.683z M14.644,30.562
		c-0.031,0.018-0.056,0.037-0.021,0.022L14.644,30.562z M12.863,29.632c-0.217,0.139-0.475,0.135-0.862-0.048
		c-0.035,0.214,0.223,0.372,0.441,0.454c-0.221,0.271-0.541,0.501-0.785,0.747c0.259,0.021,0.566-0.047,0.806-0.188
		c0.159-0.095,0.285-0.214,0.354-0.349c0.05,0.215,0.125,0.443,0.277,0.632c-0.084-0.625-0.035-1.122,0.186-1.703
		C13.141,29.386,13.012,29.539,12.863,29.632z M8.856,27.089c-0.033-0.007-0.063-0.009-0.031,0.006
		C8.836,27.091,8.846,27.09,8.856,27.089z M8.704,25.177c-0.24,0.086-0.435,0.135-0.607,0.125c-0.245-0.019-0.464-0.152-0.667-0.51
		c-0.148,0.158-0.038,0.422,0.098,0.602c-0.335,0.099-0.73,0.123-1.062,0.196c0.193,0.144,0.479,0.24,0.744,0.259
		c0.176,0.012,0.347-0.015,0.484-0.084c-0.084,0.193-0.172,0.416-0.178,0.646C7.847,25.88,8.181,25.511,8.704,25.177z M5.882,21.208
		c-0.027-0.021-0.054-0.031-0.03-0.009C5.862,21.202,5.873,21.205,5.882,21.208z M4.924,20.092c0.509-0.354,0.958-0.575,1.568-0.69
		c-0.253-0.01-0.455-0.035-0.612-0.107c-0.224-0.104-0.365-0.309-0.438-0.707c-0.197,0.097-0.179,0.375-0.125,0.586
		c-0.348-0.029-0.719-0.147-1.058-0.192c0.13,0.194,0.354,0.384,0.594,0.492c0.161,0.072,0.331,0.11,0.482,0.099
		C5.184,19.72,5.018,19.888,4.924,20.092z M5.172,14.723c-0.019-0.027-0.041-0.049-0.025-0.018L5.172,14.723z M5.158,13.003
		c-0.189,0.092-0.4,0.202-0.552,0.368c0.595-0.181,1.09-0.252,1.706-0.176c-0.238-0.086-0.421-0.172-0.55-0.29
		c-0.187-0.169-0.25-0.405-0.201-0.807c-0.212,0.03-0.285,0.302-0.298,0.52c-0.322-0.134-0.639-0.358-0.948-0.506
		c0.064,0.226,0.215,0.474,0.415,0.651C4.862,12.881,5.01,12.97,5.158,13.003z M7.522,9.73l0.323,0.109
		C7.712,9.723,7.594,9.664,7.522,9.73z M6.51,8.304l0.019,0.025C6.519,8.297,6.506,8.269,6.51,8.304z M8.122,7.274
		C7.93,7.109,7.792,6.965,7.713,6.809C7.599,6.583,7.619,6.334,7.822,5.976c-0.209-0.048-0.383,0.18-0.474,0.382
		C7.092,6.115,6.885,5.79,6.653,5.537C6.622,5.775,6.677,6.069,6.799,6.31c0.08,0.16,0.186,0.295,0.312,0.379
		C6.897,6.71,6.662,6.741,6.464,6.849C7.08,6.877,7.572,6.985,8.122,7.274z M10.561,4.59l0.243,0.24
		C10.733,4.667,10.653,4.562,10.561,4.59z M10.314,2.856c0.001,0.011,0.003,0.021,0.004,0.031
		C10.325,2.853,10.327,2.823,10.314,2.856z M12.244,2.764c-0.074-0.242-0.112-0.44-0.091-0.617c0.036-0.243,0.194-0.457,0.585-0.631
		c-0.146-0.166-0.434-0.072-0.63,0.055c-0.071-0.344-0.05-0.742-0.085-1.088c-0.178,0.194-0.319,0.475-0.361,0.745
		c-0.027,0.182-0.014,0.357,0.047,0.496c-0.192-0.09-0.423-0.193-0.658-0.196C11.578,1.866,11.938,2.227,12.244,2.764z
		 M16.798,0.883c0.029-0.018,0.055-0.037,0.021-0.024L16.798,0.883z M18.578,1.813c0.219-0.138,0.477-0.132,0.863,0.049
		C19.476,1.647,19.217,1.49,19,1.408c0.221-0.271,0.541-0.501,0.784-0.747c-0.258-0.021-0.564,0.047-0.805,0.19
		c-0.16,0.092-0.285,0.211-0.354,0.347c-0.051-0.215-0.125-0.443-0.277-0.633c0.084,0.625,0.036,1.123-0.188,1.706
		C18.301,2.061,18.429,1.907,18.578,1.813z M22.738,6.271c0.238-0.086,0.436-0.137,0.606-0.125c0.245,0.018,0.464,0.153,0.667,0.508
		c0.148-0.158,0.038-0.422-0.098-0.6c0.334-0.099,0.729-0.123,1.062-0.198c-0.192-0.143-0.479-0.241-0.743-0.257
		c-0.177-0.012-0.348,0.013-0.484,0.082c0.085-0.194,0.173-0.416,0.179-0.646C23.594,5.565,23.26,5.935,22.738,6.271z M25.59,10.247
		c-0.013-0.003-0.021-0.006-0.03-0.008C25.587,10.257,25.613,10.271,25.59,10.247z M26.518,11.353
		c-0.509,0.356-0.958,0.575-1.565,0.692c0.252,0.01,0.453,0.035,0.611,0.108c0.225,0.104,0.364,0.308,0.438,0.707
		c0.195-0.095,0.178-0.375,0.125-0.586c0.348,0.029,0.719,0.145,1.059,0.19c-0.13-0.195-0.354-0.384-0.594-0.493
		c-0.164-0.072-0.333-0.11-0.482-0.097C26.258,11.727,26.424,11.558,26.518,11.353z"/>
</g>
<g>
</g>
<g>
</g>
<g>
</g>
<g>
</g>
<g>
</g>
<g>
</g>
<g>
</g>
<g>
</g>
<g>
</g>
<g>
</g>
<g>
</g>
<g>
</g>
<g>
</g>
<g>
</g>
<g>
</g>
</svg>
