<?xml version="1.0" encoding="iso-8859-1"?>
<!-- Generator: Adobe Illustrator 16.0.0, SVG Export Plug-In . SVG Version: 6.00 Build 0)  -->
<!DOCTYPE svg PUBLIC "-//W3C//DTD SVG 1.1//EN" "http://www.w3.org/Graphics/SVG/1.1/DTD/svg11.dtd">
<svg version="1.1" id="Capa_1" xmlns="http://www.w3.org/2000/svg" xmlns:xlink="http://www.w3.org/1999/xlink" x="0px" y="0px"
	 width="364.009px" height="364.009px" viewBox="0 0 364.009 364.009" style="enable-background:new 0 0 364.009 364.009;"
	 xml:space="preserve">
<g>
	<g>
		<path d="M256.6,121.533c0,0,93.756-139.781-141.83-119.527c-1.722,1.985,0.345-1.028-4.472,5.155
			C304.348,15.061,256.6,121.533,256.6,121.533z"/>
		<path d="M265.183,168.235c29.894,15.116-12.354,23.01-21.287,20.429c-30.221-15.968,63.535-125.172-51.239-162.959
			c70.472,41.564,37.145,92.383,37.145,92.383s22.327-87.228-121.92-104.744c25.754,13.055,22.479,19.227,40.187,25.071
			c77.962,19.226,43.958,82.435,40.525,94.106c-35.037,58.385-115.738,69.374-111.96,140.125
			c3.784,70.752,86.207,56.191,80.023,15.461c-27.481,24.721-54.275-19.582-38.47-50.492c16.12-31.878,39.316-47.759,57.802-65.444
			c-23.974,40.782-48.834,47.112-51.082,62.268c-9.277,51.169,27.984,41.279,27.984,41.279s-36.76-22.315,0-57.697
			c-16.494,78.996,80.018,126.055-1.033,145.964c98.566,1.728,35.37-87.917,30.915-98.905
			c-15.799-56.318,26.606-121.967,29.525-171.373c22.14,14.363-41.559,125.016-21.638,157.303
			c19.921,32.264,39.843,3.082,46.02,0.688c-53.907,13.382-21.977-59.074-21.977-59.074s24.732,37.099,58.047,11.327
			C306.053,178.196,273.777,156.902,265.183,168.235z"/>
	</g>
</g>
<g>
</g>
<g>
</g>
<g>
</g>
<g>
</g>
<g>
</g>
<g>
</g>
<g>
</g>
<g>
</g>
<g>
</g>
<g>
</g>
<g>
</g>
<g>
</g>
<g>
</g>
<g>
</g>
<g>
</g>
</svg>
