<?xml version="1.0" encoding="iso-8859-1"?>
<!-- Generator: Adobe Illustrator 16.0.0, SVG Export Plug-In . SVG Version: 6.00 Build 0)  -->
<!DOCTYPE svg PUBLIC "-//W3C//DTD SVG 1.1//EN" "http://www.w3.org/Graphics/SVG/1.1/DTD/svg11.dtd">
<svg version="1.1" id="Capa_1" xmlns="http://www.w3.org/2000/svg" xmlns:xlink="http://www.w3.org/1999/xlink" x="0px" y="0px"
	 width="31.577px" height="31.577px" viewBox="0 0 31.577 31.577" style="enable-background:new 0 0 31.577 31.577;"
	 xml:space="preserve">
<g>
	<path d="M26.028,6.921C25.824,3.164,25.499,1.832,24.05,0c-0.43,2.063-0.258,2.493-8.425,5.029
		C1.61,8.855,6.304,19.216,6.304,19.216l0.002-0.002c0.16,0.802,0.39,1.603,0.678,2.378c0.706,2.067,2.622,3.396,2.252,3.934
		s-1.427,6.039-1.427,6.039l8.461,0.013c0,0-0.692-0.392-1.144-0.908c-0.31-0.354,0.094-1.056,0.541-2.271
		c0.062-0.164,0.428,0.068,0.663-0.485c0.234-0.554-0.232-0.833-0.177-1c0.049-0.146,0.085-0.129,0.116-0.244
		c0.063-0.338,0.215-0.541,0.423-0.661c3.152,0.096,3.975-0.062,3.195-2.246c0.102-0.093,0.665-0.457,0.784-0.721
		c0.119-0.261-0.163-0.326-0.163-0.326s0.207,0.012,0.359-0.229c0.152-0.239-0.262-1.178-0.262-1.178s1.046-0.229,1.274-0.621
		c0.229-0.393-1.843-2.802-1.767-3.237c0.077-0.437,0.426-0.644,0.523-0.751c0.099-0.109,0.329-1.292-0.947-3.173
		c-0.438-0.645-0.995-1.337-1.747-1.92C20.375,11.254,26.041,10.097,26.028,6.921z"/>
</g>
<g>
</g>
<g>
</g>
<g>
</g>
<g>
</g>
<g>
</g>
<g>
</g>
<g>
</g>
<g>
</g>
<g>
</g>
<g>
</g>
<g>
</g>
<g>
</g>
<g>
</g>
<g>
</g>
<g>
</g>
</svg>
