<?xml version="1.0" encoding="iso-8859-1"?>
<!-- Generator: Adobe Illustrator 16.0.0, SVG Export Plug-In . SVG Version: 6.00 Build 0)  -->
<!DOCTYPE svg PUBLIC "-//W3C//DTD SVG 1.1//EN" "http://www.w3.org/Graphics/SVG/1.1/DTD/svg11.dtd">
<svg version="1.1" id="Capa_1" xmlns="http://www.w3.org/2000/svg" xmlns:xlink="http://www.w3.org/1999/xlink" x="0px" y="0px"
	 width="379.249px" height="379.249px" viewBox="0 0 379.249 379.249" style="enable-background:new 0 0 379.249 379.249;"
	 xml:space="preserve">
<g>
	<path d="M308.47,165.838c1.145-6.592,6.422-9.721,7.905-11.362c1.482-1.646,4.974-19.513-14.328-47.923
		c-4.157-6.125-9.062-12.536-14.899-18.654l32.018-30.6l-53.9-4.052l7.157-33.77l-38.966,26.629L220.471,7.461l-29.876,36.695
		L160.725,0v49.359l-48.688-16.225l20.137,35.072c0,0-51.309,0-53.908,0c-2.592,0,24.668,31.16,24.668,31.16L63.32,116.894
		l28.247,20.219l-47.725,20.056l42.26,22.718l-33.175,27.92l33.175,10.475l-13.038,48.519l49.914-13.627
		c11.87,17.293,25.047,28.959,21.112,34.68c-5.582,8.116-21.556,91.223-21.556,91.223l127.806,0.175c0,0-10.463-5.886-17.271-13.709
		c-4.683-5.36,1.413-15.951,8.186-34.296c0.923-2.486,6.446,1.051,9.995-7.333c3.551-8.372-3.502-12.588-2.662-15.099
		c0.748-2.219,1.285-1.949,1.752-3.713c0.957-5.104,3.246-8.174,6.398-9.973c47.631,1.425,60.044-0.934,48.262-33.945
		c1.519-1.39,10.055-6.924,11.864-10.871s-2.464-4.928-2.464-4.928s3.129,0.163,5.43-3.457c2.301-3.619-3.959-17.783-3.959-17.783
		s15.812-3.469,19.268-9.389C338.597,208.81,307.325,172.424,308.47,165.838z"/>
</g>
<g>
</g>
<g>
</g>
<g>
</g>
<g>
</g>
<g>
</g>
<g>
</g>
<g>
</g>
<g>
</g>
<g>
</g>
<g>
</g>
<g>
</g>
<g>
</g>
<g>
</g>
<g>
</g>
<g>
</g>
</svg>
