<?xml version="1.0" encoding="iso-8859-1"?>
<!-- Generator: Adobe Illustrator 16.0.0, SVG Export Plug-In . SVG Version: 6.00 Build 0)  -->
<!DOCTYPE svg PUBLIC "-//W3C//DTD SVG 1.1//EN" "http://www.w3.org/Graphics/SVG/1.1/DTD/svg11.dtd">
<svg version="1.1" id="Capa_1" xmlns="http://www.w3.org/2000/svg" xmlns:xlink="http://www.w3.org/1999/xlink" x="0px" y="0px"
	 width="31.785px" height="31.785px" viewBox="0 0 31.785 31.785" style="enable-background:new 0 0 31.785 31.785;"
	 xml:space="preserve">
<g>
	<g>
		<path d="M27.021,18.621l0.688-0.885l-4.291-3.333l-0.688,0.885l-0.648-1.142l-8.049,10.367l1.211,0.418l-0.71,0.914l4.291,3.332
			l0.711-0.914l0.072,0.057l0.617,1l8.051-10.365l-1.18-0.275L27.021,18.621z M25.238,18.75l-0.696-0.542l-0.257,0.328
			c0.295,0.33,0.322,0.829,0.041,1.19c-0.279,0.36-0.772,0.459-1.164,0.258l-0.293,0.375l0.687,0.533l-0.345,0.44l-0.686-0.532
			l-0.451,0.584c0.23,0.328,0.24,0.779-0.021,1.115c-0.259,0.334-0.699,0.439-1.072,0.293l-0.377,0.486l0.685,0.531l-0.345,0.442
			l-0.686-0.532l-0.307,0.395c0.236,0.326,0.244,0.779-0.016,1.111c-0.262,0.336-0.699,0.44-1.074,0.295l-0.299,0.381l0.686,0.533
			l-0.344,0.441l-1.813-1.408l0.345-0.441l0.687,0.533l0.303-0.391c-0.216-0.326-0.216-0.763,0.037-1.089
			c0.253-0.324,0.676-0.433,1.044-0.304l0.312-0.399l-0.688-0.532l0.344-0.443l0.688,0.533l0.383-0.492
			c-0.217-0.323-0.217-0.762,0.034-1.086c0.253-0.325,0.678-0.434,1.047-0.306l0.459-0.592L21.4,19.927l0.342-0.442l0.687,0.533
			l0.335-0.433c-0.162-0.313-0.141-0.706,0.09-1.002c0.23-0.297,0.604-0.415,0.949-0.335l0.297-0.383l-0.673-0.522L23.77,16.9
			l1.814,1.408L25.238,18.75z"/>
		<path d="M14.053,19.54l0.343,0.271l0.51-0.643l-0.34-0.271l0.353-0.444l0.341,0.271l0.512-0.643l-0.341-0.27l0.59-0.742
			l0.34,0.271l0.512-0.644l-0.342-0.271l0.592-0.742l0.34,0.271l0.51-0.642l-0.34-0.271l0.355-0.446l0.34,0.271l0.513-0.642
			l-0.343-0.272l0.433-0.543l0.343,0.271l0.51-0.643l-0.34-0.271l2.187-2.747l0.252,0.202V10.22l0.002,0.001l5.126-0.584
			l0.374,0.297l2.271-2.855L20.756,0l-2.271,2.856l0.324,0.258l0.581,5.118l-0.003,0.005l0.186,0.148l-2.184,2.747l-0.342-0.271
			l-0.514,0.643l0.344,0.271l-0.434,0.543l-0.342-0.271l-0.51,0.643l0.34,0.271l-0.354,0.445l-0.342-0.271l-0.51,0.642l0.34,0.271
			l-0.59,0.742l-0.34-0.271l-0.512,0.642l0.342,0.271l-0.592,0.743l-0.34-0.272l-0.513,0.642l0.343,0.271l-0.354,0.444l-0.342-0.271
			l-0.513,0.643l0.343,0.271l-0.59,0.74l-0.342-0.271l-0.511,0.644l0.34,0.271l-0.353,0.444l-0.343-0.271l-0.51,0.644l0.34,0.271
			l-0.459,0.577l-0.34-0.271l-0.508,0.645l0.343,0.271l-0.355,0.444l-0.34-0.271l-0.513,0.643l0.343,0.271l-0.546,0.686L7.311,23.1
			l-0.513,0.644l0.343,0.271l-0.355,0.445l-0.341-0.271l-0.512,0.644l0.342,0.271l-0.589,0.741l-0.343-0.271l-0.51,0.643l0.34,0.271
			L4.82,26.932L4.477,26.66l-0.51,0.643l0.34,0.271L3.849,28.15l-0.34-0.271l-0.513,0.643l0.343,0.271l-0.355,0.445l-0.341-0.271
			l-0.512,0.643l0.342,0.271L2.29,30.109l2.053,1.635l0.184-0.23l0.342,0.271l0.511-0.643l-0.341-0.271l0.354-0.445l0.34,0.271
			l0.513-0.643l-0.34-0.271l0.457-0.577l0.342,0.271l0.51-0.643l-0.34-0.271l0.355-0.444l0.34,0.271l0.511-0.643L7.74,27.475
			l0.59-0.74l0.34,0.271l0.513-0.644l-0.34-0.271l0.353-0.444l0.343,0.271l0.51-0.644l-0.34-0.271l0.545-0.687l0.34,0.271
			l0.513-0.642l-0.34-0.271l0.353-0.445l0.34,0.271l0.513-0.643l-0.34-0.271l0.459-0.577l0.34,0.271l0.511-0.644l-0.341-0.271
			l0.354-0.445l0.343,0.271l0.51-0.643l-0.34-0.271L14.053,19.54z M20.23,7.176l-0.365-3.221l1.795,1.427L20.23,7.176z
			 M22.721,9.167l1.432-1.801l1.802,1.433L22.721,9.167z M21.994,6.493l0.41-0.516l1,0.795l-0.41,0.516L21.994,6.493z M20.959,0.736
			l7.865,6.257l-0.383,0.483l-7.867-6.257L20.959,0.736z M20.294,1.571l7.866,6.257l-0.385,0.483L19.91,2.053L20.294,1.571z
			 M19.264,2.867l0.387-0.483l7.863,6.258L27.13,9.125L19.264,2.867z"/>
	</g>
</g>
<g>
</g>
<g>
</g>
<g>
</g>
<g>
</g>
<g>
</g>
<g>
</g>
<g>
</g>
<g>
</g>
<g>
</g>
<g>
</g>
<g>
</g>
<g>
</g>
<g>
</g>
<g>
</g>
<g>
</g>
</svg>
