<?xml version="1.0" encoding="iso-8859-1"?>
<!-- Generator: Adobe Illustrator 16.0.0, SVG Export Plug-In . SVG Version: 6.00 Build 0)  -->
<!DOCTYPE svg PUBLIC "-//W3C//DTD SVG 1.1//EN" "http://www.w3.org/Graphics/SVG/1.1/DTD/svg11.dtd">
<svg version="1.1" id="Capa_1" xmlns="http://www.w3.org/2000/svg" xmlns:xlink="http://www.w3.org/1999/xlink" x="0px" y="0px"
	 width="380.58px" height="380.58px" viewBox="0 0 380.58 380.58" style="enable-background:new 0 0 380.58 380.58;"
	 xml:space="preserve">
<g>
	<path d="M261.964,122.394L261.964,122.394h0.023l61.387-6.995l4.473,3.556l27.207-34.202L248.513,0l-27.196,34.196l3.876,3.1
		l6.972,61.282l-0.047,0.07l2.23,1.769L208.18,133.3l-4.087-3.24l-6.119,7.689l4.087,3.252l-5.185,6.504l-4.081-3.252l-6.119,7.701
		l4.087,3.24l-4.232,5.331l-4.087-3.24l-6.125,7.689l4.081,3.252l-7.07,8.886l-4.075-3.252l-6.125,7.689l4.081,3.252l-7.07,8.898
		l-4.087-3.258l-6.113,7.695l4.081,3.246l-4.233,5.325l-4.093-3.246l-6.119,7.707l4.087,3.223l-7.053,8.874l-4.087-3.246
		l-6.125,7.695l4.076,3.258l-4.233,5.313l-4.075-3.234l-6.125,7.684l4.093,3.246l-5.5,6.913l-4.093-3.246l-6.119,7.684l4.087,3.258
		l-4.233,5.336l-4.099-3.258l-6.113,7.695l4.081,3.258l-6.533,8.209l-4.087-3.258l-6.124,7.695l4.081,3.246l-4.233,5.348
		l-4.093-3.258l-6.119,7.707l4.087,3.234l-7.064,8.887l-4.093-3.258l-6.118,7.695l4.087,3.234l-4.245,5.336l-4.087-3.258
		l-6.125,7.707l4.093,3.246l-5.477,6.913l-4.082-3.246l-6.13,7.706l4.087,3.247l-4.245,5.325l-4.075-3.246l-6.125,7.683l4.075,3.247
		l-2.195,2.756l24.592,19.582l2.201-2.768l4.075,3.246l6.125-7.707l-4.075-3.234l4.244-5.324l4.075,3.246l6.125-7.695l-4.081-3.234
		l5.488-6.914l4.093,3.235l6.119-7.684l-4.076-3.246l4.233-5.325l4.075,3.246l6.125-7.695l-4.093-3.234l7.071-8.874l4.075,3.246
		l6.125-7.707l-4.093-3.234l4.245-5.337l4.093,3.246l6.119-7.707l-4.087-3.234l6.54-8.232l4.081,3.246l6.119-7.684l-4.076-3.246
		l4.245-5.324l4.075,3.234l6.125-7.695l-4.081-3.246l5.488-6.912l4.081,3.246l6.119-7.707l-4.075-3.246l4.233-5.313l4.075,3.234
		l6.136-7.694l-4.087-3.235l7.065-8.897l4.087,3.246l6.125-7.684l-4.075-3.246l4.233-5.325l4.076,3.246l6.124-7.683l-4.081-3.247
		l7.071-8.886l4.087,3.235l6.107-7.695l-4.075-3.235l7.064-8.886l4.087,3.252l6.119-7.701l-4.087-3.241l4.25-5.331l4.076,3.235
		l6.13-7.695l-4.087-3.24l5.185-6.51l4.087,3.246l6.119-7.689l-4.075-3.241l26.168-32.882L261.964,122.394z M272.03,109.759
		l17.142-21.562l21.556,17.147L272.03,109.759z M250.964,8.811l94.164,74.926l-4.601,5.774l-94.164-74.926L250.964,8.811z
		 M243.001,18.823l94.164,74.92l-4.602,5.792l-94.164-74.926L243.001,18.823z M235.259,28.544l94.176,74.92l-4.601,5.792
		l-94.188-74.926L235.259,28.544z M242.229,85.926l-4.391-38.563l21.475,17.078L242.229,85.926z M275.323,87.263l-11.981-9.517
		l4.916-6.183l11.97,9.523L275.323,87.263z"/>
</g>
<g>
</g>
<g>
</g>
<g>
</g>
<g>
</g>
<g>
</g>
<g>
</g>
<g>
</g>
<g>
</g>
<g>
</g>
<g>
</g>
<g>
</g>
<g>
</g>
<g>
</g>
<g>
</g>
<g>
</g>
</svg>
