<?xml version="1.0" encoding="iso-8859-1"?>
<!-- Generator: Adobe Illustrator 16.0.0, SVG Export Plug-In . SVG Version: 6.00 Build 0)  -->
<!DOCTYPE svg PUBLIC "-//W3C//DTD SVG 1.1//EN" "http://www.w3.org/Graphics/SVG/1.1/DTD/svg11.dtd">
<svg version="1.1" id="Capa_1" xmlns="http://www.w3.org/2000/svg" xmlns:xlink="http://www.w3.org/1999/xlink" x="0px" y="0px"
	 width="31.918px" height="31.918px" viewBox="0 0 31.918 31.918" style="enable-background:new 0 0 31.918 31.918;"
	 xml:space="preserve">
<g>
	<path d="M26.14,24.722h-0.291V24.43h0.291V24.722z M16.663,24.722h0.287V24.43h-0.287V24.722z M12.643,24.722h0.287V24.43h-0.287
		V24.722z M13.791,24.722h0.287V24.43h-0.287V24.722z M16.087,24.722h0.287V24.43h-0.287V24.722z M12.068,24.722h0.287V24.43h-0.287
		V24.722z M15.514,24.722h0.287V24.43h-0.287V24.722z M14.365,24.722h0.287V24.43h-0.287V24.722z M14.939,24.722h0.287V24.43h-0.287
		V24.722z M13.216,24.722h0.288V24.43h-0.288V24.722z M7.187,24.43H6.9v0.292h0.287V24.43z M6.614,24.43H6.327v0.292h0.287V24.43z
		 M9.772,24.722h0.287V24.43H9.772V24.722z M9.197,24.722h0.287V24.43H9.197V24.722z M8.91,24.43H8.623v0.292H8.91V24.43z
		 M11.494,24.722h0.288V24.43h-0.288V24.722z M8.336,24.43H8.049v0.292h0.287V24.43z M10.92,24.722h0.287V24.43H10.92V24.722z
		 M18.383,24.722h0.287V24.43h-0.287V24.722z M23.265,24.43h-0.287v0.292h0.287V24.43z M24.986,24.43H24.7v0.292h0.286V24.43z
		 M21.831,24.722h0.287V24.43h-0.287V24.722z M25.274,24.722h0.287V24.43h-0.287V24.722z M24.413,24.43h-0.287v0.292h0.287V24.43z
		 M22.689,24.43h-0.287v0.292h0.287V24.43z M7.762,24.43H7.475v0.292h0.287V24.43z M21.254,24.722h0.289V24.43h-0.289V24.722z
		 M20.681,24.722h0.286V24.43h-0.286V24.722z M10.346,24.722h0.287V24.43h-0.287V24.722z M18.958,24.722h0.287V24.43h-0.287V24.722z
		 M17.81,24.722h0.287V24.43H17.81V24.722z M20.106,24.722h0.287V24.43h-0.287V24.722z M23.838,24.43h-0.287v0.292h0.287V24.43z
		 M17.234,24.722h0.288V24.43h-0.288V24.722z M19.531,24.722h0.288V24.43h-0.288V24.722z M6.04,24.43H5.748v0.292H6.04V24.43z
		 M6.04,17.537H5.748v0.287H6.04V17.537z M6.04,18.686H5.748v0.287H6.04V18.686z M6.04,18.112H5.748v0.287H6.04V18.112z M6.04,19.26
		H5.748v0.287H6.04V19.26z M6.04,16.963H5.748v0.288H6.04V16.963z M6.04,15.814H5.748v0.288H6.04V15.814z M6.04,19.835H5.748v0.287
		H6.04V19.835z M6.04,16.388H5.748v0.287H6.04V16.388z M6.04,22.132H5.748v0.288H6.04V22.132z M6.04,22.707H5.748v0.286H6.04V22.707
		z M6.04,15.239H5.748v0.288H6.04V15.239z M6.04,23.855H5.748v0.287H6.04V23.855z M6.04,20.409H5.748v0.288H6.04V20.409z
		 M6.04,20.984H5.748v0.288H6.04V20.984z M6.04,21.558H5.748v0.287H6.04V21.558z M6.04,23.281H5.748v0.287H6.04V23.281z M6.04,8.921
		H5.748v0.288H6.04V8.921z M6.04,9.497H5.748v0.287H6.04V9.497z M6.04,10.07H5.748v0.288H6.04V10.07z M6.04,8.346H5.748v0.288H6.04
		V8.346z M6.04,7.773H5.748V8.06H6.04V7.773z M6.04,14.666H5.748v0.286H6.04V14.666z M6.04,10.646H5.748v0.287H6.04V10.646z
		 M6.04,11.219H5.748v0.287H6.04V11.219z M6.04,14.091H5.748v0.288H6.04V14.091z M6.04,13.517H5.748v0.287H6.04V13.517z
		 M6.04,12.942H5.748v0.287H6.04V12.942z M6.04,11.794H5.748v0.287H6.04V11.794z M6.04,12.367H5.748v0.287H6.04V12.367z M6.04,7.194
		H5.748v0.292H6.04V7.194z M24.413,7.194h-0.287v0.292h0.287V7.194z M25.561,7.194h-0.287v0.292h0.287V7.194z M24.986,7.194H24.7
		v0.292h0.286V7.194z M10.059,7.194H9.771v0.292h0.288V7.194z M13.503,7.194h-0.287v0.292h0.287V7.194z M15.226,7.194h-0.287v0.292
		h0.287V7.194z M14.079,7.194h-0.288v0.292h0.288V7.194z M14.652,7.194h-0.287v0.292h0.287V7.194z M16.374,7.194h-0.287v0.292h0.287
		V7.194z M15.801,7.194h-0.288v0.292h0.288V7.194z M19.819,7.194h-0.288v0.292h0.288V7.194z M19.245,7.194h-0.287v0.292h0.287V7.194
		z M18.097,7.194H17.81v0.292h0.287V7.194z M17.521,7.194h-0.287v0.292h0.287V7.194z M16.95,7.194h-0.287v0.292h0.287V7.194z
		 M18.67,7.194h-0.287v0.292h0.287V7.194z M8.91,7.194H8.623v0.292H8.91V7.194z M8.336,7.194H8.049v0.292h0.287V7.194z M7.762,7.194
		H7.475v0.292h0.287V7.194z M7.187,7.194H6.9v0.292h0.287V7.194z M6.614,7.194H6.327v0.292h0.287V7.194z M11.781,7.194h-0.287v0.292
		h0.287V7.194z M12.93,7.194h-0.287v0.292h0.287V7.194z M12.356,7.194h-0.288v0.292h0.288V7.194z M10.633,7.194h-0.287v0.292h0.287
		V7.194z M9.484,7.194H9.197v0.292h0.287V7.194z M11.207,7.194H10.92v0.292h0.287V7.194z M20.967,7.194h-0.286v0.292h0.286V7.194z
		 M22.118,7.194h-0.287v0.292h0.287V7.194z M21.542,7.194h-0.287v0.292h0.287V7.194z M23.838,7.194h-0.287v0.292h0.287V7.194z
		 M22.689,7.194h-0.287v0.292h0.287V7.194z M23.265,7.194h-0.287v0.292h0.287V7.194z M20.394,7.194h-0.287v0.292h0.287V7.194z
		 M26.14,7.194h-0.291v0.292h0.291V7.194z M26.14,19.835h-0.291v0.287h0.291V19.835z M26.14,20.409h-0.291v0.288h0.291V20.409z
		 M26.14,18.686h-0.291v0.287h0.291V18.686z M26.14,18.112h-0.291v0.287h0.291V18.112z M26.14,19.26h-0.291v0.287h0.291V19.26z
		 M26.14,20.984h-0.291v0.287h0.291V20.984z M26.14,22.707h-0.291v0.286h0.291V22.707z M26.14,21.558h-0.291v0.287h0.291V21.558z
		 M26.14,23.855h-0.291v0.287h0.291V23.855z M26.14,23.281h-0.291v0.287h0.291V23.281z M26.14,22.132h-0.291v0.288h0.291V22.132z
		 M26.14,17.537h-0.291v0.287h0.291V17.537z M26.14,15.814h-0.291v0.288h0.291V15.814z M26.14,16.963h-0.291v0.288h0.291V16.963z
		 M26.14,9.497h-0.291v0.287h0.291V9.497z M26.14,10.644h-0.291v0.287h0.291V10.644z M26.14,10.07h-0.291v0.288h0.291V10.07z
		 M26.14,11.219h-0.291v0.287h0.291V11.219z M26.14,12.367h-0.291v0.287h0.291V12.367z M26.14,13.517h-0.291v0.287h0.291V13.517z
		 M26.14,12.942h-0.291v0.287h0.291V12.942z M26.14,11.794h-0.291v0.287h0.291V11.794z M26.14,14.091h-0.291v0.287h0.291V14.091z
		 M26.14,15.239h-0.291v0.288h0.291V15.239z M26.14,16.388h-0.291v0.287h0.291V16.388z M26.14,14.666h-0.291v0.286h0.291V14.666z
		 M26.14,8.346h-0.291v0.288h0.291V8.346z M26.14,7.773h-0.291V8.06h0.291V7.773z M26.14,8.921h-0.291v0.288h0.291V8.921z
		 M31.696,21.377c0.276,0.354,0.342,1.056-0.083,1.49c-0.688,0.703-2.091-0.155-2.386-0.545c-0.146-0.202-0.527-0.559-0.953-1.308
		c-0.021-0.034-0.096-0.185-0.168-0.339v0.017c0,0.004,0.001,0.009,0.002,0.011l0.108,0.713c0.16,1.706,0.312,3.059,0.502,4.135
		l0.062,0.003l0.114,0.013l0.113,0.019l0.113,0.023l0.057,0.016l0.056,0.018l0.057,0.02l0.055,0.021l0.055,0.023l0.056,0.025
		l0.053,0.028l0.052,0.03l0.052,0.032l0.052,0.036l0.051,0.036l0.049,0.041l0.047,0.045l0.047,0.046l0.045,0.049l0.045,0.053
		l0.043,0.055l0.043,0.059c0,0-0.038,0.019-0.101,0.047c-0.031,0.014-0.068,0.028-0.109,0.047c-0.04,0.016-0.087,0.031-0.135,0.051
		l-0.074,0.023l-0.076,0.021l-0.078,0.021l-0.082,0.016l-0.076,0.016l-0.038,0.004l-0.037,0.002h-0.036l-0.034-0.002l-0.033-0.004
		l-0.031-0.007c0,0,0.018,0.011,0.05,0.029c0.016,0.01,0.036,0.021,0.059,0.036c0.021,0.014,0.047,0.031,0.073,0.05
		c0.025,0.021,0.056,0.043,0.085,0.065c0.016,0.015,0.03,0.026,0.046,0.04l0.048,0.042l0.049,0.046l0.049,0.052l0.05,0.055
		l0.048,0.06l0.048,0.062l0.045,0.066l0.045,0.071l0.042,0.074l0.037,0.08l0.035,0.084l0.031,0.089l0.025,0.093
		c0.008,0.032,0.014,0.064,0.021,0.099c0.005,0.033,0.011,0.067,0.017,0.103c0.004,0.034,0.006,0.069,0.01,0.105
		c0,0.035,0.002,0.072,0.002,0.11c0,0.037-0.002,0.074-0.004,0.114c-0.002,0.039-0.006,0.079-0.012,0.12
		c-0.007,0.041-0.013,0.082-0.021,0.125c-0.008,0.042-0.018,0.085-0.027,0.129c-0.044,0.011-0.087,0.02-0.129,0.028
		c-0.043,0.007-0.085,0.014-0.125,0.021c-0.041,0.004-0.082,0.009-0.121,0.012c-0.04,0.002-0.078,0.004-0.115,0.005
		c-0.038-0.001-0.075-0.003-0.11-0.004c-0.037-0.003-0.071-0.006-0.106-0.009c-0.034-0.005-0.068-0.012-0.103-0.017
		c-0.032-0.007-0.065-0.014-0.098-0.021c-0.031-0.009-0.062-0.019-0.094-0.025l-0.089-0.031l-0.084-0.034l-0.08-0.039l-0.076-0.041
		l-0.069-0.044l-0.067-0.046l-0.062-0.048l-0.06-0.048l-0.055-0.049l-0.051-0.05l-0.048-0.048l-0.043-0.047
		c-0.014-0.017-0.026-0.031-0.038-0.047c-0.023-0.029-0.047-0.06-0.066-0.086S28.016,27.756,28,27.735
		c-0.015-0.022-0.025-0.042-0.035-0.059c-0.02-0.031-0.028-0.051-0.028-0.051l0.006,0.031l0.003,0.033l0.002,0.034v0.036
		l-0.002,0.037l-0.003,0.038l-0.011,0.077l-0.016,0.078l-0.021,0.078l-0.021,0.077l-0.024,0.073
		c-0.017,0.049-0.035,0.094-0.05,0.136c-0.018,0.041-0.032,0.077-0.047,0.108c-0.027,0.062-0.045,0.1-0.045,0.1l-0.06-0.042
		l-0.055-0.044l-0.053-0.044l-0.049-0.046l-0.047-0.046l-0.043-0.048l-0.04-0.049l-0.036-0.051l-0.037-0.052l-0.033-0.052
		l-0.029-0.052l-0.029-0.054l-0.024-0.055l-0.022-0.054l-0.021-0.056l-0.02-0.056l-0.017-0.056l-0.016-0.057l-0.025-0.112
		l-0.018-0.113l-0.013-0.113l-0.005-0.112V27.09l0.005-0.109l0.009-0.108l0.014-0.105l0.016-0.103
		c0.001-0.009,0.003-0.016,0.004-0.023h-0.778v0.883c-0.425,0.187-0.748,0.407-0.984,0.692c-0.572,0.685-1.205,0.754-1.396-0.083
		C23.708,27.276,24.647,27,24.647,27c-2.045,0.295-2.152,1.722-2.152,1.722s0.215-0.038,0.413,0.255
		c0.285,0.424,0.13,1.024-0.069,1.255c-0.227,0.274-0.672,0.339-0.948-0.083c-0.446-0.69,0.099-2.092,0.347-2.387
		c0.13-0.147,0.355-0.528,0.831-0.953c0.022-0.02,0.117-0.096,0.216-0.168h-0.011c-0.003,0-0.006,0.001-0.007,0.002l-0.453,0.108
		c-1.545,0.227-2.643,0.438-3.408,0.771c-0.424,0.187-0.746,0.407-0.983,0.692c-0.071,0.085-0.145,0.162-0.215,0.228
		c-0.22,0.197-0.437,0.304-0.625,0.303c-0.254-0.003-0.459-0.193-0.556-0.612C16.83,27.276,17.769,27,17.769,27
		c-2.044,0.295-2.154,1.722-2.154,1.722s0.215-0.038,0.414,0.255c0.286,0.424,0.129,1.024-0.07,1.255
		c-0.225,0.274-0.672,0.339-0.948-0.083c-0.028-0.043-0.051-0.09-0.072-0.139c-0.307-0.724,0.187-1.973,0.419-2.249
		c0.096-0.109,0.247-0.353,0.518-0.646c0.091-0.1,0.194-0.201,0.313-0.309c0.023-0.02,0.118-0.096,0.216-0.168h-0.01
		c-0.002,0-0.005,0.001-0.007,0.002l-0.453,0.108c-1.545,0.227-2.643,0.437-3.408,0.771c-0.424,0.187-0.748,0.407-0.985,0.692
		c-0.572,0.685-1.205,0.754-1.394-0.083c-0.199-0.856,0.741-1.133,0.741-1.133c-2.049,0.299-2.158,1.726-2.158,1.726
		s0.217-0.038,0.415,0.256c0.286,0.423,0.13,1.023-0.07,1.254c-0.225,0.274-0.672,0.339-0.948-0.083
		c-0.446-0.69,0.099-2.092,0.347-2.387c0.127-0.147,0.354-0.528,0.83-0.953c0.022-0.02,0.118-0.096,0.215-0.168H9.51
		c-0.002,0-0.005,0.001-0.007,0.002L9.05,26.752c-1.545,0.228-2.643,0.438-3.408,0.771v-0.883H4.854
		c0.002,0.008,0.003,0.015,0.005,0.021l0.016,0.104l0.013,0.104l0.008,0.108l0.005,0.109v0.111l-0.006,0.111l-0.011,0.115
		L4.865,27.54L4.84,27.652l-0.015,0.057l-0.017,0.056l-0.02,0.056l-0.021,0.056L4.744,27.93l-0.025,0.055L4.69,28.036L4.66,28.09
		l-0.033,0.052l-0.035,0.052l-0.038,0.05l-0.041,0.05L4.47,28.341l-0.046,0.046l-0.049,0.046l-0.052,0.044l-0.055,0.044L4.21,28.562
		c0,0-0.017-0.038-0.046-0.1c-0.013-0.031-0.028-0.067-0.046-0.108c-0.016-0.042-0.032-0.089-0.051-0.136l-0.024-0.073l-0.022-0.079
		l-0.02-0.078l-0.018-0.076l-0.01-0.076l-0.004-0.038l-0.001-0.037v-0.036l0.001-0.034l0.004-0.033l0.006-0.032
		c0,0-0.01,0.018-0.029,0.051c-0.01,0.017-0.022,0.035-0.036,0.058c-0.015,0.021-0.032,0.047-0.051,0.073
		c-0.02,0.025-0.042,0.055-0.066,0.085c-0.013,0.015-0.026,0.03-0.039,0.047l-0.042,0.047L3.67,28.034l-0.051,0.05l-0.055,0.049
		l-0.059,0.048l-0.063,0.048l-0.067,0.046l-0.071,0.043l-0.075,0.039l-0.08,0.037l-0.084,0.035L2.976,28.46l-0.092,0.026
		c-0.033,0.007-0.065,0.015-0.098,0.021c-0.034,0.005-0.067,0.011-0.102,0.017c-0.035,0.003-0.07,0.006-0.106,0.009
		c-0.036,0.002-0.073,0.002-0.111,0.003c-0.038-0.001-0.076-0.002-0.116-0.003c-0.039-0.005-0.079-0.008-0.12-0.012
		C2.19,28.514,2.149,28.507,2.106,28.5c-0.042-0.009-0.085-0.018-0.129-0.027c-0.01-0.045-0.019-0.088-0.028-0.13
		c-0.008-0.043-0.014-0.084-0.021-0.125c-0.003-0.041-0.008-0.081-0.011-0.121c-0.001-0.039-0.003-0.076-0.004-0.114
		c0.001-0.038,0.002-0.075,0.003-0.111c0.003-0.035,0.006-0.07,0.009-0.105c0.006-0.034,0.011-0.068,0.016-0.103
		c0.007-0.032,0.014-0.065,0.021-0.098c0.009-0.031,0.018-0.062,0.026-0.094l0.031-0.088L2.054,27.3l0.039-0.08l0.041-0.076
		l0.044-0.07l0.046-0.066l0.05-0.063l0.048-0.06l0.049-0.056l0.049-0.05l0.048-0.047l0.048-0.042
		c0.015-0.015,0.03-0.027,0.045-0.039c0.031-0.023,0.06-0.046,0.086-0.065c0.027-0.02,0.052-0.036,0.073-0.052
		c0.023-0.016,0.042-0.026,0.058-0.035c0.033-0.019,0.051-0.028,0.051-0.028l-0.032,0.006l-0.034,0.004l-0.035,0.002H2.692
		l-0.037-0.002l-0.038-0.004L2.54,26.465l-0.079-0.017l-0.078-0.021l-0.077-0.021l-0.074-0.023c-0.048-0.019-0.093-0.035-0.135-0.05
		c-0.041-0.019-0.078-0.033-0.109-0.047c-0.061-0.027-0.099-0.046-0.099-0.046l0.042-0.059l0.044-0.055l0.044-0.053l0.045-0.049
		l0.047-0.046l0.048-0.045l0.048-0.039l0.05-0.038l0.051-0.036l0.052-0.032l0.052-0.03l0.053-0.027l0.052-0.024
		c-0.087-0.172-0.179-0.329-0.282-0.464c-0.684-0.9-0.754-1.896,0.083-2.193c0.857-0.313,1.133,1.166,1.133,1.166
		c-0.295-3.219-1.722-3.393-1.722-3.393s0.038,0.342-0.255,0.652c-0.423,0.45-1.024,0.203-1.254-0.109
		c-0.275-0.354-0.339-1.058,0.083-1.491c0.691-0.702,2.091,0.154,2.386,0.545c0.148,0.202,0.529,0.559,0.953,1.307
		c0.02,0.035,0.096,0.186,0.168,0.34V22.05c0-0.004-0.001-0.008-0.002-0.011L3.7,21.326c-0.227-2.43-0.437-4.157-0.771-5.361
		c-0.186-0.668-0.408-1.177-0.693-1.549c-0.684-0.901-0.754-1.897,0.083-2.195c0.857-0.313,1.133,1.167,1.133,1.167
		C3.157,10.168,1.73,9.997,1.73,9.997s0.038,0.34-0.255,0.653c-0.423,0.45-1.024,0.202-1.254-0.111
		c-0.276-0.354-0.339-1.057,0.083-1.49C0.995,8.345,2.395,9.202,2.69,9.593c0.147,0.201,0.528,0.558,0.953,1.307
		c0.02,0.035,0.096,0.186,0.168,0.339v-0.017c0-0.003-0.001-0.008-0.003-0.011L3.7,10.5c-0.159-1.706-0.311-3.06-0.503-4.135
		l-0.06-0.003L3.024,6.35L2.91,6.332L2.797,6.306L2.741,6.292L2.685,6.274L2.63,6.255L2.575,6.234L2.521,6.21L2.467,6.184
		L2.414,6.156L2.361,6.125L2.308,6.094L2.257,6.059l-0.05-0.038L2.158,5.98L2.111,5.936L2.064,5.89L2.018,5.841L1.974,5.79
		L1.931,5.734L1.89,5.676c0,0,0.038-0.019,0.099-0.047C2.02,5.616,2.057,5.601,2.098,5.583c0.041-0.016,0.087-0.032,0.135-0.051
		l0.074-0.024l0.077-0.022l0.078-0.02l0.079-0.017l0.076-0.011l0.038-0.003l0.037-0.001l0.036-0.001l0.035,0.002l0.034,0.003
		l0.032,0.007c0,0-0.018-0.011-0.051-0.028C2.762,5.406,2.743,5.394,2.721,5.379c-0.022-0.015-0.047-0.032-0.074-0.05
		C2.622,5.308,2.593,5.286,2.562,5.263c-0.015-0.013-0.03-0.026-0.046-0.04L2.469,5.181L2.42,5.135L2.371,5.084l-0.05-0.055
		L2.274,4.971L2.226,4.908L2.18,4.841L2.137,4.771L2.095,4.694l-0.039-0.08L2.022,4.53L1.991,4.441L1.964,4.349
		C1.957,4.316,1.95,4.284,1.943,4.251C1.938,4.217,1.932,4.183,1.928,4.149c-0.004-0.035-0.007-0.07-0.01-0.105
		c-0.002-0.036-0.002-0.073-0.003-0.11c0.001-0.039,0.002-0.078,0.003-0.118c0.005-0.039,0.008-0.079,0.012-0.12
		c0.006-0.04,0.012-0.081,0.019-0.124c0.01-0.042,0.019-0.085,0.029-0.129c0.044-0.01,0.087-0.019,0.129-0.028
		c0.042-0.008,0.084-0.014,0.125-0.02c0.041-0.004,0.081-0.009,0.121-0.012C2.392,3.382,2.43,3.38,2.468,3.379
		C2.506,3.38,2.543,3.381,2.579,3.382c0.036,0.003,0.072,0.006,0.106,0.009C2.72,3.397,2.753,3.402,2.787,3.407
		C2.82,3.416,2.853,3.423,2.885,3.428c0.032,0.009,0.062,0.018,0.093,0.026l0.088,0.031L3.15,3.519l0.08,0.039l0.076,0.041
		l0.071,0.044l0.067,0.046l0.063,0.048l0.059,0.048l0.056,0.051l0.05,0.048l0.047,0.048L3.761,3.98
		C3.775,3.995,3.788,4.01,3.8,4.025c0.024,0.03,0.046,0.061,0.066,0.086c0.019,0.026,0.037,0.051,0.052,0.072
		c0.013,0.023,0.026,0.042,0.036,0.058c0.018,0.032,0.028,0.052,0.028,0.052L3.976,4.26L3.972,4.226L3.97,4.191V4.155l0.002-0.036
		l0.003-0.037l0.011-0.076l0.015-0.08l0.02-0.078l0.022-0.076l0.025-0.074c0.018-0.048,0.035-0.093,0.05-0.135
		c0.018-0.041,0.033-0.078,0.046-0.109C4.192,3.393,4.21,3.355,4.21,3.355l0.059,0.041L4.323,3.44l0.053,0.044l0.048,0.045
		l0.047,0.047l0.043,0.049l0.041,0.049l0.038,0.05l0.035,0.051l0.033,0.051l0.03,0.053l0.028,0.053l0.026,0.054l0.024,0.056
		L4.79,4.097l0.02,0.055l0.017,0.054l0.014,0.056l0.026,0.113l0.017,0.111L4.896,4.6l0.005,0.114v0.112L4.897,4.938L4.888,5.045
		L4.875,5.15L4.859,5.253C4.857,5.261,4.856,5.268,4.855,5.276h0.779V4.394c0.425-0.186,0.748-0.408,0.985-0.693
		c0.572-0.685,1.204-0.755,1.394,0.082C8.212,4.64,7.272,4.917,7.272,4.917c2.045-0.294,2.154-1.722,2.154-1.722
		S9.211,3.233,9.013,2.94c-0.286-0.423-0.129-1.024,0.07-1.254c0.225-0.276,0.671-0.339,0.948,0.083
		C10.477,2.46,9.932,3.86,9.684,4.155C9.555,4.303,9.329,4.684,8.853,5.108c-0.022,0.02-0.118,0.096-0.216,0.168h0.01
		c0.003,0,0.005-0.001,0.008-0.002l0.45-0.108c1.545-0.228,2.643-0.438,3.408-0.771c0.424-0.186,0.748-0.408,0.985-0.693
		c0.071-0.085,0.143-0.161,0.216-0.227c0.218-0.197,0.435-0.303,0.625-0.302c0.253,0.002,0.458,0.192,0.553,0.611
		c0.199,0.857-0.741,1.134-0.741,1.134c2.046-0.295,2.155-1.723,2.155-1.723s-0.217,0.038-0.415-0.255
		c-0.286-0.423-0.129-1.023,0.07-1.254c0.225-0.276,0.672-0.339,0.948,0.083c0.057,0.086,0.098,0.184,0.125,0.288
		c0.19,0.735-0.254,1.84-0.47,2.098c-0.128,0.148-0.355,0.529-0.831,0.953c-0.022,0.021-0.118,0.096-0.215,0.168h0.01
		c0.003,0,0.005-0.001,0.008-0.003l0.453-0.107c1.545-0.228,2.643-0.438,3.407-0.771c0.424-0.186,0.748-0.408,0.985-0.693
		c0.572-0.685,1.203-0.755,1.394,0.082c0.198,0.857-0.74,1.134-0.74,1.134c2.045-0.296,2.153-1.723,2.153-1.723
		s-0.216,0.038-0.414-0.255c-0.287-0.423-0.13-1.023,0.068-1.254c0.226-0.276,0.673-0.339,0.949,0.083
		c0.444,0.691-0.1,2.091-0.348,2.386c-0.128,0.148-0.354,0.529-0.83,0.953c-0.023,0.021-0.117,0.096-0.216,0.168h0.011
		c0.004,0,0.006-0.001,0.008-0.002l0.453-0.107c1.545-0.228,2.643-0.438,3.406-0.771v0.881h0.788
		c-0.001-0.007-0.003-0.014-0.004-0.021l-0.016-0.104l-0.013-0.104l-0.01-0.108l-0.005-0.11V4.715l0.005-0.113l0.013-0.114
		l0.018-0.112l0.025-0.113l0.014-0.056l0.018-0.057l0.021-0.055l0.021-0.055l0.024-0.055l0.025-0.054l0.027-0.053l0.03-0.054
		l0.033-0.053l0.035-0.051l0.037-0.05l0.04-0.049l0.043-0.049l0.048-0.047l0.049-0.045l0.051-0.044l0.056-0.043l0.061-0.041
		c0,0,0.017,0.037,0.045,0.099c0.014,0.031,0.029,0.068,0.047,0.109c0.015,0.041,0.031,0.087,0.05,0.135l0.024,0.075l0.022,0.077
		l0.021,0.078l0.017,0.078l0.011,0.076l0.005,0.037l0.002,0.037v0.036L27.95,4.223l-0.006,0.034L27.939,4.29
		c0,0,0.011-0.019,0.027-0.052c0.011-0.015,0.021-0.034,0.037-0.057c0.014-0.022,0.031-0.047,0.05-0.074
		c0.021-0.024,0.043-0.054,0.065-0.085c0.014-0.014,0.025-0.03,0.039-0.046l0.043-0.047l0.047-0.048l0.051-0.049l0.055-0.051
		l0.062-0.048l0.062-0.048l0.066-0.045l0.07-0.044l0.076-0.042l0.08-0.039l0.083-0.034l0.089-0.03l0.094-0.026
		c0.03-0.007,0.063-0.014,0.098-0.021c0.033-0.005,0.068-0.01,0.102-0.016c0.034-0.003,0.07-0.006,0.105-0.009
		c0.037-0.001,0.074-0.002,0.111-0.003c0.036,0.001,0.074,0.003,0.114,0.004c0.038,0.003,0.079,0.007,0.12,0.011
		c0.041,0.006,0.083,0.013,0.125,0.02c0.042,0.01,0.085,0.019,0.129,0.028c0.01,0.044,0.02,0.087,0.028,0.129
		c0.007,0.043,0.014,0.085,0.02,0.125c0.006,0.046,0.01,0.086,0.014,0.126c0.002,0.039,0.002,0.077,0.004,0.115
		c-0.003,0.038-0.003,0.075-0.004,0.111s-0.006,0.07-0.008,0.105c-0.007,0.035-0.013,0.069-0.018,0.103
		c-0.007,0.032-0.015,0.065-0.021,0.098c-0.011,0.031-0.02,0.062-0.026,0.093l-0.031,0.088l-0.035,0.084l-0.037,0.08l-0.041,0.076
		l-0.045,0.071l-0.046,0.066l-0.047,0.063l-0.049,0.06l-0.049,0.056l-0.048,0.05l-0.049,0.046l-0.048,0.043
		c-0.016,0.014-0.03,0.027-0.046,0.039c-0.029,0.024-0.06,0.046-0.085,0.067c-0.026,0.018-0.052,0.034-0.073,0.05
		c-0.021,0.014-0.041,0.025-0.058,0.036c-0.032,0.018-0.051,0.028-0.051,0.028l0.031-0.007l0.032-0.003l0.035-0.002h0.036
		l0.037,0.002l0.038,0.003l0.076,0.011l0.08,0.016l0.078,0.02l0.073,0.023l0.074,0.023c0.048,0.018,0.093,0.035,0.135,0.051
		c0.041,0.018,0.078,0.032,0.109,0.046c0.061,0.027,0.1,0.046,0.1,0.046l-0.042,0.058l-0.042,0.055l-0.045,0.053L29.854,5.89
		l-0.046,0.046L29.76,5.979l-0.049,0.04l-0.05,0.038l-0.052,0.036l-0.051,0.033l-0.053,0.03l-0.053,0.028L29.4,6.209
		c0.088,0.17,0.181,0.328,0.282,0.463c0.686,0.9,0.755,1.895-0.083,2.193c-0.854,0.313-1.133-1.167-1.133-1.167
		c0.295,3.22,1.722,3.392,1.722,3.392s-0.039-0.34,0.255-0.652c0.425-0.45,1.023-0.203,1.254,0.111
		c0.276,0.354,0.341,1.056-0.083,1.491c-0.689,0.701-2.091-0.155-2.386-0.546c-0.146-0.201-0.526-0.558-0.953-1.307
		c-0.02-0.035-0.096-0.185-0.168-0.339v0.018c0,0.003,0.001,0.009,0.002,0.011l0.109,0.713c0.227,2.43,0.438,4.156,0.771,5.361
		c0.188,0.667,0.408,1.177,0.693,1.55c0.686,0.9,0.755,1.896-0.083,2.194c-0.854,0.312-1.133-1.167-1.133-1.167
		c0.295,3.221,1.722,3.393,1.722,3.393s-0.039-0.34,0.255-0.653C30.868,20.817,31.467,21.064,31.696,21.377z M26.65,6.733H5.268
		v18.449H26.65V6.733z M22.184,10.319l-0.404-0.42L9.175,22.062l0.405,0.42L22.184,10.319z M13.325,14.771l0.404,0.419l5.807-5.604
		l-0.404-0.42L13.325,14.771z M17.441,16.74l-5.809,5.602l0.404,0.419l5.81-5.602L17.441,16.74z"/>
</g>
<g>
</g>
<g>
</g>
<g>
</g>
<g>
</g>
<g>
</g>
<g>
</g>
<g>
</g>
<g>
</g>
<g>
</g>
<g>
</g>
<g>
</g>
<g>
</g>
<g>
</g>
<g>
</g>
<g>
</g>
</svg>
