<?xml version="1.0" encoding="iso-8859-1"?>
<!-- Generator: Adobe Illustrator 16.0.0, SVG Export Plug-In . SVG Version: 6.00 Build 0)  -->
<!DOCTYPE svg PUBLIC "-//W3C//DTD SVG 1.1//EN" "http://www.w3.org/Graphics/SVG/1.1/DTD/svg11.dtd">
<svg version="1.1" id="Capa_1" xmlns="http://www.w3.org/2000/svg" xmlns:xlink="http://www.w3.org/1999/xlink" x="0px" y="0px"
	 width="582.272px" height="582.273px" viewBox="0 0 582.272 582.273" style="enable-background:new 0 0 582.272 582.273;"
	 xml:space="preserve">
<g>
	<g>
		<path d="M240.01,73.283c0,0,33.376,55.626,31.528,114.968c-4.018,7.715-21.59,43.323-30.679,73.146l52.538,31.975
			c8.054-15.59,21.125-36.27,19.857-59.672c-1.857-34.314-31.983-82.512-31.983-82.512S281.726-3.648,176.053,0.066
			C70.353,3.762,37.915,175.25,36.986,195.662c-0.938,20.385,2.777,50.984,2.777,50.984s-9.277,1.857-8.339,10.197
			c0.911,8.357,8.795,16.697,9.268,23.188c0.473,6.5-19.474,5.107-18.537,13.929c0.929,8.786,13.911,12.036,12.045,18.536
			c-1.866,6.482-26.876,13.447-25.947,35.233c0.938,21.805,38.474,42.198,40.778,66.753c2.322,24.554-32.912,39.857-36.153,65.823
			c-3.232,25.947,43.1,41.716,43.582,65.359c0.456,23.626-30.599,36.608-30.599,36.608s81.119-1.393,51.921-93.646
			c-5.107-9.268,46.35-59.787,28.742-107.539c17.607-12.982,0-42.662,0-42.662s17.956-14.375,17.607-39.395
			c-0.348-25.036-17.607-57.02-17.607-57.02s39.385-70.931,51.895-102.914C202.018,155.339,240.01,73.283,240.01,73.283z"/>
		<path d="M356.826,481.198c0-28.715-45.43-53.751-45.43-53.751s9.911-18.697,11.715-39.537l27.912-2.555
			c-7.822-6.535-17.732-14.893-28.662-24.143c-0.91,0.214-1.857,0.428-2.768,0.66c-0.75-1.768-1.518-3.518-2.393-5.197
			l-81.503-68.662c-0.036,0.982-0.348,2.25-0.312,3.143c0.768,23.072,25.581,67.109,34.688,82.539
			c-48.35,11.625-93.164,22.482-93.164,22.482l-8.509,5.911l94.602-8.679c-5.09,8.25-10.242,19.143-10.938,30.322
			c-1.393,22.715,17.608,82.984,63.047,94.557c-15.287,25.482,6.5,35.215,6.5,35.215s40.77,5.107,24.09-41.697
			C339.666,507.627,356.826,509.949,356.826,481.198z"/>
		<path d="M556.352,268.343c-10.375-8.063-23.697-12.099-37.572-11.313c-19.966,1.134-37.27,12.232-45.252,28.091
			c-2.232,3.285-33.787,48.607-85.628,61.072c-1.107,0.09-5.607,1.072-12.536,2.625l3.59,15.483l0.053-0.054l145.076-13.161
			c0,0-0.089-0.054-0.268-0.179c0.09,0,0.179,0,0.268,0c23.805-1.321,43.895-16.84,48.806-37.697
			c0.964-3.982,1.321-8.107,1.089-12.215C573.28,288.263,567.012,276.655,556.352,268.343z M558.119,309.693
			c-3.393,14.34-17.75,25.054-34.876,26c-10.161,0.59-19.858-2.303-27.322-8.107c-7.144-5.607-11.34-13.232-11.804-21.482
			c-0.143-2.643,0.089-5.286,0.695-7.857c3.394-14.34,17.733-25.037,34.859-26.001c10.16-0.571,19.857,2.304,27.305,8.125
			c7.16,5.59,11.357,13.197,11.821,21.483C558.941,304.46,558.709,307.121,558.119,309.693z"/>
		<path d="M499.992,452.875c-0.821-0.446-1.696-0.839-2.535-1.25l-122.059-74.271l-6.214-26.822L204.902,248.047l4.429,8.795
			c0,0,159.032,136.245,166.157,140.603c40.215,33.162,49.287,85.235,50.216,91.164c-0.269,18.18,10.482,36.305,28.394,46.322
			c12.107,6.77,25.858,9.001,38.716,6.269c13.251-2.821,23.966-10.5,30.161-21.607c1.911-3.446,3.357-7.126,4.251-10.965
			C532.243,487.591,521.029,464.662,499.992,452.875z M363.523,363.64c-1.035,4.322-5.357,6.982-9.679,5.965
			s-6.982-5.357-5.965-9.661c1-4.304,5.34-6.982,9.661-5.964C361.863,355.015,364.541,359.319,363.523,363.64z M512.439,505.145
			c-0.59,2.446-1.5,4.821-2.732,7.019c-4.054,7.25-11.161,12.25-20.037,14.143c-9.25,1.947-19.232,0.305-28.125-4.66
			c-15.144-8.465-23.287-24.483-19.876-38.966c0.589-2.446,1.519-4.821,2.75-7.019c4.036-7.232,11.144-12.268,20.019-14.125
			c9.25-1.965,19.232-0.321,28.126,4.66C507.689,474.644,515.867,490.663,512.439,505.145z"/>
	</g>
</g>
<g>
</g>
<g>
</g>
<g>
</g>
<g>
</g>
<g>
</g>
<g>
</g>
<g>
</g>
<g>
</g>
<g>
</g>
<g>
</g>
<g>
</g>
<g>
</g>
<g>
</g>
<g>
</g>
<g>
</g>
</svg>
