<?xml version="1.0" encoding="iso-8859-1"?>
<!-- Generator: Adobe Illustrator 16.0.0, SVG Export Plug-In . SVG Version: 6.00 Build 0)  -->
<!DOCTYPE svg PUBLIC "-//W3C//DTD SVG 1.1//EN" "http://www.w3.org/Graphics/SVG/1.1/DTD/svg11.dtd">
<svg version="1.1" id="Capa_1" xmlns="http://www.w3.org/2000/svg" xmlns:xlink="http://www.w3.org/1999/xlink" x="0px" y="0px"
	 width="378.273px" height="378.273px" viewBox="0 0 378.273 378.273" style="enable-background:new 0 0 378.273 378.273;"
	 xml:space="preserve">
<g>
	<g>
		<path d="M154.328,313.049c0.846-0.094,1.051-0.584,0.251-1.576c-5.05-6.236,21.854-59.623,39.609-90.604
			c4.799-8.349,17.959-27.616,34.412-51.472c61.539-42.195,155.294-108.323,149.408-115.446c-4.682-5.646-59.868,29.1-114.914,65.38
			c38.277-55.898,76.66-113.957,70.764-118.785c-7.415-6.061-78.938,92.5-121.337,152.421
			c-27.535,18.403-50.101,33.513-59.227,38.803c-28.877,16.757-77.325,41.605-88.576,40.671
			c-14.567-12.867-37.665-11.618-52.576,3.281c-15.438,15.449-16.267,39.749-1.845,54.17c14.445,14.422,38.733,13.604,54.182-1.832
			c10.352-10.37,14.112-24.686,11.134-37.367c10.626-12.95,101.217-46.207,101.217-46.207s0.923-0.619,2.604-1.728
			c-7.409,20.026-34.074,90.567-44.578,96.769c-1.132,0.63-1.483,1.412-1.291,2.288c-11.957-1.868-25.012,2.079-34.628,11.7
			c-15.438,15.449-16.261,39.749-1.851,54.17c14.445,14.434,38.75,13.604,54.188-1.845
			C166.209,350.86,167.395,327.599,154.328,313.049z M58.932,282.514c-12.39,12.389-31.727,13.207-43.095,1.833
			c-11.385-11.362-10.55-30.711,1.828-43.101c12.401-12.4,31.733-13.23,43.106-1.845C72.168,250.788,71.327,270.125,58.932,282.514z
			 M190.942,190.521c-3.889-3.889-3.889-10.206,0-14.094c3.876-3.883,10.206-3.883,14.094,0c3.889,3.889,3.889,10.194,0,14.083
			C201.147,194.41,194.818,194.41,190.942,190.521z M102.61,362.151c-11.385-11.373-10.544-30.722,1.828-43.111
			c12.412-12.4,31.75-13.23,43.117-1.856c11.374,11.386,10.551,30.722-1.839,43.112C133.303,372.696,113.984,373.513,102.61,362.151
			z"/>
		<path d="M197.983,177.443c3.328,0,6.037,2.697,6.037,6.037c0,3.34-2.709,6.037-6.037,6.037c-3.34,0-6.037-2.697-6.037-6.037
			C191.946,180.141,194.643,177.443,197.983,177.443z"/>
	</g>
</g>
<g>
</g>
<g>
</g>
<g>
</g>
<g>
</g>
<g>
</g>
<g>
</g>
<g>
</g>
<g>
</g>
<g>
</g>
<g>
</g>
<g>
</g>
<g>
</g>
<g>
</g>
<g>
</g>
<g>
</g>
</svg>
