<?xml version="1.0" encoding="iso-8859-1"?>
<!-- Generator: Adobe Illustrator 16.0.0, SVG Export Plug-In . SVG Version: 6.00 Build 0)  -->
<!DOCTYPE svg PUBLIC "-//W3C//DTD SVG 1.1//EN" "http://www.w3.org/Graphics/SVG/1.1/DTD/svg11.dtd">
<svg version="1.1" id="Capa_1" xmlns="http://www.w3.org/2000/svg" xmlns:xlink="http://www.w3.org/1999/xlink" x="0px" y="0px"
	 width="378.456px" height="378.456px" viewBox="0 0 378.456 378.456" style="enable-background:new 0 0 378.456 378.456;"
	 xml:space="preserve">
<g>
	<g>
		<path d="M98.112,200.468l65.152-15.682l8.443-25.503c-7.999,4.863-14.369,8.536-17.813,10.147
			c-14.077,6.568-49.926,13.528-65.503,16.359c-17.784-17.218-48.227-15.519-69.315,3.912
			c-10.393,9.587-17.031,22.082-18.678,35.195c-1.699,13.521,2.079,26.086,10.626,35.357c0.549,0.596,1.115,1.18,1.687,1.729
			c17.802,17.143,48.238,15.391,69.28-4.018c10.416-9.598,17.043-22.092,18.689-35.194
			C101.674,214.854,100.74,207.288,98.112,200.468z M72.931,248.122c-16.336,15.076-39.615,16.594-52.062,3.072
			c-5.827-6.33-8.384-15.088-7.187-24.639c1.255-9.973,6.399-19.571,14.456-27.021c15.869-14.602,38.225-16.459,50.947-4.215
			c0.385,0.385,0.753,0.771,1.139,1.156c5.821,6.341,8.384,15.087,7.187,24.639C86.155,231.086,81.011,240.685,72.931,248.122z"/>
		<path d="M150.619,268.733c5.99-15.367,18.701-42.646,41.611-69.807c7.461-13.341,186.226-166.562,186.226-166.562l-5.803-5.284
			l0,0l-0.561-0.765l-3.632,2.476l0.666,0.607L183.606,151.95c0,0-26.116,76.146-46.118,104.686
			c-8.297-4.812-18.176-6.68-28.615-5.232c-13.107,1.799-25.503,8.606-34.961,19.127c-19.542,21.744-20.604,52.501-2.429,70.028
			c0.333,0.315,0.694,0.653,1.039,0.97c19.039,17.118,50.638,13.09,70.442-8.934C160.398,313.199,163.101,286.669,150.619,268.733z
			 M194.203,172.542c-3.241-3.124-3.339-8.273-0.216-11.514c3.118-3.229,8.262-3.328,11.496-0.204
			c3.235,3.118,3.328,8.25,0.222,11.49C202.593,175.555,197.444,175.654,194.203,172.542z M81.478,331.579
			c-13.633-12.191-12.313-35.721,2.406-52.104c7.339-8.174,16.868-13.452,26.828-14.807c9.534-1.319,18.31,1.121,24.708,6.866
			c0.251,0.21,0.491,0.444,0.701,0.653c12.751,12.297,11.361,35.359-3.083,51.45C118.15,340.196,95.024,343.747,81.478,331.579z"/>
	</g>
</g>
<g>
</g>
<g>
</g>
<g>
</g>
<g>
</g>
<g>
</g>
<g>
</g>
<g>
</g>
<g>
</g>
<g>
</g>
<g>
</g>
<g>
</g>
<g>
</g>
<g>
</g>
<g>
</g>
<g>
</g>
</svg>
