<?xml version="1.0" encoding="iso-8859-1"?>
<!-- Generator: Adobe Illustrator 16.0.0, SVG Export Plug-In . SVG Version: 6.00 Build 0)  -->
<!DOCTYPE svg PUBLIC "-//W3C//DTD SVG 1.1//EN" "http://www.w3.org/Graphics/SVG/1.1/DTD/svg11.dtd">
<svg version="1.1" id="Capa_1" xmlns="http://www.w3.org/2000/svg" xmlns:xlink="http://www.w3.org/1999/xlink" x="0px" y="0px"
	 width="583.168px" height="583.168px" viewBox="0 0 583.168 583.168" style="enable-background:new 0 0 583.168 583.168;"
	 xml:space="preserve">
<g>
	<g>
		<path d="M530.276,335.065c-26.358-24.697-63.038-29.233-88.271-12.446c-21.126-8.751-58.574-27.162-95.539-59.699
			c-1.465-0.857-4.268-3.438-8-7.17L517.061,55.243l7.429-20.625l-1.035,0.875l-20.412,11.982L301.179,214.624
			C234.82,138.576,120.985,0,120.985,0l-7.5,7.902l0,0l-1.062,0.75l3.331,5.098l0.875-0.911l157.63,249.848l5.197,18.375
			l-56.636,118.308c-10.822-5.857-23.554-8.036-36.903-6.054c-17.117,2.519-33.207,11.554-45.332,25.447
			c-21.831,25.001-25.322,60.306-8.268,83.913c2.419,3.322,5.196,6.357,8.304,9.09c6.991,6.072,15.215,10.107,24.215,12.144
			c20.92,13.161,17.974,44.341,19.75,51.037c1.848,6.857,16.545,10.608,18.188,6.536c1.536-3.822-8.572-50.716,9.75-65.592
			c7.464-4.303,14.304-9.875,20.224-16.643c19.179-21.947,24.162-51.806,13.608-74.735l54.582-116.29
			c1.464,2.769,2.706,5.251,3.491,7.019c8.705,19.697,17.305,69.573,20.805,91.271c-24.403,24.145-22.921,66.396,3.41,96.182
			c12.982,14.68,30.108,24.252,48.217,26.895c18.715,2.75,36.232-2.143,49.34-13.715c0.822-0.75,1.643-1.518,2.43-2.285
			c24.304-24.18,22.732-66.414-3.537-96.146c-12.982-14.715-30.107-24.27-48.251-26.93c-10.965-1.607-21.465-0.518-30.947,2.929
			l-19.876-90.753l-19.25-6.857l4.411-9.411l0.857-0.973c34.072,13.634,87.378,36.385,112.825,55.011
			c-6.894,11.357-9.751,24.982-8.071,39.519c2.125,18.215,11.196,35.573,25.518,49.002c29.573,27.715,72.182,30.072,96.986,5.375
			c0.446-0.446,0.946-0.929,1.375-1.411C564.919,407.049,560.259,363.156,530.276,335.065z M218.685,486.962
			c-9.214,10.537-21.269,17.376-33.992,19.233c-12.161,1.821-23.465-1.214-31.805-8.482c-2.009-1.769-3.839-3.786-5.429-5.946
			c-12.009-16.645-8.973-42.181,7.206-60.699c9.197-10.535,21.269-17.375,33.975-19.268c12.161-1.769,23.465,1.25,31.805,8.5
			c2.027,1.785,3.857,3.785,5.429,5.965C237.909,442.89,234.891,468.427,218.685,486.962z M338.199,419.658
			c0.5-0.519,1.07-1.037,1.625-1.537c8.964-7.893,21.143-11.178,34.375-9.25c13.787,2.036,26.93,9.43,36.984,20.858
			c20.411,23.071,21.857,55.395,2.75,72.253c-8.947,7.893-21.145,11.178-34.341,9.232c-13.804-2.037-26.947-9.412-37.037-20.841
			C322.751,467.962,320.823,436.908,338.199,419.658z M308.822,257.875c-3.893,3.768-10.081,3.616-13.831-0.259
			c-3.741-3.893-3.616-10.072,0.277-13.839c3.875-3.75,10.099-3.625,13.822,0.25C312.822,247.946,312.715,254.125,308.822,257.875z
			 M527.132,420.264c-17.285,18.554-49.895,16.036-72.145-4.821c-11.125-10.43-18.144-23.77-19.75-37.608
			c-1.555-13.251,2.089-25.358,10.232-34.056c0.32-0.32,0.625-0.66,0.945-0.963c17.412-17.305,49.324-14.697,71.217,5.768
			C540.116,369.691,544.366,401.871,527.132,420.264z"/>
		<path d="M142.228,408.353c3.589-5.66,3.062-12.75-0.804-17.805c9.768-11.821,15.75-25.893,17.081-40.43
			c0.768-8.768-0.214-17.179-2.759-24.893l110.245-41.297l-11.554-32.162l-112.37,51.6c-2.669-2.643-5.598-5-8.741-7.036
			c-24.572-15.634-59.609-10.134-83.315,13.125c-13.161,12.894-21.242,29.483-22.777,46.734
			c-1.581,17.768,3.964,34.107,15.599,45.983c2.884,2.911,6.107,5.536,9.545,7.732c0,0.019,0,0,0,0.019
			c18.795,11.982,43.698,11.518,64.984,0.268c0.973,1.089,2.009,2.089,3.312,2.91C127.95,417.728,137.602,415.621,142.228,408.353z
			 M62.448,394.192c-2.286-1.464-4.384-3.161-6.268-5.071c-7.741-7.93-11.429-19.019-10.357-31.287
			c1.152-12.804,7.286-25.215,17.269-35.037c17.572-17.232,42.876-21.715,60.181-10.679c2.268,1.429,4.366,3.161,6.25,5.071
			c7.777,7.894,11.429,19.037,10.331,31.287c-1.134,12.786-7.241,25.215-17.224,35.037
			C105.057,400.71,79.743,405.228,62.448,394.192z"/>
	</g>
</g>
<g>
</g>
<g>
</g>
<g>
</g>
<g>
</g>
<g>
</g>
<g>
</g>
<g>
</g>
<g>
</g>
<g>
</g>
<g>
</g>
<g>
</g>
<g>
</g>
<g>
</g>
<g>
</g>
<g>
</g>
</svg>
