<?xml version="1.0" encoding="iso-8859-1"?>
<!-- Generator: Adobe Illustrator 16.0.0, SVG Export Plug-In . SVG Version: 6.00 Build 0)  -->
<!DOCTYPE svg PUBLIC "-//W3C//DTD SVG 1.1//EN" "http://www.w3.org/Graphics/SVG/1.1/DTD/svg11.dtd">
<svg version="1.1" id="Capa_1" xmlns="http://www.w3.org/2000/svg" xmlns:xlink="http://www.w3.org/1999/xlink" x="0px" y="0px"
	 width="32px" height="32px" viewBox="0 0 32 32" style="enable-background:new 0 0 32 32;" xml:space="preserve">
<g>
	<g>
		<ellipse cx="27.198" cy="4.369" rx="3.373" ry="3.477"/>
		<path d="M29.415,9.338c-1.219-0.991-3.338-0.438-4.391-0.143c-1.181,0.452-3.439-0.237-6.463-1.13
			c0.028-0.108,0.047-0.217,0.047-0.327c0-0.713-0.559-1.299-1.285-1.349c-0.158-0.587-0.697-1.003-1.32-1.003
			c-0.458,0-0.884,0.231-1.137,0.609c-0.139-0.046-0.285-0.07-0.433-0.07c-0.755,0-1.37,0.607-1.37,1.354
			c0,0.349,0.136,0.667,0.359,0.907c-1.03,0.525-1.736,1.596-1.736,2.831c0,1.758,1.424,3.183,3.182,3.183
			c1.756,0,3.182-1.425,3.182-3.183c0-0.075-0.006-0.147-0.012-0.221c0.055,0.007,0.107,0.017,0.162,0.017
			c0.508,0,0.945-0.277,1.184-0.683c2.205,0.382,5.615,1.052,5.597,1.538c-0.028,0.718-0.343,7.938-0.063,8.176l0,0l-0.576,5.348
			l0.51,5.261h-1.488V32h5.06v-0.336v-1.211v-9.938c0.595-0.115,1.049-0.431,1.128-1.08C29.794,17.391,30.774,10.442,29.415,9.338z
			 M13.329,7.28c0-0.601,0.496-1.09,1.104-1.09c0.151,0,0.298,0.03,0.437,0.089l0.11,0.049l0.058-0.105
			c0.194-0.353,0.564-0.572,0.965-0.572c0.533,0,0.988,0.376,1.084,0.892l0.043,0.106h0.111c0.607,0,1.104,0.488,1.104,1.09
			c0,0.085-0.014,0.17-0.034,0.253c-0.249-0.073-0.5-0.146-0.757-0.222v1.547c-0.564-0.889-1.555-1.479-2.685-1.479
			c-0.421,0-0.822,0.082-1.189,0.23C13.464,7.871,13.329,7.591,13.329,7.28z M18.2,10.55c-0.065,0-0.129-0.012-0.192-0.023
			c-0.035-0.226-0.093-0.443-0.173-0.651c0.271,0.042,0.722,0.116,1.27,0.208C18.905,10.365,18.575,10.55,18.2,10.55z"/>
		<circle cx="18.09" cy="5.02" r="0.536"/>
		<circle cx="15.78" cy="3.831" r="0.537"/>
		<circle cx="16.969" cy="2.618" r="0.312"/>
		<circle cx="17.733" cy="3.654" r="0.36"/>
		<circle cx="17.796" cy="1.691" r="0.244"/>
		<circle cx="15.932" cy="0.243" r="0.243"/>
		<path d="M17.554,27.896l0.009,0.002l2.021-9.125l-1.936-0.43c0.098,3.326-0.082,7.902-1.188,8.789
			c-0.687,0.551-2.11,0.827-4.229,0.827c-1.181,0-2.571-0.089-4.023-0.254v0.248h3.438l-0.437,2.455H8.107L7.046,32h11.932
			l-1.061-1.591h-3.3l-0.437-2.454h3.373L17.554,27.896L17.554,27.896z"/>
		<path d="M3.998,26.199c0.004,0.006,0.012,0.012,0.017,0.018c0.06,0.071,0.129,0.139,0.207,0.201
			c0.008,0.005,0.015,0.014,0.023,0.02c0.088,0.066,0.187,0.129,0.299,0.187c0.018,0.009,0.04,0.019,0.058,0.026
			c0.094,0.043,0.195,0.084,0.306,0.121c0.035,0.012,0.07,0.021,0.106,0.033c0.138,0.04,0.284,0.076,0.447,0.105
			c0.535,0.094,1.087,0.18,1.646,0.256c0.006,0.001,0.01,0.002,0.016,0.003v-0.001c0.359,0.051,0.721,0.098,1.083,0.139l0,0
			c0.017,0.002,0.034,0.004,0.051,0.004c0.311,0.037,0.621,0.068,0.93,0.098c0.031,0.003,0.062,0.006,0.093,0.009
			c0.657,0.06,1.303,0.104,1.925,0.127c0.079,0.002,0.156,0.004,0.233,0.007c0.216,0.008,0.428,0.012,0.637,0.012
			c0.05,0,0.104,0.004,0.154,0.004c0.066,0,0.129-0.004,0.196-0.004c0.101,0,0.202-0.002,0.301-0.004
			c0.128-0.002,0.254-0.008,0.378-0.014c0.097-0.004,0.193-0.009,0.287-0.016c0.121-0.006,0.237-0.016,0.353-0.025
			c0.09-0.007,0.181-0.015,0.267-0.023c0.113-0.012,0.219-0.025,0.325-0.041c0.082-0.012,0.165-0.021,0.243-0.034
			c0.104-0.017,0.2-0.036,0.298-0.058c0.071-0.015,0.145-0.029,0.212-0.045c0.096-0.022,0.183-0.05,0.27-0.076
			c0.059-0.019,0.121-0.035,0.176-0.055c0.091-0.031,0.171-0.068,0.251-0.105c0.041-0.019,0.086-0.033,0.124-0.053
			c0.113-0.058,0.213-0.119,0.299-0.19c0.049-0.038,0.096-0.091,0.141-0.148c0.015-0.017,0.028-0.041,0.042-0.062
			c0.03-0.043,0.061-0.09,0.087-0.141c0.015-0.029,0.03-0.059,0.044-0.09c0.026-0.052,0.053-0.107,0.076-0.168
			c0.014-0.033,0.025-0.066,0.041-0.104c0.025-0.066,0.048-0.139,0.071-0.213c0.011-0.033,0.021-0.064,0.032-0.101
			c0.064-0.225,0.123-0.478,0.174-0.747c0.008-0.041,0.015-0.081,0.021-0.121c0.018-0.102,0.036-0.203,0.053-0.31
			c0.008-0.052,0.015-0.101,0.021-0.15c0.016-0.104,0.029-0.21,0.042-0.317c0.006-0.051,0.013-0.101,0.019-0.151
			c0.016-0.121,0.028-0.243,0.041-0.366c0.004-0.041,0.008-0.078,0.012-0.119c0.033-0.341,0.06-0.691,0.08-1.056
			c0.002-0.032,0.004-0.063,0.006-0.097c0.009-0.147,0.016-0.297,0.021-0.446c0.002-0.047,0.004-0.095,0.006-0.142
			c0.006-0.142,0.012-0.28,0.016-0.422c0.001-0.047,0.003-0.093,0.004-0.139c0.004-0.15,0.008-0.301,0.01-0.451
			c0-0.033,0.001-0.07,0.002-0.104c0.006-0.372,0.008-0.742,0.006-1.105c0-0.011,0-0.021,0-0.033v0.002
			c-0.015-2.049-0.143-3.882-0.285-4.495c-1.046-0.753-3.196-0.331-3.987-0.331c-0.224,0.123-0.444,1.006-0.745,2.106l0,0
			c-0.055,0.199-0.113,0.405-0.173,0.615c-0.001,0.003-0.002,0.007-0.003,0.012c-0.062,0.211-0.125,0.426-0.192,0.643
			c0,0.002,0,0.003,0,0.004c-0.412,1.304-0.961,2.633-1.767,3.277l0,0c-0.354,0.281-0.756,0.436-1.22,0.393
			c-2.872-0.4-6.175,2.884-4.908,4.451C3.999,26.197,3.999,26.197,3.998,26.199z"/>
		<path d="M9.336,21.32c1.033-0.254,1.727-1.922,2.21-3.477c-0.88,1.174-1.954,2.213-2.971,2.147
			C7.431,20.009,7.375,21.085,9.336,21.32z"/>
		<path d="M5.393,27.303c-0.814-0.143-1.312-0.43-1.617-0.756c-0.57,0.901-1.08,1.735-1.4,2.266H1.429v1.436h4.629v-1.436H5.983
			l0.888-1.278C6.378,27.464,5.885,27.389,5.393,27.303z"/>
	</g>
</g>
<g>
</g>
<g>
</g>
<g>
</g>
<g>
</g>
<g>
</g>
<g>
</g>
<g>
</g>
<g>
</g>
<g>
</g>
<g>
</g>
<g>
</g>
<g>
</g>
<g>
</g>
<g>
</g>
<g>
</g>
</svg>
