<?xml version="1.0" encoding="iso-8859-1"?>
<!-- Generator: Adobe Illustrator 16.0.0, SVG Export Plug-In . SVG Version: 6.00 Build 0)  -->
<!DOCTYPE svg PUBLIC "-//W3C//DTD SVG 1.1//EN" "http://www.w3.org/Graphics/SVG/1.1/DTD/svg11.dtd">
<svg version="1.1" id="Capa_1" xmlns="http://www.w3.org/2000/svg" xmlns:xlink="http://www.w3.org/1999/xlink" x="0px" y="0px"
	 width="31.95px" height="31.95px" viewBox="0 0 31.95 31.95" style="enable-background:new 0 0 31.95 31.95;" xml:space="preserve"
	>
<g>
	<g>
		<path d="M9.491,14.405c0,3.083,0,15.217,0,16.415c2.876,1.674,10.947,1.33,12.707,0c0-1.1,0-12.789,0-16.194
			c-1.651,1.39-3.83,2.243-6.224,2.243C13.455,16.869,11.17,15.927,9.491,14.405z M17.948,21.048c0,1.218-0.691,2.204-1.545,2.204
			c-0.853,0-1.544-0.986-1.544-2.204c0-1.216,0.692-2.203,1.544-2.203C17.256,18.845,17.948,19.832,17.948,21.048z"/>
		<path d="M15.975,16.354c4.859,0,8.799-3.661,8.799-8.178C24.774,3.659,20.834,0,15.975,0c-4.86,0-8.799,3.66-8.799,8.177
			C7.176,12.694,11.115,16.354,15.975,16.354z M9.491,4.011c0.856-1.597,4.851-3.152,6.826-1.607
			c1.416-1.545,5.416,0.151,6.287,1.466c2.276,3.342-1.892,10.253-6.086,10.597C12.325,14.809,6.944,8.861,9.491,4.011z"/>
		<path d="M13.269,11.268c0,1.479,1.204,2.683,2.683,2.683s2.683-1.203,2.683-2.683s-1.204-2.683-2.683-2.683
			S13.269,9.788,13.269,11.268z M15.952,9.958c0.722,0,1.31,0.588,1.31,1.31s-0.587,1.31-1.31,1.31c-0.723,0-1.309-0.588-1.309-1.31
			S15.23,9.958,15.952,9.958z"/>
		<path d="M19.622,8.33c1.479,0,2.684-1.203,2.684-2.683s-1.204-2.683-2.684-2.683c-1.479,0-2.682,1.203-2.682,2.683
			S18.142,8.33,19.622,8.33z M19.622,4.338c0.723,0,1.31,0.588,1.31,1.31s-0.587,1.31-1.31,1.31c-0.721,0-1.309-0.588-1.309-1.31
			S18.901,4.338,19.622,4.338z"/>
		<path d="M15.093,5.647c0-1.479-1.204-2.683-2.683-2.683S9.727,4.167,9.727,5.647S10.931,8.33,12.41,8.33
			S15.093,7.127,15.093,5.647z M11.101,5.647c0-0.722,0.587-1.31,1.31-1.31c0.722,0,1.309,0.588,1.309,1.31s-0.587,1.31-1.309,1.31
			C11.688,6.957,11.101,6.369,11.101,5.647z"/>
		<ellipse cx="16.403" cy="21.048" rx="0.813" ry="1.159"/>
	</g>
</g>
<g>
</g>
<g>
</g>
<g>
</g>
<g>
</g>
<g>
</g>
<g>
</g>
<g>
</g>
<g>
</g>
<g>
</g>
<g>
</g>
<g>
</g>
<g>
</g>
<g>
</g>
<g>
</g>
<g>
</g>
</svg>
