<?xml version="1.0" encoding="iso-8859-1"?>
<!-- Generator: Adobe Illustrator 16.0.0, SVG Export Plug-In . SVG Version: 6.00 Build 0)  -->
<!DOCTYPE svg PUBLIC "-//W3C//DTD SVG 1.1//EN" "http://www.w3.org/Graphics/SVG/1.1/DTD/svg11.dtd">
<svg version="1.1" id="Capa_1" xmlns="http://www.w3.org/2000/svg" xmlns:xlink="http://www.w3.org/1999/xlink" x="0px" y="0px"
	 width="31.807px" height="31.807px" viewBox="0 0 31.807 31.807" style="enable-background:new 0 0 31.807 31.807;"
	 xml:space="preserve">
<g>
	<g>
		<path d="M21.757,15.537c0.106-0.12,0.359-1.412-1.037-3.468c-0.415-0.611-3.887-3.686-6.876-3.366c-0.042-1.432,0,0,0.389-4.899
			c-2.804,0.175-5.481,1.154-6.562,2.54c-1.222,1.744-5.64,4.74-5.123,7.842c0.517,3.103,0.329,5.97,1.974,7.678
			c1.146,1.189,2.222,0.556,2.77,0.061c0.922,1.673,2.335,2.773,1.996,3.266c-0.404,0.588-1.56,6.604-1.56,6.604l9.25,0.012
			c0,0-0.756-0.427-1.25-0.993c-0.339-0.388,0.102-1.153,0.592-2.48c0.067-0.182,0.465,0.075,0.724-0.531
			c0.257-0.604-0.254-0.911-0.193-1.093c0.054-0.16,0.094-0.143,0.127-0.27c0.068-0.369,0.235-0.591,0.462-0.722
			c3.448,0.104,4.346-0.067,3.494-2.456c0.11-0.102,0.727-0.501,0.858-0.787c0.131-0.285-0.18-0.356-0.18-0.356
			s0.228,0.013,0.395-0.25c0.166-0.264-0.287-1.288-0.287-1.288s1.145-0.25,1.395-0.68c0.25-0.429-2.014-3.062-1.93-3.539
			C21.268,15.883,21.65,15.656,21.757,15.537z"/>
		<path d="M27.501,0.031c-0.57,0.335-7.591,3.663-8.2,3.953l-0.003-0.005l-1.304,0.765l0.215,0.368l-1.476,0.863l0.126,0.217
			l1.005-0.59l0.053,0.09l-1.004,0.59L17,6.429l1.004-0.59l0.054,0.091l-1.004,0.59l0.09,0.151l1.004-0.589l0.053,0.09l-1.004,0.59
			l0.086,0.147l1.003-0.59l0.055,0.09L17.336,7l0.095,0.163l1.004-0.589l0.054,0.09l-1.004,0.589l0.087,0.148l1.004-0.591
			l0.054,0.092L17.625,7.49l0.089,0.152l1.004-0.59l0.053,0.09l-1.004,0.591l0.087,0.147l1.003-0.59l0.053,0.091l-1.004,0.59
			l0.105,0.178l1.003-0.589l0.052,0.089l-1.003,0.59l0.087,0.146l1.003-0.589l0.054,0.09l-1.005,0.589l0.089,0.151l1.004-0.59
			l0.053,0.091l-1.003,0.589l0.086,0.148l1.004-0.59l0.053,0.091l-1.004,0.59l0.095,0.164l1.005-0.589l0.053,0.09l-1,0.589
			l0.108,0.188l1.476-0.865l0.158,0.27l1.304-0.767l-0.004-0.004c0.543-0.389,6.753-4.822,7.45-5.231
			C29.855,2.375,28.097-0.318,27.501,0.031z M20.892,8.004l-1.95-3.322l0.225-0.132l1.95,3.324L20.892,8.004z M23.27,4.935
			c-0.474,0.277-0.966,0.316-1.101,0.088c-0.137-0.23,0.14-0.642,0.612-0.92c0.475-0.276,0.968-0.315,1.101-0.087
			C24.017,4.245,23.744,4.658,23.27,4.935z"/>
	</g>
</g>
<g>
</g>
<g>
</g>
<g>
</g>
<g>
</g>
<g>
</g>
<g>
</g>
<g>
</g>
<g>
</g>
<g>
</g>
<g>
</g>
<g>
</g>
<g>
</g>
<g>
</g>
<g>
</g>
<g>
</g>
</svg>
