<?xml version="1.0" encoding="iso-8859-1"?>
<!-- Generator: Adobe Illustrator 16.0.0, SVG Export Plug-In . SVG Version: 6.00 Build 0)  -->
<!DOCTYPE svg PUBLIC "-//W3C//DTD SVG 1.1//EN" "http://www.w3.org/Graphics/SVG/1.1/DTD/svg11.dtd">
<svg version="1.1" id="Capa_1" xmlns="http://www.w3.org/2000/svg" xmlns:xlink="http://www.w3.org/1999/xlink" x="0px" y="0px"
	 width="31.125px" height="31.124px" viewBox="0 0 31.125 31.124" style="enable-background:new 0 0 31.125 31.124;"
	 xml:space="preserve">
<g>
	<g>
		<path d="M21.238,23.333c-0.146-1.609-1.793-19.983-1.793-21.937c0-2.043-7.764-1.67-7.764,0c0,1.598-1.649,20.312-1.792,21.938
			H9.876v3.656h1.027v4.134h0.603v-2.815h0.253v2.815h0.413v-2.815h0.254v2.815h0.423v-2.815h0.253v2.815h0.414v-2.815h0.254v2.815
			h0.46v-2.815h0.254v2.815h0.412v-2.815h0.254v2.815h0.423v-2.815h0.254v2.815h0.412v-2.815h0.255v2.815h0.498v-2.815h0.253v2.815
			h0.414v-2.815h0.253v2.815h0.423v-2.815h0.253v2.815h0.414v-2.815h0.253v2.815h0.46v-2.815h0.253v2.815h0.527V26.99h0.752v-3.656
			L21.238,23.333L21.238,23.333z M15.562,13.818c0.643,0,1.166,1.075,1.166,2.403c0,1.328-0.522,2.403-1.166,2.403
			s-1.164-1.075-1.164-2.403C14.398,14.893,14.919,13.818,15.562,13.818z M20.22,24.937h-9.317V24.31h9.317V24.937z"/>
		<ellipse cx="15.562" cy="16.319" rx="0.558" ry="1.153"/>
	</g>
</g>
<g>
</g>
<g>
</g>
<g>
</g>
<g>
</g>
<g>
</g>
<g>
</g>
<g>
</g>
<g>
</g>
<g>
</g>
<g>
</g>
<g>
</g>
<g>
</g>
<g>
</g>
<g>
</g>
<g>
</g>
</svg>
