<?xml version="1.0" encoding="iso-8859-1"?>
<!-- Generator: Adobe Illustrator 16.0.0, SVG Export Plug-In . SVG Version: 6.00 Build 0)  -->
<!DOCTYPE svg PUBLIC "-//W3C//DTD SVG 1.1//EN" "http://www.w3.org/Graphics/SVG/1.1/DTD/svg11.dtd">
<svg version="1.1" id="Capa_1" xmlns="http://www.w3.org/2000/svg" xmlns:xlink="http://www.w3.org/1999/xlink" x="0px" y="0px"
	 width="31.208px" height="31.209px" viewBox="0 0 31.208 31.209" style="enable-background:new 0 0 31.208 31.209;"
	 xml:space="preserve">
<g>
	<path d="M7.861,18.755l-1.177-0.784c0,0-0.286,8.975,3.425,12.561c-1.141,0.498-2.105-1.286-2.105-1.286s-0.357,0.804,0.589,1.963
		C7.576,31.279,4.4,24.393,4.4,24.393s-0.678,0.5-0.678,2.105c-0.535-0.143-0.214-2.068-0.214-2.068s-0.767,0.088-0.999,1.248
		c-0.481-0.875,1.124-7.297,0.642-7.707c-0.481-0.41-0.552,0.195-1.177,1.963C2.26,17.363,2.295,9.086,5.292,4.875
		c1.463-2.712,10.706-8.063,19.089-2.319c8.385,5.745,3.372,16.146,3.317,16.842c-0.053,0.694,1.143,2.104,1.213,5.602
		c-1.176-2.747-2.068-2.176-2.068-2.176s-0.946,3.816-0.107,5.103c-0.785,0.429-1.354-1.143-1.354-1.143s-1.606,3.551-2.498,3.89
		c0.534-0.91,0.428-2.141-0.036-1.713c-1.659,1.018-1.445,0.82-2.498,0.393c1.463-0.355,2.641-2.177,3.176-4.174
		c-0.445,0.088-1.142,1.053-1.748,0.393c0.803-0.232,2.782-1.605,2.782-1.605s-1.213,0.321-1.642-0.393
		c1.32,0,1.427-0.803,1.392-1.249s-0.036-0.446-1.213-0.107c1.231-0.856,1.748-3.889,1.748-3.889s-0.464,0.838-1.142,0.892
		c0.713-0.963,0.998-1.998,0.998-1.998s-0.48,0.678-1.498,0.715c0.963-0.894,1.142-2.713,1.142-2.713s-1.134,2.186-1.998,2.105
		c0.856-0.874,1.392-2.783,1.392-2.783s-1.854,3.443-2.926,2.676c1.873-0.838,2.141-6.298,1.553-6.993
		c-0.412-0.232-1.088,6.083-3.141,6.404c1.355-1.463,2.926-8.153,1.338-8.902c-0.768,0.143-1.891,3.729-2.676,4.246
		c0.82-1.73,0.178-2.712,0.178-2.712s-0.339,1.873-1.105,2.533c0.375-1.034-0.071-3.496-0.071-3.496s-1.445,6.69-2.891,6.993
		c1.088-1.73,0.785-6.102,0.785-6.102s-3.39,7.797-4.282,8.1c0.714-1.552,0.785-5.031,0.785-5.031s-1.927,3.141-1.927,4.621
		c-0.764,0.462-1.103-4.479-1.103-5.265s-1.499,4.959-1.499,4.959L7.861,18.755z"/>
</g>
<g>
</g>
<g>
</g>
<g>
</g>
<g>
</g>
<g>
</g>
<g>
</g>
<g>
</g>
<g>
</g>
<g>
</g>
<g>
</g>
<g>
</g>
<g>
</g>
<g>
</g>
<g>
</g>
<g>
</g>
</svg>
