<?xml version="1.0" encoding="iso-8859-1"?>
<!-- Generator: Adobe Illustrator 16.0.0, SVG Export Plug-In . SVG Version: 6.00 Build 0)  -->
<!DOCTYPE svg PUBLIC "-//W3C//DTD SVG 1.1//EN" "http://www.w3.org/Graphics/SVG/1.1/DTD/svg11.dtd">
<svg version="1.1" id="Capa_1" xmlns="http://www.w3.org/2000/svg" xmlns:xlink="http://www.w3.org/1999/xlink" x="0px" y="0px"
	 width="382.017px" height="382.016px" viewBox="0 0 382.017 382.016" style="enable-background:new 0 0 382.017 382.016;"
	 xml:space="preserve">
<g>
	<path d="M99.424,334.108c-4.473,11.352-41.921,23.379-63.337-8.804c-5.5-3.784-32.188,14.655-35.288,3.655
		c-3.083-11,29.894-17.866,30.588-24.744c0.695-6.866-15.793-7.895-17.183-15.461c-1.378-7.555,14.088-19.933,12.378-27.487
		c-1.723-7.556-28.183,12.716-26.128-6.528c0-31.948,18.234-38.534,19.262-46.79c1.027-8.244-17.89-3.725-19.612-22.963
		c-1.722-19.244,18.561-21.655,22.683-26.46c4.128-4.834-1.372-18.572,3.433-33.7C47.542,88.061,66.436,75,99.424,46.134
		c32.993-28.866,90.708-36.433,160.473,7.905c69.759,44.338,41.243,96.914,41.243,96.914s42.972-3.777,50.538,4.473
		c7.556,8.25-1.296,18.233,5.488,23.366c6.773,5.144,22.666,18.917,21.649,36.082c-1.027,17.189-26.121,40.543-29.894,47.771
		c-3.783,7.217,35.394,4.121,32.988,23.716c-2.405,19.583-51.543,19.933-51.543,29.894c-1.717,29.555-20.621,40.881-36.771,42.948
		c-16.148,2.067-9.609-14.444-15.46-18.566c-5.851-4.11-20.283,1.728-25.433-8.232s-2.744-17.095,0.688-26.46
		c3.328-9.097,30.349-27.173,33-40.555c2.65-13.371-19.081-13.989-20.972-27.149c-1.624-11.222,10.591-25.047,0.7-31.61
		c-17.598-3.433-41.559-9.535-65.993-24.744c-51.473-32.007-62.537-74.926-122.896-63.494
		C34.82,269.85,103.896,322.782,99.424,334.108z"/>
</g>
<g>
</g>
<g>
</g>
<g>
</g>
<g>
</g>
<g>
</g>
<g>
</g>
<g>
</g>
<g>
</g>
<g>
</g>
<g>
</g>
<g>
</g>
<g>
</g>
<g>
</g>
<g>
</g>
<g>
</g>
</svg>
