<?xml version="1.0" encoding="iso-8859-1"?>
<!-- Generator: Adobe Illustrator 16.0.0, SVG Export Plug-In . SVG Version: 6.00 Build 0)  -->
<!DOCTYPE svg PUBLIC "-//W3C//DTD SVG 1.1//EN" "http://www.w3.org/Graphics/SVG/1.1/DTD/svg11.dtd">
<svg version="1.1" id="Capa_1" xmlns="http://www.w3.org/2000/svg" xmlns:xlink="http://www.w3.org/1999/xlink" x="0px" y="0px"
	 width="374.503px" height="374.503px" viewBox="0 0 374.503 374.503" style="enable-background:new 0 0 374.503 374.503;"
	 xml:space="preserve">
<g>
	<path d="M138.698,62.434c3.299,35.353-10.51,32.579-13.26,36.456c-2.75,3.871-29.835,9.949-29.835,9.949
		s-26.513,64.078-19.886,115.989c-4.975,10.509-19.32-29.823-24.294-24.289c-6.627,10.498,19.88,80.642,24.294,87.263
		c4.414,6.632,6.615-3.865,14.363,0c7.736,3.876,9.949,36.479,19.886,44.198c9.943,7.719,10.498,47.502-41.974,41.979
		c-9.4-4.414,1.098-20.983,1.098-20.983s-58.543-39.224-44.18-156.871C39.262,78.467,68.53,26.533,118.8,33.708
		c111.581-111.02,194.453,86.153,201.062,104.936c6.621,18.789,3.877,43.1,13.266,59.652c9.389,16.57,36.993,113.256,0,144.738
		c-22.666,17.679-69.141,36.164-77.898,12.704c-8.781-23.482,28.715-73.997,33.688-96.662c3.316-33.129-44.746-65.73-62.975-96.108
		C207.704,132.584,137.034,74.029,138.698,62.434z"/>
</g>
<g>
</g>
<g>
</g>
<g>
</g>
<g>
</g>
<g>
</g>
<g>
</g>
<g>
</g>
<g>
</g>
<g>
</g>
<g>
</g>
<g>
</g>
<g>
</g>
<g>
</g>
<g>
</g>
<g>
</g>
</svg>
