<?xml version="1.0" encoding="iso-8859-1"?>
<!-- Generator: Adobe Illustrator 16.0.0, SVG Export Plug-In . SVG Version: 6.00 Build 0)  -->
<!DOCTYPE svg PUBLIC "-//W3C//DTD SVG 1.1//EN" "http://www.w3.org/Graphics/SVG/1.1/DTD/svg11.dtd">
<svg version="1.1" id="Capa_1" xmlns="http://www.w3.org/2000/svg" xmlns:xlink="http://www.w3.org/1999/xlink" x="0px" y="0px"
	 width="382.166px" height="382.166px" viewBox="0 0 382.166 382.166" style="enable-background:new 0 0 382.166 382.166;"
	 xml:space="preserve">
<g>
	<path d="M227.657,39.237c0,0-55.25-30.086-90.801-21.322c-35.557,8.758-76.403,70.396-86.439,85.879
		c-10.031,15.507-32.27,19.156-40.473,46.504c-8.215,27.371-12.594,66.746-8.215,93.558c4.391,26.787,17.889,28.62,26.256,34.447
		c8.384,5.814,10.585,21.158-2.738,35.557c15.869,3.83,23.524-19.15,23.524-19.15s4.017,41.943,2.189,52.523
		c-1.822,10.591-20.786-2.932-20.786-2.932s14.316,22.269,29.549,21.533c15.232-0.736,59.08,2.195,61.807-32.812
		c2.738-35.008-32.275-80.969-32.275-123.638c0-42.68,9.855-76.578,100.656-85.896c39.381,44.314,71.458,108.13,74.95,140.044
		c3.491,31.913-21.696,85.885-45.401,79.322c-5.114,15.32,29.158,26.262,50.866,16.418c21.695-9.855,15.32-36.643,15.32-36.643
		s20.248-4.578,16.955,15.857c29.904-2.569,26.25-42.505,32.474-72.585c6.212-30.081,8.968-43.415,19.489-39.562
		c10.51,3.877,15.507,0.198,23.518,21.347c15.344-31.739-15.32-42.669-45.949-63.466C288.378,80.276,227.657,39.237,227.657,39.237z
		"/>
</g>
<g>
</g>
<g>
</g>
<g>
</g>
<g>
</g>
<g>
</g>
<g>
</g>
<g>
</g>
<g>
</g>
<g>
</g>
<g>
</g>
<g>
</g>
<g>
</g>
<g>
</g>
<g>
</g>
<g>
</g>
</svg>
