<?xml version="1.0" encoding="iso-8859-1"?>
<!-- Generator: Adobe Illustrator 16.0.0, SVG Export Plug-In . SVG Version: 6.00 Build 0)  -->
<!DOCTYPE svg PUBLIC "-//W3C//DTD SVG 1.1//EN" "http://www.w3.org/Graphics/SVG/1.1/DTD/svg11.dtd">
<svg version="1.1" id="Capa_1" xmlns="http://www.w3.org/2000/svg" xmlns:xlink="http://www.w3.org/1999/xlink" x="0px" y="0px"
	 width="29.543px" height="29.543px" viewBox="0 0 29.543 29.543" style="enable-background:new 0 0 29.543 29.543;"
	 xml:space="preserve">
<g>
	<path d="M11.175,21.376c0,0-0.125,2.335-0.25,3.209c-1.583,0.874-5.318-2.5-5.318-2.5s-0.138,3.772,1.568,5.333
		c-2.292,0.124-2.5-5.833-2.5-5.833s-4.823-4.666-2.516-9.625S7.842-2.374,14.008,1.085C22.8-3.999,25.05,10.334,25.175,12.126
		s2.25,4,2.834,4.084c-0.375,1.332-2.125-0.625-2.125-0.625s0.707,5.625-1.209,6.208c0.293-0.876-0.125-1.5-0.125-1.5l-1.791,2.083
		c0,0,0.082,6.668-3.209,7.167c2.123-1.732,1.899-7.125,1.899-7.125s-1.524,2.833-4.092,2.583c-0.038-0.331-0.39-3.375-0.39-3.375
		l4.658-3.695c-0.349-0.478-4.783-6.472-6.876-10.438c-3.2,4.758-7.867,8.674-7.95,9.424C7.508,19.792,11.175,21.376,11.175,21.376z
		"/>
</g>
<g>
</g>
<g>
</g>
<g>
</g>
<g>
</g>
<g>
</g>
<g>
</g>
<g>
</g>
<g>
</g>
<g>
</g>
<g>
</g>
<g>
</g>
<g>
</g>
<g>
</g>
<g>
</g>
<g>
</g>
</svg>
