<?xml version="1.0" encoding="iso-8859-1"?>
<!-- Generator: Adobe Illustrator 16.0.0, SVG Export Plug-In . SVG Version: 6.00 Build 0)  -->
<!DOCTYPE svg PUBLIC "-//W3C//DTD SVG 1.1//EN" "http://www.w3.org/Graphics/SVG/1.1/DTD/svg11.dtd">
<svg version="1.1" id="Capa_1" xmlns="http://www.w3.org/2000/svg" xmlns:xlink="http://www.w3.org/1999/xlink" x="0px" y="0px"
	 width="374.503px" height="374.503px" viewBox="0 0 374.503 374.503" style="enable-background:new 0 0 374.503 374.503;"
	 xml:space="preserve">
<g>
	<path d="M37.049,60.339c2.306,2.867-17.866,51.274,37.449,19.588c55.326-31.692,160.771-72.036,175.775,0
		c55.897-24.779,51.857,106.612,50.702,120.449c-1.051,12.716,47.98,79.953,56.622,38.23c0.21-15.764-9.879-0.735-10.51-4.811
		c-7.427-13.989,33.992-43.789,26.507,23.635c-8.36,60.51-54.754,6.328-54.754,6.328s19.887,42.085,29.392,38.605
		c-22.175,29.963-41.489,4.039-41.489,4.039s-0.291,19.595,12.098,15.555c-29.671,18.719-29.963,11.537-29.963,11.537
		s-38.896-7.229-33.42-82.417c1.729-10.101-144.061-168.857-178.643-88.746c-18.45,3.468-45.529-4.029-61.101-37.449
		c12.688-7.497,17.288-13.259,17.288-13.259s-26.507,10.965-31.686-2.306C-3.874,96.065,5.923,53.992,37.049,60.339z"/>
</g>
<g>
</g>
<g>
</g>
<g>
</g>
<g>
</g>
<g>
</g>
<g>
</g>
<g>
</g>
<g>
</g>
<g>
</g>
<g>
</g>
<g>
</g>
<g>
</g>
<g>
</g>
<g>
</g>
<g>
</g>
</svg>
