<?xml version="1.0" encoding="iso-8859-1"?>
<!-- Generator: Adobe Illustrator 16.0.0, SVG Export Plug-In . SVG Version: 6.00 Build 0)  -->
<!DOCTYPE svg PUBLIC "-//W3C//DTD SVG 1.1//EN" "http://www.w3.org/Graphics/SVG/1.1/DTD/svg11.dtd">
<svg version="1.1" id="Capa_1" xmlns="http://www.w3.org/2000/svg" xmlns:xlink="http://www.w3.org/1999/xlink" x="0px" y="0px"
	 width="31.82px" height="31.82px" viewBox="0 0 31.82 31.82" style="enable-background:new 0 0 31.82 31.82;" xml:space="preserve"
	>
<g>
	<path d="M6.696,8.9c-1.659,0.147-3.661,3.882-3.661,3.882s-2.05,1.05-2.49,2.051c0.83,0.146,1.025,0.513,1.025,0.513
		s-1.294,0.781-1.538,1.903c-0.244,1.121,0.952,2.783,0.952,2.783s-0.953-0.146-0.952,1.098c0.001,1.246,1.025,2.271,1.025,2.271
		s-0.415,0.195-0.219,0.978c0.025,0.537,1.099,1.93,1.83,2.027c-0.415-0.589-0.306-6.008,0.269-6.496
		c0.575-0.486,0.951-0.779,1.636-0.242c0.684,0.535,4.833-1.465,4.833-1.465s-0.39,1.023-2.051,1.902
		c1.417,0.051,5.738-3.368,5.738-3.368s-1.562,2.931-2.516,3.661c1.686,0.073,3.662-1.393,3.662-1.393s0.438-0.123,0,1.393
		c1.393,0.098,3.076-3.148,3.076-3.148s-0.147,1.367-0.438,2.562c1.61-1.05,3.295-5.933,3.295-5.933s0.809,1.539,0.514,3.15
		c1.65-1.312,2.59-3.053,2.59-3.053s1.173,1.515,1.609,4.564c0.732-1.196,0.051-3.688,0.051-3.688s1,1.272,1.902,3.349
		c0.293-2.197-1.318-4.249-1.318-4.249s3.736,1.392,3.441,12.452c2.125-0.439,2.93-4.128,2.854-5.199
		c-0.069-1.076-0.465-0.83-0.657-1.979c-0.195-1.147,0.413-2.562,0.293-4.028c-0.121-1.466-2.101-4.199-3.148-4.907
		c-0.17-1.074-3.979-4.028-5.566-4.248c-1.293-0.562-9.153-1.074-10.619,0C11.266,6.356,8.064,7.414,6.696,8.9z"/>
</g>
<g>
</g>
<g>
</g>
<g>
</g>
<g>
</g>
<g>
</g>
<g>
</g>
<g>
</g>
<g>
</g>
<g>
</g>
<g>
</g>
<g>
</g>
<g>
</g>
<g>
</g>
<g>
</g>
<g>
</g>
</svg>
