<?xml version="1.0" encoding="iso-8859-1"?>
<!-- Generator: Adobe Illustrator 16.0.0, SVG Export Plug-In . SVG Version: 6.00 Build 0)  -->
<!DOCTYPE svg PUBLIC "-//W3C//DTD SVG 1.1//EN" "http://www.w3.org/Graphics/SVG/1.1/DTD/svg11.dtd">
<svg version="1.1" id="Capa_1" xmlns="http://www.w3.org/2000/svg" xmlns:xlink="http://www.w3.org/1999/xlink" x="0px" y="0px"
	 width="32.526px" height="32.526px" viewBox="0 0 32.526 32.526" style="enable-background:new 0 0 32.526 32.526;"
	 xml:space="preserve">
<g>
	<path d="M27.219,11.288c0,0-5.555-2.387-7.259-3.167c-0.535,1.754-7.794,7.796-9.256,7.941c-1.461,0.146-2.483,4.97-2.825,5.554
		c-0.341,0.585,0.584,0.828,1.608,1.851c1.023,1.023,1.85,4.728,2.24,5.604c0.391,0.877,0.391,2.095-0.486,3.068
		c-0.877,0.975-5.603-0.194-5.603-0.194s-4.189-3.851-4.481-5.847c-0.292-1.997-0.194-6.918,0-8.673
		c0.194-1.753,0.974-2.142,1.266-3.458C1.741,8.071,7.05,5.783,7.05,5.783s3.8-6.288,11.546-5.75c7.746,0.537,9.5,7.747,9.5,7.747
		s4.14,5.506,3.36,6.967c-0.778,1.462-3.02,1.339-3.02,1.339l-0.682,1.682L27.219,11.288z"/>
</g>
<g>
</g>
<g>
</g>
<g>
</g>
<g>
</g>
<g>
</g>
<g>
</g>
<g>
</g>
<g>
</g>
<g>
</g>
<g>
</g>
<g>
</g>
<g>
</g>
<g>
</g>
<g>
</g>
<g>
</g>
</svg>
