<?xml version="1.0" encoding="iso-8859-1"?>
<!-- Generator: Adobe Illustrator 16.0.0, SVG Export Plug-In . SVG Version: 6.00 Build 0)  -->
<!DOCTYPE svg PUBLIC "-//W3C//DTD SVG 1.1//EN" "http://www.w3.org/Graphics/SVG/1.1/DTD/svg11.dtd">
<svg version="1.1" id="Capa_1" xmlns="http://www.w3.org/2000/svg" xmlns:xlink="http://www.w3.org/1999/xlink" x="0px" y="0px"
	 width="371.119px" height="371.119px" viewBox="0 0 371.119 371.119" style="enable-background:new 0 0 371.119 371.119;"
	 xml:space="preserve">
<g>
	<path d="M248.691,107.018c0,0-65.041,71.586-94.561,64.504c18.578-7.66,25.684-32.247,25.684-32.247s-83.644,26.245-89.657,43.176
		c-6.551,30.617,51.929,101.135,61.772,107.697c9.838,6.551-7.105,80.97-7.105,80.97s-33.35-39.422-29.52-58.55
		c-13.119,27.337-69.975,45.378-69.975,45.378l27.885-77.069c0,0-45.914,62.321-69.975,21.311
		c34.996-7.123,64.521-205.014,105.514-244.915c40.999-39.912,117.542-95.67,159.625-19.145
		c63.407-28.422,67.786,116.981,67.786,116.981s18.041,132.832,31.715,160.718c-19.139,15.297-37.18-39.901-37.18-39.901
		s-23.494,69.97-24.043,81.448c-20.226,4.916-36.083-39.912-36.083-39.912s-18.029,27.885-24.592,43.193
		c-10.941,1.086-13.592-67.798-13.592-67.798s57.311-41.547,63.324-88.255c-18.029-26.548-35.533-86.673-35.533-86.673
		s-1.098,32.264-10.93,34.991c6.82-9.161,3.83-42.102,3.83-42.102s-14.771,44.998-37.18,49.289
		C235.73,145.109,248.691,107.018,248.691,107.018z"/>
</g>
<g>
</g>
<g>
</g>
<g>
</g>
<g>
</g>
<g>
</g>
<g>
</g>
<g>
</g>
<g>
</g>
<g>
</g>
<g>
</g>
<g>
</g>
<g>
</g>
<g>
</g>
<g>
</g>
<g>
</g>
</svg>
