<?xml version="1.0" encoding="iso-8859-1"?>
<!-- Generator: Adobe Illustrator 16.0.0, SVG Export Plug-In . SVG Version: 6.00 Build 0)  -->
<!DOCTYPE svg PUBLIC "-//W3C//DTD SVG 1.1//EN" "http://www.w3.org/Graphics/SVG/1.1/DTD/svg11.dtd">
<svg version="1.1" id="Capa_1" xmlns="http://www.w3.org/2000/svg" xmlns:xlink="http://www.w3.org/1999/xlink" x="0px" y="0px"
	 width="369.982px" height="369.982px" viewBox="0 0 369.982 369.982" style="enable-background:new 0 0 369.982 369.982;"
	 xml:space="preserve">
<g>
	<path d="M103.23,313.883c0,0-48.77,6.972-52.933-32.964c-30.191,2.79-45.056-34.354-49.698-43.171
		c-4.636-8.828,19.051-14.409,21.369-22.303c2.306-7.895-20.423-3.713-18.579-13.452c1.84-9.75,15.794-14.876,18.579-24.627
		c2.773-9.745-18.579-28.311-15.793-32.964s6.037-2.306,6.037-2.306s-6.48-19.53-0.922-30.197c5.564-10.673,26.916-5.57,26.916-5.57
		s-6.48-15.309,2.336-19.956c8.81-4.653,36.216,4.186,36.216,4.186s-7.882-16.266,2.785-19.051s26.011,24.154,45.979,26.927
		c19.957,2.791,50.136-58.508,106.793-43.176c19.034-16.704,33.898,5.57,33.898,5.57s22.269,0,32.965,20.902
		c57.568,10.679,4.659,62.683,15.787,59.91c45.039-0.934,36.223,28.323,36.223,28.323s30.652,10.211-14.865,34.109
		c12.997-7.194,60.826,27.65,12.542,49.008c17.177,23.203-12.997,37.146-12.997,37.146s-31.096-12.542-31.107-0.935
		c-0.012,11.619-50.049,31.645-50.049,31.645v-112.38c0,0,6.399-35.329-38.639-52.518c-45.039-17.189-86.376,3.234-110.53,19.968
		C81.399,192.698,103.23,313.883,103.23,313.883z"/>
</g>
<g>
</g>
<g>
</g>
<g>
</g>
<g>
</g>
<g>
</g>
<g>
</g>
<g>
</g>
<g>
</g>
<g>
</g>
<g>
</g>
<g>
</g>
<g>
</g>
<g>
</g>
<g>
</g>
<g>
</g>
</svg>
