<?xml version="1.0" encoding="iso-8859-1"?>
<!-- Generator: Adobe Illustrator 16.0.0, SVG Export Plug-In . SVG Version: 6.00 Build 0)  -->
<!DOCTYPE svg PUBLIC "-//W3C//DTD SVG 1.1//EN" "http://www.w3.org/Graphics/SVG/1.1/DTD/svg11.dtd">
<svg version="1.1" id="Capa_1" xmlns="http://www.w3.org/2000/svg" xmlns:xlink="http://www.w3.org/1999/xlink" x="0px" y="0px"
	 width="375.676px" height="375.676px" viewBox="0 0 375.676 375.676" style="enable-background:new 0 0 375.676 375.676;"
	 xml:space="preserve">
<g>
	<path d="M369.756,205.664c-11.292,5.897-20.961,0-20.961,0s23.658-14.526,26.881-28.504c-5.92-2.691-29.566-6.983-29.566-6.983
		s28.492-10.211,25.807-26.332c-5.909,4.834-34.401,12.354-34.401,12.354s45.145-39.76,34.401-83.292
		c-8.606,17.72-49.371,27.943-49.371,27.943s34.331-20.423,25.725-39.305c-11.829,19.419-42.458,35.014-42.458,35.014
		s38.149-58.041,19.84-67.727c-17.166,17.731-84.869,72.556-84.869,72.556s18.8-52.67,32.24-67.179
		c-9.681-8.606-43.544,35.469-43.544,35.469s-5.371-23.652,9.681-41.383c-29.719-14.567-55.887,48.915-57.516,50.532
		c-1.612,1.612,0-57.147,0-57.147s-14.503,57.147-14.503,58.759c0,1.611-22.041-37.618-22.041-37.618l4.297,41.921
		c0,0-36.006-52.121-76.853-31.697c34.389,9.219,44.075,51.058,44.075,51.058l-77.39-25.83l54.287,25.795
		c0,0-69.864-13.44-77.921,4.292c42.458-1.074,54.812,51.595,54.812,51.595s-36.006-10.749-49.447-30.646
		c-7.426,19.489,40.456,42.475,40.456,44.087c0,1.617-34.01,17.743-61.416-1.6c1.611,18.806,55.898,62.875,55.898,62.875
		l-48.904-6.446l41.921,17.738c0,0-21.498,25.258-48.904,11.816c7.905,37.613,75.235,48.904,75.235,48.904
		s-31.172,10.755-49.44,10.218c7.123,13.229,44.647,4.285,49.429,1.739c-2.854,2.674-17.159,16.979-40.297,22.992
		c42.832,24.184,79.544,5.909,81.693,3.223c0,0,0.765-14.176,1.746-32.217c-8.116-3.654-18.03-1.051-24.143-14.795
		c-7.976-17.936-15.939-30.897-3.982-55.303c7.298-14.9,21.071-6.422,31.043,2.569c-0.274-8.665-1.459-14.479-4.128-22.759
		c-4.828-15.052,22.578-50.533,22.578-50.533s9.137,81.699,20.423,69.882c-1.074-50.002,19.84-76.818,27.681-89.769
		c3.491,73.63,34.132,84.385,38.43,77.938C210.69,148.177,257.2,155.16,257.2,155.16s2.394-20.423,27.23-17.113
		c53.084,18.187,54.158,145.012,54.158,145.012h15.064l-11.292-12.879l23.108,3.748l-21.485-13.979c0,0,25.246-1.074,16.114-10.123
		c-9.669-0.701-15.04-20.506-15.04-20.506S371.379,221.217,369.756,205.664z"/>
</g>
<g>
</g>
<g>
</g>
<g>
</g>
<g>
</g>
<g>
</g>
<g>
</g>
<g>
</g>
<g>
</g>
<g>
</g>
<g>
</g>
<g>
</g>
<g>
</g>
<g>
</g>
<g>
</g>
<g>
</g>
</svg>
