<?xml version="1.0" encoding="iso-8859-1"?>
<!-- Generator: Adobe Illustrator 16.0.0, SVG Export Plug-In . SVG Version: 6.00 Build 0)  -->
<!DOCTYPE svg PUBLIC "-//W3C//DTD SVG 1.1//EN" "http://www.w3.org/Graphics/SVG/1.1/DTD/svg11.dtd">
<svg version="1.1" id="Capa_1" xmlns="http://www.w3.org/2000/svg" xmlns:xlink="http://www.w3.org/1999/xlink" x="0px" y="0px"
	 width="31.891px" height="31.891px" viewBox="0 0 31.891 31.891" style="enable-background:new 0 0 31.891 31.891;"
	 xml:space="preserve">
<g>
	<g>
		<path d="M26.384,6.962H5.467v17.967h20.917V6.962z M26.159,24.705H5.692V7.187h20.467V24.705z"/>
		<path d="M31.259,20.576c-0.333-0.027-0.771,0.234-0.659,0.556c0.431-0.313,0.56,0.328,0.026,0.337
			c-0.196,0.003-0.369-0.146-0.454-0.406c-0.076-0.234-0.012-0.861-0.167-1.248c-0.124-0.309-0.315-0.642-0.555-0.565
			c-0.153,0.048-0.171,0.315-0.33,0.231c0.09-0.074,0.172-0.149,0.18-0.252c-0.088-0.18-0.274-0.375-0.377-0.556v-0.379
			c0.032-0.032,0.075-0.062,0.134-0.088c0.156-0.072,0.458,0.032,0.634-0.032c0.286-0.104,0.54-0.43,0.603-0.669
			c0.149-0.575-0.55-1.16-0.919-0.599c0.029,0.064,0.192-0.111,0.177,0.031c-0.098,0.276-0.438,0.313-0.628,0.207v-0.759
			c0.004-0.039,0.005-0.078,0-0.119v-0.32v-2.204c0.044-0.103,0.094-0.173,0.151-0.202c0.236-0.118,0.645-0.165,0.803,0.071
			c0.417,0.623-0.69,0.911-0.505,0.203c-0.42,0.262-0.111,0.962,0.231,1.145c0.493,0.261,1.409-0.228,1.621-0.728
			c0.217-0.51-0.126-1.15-0.548-1.41c-0.427-0.262-0.985-0.194-1.367-0.564c-0.121-0.117-0.226-0.316-0.09-0.422
			c0.239-0.188,0.91,0.224,1.22,0.262c0.646,0.079,1.329-0.436,1.427-0.935c0.088-0.452-0.14-1.062-0.606-1.1
			c-0.334-0.028-0.772,0.234-0.66,0.556c0.431-0.313,0.56,0.328,0.026,0.338c-0.196,0.003-0.369-0.147-0.454-0.407
			c-0.076-0.234-0.012-0.862-0.167-1.247c-0.124-0.31-0.315-0.643-0.555-0.566c-0.153,0.048-0.171,0.314-0.33,0.232
			c0.09-0.074,0.172-0.15,0.18-0.252c-0.088-0.181-0.274-0.376-0.377-0.556v-0.38c0.032-0.031,0.075-0.062,0.134-0.088
			c0.156-0.073,0.458,0.033,0.634-0.032c0.286-0.104,0.54-0.43,0.603-0.67c0.149-0.574-0.55-1.16-0.919-0.598
			c0.029,0.064,0.192-0.112,0.177,0.029c-0.098,0.277-0.438,0.315-0.628,0.207V5.871c0.004-0.039,0.005-0.078,0-0.119v-0.32h-0.204
			h-0.272V4.95h-0.176V4.78h-2.584c-0.12-0.044-0.203-0.095-0.235-0.152c-0.14-0.238-0.194-0.645,0.083-0.803
			c0.729-0.416,1.067,0.69,0.236,0.506c0.309,0.419,1.13,0.11,1.343-0.233c0.308-0.492-0.266-1.409-0.853-1.62
			c-0.598-0.217-1.349,0.126-1.653,0.548C24.3,3.453,24.38,4.011,23.945,4.393c-0.137,0.122-0.369,0.226-0.494,0.09
			c-0.22-0.238,0.263-0.91,0.308-1.22c0.093-0.645-0.511-1.328-1.096-1.426c-0.53-0.088-1.245,0.139-1.29,0.607
			c-0.033,0.333,0.273,0.77,0.651,0.659c-0.366-0.432,0.386-0.56,0.396-0.026c0.004,0.196-0.172,0.369-0.478,0.454
			c-0.273,0.076-1.011,0.012-1.463,0.167c-0.361,0.124-0.753,0.315-0.664,0.554c0.058,0.153,0.369,0.171,0.272,0.33
			c-0.087-0.09-0.176-0.172-0.296-0.18c-0.212,0.088-0.442,0.275-0.652,0.378h-0.444c-0.036-0.033-0.071-0.076-0.104-0.134
			c-0.085-0.156,0.038-0.458-0.038-0.635c-0.123-0.286-0.504-0.54-0.785-0.602c-0.674-0.15-1.359,0.551-0.702,0.919
			c0.076-0.029-0.131-0.193,0.035-0.177c0.325,0.099,0.369,0.438,0.243,0.629h-0.89c-0.045-0.005-0.091-0.006-0.14,0h-0.375h-2.584
			c-0.121-0.044-0.203-0.095-0.237-0.152c-0.139-0.238-0.193-0.645,0.083-0.803c0.73-0.416,1.068,0.69,0.237,0.506
			c0.308,0.419,1.129,0.11,1.343-0.233c0.306-0.492-0.267-1.409-0.853-1.62c-0.598-0.217-1.349,0.126-1.653,0.548
			c-0.307,0.426-0.227,0.985-0.661,1.367c-0.137,0.122-0.37,0.226-0.495,0.09c-0.219-0.238,0.263-0.91,0.308-1.22
			c0.093-0.645-0.511-1.328-1.096-1.426c-0.53-0.088-1.246,0.139-1.291,0.607c-0.033,0.333,0.274,0.77,0.652,0.659
			c-0.366-0.432,0.385-0.56,0.396-0.026c0.004,0.196-0.172,0.369-0.477,0.454c-0.274,0.076-1.01,0.013-1.462,0.167
			C7.79,3.822,7.397,4.014,7.487,4.253c0.057,0.153,0.369,0.171,0.272,0.33c-0.087-0.09-0.176-0.172-0.296-0.18
			C7.251,4.491,7.021,4.677,6.812,4.78H6.368C6.331,4.748,6.295,4.705,6.264,4.646C6.179,4.49,6.303,4.188,6.226,4.011
			C6.104,3.726,5.722,3.472,5.44,3.409c-0.674-0.15-1.36,0.551-0.702,0.92C4.814,4.3,4.608,4.136,4.773,4.152
			C5.1,4.25,5.143,4.59,5.017,4.78H4.127c-0.045-0.005-0.091-0.006-0.14,0H3.612v0.169H3.437v0.482H3.25H2.96v2.204
			C2.917,7.739,2.866,7.809,2.81,7.838C2.571,7.956,2.164,8.003,2.005,7.766c-0.416-0.622,0.69-0.91,0.506-0.202
			c0.42-0.263,0.11-0.963-0.233-1.145C1.786,6.158,0.87,6.647,0.659,7.147c-0.217,0.509,0.126,1.15,0.548,1.41
			C1.633,8.819,2.191,8.751,2.574,9.12c0.122,0.117,0.226,0.315,0.09,0.422c-0.238,0.187-0.91-0.224-1.22-0.263
			C0.798,9.2,0.116,9.716,0.019,10.215c-0.088,0.452,0.139,1.062,0.607,1.101c0.333,0.027,0.77-0.234,0.659-0.556
			c-0.431,0.313-0.56-0.328-0.026-0.337c0.197-0.003,0.369,0.146,0.455,0.406c0.076,0.234,0.012,0.862,0.167,1.247
			c0.124,0.31,0.315,0.643,0.555,0.566c0.153-0.048,0.171-0.314,0.329-0.231c-0.09,0.074-0.171,0.15-0.179,0.252
			c0.088,0.181,0.274,0.376,0.377,0.556v0.378c-0.033,0.032-0.076,0.062-0.134,0.089c-0.156,0.072-0.458-0.033-0.634,0.032
			c-0.286,0.104-0.54,0.43-0.602,0.67c-0.15,0.575,0.55,1.16,0.919,0.598c-0.029-0.064-0.192,0.112-0.177-0.03
			c0.099-0.277,0.438-0.314,0.629-0.207v0.758c-0.005,0.039-0.006,0.078,0,0.119v0.32v2.205c-0.044,0.103-0.095,0.172-0.151,0.201
			c-0.238,0.118-0.646,0.164-0.803-0.072c-0.416-0.623,0.69-0.91,0.506-0.203c0.42-0.262,0.11-0.963-0.233-1.145
			c-0.493-0.261-1.409,0.229-1.62,0.729c-0.217,0.51,0.126,1.15,0.548,1.41c0.427,0.262,0.985,0.193,1.367,0.562
			c0.122,0.117,0.226,0.316,0.089,0.422c-0.238,0.188-0.91-0.224-1.22-0.262c-0.645-0.08-1.328,0.436-1.425,0.936
			c-0.088,0.451,0.139,1.062,0.607,1.1c0.333,0.027,0.77-0.233,0.659-0.555c-0.431,0.312-0.56-0.328-0.026-0.338
			c0.197-0.004,0.369,0.146,0.455,0.407c0.076,0.233,0.012,0.86,0.167,1.247c0.124,0.311,0.315,0.643,0.555,0.566
			c0.153-0.049,0.171-0.314,0.329-0.231c-0.09,0.074-0.171,0.149-0.179,0.252c0.088,0.181,0.274,0.376,0.377,0.556v0.379
			c-0.033,0.031-0.076,0.062-0.134,0.088c-0.156,0.074-0.458-0.032-0.634,0.033c-0.286,0.104-0.54,0.43-0.602,0.668
			c-0.15,0.576,0.55,1.16,0.919,0.599c-0.029-0.063-0.192,0.112-0.177-0.03c0.099-0.277,0.438-0.314,0.629-0.207v0.76
			c-0.005,0.039-0.006,0.078,0,0.118v0.32h0.203h0.272v0.481h0.177v0.17h2.585c0.12,0.045,0.203,0.095,0.236,0.151
			c0.139,0.238,0.193,0.646-0.083,0.804c-0.73,0.416-1.068-0.69-0.238-0.506c-0.308-0.421-1.129-0.111-1.342,0.232
			c-0.306,0.492,0.267,1.408,0.853,1.619c0.598,0.218,1.349-0.125,1.653-0.547c0.306-0.428,0.227-0.985,0.661-1.367
			c0.137-0.122,0.37-0.227,0.495-0.09c0.22,0.238-0.263,0.91-0.307,1.22c-0.093,0.646,0.511,1.329,1.096,1.426
			c0.53,0.089,1.246-0.138,1.291-0.606c0.032-0.332-0.274-0.771-0.652-0.658c0.367,0.431-0.385,0.559-0.396,0.025
			c-0.004-0.197,0.172-0.369,0.477-0.455c0.274-0.076,1.01-0.012,1.462-0.166c0.363-0.125,0.753-0.315,0.664-0.556
			c-0.057-0.153-0.369-0.17-0.271-0.329c0.087,0.09,0.176,0.172,0.296,0.18c0.211-0.088,0.441-0.274,0.651-0.377h0.444
			c0.037,0.031,0.072,0.074,0.104,0.133c0.085,0.156-0.039,0.459,0.038,0.635c0.123,0.286,0.504,0.54,0.785,0.602
			c0.674,0.15,1.36-0.55,0.702-0.918c-0.076,0.028,0.131,0.191-0.035,0.176c-0.325-0.099-0.369-0.438-0.243-0.627h0.89
			c0.045,0.004,0.091,0.006,0.139,0h0.376h2.585c0.118,0.043,0.201,0.094,0.234,0.15c0.14,0.238,0.193,0.646-0.083,0.803
			c-0.729,0.418-1.067-0.689-0.236-0.506c-0.309-0.42-1.13-0.109-1.343,0.233c-0.307,0.493,0.267,1.409,0.854,1.62
			c0.598,0.217,1.349-0.127,1.652-0.549c0.308-0.426,0.229-0.984,0.661-1.367c0.138-0.121,0.37-0.225,0.495-0.088
			c0.221,0.238-0.263,0.91-0.308,1.219c-0.093,0.645,0.511,1.328,1.096,1.426c0.53,0.088,1.246-0.138,1.291-0.605
			c0.032-0.334-0.273-0.771-0.652-0.66c0.366,0.432-0.385,0.56-0.396,0.027c-0.004-0.197,0.172-0.369,0.476-0.455
			c0.274-0.076,1.012-0.013,1.464-0.168c0.362-0.123,0.753-0.314,0.663-0.555c-0.057-0.152-0.368-0.17-0.271-0.328
			c0.087,0.09,0.176,0.17,0.296,0.178c0.212-0.088,0.441-0.273,0.652-0.377h0.443c0.037,0.033,0.072,0.076,0.104,0.135
			c0.085,0.156-0.038,0.457,0.038,0.634c0.123,0.286,0.504,0.54,0.785,0.603c0.675,0.149,1.36-0.551,0.701-0.92
			c-0.074,0.029,0.132,0.192-0.034,0.178c-0.325-0.1-0.369-0.438-0.243-0.629h0.89c0.045,0.006,0.091,0.006,0.139,0h0.375v-0.17
			h0.177v-0.48h0.188h0.289v-2.205c0.044-0.102,0.094-0.173,0.151-0.201c0.236-0.119,0.645-0.165,0.803,0.071
			c0.417,0.622-0.69,0.909-0.505,0.202c-0.42,0.264-0.111,0.963,0.231,1.146c0.493,0.261,1.409-0.228,1.621-0.728
			c0.218-0.51-0.126-1.15-0.548-1.41c-0.427-0.262-0.984-0.193-1.367-0.562c-0.12-0.117-0.226-0.315-0.09-0.423
			c0.239-0.187,0.91,0.226,1.221,0.263c0.645,0.08,1.328-0.436,1.426-0.935C31.953,21.225,31.727,20.615,31.259,20.576z
			 M26.948,25.441H4.937V6.45h22.012V25.441z"/>
		<path d="M10.752,18.96c0.249,0.384,0.166,1.327,0.166,1.327s0.124,0.24,0.771,1.059c-0.329-0.736-0.685-3.908-0.277-4.426
			c0.25-0.098,0.658-0.18,1.052,0.389c0.094-0.367-0.359-1.578-0.359-1.578s2.03,1.207,2.158,1.632
			c0.127-0.363-0.415-1.217-0.415-1.217s1.957,2.12,2.02,2.573c0.25-0.242-0.332-1.549-0.332-1.549s1.182,0.951,1.604,1.742
			c0.102-0.411-0.554-1.604-0.554-1.604s0.598,0.75,0.72,1.189c0.121-0.256-0.277-1.494-0.277-1.494s1.588,1.117,1.702,1.967
			c0.322-0.373,0.381-1.303,0.381-1.303s0.273,1.117,0.242,2.047c-0.279,1.548,0.976,2.088,1.267,2.005
			c-0.612-0.394-0.623-1.151-0.623-1.151s0.768,0.57,1.358,0.416c-0.694-0.508-0.81-0.935-0.757-1.851
			c0.396,0.308,1.027,0.491,1.659,0.533c-0.518-0.261-0.35-2.183-0.35-2.183s0.079-0.412,0.461-0.231
			c-0.252-0.65-0.028-1.985-0.774-2.815c0.653,0.426,0.774,0.38,0.774,0.38s-0.333-4.537-4.316-6.114
			c-3.984-1.577-6.916,2.297-7.691,3.486c-0.775,1.189-1.166,5.111-0.636,5.616C10.254,18.311,10.502,18.576,10.752,18.96z"/>
	</g>
</g>
<g>
</g>
<g>
</g>
<g>
</g>
<g>
</g>
<g>
</g>
<g>
</g>
<g>
</g>
<g>
</g>
<g>
</g>
<g>
</g>
<g>
</g>
<g>
</g>
<g>
</g>
<g>
</g>
<g>
</g>
</svg>
