<?xml version="1.0" encoding="iso-8859-1"?>
<!-- Generator: Adobe Illustrator 16.0.0, SVG Export Plug-In . SVG Version: 6.00 Build 0)  -->
<!DOCTYPE svg PUBLIC "-//W3C//DTD SVG 1.1//EN" "http://www.w3.org/Graphics/SVG/1.1/DTD/svg11.dtd">
<svg version="1.1" id="Capa_1" xmlns="http://www.w3.org/2000/svg" xmlns:xlink="http://www.w3.org/1999/xlink" x="0px" y="0px"
	 width="31.792px" height="31.792px" viewBox="0 0 31.792 31.792" style="enable-background:new 0 0 31.792 31.792;"
	 xml:space="preserve">
<g>
	<path d="M8.063,29.79c0.539,1.617-5.924,1.099-6.965-1.077C3.521,3.618,13.76,4.465,13.76,4.465S13.744,0.153,15.883,0
		c-1.782,1.984-0.968,4.08-0.968,4.08s1.541-3.891,3.001-3.282c-1.221,0.896-1.539,3.359-1.539,3.359s2.387-3.061,3.388-1.925
		c-1.007-0.157-3.233,2.694-3.233,2.694s6.162-2.88,10.7,3.849c4.539,6.729,3.31,23.017,3.31,23.017s-5.311-0.925-7.312-2.002
		s0-10.161,0-10.161l-3.079,0.078l-7.929-3.156c0,0-1.308-2.002-1.77-4.157c-0.462,1.133,0.053,3.868-0.231,4.62
		c-0.289,0.766-3.58,0.404-3.772,1.456C5.746,22.314,7.788,28.968,8.063,29.79z"/>
</g>
<g>
</g>
<g>
</g>
<g>
</g>
<g>
</g>
<g>
</g>
<g>
</g>
<g>
</g>
<g>
</g>
<g>
</g>
<g>
</g>
<g>
</g>
<g>
</g>
<g>
</g>
<g>
</g>
<g>
</g>
</svg>
