<?xml version="1.0" encoding="iso-8859-1"?>
<!-- Generator: Adobe Illustrator 16.0.0, SVG Export Plug-In . SVG Version: 6.00 Build 0)  -->
<!DOCTYPE svg PUBLIC "-//W3C//DTD SVG 1.1//EN" "http://www.w3.org/Graphics/SVG/1.1/DTD/svg11.dtd">
<svg version="1.1" id="Capa_1" xmlns="http://www.w3.org/2000/svg" xmlns:xlink="http://www.w3.org/1999/xlink" x="0px" y="0px"
	 width="375.017px" height="375.018px" viewBox="0 0 375.017 375.018" style="enable-background:new 0 0 375.017 375.018;"
	 xml:space="preserve">
<g>
	<path d="M234.481,95.074c-66.472,34.302-36.444,134.019-82.54,147.948c-25.719-26.799-51.104-17.994-55.401-5.125
		c-4.28,12.855,40.396,26.564,50.042,90.895c9.651,64.328-61.124,47.023-66.472,33.221c-5.343-13.779-12.863-36.443-24.668-49.312
		c-11.8-12.856-29.188-28.095-31.085-48.238c-1.903-20.154-5.359-42.878-1.08-60.043c4.28-17.154-25.66-26.747-21.019-45.121
		C25.84,132.511,28.637-1.402,171.226,47.911c15.005,9.663,7.292-51.999,51.251-47.695c21.438-1.08,46.3,8.034,82.755,21.976
		c88.98,51.456,71.826,184.388,52.535,190.821C338.477,219.436,300.958,60.779,234.481,95.074z"/>
</g>
<g>
</g>
<g>
</g>
<g>
</g>
<g>
</g>
<g>
</g>
<g>
</g>
<g>
</g>
<g>
</g>
<g>
</g>
<g>
</g>
<g>
</g>
<g>
</g>
<g>
</g>
<g>
</g>
<g>
</g>
</svg>
