<?xml version="1.0" encoding="iso-8859-1"?>
<!-- Generator: Adobe Illustrator 16.0.0, SVG Export Plug-In . SVG Version: 6.00 Build 0)  -->
<!DOCTYPE svg PUBLIC "-//W3C//DTD SVG 1.1//EN" "http://www.w3.org/Graphics/SVG/1.1/DTD/svg11.dtd">
<svg version="1.1" id="Capa_1" xmlns="http://www.w3.org/2000/svg" xmlns:xlink="http://www.w3.org/1999/xlink" x="0px" y="0px"
	 width="379.581px" height="379.58px" viewBox="0 0 379.581 379.58" style="enable-background:new 0 0 379.581 379.58;"
	 xml:space="preserve">
<g>
	<path d="M78.679,144.397c32.369-4.968,165.582,11.21,165.582,11.21l-3.749,49.178c0,0-13.055,41.676-14.946,66.571
		c-1.88,24.907,32.346,82.184,49.161,81.553c5.301-9.342,19.921-16.185,19.921-16.185s8.104,11.502,21.789,9.318
		c0-5.594,8.711-14.293,8.711-14.293s4.975,3.714,13.067-0.643c-2.779-5.266,0-21.777,0-21.777s13.721,6.562,19.944-1.249
		c-8.407-7.158-4.367-29.87-4.367-29.87s26.764,3.363,21.789-16.814c-12.448,8.723-14.315-5.594-14.315-5.594
		s28.608-4.379,14.315-19.934c-3.142,11.223-19.092,3.234-23.039,0c-3.946-3.223-51.671-40.449-49.814-62.84
		c1.868-22.42-16.78-122.627-55.372-136.318c-38.605-13.703-105.818-13.079-132.583,0C88.008,49.795,50.724,163.618,50.082,174.186
		c-0.631,10.585-36.141,11.239-41.758,15.618c-6.819,11.222,9.342,34.88,9.342,34.88s0.129,16.453-16.056,21.45
		c-9.949,15.542,29.146,50.749,37.238,49.511c8.08-1.227-8.734,4.998-24.907,13.709c19.921,29.87,69.712-0.654,59.121,11.806
		c8.536,18.064,32.988,39.212,59.133,23.657C118.521,328.025,71.824,272.617,78.679,144.397z"/>
</g>
<g>
</g>
<g>
</g>
<g>
</g>
<g>
</g>
<g>
</g>
<g>
</g>
<g>
</g>
<g>
</g>
<g>
</g>
<g>
</g>
<g>
</g>
<g>
</g>
<g>
</g>
<g>
</g>
<g>
</g>
</svg>
