<?xml version="1.0" encoding="iso-8859-1"?>
<!-- Generator: Adobe Illustrator 16.0.0, SVG Export Plug-In . SVG Version: 6.00 Build 0)  -->
<!DOCTYPE svg PUBLIC "-//W3C//DTD SVG 1.1//EN" "http://www.w3.org/Graphics/SVG/1.1/DTD/svg11.dtd">
<svg version="1.1" id="Capa_1" xmlns="http://www.w3.org/2000/svg" xmlns:xlink="http://www.w3.org/1999/xlink" x="0px" y="0px"
	 width="361.639px" height="361.639px" viewBox="0 0 361.639 361.639" style="enable-background:new 0 0 361.639 361.639;"
	 xml:space="preserve">
<g>
	<path d="M261.931,48.29c-2.802-1.115-1.051-10.071-1.051-10.071s-11.63,1.868-13.499-0.356c-1.868-2.248-3.725-44.735-82.37-36.899
		c21.988,5.967,17.516,7.648,17.516,7.648s-44.35-11-55.157-1.693c27.704,2.616,21.988,13.44,21.988,13.44s-42.113-5.12-50.509,2.4
		c17.58,0.566,17.521,5.774,17.521,5.774s-21.311-2.855-25.725,5.78c14.853-1.798,15.846,2.616,15.846,2.616
		s-37.881,9.64-37.46,24.405c13.364-10.556,20.686-4.829,21.427-4.829c0.753,0-27.458,8.442-23.296,18.257
		c3.275-4.578,8.764-6.312,13.347-6.937c-21.79,23.961-14.626,62.864-9.745,75.405c0.141,0.525,0.251,1.062,0.368,1.611
		c-2.931,0.602-7.52,0.602-11.204-4.601c-1.542,7.485,7.129,8.6,11.864,8.67c0.514,4.975-0.123,10.364-3.503,15.46
		c-7.117,10.679-15.058,15.566-17.626,22.718c-3.649,9.996,15.53,11.736,15.53,11.736l0.047,3.771c0,0-6.154,5.967-4.84,10.638
		c1.746,6.212,14.112,4.005,14.112,4.005s-11.876,4.379-11.315,10.16c0.561,5.779,5.523,8.29,5.523,8.29s-11.49,22.583,5.418,27.558
		c16.909,4.963,51.193-15.658,55.665,8.443c4.314,16.628,23.564,57.451,16.891,65.1c-6.667,7.648-16.891,19.384-16.891,19.384
		l175.431,5.465c0,0-54.182-70.074-59.646-78.026c-3.865-5.617-14.923-28.959-14.036-49.885c3.597,4.52,7.45,7.987,10.369,7.264
		c-7.59-4.088,0-19.373,0-19.373s3.106,41.104,13.056,39.119c-5.909-4.637-2.989-38.757-2.989-38.757s10.193,56.646,19.01,49.581
		c-7.613-6.727-11.116-49.581-4.109-56.283c7.006-6.715,15.285-52.927,15.285-52.927s0.385,14.41,6.714,11.922
		c-5.604-4.583,0-14.912,0-14.912s1.121,15.402,8.197,14.912c-2.732-9.044,0.771-24.183,3.036-32.159
		c0.654-1.6,1.191-3.346,1.611-5.261l0.023-0.023h-0.023c4.379-19.909-2.966-54.608-2.966-54.608s9.505,3.17,7.45,14.351
		C314.104,91.35,319.885,45.312,261.931,48.29z"/>
</g>
<g>
</g>
<g>
</g>
<g>
</g>
<g>
</g>
<g>
</g>
<g>
</g>
<g>
</g>
<g>
</g>
<g>
</g>
<g>
</g>
<g>
</g>
<g>
</g>
<g>
</g>
<g>
</g>
<g>
</g>
</svg>
