<?xml version="1.0" encoding="iso-8859-1"?>
<!-- Generator: Adobe Illustrator 16.0.0, SVG Export Plug-In . SVG Version: 6.00 Build 0)  -->
<!DOCTYPE svg PUBLIC "-//W3C//DTD SVG 1.1//EN" "http://www.w3.org/Graphics/SVG/1.1/DTD/svg11.dtd">
<svg version="1.1" id="Capa_1" xmlns="http://www.w3.org/2000/svg" xmlns:xlink="http://www.w3.org/1999/xlink" x="0px" y="0px"
	 width="376.972px" height="376.972px" viewBox="0 0 376.972 376.972" style="enable-background:new 0 0 376.972 376.972;"
	 xml:space="preserve">
<g>
	<path d="M93.083,376.972C65.852,350.266-13.05,227.541,3.017,147.248C19.062,66.956,56.791,13.195,131.489,3.416
		c74.71-9.774,206.673-4.198,235.306,93.562c28.644,97.772-17.808,168.979-20.248,195.172c-2.452,26.168-9.424,57.941-27.92,70.867
		c38.394-37.717-7.695-137.906-34.915-136.855c10.124,20.949-6.282,51.672-6.282,51.672s-9.423-18.158-6.972-9.074
		c2.441,9.074-1.051,11-2.802,24.441c0.187-17.983-27.208-39.808-27.208-39.808s-1.938,11.514,2.078,24.44
		c-9.26-22.876-32.812-46.09-32.812-46.09s10.299,21.135,9.073,32.135c-2.978-12.926-13.802-20.948-19.547-17.457
		c7.496,10.825,6.808,17.457,7.146,30.186c-12.039-15.53-129.324-70.168-130.737-66.489c-17.294,29.835,16.43,70.507,20.248,76.788
		c-17.107-1.564-16.056,5.582-16.056,5.582s15.542,19.734,21.661,21.649c-13.977-5.231-16.605,1.577-16.605,1.577
		s8.396,18.332,13.113,27.055c-12.226-13.265-12.576-3.503-12.576-3.503S88.202,366.684,93.083,376.972z"/>
</g>
<g>
</g>
<g>
</g>
<g>
</g>
<g>
</g>
<g>
</g>
<g>
</g>
<g>
</g>
<g>
</g>
<g>
</g>
<g>
</g>
<g>
</g>
<g>
</g>
<g>
</g>
<g>
</g>
<g>
</g>
</svg>
