<?xml version="1.0" encoding="iso-8859-1"?>
<!-- Generator: Adobe Illustrator 16.0.0, SVG Export Plug-In . SVG Version: 6.00 Build 0)  -->
<!DOCTYPE svg PUBLIC "-//W3C//DTD SVG 1.1//EN" "http://www.w3.org/Graphics/SVG/1.1/DTD/svg11.dtd">
<svg version="1.1" id="Capa_1" xmlns="http://www.w3.org/2000/svg" xmlns:xlink="http://www.w3.org/1999/xlink" x="0px" y="0px"
	 width="30.598px" height="30.598px" viewBox="0 0 30.598 30.598" style="enable-background:new 0 0 30.598 30.598;"
	 xml:space="preserve">
<g>
	<path d="M8.792,29.182l0.911-1.823c0,0-2.735-5.471-2.621-7.065c0.115-1.596,4.844-7.75,6.44-9.973
		c1.966-3.076,4.246-2.365,6.524-3.391c2.451,2.051,4.016,2.537,4.016,2.537s-0.569,2.23,0.457,6.244
		c1.026,4.014-5.357,9.256-3.875,12.446c2.051,6.039,7.75-1.026,7.75-1.026s2.395-17.437-3.875-23.477
		c-1.215-0.797-9.003-6.609-13.676-1.709S1.04,14.823,1.838,21.773C2.637,28.727,8.792,29.182,8.792,29.182z"/>
</g>
<g>
</g>
<g>
</g>
<g>
</g>
<g>
</g>
<g>
</g>
<g>
</g>
<g>
</g>
<g>
</g>
<g>
</g>
<g>
</g>
<g>
</g>
<g>
</g>
<g>
</g>
<g>
</g>
<g>
</g>
</svg>
