<?xml version="1.0" encoding="iso-8859-1"?>
<!-- Generator: Adobe Illustrator 16.0.0, SVG Export Plug-In . SVG Version: 6.00 Build 0)  -->
<!DOCTYPE svg PUBLIC "-//W3C//DTD SVG 1.1//EN" "http://www.w3.org/Graphics/SVG/1.1/DTD/svg11.dtd">
<svg version="1.1" id="Capa_1" xmlns="http://www.w3.org/2000/svg" xmlns:xlink="http://www.w3.org/1999/xlink" x="0px" y="0px"
	 width="31.412px" height="31.411px" viewBox="0 0 31.412 31.411" style="enable-background:new 0 0 31.412 31.411;"
	 xml:space="preserve">
<g>
	<path d="M17.042,6.091c-4.291,1.237-4.811,5.017-5.237,6.982c-0.426,1.967-1.149,4.483-0.63,6.036
		c-0.946-0.679-0.728-1.77-0.728-1.77s-5.697,8.388,4.218,12.558c-0.678,0.825-3.927-0.483-3.927-0.483s-0.218,1.817,1.987,1.261
		c-3.587,3.104-7.37-4.606-7.37-4.606l0.485,2.184c0,0-1.262,0.338-3.152-10.377C0.798,7.158,8.071,1.63,9.865,0.951
		c1.794-0.68,4.849-0.873,6.449,0c3.637-2.765,7.259,1.252,8.097,2.521c0.838,1.271,3.492,5.044,3.977,7.613
		c0.484,2.568,2.86,20.001-6.109,17.602c3.151-0.897,3.151-6.499,3.151-6.499s-2.449,2.522-3.2,1.504
		c3.2-1.504,3.322-8.023,1.31-11.686C21.973,9.063,18.587,6.73,17.042,6.091z"/>
</g>
<g>
</g>
<g>
</g>
<g>
</g>
<g>
</g>
<g>
</g>
<g>
</g>
<g>
</g>
<g>
</g>
<g>
</g>
<g>
</g>
<g>
</g>
<g>
</g>
<g>
</g>
<g>
</g>
<g>
</g>
</svg>
