<?xml version="1.0" encoding="iso-8859-1"?>
<!-- Generator: Adobe Illustrator 16.0.0, SVG Export Plug-In . SVG Version: 6.00 Build 0)  -->
<!DOCTYPE svg PUBLIC "-//W3C//DTD SVG 1.1//EN" "http://www.w3.org/Graphics/SVG/1.1/DTD/svg11.dtd">
<svg version="1.1" id="Capa_1" xmlns="http://www.w3.org/2000/svg" xmlns:xlink="http://www.w3.org/1999/xlink" x="0px" y="0px"
	 width="31.947px" height="31.947px" viewBox="0 0 31.947 31.947" style="enable-background:new 0 0 31.947 31.947;"
	 xml:space="preserve">
<g>
	<path d="M30.272,16.525c0,0,0.121-2.521,0.147-3.088c0.028-0.567-1.581,0.174-1.927-0.321c-0.346-0.494-0.716-2.644-1.284-3.014
		c-0.568-0.371,0.223-2.001-0.124-2.149c-0.346-0.148-1.062,0.149-1.284-0.321c-0.223-0.469-0.815-1.388-0.987-1.68
		c-0.171-0.291-2.926-0.864-3.262-0.964c-0.334-0.098-0.691-1.062-1.013-1.136c-0.321-0.074-2.298,0.544-2.298,0.544
		s-1.26-0.84-1.556-0.815c-0.297,0.026-0.716,0.545-1.236,0.371c-0.52-0.173-2.25-0.734-2.494-0.815
		c-0.245-0.079-0.124,0.544-0.741,0.347c-1.951,0.222-3.978,2.47-4.867,2.594C6.458,6.199,3.912,7.088,3.79,8.249
		c-0.123,1.162,0.494,2.224-0.025,2.62c-0.519,0.396-1.135,0.412-1.582,1.309c-0.447,0.896-1.136,1.977-1.062,3.312
		c0.074,1.334,1.828,2.594,1.754,3.434c-0.074,0.841-2.421,0.768-2.766,1.384c-0.345,0.617,0.321,1.137,0.444,1.58
		c0.124,0.445-0.643,0.495-0.544,0.891c0.098,0.396,1.038,0.618,0.989,1.062c-0.048,0.443-0.396,0.52-0.42,0.987
		s1.829,4.423,2.075,3.952c0.247-0.47,0.371-2.742,0.889-3.038c0.519-0.297,1.581,0.963,1.581,0.963s-0.617-6.916-0.099-7.064
		c0.963-0.32,1.062-1.531,0.815-1.804c0.469-0.146,0.444-2.545,2.049-2.644s2.027,0.741,3.187,0.766
		c1.16,0.025,2.026,0.198,4.076-0.123c2.05-0.32,3.558,0,4.002,0.47c0.445,0.47,1.977-0.444,2.52,0s3.188,2.495,3.706,3.952
		c0.519,1.459-0.173,4.867,0.444,4.893c0.618,0.024,1.211-0.964,1.729-0.864c0.52,0.1,1.358,0.271,1.557,1.062
		s1.21,1.359,2.024,1.112c0.815-0.248,0.247-1.384,0.741-2.272c0.494-0.891-1.705-2.321-1.705-2.321s0.815-0.645,0.791-1.285
		c-0.023-0.641,0.369-1.778-0.321-1.927C30.865,17.662,30.272,16.525,30.272,16.525z"/>
</g>
<g>
</g>
<g>
</g>
<g>
</g>
<g>
</g>
<g>
</g>
<g>
</g>
<g>
</g>
<g>
</g>
<g>
</g>
<g>
</g>
<g>
</g>
<g>
</g>
<g>
</g>
<g>
</g>
<g>
</g>
</svg>
