<?xml version="1.0" encoding="iso-8859-1"?>
<!-- Generator: Adobe Illustrator 16.0.0, SVG Export Plug-In . SVG Version: 6.00 Build 0)  -->
<!DOCTYPE svg PUBLIC "-//W3C//DTD SVG 1.1//EN" "http://www.w3.org/Graphics/SVG/1.1/DTD/svg11.dtd">
<svg version="1.1" id="Capa_1" xmlns="http://www.w3.org/2000/svg" xmlns:xlink="http://www.w3.org/1999/xlink" x="0px" y="0px"
	 width="584.099px" height="584.099px" viewBox="0 0 584.099 584.099" style="enable-background:new 0 0 584.099 584.099;"
	 xml:space="preserve">
<g>
	<path d="M192.657,316.313c-31.671,7.305,9.741,85.432,0,129.361c-9.75,43.948,37.063,129.076,53.725,137.201
		c-17.537,7.43-44.546-21.43-44.546-21.43s18.501,19.537,3.036,21.43c-77.19,4.68-107.396-140.897-151.318-227.508
		C18.151,229.686,75.457,48.894,180.442,11.143c104.995-37.751,195.293,29.358,256.295,68.413
		c61.002,39.055,114.754,198.953,102.539,300.207c-12.215,101.289-68.396,146.469-95.218,139.129
		c23.233-41.501,34.18-256.294,34.18-256.294s-97.646-7.322-107.396-36.608C370.841,226.007,224.399,308.992,192.657,316.313z"/>
</g>
<g>
</g>
<g>
</g>
<g>
</g>
<g>
</g>
<g>
</g>
<g>
</g>
<g>
</g>
<g>
</g>
<g>
</g>
<g>
</g>
<g>
</g>
<g>
</g>
<g>
</g>
<g>
</g>
<g>
</g>
</svg>
