<?xml version="1.0" encoding="iso-8859-1"?>
<!-- Generator: Adobe Illustrator 16.0.0, SVG Export Plug-In . SVG Version: 6.00 Build 0)  -->
<!DOCTYPE svg PUBLIC "-//W3C//DTD SVG 1.1//EN" "http://www.w3.org/Graphics/SVG/1.1/DTD/svg11.dtd">
<svg version="1.1" id="Capa_1" xmlns="http://www.w3.org/2000/svg" xmlns:xlink="http://www.w3.org/1999/xlink" x="0px" y="0px"
	 width="372.195px" height="372.195px" viewBox="0 0 372.195 372.195" style="enable-background:new 0 0 372.195 372.195;"
	 xml:space="preserve">
<g>
	<path d="M303.86,211.379c0,0,33.817,16.021,37.425,1.799c-6.818,9.481-38.58-10.813-38.58-10.813s35.299,12.004,35.638,0
		c-9.809,7.263-36.094-10.159-36.094-10.159s27.64,10.498,31.809-2.02c-8.734,9.12-40.368-11.52-40.368-11.52
		s32.824,6.434,33.163-1.577c-10.159,4.975-30.897-10.153-30.897-10.153s37.834,8.851,42.399,3.386
		c-9.972,3.106-39.468-10.165-39.468-10.165s33.034,6.493,34.05-2.476c-6.259,6.102-35.627-5.646-35.627-5.646
		s33.443,0.566,33.151-4.962c-5.979,5.202-32.93-3.369-32.93-3.369s32.93,3.369,34.284-2.942
		c-7.333,4.565-40.823-6.084-40.823-6.084s38.559,4.91,39.014-3.614c-6.703,5.132-37.379-4.064-37.379-4.064
		s34.051-0.263,33.094-6.983c-6.656,8.057-38.115,1.565-38.115,1.565s26.904,1.086,26.834-5.628c-5.522,5.856-29.32,0-29.32,0
		s35.136-1.583,34.506-7c-4.602,3.229-41.944,0.911-41.944,0.911s42.235-1.746,40.823-9.254c-7.895,7.176-41.734,0.911-41.734,0.911
		s37.893-4.402,36.993-13.096c-7.041,9.54-38.114,4.735-38.114,4.735s30.548-7.053,29.987-16.021
		c-7.217,9.482-41.501,9.254-41.501,9.254s36.993-10.428,34.506-18.712c-6.142,8.787-46.463,15.11-46.463,15.11
		s40.321-16.295,36.082-25.263c-9.47,13.032-20.738,6.095-20.738,6.095s17.188-8.273,16.231-15.782
		c-5.979,11.899-36.538,18.952-36.538,18.952s30.559-21.941,20.073-32.486c-1.319,18.187-33.361,25.958-33.361,25.958
		s22.898-21.988,18.94-29.549c-1.297,12.138-25.702,19.179-25.702,19.179s19.852-17.696,15.11-30.658
		c-1.518,15.834-26.391,24.791-26.391,24.791s12.355-17.58,8.805-26.378c-1.389,12.641-19.851,23.231-19.851,23.231
		s13.078-18.677,7.894-23.231c-1.238,7.613-10.603,18.497-10.603,18.497s10.275-17.037,5.418-25.036
		c-3.316,8.057-18.041,38.575-18.041,38.575l4.507-35.639L178.448,40.21l9.237-34.518l-13.073,16.021L172.137,0l-4.052,23.051
		l-3.614-19.618l-7.666,38.575l-1.588-35.195l-5.19,26.834l-2.931-31.791l-1.349,29.987c0,0-13.522-15.56-7.666-31.113
		c-13.762,2.259-3.836,44.887-3.836,44.887S121.844,6.364,121.616,5.681s4.063,35.86,4.291,36.543
		c0.228,0.678-11.741-28.188-11.741-28.188l4.747,28.188c0,0-11.619-10.217-14.217-30.897c-9.861,16.512,8.577,51.105,8.577,51.105
		s-27.47-24.656-31.125-46.148c-8.227,7.105,12.185,41.734,12.185,41.734S80.413,44.863,73.127,18.987
		c-6.429,15.069,19.611,55.951,19.611,55.951S70.079,42.172,64.783,18.999c-6.649,11.841,15.794,48.945,15.794,48.945
		S64.328,47.578,58.017,24.633c-7.678,12.232,14.661,42.399,14.661,42.399S54.525,45.891,50.339,30.944
		c-5.19,8.238,15.344,41.961,15.344,41.961S47.747,52.658,44.027,36.362c-5.406,18.38,18.269,46.23,18.269,46.23
		S44.705,68.048,38.382,52.144c-4.28,13.703,24.813,50.521,24.813,50.521s-29.31-33.099-32.024-43.071
		c-3.036,12.004,21.486,42.113,21.486,42.113s-4.42,11.899-21.486-25.661c0.8,29.31,30.828,51.66,43.632,59.898
		c-1.909,15.881,1.471,31.207,4.104,37.997c0.128,0.479,0.239,0.981,0.333,1.472c-2.657,0.537-6.825,0.549-10.165-4.175
		c-1.407,6.785,6.469,7.789,10.76,7.847c0.467,4.531-0.105,9.412-3.176,14.03c-6.458,9.715-13.668,14.153-16.003,20.634
		c-3.311,9.072,14.112,10.66,14.112,10.66l0.035,3.457c0,0-5.582,5.395-4.396,9.621c1.576,5.652,12.804,3.645,12.804,3.645
		s-10.772,3.981-10.258,9.225c0.502,5.23,5.009,7.52,5.009,7.52s-10.428,20.506,4.916,25.013
		c15.338,4.519,46.463-14.212,50.527,7.66c3.923,15.11,21.393,52.161,15.332,59.098c-6.049,6.948-15.332,17.586-15.332,17.586
		l159.223,4.962c0,0-49.172-63.593-54.135-70.809c-4.963-7.217,19.852-12.191,37.893-32.02c2.463-2.709,4.355-6.691,5.85-11.42
		c2.732,0.887,6.107,1.238,8.746-1.004c-3.562,0.023-6.061-1.098-7.823-2.406c0.175-0.7,0.397-1.284,0.549-2.031
		c3.608,1.623,8.968,3.34,13.347,1.752c-4.764-1.086-9.143-3.387-12.646-5.652c0.082-0.514,0.176-1.016,0.257-1.541
		c5.979,2.872,13.826,5.721,18.019,3.117c-4.975-0.432-12.729-8.419-16.839-13.008c0.012-0.223,0.047-0.386,0.07-0.584
		c4.659,3.994,14.327,10.626,22.863,5.71c-7.088-0.292-18.998-11.28-22.432-14.573c0-0.094,0.012-0.187,0.012-0.279
		c5.523,3.771,33.175,22.034,40.473,13.72c-12.016,3.993-35.638-19.851-35.638-19.851s28.982,17.352,36.315,11.502
		c-10.649-2.359-28.41-16.465-28.41-16.465s38.394,21.042,42.177,9.248C333.111,230.098,303.86,211.379,303.86,211.379z"/>
</g>
<g>
</g>
<g>
</g>
<g>
</g>
<g>
</g>
<g>
</g>
<g>
</g>
<g>
</g>
<g>
</g>
<g>
</g>
<g>
</g>
<g>
</g>
<g>
</g>
<g>
</g>
<g>
</g>
<g>
</g>
</svg>
