<?xml version="1.0" encoding="iso-8859-1"?>
<!-- Generator: Adobe Illustrator 16.0.0, SVG Export Plug-In . SVG Version: 6.00 Build 0)  -->
<!DOCTYPE svg PUBLIC "-//W3C//DTD SVG 1.1//EN" "http://www.w3.org/Graphics/SVG/1.1/DTD/svg11.dtd">
<svg version="1.1" id="Capa_1" xmlns="http://www.w3.org/2000/svg" xmlns:xlink="http://www.w3.org/1999/xlink" x="0px" y="0px"
	 width="346.368px" height="346.368px" viewBox="0 0 346.368 346.368" style="enable-background:new 0 0 346.368 346.368;"
	 xml:space="preserve">
<g>
	<path d="M61.776,152.629C46.1,172.38,37.237,232.36,37.237,232.36s-14.299-64.067-14.299-98.818
		c0-34.745,34.068-76.298,34.068-76.298S46.111,43.6,29.751,51.096c1.354-25.205,51.093-32.024,74.95-42.925
		c23.856-10.907,90.626-10.883,123.333,0c32.696,10.889,71.522,45.628,86.527,75.615c14.993,29.992,8.174,92.004,0,126.06
		c-8.186,34.074-34.073,98.776-50.434,98.8c-0.688-16.337-15.683-17.702-15.683-17.702s-9.528,44.957-23.844,53.831
		c1.377-12.962-7.497-18.403-7.497-18.403s-8.852,32.055-17.025,14.994c13.639-21.802,24.534-85.851,24.534-85.851
		S63.82,171.709,61.776,152.629z"/>
</g>
<g>
</g>
<g>
</g>
<g>
</g>
<g>
</g>
<g>
</g>
<g>
</g>
<g>
</g>
<g>
</g>
<g>
</g>
<g>
</g>
<g>
</g>
<g>
</g>
<g>
</g>
<g>
</g>
<g>
</g>
</svg>
