<?xml version="1.0" encoding="iso-8859-1"?>
<!-- Generator: Adobe Illustrator 16.0.0, SVG Export Plug-In . SVG Version: 6.00 Build 0)  -->
<!DOCTYPE svg PUBLIC "-//W3C//DTD SVG 1.1//EN" "http://www.w3.org/Graphics/SVG/1.1/DTD/svg11.dtd">
<svg version="1.1" id="Capa_1" xmlns="http://www.w3.org/2000/svg" xmlns:xlink="http://www.w3.org/1999/xlink" x="0px" y="0px"
	 width="30.881px" height="30.881px" viewBox="0 0 30.881 30.881" style="enable-background:new 0 0 30.881 30.881;"
	 xml:space="preserve">
<g>
	<path d="M22.164,5.297C21.24,2.224,18.56,0,15.395,0c-3.228,0-5.951,2.313-6.822,5.481H8.036v4.294h0.537
		c0.809,2.826,3.219,4.709,6.148,4.962v4.203h-0.462v10.799H9.901v1.143h11.21v-1.143H16.62v-7.895h1.227v-1.203H16.62v-1.701
		h-0.461v-4.213c2.951-0.289,5.357-2.238,6.105-5.136h0.58V5.297H22.164z M15.395,13.59c-2.696,0-4.882-1.648-4.882-4.061
		c0-2.413,2.187-4.369,4.882-4.369c2.696,0,4.881,1.957,4.881,4.369C20.276,11.941,18.091,13.59,15.395,13.59z"/>
</g>
<g>
</g>
<g>
</g>
<g>
</g>
<g>
</g>
<g>
</g>
<g>
</g>
<g>
</g>
<g>
</g>
<g>
</g>
<g>
</g>
<g>
</g>
<g>
</g>
<g>
</g>
<g>
</g>
<g>
</g>
</svg>
