<?xml version="1.0" encoding="iso-8859-1"?>
<!-- Generator: Adobe Illustrator 16.0.0, SVG Export Plug-In . SVG Version: 6.00 Build 0)  -->
<!DOCTYPE svg PUBLIC "-//W3C//DTD SVG 1.1//EN" "http://www.w3.org/Graphics/SVG/1.1/DTD/svg11.dtd">
<svg version="1.1" id="Capa_1" xmlns="http://www.w3.org/2000/svg" xmlns:xlink="http://www.w3.org/1999/xlink" x="0px" y="0px"
	 width="570.678px" height="570.677px" viewBox="0 0 570.678 570.677" style="enable-background:new 0 0 570.678 570.677;"
	 xml:space="preserve">
<g>
	<path d="M293.738,38.675C274.639,74.641,227.2,170.608,227.2,170.608s0.348,178.077-7.643,197.381
		c-7.974,19.287-14.554,19.982-29.438,22.912c-14.867,2.928-18.545-13.107-18.545-13.107s-35.983,34.875-35.983,13.107
		c17.117-2.911,0-43.627,0-43.627s-0.366,90.128-32.715,94.879c5.482-19.27,0-40.359,0-40.359S87.24,436.671,70.159,421.42
		c13.456-6.519,20.733-54.521,20.733-54.521s-5.812-23.25-20.733-15.285c1.849-21.037,19.644-22.912,19.644-22.912l34.885-49.198
		c0,0-21.483-14.394-7.643-17.286c5.098,7.268,22.911-21.822,22.911-21.822s1.849-31.965-20.732-55.609
		c25.474-3.25,127.602-179.453,208.301-184.596c80.682-5.143,107.969,94.628,112.309,107.165
		c4.356,12.554,43.055,51.251,43.626,73.074c-14.733-16.375-28.376,10.893-28.376,10.893s13.84-34.894,13.84-20.715
		c0,14.161,0.071,50.145-0.715,76.342c-0.821,26.197-2.178,71.967-2.178,71.967s29.643,31.715,30.161,72.055
		c0.536,40.359-8.394,58.807-8.394,58.807s29.091,38.519-0.714,56.716c8.019-26.197-10.179-39.251-10.179-39.251
		s8.732,54.52-17.43,31.982c16.269-16.518-3.34-65.002,7.5-73.877c10.822-8.857,21.395-10.447,6.625-39.895
		c-3.445-6.982-7.643-13.268-11.946-18.715c-3.036-3.84-2.929,38.716-17.465,31.447c5.804-16,3.964-46.055,1.911-47.822
		c-7.894-7.019-13.93-10.68-13.93-10.68l3.286,92.664l18.554,77.432c0,0,1.644,37.072,41.431,59.966
		c-62.127,10.894-69.771-77.431-69.771-77.431s-22.894,71.967-52.359,51.252c20.18-18.537,25.109-71.967,25.109-71.967
		s-36.002,16.357-54.538-13.072c25.072-3.304,1.643-25.09,0-90.521c-1.644-65.43,43.608-153.201,42.537-173.38
		C385.312,174.43,320.453,90.999,293.738,38.675z"/>
</g>
<g>
</g>
<g>
</g>
<g>
</g>
<g>
</g>
<g>
</g>
<g>
</g>
<g>
</g>
<g>
</g>
<g>
</g>
<g>
</g>
<g>
</g>
<g>
</g>
<g>
</g>
<g>
</g>
<g>
</g>
</svg>
