<?xml version="1.0" encoding="iso-8859-1"?>
<!-- Generator: Adobe Illustrator 16.0.0, SVG Export Plug-In . SVG Version: 6.00 Build 0)  -->
<!DOCTYPE svg PUBLIC "-//W3C//DTD SVG 1.1//EN" "http://www.w3.org/Graphics/SVG/1.1/DTD/svg11.dtd">
<svg version="1.1" id="Capa_1" xmlns="http://www.w3.org/2000/svg" xmlns:xlink="http://www.w3.org/1999/xlink" x="0px" y="0px"
	 width="380.638px" height="380.639px" viewBox="0 0 380.638 380.639" style="enable-background:new 0 0 380.638 380.639;"
	 xml:space="preserve">
<g>
	<path d="M337.258,117.828c-0.689-10.859-25.725,9.593-25.725,9.593s17.539-24.896,23.681-23.628
		c-2.978-8.921-27.067,14.369-27.067,14.369l1.717-26.711l-3.095,8.565l-4.787-13.686l-9.004,10.982
		c5.01-6.229,17.691-22.911,13.791-27.424c-1.717,6.499-13.008,14.713-13.008,14.713s7.204-21.217-3.083-21.585
		c3.55,6.399-4.122,12.506-4.122,12.506s-9.914-5.418-7.882-11.134c-6.376,1.366-7.182,14.375-7.182,14.375
		s-2.721-11.63-11.642-15.391c-8.898-3.766,8.232-17.13,3.082-25.345c-3.748,6.183-16.441,14.392-16.441,14.392
		s2.756-22.619-9.575-28.778c4.788,11.66-3.433,20.891-3.433,20.891S212.909,7.999,220.137,3.083
		c-8.676,1.903-5.453,16.733-1.74,27.803c-3.924-11.023-8.104-26.005-3.41-29.508c-12.214,3.071,0,38.021,0,38.021
		s-26.805-21.737-28.766-34.605c-9.359,5.132,17.475,30.828,17.475,30.828s-27.862-13.797-32.194-23.641
		c-3.205,1.6,1.366,7.188,1.366,7.188s-6.843,1.495-11.303-6.16c-2.51,9.23,18.835,28.772,18.835,28.772S144.767,14.047,146.145,0
		c-8.694,5.92,2.721,31.855,2.721,31.855s-28.872-14.947-33.56-22.064c-3.994,9.219,28.083,27.541,28.083,27.541
		s-21.679-4.268-24.668-7.532c-0.251,1.577,5.885,5.413,12.892,9.254c-16.657-7.929-38.681-17.136-44.385-13.371
		c11.42,4.461,27.062,21.585,27.062,21.585s-41.325-7.976-46.598,2.055c9.932-1.588,57.201,6.854,57.201,6.854
		s-72.03-1.25-71.586,10.854c11.765-4.128,33.589,4.21,33.589,4.21S43.62,81.874,43.38,102.414
		c12.792-13.931,29.8-12.676,29.8-12.676s-24.265,10.323-23.091,14.065c4.601-2.178,13.055-2.178,13.055-2.178
		s-10.054,8.67-6.061,13.463c4.688-9.015,19.191-15.075,19.191-15.075s-20.447,22.502-14.06,29.794
		c4.794-10.258,23.121-12.676,23.121-12.676s-13.65,10.977-14.217,16.792c4.449-3.305,13.358-3.76,13.358-3.76
		s-11.525,13.481-8.215,20.891c2.604-5.926,9.814-11.216,15.53-14.678c-3.468,17.802,0.397,35.965,3.34,43.579
		c0.128,0.479,0.239,0.969,0.345,1.472c-2.691,0.549-6.913,0.549-10.282-4.233c-1.424,6.877,6.551,7.905,10.907,7.963
		c0.467,4.583-0.111,9.535-3.241,14.206c-6.533,9.809-13.825,14.305-16.19,20.879c-3.339,9.189,14.275,10.777,14.275,10.777
		l0.035,3.48c0,0-5.646,5.488-4.437,9.762c1.594,5.722,12.961,3.689,12.961,3.689s-10.918,4.029-10.387,9.342
		c0.514,5.29,5.068,7.613,5.068,7.613s-10.556,20.738,4.974,25.316c15.531,4.555,47.053-14.387,51.14,7.754
		c3.97,15.285,21.667,52.792,15.537,59.821c-6.125,7.03-15.537,17.819-15.537,17.819l161.208,5.021c0,0-49.769-64.399-54.801-71.709
		c-4.122-5.967-18.882-26.834-14.06-45.237c2.861-1.028,6.925-2.184,12.717-3.386c37.904-17.354,34.249-43.159,34.249-43.159
		s8.909,3.199,5.827,14.713c7.531-4.671,4.109-29.8,4.109-29.8s9.716-0.782,5.827,21.766c25.456-26.203,1.717-49.849,1.717-49.849
		s18.835-0.549,19.524,7.199c8.688-5.926-15.122-17.136-15.122-17.136s14.315-5.126,11.688-11.981
		c-3.503,7.608-11.688,2.406-11.688,2.406s19.804-3.766,19.909-14.731c-4.577,6.049-24.312,4.11-24.312,4.11
		S333.463,114.692,337.258,117.828z"/>
</g>
<g>
</g>
<g>
</g>
<g>
</g>
<g>
</g>
<g>
</g>
<g>
</g>
<g>
</g>
<g>
</g>
<g>
</g>
<g>
</g>
<g>
</g>
<g>
</g>
<g>
</g>
<g>
</g>
<g>
</g>
</svg>
