<?xml version="1.0" encoding="iso-8859-1"?>
<!-- Generator: Adobe Illustrator 16.0.0, SVG Export Plug-In . SVG Version: 6.00 Build 0)  -->
<!DOCTYPE svg PUBLIC "-//W3C//DTD SVG 1.1//EN" "http://www.w3.org/Graphics/SVG/1.1/DTD/svg11.dtd">
<svg version="1.1" id="Capa_1" xmlns="http://www.w3.org/2000/svg" xmlns:xlink="http://www.w3.org/1999/xlink" x="0px" y="0px"
	 width="569.002px" height="569.001px" viewBox="0 0 569.002 569.001" style="enable-background:new 0 0 569.002 569.001;"
	 xml:space="preserve">
<g>
	<g>
		<path d="M284.5,0C180.14,0,95.253,127.621,95.253,284.501c0,156.872,84.887,284.5,189.247,284.5
			c104.333,0,189.248-127.629,189.248-284.5C473.748,127.621,388.834,0,284.5,0z M284.5,538.339
			c-87.449,0-158.604-113.879-158.604-253.838c0-139.969,71.154-253.857,158.604-253.857c87.441,0,158.585,113.888,158.585,253.857
			C443.086,424.46,371.941,538.339,284.5,538.339z"/>
		<path d="M357.298,349.744c0,0,2,6.519,8.75,10.269c-8.75-37.323-13.001-67.109-13.001-67.109s7.001,10.501,14.501,8.018
			c-7-6.768-12.786-24.045-12.786-24.045s9.215,8.447,13.536,7.509c-5.625-8.241-14.019-41.564-14.019-41.564
			s14.59,13.59,21.34,12.84c-6.178-4.134-17.071-29.608-17.071-29.608s12.179,10.081,16.857,6.491
			c-7.679-2.812-13.107-12.268-13.107-12.268s16.679,2.688,21.769-1.241c-12.768-1.312-15.019-10.018-15.019-10.018
			s12.572-0.866,15.501-6.259c-27.537,6.697-22.857-39.313-28.287-55.278c-5.429-16-31.287-87.476-78.859-62.449
			c-27.938-13.402-56.208,14.081-65.351,43.341c-11.357,36.242-2.839,79.163-40.823,97.155c7.393,1.991,18.911-6,18.911-6
			s2.045,4.625-1.33,6.384c6.009,2.866,19.474-10.152,19.474-10.152s-6.75,13.019-11.268,15.269c0.509,3.884,8.286-1.75,8.286-1.75
			s-6.143,15.527-12.769,20.277c0.134,4.759,10.277-2.884,16.519-6.768c-2.509,2.634-11.144,16.402-23.795,24.027
			c8.375,1.518,18.036-7.75,18.036-7.75s-0.768,6.643-4.759,14.286c6-2.634,10.75-9.536,10.75-9.536s2.768,106.307-1.241,127.236
			c2.25-3.875,4.625-9.643,7.75-5.035c4.759,6.535-3.018,32.572-3.018,32.572s10.027-8.518,13.536-15.518
			c6.75,9.143-5.5,56.84-5.5,56.84s8.5-8.66,16.269-24.572c5.875,0.25,2,26.823,2,26.823s5.116-2.286,9.759-19.786
			c3.893,5.357-4,34.555-6.018,39.305c6.277-2.5,15.545-33.555,15.545-33.555s3.75,36.072,9.875,41.072
			c-3.384-8.929-13.509-111.432-11.393-114.432c9.768,18.285,10.768,61.984,16.768,64.359c-3.384-9.894-0.25-27.287-0.25-27.287
			s4.384,30.055,8.643,33.055c-2.009-7.536-2.866-33.055-5.741-42.555c-2.866-9.5-26.188-56.859-45.716-160.3
			c-3.491-8.92,20.278-111.173,28.563-112.441c18.287,26.555,45.824,64.109,58.859,74.887c34.537,29.545-7.84,54.27-16.536,60.6
			c-9.019,10.509,14.019,78.896,27.036,84.396c2.001,4.179-5.785,44.52,0.732,56.287c6.519,11.77,22.145,26.608,13.305,59.663
			c17.5,22.805,4.5-85.146,4.5-85.146s17.5,81.396,39.822,79.146C361.816,439.123,357.298,349.744,357.298,349.744z"/>
	</g>
</g>
<g>
</g>
<g>
</g>
<g>
</g>
<g>
</g>
<g>
</g>
<g>
</g>
<g>
</g>
<g>
</g>
<g>
</g>
<g>
</g>
<g>
</g>
<g>
</g>
<g>
</g>
<g>
</g>
<g>
</g>
</svg>
