<?xml version="1.0" encoding="iso-8859-1"?>
<!-- Generator: Adobe Illustrator 16.0.0, SVG Export Plug-In . SVG Version: 6.00 Build 0)  -->
<!DOCTYPE svg PUBLIC "-//W3C//DTD SVG 1.1//EN" "http://www.w3.org/Graphics/SVG/1.1/DTD/svg11.dtd">
<svg version="1.1" id="Capa_1" xmlns="http://www.w3.org/2000/svg" xmlns:xlink="http://www.w3.org/1999/xlink" x="0px" y="0px"
	 width="566.532px" height="566.533px" viewBox="0 0 566.532 566.533" style="enable-background:new 0 0 566.532 566.533;"
	 xml:space="preserve">
<g>
	<path d="M473.534,430.886c0,0,19.947-6.162,31.537,6.839c1.91-17.482-24.93-15.554-35.341-22.036s-19.769-49.787-19.769-49.787
		s35.52,20.054,24.697,41.805c15.394-9.322,15.965-22.895,14.447-47.109c-1.518-24.232-24.983-19.679-25.84-29.269
		c-0.59-6.821,5.857-7.769,9.714-12.911c-0.018,1.161,0.089,2.34,0.554,3.411c3.982,9.625,23.715,26.072,17.857,38.769
		c18.145-12.535-10.16-33.93-10.643-42.572c-0.465-8.643,19.305-17.858,19.768-31.903c0.482-14.081-38.947-21.849-39.894-31.546
		c-0.946-9.688,17.483-13.384,17.858-23.206c0.16-4.152-5.555-15.867-12.18-27.992c5.286,4.349,10.661,8.536,9.536,12.813
		c10.554-5.027-6.554-16.367-5.714-21.277c0.839-4.964,14.25-8.474,8.357-22.804c-5.876-14.358-45.967-36.868-45.967-36.868
		s12.251-3.509,25.84-2.286c13.59,1.241,27.127,10.152,16.34,25.09c15.108,4.661,12.555-28.037,3.805-33.082
		c-8.732-5.009-24.322-9.509-42.18-5.322c16.732-74.297-71.057-79.413-71.057-79.413s4.84-16.537-2.285-22.42
		c-7.144-5.893-55.092-11.983-78.673-17.117c-23.572-5.125-86.074,19.563-108.289,28.876c-22.215,9.304-45.895,50.85-61.592,50.573
		c-15.67-0.286-34.465,5.143-39.698,36.1c3.527,11.045,7.5,20.188,10.956,27.305c-2.447,6.527-4.152,13.241-5.25,19.965
		c-9.339,1.741-20.715,1.241-25.269-9.652c-2.741,17.152,12.724,19.001,24.17,18.135c-2.339,25.492,2.982,49.6,7.241,60.546
		c0.224,0.804,0.384,1.652,0.572,2.474c-4.482,0.911-11.5,0.911-17.135-7.045c-2.375,11.447,10.894,13.152,18.135,13.259
		c0.768,7.625-0.179,15.858-5.357,23.644c-10.875,16.331-23.019,23.813-26.93,34.742C50.261,314.9,79.61,317.56,79.61,317.56
		l0.071,5.769c0,0-9.393,9.125-7.402,16.251c2.67,9.518,21.572,6.125,21.572,6.125s-18.152,6.696-17.295,15.554
		c0.857,8.84,8.447,12.679,8.447,12.679s-17.572,34.537,8.268,42.145c25.858,7.59,78.279-23.965,85.119,12.911
		c6.607,25.43,36.046,87.878,25.84,99.558c-10.206,11.696-25.84,29.625-25.84,29.625l268.286,8.357c0,0-47.717-61.734-74.378-96.789
		c24.786,25.447,32.466-8.482,32.466-8.482s-7.607,31.27,1.518,36.484c9.107,5.232,40.751,5.91,33.805,35.34
		c4.465,1.518,10.34,4.197,9.893-11.393c-0.232-7.787-5.41-19.483-10.304-30.162c52.181-4.965,33.126-47.342,33.126-47.342
		s57.77,7.895,12.912,41.412C550.573,455.011,473.534,430.886,473.534,430.886z M486.07,288.39c0,5.813-6.411,13.635-10.286,21.028
		c0.179-14.536-19.732-32.037-19.732-32.037S486.07,279.077,486.07,288.39z M465.552,175.145c3.732,6.491-4.929,5.375-7.786,13.197
		c-6.054-10.384-11.089-18.519-11.089-18.519S461.569,168.216,465.552,175.145z M439.14,490.333
		c-4.695-10.196-8.928-19.304-8.053-22.857c1.803-7.393,15.607-22.5,15.607-22.5S489.57,476.351,439.14,490.333z"/>
	<path d="M178.649,417.957c0,0-13.857,29.662-28.876,35.358c8.911,5.625,33.832-24.715,33.832-24.715s-8.554,21.769-30.028,33.447
		c-21.465,11.715-5.589,31.733,4.572,25.841c-8.652-2.18-13.992-15.483,3.419-25.072c17.412-9.572,37.251-20.52,37.251-20.52v10.644
		c0,0-39.626,36.198-6.089,36.876c-11.358-3.107-16.715-11.41-0.768-23.572c15.965-12.16,18.617-19,18.617-19L178.649,417.957z"/>
</g>
<g>
</g>
<g>
</g>
<g>
</g>
<g>
</g>
<g>
</g>
<g>
</g>
<g>
</g>
<g>
</g>
<g>
</g>
<g>
</g>
<g>
</g>
<g>
</g>
<g>
</g>
<g>
</g>
<g>
</g>
</svg>
