<?xml version="1.0" encoding="iso-8859-1"?>
<!-- Generator: Adobe Illustrator 16.0.0, SVG Export Plug-In . SVG Version: 6.00 Build 0)  -->
<!DOCTYPE svg PUBLIC "-//W3C//DTD SVG 1.1//EN" "http://www.w3.org/Graphics/SVG/1.1/DTD/svg11.dtd">
<svg version="1.1" id="Capa_1" xmlns="http://www.w3.org/2000/svg" xmlns:xlink="http://www.w3.org/1999/xlink" x="0px" y="0px"
	 width="371.319px" height="371.319px" viewBox="0 0 371.319 371.319" style="enable-background:new 0 0 371.319 371.319;"
	 xml:space="preserve">
<g>
	<path d="M131.681,365.095l199.667,6.224c0,0-2.989-3.865-7.719-9.984c0,0,14.597-195.865-5.757-273.909
		c-16.359-62.694-71.044-80.052-91.945-84.455c-0.327-0.239-0.537-0.385-0.537-0.385c-1.354-0.199-2.628-0.298-3.97-0.467
		c-2.383-0.403-3.749-0.537-3.749-0.537l0.035,0.087C146.774-6.558,97.952,17.596,80.208,31.369
		c-31.75,26.379-22.794,76.083-16.861,91.368c0.157,0.596,0.286,1.22,0.432,1.828c-3.34,0.683-8.565,0.683-12.751-5.237
		c-1.758,8.513,8.121,9.768,13.504,9.855c0.583,5.664-0.134,11.8-3.982,17.597c-8.098,12.162-17.136,17.708-20.056,25.865
		c-4.146,11.373,17.685,13.347,17.685,13.347l0.047,4.32c0,0-6.995,6.773-5.512,12.074c1.985,7.089,16.05,4.577,16.05,4.577
		s-13.505,4.986-12.868,11.561c0.636,6.586,6.276,9.436,6.276,9.436s-13.078,25.689,6.16,31.364
		c19.226,5.651,58.269-17.819,63.348,9.622c4.916,18.917,26.822,65.392,19.227,74.08
		C143.318,351.737,131.681,365.095,131.681,365.095z"/>
</g>
<g>
</g>
<g>
</g>
<g>
</g>
<g>
</g>
<g>
</g>
<g>
</g>
<g>
</g>
<g>
</g>
<g>
</g>
<g>
</g>
<g>
</g>
<g>
</g>
<g>
</g>
<g>
</g>
<g>
</g>
</svg>
