<?xml version="1.0" encoding="iso-8859-1"?>
<!-- Generator: Adobe Illustrator 16.0.0, SVG Export Plug-In . SVG Version: 6.00 Build 0)  -->
<!DOCTYPE svg PUBLIC "-//W3C//DTD SVG 1.1//EN" "http://www.w3.org/Graphics/SVG/1.1/DTD/svg11.dtd">
<svg version="1.1" id="Capa_1" xmlns="http://www.w3.org/2000/svg" xmlns:xlink="http://www.w3.org/1999/xlink" x="0px" y="0px"
	 width="354.398px" height="354.398px" viewBox="0 0 354.398 354.398" style="enable-background:new 0 0 354.398 354.398;"
	 xml:space="preserve">
<g>
	<path d="M129.776,348.933l175.432,5.465c0,0-54.171-70.086-59.636-78.015c-2.078-3.024-6.655-9.54-10.451-17.644
		c16.769-13.697,56.61-49.768,55.817-82.756c-0.993-41.728,8.956-89.441-12.425-117.775c-21.381-28.34-69.082-75.539-119.761-51.694
		C108.051,30.37,99.106,29.88,80.23,53.736c-18.882,23.856-35.778,31.3-27.838,71.551c4.863,0.251,10.188,0.251,14.374,0.205
		c0.917,4.338,1.997,7.963,2.972,10.498c0.146,0.514,0.251,1.062,0.374,1.611c-2.931,0.602-7.52,0.602-11.204-4.601
		c-1.553,7.485,7.129,8.594,11.864,8.67c0.514,4.975-0.111,10.364-3.503,15.46c-7.117,10.679-15.058,15.56-17.614,22.718
		c-3.661,9.984,15.53,11.712,15.53,11.712l0.047,3.795c0,0-6.143,5.968-4.84,10.626c1.746,6.225,14.112,4.006,14.112,4.006
		s-11.876,4.379-11.315,10.17c0.561,5.781,5.512,8.279,5.512,8.279s-11.49,22.596,5.418,27.57
		c16.909,4.963,51.193-15.671,55.659,8.442c4.32,16.628,23.57,57.451,16.897,65.088
		C140.006,337.186,129.776,348.933,129.776,348.933z"/>
</g>
<g>
</g>
<g>
</g>
<g>
</g>
<g>
</g>
<g>
</g>
<g>
</g>
<g>
</g>
<g>
</g>
<g>
</g>
<g>
</g>
<g>
</g>
<g>
</g>
<g>
</g>
<g>
</g>
<g>
</g>
</svg>
