<?xml version="1.0" encoding="iso-8859-1"?>
<!-- Generator: Adobe Illustrator 16.0.0, SVG Export Plug-In . SVG Version: 6.00 Build 0)  -->
<!DOCTYPE svg PUBLIC "-//W3C//DTD SVG 1.1//EN" "http://www.w3.org/Graphics/SVG/1.1/DTD/svg11.dtd">
<svg version="1.1" id="Capa_1" xmlns="http://www.w3.org/2000/svg" xmlns:xlink="http://www.w3.org/1999/xlink" x="0px" y="0px"
	 width="351.177px" height="351.177px" viewBox="0 0 351.177 351.177" style="enable-background:new 0 0 351.177 351.177;"
	 xml:space="preserve">
<g>
	<path d="M58.238,148.03c3.491-5.237,4.14-10.795,3.614-15.927c-4.869-0.07-13.814-1.22-12.208-8.921
		c3.778,5.348,8.513,5.348,11.537,4.741c-0.128-0.555-0.251-1.115-0.379-1.664c-2.779-7.117-11.351-32.083-8.706-46.276
		c-6.785,0.228-6.329-6.662-2.522-15.519C40.115,51.583,29.612,30.156,31.79,0c26.869,33.782,117.448-17.901,168.115,22.146
		c50.679,40.035,55.279,253.446,119.771,265.73c-12.237,9.062-38.919,15.706-58.735,19.652
		c20.855,21.696,42.329,43.649,42.329,43.649l-180.65-5.629c0,0,10.533-12.098,17.399-19.968c6.86-7.87-12.95-49.907-17.399-67.026
		c-4.606-24.826-39.912-3.585-57.323-8.711c-17.41-5.115-5.575-28.375-5.575-28.375s-5.115-2.593-5.693-8.549
		c-0.572-5.932,11.648-10.462,11.648-10.462s-12.734,2.276-14.526-4.122c-1.343-4.776,4.986-10.941,4.986-10.941l-0.047-3.9
		c0,0-19.758-1.798-16.003-12.074C42.731,164.051,50.923,159.019,58.238,148.03z"/>
</g>
<g>
</g>
<g>
</g>
<g>
</g>
<g>
</g>
<g>
</g>
<g>
</g>
<g>
</g>
<g>
</g>
<g>
</g>
<g>
</g>
<g>
</g>
<g>
</g>
<g>
</g>
<g>
</g>
<g>
</g>
</svg>
