<?xml version="1.0" encoding="iso-8859-1"?>
<!-- Generator: Adobe Illustrator 16.0.0, SVG Export Plug-In . SVG Version: 6.00 Build 0)  -->
<!DOCTYPE svg PUBLIC "-//W3C//DTD SVG 1.1//EN" "http://www.w3.org/Graphics/SVG/1.1/DTD/svg11.dtd">
<svg version="1.1" id="Capa_1" xmlns="http://www.w3.org/2000/svg" xmlns:xlink="http://www.w3.org/1999/xlink" x="0px" y="0px"
	 width="31.503px" height="31.502px" viewBox="0 0 31.503 31.502" style="enable-background:new 0 0 31.503 31.502;"
	 xml:space="preserve">
<g>
	<g>
		<path d="M6.38,2.089c0.004,0.001,0.013,0,0.027-0.003C6.384,2.086,6.375,2.088,6.38,2.089z"/>
		<path d="M26.358,12.735c-0.004-0.26-0.032-0.904-0.335-0.898c-0.305,0.004-1.437-0.162-1.437-0.162l-0.095-0.496
			c0,0,0.475,0.276,0.859,0.228c0.385-0.049,0.563-0.577,0.872-0.482c0.309,0.094,0.568,0.496,0.914,0.349
			c0.345-0.147,0.389-0.389,0.228-0.537c-0.16-0.148-0.553-0.055-0.725-0.027c-0.171,0.029-0.206-0.451-0.417-0.496
			c-0.209-0.045-0.577,0.707-0.805,0.712c-0.229,0.004-0.363-0.381-0.604-0.403c-0.242-0.022-0.779,0.577-0.818,0.242
			c-0.041-0.336,0.421-0.779,0.421-0.779s0.692,0.381,1.242,0.202c0.551-0.181,0.291-0.824,0.726-0.874
			c0.435-0.048-0.219,0.534-0.08,0.698c0.139,0.166,0.522,0.337,0.685,0.081c0.162-0.256,0.125-1.176-0.255-1.49
			c-0.158-0.13-0.384-0.085-0.602,0.008c0.013-0.01,0.025-0.017,0.039-0.035c0.165-0.25,0.175-0.732-0.095-0.939
			c-0.143-0.109-0.537,0.112-0.875,0.342c-0.162-0.249-0.919-0.674-0.938-0.812c-0.022-0.175,0.269-0.244,0.269-0.244l0.35,0.15
			c0,0,0.353-0.537,0.188-0.698c-0.166-0.162-1.267,0.752-1.396,0.548c-0.13-0.206-0.859-0.427-0.859-0.427s0.864-0.568,1.223-0.604
			c0.357-0.036-0.358,0.484,0.039,0.537c0.399,0.053,0.748-0.877,0.524-1.142c-0.131-0.154-0.659,0.076-1.072,0.293
			c0.275-0.186,0.529-0.682,0.348-0.829c-0.216-0.176-1.36-0.165-1.263,0.295c0.1,0.461-0.281,0.993-0.281,0.993l-0.847-0.621
			c0,0-0.151-0.527,0.107-0.601c0.26-0.072,0.868,0.395,0.913,0.161c0.044-0.233,0.098-0.482,0.282-0.591
			c0.184-0.107,0.46,0.162,0.59,0.014s-0.31-0.747-0.671-0.766c-0.362-0.019-0.57,0.362-0.752,0.604
			c-0.182,0.242-1.168,0.349-1.168,0.349s0.993-0.559,0.993-0.953s-0.591-0.805-0.846-0.805c-0.255-0.001-0.64-0.126-0.537,0.309
			c0.104,0.434,0.727,0.188,0.779,0.188s-0.35,0.524-0.35,0.524s-0.156-0.483-0.496-0.269c-0.341,0.214-0.216,0.501-0.391,0.429
			c-0.667-0.894,0.192-0.662,0-1.369c-0.191-0.707-0.309-0.384-0.818-0.174c-0.511,0.209-0.698,0.979-0.698,0.979
			s-0.206-0.886,0.026-1.101c0.233-0.216,0.681-0.447,0.672-0.686c-0.01-0.237-0.798-1.158-1.183-0.818
			c-0.176,0.155-0.05,0.253,0.137,0.313c-0.187-0.005-0.342,0.037-0.298,0.211c0.1,0.397,0.564,0.246,0.471,0.712
			c-0.095,0.465-1.168,0.376-1.168,0.376s0.312-0.716,0.269-1.142c-0.045-0.425-0.654-1.222-0.886-1.262
			c-0.233-0.041-0.306-0.156-0.282,0.202c0.022,0.356,0.622,0.483,0.658,0.831c0.036,0.35-0.847,1.208-0.847,1.208
			s-0.354-0.822-0.174-1.1c0.179-0.278-0.501-0.331-0.698,0c-0.197,0.33,0.075,0.751,0.075,0.751l-0.612,0.31
			c0,0-0.214-0.712,0.242-1.008c0.077-0.319,0.027-0.276-0.51-0.188c-0.537,0.088-0.255,1.195-0.255,1.195S13.68,1.605,13.617,1.5
			c-0.063-0.107,0.394-0.407,0.376-0.672C13.976,0.563,13.349,0.27,13,0.345C12.651,0.42,12.5,0.621,12.637,0.828
			c0.139,0.208,0.837-0.165,0.886,0.067c0.049,0.232-0.282,0.341-0.255,0.619c0.027,0.276,0.497,0.725,0.497,0.725l-1.021,0.308
			c0,0,0.192-0.596,0.081-0.899c-0.112-0.305-0.371-0.469-0.51-0.645c-0.139-0.175,0.747-0.841,0.402-0.953
			c-0.344-0.114-0.998,0.452-1.033,0.859c-0.036,0.406,0.373,0.561,0.631,0.711c0.257,0.151,0,0.792,0,0.792l-1.074,0.201
			c0,0,0.64-0.536,0.631-0.926c-0.009-0.39-0.579-0.218-0.926-0.35c-0.347-0.13,0.434-0.353,0.362-0.685c-0.072-0.331-1.49,0-1.49,0
			l0.994,0.175c0,0-0.362,0.3-0.376,0.551c-0.014,0.251,0.568,0.306,0.59,0.551c0.022,0.247-0.295,0.55-0.295,0.55
			S9.895,1.54,9.321,1.781C8.749,2.022,9.804,2.13,10.06,2.425c0.255,0.296-0.577,0.081-0.416,0.43
			c0.161,0.349,0.671,0.686,0.671,0.686S9.303,3.616,9.066,3.474C8.83,3.329,9.178,2.686,8.985,2.506
			c-0.192-0.18-0.881,0.142-1.141-0.014c-0.26-0.157,0.438-0.309,0.134-0.591c-0.284-0.263-1.382,0.14-1.571,0.185
			C6.569,2.08,7.361,2.089,7.361,2.089S6.958,2.597,7.106,2.801c0.148,0.205,1.164-0.058,1.316-0.094
			C8.573,2.671,8.426,3.562,8.69,3.769c0.264,0.205,0.899,0.027,0.899,0.027s0.269,0.716,0,0.912
			C9.321,4.905,8.878,4.398,8.878,4.398S8.462,3.544,8.126,3.406C7.791,3.268,7.039,3.687,7.039,3.687s0.099-0.572-0.214-0.872
			c-0.313-0.3-1.034,0.148-1.034,0.148S5.615,2.221,5.267,2.089c-0.349-0.13-1.06,0.698-1.06,0.698s0.676-0.388,0.913-0.376
			c0.237,0.013,0.246,0.602,0.362,0.887c0.116,0.284,0.725-0.184,0.94,0C6.636,3.481,6.099,3.795,6.38,4.023
			c0.282,0.228,0.954,0.135,0.954,0.135l-0.04,0.845l-0.43,0.389c0,0-0.891-0.862-1.289-0.845C5.177,4.564,4.452,5.102,4.286,5.393
			C4.122,5.684,3.879,6.551,4.219,6.521C4.56,6.489,4.38,5.834,4.555,5.728C4.729,5.621,4.811,6.265,5.146,6.13
			c0.335-0.135-0.032-0.868,0.175-0.98C5.527,5.04,6.355,5.876,6.355,5.876l0.026,0.966c0,0-0.926-0.2-1.499,0.078
			C4.31,7.197,4.167,7.806,4.139,8.359C4.112,8.914,5.007,8.539,5.227,8.292C5.445,8.046,4.971,7.572,5.293,7.46
			c0.322-0.112,0.143,0.684,0.524,0.603c0.38-0.08,0.103-0.581,0.282-0.604c0.179-0.023,0.537,1.074,0.537,1.074
			S6.242,8.163,5.871,8.306C5.5,8.45,5.28,8.883,5.28,8.883S4.872,8.529,4.703,8.602C4.534,8.674,3.825,9.505,4.207,9.675
			c0.381,0.17,0.274-0.592,0.55-0.685c0.276-0.093,0.34,0.104,0.618,0.188c0.278,0.084,0.484-0.578,0.484-0.578l0.116,0.913
			c0,0-0.247-0.395-0.563-0.21c-0.316,0.185-1.55,1.113-1.335,1.437c0.288,0.433,0.371,0.076,0.371,0.076s0.595-0.882,0.846-1.021
			c0.251-0.139,0.358,0.496,0.681,0.47c0.063-0.005,0.143-0.045,0.227-0.097l-0.384,0.742c0,0-0.273-0.546-0.537-0.323
			c-0.264,0.225,0.067,0.869-0.202,1.008c-0.268,0.139-0.375-0.766-0.725-0.537c-0.349,0.228-0.081,1.061,0.59,1.074
			c0.671,0.013,1.03-0.43,1.03-0.43H6.77c0,0-1.128,0.257-1.141,0.537c-0.014,0.279-0.497,0.847-1.021,0.939
			c-0.523,0.094-0.255,1.45-0.255,1.45s0.259-1.15,0.618-1.182c0.358-0.032,0.747-0.03,0.846-0.457
			c0.099-0.425,0.758-0.604,0.758-0.604l0.302,0.416c0,0-1.06,0.188-1.208,0.51c-0.147,0.322,0.162,0.564,0.376,0.807
			c0.214,0.241-0.483,0.38-0.255,0.778s0.899-0.201,0.859-0.47c-0.041-0.27-0.676-0.697-0.591-0.994
			c0.085-0.296,0.345,0.206,0.578,0.081c0.104-0.057,0.286-0.163,0.454-0.263c-0.042,1.073,0.182,2.051,0.364,2.519
			c0.01,0.037,0.019,0.077,0.027,0.116c-0.211,0.042-0.542,0.043-0.807-0.331c-0.112,0.538,0.514,0.619,0.854,0.624
			c0.037,0.358-0.008,0.747-0.252,1.114c-0.512,0.769-1.084,1.121-1.269,1.637c-0.263,0.719,1.119,0.845,1.119,0.845l0.003,0.273
			c0,0-0.443,0.43-0.349,0.765c0.125,0.448,1.017,0.289,1.017,0.289s-0.855,0.315-0.815,0.731s0.397,0.598,0.397,0.598
			s-0.828,1.627,0.39,1.985c1.217,0.356,3.688-1.128,4.01,0.607c0.311,1.197,1.698,4.14,1.217,4.689
			c-0.481,0.55-1.217,1.396-1.217,1.396l12.639,0.395c0,0-3.902-5.049-4.296-5.621c-0.298-0.434-1.108-2.074-0.867-3.53
			c0.457,0.31,1.504-0.06,1.56-0.341c0.072-0.362-0.376,0.137-0.658,0c-0.281-0.136-0.161-0.685-0.161-0.685l1.048,0.309
			l0.121-0.255l-0.362-0.188l0.349-0.752c0,0,0.219-0.232,0.47-0.175c0.25,0.06-0.179,0.461,0.229,0.577
			c0.407,0.116,0.397-0.922,0.684-1.007c0.287-0.085,0.265,0.138,0.511,0.269c0.247,0.131,0.796-0.396,0.766-0.577
			c-0.031-0.179-0.184-0.215-0.376-0.316c-0.192-0.104-0.238,0.441-0.403,0.316c-0.166-0.125-0.094-0.082-0.295-0.316
			c-0.201-0.235,0.416-0.797,0.416-0.797s0.524,0.28,0.604,0.28c0.081,0,0.054-0.656,0.054-0.656l0.121,0.43
			c0,0,0.895-0.301,0.833-0.604c-0.063-0.305-1.034-0.416-1.034-0.416l0.349-0.241l-0.094-1.074c0,0,0.823,0.21,0.833,0.482
			c0.009,0.272-0.563,0.336-0.396,0.592c0.167,0.255,0.012,0.263,0.599,0c0.598,0,0.434-0.632,0.214-0.939
			c-0.219-0.31-0.979-0.354-1.061-0.538c-0.081-0.184,0.188-0.817,0.188-0.817s0.646,0.035,0.698,0.309
			c0.054,0.272-0.662,0.12-0.563,0.51c0.1,0.391,0.686-0.007,0.968-0.16c0.281-0.154-0.188-0.998-0.041-1.128
			c0.146-0.129,0.738-0.011,0.886,0.014c0.147,0.024-0.372,0.027-0.014,0.523c0.357,0.497,0.822-0.39,0.712-0.711
			c-0.112-0.323-1.464-0.336-1.464-0.336l-0.953-1.383c0,0,1.204-0.25,1.249,0.04c0.044,0.291-0.045,1.23,0.375,1.195
			c0.421-0.036,0.151-0.591,0.457-0.672c0.305-0.08,0.196,0.438,0.457,0.255c0.259-0.183,0.42-0.37,0.241-0.697
			C27.189,12.341,26.362,12.997,26.358,12.735z M25.755,8.227c0,0,0.176,0.412,0.33,0.403c-0.29,0.133-0.554,0.336-0.599,0.32
			C25.404,8.924,25.755,8.227,25.755,8.227z M24.934,8.167c-0.166,0.124-0.28,0.219-0.28,0.219l-0.442-0.43
			C24.211,7.957,24.604,8.156,24.934,8.167z M23.23,5.205c0.43-0.112-0.171,0.503,0.147,0.442c0.022-0.004,0.046-0.018,0.069-0.027
			c-0.252,0.136-0.444,0.257-0.444,0.257S22.801,5.316,23.23,5.205z"/>
	</g>
</g>
<g>
</g>
<g>
</g>
<g>
</g>
<g>
</g>
<g>
</g>
<g>
</g>
<g>
</g>
<g>
</g>
<g>
</g>
<g>
</g>
<g>
</g>
<g>
</g>
<g>
</g>
<g>
</g>
<g>
</g>
</svg>
