<?xml version="1.0" encoding="iso-8859-1"?>
<!-- Generator: Adobe Illustrator 16.0.0, SVG Export Plug-In . SVG Version: 6.00 Build 0)  -->
<!DOCTYPE svg PUBLIC "-//W3C//DTD SVG 1.1//EN" "http://www.w3.org/Graphics/SVG/1.1/DTD/svg11.dtd">
<svg version="1.1" id="Capa_1" xmlns="http://www.w3.org/2000/svg" xmlns:xlink="http://www.w3.org/1999/xlink" x="0px" y="0px"
	 width="376.427px" height="376.427px" viewBox="0 0 376.427 376.427" style="enable-background:new 0 0 376.427 376.427;"
	 xml:space="preserve">
<g>
	<path d="M341.725,220.1c7.368,2.908,8.548,4.508,6.995,14.608c-1.553,10.124-9.809,7.122-15.169,6.527
		c-5.371-0.584-16.546-7.286-22.606-18.029c-17.715-41.034,0-82.055,0-148.585c0-66.524-36.375-73.361-73.975-74.593
		c-37.624-1.244-71.966,39.468-62.175,75.843c-14.917,3.736-11.654-17.703-59.057,7.461c-47.42,25.176-41.454,19.898-69.636,29.847
		c-28.183,9.926-61.544,43.357-13.68,79.095c62.642,14.165,166.615,98.135,166.615,98.135l23.628-34.869
		c0,0,8.711,29.217,14.924,31.704c0.969,0.386-1.705-42.89,5.289-38.091c-4.414,9.213-0.467,43.812,0.129,44.863
		c7.684,13.686,17.224,43.754,4.53,53.527c-16.161,12.426-18.029-9.948-18.029-9.948s-19.279,47.876,35.44,37.309
		c54.707-10.591,42.271-119.994,42.271-119.994s59.693,34.821,60.92-18.029C368.957,202.608,334.357,217.181,341.725,220.1z"/>
</g>
<g>
</g>
<g>
</g>
<g>
</g>
<g>
</g>
<g>
</g>
<g>
</g>
<g>
</g>
<g>
</g>
<g>
</g>
<g>
</g>
<g>
</g>
<g>
</g>
<g>
</g>
<g>
</g>
<g>
</g>
</svg>
